<svg width="24" height="24" viewBox="0 0 24 24" fill="#cacaca" xmlns="http://www.w3.org/2000/svg">
   <path fillRule="evenodd" clipRule="evenodd" d="M20 12C20 11.7348 19.8946 11.4804 19.7071 11.2929L12.7071 4.29289C12.3166 3.90237 11.6834 3.90237 11.2929 4.29289C10.9024 4.68342 10.9024 5.31658 11.2929 5.70711L16.5858 11L5 11C4.44771 11 4 11.4477 4 12C4 12.5523 4.44771 13 5 13L16.5858 13L11.2929 18.2929C10.9024 18.6834 10.9024 19.3166 11.2929 19.7071C11.6834 20.0976 12.3166 20.0976 12.7071 19.7071L19.7071 12.7071C19.8946 12.5196 20 12.2652 20 12Z" /> 
</svg>
