<svg width="24" height="24" viewBox="0 0 24 24" fill="#cacaca" xmlns="http://www.w3.org/2000/svg">
   <path d="M19.8368 14.3278C20.3575 14.442 20.8773 14.1124 20.9381 13.5828C21.0717 12.4187 20.989 11.237 20.6913 10.0979C20.312 8.64675 19.5946 7.30601 18.5976 6.1854C17.6006 5.0648 16.3525 4.19619 14.9553 3.65065C13.8586 3.22244 12.6946 3.00283 11.5228 3.00003C10.9897 2.99875 10.6019 3.47673 10.6547 4.00718C10.7075 4.53764 11.1814 4.91838 11.7143 4.93347C12.5815 4.95803 13.4405 5.13158 14.2532 5.44888C15.3664 5.88356 16.3609 6.57566 17.1553 7.46856C17.9497 8.36145 18.5214 9.42975 18.8236 10.586C19.0442 11.4301 19.1166 12.3035 19.0401 13.1677C18.993 13.6987 19.3161 14.2137 19.8368 14.3278Z" /> 
</svg>
