<svg width="24" height="24" viewBox="0 0 24 24" fill="#cacaca" xmlns="http://www.w3.org/2000/svg">
   <path d="M17.293 5.29302C17.6835 4.90249 18.3165 4.90249 18.707 5.29302C19.0976 5.68354 19.0976 6.31655 18.707 6.70708L13.4141 12L18.707 17.293L18.7754 17.3692C19.0957 17.762 19.0731 18.341 18.707 18.7071C18.3409 19.0732 17.7619 19.0958 17.3691 18.7754L17.293 18.7071L12 13.4141L6.70703 18.7071C6.31651 19.0976 5.68349 19.0976 5.29297 18.7071C4.90244 18.3166 4.90244 17.6835 5.29297 17.293L10.5859 12L5.29297 6.70708L5.22461 6.63091C4.90426 6.23813 4.92685 5.65913 5.29297 5.29302C5.65908 4.9269 6.23809 4.90431 6.63086 5.22466L6.70703 5.29302L12 10.586L17.293 5.29302Z" /> 
</svg>
