<svg xmlns="http://www.w3.org/2000/svg" width="24" height="24" viewBox="0 0 24 24" fill="none">
   <path fill-rule="evenodd" clip-rule="evenodd" d="M11.2588 2.10455C11.8241 1.94154 12.4279 1.96934 12.9805 2.18659L18.2305 4.25006L18.4297 4.33795C19.3998 4.81161 20 5.81869 20 6.89948V12.0499C19.9999 14.5844 18.7205 16.7114 17.3057 18.296C16.062 19.6887 14.6455 20.7403 13.6768 21.378L13.291 21.626C12.5435 22.0936 11.6296 22.1229 10.8613 21.7139L10.709 21.626C9.76251 21.034 8.11564 19.8877 6.69434 18.296C5.2795 16.7114 4.00008 14.5844 4 12.0499V6.89948C4.00003 5.74651 4.68309 4.67724 5.76953 4.25006L11.0195 2.18659L11.2588 2.10455ZM11.874 4.01178L11.751 4.04791L6.50098 6.11139C6.22153 6.22141 6.00003 6.52292 6 6.89948V12.0499C6.00008 13.8924 6.93404 15.5622 8.18555 16.9639C9.43062 18.3583 10.903 19.3887 11.7695 19.9307L11.8262 19.961C11.9589 20.0221 12.1004 20.0121 12.2305 19.9307L12.582 19.7042C13.4613 19.1249 14.7251 18.1839 15.8145 16.9639C17.066 15.5622 17.9999 13.8924 18 12.0499V6.89948C18 6.57006 17.8302 6.29859 17.6006 6.16217L17.499 6.11139L12.249 4.04791C12.1282 4.00041 11.9988 3.98796 11.874 4.01178Z" fill="url(#paint0_radial_16928_14526)" /> <path fill-rule="evenodd" clip-rule="evenodd" d="M11.874 4.01178L11.751 4.04791L6.50098 6.11139C6.22153 6.22141 6.00003 6.52292 6 6.89948V12.0499C6.00008 13.8924 6.93404 15.5622 8.18555 16.9639C9.43062 18.3583 10.903 19.3887 11.7695 19.9307L11.8262 19.961C11.9589 20.0221 12.1004 20.0121 12.2305 19.9307L12.582 19.7042C13.4613 19.1249 14.7251 18.1839 15.8145 16.9639C17.066 15.5622 17.9999 13.8924 18 12.0499V6.89948C18 6.57006 17.8302 6.29859 17.6006 6.16217L17.499 6.11139L12.249 4.04791C12.1282 4.00041 11.9988 3.98796 11.874 4.01178ZM12.9058 10.5249L12.2858 8.22214C12.2061 7.92613 11.7861 7.92613 11.7064 8.22214L11.0864 10.5249C11.0586 10.6281 10.978 10.7088 10.8747 10.7366L8.572 11.3566C8.276 11.4363 8.276 11.8562 8.572 11.9359L10.8747 12.5559C10.978 12.5837 11.0586 12.6644 11.0864 12.7676L11.7064 15.0703C11.7861 15.3663 12.2061 15.3663 12.2858 15.0703L12.9058 12.7676C12.9336 12.6644 13.0142 12.5837 13.1175 12.5559L15.4202 11.9359C15.7162 11.8562 15.7162 11.4363 15.4202 11.3566L13.1175 10.7366C13.0142 10.7088 12.9336 10.6281 12.9058 10.5249Z" fill="url(#paint1_radial_16928_14526)" /> <defs> <radialGradient id="paint0_radial_16928_14526" cx="0" cy="0" r="1" gradientUnits="userSpaceOnUse" gradientTransform="translate(9 6.00014) rotate(79.3803) scale(16.2788)"> <stop stop-color="#FFB266" /> <stop offset="1" stop-color="#F77F00" /> </radialGradient> <radialGradient id="paint1_radial_16928_14526" cx="0" cy="0" r="1" gradientUnits="userSpaceOnUse" gradientTransform="translate(9 6.00014) rotate(79.3803) scale(16.2788)"> <stop stop-color="#FFB266" /> <stop offset="1" stop-color="#F77F00" /> </radialGradient> </defs> 
</svg>
