<svg xmlns="http://www.w3.org/2000/svg" width="20" height="20" viewBox="0 0 20 20" fill="none"><g clip-path="url(#clip0_16928_14468)"><path d="M10 8.18179V12.0545H15.3818C15.1455 13.3 14.4363 14.3546 13.3727 15.0636L16.6181 17.5818C18.509 15.8364 19.5999 13.2728 19.5999 10.2273C19.5999 9.51826 19.5363 8.83638 19.4181 8.1819L10 8.18179Z" fill="#4285F4" /><path d="M4.39551 11.9034L3.66354 12.4637L1.07259 14.4818C2.71804 17.7454 6.09052 20 9.99958 20C12.6995 20 14.9635 19.1091 16.6181 17.5818L13.3727 15.0636C12.4818 15.6636 11.345 16.0273 9.99958 16.0273C7.39959 16.0273 5.19057 14.2728 4.3996 11.9091L4.39551 11.9034Z" fill="#34A853" /><path d="M1.07265 5.51819C0.390868 6.86359 0 8.38179 0 9.99994C0 11.6181 0.39081 13.1364 1.07259 14.4818C1.07259 14.4908 4.39998 11.8999 4.39998 11.8999C4.19998 11.2999 4.08177 10.6636 4.08177 9.99984C4.08177 9.33612 4.19998 8.69979 4.39998 8.0998L1.07265 5.51819Z" fill="#FBBC05" /><path d="M9.99978 3.98182C11.4725 3.98182 12.7816 4.49089 13.8271 5.47272L16.6907 2.60912C14.9543 0.990971 12.6998 0 9.99978 0C6.09072 0 2.7181 2.24545 1.07265 5.51819L4.39998 8.0998C5.19084 5.73614 7.3998 3.98182 9.99978 3.98182Z" fill="#EA4335" /></g><defs><clipPath id="clip0_16928_14468"><rect width="20" height="20" fill="white" /></clipPath></defs></svg>