<svg xmlns="http://www.w3.org/2000/svg" width="20" height="20" viewBox="0 0 20 20" fill="none"><g clip-path="url(#clip0_16928_14480)"><path d="M18.16 15.5861C17.8575 16.2848 17.4995 16.928 17.0847 17.5194C16.5193 18.3255 16.0563 18.8835 15.6996 19.1934C15.1465 19.702 14.5539 19.9625 13.9194 19.9773C13.4638 19.9773 12.9145 19.8477 12.275 19.5847C11.6334 19.323 11.0438 19.1934 10.5047 19.1934C9.93926 19.1934 9.33286 19.323 8.68424 19.5847C8.03463 19.8477 7.51131 19.9847 7.1112 19.9983C6.50271 20.0242 5.89618 19.7563 5.29077 19.1934C4.90436 18.8563 4.42104 18.2786 3.84205 17.4601C3.22083 16.586 2.71011 15.5725 2.31 14.417C1.88149 13.1689 1.66669 11.9603 1.66669 10.7902C1.66669 9.44984 1.95631 8.29383 2.53641 7.32509C2.99232 6.54697 3.59885 5.93316 4.35796 5.48255C5.11707 5.03195 5.93729 4.80233 6.8206 4.78764C7.30391 4.78764 7.93772 4.93714 8.72535 5.23096C9.51076 5.52576 10.0151 5.67526 10.2362 5.67526C10.4015 5.67526 10.9617 5.50045 11.9114 5.15195C12.8095 4.82875 13.5675 4.69492 14.1885 4.74764C15.8712 4.88344 17.1353 5.54675 17.976 6.74178C16.4712 7.6536 15.7267 8.93072 15.7415 10.5691C15.7551 11.8452 16.2181 12.9071 17.1279 13.7503C17.5403 14.1417 18.0007 14.4441 18.5131 14.6589C18.402 14.9812 18.2847 15.2898 18.16 15.5861ZM14.3009 0.400114C14.3009 1.40034 13.9354 2.33425 13.2071 3.19867C12.3281 4.22629 11.2649 4.8201 10.112 4.7264C10.0973 4.60641 10.0888 4.48011 10.0888 4.3474C10.0888 3.38718 10.5068 2.35956 11.2491 1.51934C11.6197 1.09392 12.091 0.74019 12.6626 0.458013C13.233 0.180046 13.7725 0.0263242 14.2799 0C14.2947 0.133715 14.3009 0.267438 14.3009 0.400101V0.400114Z" fill="#292B33" fill-opacity="0.7" /></g><defs><clipPath id="clip0_16928_14480"><rect width="20" height="20" fill="white" /></clipPath></defs></svg>