<svg width="24" height="24" viewBox="0 0 24 24" xmlns="http://www.w3.org/2000/svg" fill="#cacaca"><path d="M8.625 3.87891L3.52734 8.13281C3.17578 7.61719 3 7.01953 3 6.33984C3.02344 5.40234 3.35156 4.61719 3.98438 3.98438C4.61719 3.35156 5.40234 3.02344 6.33984 3C7.25391 3.02344 8.01562 3.31641 8.625 3.87891ZM12 6.9375C10.875 6.9375 9.84375 7.21875 8.90625 7.78125C7.96875 8.32031 7.21875 9.07031 6.65625 10.0312C6.09375 11.0156 5.8125 12.0469 5.8125 13.125C5.8125 14.2031 6.09375 15.2344 6.65625 16.2188C7.21875 17.1797 7.96875 17.9297 8.90625 18.4688C9.84375 19.0312 10.875 19.3125 12 19.3125C13.125 19.3125 14.1562 19.0312 15.0938 18.4688C16.0312 17.9297 16.7812 17.1797 17.3438 16.2188C17.9062 15.2344 18.1875 14.2031 18.1875 13.125C18.1875 12.0469 17.9062 11.0156 17.3438 10.0312C16.7812 9.07031 16.0312 8.32031 15.0938 7.78125C14.1562 7.21875 13.125 6.9375 12 6.9375ZM12 21C10.1016 20.9531 8.44922 20.3672 7.04297 19.2422L5.56641 20.7539C5.16797 21.082 4.76953 21.082 4.37109 20.7539C4.04297 20.3555 4.04297 19.957 4.37109 19.5586L5.88281 18.082C4.75781 16.6758 4.17188 15.0234 4.125 13.125C4.14844 11.6484 4.51172 10.3242 5.21484 9.15234C5.89453 7.95703 6.83203 7.01953 8.02734 6.33984C9.19922 5.63672 10.5234 5.27344 12 5.25C13.4766 5.27344 14.8008 5.63672 15.9727 6.33984C17.168 7.01953 18.1055 7.95703 18.7852 9.15234C19.4883 10.3242 19.8516 11.6484 19.875 13.125C19.8281 15.0234 19.2422 16.6758 18.1172 18.082L19.6289 19.5586C19.957 19.957 19.957 20.3555 19.6289 20.7539C19.2305 21.082 18.832 21.082 18.4336 20.7539L16.957 19.2773C15.5508 20.3789 13.8984 20.9531 12 21ZM20.4727 8.13281L15.375 3.87891C15.9844 3.31641 16.7461 3.02344 17.6602 3C18.5977 3.02344 19.3828 3.35156 20.0156 3.98438C20.6484 4.61719 20.9766 5.40234 21 6.33984C21 7.01953 20.8242 7.61719 20.4727 8.13281ZM12.8438 9.46875V12.7734L14.2852 14.2148C14.6133 14.6133 14.6133 15.0117 14.2852 15.4102C13.8867 15.7383 13.4883 15.7383 13.0898 15.4102L11.4023 13.7227C11.2383 13.5586 11.1562 13.3594 11.1562 13.125V9.46875C11.2031 8.95312 11.4844 8.67188 12 8.625C12.5156 8.67188 12.7969 8.95312 12.8438 9.46875Z"/></svg>