<svg width="24" height="24" viewBox="0 0 24 24" xmlns="http://www.w3.org/2000/svg" fill="#cacaca"><path d="M4.81208 2.7998H19.1874C19.7145 2.84772 20.002 3.13523 20.05 3.66233C20.002 4.18942 19.7145 4.47693 19.1874 4.52485H4.81208C4.28498 4.47693 3.99747 4.18942 3.94956 3.66233C3.99747 3.13523 4.28498 2.84772 4.81208 2.7998ZM3.01516 11.1375C2.94328 10.4427 3.12297 9.84373 3.55423 9.34059C4.00945 8.83745 4.59645 8.57391 5.31522 8.54995H18.6843C19.4031 8.57391 19.9901 8.83745 20.4453 9.34059C20.8765 9.84373 21.0562 10.4427 20.9844 11.1375L19.9062 19.1877C19.8343 19.7867 19.5828 20.2659 19.1515 20.6252C18.7442 21.0086 18.2411 21.2003 17.6421 21.2003H6.35743C5.75846 21.2003 5.25532 21.0086 4.84802 20.6252C4.41676 20.2659 4.16519 19.7867 4.09331 19.1877L3.01516 11.1375ZM5.31522 10.275C4.90791 10.3229 4.71624 10.5385 4.7402 10.9219L5.78241 18.9721C5.85429 19.2835 6.04596 19.4513 6.35743 19.4752H17.6421C17.9535 19.4513 18.1452 19.2835 18.2171 18.9721L19.2593 10.9219C19.2833 10.5385 19.0916 10.3229 18.6843 10.275H5.31522ZM17.1749 14.8751C17.127 15.9293 16.6238 16.8158 15.6655 17.5345C14.6832 18.2294 13.4613 18.5887 11.9998 18.6127C10.5383 18.5887 9.31636 18.2294 8.33404 17.5345C7.37568 16.8158 6.87255 15.9293 6.82463 14.8751C6.87255 13.8209 7.37568 12.9344 8.33404 12.2157C9.31636 11.5209 10.5383 11.1615 11.9998 11.1375C13.4613 11.1615 14.6832 11.5209 15.6655 12.2157C16.6238 12.9344 17.127 13.8209 17.1749 14.8751ZM3.37454 6.5374C3.42246 6.0103 3.70997 5.72279 4.23706 5.67488H19.7624C20.2895 5.72279 20.5771 6.0103 20.625 6.5374C20.5771 7.06449 20.2895 7.352 19.7624 7.39992H4.23706C3.70997 7.352 3.42246 7.06449 3.37454 6.5374ZM11.9998 16.0251C12.3352 16.0251 12.6107 15.9413 12.8263 15.7736C13.042 15.6059 13.1498 15.4022 13.1498 15.1626C13.1498 14.923 13.042 14.7194 12.8263 14.5517C12.6107 14.3839 12.3352 14.3001 11.9998 14.3001C11.6643 14.3001 11.3888 14.3839 11.1732 14.5517C10.9575 14.7194 10.8497 14.923 10.8497 15.1626C10.8497 15.4022 10.9575 15.6059 11.1732 15.7736C11.3888 15.9413 11.6643 16.0251 11.9998 16.0251Z"/></svg>