<svg width="24" height="24" viewBox="0 0 24 24" xmlns="http://www.w3.org/2000/svg" fill="#cacaca"><path d="M11.9998 2.94861C12.4726 2.94861 12.9364 3.07363 13.3455 3.30994C13.7032 3.51665 14.0077 3.80203 14.239 4.14197L14.3338 4.29041L14.3367 4.29529L21.6326 16.7933L21.6404 16.807C21.8751 17.2241 21.9984 17.695 21.9998 18.1732C22.0011 18.6516 21.8807 19.1239 21.6482 19.5424C21.4156 19.9609 21.0783 20.313 20.6677 20.5609C20.2569 20.8089 19.7877 20.9432 19.3074 20.9486H4.69215C4.21181 20.9432 3.74259 20.8089 3.3318 20.5609C2.92119 20.313 2.58389 19.9609 2.35133 19.5424C2.11885 19.1239 1.99846 18.6516 1.99977 18.1732C2.00109 17.695 2.12448 17.2241 2.35914 16.807L2.36695 16.7933L9.66285 4.29529L9.66578 4.29041C9.90566 3.88469 10.2453 3.54611 10.6541 3.30994C11.0631 3.07363 11.5269 2.94861 11.9998 2.94861ZM11.9998 4.94861C11.8806 4.94861 11.7619 4.97975 11.655 5.04138C11.5494 5.10242 11.4564 5.19161 11.3894 5.3031L4.10231 17.7875L4.05836 17.8783C4.02029 17.9724 4.00005 18.0748 3.99977 18.1791C3.99943 18.3179 4.03494 18.4529 4.10035 18.5707C4.16572 18.6883 4.25813 18.7829 4.36598 18.848C4.47356 18.913 4.59352 18.9472 4.71461 18.9486H19.2849C19.406 18.9472 19.526 18.913 19.6336 18.848C19.7414 18.7829 19.8338 18.6883 19.8992 18.5707C19.9646 18.4529 20.0001 18.3179 19.9998 18.1791C19.9994 18.0402 19.9633 17.9049 19.8972 17.7875H19.8963L12.6091 5.30408V5.3031C12.5422 5.19181 12.45 5.10234 12.3445 5.04138C12.2376 4.97975 12.1189 4.94861 11.9998 4.94861ZM12.0086 15.4135C12.5608 15.4136 13.0086 15.8612 13.0086 16.4135C13.0085 16.9656 12.5607 17.4133 12.0086 17.4135H11.9998C11.4475 17.4135 10.9999 16.9657 10.9998 16.4135C10.9998 15.8612 11.4475 15.4135 11.9998 15.4135H12.0086ZM10.9998 12.8783V9.34216C11 8.79004 11.4476 8.34216 11.9998 8.34216C12.5519 8.34217 12.9996 8.79005 12.9998 9.34216V12.8783C12.9995 13.4304 12.5519 13.8783 11.9998 13.8783C11.4476 13.8783 11 13.4304 10.9998 12.8783Z"/></svg>