<svg width="24" height="24" viewBox="0 0 24 24" xmlns="http://www.w3.org/2000/svg" fill="#cacaca"><path d="M15.7256 2L15.8252 2.00488C16.054 2.02768 16.2696 2.12896 16.4336 2.29297L21.707 7.56641C21.8946 7.75394 22 8.0092 22 8.27441V15.7256C22 15.9908 21.8946 16.2461 21.707 16.4336L16.4336 21.707C16.2461 21.8946 15.9908 22 15.7256 22H8.27441C8.04243 22 7.81854 21.9191 7.64062 21.7734L7.56641 21.707L2.29297 16.4336C2.10543 16.2461 2 15.9908 2 15.7256V8.27441L2.00488 8.1748C2.02768 7.94601 2.12896 7.73042 2.29297 7.56641L7.56641 2.29297L7.64062 2.22656C7.81854 2.08086 8.04243 2 8.27441 2H15.7256ZM4 8.68848V15.3115L8.68848 20H15.3115L20 15.3115V8.68848L15.3115 4H8.68848L4 8.68848ZM11 12V8C11 7.44772 11.4477 7 12 7C12.5523 7 13 7.44772 13 8V12C13 12.5523 12.5523 13 12 13C11.4477 13 11 12.5523 11 12Z"/><path d="M13 16C13 16.5523 12.5523 17 12 17C11.4477 17 11 16.5523 11 16C11 15.4477 11.4477 15 12 15C12.5523 15 13 15.4477 13 16Z"/></svg>