<svg width="24" height="24" viewBox="0 0 24 24" xmlns="http://www.w3.org/2000/svg" fill="#cacaca"><path d="M20 12C20 7.58172 16.4183 4 12 4C7.58172 4 4 7.58172 4 12C4 16.4183 7.58172 20 12 20C16.4183 20 20 16.4183 20 12ZM12.0088 14.5996C12.5609 14.5996 13.0086 15.0475 13.0088 15.5996C13.0088 16.1519 12.5611 16.5996 12.0088 16.5996H12C11.4477 16.5996 11 16.1519 11 15.5996C11.0002 15.0475 11.4478 14.5996 12 14.5996H12.0088ZM11 12V8.40039C11 7.84811 11.4477 7.40039 12 7.40039C12.5523 7.40039 13 7.84811 13 8.40039V12C13 12.5523 12.5523 13 12 13C11.4477 13 11 12.5523 11 12ZM22 12C22 17.5228 17.5228 22 12 22C6.47715 22 2 17.5228 2 12C2 6.47715 6.47715 2 12 2C17.5228 2 22 6.47715 22 12Z"/></svg>