<svg width="24" height="24" viewBox="0 0 24 24" xmlns="http://www.w3.org/2000/svg" fill="#cacaca"><path d="M12 5C8.13401 5 5 8.13401 5 12C5 15.866 8.13401 19 12 19C15.866 19 19 15.866 19 12C19 8.13401 15.866 5 12 5ZM15.2002 13H11.2139L12.707 14.4932C13.0975 14.8837 13.0975 15.5167 12.707 15.9072C12.3165 16.2976 11.6835 16.2976 11.293 15.9072L8.09277 12.707L8.02441 12.6309C7.70417 12.2381 7.72678 11.6591 8.09277 11.293L11.293 8.09277L11.3691 8.02441C11.7619 7.70417 12.3409 7.72678 12.707 8.09277C13.0733 8.45904 13.0961 9.03886 12.7754 9.43164L12.707 9.50684L11.2139 11H15.2002C15.7524 11.0001 16.2002 11.4478 16.2002 12C16.2002 12.5522 15.7524 12.9999 15.2002 13ZM12 3C16.9706 3 21 7.02944 21 12C21 16.9706 16.9706 21 12 21C7.02944 21 3 16.9706 3 12C3 7.02944 7.02944 3 12 3Z"/></svg>