<svg width="24" height="24" viewBox="0 0 24 24" xmlns="http://www.w3.org/2000/svg" fill="#cacaca"><path d="M12 5C15.866 5 19 8.13401 19 12C19 15.866 15.866 19 12 19C8.13401 19 5 15.866 5 12C5 8.13401 8.13401 5 12 5ZM8.7998 13H12.7861L11.293 14.4932C10.9025 14.8837 10.9025 15.5167 11.293 15.9072C11.6835 16.2976 12.3165 16.2976 12.707 15.9072L15.9072 12.707L15.9756 12.6309C16.2958 12.2381 16.2732 11.6591 15.9072 11.293L12.707 8.09277L12.6309 8.02441C12.2381 7.70417 11.6591 7.72678 11.293 8.09277C10.9267 8.45904 10.9039 9.03886 11.2246 9.43164L11.293 9.50684L12.7861 11H8.7998C8.24761 11.0001 7.7998 11.4478 7.7998 12C7.7998 12.5522 8.24761 12.9999 8.7998 13ZM12 3C7.02944 3 3 7.02944 3 12C3 16.9706 7.02944 21 12 21C16.9706 21 21 16.9706 21 12C21 7.02944 16.9706 3 12 3Z"/></svg>