<svg width="24" height="24" viewBox="0 0 24 24" xmlns="http://www.w3.org/2000/svg" fill="#cacaca"><path d="M19 12C19 15.866 15.866 19 12 19C8.13401 19 5 15.866 5 12C5 8.13401 8.13401 5 12 5C15.866 5 19 8.13401 19 12ZM11 8.7998V12.7861L9.50684 11.293C9.1163 10.9025 8.48327 10.9025 8.09277 11.293C7.70238 11.6835 7.70238 12.3165 8.09277 12.707L11.293 15.9072L11.3691 15.9756C11.7619 16.2958 12.3409 16.2732 12.707 15.9072L15.9072 12.707L15.9756 12.6309C16.2958 12.2381 16.2732 11.6591 15.9072 11.293C15.541 10.9267 14.9611 10.9039 14.5684 11.2246L14.4932 11.293L13 12.7861V8.7998C12.9999 8.24761 12.5522 7.7998 12 7.7998C11.4478 7.7998 11.0001 8.24761 11 8.7998ZM21 12C21 7.02944 16.9706 3 12 3C7.02944 3 3 7.02944 3 12C3 16.9706 7.02944 21 12 21C16.9706 21 21 16.9706 21 12Z"/></svg>