<svg width="24" height="24" viewBox="0 0 24 24" xmlns="http://www.w3.org/2000/svg" fill="#cacaca"><path d="M12 4.6875C9.9375 4.73438 8.21484 5.44922 6.83203 6.83203C5.44922 8.21484 4.73438 9.9375 4.6875 12C4.73438 14.0625 5.44922 15.7852 6.83203 17.168C8.21484 18.5508 9.9375 19.2656 12 19.3125C12.5156 19.3594 12.7969 19.6406 12.8438 20.1562C12.7969 20.6719 12.5156 20.9531 12 21C10.3125 20.9766 8.80078 20.5664 7.46484 19.7695C6.10547 18.9727 5.02734 17.8945 4.23047 16.5352C3.43359 15.1992 3.02344 13.6875 3 12C3.02344 10.3125 3.43359 8.80078 4.23047 7.46484C5.02734 6.10547 6.10547 5.02734 7.46484 4.23047C8.80078 3.43359 10.3125 3.02344 12 3C13.6875 3.02344 15.1992 3.43359 16.5352 4.23047C17.8945 5.02734 18.9727 6.10547 19.7695 7.46484C20.5664 8.80078 20.9766 10.3125 21 12V12.9844C20.9766 13.8984 20.6602 14.6602 20.0508 15.2695C19.4414 15.8789 18.6797 16.1953 17.7656 16.2188C16.6172 16.1719 15.7383 15.7148 15.1289 14.8477C14.3086 15.7148 13.2656 16.1719 12 16.2188C10.8047 16.1953 9.80859 15.7852 9.01172 14.9883C8.21484 14.1914 7.80469 13.1953 7.78125 12C7.80469 10.8047 8.21484 9.80859 9.01172 9.01172C9.80859 8.21484 10.8047 7.80469 12 7.78125C13.0312 7.80469 13.9219 8.12109 14.6719 8.73047C14.8359 8.49609 15.0703 8.36719 15.375 8.34375C15.8906 8.39062 16.1719 8.67188 16.2188 9.1875V12.9844C16.2188 13.4297 16.3711 13.793 16.6758 14.0742C16.957 14.3789 17.3203 14.5312 17.7656 14.5312C18.2109 14.5312 18.5742 14.3789 18.8555 14.0742C19.1602 13.793 19.3125 13.4297 19.3125 12.9844V12C19.2656 9.9375 18.5508 8.21484 17.168 6.83203C15.7852 5.44922 14.0625 4.73438 12 4.6875ZM14.5312 12C14.5078 11.0391 14.0859 10.3125 13.2656 9.82031C12.4219 9.35156 11.5781 9.35156 10.7344 9.82031C9.91406 10.3125 9.49219 11.0391 9.46875 12C9.49219 12.9609 9.91406 13.6875 10.7344 14.1797C11.5781 14.6484 12.4219 14.6484 13.2656 14.1797C14.0859 13.6875 14.5078 12.9609 14.5312 12Z"/></svg>