<svg width="24" height="24" viewBox="0 0 24 24" xmlns="http://www.w3.org/2000/svg" fill="#cacaca"><path d="M13 6.9375V10.0312L18.5312 6.15625C18.6771 6.05208 18.8542 6 19.0625 6C19.3333 6 19.5521 6.09375 19.7188 6.28125C19.9062 6.44792 20 6.66667 20 6.9375V17.0625C20 17.3333 19.9062 17.5521 19.7188 17.7188C19.5521 17.9062 19.3333 18 19.0625 18C18.875 18 18.6979 17.9479 18.5312 17.8438L13 13.9688V17.0625C13 17.3333 12.9062 17.5521 12.7188 17.7188C12.5521 17.9062 12.3333 18 12.0625 18C11.8542 18 11.6667 17.9375 11.5 17.8125L4.3125 12.5938C4.10417 12.4479 4 12.25 4 12C4 11.75 4.10417 11.5521 4.3125 11.4062L11.5 6.1875C11.6667 6.0625 11.8542 6 12.0625 6C12.3333 6 12.5521 6.09375 12.7188 6.28125C12.9062 6.44792 13 6.66667 13 6.9375ZM13 11.875V12.125L18.5 16V8.03125L13 11.875ZM6.03125 12L11.5 15.9688V8.03125L6.03125 12Z"/></svg>