<svg width="24" height="24" viewBox="0 0 24 24" xmlns="http://www.w3.org/2000/svg" fill="#cacaca"><path d="M9.5 6.75V10.0312L15.0312 6.15625C15.1771 6.05208 15.3542 6 15.5625 6C15.8333 6 16.0521 6.09375 16.2188 6.28125C16.4062 6.44792 16.5 6.66667 16.5 6.9375V17.0625C16.5 17.3333 16.4062 17.5521 16.2188 17.7188C16.0521 17.9062 15.8333 18 15.5625 18C15.375 18 15.1979 17.9479 15.0312 17.8438L9.5 13.9688V17.25C9.45833 17.7083 9.20833 17.9583 8.75 18C8.29167 17.9583 8.04167 17.7083 8 17.25V6.75C8.04167 6.29167 8.29167 6.04167 8.75 6C9.20833 6.04167 9.45833 6.29167 9.5 6.75ZM9.5 12.125L15 16V8.03125L9.5 11.875V12.125Z"/></svg>