<svg width="24" height="24" viewBox="0 0 24 24" xmlns="http://www.w3.org/2000/svg" fill="#cacaca"><path d="M3.25 18.125V5.875C3.29839 5.34028 3.58871 5.04861 4.12097 5C4.65323 5.04861 4.94355 5.34028 4.99194 5.875V10.8333L11.3427 5.25521C11.5363 5.08507 11.7661 5 12.0323 5C12.3468 5 12.6008 5.10938 12.7944 5.32812C13.0121 5.52257 13.121 5.77778 13.121 6.09375V10.8333L19.4718 5.25521C19.6653 5.08507 19.8952 5 20.1613 5C20.4758 5 20.7298 5.10938 20.9234 5.32812C21.1411 5.52257 21.25 5.77778 21.25 6.09375V17.9062C21.25 18.2222 21.1411 18.4774 20.9234 18.6719C20.7298 18.8906 20.4758 19 20.1613 19C19.8952 19 19.6653 18.9149 19.4718 18.7448L13.121 13.1667V17.9062C13.121 18.2222 13.0121 18.4774 12.7944 18.6719C12.6008 18.8906 12.3468 19 12.0323 19C11.7661 19 11.5363 18.9149 11.3427 18.7448L4.99194 13.1667V18.125C4.94355 18.6597 4.65323 18.9514 4.12097 19C3.58871 18.9514 3.29839 18.6597 3.25 18.125ZM19.5081 7.55208L14.4274 12L19.5081 16.4479V7.55208ZM11.379 16.4479V7.55208L6.29839 12L11.379 16.4479Z"/></svg>