<svg width="24" height="24" viewBox="0 0 24 24" xmlns="http://www.w3.org/2000/svg" fill="#cacaca"><path d="M8.5 7V9H11.5V7C11.4792 6.58333 11.3333 6.22917 11.0625 5.9375C10.7708 5.66667 10.4167 5.52083 10 5.5C9.58333 5.52083 9.22917 5.66667 8.9375 5.9375C8.66667 6.22917 8.52083 6.58333 8.5 7ZM7 9V7C7.02083 6.14583 7.3125 5.4375 7.875 4.875C8.4375 4.3125 9.14583 4.02083 10 4C10.8542 4.02083 11.5625 4.3125 12.125 4.875C12.6875 5.4375 12.9792 6.14583 13 7V9H15C15.5625 9.02083 16.0312 9.21875 16.4062 9.59375C16.7812 9.96875 16.9792 10.4375 17 11H15.5C15.4792 10.6875 15.3125 10.5208 15 10.5H5C4.6875 10.5208 4.52083 10.6875 4.5 11V17C4.52083 17.3125 4.6875 17.4792 5 17.5H8V19H5C4.4375 18.9792 3.96875 18.7812 3.59375 18.4062C3.21875 18.0312 3.02083 17.5625 3 17V11C3.02083 10.4375 3.21875 9.96875 3.59375 9.59375C3.96875 9.21875 4.4375 9.02083 5 9H7ZM11 12H19C19.5625 12.0208 20.0312 12.2188 20.4062 12.5938C20.7812 12.9688 20.9792 13.4375 21 14V18C20.9792 18.5625 20.7812 19.0312 20.4062 19.4062C20.0312 19.7812 19.5625 19.9792 19 20H11C10.4375 19.9792 9.96875 19.7812 9.59375 19.4062C9.21875 19.0312 9.02083 18.5625 9 18V14C9.02083 13.4375 9.21875 12.9688 9.59375 12.5938C9.96875 12.2188 10.4375 12.0208 11 12ZM13 14.5C12.9792 14.1875 12.8125 14.0208 12.5 14C12.1875 14.0208 12.0208 14.1875 12 14.5V15C12.0208 15.8542 12.3125 16.5625 12.875 17.125C13.4375 17.6875 14.1458 17.9792 15 18C15.8542 17.9792 16.5625 17.6875 17.125 17.125C17.6875 16.5625 17.9792 15.8542 18 15V14.5C17.9792 14.1875 17.8125 14.0208 17.5 14C17.1875 14.0208 17.0208 14.1875 17 14.5V15C16.9792 15.5625 16.7812 16.0312 16.4062 16.4062C16.0312 16.7812 15.5625 16.9792 15 17C14.4375 16.9792 13.9688 16.7812 13.5938 16.4062C13.2188 16.0312 13.0208 15.5625 13 15V14.5Z"/></svg>