<svg width="24" height="24" viewBox="0 0 24 24" xmlns="http://www.w3.org/2000/svg" fill="#cacaca"><path d="M4.75 5C5.20833 5.04167 5.45833 5.29167 5.5 5.75V18.25C5.45833 18.7083 5.20833 18.9583 4.75 19C4.29167 18.9583 4.04167 18.7083 4 18.25V5.75C4.04167 5.29167 4.29167 5.04167 4.75 5ZM7.5 5C7.8125 5.02083 7.97917 5.1875 8 5.5V18.5C7.97917 18.8125 7.8125 18.9792 7.5 19C7.1875 18.9792 7.02083 18.8125 7 18.5V5.5C7.02083 5.1875 7.1875 5.02083 7.5 5ZM9.75 5C10.2083 5.04167 10.4583 5.29167 10.5 5.75V18.25C10.4583 18.7083 10.2083 18.9583 9.75 19C9.29167 18.9583 9.04167 18.7083 9 18.25V5.75C9.04167 5.29167 9.29167 5.04167 9.75 5ZM13.25 5C13.7083 5.04167 13.9583 5.29167 14 5.75V18.25C13.9583 18.7083 13.7083 18.9583 13.25 19C12.7917 18.9583 12.5417 18.7083 12.5 18.25V5.75C12.5417 5.29167 12.7917 5.04167 13.25 5ZM18.5 5.75C18.5417 5.29167 18.7917 5.04167 19.25 5C19.7083 5.04167 19.9583 5.29167 20 5.75V18.25C19.9583 18.7083 19.7083 18.9583 19.25 19C18.7917 18.9583 18.5417 18.7083 18.5 18.25V5.75ZM16.5 5.5C16.5208 5.1875 16.6875 5.02083 17 5C17.3125 5.02083 17.4792 5.1875 17.5 5.5V18.5C17.4792 18.8125 17.3125 18.9792 17 19C16.6875 18.9792 16.5208 18.8125 16.5 18.5V5.5Z"/></svg>