<svg width="24" height="24" viewBox="0 0 24 24" xmlns="http://www.w3.org/2000/svg" fill="#cacaca"><path d="M10.5938 4.09208C10.9896 4.34208 11.0938 4.67541 10.9062 5.09208L8.375 9.99833H15.625L13.0938 5.09208C12.9062 4.67541 13.0104 4.34208 13.4062 4.09208C13.8229 3.90458 14.1562 4.00875 14.4062 4.40458L17.3125 9.99833H20.25C20.7083 10.04 20.9583 10.29 21 10.7483C20.9583 11.2067 20.7083 11.4567 20.25 11.4983H19.625L17.875 18.4983C17.75 18.9358 17.5104 19.29 17.1562 19.5608C16.8229 19.8525 16.4167 19.9983 15.9375 19.9983H8.0625C7.58333 19.9983 7.17708 19.8525 6.84375 19.5608C6.48958 19.29 6.25 18.9358 6.125 18.4983L4.375 11.4983H3.75C3.29167 11.4567 3.04167 11.2067 3 10.7483C3.04167 10.29 3.29167 10.04 3.75 9.99833H6.6875L9.59375 4.40458C9.84375 4.00875 10.1771 3.90458 10.5938 4.09208ZM5.9375 11.4983L7.59375 18.1233C7.65625 18.3525 7.8125 18.4775 8.0625 18.4983H15.9375C16.1875 18.4775 16.3542 18.3525 16.4375 18.1233L18.0938 11.4983H5.9375ZM10 13.7483V16.2483C9.95833 16.7067 9.70833 16.9567 9.25 16.9983C8.79167 16.9567 8.54167 16.7067 8.5 16.2483V13.7483C8.54167 13.29 8.79167 13.04 9.25 12.9983C9.70833 13.04 9.95833 13.29 10 13.7483ZM12 12.9983C12.4583 13.04 12.7083 13.29 12.75 13.7483V16.2483C12.7083 16.7067 12.4583 16.9567 12 16.9983C11.5417 16.9567 11.2917 16.7067 11.25 16.2483V13.7483C11.2917 13.29 11.5417 13.04 12 12.9983ZM15.5 13.7483V16.2483C15.4583 16.7067 15.2083 16.9567 14.75 16.9983C14.2917 16.9567 14.0417 16.7067 14 16.2483V13.7483C14.0417 13.29 14.2917 13.04 14.75 12.9983C15.2083 13.04 15.4583 13.29 15.5 13.7483Z"/></svg>