<svg width="24" height="24" viewBox="0 0 24 24" xmlns="http://www.w3.org/2000/svg" fill="#cacaca"><path d="M13.8945 19.9297C15.0664 19.6562 16.1211 19.1094 17.0586 18.3672L14.9883 16.3359C14.2852 17.3125 13.8945 18.5234 13.8945 19.8125C13.8945 19.8516 13.8945 19.8906 13.8945 19.9297ZM12.0195 20.125C12.0195 20.0469 12.0195 19.9297 12.0195 19.8125C12.0195 18.0156 12.6055 16.3359 13.6602 15.0078L12.0195 13.3281L6.94141 18.4062C8.34766 19.5 10.1055 20.125 12.0195 20.125ZM14.9883 13.6797C16.3164 12.625 17.9961 12 19.832 12C19.9102 12 20.0273 12.0391 20.1445 12.0391C20.1445 12.0391 20.1445 12.0391 20.1445 12C20.1445 10.125 19.4805 8.36719 18.3867 6.96094L13.3086 12L14.9883 13.6797ZM19.9102 13.875C19.8711 13.875 19.832 13.875 19.832 13.875C18.5039 13.875 17.293 14.3047 16.3164 15.0078L18.3867 17.0781C19.0898 16.1406 19.6367 15.0859 19.9102 13.875ZM12.0195 10.7109L17.0586 5.63281C15.6523 4.53906 13.8945 3.875 12.0195 3.875C11.9805 3.875 11.9805 3.875 11.9805 3.875C11.9805 3.99219 12.0195 4.10938 12.0195 4.1875C12.0195 6.02344 11.3945 7.70312 10.3398 9.03125L12.0195 10.7109ZM9.01172 7.70312C9.71484 6.6875 10.1445 5.51562 10.1445 4.1875C10.1445 4.1875 10.1445 4.14844 10.1445 4.10938C8.93359 4.38281 7.87891 4.92969 6.94141 5.63281L9.01172 7.70312ZM7.68359 9.03125L5.65234 6.96094C4.91016 7.89844 4.36328 8.95312 4.08984 10.125C4.12891 10.125 4.16797 10.125 4.20703 10.125C5.49609 10.125 6.70703 9.73438 7.68359 9.03125ZM3.89453 12C3.89453 13.9141 4.51953 15.6719 5.61328 17.0781L10.6914 12L9.01172 10.3594C7.68359 11.4141 6.00391 12 4.20703 12C4.08984 12 3.97266 12 3.89453 12ZM12.0195 22C8.42578 22 5.14453 20.125 3.34766 17C1.55078 13.9141 1.55078 10.125 3.34766 7C5.14453 3.91406 8.42578 2 12.0195 2C15.5742 2 18.8555 3.91406 20.6523 7C22.4492 10.125 22.4492 13.9141 20.6523 17C18.8555 20.125 15.5742 22 12.0195 22Z"/></svg>