<svg width="24" height="24" viewBox="0 0 24 24" xmlns="http://www.w3.org/2000/svg" fill="#cacaca"><path d="M12.4747 18.7119C12.746 18.2308 13.356 18.0608 13.837 18.332C14.3179 18.6034 14.4881 19.2134 14.2169 19.6943C13.9955 20.087 13.6752 20.416 13.2863 20.6465C12.897 20.8772 12.4534 21 12.0001 21C11.5469 21 11.1033 20.8772 10.714 20.6465C10.3736 20.4447 10.0861 20.1673 9.87121 19.8379L9.78332 19.6943L9.73742 19.6025C9.53433 19.1382 9.7124 18.5864 10.1632 18.332C10.6142 18.0777 11.1785 18.2109 11.4708 18.625L11.5255 18.7119L11.5685 18.7773C11.6147 18.8389 11.6712 18.8889 11.7335 18.9258C11.8165 18.975 11.9083 19 12.0001 19C12.0919 19 12.1837 18.975 12.2667 18.9258C12.3498 18.8765 12.4228 18.804 12.4747 18.7119ZM15.6671 8.80078C15.6671 7.7839 15.2738 6.81423 14.5831 6.10352C13.9362 5.43797 13.0783 5.05059 12.1798 5.00488L12.0001 5C11.037 5 10.1071 5.39372 9.41711 6.10352C8.72641 6.81423 8.33315 7.7839 8.33313 8.80078L8.32629 9.34082C8.25642 11.9867 7.67709 13.7878 7.04992 14.9707C7.04431 14.9813 7.03797 14.9915 7.03235 15.002H16.9679C16.9623 14.9915 16.9559 14.9813 16.9503 14.9707C16.2814 13.7091 15.6671 11.744 15.6671 8.80078ZM17.6671 8.80078C17.6671 11.4584 18.2192 13.0944 18.7169 14.0332C18.967 14.5048 19.2083 14.8104 19.3712 14.9873C19.4529 15.076 19.5157 15.1329 19.5509 15.1631C19.5684 15.1781 19.5792 15.1862 19.5822 15.1885C19.5836 15.1896 19.5829 15.1894 19.5802 15.1875C19.5789 15.1865 19.5767 15.1853 19.5743 15.1836C19.5732 15.1828 19.5718 15.1816 19.5704 15.1807L19.5685 15.1787H19.5665C19.927 15.4267 20.0846 15.8798 19.9552 16.2979C19.8254 16.7164 19.4384 17.002 19.0001 17.002H5.00012C4.56188 17.002 4.17479 16.7164 4.04504 16.2979C3.91559 15.8798 4.0732 15.4267 4.43371 15.1787H4.43176L4.42981 15.1807C4.4284 15.1816 4.42706 15.1828 4.4259 15.1836C4.42351 15.1853 4.42137 15.1865 4.42004 15.1875C4.41738 15.1894 4.41666 15.1896 4.41809 15.1885C4.42102 15.1862 4.43186 15.1781 4.44934 15.1631C4.48451 15.1329 4.54738 15.076 4.62903 14.9873C4.7919 14.8104 5.03327 14.5048 5.28332 14.0332C5.74993 13.1531 6.26478 11.6602 6.32727 9.28711L6.33313 8.80078C6.33315 7.27133 6.92409 5.79887 7.98352 4.70898C9.04388 3.61825 10.488 3 12.0001 3L12.2823 3.00684C13.691 3.07864 15.0225 3.68631 16.0167 4.70898C17.0761 5.79887 17.6671 7.27133 17.6671 8.80078Z"/></svg>