<svg width="24" height="24" viewBox="0 0 24 24" xmlns="http://www.w3.org/2000/svg" fill="#cacaca"><path d="M4.07325 15.2637C4.07091 15.2653 4.06739 15.2686 4.06739 15.2686C4.06514 15.2702 4.06561 15.2699 4.06739 15.2686C4.07109 15.2658 4.08244 15.2572 4.10157 15.2412C4.13987 15.2093 4.20705 15.1494 4.29396 15.0576C4.46721 14.8747 4.7219 14.5611 4.98536 14.0781C5.47703 13.1767 6.01825 11.65 6.08399 9.22462L6.09083 8.72755C6.09008 8.35243 6.12595 7.97863 6.19728 7.61134L2.29298 3.70704L2.22462 3.63087C1.90427 3.2381 1.92686 2.65909 2.29298 2.29298C2.65909 1.92686 3.2381 1.90427 3.63087 2.22462L3.70704 2.29298L8.00294 6.58888C8.01051 6.5963 8.01808 6.6037 8.0254 6.61134L21.707 20.293L21.7754 20.3692C22.0958 20.7619 22.0732 21.3409 21.707 21.707C21.3409 22.0732 20.7619 22.0958 20.3692 21.7754L20.293 21.707L15.6768 17.0908H4.63673C4.19615 17.0908 3.80748 16.8025 3.6797 16.3809C3.56797 16.0119 3.679 15.6171 3.95411 15.3604L4.07325 15.2637ZM12.6065 18.7764C12.9037 18.3658 13.4691 18.2392 13.917 18.499C14.3947 18.7761 14.5574 19.3875 14.2803 19.8652L14.1885 20.0117C13.9641 20.346 13.6656 20.6255 13.3154 20.8272C12.9153 21.0575 12.4617 21.1787 12 21.1787C11.5383 21.1787 11.0847 21.0576 10.6846 20.8272C10.3344 20.6255 10.0359 20.346 9.81153 20.0117L9.71974 19.8652L9.67286 19.7744C9.46408 19.3125 9.63513 18.7589 10.083 18.499C10.5309 18.2392 11.0963 18.3658 11.3936 18.7764L11.4492 18.8623L11.4961 18.9307C11.5468 18.9965 11.6101 19.052 11.6826 19.0938C11.7792 19.1494 11.8886 19.1787 12 19.1787C12.1115 19.1787 12.2208 19.1494 12.3174 19.0938C12.4139 19.0382 12.4949 18.9587 12.5508 18.8623L12.6065 18.7764ZM8.07423 9.48829C7.97585 12.0813 7.38307 13.8594 6.74122 15.0361C6.7311 15.0547 6.7201 15.0726 6.70997 15.0908H13.6768L8.07423 9.48829ZM11.7149 2.81739C12.784 2.76581 13.8475 3.00612 14.791 3.51173C15.7345 4.01735 16.5231 4.76966 17.0723 5.68849C17.5527 6.49239 17.8346 7.39741 17.8965 8.32813L17.9092 8.72853V8.74317C17.8912 9.869 18.0127 10.9921 18.2705 12.0869L18.3897 12.5547L18.4111 12.6543C18.4948 13.1543 18.1879 13.6466 17.6885 13.7832C17.189 13.9197 16.6744 13.6517 16.4922 13.1787L16.46 13.082L16.3233 12.5459C16.0276 11.2904 15.8886 10.002 15.9092 8.71095C15.9076 8.00801 15.7162 7.31846 15.3555 6.71485C14.9922 6.10703 14.4708 5.60892 13.8467 5.27442C13.2225 4.93992 12.5189 4.78132 11.8115 4.81544C11.1042 4.84958 10.4191 5.07478 9.83009 5.46778L9.7422 5.52052C9.29434 5.75763 8.73069 5.62206 8.44337 5.19142C8.13691 4.73201 8.26132 4.1112 8.72071 3.8047L9.06056 3.59376C9.86982 3.12971 10.7793 2.86259 11.7149 2.81739Z"/></svg>