<svg width="24" height="24" viewBox="0 0 24 24" xmlns="http://www.w3.org/2000/svg" fill="#cacaca"><path d="M12.0087 3C12.3368 3 12.6063 3.10547 12.8173 3.31641C13.0282 3.52734 13.1337 3.79688 13.1337 4.125V4.75781C14.4462 4.99219 15.5126 5.58984 16.3329 6.55078C17.1767 7.51172 17.6103 8.67188 17.6337 10.0312V11.1914C17.6571 12.832 18.1728 14.2969 19.1806 15.5859L19.7079 16.2539C19.8954 16.5352 19.9306 16.8281 19.8134 17.1328C19.6493 17.4375 19.3915 17.6016 19.0399 17.625H4.97744C4.62588 17.6016 4.36807 17.4375 4.204 17.1328C4.06338 16.8281 4.09854 16.5352 4.30947 16.2539L4.83682 15.5859C5.84463 14.2969 6.36025 12.832 6.38369 11.1914V10.0312C6.40713 8.67188 6.84072 7.51172 7.68447 6.55078C8.50479 5.58984 9.57119 4.99219 10.8837 4.75781V4.125C10.8837 3.79688 10.9892 3.52734 11.2001 3.31641C11.411 3.10547 11.6806 3 12.0087 3ZM11.7274 6.375C10.6962 6.39844 9.829 6.75 9.12588 7.42969C8.44619 8.13281 8.09463 9 8.07119 10.0312V11.1914C8.04775 12.9258 7.579 14.5078 6.66494 15.9375H17.3524C16.4149 14.5078 15.9462 12.9258 15.9462 11.1914V10.0312C15.9228 9 15.5712 8.13281 14.8915 7.42969C14.1884 6.75 13.3212 6.39844 12.2899 6.375H11.7274ZM14.2587 18.75C14.2587 19.3594 14.036 19.8867 13.5907 20.332C13.1454 20.7773 12.6181 21 12.0087 21C11.3993 21 10.872 20.7773 10.4267 20.332C9.98135 19.8867 9.75869 19.3594 9.75869 18.75H14.2587ZM13.1337 14.25C13.1337 14.5781 13.0282 14.8477 12.8173 15.0586C12.6063 15.2695 12.3368 15.375 12.0087 15.375C11.6806 15.375 11.411 15.2695 11.2001 15.0586C10.9892 14.8477 10.8837 14.5781 10.8837 14.25C10.8837 13.9219 10.9892 13.6523 11.2001 13.4414C11.411 13.2305 11.6806 13.125 12.0087 13.125C12.3368 13.125 12.6063 13.2305 12.8173 13.4414C13.0282 13.6523 13.1337 13.9219 13.1337 14.25ZM12.8524 8.34375V11.1562C12.8056 11.6719 12.5243 11.9531 12.0087 12C11.4931 11.9531 11.2118 11.6719 11.1649 11.1562V8.34375C11.2118 7.82812 11.4931 7.54688 12.0087 7.5C12.5243 7.54688 12.8056 7.82812 12.8524 8.34375Z"/></svg>