<svg width="24" height="24" viewBox="0 0 24 24" xmlns="http://www.w3.org/2000/svg" fill="#cacaca"><path d="M12 3C12.3281 3 12.5977 3.10547 12.8086 3.31641C13.0195 3.52734 13.125 3.79688 13.125 4.125V4.79297C14.4375 5.07422 15.5039 5.71875 16.3242 6.72656C17.168 7.73438 17.6016 8.92969 17.625 10.3125V11.1914C17.6484 12.832 18.1641 14.2969 19.1719 15.5859L19.6992 16.2539C19.8867 16.5352 19.9219 16.8281 19.8047 17.1328C19.6406 17.4375 19.3828 17.6016 19.0312 17.625H4.96875C4.61719 17.6016 4.35938 17.4375 4.19531 17.1328C4.07812 16.8281 4.11328 16.5352 4.30078 16.2539L4.82812 15.5859C5.83594 14.2969 6.35156 12.832 6.375 11.1914V10.3125C6.39844 8.92969 6.83203 7.73438 7.67578 6.72656C8.49609 5.71875 9.5625 5.07422 10.875 4.79297V4.125C10.875 3.79688 10.9805 3.52734 11.1914 3.31641C11.4023 3.10547 11.6719 3 12 3ZM12 6.375C10.875 6.39844 9.94922 6.78516 9.22266 7.53516C8.47266 8.26172 8.08594 9.1875 8.0625 10.3125V11.1914C8.0625 12.9258 7.59375 14.5078 6.65625 15.9375H17.3438C16.4297 14.5078 15.9609 12.9258 15.9375 11.1914V10.3125C15.9141 9.1875 15.5273 8.26172 14.7773 7.53516C14.0508 6.78516 13.125 6.39844 12 6.375ZM14.25 18.75C14.25 19.3594 14.0273 19.8867 13.582 20.332C13.1367 20.7773 12.6094 21 12 21C11.3906 21 10.8633 20.7773 10.418 20.332C9.97266 19.8867 9.75 19.3594 9.75 18.75H14.25ZM6.97266 3.52734C7.30078 3.94922 7.30078 4.34766 6.97266 4.72266C6.24609 5.40234 5.68359 6.19922 5.28516 7.11328C4.88672 8.00391 4.6875 8.97656 4.6875 10.0312C4.64062 10.5469 4.35938 10.8281 3.84375 10.875C3.32812 10.8281 3.04688 10.5469 3 10.0312C3 8.74219 3.24609 7.53516 3.73828 6.41016C4.23047 5.30859 4.92188 4.34766 5.8125 3.52734C6.21094 3.19922 6.59766 3.19922 6.97266 3.52734ZM17.0273 4.72266H17.0625C16.7109 4.34766 16.6992 3.94922 17.0273 3.52734C17.4023 3.19922 17.8008 3.19922 18.2227 3.52734C19.0898 4.34766 19.7695 5.30859 20.2617 6.41016C20.7539 7.53516 21 8.74219 21 10.0312C20.9531 10.5469 20.6719 10.8281 20.1562 10.875C19.6406 10.8281 19.3594 10.5469 19.3125 10.0312C19.3125 8.97656 19.1133 8.00391 18.7148 7.11328C18.3164 6.19922 17.7539 5.40234 17.0273 4.72266Z"/></svg>