<svg width="24" height="24" viewBox="0 0 24 24" xmlns="http://www.w3.org/2000/svg" fill="#cacaca"><path d="M11.75 5H12.8438C13.2188 5 13.5312 5.21875 13.7188 5.53125L16.7812 11.1875C17.1562 11.0938 17.5625 11 18 11C20.1875 11 22 12.8125 22 15C22 17.2188 20.1875 19 18 19C15.7812 19 14 17.2188 14 15C14 13.75 14.5625 12.6562 15.4688 11.9062L14.7812 10.6562L12.125 15.1562C12 15.375 11.75 15.5 11.5 15.5H9.96875C9.71875 17.5 8.03125 19 6 19C3.78125 19 2 17.2188 2 15C2 12.8125 3.78125 11 6 11C6.3125 11 6.65625 11.0625 6.96875 11.125L7.78125 9.46875L7.09375 8.5H5.75C5.3125 8.5 5 8.1875 5 7.75C5 7.34375 5.3125 7 5.75 7H7.5C7.71875 7 7.96875 7.125 8.09375 7.3125L8.9375 8.5H13.625L12.5312 6.5H11.75C11.3125 6.5 11 6.1875 11 5.75C11 5.34375 11.3125 5 11.75 5ZM16.1875 13.2812C15.75 13.7188 15.5 14.3438 15.5 15.0312C15.5 16.4062 16.5938 17.5312 18 17.5312C19.375 17.5312 20.5 16.4062 20.5 15.0312C20.5 13.625 19.375 12.5312 18 12.5312C17.8125 12.5312 17.6562 12.5312 17.5 12.5625L18.6562 14.6562C18.8438 15.0312 18.7188 15.4688 18.3438 15.6875C17.9688 15.875 17.5312 15.75 17.3125 15.375L16.1875 13.2812ZM6.25 12.5312C6.15625 12.5312 6.0625 12.5 5.96875 12.5C4.59375 12.5 3.46875 13.625 3.46875 15C3.46875 16.4062 4.59375 17.5 5.96875 17.5C7.1875 17.5 8.1875 16.6562 8.4375 15.5H6.15625C5.5 15.5 5.09375 14.8438 5.375 14.2812L6.25 12.5312ZM7.1875 14H11.0625L8.78125 10.8438L7.1875 14ZM10.0312 10L11.9062 12.5938L13.4062 10H10.0312Z"/><path d="M11.75 5H12.8438C13.2188 5 13.5312 5.21875 13.7188 5.53125L16.7812 11.1875C17.1562 11.0938 17.5625 11 18 11C20.1875 11 22 12.8125 22 15C22 17.2188 20.1875 19 18 19C15.7812 19 14 17.2188 14 15C14 13.75 14.5625 12.6562 15.4688 11.9062L14.7812 10.6562L12.125 15.1562C12 15.375 11.75 15.5 11.5 15.5H9.96875C9.71875 17.5 8.03125 19 6 19C3.78125 19 2 17.2188 2 15C2 12.8125 3.78125 11 6 11C6.3125 11 6.65625 11.0625 6.96875 11.125L7.78125 9.46875L7.09375 8.5H5.75C5.3125 8.5 5 8.1875 5 7.75C5 7.34375 5.3125 7 5.75 7H7.5C7.71875 7 7.96875 7.125 8.09375 7.3125L8.9375 8.5H13.625L12.5312 6.5H11.75C11.3125 6.5 11 6.1875 11 5.75C11 5.34375 11.3125 5 11.75 5ZM16.1875 13.2812C15.75 13.7188 15.5 14.3438 15.5 15.0312C15.5 16.4062 16.5938 17.5312 18 17.5312C19.375 17.5312 20.5 16.4062 20.5 15.0312C20.5 13.625 19.375 12.5312 18 12.5312C17.8125 12.5312 17.6562 12.5312 17.5 12.5625L18.6562 14.6562C18.8438 15.0312 18.7188 15.4688 18.3438 15.6875C17.9688 15.875 17.5312 15.75 17.3125 15.375L16.1875 13.2812ZM6.25 12.5312C6.15625 12.5312 6.0625 12.5 5.96875 12.5C4.59375 12.5 3.46875 13.625 3.46875 15C3.46875 16.4062 4.59375 17.5 5.96875 17.5C7.1875 17.5 8.1875 16.6562 8.4375 15.5H6.15625C5.5 15.5 5.09375 14.8438 5.375 14.2812L6.25 12.5312ZM7.1875 14H11.0625L8.78125 10.8438L7.1875 14ZM10.0312 10L11.9062 12.5938L13.4062 10H10.0312Z"/></svg>