<svg width="24" height="24" viewBox="0 0 24 24" xmlns="http://www.w3.org/2000/svg" fill="#cacaca"><path d="M7.38624 11.1055H11.439C12.0542 11.1056 12.6352 11.3885 13.0142 11.873C13.3932 12.3579 13.5279 12.9906 13.3794 13.5879L12.9888 15.1562L16.0933 10.6143H12.5611C11.9056 10.6141 11.2921 10.2924 10.9185 9.75391C10.5448 9.21518 10.4583 8.52719 10.688 7.91309L11.7779 5H8.13624L7.38624 11.1055ZM18.732 10.0156C18.71 10.2537 18.6146 10.4651 18.4917 10.6494L11.7544 20.5088L11.6695 20.6104C11.4868 20.8062 11.2349 20.9525 10.9732 20.9902L10.8423 21H10.7368L10.6333 20.9951C10.1245 20.943 9.75441 20.5087 9.75441 19.9824C9.75441 19.9124 9.75466 19.8075 9.78957 19.7373L11.439 13.1055H6.38623L6.26905 13.0996C5.73325 13.047 5.32176 12.6354 5.26904 12.0996L5.26318 11.9824L6.24561 3.98242C6.31141 3.4561 6.74734 3.05317 7.26417 3.00488L7.36866 3H13.2632L13.3609 3.00488C13.8447 3.05685 14.2456 3.48896 14.2456 3.98242L14.2398 4.06152C14.2283 4.14034 14.2016 4.21904 14.1753 4.29785L12.5611 8.61426H17.439C18.1406 8.61445 18.7368 9.21054 18.7369 9.91211L18.732 10.0156Z"/></svg>