<svg width="24" height="24" viewBox="0 0 24 24" xmlns="http://www.w3.org/2000/svg" fill="#cacaca"><path d="M3.2187 4.15626L5.99995 6.34376V5.50001C6.02078 5.08334 6.16661 4.72918 6.43745 4.43751C6.72911 4.16668 7.08328 4.02084 7.49995 4.00001H16.4999C16.9166 4.02084 17.2708 4.16668 17.5624 4.43751C17.8333 4.72918 17.9791 5.08334 17.9999 5.50001V15.75L21.7187 18.6563C22.052 18.9688 22.0937 19.3229 21.8437 19.7188C21.5312 20.0521 21.177 20.0938 20.7812 19.8438L2.2812 5.34376C1.94786 5.03126 1.9062 4.67709 2.1562 4.28126C2.4687 3.94793 2.82286 3.90626 3.2187 4.15626ZM7.49995 7.53126L16.4999 14.5625V5.50001H7.49995V7.53126ZM17.9374 19.5625C17.8749 19.7083 17.7604 19.8229 17.5937 19.9063C17.3229 20.0313 17.0624 20.0208 16.8124 19.875L11.9999 16.4375L7.18745 19.875C6.93745 20.0208 6.67703 20.0313 6.4062 19.9063C6.1562 19.7604 6.02078 19.5417 5.99995 19.25V10.1563L7.49995 11.3438V17.7813L11.5624 14.9063C11.6458 14.8229 11.7395 14.7813 11.8437 14.7813L17.9374 19.5625Z"/></svg>