<svg width="24" height="24" viewBox="0 0 24 24" xmlns="http://www.w3.org/2000/svg" fill="#cacaca"><path d="M19 2C19.5523 2 20 2.44772 20 3V21C20 21.5523 19.5523 22 19 22H7.1875C6.33292 22 5.51928 21.6505 4.92383 21.0381C4.36637 20.4647 4.04217 19.7049 4.00391 18.9092L4 18.75V5.25C4 4.39699 4.3293 3.57343 4.92383 2.96191C5.51928 2.34948 6.33292 2 7.1875 2H19ZM6.00586 18.877C6.03421 19.1694 6.15997 19.4403 6.35742 19.6436C6.58243 19.875 6.88179 20 7.1875 20H18V17.5H7.1875C6.88179 17.5 6.58243 17.625 6.35742 17.8564C6.15997 18.0597 6.03421 18.3306 6.00586 18.623L6 18.75L6.00586 18.877ZM6 15.7344C6.37313 15.5816 6.77548 15.5 7.1875 15.5H18V4H7.1875C6.88179 4 6.58243 4.12501 6.35742 4.35645C6.13167 4.58882 6 4.90969 6 5.25V15.7344Z"/></svg>