<svg width="24" height="24" viewBox="0 0 24 24" xmlns="http://www.w3.org/2000/svg" fill="#cacaca"><path d="M18.1111 4.76481C17.4861 4.76481 17 5.28564 17 5.87592V6.04953C17 6.25787 17 6.43148 17.0694 6.63981L17.3819 7.92453C17.4514 8.16759 17.4861 8.41065 17.5208 8.6537H18.6667C18.7014 8.41065 18.7361 8.16759 18.8056 7.92453L19.1181 6.63981C19.1875 6.43148 19.2222 6.25787 19.2222 6.04953V5.87592C19.2222 5.28564 18.7014 4.76481 18.1111 4.76481ZM17.2083 11.119L17.1736 11.1884C16.8611 10.2509 16.4097 9.38287 15.8194 8.58426C15.8194 8.51481 15.7847 8.41065 15.75 8.3412L15.4375 7.05648C15.3681 6.70926 15.3333 6.39676 15.3333 6.04953V5.87592C15.3333 4.34814 16.5486 3.09814 18.1111 3.09814C19.6389 3.09814 20.8889 4.34814 20.8889 5.87592V6.04953C20.8889 6.39676 20.8194 6.70926 20.75 7.05648L20.4375 8.3412C20.3681 8.61898 20.3333 8.93148 20.3333 9.20926V9.24398C20.3333 9.69537 20.4028 10.112 20.5417 10.5287L21.5486 13.1329C21.8264 13.9315 22 14.7995 22 15.6329C22 16.6745 21.7569 17.6815 21.3403 18.5843L20.6111 20.2509C20.4028 20.6329 20.0208 20.8759 19.5694 20.8759H16.6181C16.1667 20.8759 15.7847 20.6329 15.6111 20.2509L15.2292 19.4176C15.6806 18.9662 16.0625 18.4801 16.375 17.9245L16.9653 19.2093H19.2222L19.8472 17.8898C20.1597 17.1954 20.3333 16.4315 20.3333 15.6329C20.3333 14.9731 20.1944 14.3481 19.9861 13.7231L18.9792 11.119C18.9097 10.8412 18.8056 10.5981 18.7708 10.3204H17.4167C17.3819 10.5981 17.3125 10.8412 17.2083 11.119ZM7.83333 9.9037C7.83333 9.38287 8.25 8.93148 8.80556 8.93148C9.32639 8.93148 9.77778 9.38287 9.77778 9.9037C9.77778 10.4593 9.32639 10.8759 8.80556 10.8759C8.25 10.8759 7.83333 10.4593 7.83333 9.9037ZM8.80556 11.987C9.32639 11.987 9.77778 12.4384 9.77778 12.9593C9.77778 13.5148 9.32639 13.9315 8.80556 13.9315C8.25 13.9315 7.83333 13.5148 7.83333 12.9593C7.83333 12.4384 8.25 11.987 8.80556 11.987ZM5.33333 11.5704C5.33333 11.0495 5.75 10.5981 6.30556 10.5981C6.82639 10.5981 7.27778 11.0495 7.27778 11.5704C7.27778 12.1259 6.82639 12.5426 6.30556 12.5426C5.75 12.5426 5.33333 12.1259 5.33333 11.5704ZM14.7778 13.6537C14.7778 11.6745 13.7014 9.86898 12 8.86203C10.2639 7.85509 8.14583 7.85509 6.44444 8.86203C4.70833 9.86898 3.66667 11.6745 3.66667 13.6537C3.66667 15.6676 4.70833 17.4731 6.44444 18.4801C8.14583 19.487 10.2639 19.487 12 18.4801C13.7014 17.4731 14.7778 15.6676 14.7778 13.6537ZM2 13.6537C2 11.0843 3.35417 8.72315 5.61111 7.4037C7.83333 6.11898 10.5764 6.11898 12.8333 7.4037C15.0556 8.72315 16.4444 11.0843 16.4444 13.6537C16.4444 16.2579 15.0556 18.619 12.8333 19.9384C10.5764 21.2231 7.83333 21.2231 5.61111 19.9384C3.35417 18.619 2 16.2579 2 13.6537Z"/></svg>