<svg width="24" height="24" viewBox="0 0 24 24" xmlns="http://www.w3.org/2000/svg" fill="#cacaca"><path d="M19 9.63782C19 9.35396 18.7583 9.07542 18.4004 9.07521H16.2002V18.075H18.4004C18.7583 18.0748 19 17.7962 19 17.5124V9.63782ZM9.7998 18.075H14.2002V9.07521H9.7998V18.075ZM5 17.5124L5.01074 17.6182C5.06188 17.8617 5.28643 18.0748 5.59961 18.075H7.7998V9.07521H5.59961C5.24171 9.07542 5 9.35396 5 9.63782V17.5124ZM14.2002 6.4876C14.2002 6.3478 14.1437 6.20783 14.0342 6.10001C13.9237 5.99123 13.7677 5.92499 13.5996 5.92499H10.4004C10.2323 5.92499 10.0763 5.99123 9.96582 6.10001C9.85632 6.20783 9.7998 6.3478 9.7998 6.4876V7.05021H14.2002V6.4876ZM16.2002 7.05021H18.4004C19.8094 7.05042 21 8.18222 21 9.63782V17.5124C21 18.968 19.8094 20.0998 18.4004 20.1H5.59961C4.27861 20.0998 3.14959 19.1051 3.01367 17.7813L3 17.5124V9.63782C3 8.18222 4.19058 7.05042 5.59961 7.05021H7.7998V6.4876C7.7998 5.792 8.08071 5.13041 8.57129 4.6475C9.0609 4.16556 9.71979 3.89999 10.4004 3.89999H13.5996C14.2802 3.89999 14.9391 4.16556 15.4287 4.6475C15.9193 5.13041 16.2002 5.792 16.2002 6.4876V7.05021Z"/></svg>