<svg width="24" height="24" viewBox="0 0 24 24" xmlns="http://www.w3.org/2000/svg" fill="#cacaca"><path d="M20.7539 4.44141L15.9727 9.22266L16.4297 9.67969C16.7812 10.0547 16.9922 10.4766 17.0625 10.9453C17.1328 11.4375 17.0508 11.9062 16.8164 12.3516L12.3164 20.4375C12.1055 20.7891 11.7773 20.9766 11.332 21C11.0273 21 10.7695 20.8945 10.5586 20.6836L3.31641 13.4414C3.10547 13.2305 3 12.9727 3 12.668C3.02344 12.2227 3.21094 11.8945 3.5625 11.6836L11.6484 7.18359C12.0938 6.94922 12.5625 6.86719 13.0547 6.9375C13.5234 7.00781 13.9453 7.21875 14.3203 7.57031L14.7773 8.02734L19.5586 3.24609C19.957 2.91797 20.3555 2.91797 20.7539 3.24609C21.082 3.64453 21.082 4.04297 20.7539 4.44141ZM14.3906 13.2656L10.7695 9.64453L5.03906 12.8086L6.19922 13.9336L8.09766 13.3008C8.35547 13.2773 8.47266 13.3945 8.44922 13.6523L7.81641 15.5508L11.2266 18.9609L14.3906 13.2656Z"/></svg>