<svg width="24" height="24" viewBox="0 0 24 24" xmlns="http://www.w3.org/2000/svg" fill="#cacaca"><path d="M8.99995 6.99995C9.02078 6.14578 9.31245 5.43745 9.87495 4.87495C10.4374 4.31245 11.1458 4.02078 11.9999 3.99995C12.8541 4.02078 13.5624 4.31245 14.1249 4.87495C14.6874 5.43745 14.9791 6.14578 14.9999 6.99995V7.12495C14.9999 7.37495 14.9166 7.58328 14.7499 7.74995C14.5833 7.91661 14.3749 7.99995 14.1249 7.99995H9.9062C9.63536 7.99995 9.41661 7.91661 9.24995 7.74995C9.08328 7.58328 8.99995 7.37495 8.99995 7.12495V6.99995ZM11.3124 10.4999L15.4999 13.7812V12.2499C15.4791 11.7499 15.3124 11.3333 14.9999 10.9999C14.6666 10.6874 14.2499 10.5208 13.7499 10.4999H11.3124ZM16.9062 14.9062L21.7187 18.6562C22.052 18.9687 22.0937 19.3229 21.8437 19.7187C21.5312 20.052 21.177 20.0937 20.7812 19.8437L2.2812 5.3437C1.94786 5.0312 1.9062 4.67703 2.1562 4.2812C2.4687 3.94786 2.82286 3.9062 3.2187 4.1562L9.49995 9.0937C9.74995 9.0312 9.99995 8.99995 10.2499 8.99995H13.7499C14.3749 8.99995 14.9479 9.16661 15.4687 9.49995L17.7187 7.2187C18.0729 6.92703 18.427 6.92703 18.7812 7.2187C19.0729 7.57286 19.0729 7.92703 18.7812 8.2812L16.5312 10.5312C16.8437 11.052 16.9999 11.6249 16.9999 12.2499H19.2499C19.7083 12.2916 19.9583 12.5416 19.9999 12.9999C19.9583 13.4583 19.7083 13.7083 19.2499 13.7499H16.9999V13.9999C16.9999 14.3124 16.9687 14.6145 16.9062 14.9062ZM15.4687 17.5937C14.5312 18.4895 13.3749 18.9583 11.9999 18.9999C10.6041 18.9583 9.43745 18.4791 8.49995 17.5624L6.2812 19.7812C5.92703 20.0729 5.57286 20.0729 5.2187 19.7812C4.92703 19.427 4.92703 19.0729 5.2187 18.7187L7.5937 16.3437C7.19786 15.6354 6.99995 14.8541 6.99995 13.9999V13.7499H4.74995C4.29161 13.7083 4.04161 13.4583 3.99995 12.9999C4.04161 12.5416 4.29161 12.2916 4.74995 12.2499H6.99995C6.99995 11.8541 7.07286 11.4687 7.2187 11.0937L8.49995 12.1249C8.49995 12.1666 8.49995 12.2083 8.49995 12.2499V13.9999C8.52078 14.8541 8.7812 15.5937 9.2812 16.2187C9.7812 16.8229 10.4374 17.2187 11.2499 17.4062V14.2812L12.7499 15.4687V17.4062C13.3333 17.2812 13.8437 17.0312 14.2812 16.6562L15.4687 17.5937Z"/></svg>