<svg width="24" height="24" viewBox="0 0 24 24" xmlns="http://www.w3.org/2000/svg" fill="#cacaca"><path d="M7.14844 3.21094C7.24219 3.07031 7.35938 3 7.5 3C7.64062 3 7.75781 3.07031 7.85156 3.21094L8.69531 4.6875C8.83594 4.92188 8.90625 5.16797 8.90625 5.42578V5.53125C8.90625 5.92969 8.76562 6.25781 8.48438 6.51562C8.22656 6.79688 7.89844 6.9375 7.5 6.9375C7.10156 6.9375 6.77344 6.79688 6.51562 6.51562C6.23438 6.25781 6.09375 5.92969 6.09375 5.53125V5.42578C6.09375 5.16797 6.16406 4.92188 6.30469 4.6875L7.14844 3.21094L6.30469 4.6875L7.14844 3.21094ZM11.6484 3.21094C11.7422 3.07031 11.8594 3 12 3C12.1406 3 12.2578 3.07031 12.3516 3.21094L13.1953 4.6875C13.3359 4.92188 13.4062 5.16797 13.4062 5.42578V5.53125C13.4062 5.92969 13.2656 6.25781 12.9844 6.51562C12.7266 6.79688 12.3984 6.9375 12 6.9375C11.6016 6.9375 11.2734 6.79688 11.0156 6.51562C10.7344 6.25781 10.5938 5.92969 10.5938 5.53125V5.42578C10.5938 5.16797 10.6641 4.92188 10.8047 4.6875L11.6484 3.21094L10.8047 4.6875L11.6484 3.21094ZM15.3047 4.6875L16.1484 3.21094C16.2422 3.07031 16.3594 3 16.5 3C16.6406 3 16.7578 3.07031 16.8516 3.21094L17.6953 4.6875C17.8359 4.92188 17.9062 5.16797 17.9062 5.42578V5.53125C17.9062 5.92969 17.7656 6.25781 17.4844 6.51562C17.2266 6.79688 16.8984 6.9375 16.5 6.9375C16.1016 6.9375 15.7734 6.79688 15.5156 6.51562C15.2344 6.25781 15.0938 5.92969 15.0938 5.53125V5.42578C15.0938 5.16797 15.1641 4.92188 15.3047 4.6875ZM8.34375 8.90625V10.875H11.1562V8.90625C11.2031 8.39062 11.4844 8.10938 12 8.0625C12.5156 8.10938 12.7969 8.39062 12.8438 8.90625V10.875H15.6562V8.90625C15.7031 8.39062 15.9844 8.10938 16.5 8.0625C17.0156 8.10938 17.2969 8.39062 17.3438 8.90625V10.875H17.625C18.2578 10.8984 18.7852 11.1211 19.207 11.543C19.6289 11.9648 19.8516 12.4922 19.875 13.125V19.875C19.875 20.2031 19.7695 20.4727 19.5586 20.6836C19.3477 20.8945 19.0781 21 18.75 21H5.25C4.92188 21 4.65234 20.8945 4.44141 20.6836C4.23047 20.4727 4.125 20.2031 4.125 19.875V13.125C4.14844 12.4922 4.37109 11.9648 4.79297 11.543C5.21484 11.1211 5.74219 10.8984 6.375 10.875H6.65625V8.90625C6.70312 8.39062 6.98438 8.10938 7.5 8.0625C8.01562 8.10938 8.29688 8.39062 8.34375 8.90625ZM6.375 12.5625C6.02344 12.5859 5.83594 12.7734 5.8125 13.125V15.2695C6 15.1992 6.1875 15.0938 6.375 14.9531C6.46875 14.8828 6.57422 14.8008 6.69141 14.707C6.90234 14.4492 7.17188 14.2969 7.5 14.25C7.82812 14.2969 8.09766 14.4492 8.30859 14.707C8.33203 14.707 8.35547 14.7188 8.37891 14.7422C8.44922 14.8125 8.53125 14.8828 8.625 14.9531C8.97656 15.2109 9.35156 15.3516 9.75 15.375C10.1484 15.3516 10.5234 15.2109 10.875 14.9531C10.9688 14.8828 11.0742 14.8008 11.1914 14.707C11.4023 14.4492 11.6719 14.2969 12 14.25C12.3281 14.2969 12.5977 14.4492 12.8086 14.707C12.832 14.707 12.8555 14.7188 12.8789 14.7422C12.9492 14.8125 13.0312 14.8828 13.125 14.9531C13.4766 15.2109 13.8516 15.3516 14.25 15.375C14.6484 15.3516 15.0234 15.2109 15.375 14.9531C15.4688 14.8828 15.5742 14.8008 15.6914 14.707C15.9023 14.4492 16.1719 14.2969 16.5 14.25C16.8281 14.2969 17.0977 14.4492 17.3086 14.707C17.332 14.707 17.3555 14.7188 17.3789 14.7422C17.4492 14.8125 17.5312 14.8828 17.625 14.9531C17.8125 15.0938 18 15.1992 18.1875 15.2695V13.125C18.1641 12.7734 17.9766 12.5859 17.625 12.5625H6.375H17.625H6.375ZM18.1875 17.0273C17.5547 16.8867 16.9922 16.6172 16.5 16.2188C15.8438 16.7578 15.0938 17.0391 14.25 17.0625C13.4062 17.0391 12.6562 16.7578 12 16.2188C11.3438 16.7578 10.5938 17.0391 9.75 17.0625C8.90625 17.0391 8.15625 16.7578 7.5 16.2188C7.00781 16.6172 6.44531 16.8867 5.8125 17.0273V19.3125H18.1875V17.0273V19.3125V17.0273Z"/></svg>