<svg width="24" height="24" viewBox="0 0 24 24" xmlns="http://www.w3.org/2000/svg" fill="#cacaca"><path d="M16.5 9.5H7.5V18C7.52083 18.3125 7.6875 18.4792 8 18.5H16C16.3125 18.4792 16.4792 18.3125 16.5 18V9.5ZM16.5 8V6C16.4792 5.6875 16.3125 5.52083 16 5.5H8C7.6875 5.52083 7.52083 5.6875 7.5 6V8H16.5ZM18 18C17.9792 18.5625 17.7812 19.0312 17.4062 19.4062C17.0312 19.7812 16.5625 19.9792 16 20H8C7.4375 19.9792 6.96875 19.7812 6.59375 19.4062C6.21875 19.0312 6.02083 18.5625 6 18V6C6.02083 5.4375 6.21875 4.96875 6.59375 4.59375C6.96875 4.21875 7.4375 4.02083 8 4H16C16.5625 4.02083 17.0312 4.21875 17.4062 4.59375C17.7812 4.96875 17.9792 5.4375 18 6V18ZM8.5 11.25C8.54167 10.7917 8.79167 10.5417 9.25 10.5C9.70833 10.5417 9.95833 10.7917 10 11.25C9.95833 11.7083 9.70833 11.9583 9.25 12C8.79167 11.9583 8.54167 11.7083 8.5 11.25ZM9.25 13.25C9.70833 13.2917 9.95833 13.5417 10 14C9.95833 14.4583 9.70833 14.7083 9.25 14.75C8.79167 14.7083 8.54167 14.4583 8.5 14C8.54167 13.5417 8.79167 13.2917 9.25 13.25ZM8.5 16.75C8.54167 16.2917 8.79167 16.0417 9.25 16H12C12.4583 16.0417 12.7083 16.2917 12.75 16.75C12.7083 17.2083 12.4583 17.4583 12 17.5H9.25C8.79167 17.4583 8.54167 17.2083 8.5 16.75ZM12 10.5C12.4583 10.5417 12.7083 10.7917 12.75 11.25C12.7083 11.7083 12.4583 11.9583 12 12C11.5417 11.9583 11.2917 11.7083 11.25 11.25C11.2917 10.7917 11.5417 10.5417 12 10.5ZM11.25 14C11.2917 13.5417 11.5417 13.2917 12 13.25C12.4583 13.2917 12.7083 13.5417 12.75 14C12.7083 14.4583 12.4583 14.7083 12 14.75C11.5417 14.7083 11.2917 14.4583 11.25 14ZM14.75 10.5C15.2083 10.5417 15.4583 10.7917 15.5 11.25C15.4583 11.7083 15.2083 11.9583 14.75 12C14.2917 11.9583 14.0417 11.7083 14 11.25C14.0417 10.7917 14.2917 10.5417 14.75 10.5ZM14 14C14.0417 13.5417 14.2917 13.2917 14.75 13.25C15.2083 13.2917 15.4583 13.5417 15.5 14C15.4583 14.4583 15.2083 14.7083 14.75 14.75C14.2917 14.7083 14.0417 14.4583 14 14ZM14.75 16C15.2083 16.0417 15.4583 16.2917 15.5 16.75C15.4583 17.2083 15.2083 17.4583 14.75 17.5C14.2917 17.4583 14.0417 17.2083 14 16.75C14.0417 16.2917 14.2917 16.0417 14.75 16Z"/></svg>