<svg width="24" height="24" viewBox="0 0 24 24" xmlns="http://www.w3.org/2000/svg" fill="#cacaca"><path d="M12 4C12.4583 4.04167 12.7083 4.29167 12.75 4.75V11.25H19.25C19.7083 11.2917 19.9583 11.5417 20 12C19.9583 12.4583 19.7083 12.7083 19.25 12.75H12.75V19.25C12.7083 19.7083 12.4583 19.9583 12 20C11.5417 19.9583 11.2917 19.7083 11.25 19.25V12.75H4.75C4.29167 12.7083 4.04167 12.4583 4 12C4.04167 11.5417 4.29167 11.2917 4.75 11.25H11.25V4.75C11.2917 4.29167 11.5417 4.04167 12 4ZM16.5 5C16.9583 5.04167 17.2083 5.29167 17.25 5.75V6.75H18.25C18.7083 6.79167 18.9583 7.04167 19 7.5C18.9583 7.95833 18.7083 8.20833 18.25 8.25H17.25V9.25C17.2083 9.70833 16.9583 9.95833 16.5 10C16.0417 9.95833 15.7917 9.70833 15.75 9.25V8.25H14.75C14.2917 8.20833 14.0417 7.95833 14 7.5C14.0417 7.04167 14.2917 6.79167 14.75 6.75H15.75V5.75C15.7917 5.29167 16.0417 5.04167 16.5 5ZM5.71875 14.7188C6.07292 14.4271 6.42708 14.4271 6.78125 14.7188L7.5 15.4375L8.21875 14.75C8.57292 14.4375 8.92708 14.4375 9.28125 14.75C9.57292 15.1042 9.57292 15.4479 9.28125 15.7812L8.5625 16.5L9.28125 17.2188C9.57292 17.5729 9.57292 17.9271 9.28125 18.2812C8.90625 18.5729 8.55208 18.5729 8.21875 18.2812L7.5 17.5625L6.78125 18.2812C6.42708 18.5729 6.08333 18.5729 5.75 18.2812C5.4375 17.9271 5.4375 17.5729 5.75 17.2188L6.4375 16.5L5.71875 15.7812C5.42708 15.4271 5.42708 15.0833 5.71875 14.75V14.7188ZM6 6.75H9C9.45833 6.79167 9.70833 7.04167 9.75 7.5C9.70833 7.95833 9.45833 8.20833 9 8.25H6C5.54167 8.20833 5.29167 7.95833 5.25 7.5C5.29167 7.04167 5.54167 6.79167 6 6.75ZM15 14.5H18C18.4583 14.5417 18.7083 14.7917 18.75 15.25C18.7083 15.7083 18.4583 15.9583 18 16H15C14.5417 15.9583 14.2917 15.7083 14.25 15.25C14.2917 14.7917 14.5417 14.5417 15 14.5ZM15 17H18C18.4583 17.0417 18.7083 17.2917 18.75 17.75C18.7083 18.2083 18.4583 18.4583 18 18.5H15C14.5417 18.4583 14.2917 18.2083 14.25 17.75C14.2917 17.2917 14.5417 17.0417 15 17Z"/></svg>