<svg width="24" height="24" viewBox="0 0 24 24" xmlns="http://www.w3.org/2000/svg" fill="#cacaca"><path fill-rule="evenodd" clip-rule="evenodd" d="M15 3C15.5523 3 16 3.44772 16 4V5H18C19 5 20 6 20 7V19C20 20.1046 19.1046 21 18 21H6C4.89543 21 4 20.1046 4 19V7C4 6 5 5 6 5H8V4C8 3.44772 8.44772 3 9 3C9.55228 3 10 3.44772 10 4V5H14V4C14 3.44772 14.4477 3 15 3ZM6 19H18V9H6V19Z"/><path d="M11.6379 11.7713C11.7819 11.4646 12.2181 11.4646 12.3621 11.7714L12.8364 12.7818C12.893 12.9024 13.006 12.9869 13.1377 13.0072L14.2311 13.1752C14.5528 13.2246 14.6839 13.6171 14.4565 13.85L13.6411 14.6851C13.5524 14.776 13.5121 14.9036 13.5325 15.029L13.7214 16.1869C13.7751 16.5164 13.4252 16.7629 13.133 16.6013L12.1936 16.0818C12.0731 16.0152 11.9269 16.0152 11.8064 16.0818L10.867 16.6013C10.5748 16.7629 10.2249 16.5164 10.2786 16.1869L10.4675 15.029C10.4879 14.9036 10.4476 14.776 10.3589 14.6851L9.54348 13.85C9.3161 13.6171 9.44722 13.2246 9.76891 13.1752L10.8623 13.0072C10.994 12.9869 11.107 12.9024 11.1636 12.7818L11.6379 11.7713Z"/></svg>