<svg width="24" height="24" viewBox="0 0 24 24" xmlns="http://www.w3.org/2000/svg" fill="#cacaca"><path d="M14.3037 11.2822C14.7002 10.8978 15.3333 10.9074 15.7178 11.3037C16.1022 11.7002 16.0926 12.3333 15.6963 12.7178L11.5713 16.7178C11.1834 17.0939 10.5666 17.0939 10.1787 16.7178L8.30371 14.8994L8.23438 14.8252C7.9077 14.4374 7.92167 13.8572 8.28223 13.4854C8.64269 13.1139 9.22157 13.0823 9.61914 13.3965L9.69629 13.4639L10.875 14.6064L14.3037 11.2822Z"/><path fill-rule="evenodd" clip-rule="evenodd" d="M15 3C15.5523 3 16 3.44772 16 4V5H18C19 5 20 6 20 7V19C20 20.1046 19.1046 21 18 21H6C4.89543 21 4 20.1046 4 19V7C4 6 5 5 6 5H8V4C8 3.44772 8.44772 3 9 3C9.55228 3 10 3.44772 10 4V5H14V4C14 3.44772 14.4477 3 15 3ZM6 19H18V9H6V19Z"/></svg>