<svg width="24" height="24" viewBox="0 0 24 24" xmlns="http://www.w3.org/2000/svg" fill="#cacaca"><path d="M3.22267 4.16062L6.56493 6.78416C7.16882 5.93047 7.94972 5.25376 8.90763 4.75404C9.84471 4.27514 10.8755 4.02528 12 4.00446C13.9158 4.04611 15.5089 4.70199 16.7791 5.97211C18.0494 7.24224 18.7053 8.8351 18.747 10.7507C18.7053 12.4373 18.1743 13.8844 17.1539 15.092L21.7144 18.6525C22.0476 18.9649 22.0892 19.3188 21.8394 19.7144C21.527 20.0476 21.173 20.0892 20.7773 19.8394L2.28559 5.34746C1.9524 5.03514 1.91075 4.68117 2.16064 4.28555C2.473 3.95241 2.82701 3.91076 3.22267 4.16062ZM7.72066 7.68991L8.90763 8.62688C9.26164 8.12716 9.69894 7.73155 10.2195 7.44004C10.761 7.14854 11.3545 7.00279 12 7.00279C13.062 7.02361 13.947 7.38799 14.6551 8.09593C15.3631 8.80387 15.7275 9.68879 15.7483 10.7507C15.7275 11.7293 15.4151 12.5622 14.8112 13.2493L15.9982 14.155C16.8104 13.2181 17.2268 12.0833 17.2477 10.7507C17.206 9.27236 16.6958 8.03346 15.7171 7.03402C14.7175 6.0554 13.4785 5.54527 12 5.50363C11.1046 5.50363 10.2924 5.70143 9.56359 6.09704C8.83475 6.49266 8.22044 7.02361 7.72066 7.68991ZM13.6243 12.3123C14.0199 11.8959 14.2282 11.3753 14.249 10.7507C14.2282 10.1052 14.0095 9.57427 13.593 9.15784C13.1766 8.7414 12.6455 8.52277 12 8.50195C11.167 8.5436 10.5319 8.89756 10.0946 9.56386L13.6243 12.3123ZM13.2494 15.8416L14.6551 16.966C13.8221 17.3199 12.9371 17.4969 12 17.4969C11.0837 17.4969 10.23 17.3304 9.43864 16.9972L8.28291 18.4964H16.5917L18.4971 19.9955H6.75234C6.43998 19.9747 6.22133 19.8394 6.09639 19.5895C5.97144 19.298 5.99227 19.0273 6.15886 18.7775L8.09549 16.2476C7.22088 15.623 6.53369 14.8422 6.03391 13.9052C5.53414 12.9474 5.27384 11.8959 5.25301 10.7507C5.25301 10.3759 5.28425 10.0011 5.34672 9.62632L6.75234 10.7507C6.79399 12.229 7.30418 13.4679 8.28291 14.4674C9.28246 15.446 10.5215 15.9561 12 15.9978C12.4373 15.9978 12.8538 15.9457 13.2494 15.8416Z"/></svg>