<svg width="24" height="24" viewBox="0 0 24 24" xmlns="http://www.w3.org/2000/svg" fill="#cacaca"><path d="M18.4286 3.64287H5.57143C5.16964 3.66965 4.95536 3.88394 4.92857 4.28572V15.8572C4.95536 16.2589 5.16964 16.4732 5.57143 16.5H18.4286C18.8304 16.4732 19.0446 16.2589 19.0714 15.8572V4.28572C19.0446 3.88394 18.8304 3.66965 18.4286 3.64287ZM5.57143 1.71429H18.4286C19.1518 1.74108 19.7545 1.99554 20.2366 2.47769C20.7188 2.95983 20.9732 3.56251 21 4.28572V15.8572C20.9732 16.5804 20.7188 17.183 20.2366 17.6652C19.7545 18.1473 19.1518 18.4018 18.4286 18.4286H16.8214L18.308 20.7991C18.4688 21.1205 18.4688 21.4554 18.308 21.8036C18.1205 22.125 17.8393 22.2857 17.4643 22.2857H6.53571C6.16071 22.2857 5.87946 22.125 5.69196 21.8036C5.53125 21.4554 5.54464 21.1205 5.73214 20.7991L7.17857 18.4286H5.57143C4.84821 18.4018 4.24554 18.1473 3.76339 17.6652C3.28125 17.183 3.02679 16.5804 3 15.8572V4.28572C3.02679 3.56251 3.28125 2.95983 3.76339 2.47769C4.24554 1.99554 4.84821 1.74108 5.57143 1.71429ZM14.5714 18.4286H9.42857L8.26339 20.3572H15.7366L14.5714 18.4286ZM16.5 10.0714C16.5 10.875 16.2991 11.625 15.8973 12.3214C15.4955 13.0179 14.9464 13.567 14.25 13.9688C13.5536 14.3705 12.8036 14.5714 12 14.5714C11.1964 14.5714 10.4464 14.3705 9.75 13.9688C9.05357 13.567 8.50446 13.0179 8.10268 12.3214C7.70089 11.625 7.5 10.875 7.5 10.0714C7.5 9.26787 7.70089 8.51787 8.10268 7.82144C8.50446 7.12501 9.05357 6.5759 9.75 6.17412C10.4464 5.77233 11.1964 5.57144 12 5.57144C12.8036 5.57144 13.5536 5.77233 14.25 6.17412C14.9464 6.5759 15.4955 7.12501 15.8973 7.82144C16.2991 8.51787 16.5 9.26787 16.5 10.0714ZM12 7.50001C11.0357 7.52679 10.2991 7.95537 9.79018 8.78572C9.30804 9.64287 9.30804 10.5 9.79018 11.3572C10.2991 12.1875 11.0357 12.6161 12 12.6429C12.9643 12.6161 13.7009 12.1875 14.2098 11.3572C14.692 10.5 14.692 9.64287 14.2098 8.78572C13.7009 7.95537 12.9643 7.52679 12 7.50001Z"/></svg>