<svg width="24" height="24" viewBox="0 0 24 24" xmlns="http://www.w3.org/2000/svg" fill="#cacaca"><path d="M4.71867 10L9.99992 12.2188C10.0208 12.2188 10.0416 12.2292 10.0624 12.25L12.9374 13.4375L17.9374 10.0938L7.21867 5.62502L4.71867 10ZM8.78117 13.3438L3.62492 11.1875C3.35409 11.0625 3.16659 10.8542 3.06242 10.5625C2.95825 10.2917 2.97909 10.0208 3.12492 9.75002L6.12492 4.50002C6.43742 4.04168 6.85409 3.89585 7.37492 4.06252L19.3749 9.06252C19.7291 9.22918 19.9374 9.51043 19.9999 9.90627C20.0208 10.3021 19.8749 10.6146 19.5624 10.8438L13.5624 14.8438C13.2499 15.0313 12.9374 15.0625 12.6249 14.9375L10.1874 13.9063L8.68742 17.7813C8.56242 18.0729 8.33325 18.2292 7.99992 18.25H4.49992V19.25C4.45825 19.7083 4.20825 19.9584 3.74992 20C3.29159 19.9584 3.04159 19.7083 2.99992 19.25V15.75C3.04159 15.2917 3.29159 15.0417 3.74992 15C4.20825 15.0417 4.45825 15.2917 4.49992 15.75V16.75H7.49992L8.78117 13.3438ZM15.4062 14.8125L19.5624 12.0313L20.7187 12.5313C20.9687 12.6771 21.052 12.8958 20.9687 13.1875L19.7187 16.1875C19.6562 16.3125 19.5624 16.4063 19.4374 16.4688C19.3124 16.5104 19.1874 16.5104 19.0624 16.4688L15.4062 14.8125Z"/></svg>