<svg width="24" height="24" viewBox="0 0 24 24" xmlns="http://www.w3.org/2000/svg" fill="#cacaca"><path d="M12 16.5C13.1358 16.5 14.1728 16.2305 15.1111 15.6914C16.0494 15.1758 16.8025 14.4609 17.3704 13.5469C17.9383 12.6094 18.2222 11.625 18.2222 10.5938C18.2222 9.5625 17.9383 8.57812 17.3704 7.64062C16.8025 6.72656 16.0494 6.01172 15.1111 5.49609C14.1728 4.95703 13.1358 4.6875 12 4.6875C10.8642 4.6875 9.82716 4.95703 8.88889 5.49609C7.95062 6.01172 7.19753 6.72656 6.62963 7.64062C6.06173 8.57812 5.77778 9.5625 5.77778 10.5938C5.77778 11.625 6.06173 12.6094 6.62963 13.5469C7.19753 14.4609 7.95062 15.1758 8.88889 15.6914C9.82716 16.2305 10.8642 16.5 12 16.5ZM12 18.1875C10.9136 18.1875 9.90123 18 8.96296 17.625L7.59259 19.3125H16.4074L15.037 17.625C14.0988 18 13.0864 18.1875 12 18.1875ZM20 10.5938C19.9753 11.8828 19.6667 13.0664 19.0741 14.1445C18.4815 15.1992 17.6667 16.0781 16.6296 16.7812L18.9259 19.6289C19.1235 19.9102 19.1605 20.2148 19.037 20.543C18.8642 20.8242 18.5926 20.9766 18.2222 21H5.77778C5.40741 20.9766 5.14815 20.8242 5 20.543C4.85185 20.2148 4.87654 19.9102 5.07407 19.6289L7.37037 16.7812C6.33333 16.0781 5.51852 15.1992 4.92593 14.1445C4.33333 13.0664 4.02469 11.8828 4 10.5938C4.04938 8.4375 4.82716 6.64453 6.33333 5.21484C7.83951 3.78516 9.72839 3.04688 12 3C14.2716 3.04688 16.1605 3.78516 17.6667 5.21484C19.1728 6.64453 19.9506 8.4375 20 10.5938ZM14.6667 10.5938C14.642 9.63281 14.1975 8.90625 13.3333 8.41406C12.4444 7.94531 11.5556 7.94531 10.6667 8.41406C9.80247 8.90625 9.35802 9.63281 9.33333 10.5938C9.35802 11.5547 9.80247 12.2812 10.6667 12.7734C11.5556 13.2422 12.4444 13.2422 13.3333 12.7734C14.1975 12.2812 14.642 11.5547 14.6667 10.5938ZM7.55556 10.5938C7.55556 9.82031 7.75309 9.11719 8.14815 8.48438C8.54321 7.85156 9.08642 7.33594 9.77778 6.9375C10.4691 6.5625 11.2099 6.375 12 6.375C12.7901 6.375 13.5309 6.5625 14.2222 6.9375C14.9136 7.33594 15.4568 7.85156 15.8519 8.48438C16.2469 9.11719 16.4444 9.82031 16.4444 10.5938C16.4444 11.3672 16.2469 12.0703 15.8519 12.7031C15.4568 13.3359 14.9136 13.8516 14.2222 14.25C13.5309 14.625 12.7901 14.8125 12 14.8125C11.2099 14.8125 10.4691 14.625 9.77778 14.25C9.08642 13.8516 8.54321 13.3359 8.14815 12.7031C7.75309 12.0703 7.55556 11.3672 7.55556 10.5938Z"/></svg>