<svg width="24" height="24" viewBox="0 0 24 24" xmlns="http://www.w3.org/2000/svg" fill="#cacaca"><path d="M10 7.75C9.97917 6.89583 9.60417 6.25 8.875 5.8125C8.125 5.39583 7.375 5.39583 6.625 5.8125C5.89583 6.25 5.52083 6.89583 5.5 7.75C5.52083 8.60417 5.89583 9.25 6.625 9.6875C7.375 10.1042 8.125 10.1042 8.875 9.6875C9.60417 9.25 9.97917 8.60417 10 7.75ZM13.75 11.5H7.75C6.6875 11.4792 5.80208 11.1146 5.09375 10.4062C4.38542 9.69792 4.02083 8.8125 4 7.75C4.02083 6.6875 4.38542 5.80208 5.09375 5.09375C5.80208 4.38542 6.6875 4.02083 7.75 4C9.02083 4.04167 10.0208 4.54167 10.75 5.5C11.4792 4.54167 12.4792 4.04167 13.75 4C14.8125 4.02083 15.6979 4.38542 16.4062 5.09375C17.1146 5.80208 17.4792 6.6875 17.5 7.75C17.4792 8.8125 17.1146 9.69792 16.4062 10.4062C15.6979 11.1146 14.8125 11.4792 13.75 11.5ZM11.5 7.75C11.5208 8.60417 11.8958 9.25 12.625 9.6875C13.375 10.1042 14.125 10.1042 14.875 9.6875C15.6042 9.25 15.9792 8.60417 16 7.75C15.9792 6.89583 15.6042 6.25 14.875 5.8125C14.125 5.39583 13.375 5.39583 12.625 5.8125C11.8958 6.25 11.5208 6.89583 11.5 7.75ZM6.5 14.5V18C6.52083 18.3125 6.6875 18.4792 7 18.5H14C14.3125 18.4792 14.4792 18.3125 14.5 18V14.5C14.4792 14.1875 14.3125 14.0208 14 14H7C6.6875 14.0208 6.52083 14.1875 6.5 14.5ZM14 12.5C14.5625 12.5208 15.0312 12.7188 15.4062 13.0938C15.7812 13.4688 15.9792 13.9375 16 14.5V18C15.9792 18.5625 15.7812 19.0312 15.4062 19.4062C15.0312 19.7812 14.5625 19.9792 14 20H7C6.4375 19.9792 5.96875 19.7812 5.59375 19.4062C5.21875 19.0312 5.02083 18.5625 5 18V14.5C5 14.3333 5.02083 14.1667 5.0625 14H3.75C3.29167 13.9583 3.04167 13.7083 3 13.25C3.04167 12.7917 3.29167 12.5417 3.75 12.5H14ZM19.5 13.6562L17 14.7812V13.125L19.375 12.0625C19.4583 12.0208 19.5521 11.9896 19.6562 11.9688C20.0104 11.9271 20.3229 12.0104 20.5938 12.2188C20.8438 12.4479 20.9792 12.75 21 13.125V18.75C21 19.1042 20.875 19.3958 20.625 19.625C20.3958 19.8542 20.1042 19.9792 19.75 20C19.5833 20 19.4167 19.9583 19.25 19.875L17 18.875V17.2188L19.5 18.3438V13.6562Z"/></svg>