<svg width="24" height="24" viewBox="0 0 24 24" xmlns="http://www.w3.org/2000/svg" fill="#cacaca"><path d="M9.99609 4H14.0039C14.4258 4 14.8125 4.13095 15.1641 4.39286C15.4922 4.63095 15.7266 4.95238 15.8672 5.35714L16.1836 6.28571H18.75C19.3828 6.30952 19.9102 6.53571 20.332 6.96429C20.7539 7.39286 20.9766 7.92857 21 8.57143V17.7143C20.9766 18.3571 20.7539 18.8929 20.332 19.3214C19.9102 19.75 19.3828 19.9762 18.75 20H5.25C4.61719 19.9762 4.08984 19.75 3.66797 19.3214C3.24609 18.8929 3.02344 18.3571 3 17.7143V8.57143C3.02344 7.92857 3.24609 7.39286 3.66797 6.96429C4.08984 6.53571 4.61719 6.30952 5.25 6.28571H7.81641L8.13281 5.35714C8.27344 4.95238 8.50781 4.63095 8.83594 4.39286C9.1875 4.13095 9.57422 4 9.99609 4ZM9.75 5.92857L9.25781 7.42857C9.09375 7.78571 8.82422 7.97619 8.44922 8H5.25C4.89844 8.02381 4.71094 8.21429 4.6875 8.57143V17.7143C4.71094 18.0714 4.89844 18.2619 5.25 18.2857H18.75C19.1016 18.2619 19.2891 18.0714 19.3125 17.7143V8.57143C19.2891 8.21429 19.1016 8.02381 18.75 8H15.5508C15.1758 7.97619 14.918 7.78571 14.7773 7.42857L14.2852 5.92857C14.2383 5.78571 14.1445 5.71429 14.0039 5.71429H9.99609C9.87891 5.71429 9.79688 5.78571 9.75 5.92857ZM12 17.1429C11.2969 17.1429 10.6406 16.9643 10.0312 16.6071C9.42188 16.25 8.94141 15.7619 8.58984 15.1429C8.23828 14.5238 8.0625 13.8571 8.0625 13.1429C8.0625 12.4286 8.23828 11.7619 8.58984 11.1429C8.94141 10.5238 9.42188 10.0357 10.0312 9.67857C10.6406 9.32143 11.2969 9.14286 12 9.14286C12.7031 9.14286 13.3594 9.32143 13.9688 9.67857C14.5781 10.0357 15.0586 10.5238 15.4102 11.1429C15.7617 11.7619 15.9375 12.4286 15.9375 13.1429C15.9375 13.8571 15.7617 14.5238 15.4102 15.1429C15.0586 15.7619 14.5781 16.25 13.9688 16.6071C13.3594 16.9643 12.7031 17.1429 12 17.1429ZM9.75 13.1429C9.77344 14 10.1484 14.6548 10.875 15.1071C11.625 15.5357 12.375 15.5357 13.125 15.1071C13.8516 14.6548 14.2266 14 14.25 13.1429C14.2266 12.2857 13.8516 11.631 13.125 11.1786C12.375 10.75 11.625 10.75 10.875 11.1786C10.1484 11.631 9.77344 12.2857 9.75 13.1429Z"/></svg>