<svg width="24" height="24" viewBox="0 0 24 24" xmlns="http://www.w3.org/2000/svg" fill="#cacaca"><path d="M4.96875 3H7.78125C8.29688 3.04688 8.57812 3.32812 8.625 3.84375C8.57812 4.35938 8.29688 4.64062 7.78125 4.6875H4.96875C4.80469 4.71094 4.71094 4.80469 4.6875 4.96875V7.78125C4.64062 8.29688 4.35938 8.57812 3.84375 8.625C3.32812 8.57812 3.04688 8.29688 3 7.78125V4.96875C3.02344 4.40625 3.21094 3.9375 3.5625 3.5625C3.9375 3.21094 4.40625 3.02344 4.96875 3ZM16.2188 3H19.0312C19.5938 3.02344 20.0625 3.21094 20.4375 3.5625C20.7891 3.9375 20.9766 4.40625 21 4.96875V7.78125C20.9531 8.29688 20.6719 8.57812 20.1562 8.625C19.6406 8.57812 19.3594 8.29688 19.3125 7.78125V4.96875C19.2891 4.80469 19.1953 4.71094 19.0312 4.6875H16.2188C15.7031 4.64062 15.4219 4.35938 15.375 3.84375C15.4219 3.32812 15.7031 3.04688 16.2188 3ZM4.6875 16.2188V19.0312C4.71094 19.1953 4.80469 19.2891 4.96875 19.3125H7.78125C8.29688 19.3594 8.57812 19.6406 8.625 20.1562C8.57812 20.6719 8.29688 20.9531 7.78125 21H4.96875C4.40625 20.9766 3.9375 20.7891 3.5625 20.4375C3.21094 20.0625 3.02344 19.5938 3 19.0312V16.2188C3.04688 15.7031 3.32812 15.4219 3.84375 15.375C4.35938 15.4219 4.64062 15.7031 4.6875 16.2188ZM21 16.2188V19.0312C20.9766 19.5938 20.7891 20.0625 20.4375 20.4375C20.0625 20.7891 19.5938 20.9766 19.0312 21H16.2188C15.7031 20.9531 15.4219 20.6719 15.375 20.1562C15.4219 19.6406 15.7031 19.3594 16.2188 19.3125H19.0312C19.1953 19.2891 19.2891 19.1953 19.3125 19.0312V16.2188C19.3594 15.7031 19.6406 15.4219 20.1562 15.375C20.6719 15.4219 20.9531 15.7031 21 16.2188ZM9.11719 7.21875C9.375 6.67969 9.80859 6.39844 10.418 6.375H13.6172C14.2031 6.39844 14.625 6.67969 14.8828 7.21875L15.0234 7.5H15.375C16.0078 7.52344 16.5352 7.74609 16.957 8.16797C17.3789 8.58984 17.6016 9.11719 17.625 9.75V14.25C17.6016 14.8828 17.3789 15.4102 16.957 15.832C16.5352 16.2539 16.0078 16.4766 15.375 16.5H8.625C7.99219 16.4766 7.46484 16.2539 7.04297 15.832C6.62109 15.4102 6.39844 14.8828 6.375 14.25V9.75C6.39844 9.11719 6.62109 8.58984 7.04297 8.16797C7.46484 7.74609 7.99219 7.52344 8.625 7.5H9.01172L9.11719 7.21875ZM10.5938 8.0625L10.3125 8.69531C10.1719 9 9.91406 9.16406 9.53906 9.1875H8.625C8.27344 9.21094 8.08594 9.39844 8.0625 9.75V14.25C8.08594 14.6016 8.27344 14.7891 8.625 14.8125H15.375C15.7266 14.7891 15.9141 14.6016 15.9375 14.25V9.75C15.9141 9.39844 15.7266 9.21094 15.375 9.1875H14.4609C14.0859 9.16406 13.8281 9 13.6875 8.69531L13.4062 8.0625H10.5938ZM10.0312 12C10.0547 11.25 10.3828 10.6875 11.0156 10.3125C11.6719 9.9375 12.3281 9.9375 12.9844 10.3125C13.6172 10.6875 13.9453 11.25 13.9688 12C13.9453 12.75 13.6172 13.3125 12.9844 13.6875C12.3281 14.0625 11.6719 14.0625 11.0156 13.6875C10.3828 13.3125 10.0547 12.75 10.0312 12Z"/></svg>