<svg width="24" height="24" viewBox="0 0 24 24" xmlns="http://www.w3.org/2000/svg" fill="#cacaca"><path d="M8.40011 3.74811C8.90616 3.52724 9.49547 3.75781 9.71652 4.26373C9.93746 4.7699 9.70608 5.36018 9.19992 5.58112C8.15207 6.03854 7.23177 6.74549 6.52023 7.64069C5.80879 8.5358 5.32725 9.59166 5.11788 10.7159C4.90855 11.8403 4.97829 12.9994 5.32003 14.0909C5.66178 15.1823 6.26573 16.1735 7.07882 16.9776C7.89188 17.7815 8.8893 18.3739 9.9841 18.7032C11.0789 19.0325 12.2376 19.0884 13.3591 18.8663C14.4806 18.6441 15.5309 18.1507 16.4177 17.4288C17.3045 16.7069 18.0016 15.779 18.447 14.7256L18.4909 14.6329C18.7345 14.1884 19.2807 13.9918 19.7575 14.1934C20.266 14.4086 20.5038 14.9954 20.2888 15.504L20.1775 15.7559C19.6032 17.0063 18.7493 18.1094 17.6804 18.9796C16.5402 19.9077 15.1899 20.5425 13.7478 20.8282C12.3057 21.1138 10.8157 21.0426 9.40792 20.6192C8.00007 20.1958 6.71701 19.4333 5.67159 18.3995C4.62635 17.3657 3.85014 16.0916 3.41085 14.6885C2.97155 13.2855 2.88302 11.7961 3.15206 10.3506C3.42116 8.90522 4.04005 7.54747 4.9548 6.39655C5.86965 5.24556 7.05271 4.33624 8.40011 3.74811ZM11.9997 3.00006C13.1816 3.00006 14.3521 3.2332 15.4441 3.68561C16.5359 4.13801 17.5283 4.80089 18.364 5.63678C19.1996 6.47262 19.8629 7.46469 20.3151 8.5567C20.7674 9.64884 20.9997 10.8199 20.9997 12.002C20.9997 12.5543 20.552 13.002 19.9997 13.002H11.9997C11.4475 13.0019 10.9998 12.5542 10.9997 12.002V4.00006C10.9997 3.73488 11.1052 3.48056 11.2927 3.29303C11.4802 3.10553 11.7346 3.0001 11.9997 3.00006ZM12.9997 11.002H18.9275C18.8444 10.4264 18.69 9.86202 18.4665 9.32233C18.1147 8.47286 17.5989 7.70098 16.9489 7.05084C16.299 6.40077 15.5276 5.88508 14.6784 5.53326C14.139 5.30977 13.575 5.15538 12.9997 5.07233V11.002Z"/></svg>