<svg width="24" height="24" viewBox="0 0 24 24" xmlns="http://www.w3.org/2000/svg" fill="#cacaca"><path d="M4.6875 4.96875V17.3438C4.73438 17.8594 5.01562 18.1406 5.53125 18.1875H20.1562C20.6719 18.2344 20.9531 18.5156 21 19.0312C20.9531 19.5469 20.6719 19.8281 20.1562 19.875H5.53125C4.80469 19.8516 4.20703 19.6055 3.73828 19.1367C3.26953 18.668 3.02344 18.0703 3 17.3438V4.96875C3.04688 4.45312 3.32812 4.17188 3.84375 4.125C4.35938 4.17188 4.64062 4.45312 4.6875 4.96875ZM14.25 8.34375C14.2969 7.82812 14.5781 7.54688 15.0938 7.5H19.0312C19.5469 7.54688 19.8281 7.82812 19.875 8.34375V12.2812C19.8281 12.7969 19.5469 13.0781 19.0312 13.125C18.5156 13.0781 18.2344 12.7969 18.1875 12.2812V10.3828L14.2852 14.2852C13.8867 14.6133 13.4883 14.6133 13.0898 14.2852L10.3125 11.5078L8.09766 13.7227C7.69922 14.0508 7.30078 14.0508 6.90234 13.7227C6.57422 13.3242 6.57422 12.9258 6.90234 12.5273L9.71484 9.71484C10.1133 9.38672 10.5117 9.38672 10.9102 9.71484L13.6875 12.4922L16.9922 9.1875H15.0938C14.5781 9.14062 14.2969 8.85938 14.25 8.34375Z"/></svg>