<svg width="24" height="24" viewBox="0 0 24 24" xmlns="http://www.w3.org/2000/svg" fill="#cacaca"><path d="M12 4.6875C11.4844 4.73438 11.2031 5.01562 11.1562 5.53125C11.2031 6.04688 11.4844 6.32812 12 6.375C12.5156 6.32812 12.7969 6.04688 12.8438 5.53125C12.7969 5.01562 12.5156 4.73438 12 4.6875ZM12 8.0625C11.0391 8.03906 10.3125 7.61719 9.82031 6.79688C9.35156 5.95312 9.35156 5.10938 9.82031 4.26562C10.3125 3.44531 11.0391 3.02344 12 3C12.9609 3.02344 13.6875 3.44531 14.1797 4.26562C14.6484 5.10938 14.6484 5.95312 14.1797 6.79688C13.6875 7.61719 12.9609 8.03906 12 8.0625ZM12 9.1875C12.7266 9.1875 13.3945 9.01172 14.0039 8.66016C14.6367 8.30859 15.1406 7.81641 15.5156 7.18359L16.043 6.23438C16.3477 5.8125 16.7344 5.70703 17.2031 5.91797C17.625 6.22266 17.7305 6.60938 17.5195 7.07812L16.957 8.02734C16.418 8.94141 15.7031 9.64453 14.8125 10.1367V20.1562C14.7656 20.6719 14.4844 20.9531 13.9688 21C13.4531 20.9531 13.1719 20.6719 13.125 20.1562V16.5H10.875V20.1562C10.8281 20.6719 10.5469 20.9531 10.0312 21C9.51562 20.9531 9.23438 20.6719 9.1875 20.1562V10.1367C8.27344 9.62109 7.54688 8.89453 7.00781 7.95703L6.48047 7.07812C6.26953 6.60938 6.375 6.22266 6.79688 5.91797C7.26562 5.70703 7.65234 5.8125 7.95703 6.23438L8.44922 7.14844C8.82422 7.78125 9.32812 8.27344 9.96094 8.625C10.5703 9 11.25 9.1875 12 9.1875ZM13.125 14.8125V10.7695C12.75 10.8398 12.375 10.875 12 10.875C11.625 10.875 11.25 10.8398 10.875 10.7695V14.8125H13.125Z"/></svg>