<svg width="24" height="24" viewBox="0 0 24 24" fill="#cacaca" xmlns="http://www.w3.org/2000/svg">
<path d="M19.7778 12C19.7778 7.70445 16.2955 4.22222 12 4.22222C7.70445 4.22222 4.22222 7.70445 4.22222 12C4.22222 16.2955 7.70445 19.7778 12 19.7778C16.2955 19.7778 19.7778 16.2955 19.7778 12ZM22 12C22 17.5228 17.5228 22 12 22C6.47715 22 2 17.5228 2 12C2 6.47715 6.47715 2 12 2C17.5228 2 22 6.47715 22 12Z"/>
<path d="M14.5477 7.88108C14.9817 7.44716 15.685 7.44716 16.1189 7.88108C16.5528 8.31499 16.5528 9.01834 16.1189 9.45226L13.5712 12L16.1189 14.5477L16.1949 14.6324C16.5508 15.0688 16.5257 15.7121 16.1189 16.1189C15.7121 16.5257 15.0688 16.5508 14.6324 16.1949L14.5477 16.1189L12 13.5712L9.45226 16.1189C9.01834 16.5528 8.31499 16.5528 7.88108 16.1189C7.44716 15.685 7.44716 14.9817 7.88108 14.5477L10.4288 12L7.88108 9.45226L7.80512 9.36762C7.44918 8.93121 7.47428 8.28787 7.88108 7.88108C8.28787 7.47428 8.93121 7.44918 9.36762 7.80512L9.45226 7.88108L12 10.4288L14.5477 7.88108Z"/>
</svg>
