<svg width="24" height="24" viewBox="0 0 24 24" xmlns="http://www.w3.org/2000/svg" fill="#cacaca"><path d="M4.6875 17.625C4.71094 17.9766 4.89844 18.1641 5.25 18.1875H18.75C19.1016 18.1641 19.2891 17.9766 19.3125 17.625V10.3125H4.6875V17.625ZM14.8125 8.625H17.0625L19.3125 6.375C19.2891 6.02344 19.1016 5.83594 18.75 5.8125H17.625L14.8125 8.625ZM11.4375 8.625L14.25 5.8125H12L9.1875 8.625H11.4375ZM5.8125 8.625L8.625 5.8125H6.375L4.6875 7.5V8.625H5.8125ZM21 6.375V17.625C20.9766 18.2578 20.7539 18.7852 20.332 19.207C19.9102 19.6289 19.3828 19.8516 18.75 19.875H5.25C4.61719 19.8516 4.08984 19.6289 3.66797 19.207C3.24609 18.7852 3.02344 18.2578 3 17.625V6.375C3.02344 5.74219 3.24609 5.21484 3.66797 4.79297C4.08984 4.37109 4.61719 4.14844 5.25 4.125H18.75C19.3828 4.14844 19.9102 4.37109 20.332 4.79297C20.7539 5.21484 20.9766 5.74219 21 6.375ZM10.6289 11.5078C10.8164 11.4141 11.0039 11.4258 11.1914 11.543L14.5664 13.793C14.7305 13.9102 14.8125 14.0625 14.8125 14.25C14.8125 14.4375 14.7305 14.5898 14.5664 14.707L11.1914 16.957C11.0039 17.0742 10.8164 17.0859 10.6289 16.9922C10.418 16.875 10.3125 16.7109 10.3125 16.5V12C10.3125 11.7891 10.418 11.625 10.6289 11.5078Z"/></svg>