<svg width="24" height="24" viewBox="0 0 24 24" xmlns="http://www.w3.org/2000/svg" fill="#cacaca"><path d="M4.6875 10.3125V17.625C4.71094 17.9766 4.89844 18.1641 5.25 18.1875H18.75C19.1016 18.1641 19.2891 17.9766 19.3125 17.625V10.3125H4.6875ZM17.0625 8.625L19.3125 6.375C19.2891 6.02344 19.1016 5.83594 18.75 5.8125H17.625L14.8125 8.625H17.0625ZM14.25 5.8125H12L9.1875 8.625H11.4375L14.25 5.8125ZM8.625 5.8125H6.375L4.6875 7.5V8.625H5.8125L8.625 5.8125ZM21 17.625C20.9766 18.2578 20.7539 18.7852 20.332 19.207C19.9102 19.6289 19.3828 19.8516 18.75 19.875H5.25C4.61719 19.8516 4.08984 19.6289 3.66797 19.207C3.24609 18.7852 3.02344 18.2578 3 17.625V6.375C3.02344 5.74219 3.24609 5.21484 3.66797 4.79297C4.08984 4.37109 4.61719 4.14844 5.25 4.125H18.75C19.3828 4.14844 19.9102 4.37109 20.332 4.79297C20.7539 5.21484 20.9766 5.74219 21 6.375V17.625Z"/></svg>