<svg width="24" height="24" viewBox="0 0 24 24" xmlns="http://www.w3.org/2000/svg" fill="#cacaca"><path d="M16.6667 5.25C17.3229 5.27344 17.8698 5.49609 18.3073 5.91797C18.7448 6.33984 18.9757 6.86719 19 7.5V18.75C18.9757 19.3828 18.7448 19.9102 18.3073 20.332C17.8698 20.7539 17.3229 20.9766 16.6667 21H7.33333C6.67708 20.9766 6.13021 20.7539 5.69271 20.332C5.25521 19.9102 5.02431 19.3828 5 18.75V7.5C5.02431 6.86719 5.25521 6.33984 5.69271 5.91797C6.13021 5.49609 6.67708 5.27344 7.33333 5.25H9.15625C9.30208 4.59375 9.63021 4.05469 10.1406 3.63281C10.651 3.23438 11.2708 3.02344 12 3C12.7292 3.02344 13.349 3.23438 13.8594 3.63281C14.3698 4.05469 14.6979 4.59375 14.8438 5.25H16.6667ZM7.33333 6.9375C6.96875 6.96094 6.77431 7.14844 6.75 7.5V18.75C6.77431 19.1016 6.96875 19.2891 7.33333 19.3125H16.6667C17.0312 19.2891 17.2257 19.1016 17.25 18.75V7.5C17.2257 7.14844 17.0312 6.96094 16.6667 6.9375H16.0833V7.78125C16.0347 8.29688 15.7431 8.57812 15.2083 8.625H8.79167C8.25694 8.57812 7.96528 8.29688 7.91667 7.78125V6.9375H7.33333ZM12 6.65625C12.5347 6.60938 12.8264 6.32812 12.875 5.8125C12.8264 5.29688 12.5347 5.01562 12 4.96875C11.4653 5.01562 11.1736 5.29688 11.125 5.8125C11.1736 6.32812 11.4653 6.60938 12 6.65625Z"/></svg>