<svg width="24" height="24" viewBox="0 0 24 24" xmlns="http://www.w3.org/2000/svg" fill="#cacaca"><path d="M16 6C16.5625 6.02083 17.0312 6.21875 17.4062 6.59375C17.7812 6.96875 17.9792 7.4375 18 8V18C17.9792 18.5625 17.7812 19.0312 17.4062 19.4062C17.0312 19.7812 16.5625 19.9792 16 20H8C7.4375 19.9792 6.96875 19.7812 6.59375 19.4062C6.21875 19.0312 6.02083 18.5625 6 18V8C6.02083 7.4375 6.21875 6.96875 6.59375 6.59375C6.96875 6.21875 7.4375 6.02083 8 6H9.5625C9.6875 5.41667 9.96875 4.9375 10.4062 4.5625C10.8438 4.20833 11.375 4.02083 12 4C12.625 4.02083 13.1562 4.20833 13.5938 4.5625C14.0312 4.9375 14.3125 5.41667 14.4375 6H16ZM8.5 7.5H8C7.6875 7.52083 7.52083 7.6875 7.5 8V18C7.52083 18.3125 7.6875 18.4792 8 18.5H16C16.3125 18.4792 16.4792 18.3125 16.5 18V8C16.4792 7.6875 16.3125 7.52083 16 7.5H15.5V8.25C15.4583 8.70833 15.2083 8.95833 14.75 9H9.25C8.79167 8.95833 8.54167 8.70833 8.5 8.25V7.5ZM11.25 6.5C11.2917 6.95833 11.5417 7.20833 12 7.25C12.4583 7.20833 12.7083 6.95833 12.75 6.5C12.7083 6.04167 12.4583 5.79167 12 5.75C11.5417 5.79167 11.2917 6.04167 11.25 6.5ZM15.0312 12.375L11.6875 15.6875C11.5417 15.8333 11.3646 15.9062 11.1562 15.9062C10.9479 15.9062 10.7708 15.8333 10.625 15.6875L8.96875 14.0312C8.67708 13.6771 8.67708 13.3229 8.96875 12.9688C9.32292 12.6771 9.67708 12.6771 10.0312 12.9688L11.1562 14.0938L13.9688 11.3125C14.3229 11.0208 14.6771 11.0208 15.0312 11.3125C15.3229 11.6667 15.3229 12.0208 15.0312 12.375Z"/></svg>