<svg width="24" height="24" viewBox="0 0 24 24" xmlns="http://www.w3.org/2000/svg" fill="#cacaca"><path d="M4.6875 6.76172C5.50781 5.61328 6.55078 4.69922 7.81641 4.01953C9.08203 3.36328 10.4766 3.02344 12 3C13.6875 3.02344 15.1992 3.43359 16.5352 4.23047C17.8945 5.02734 18.9727 6.10547 19.7695 7.46484C20.5664 8.80078 20.9766 10.3125 21 12C20.9766 13.6875 20.5664 15.1992 19.7695 16.5352C18.9727 17.8945 17.8945 18.9727 16.5352 19.7695C15.1992 20.5664 13.6875 20.9766 12 21C10.1484 20.9766 8.49609 20.4844 7.04297 19.5234C6.64453 19.1953 6.5625 18.7969 6.79688 18.3281C7.125 17.9297 7.51172 17.8594 7.95703 18.1172C9.12891 18.8906 10.4766 19.2891 12 19.3125C14.0625 19.2656 15.7852 18.5508 17.168 17.168C18.5508 15.7852 19.2656 14.0625 19.3125 12C19.2656 9.9375 18.5508 8.21484 17.168 6.83203C15.7852 5.44922 14.0625 4.73438 12 4.6875C10.6875 4.71094 9.50391 5.01562 8.44922 5.60156C7.37109 6.21094 6.50391 7.03125 5.84766 8.0625H7.78125C8.29688 8.10938 8.57812 8.39062 8.625 8.90625C8.57812 9.42188 8.29688 9.70312 7.78125 9.75H3.84375C3.32812 9.70312 3.04688 9.42188 3 8.90625V4.96875C3.04688 4.45312 3.32812 4.17188 3.84375 4.125C4.35938 4.17188 4.64062 4.45312 4.6875 4.96875V6.76172ZM12 7.5C12.5156 7.54688 12.7969 7.82812 12.8438 8.34375V11.6484L15.1289 13.9336C15.457 14.332 15.457 14.7305 15.1289 15.1289C14.7305 15.457 14.332 15.457 13.9336 15.1289L11.4023 12.5977C11.2383 12.4336 11.1562 12.2344 11.1562 12V8.34375C11.2031 7.82812 11.4844 7.54688 12 7.5Z"/></svg>