<svg width="24" height="24" viewBox="0 0 24 24" xmlns="http://www.w3.org/2000/svg" fill="#cacaca"><path d="M14.8438 8.1875C14.1771 8.4375 13.5938 8.3125 13.0938 7.8125C12.3646 6.97917 11.4167 6.54167 10.25 6.5C9.1875 6.52083 8.30208 6.88542 7.59375 7.59375C6.88542 8.30208 6.52083 9.1875 6.5 10.25C6.45833 10.9375 6.125 11.4167 5.5 11.6875C4.89583 11.8958 4.41667 12.25 4.0625 12.75C3.6875 13.25 3.5 13.8333 3.5 14.5C3.52083 15.3542 3.8125 16.0625 4.375 16.625C4.9375 17.1875 5.64583 17.4792 6.5 17.5H17.8438C17.8646 17.5 17.875 17.5 17.875 17.5C17.8958 17.5 17.9062 17.5 17.9062 17.5C18.6562 17.4375 19.2708 17.1458 19.75 16.625C20.2292 16.125 20.4792 15.5 20.5 14.75C20.5 14.1875 20.3438 13.6771 20.0312 13.2188C19.7396 12.7812 19.3438 12.4479 18.8438 12.2188C18.5312 12.0729 18.2917 11.8542 18.125 11.5625C17.9792 11.2708 17.9271 10.9583 17.9688 10.625C17.9896 10.5 18 10.375 18 10.25C17.9792 9.60417 17.7604 9.07292 17.3438 8.65625C16.9271 8.23958 16.3958 8.02083 15.75 8C15.4167 8 15.1146 8.0625 14.8438 8.1875ZM18 19H6.5C5.22917 18.9583 4.16667 18.5208 3.3125 17.6875C2.47917 16.8333 2.04167 15.7708 2 14.5C2.02083 13.5 2.30208 12.625 2.84375 11.875C3.38542 11.125 4.10417 10.5833 5 10.25C5.04167 8.77083 5.55208 7.53125 6.53125 6.53125C7.53125 5.55208 8.77083 5.04167 10.25 5C11.0417 5 11.7812 5.16667 12.4688 5.5C13.1562 5.8125 13.7396 6.25 14.2188 6.8125C14.6979 6.60417 15.2083 6.5 15.75 6.5C16.8125 6.52083 17.6979 6.88542 18.4062 7.59375C19.1146 8.30208 19.4792 9.1875 19.5 10.25C19.5 10.4583 19.4896 10.6562 19.4688 10.8438C20.2188 11.1979 20.8229 11.7188 21.2812 12.4062C21.7396 13.0938 21.9792 13.875 22 14.75C21.9792 15.9167 21.5938 16.8854 20.8438 17.6562C20.0938 18.4479 19.1458 18.8958 18 19Z"/></svg>