<svg width="24" height="24" viewBox="0 0 24 24" xmlns="http://www.w3.org/2000/svg" fill="#cacaca"><path fill-rule="evenodd" clip-rule="evenodd" d="M14.7734 9.84347C14.3948 9.35074 14.2668 8.71005 14.4269 8.10967C14.4707 7.94556 14.4986 7.75089 14.4999 7.51811C14.4821 6.75487 14.2404 6.19195 13.7848 5.71521C13.3118 5.26319 12.754 5.02178 12 5.00052C11.246 5.02178 10.6882 5.26319 10.2152 5.71522C9.75957 6.19195 9.51794 6.75488 9.50005 7.51813C9.50143 7.7509 9.52933 7.94556 9.57309 8.10967C9.7332 8.71005 9.60516 9.35074 9.2266 9.84347C8.84805 10.3362 8.26198 10.625 7.64062 10.625H7.52087C6.75645 10.6424 6.19243 10.8841 5.71521 11.3402C5.26319 11.8132 5.02178 12.371 5.00052 13.125C5.02178 13.879 5.26319 14.4368 5.71521 14.9098C6.18503 15.3588 6.73857 15.6 7.48503 15.624C8.33851 15.5843 8.92302 15.2911 9.39021 14.7734C9.94468 14.1589 10.8203 13.9495 11.5928 14.2465C11.7384 14.3025 11.8747 14.3743 12 14.4596C12.1253 14.3743 12.2616 14.3025 12.4072 14.2465C13.1797 13.9495 14.0553 14.1589 14.6098 14.7734C15.077 15.2911 15.6615 15.5843 16.515 15.624C17.2614 15.6 17.815 15.3588 18.2848 14.9098C18.7368 14.4368 18.9782 13.879 18.9995 13.125C18.9782 12.371 18.7368 11.8132 18.2848 11.3402C17.8076 10.8841 17.244 10.6424 16.4796 10.625H16.3596C15.7383 10.625 15.152 10.3362 14.7734 9.84347ZM18.3273 9.0005C18.8296 9.21622 19.2869 9.52465 19.6992 9.92578C20.543 10.793 20.9766 11.8594 21 13.125C20.9766 14.3906 20.543 15.457 19.6992 16.3242C18.832 17.168 17.7656 17.6016 16.5 17.625C16.481 17.6244 16.462 17.6236 16.443 17.6228C15.9737 17.6025 15.5343 17.529 15.125 17.4024C14.8163 17.3068 14.5246 17.181 14.25 17.0249C14.1038 16.9419 13.9625 16.8502 13.8261 16.75C13.5762 16.5665 13.3425 16.3543 13.125 16.1133V18.75H14.25C14.5781 18.75 14.8477 18.8555 15.0586 19.0664C15.1843 19.1921 15.2725 19.3386 15.3233 19.5059C15.3578 19.6194 15.375 19.7424 15.375 19.875C15.375 20.2031 15.2695 20.4727 15.0586 20.6836C14.8477 20.8945 14.5781 21 14.25 21H9.75C9.42188 21 9.15234 20.8945 8.94141 20.6836C8.73047 20.4727 8.625 20.2031 8.625 19.875C8.625 19.7424 8.64223 19.6194 8.67668 19.5059C8.72747 19.3386 8.81571 19.1921 8.94141 19.0664C9.15234 18.8555 9.42188 18.75 9.75 18.75H10.875V16.1133C10.6575 16.3543 10.4238 16.5665 10.1739 16.75C10.0375 16.8502 9.89615 16.9419 9.75 17.0249C9.4754 17.181 9.18374 17.3068 8.875 17.4024C8.46567 17.529 8.02632 17.6025 7.55697 17.6228C7.53803 17.6236 7.51904 17.6244 7.5 17.625C6.23438 17.6016 5.16797 17.168 4.30078 16.3242C3.45703 15.457 3.02344 14.3906 3 13.125C3.02344 11.8594 3.45703 10.793 4.30078 9.92578C4.71306 9.52465 5.17036 9.21622 5.67269 9.00049C6.22697 8.76246 6.83608 8.63729 7.5 8.625H7.64062C7.54688 8.27344 7.5 7.89844 7.5 7.5C7.50561 7.19691 7.53475 6.90524 7.58741 6.625C7.75463 5.73503 8.15909 4.96029 8.80078 4.30078C9.66797 3.45703 10.7344 3.02344 12 3C13.2656 3.02344 14.332 3.45703 15.1992 4.30078C15.8409 4.96029 16.2454 5.73503 16.4126 6.625C16.4653 6.90524 16.4944 7.19691 16.5 7.5C16.5 7.89844 16.4531 8.27344 16.3594 8.625H16.5C17.1639 8.63729 17.773 8.76246 18.3273 9.0005Z"/></svg>