<svg width="24" height="24" viewBox="0 0 24 24" xmlns="http://www.w3.org/2000/svg" fill="#cacaca"><path d="M9.71875 7.71875L5.40625 12L9.71875 16.2812C9.90625 16.4896 10 16.7292 10 17C10 17.2708 9.90625 17.5104 9.71875 17.7188C9.51042 17.9062 9.27083 18 9 18C8.72917 18 8.48958 17.9062 8.28125 17.7188L3.28125 12.7188C3.09375 12.5104 3 12.2708 3 12C3 11.7292 3.09375 11.4896 3.28125 11.2812L8.28125 6.28125C8.48958 6.09375 8.72917 6 9 6C9.27083 6 9.51042 6.09375 9.71875 6.28125C9.90625 6.48958 10 6.72917 10 7C10 7.27083 9.90625 7.51042 9.71875 7.71875ZM14.2812 7.71875C14.0938 7.51042 14 7.27083 14 7C14 6.72917 14.0938 6.48958 14.2812 6.28125C14.4896 6.09375 14.7292 6 15 6C15.2708 6 15.5104 6.09375 15.7188 6.28125L20.7188 11.2812C20.9062 11.4896 21 11.7292 21 12C21 12.2708 20.9062 12.5104 20.7188 12.7188L15.7188 17.7188C15.5104 17.9062 15.2708 18 15 18C14.7292 18 14.4896 17.9062 14.2812 17.7188C14.0938 17.5104 14 17.2708 14 17C14 16.7292 14.0938 16.4896 14.2812 16.2812L18.5938 12L14.2812 7.71875Z"/></svg>