<svg width="24" height="24" viewBox="0 0 24 24" xmlns="http://www.w3.org/2000/svg" fill="#cacaca"><path d="M18.4286 4.92857H5.57143C5.16964 4.95536 4.95536 5.16964 4.92857 5.57143V18.4286C4.95536 18.8304 5.16964 19.0446 5.57143 19.0714H18.4286C18.8304 19.0446 19.0446 18.8304 19.0714 18.4286V5.57143C19.0446 5.16964 18.8304 4.95536 18.4286 4.92857ZM5.57143 3H18.4286C19.1518 3.02679 19.7545 3.28125 20.2366 3.76339C20.7188 4.24554 20.9732 4.84821 21 5.57143V18.4286C20.9732 19.1518 20.7188 19.7545 20.2366 20.2366C19.7545 20.7188 19.1518 20.9732 18.4286 21H5.57143C4.84821 20.9732 4.24554 20.7188 3.76339 20.2366C3.28125 19.7545 3.02679 19.1518 3 18.4286V5.57143C3.02679 4.84821 3.28125 4.24554 3.76339 3.76339C4.24554 3.28125 4.84821 3.02679 5.57143 3ZM13.2455 8.74554C13.7009 8.37054 14.1562 8.37054 14.6116 8.74554L17.183 11.317C17.558 11.7723 17.558 12.2277 17.183 12.683L14.6116 15.2545C14.1562 15.6295 13.7009 15.6295 13.2455 15.2545C12.8705 14.7991 12.8705 14.3438 13.2455 13.8884L15.1339 12L13.2455 10.1116C12.8705 9.65625 12.8705 9.20089 13.2455 8.74554ZM10.7545 10.1116L8.86607 12L10.7545 13.8884C11.1295 14.3438 11.1295 14.7991 10.7545 15.2545C10.2991 15.6295 9.84375 15.6295 9.38839 15.2545L6.81696 12.683C6.44196 12.2277 6.44196 11.7723 6.81696 11.317L9.38839 8.74554C9.84375 8.37054 10.2991 8.37054 10.7545 8.74554C11.1295 9.20089 11.1295 9.65625 10.7545 10.1116Z"/></svg>