<svg width="24" height="24" viewBox="0 0 24 24" xmlns="http://www.w3.org/2000/svg" fill="#cacaca"><path d="M14.4688 4.03124C14.8854 4.21874 15.0521 4.53124 14.9688 4.96874L10.4688 19.4687C10.3021 19.8854 9.98958 20.0521 9.53125 19.9687C9.11458 19.8021 8.94792 19.4896 9.03125 19.0312L13.5312 4.53124C13.7188 4.11457 14.0312 3.94791 14.4688 4.03124ZM16.7188 7.74999C17.0521 7.43749 17.3958 7.42707 17.75 7.71874L21.75 11.4687C21.9167 11.6146 22 11.7917 22 12C22 12.2083 21.9167 12.3958 21.75 12.5625L17.75 16.3125C17.3958 16.5833 17.0521 16.5625 16.7188 16.25C16.4271 15.8958 16.4375 15.5521 16.75 15.2187L20.1562 12L16.75 8.81249C16.4375 8.45832 16.4271 8.10416 16.7188 7.74999ZM7.3125 7.74999C7.58333 8.10416 7.5625 8.45832 7.25 8.81249L3.84375 12L7.25 15.2187C7.5625 15.5521 7.58333 15.8958 7.3125 16.25C6.95833 16.5625 6.60417 16.5833 6.25 16.3125L2.25 12.5625C2.08333 12.3958 2 12.2083 2 12C2 11.7917 2.08333 11.6146 2.25 11.4687L6.25 7.71874C6.60417 7.42707 6.95833 7.43749 7.3125 7.74999Z"/></svg>