<svg width="24" height="24" viewBox="0 0 24 24" xmlns="http://www.w3.org/2000/svg" fill="#cacaca"><path d="M7.09375 12.375C8.32292 13.0833 9.95833 13.4583 12 13.5C14.0417 13.4583 15.6875 13.0833 16.9375 12.375C17.5417 12.0208 17.9583 11.6771 18.1875 11.3438C18.4167 11.0104 18.5208 10.7292 18.5 10.5C18.5208 10.2708 18.4167 9.98958 18.1875 9.65625C17.9583 9.32292 17.5417 8.97917 16.9375 8.625C15.6875 7.91667 14.0417 7.54167 12 7.5C9.95833 7.54167 8.32292 7.91667 7.09375 8.625C6.46875 8.97917 6.04167 9.32292 5.8125 9.65625C5.58333 9.98958 5.47917 10.2708 5.5 10.5C5.47917 10.7292 5.58333 11.0104 5.8125 11.3438C6.04167 11.6771 6.46875 12.0208 7.09375 12.375ZM12 6C14.2708 6.04167 16.1562 6.47917 17.6562 7.3125C19.1562 8.16667 19.9375 9.22917 20 10.5V14C19.9375 15.125 19.1562 16.0729 17.6562 16.8438C16.1562 17.5938 14.2708 17.9792 12 18C9.72917 17.9792 7.84375 17.5938 6.34375 16.8438C4.84375 16.0729 4.0625 15.125 4 14V10.5C4.0625 9.22917 4.84375 8.16667 6.34375 7.3125C7.84375 6.47917 9.72917 6.04167 12 6ZM10.75 14.9375V16.4375C11.1458 16.4792 11.5625 16.5 12 16.5C12.4375 16.5 12.8542 16.4792 13.25 16.4375V14.9375C12.8333 14.9792 12.4167 15 12 15C11.5833 15 11.1667 14.9792 10.75 14.9375ZM9.75 14.8125C9.04167 14.7083 8.375 14.5417 7.75 14.3125V15.8125C8.33333 16.0208 9 16.1875 9.75 16.3125V14.8125ZM5.5 13.125V14C5.47917 14.1042 5.55208 14.2812 5.71875 14.5312C5.88542 14.7812 6.22917 15.0521 6.75 15.3438V13.9062C6.27083 13.6771 5.85417 13.4167 5.5 13.125ZM14.25 16.3125C15 16.1875 15.6667 16.0208 16.25 15.8125V14.3125C15.625 14.5417 14.9583 14.7083 14.25 14.8125V16.3125ZM17.25 15.3438C17.7708 15.0521 18.1146 14.7812 18.2812 14.5312C18.4479 14.2812 18.5208 14.1042 18.5 14V13.125C18.1458 13.4167 17.7292 13.6771 17.25 13.9062V15.3438ZM12 9.75C10.7083 9.77083 9.66667 9.90625 8.875 10.1562C8.5 10.2812 8.23958 10.3958 8.09375 10.5C8.23958 10.6042 8.5 10.7188 8.875 10.8438C9.66667 11.0938 10.7083 11.2292 12 11.25C13.2917 11.2292 14.3333 11.0938 15.125 10.8438C15.5 10.7188 15.7604 10.6042 15.9062 10.5C15.7604 10.3958 15.5 10.2812 15.125 10.1562C14.3333 9.90625 13.2917 9.77083 12 9.75ZM17.5 10.5C17.4375 11.0417 17.2083 11.4375 16.8125 11.6875C16.4792 11.9375 16.0729 12.1354 15.5938 12.2812C14.5938 12.5938 13.3958 12.75 12 12.75C10.6042 12.75 9.40625 12.5938 8.40625 12.2812C7.92708 12.1354 7.52083 11.9375 7.1875 11.6875C6.79167 11.4583 6.5625 11.0625 6.5 10.5C6.5625 9.9375 6.79167 9.54167 7.1875 9.3125C7.52083 9.0625 7.92708 8.86458 8.40625 8.71875C9.40625 8.40625 10.6042 8.25 12 8.25C13.3958 8.25 14.5938 8.40625 15.5938 8.71875C16.0729 8.86458 16.4792 9.0625 16.8125 9.3125C17.2083 9.54167 17.4375 9.9375 17.5 10.5Z"/></svg>