<svg width="24" height="24" viewBox="0 0 24 24" xmlns="http://www.w3.org/2000/svg" fill="#cacaca"><path d="M12.375 16.9375C13.0833 15.6875 13.4583 14.0417 13.5 12C13.4583 9.95833 13.0833 8.32292 12.375 7.09375C12.0208 6.46875 11.6771 6.04167 11.3438 5.8125C11.0104 5.58333 10.7292 5.47917 10.5 5.5C10.2708 5.47917 9.98958 5.58333 9.65625 5.8125C9.32292 6.04167 8.97917 6.46875 8.625 7.09375C7.91667 8.32292 7.54167 9.95833 7.5 12C7.54167 14.0417 7.91667 15.6875 8.625 16.9375C8.97917 17.5417 9.32292 17.9583 9.65625 18.1875C9.98958 18.4167 10.2708 18.5208 10.5 18.5C10.7292 18.5208 11.0104 18.4167 11.3438 18.1875C11.6771 17.9583 12.0208 17.5417 12.375 16.9375ZM6 12C6.04167 9.72917 6.47917 7.84375 7.3125 6.34375C8.16667 4.84375 9.22917 4.0625 10.5 4H14C15.125 4.0625 16.0729 4.84375 16.8438 6.34375C17.5938 7.84375 17.9792 9.72917 18 12C17.9792 14.2708 17.5938 16.1562 16.8438 17.6562C16.0729 19.1562 15.125 19.9375 14 20H10.5C9.22917 19.9375 8.16667 19.1562 7.3125 17.6562C6.47917 16.1562 6.04167 14.2708 6 12ZM14.9375 13.25H16.4375C16.4792 12.8542 16.5 12.4375 16.5 12C16.5 11.5625 16.4792 11.1458 16.4375 10.75H14.9375C14.9792 11.1667 15 11.5833 15 12C15 12.4167 14.9792 12.8333 14.9375 13.25ZM14.8125 14.25C14.7083 14.9583 14.5417 15.625 14.3125 16.25H15.8125C16.0208 15.6667 16.1875 15 16.3125 14.25H14.8125ZM13.125 18.5H14C14.1042 18.5208 14.2812 18.4479 14.5312 18.2812C14.7812 18.1146 15.0521 17.7708 15.3438 17.25H13.9062C13.6771 17.7292 13.4167 18.1458 13.125 18.5ZM16.3125 9.75C16.1875 9 16.0208 8.33333 15.8125 7.75H14.3125C14.5208 8.375 14.6875 9.04167 14.8125 9.75H16.3125ZM15.3438 6.75C15.0521 6.22917 14.7812 5.88542 14.5312 5.71875C14.2812 5.55208 14.1042 5.47917 14 5.5H13.125C13.4167 5.85417 13.6771 6.27083 13.9062 6.75H15.3438ZM9.75 12C9.77083 13.2917 9.90625 14.3333 10.1562 15.125C10.2812 15.5 10.3958 15.7604 10.5 15.9062C10.6042 15.7604 10.7188 15.5 10.8438 15.125C11.0938 14.3333 11.2292 13.2917 11.25 12C11.2292 10.7083 11.0938 9.66667 10.8438 8.875C10.7188 8.5 10.6042 8.23958 10.5 8.09375C10.3958 8.23958 10.2812 8.5 10.1562 8.875C9.90625 9.66667 9.77083 10.7083 9.75 12ZM10.5 6.5C11.0625 6.5625 11.4583 6.79167 11.6875 7.1875C11.9375 7.52083 12.1354 7.92708 12.2812 8.40625C12.5938 9.40625 12.75 10.6042 12.75 12C12.75 13.3958 12.5938 14.5938 12.2812 15.5938C12.1354 16.0729 11.9375 16.4792 11.6875 16.8125C11.4583 17.2083 11.0625 17.4375 10.5 17.5C9.95833 17.4375 9.5625 17.2083 9.3125 16.8125C9.0625 16.4792 8.86458 16.0729 8.71875 15.5938C8.40625 14.5938 8.25 13.3958 8.25 12C8.25 10.6042 8.40625 9.40625 8.71875 8.40625C8.86458 7.92708 9.0625 7.52083 9.3125 7.1875C9.54167 6.79167 9.9375 6.5625 10.5 6.5Z"/></svg>