<svg width="24" height="24" viewBox="0 0 24 24" xmlns="http://www.w3.org/2000/svg" fill="#cacaca"><path d="M20 10.755H4V17.255C4 17.5936 4.27868 17.88 4.63672 17.88H19.3633C19.7213 17.88 20 17.5936 20 17.255V10.755ZM20 6.38501C20 6.04639 19.7213 5.76001 19.3633 5.76001H4.63672C4.27868 5.76001 4 6.04639 4 6.38501V8.76001H20V6.38501ZM22 17.255C22 18.7113 20.8127 19.88 19.3633 19.88H4.63672C3.18728 19.88 2 18.7113 2 17.255V6.505C2 5.0487 3.18728 3.88 4.63672 3.88H19.3633C20.8127 3.88 22 5.0487 22 6.505V17.255Z"/><path d="M6 14.88C6 14.3277 6.44772 13.88 7 13.88H10C10.5523 13.88 11 14.3277 11 14.88C11 15.4323 10.5523 15.88 10 15.88H7C6.44772 15.88 6 15.4323 6 14.88Z"/><path d="M13 14.88C13 14.3277 13.4477 13.88 14 13.88H15C15.5523 13.88 16 14.3277 16 14.88C16 15.4323 15.5523 15.88 15 15.88H14C13.4477 15.88 13 15.4323 13 14.88Z"/></svg>