<svg width="24" height="24" viewBox="0 0 24 24" xmlns="http://www.w3.org/2000/svg" fill="#cacaca"><path d="M5.8125 3.84375C5.85938 3.32812 6.14062 3.04688 6.65625 3C7.17188 3.04688 7.45312 3.32812 7.5 3.84375V15.3047L15.3047 7.5H8.625V5.8125H16.9922L19.5586 3.24609C19.957 2.91797 20.3555 2.91797 20.7539 3.24609C21.082 3.64453 21.082 4.04297 20.7539 4.44141L18.1875 7.00781V16.5H20.1562C20.6719 16.5469 20.9531 16.8281 21 17.3438C20.9531 17.8594 20.6719 18.1406 20.1562 18.1875H18.1875V20.1562C18.1406 20.6719 17.8594 20.9531 17.3438 21C16.8281 20.9531 16.5469 20.6719 16.5 20.1562V8.69531L8.69531 16.5H15.375V18.1875H7.78125C7.21875 18.1641 6.75 17.9766 6.375 17.625C6.02344 17.25 5.83594 16.7812 5.8125 16.2188V7.5H3.84375C3.32812 7.45312 3.04688 7.17188 3 6.65625C3.04688 6.14062 3.32812 5.85938 3.84375 5.8125H5.8125V3.84375Z"/></svg>