<svg width="24" height="24" viewBox="0 0 24 24" xmlns="http://www.w3.org/2000/svg" fill="#cacaca"><path d="M12 2C17.5228 2 22 6.47715 22 12C22 17.5228 17.5228 22 12 22C6.47715 22 2 17.5228 2 12C2 6.47715 6.47715 2 12 2ZM11 6.59961V4.06348C7.38148 4.51479 4.51582 7.3815 4.06445 11H6.59961C7.15189 11 7.59961 11.4477 7.59961 12C7.59961 12.5523 7.15189 13 6.59961 13H4.06445C4.51581 16.6185 7.38154 19.4842 11 19.9355V17.4004C11 16.8481 11.4477 16.4004 12 16.4004C12.5523 16.4004 13 16.8481 13 17.4004V19.9355C16.6185 19.4842 19.4842 16.6185 19.9355 13H17.4004C16.8481 13 16.4004 12.5523 16.4004 12C16.4004 11.4477 16.8481 11 17.4004 11H19.9355C19.4842 7.3815 16.6185 4.51479 13 4.06348V6.59961C13 7.15189 12.5523 7.59961 12 7.59961C11.4477 7.59961 11 7.15189 11 6.59961Z"/></svg>