<svg width="24" height="24" viewBox="0 0 24 24" xmlns="http://www.w3.org/2000/svg" fill="#cacaca"><path d="M17.5 6.02344H17.4688C17.3229 5.83594 16.9792 5.63672 16.4375 5.42578C15.3333 4.95703 13.8542 4.71094 12 4.6875C10.1458 4.71094 8.66667 4.95703 7.5625 5.42578C7.02083 5.63672 6.67708 5.83594 6.53125 6.02344H6.5V9.15234C6.91667 9.41016 7.48958 9.64453 8.21875 9.85547C9.30208 10.1602 10.5625 10.3125 12 10.3125C13.4375 10.3125 14.6979 10.1602 15.7812 9.85547C16.5104 9.64453 17.0833 9.41016 17.5 9.15234V6.02344ZM17.5 11.0156C17.0833 11.2031 16.6354 11.3555 16.1562 11.4727C14.9271 11.8242 13.5417 12 12 12C10.4583 12 9.07292 11.8242 7.84375 11.4727C7.36458 11.332 6.91667 11.1797 6.5 11.0156V13.6523C6.91667 13.9102 7.48958 14.1445 8.21875 14.3555C9.30208 14.6602 10.5625 14.8125 12 14.8125C13.4375 14.8125 14.6979 14.6602 15.7812 14.3555C16.5104 14.1445 17.0833 13.9102 17.5 13.6523V11.0156ZM6.5 17.9766L6.53125 18.0117C6.67708 18.1758 7.02083 18.3633 7.5625 18.5742C8.66667 19.043 10.1458 19.2891 12 19.3125C13.8542 19.2891 15.3333 19.043 16.4375 18.5742C16.9792 18.3633 17.3229 18.1641 17.4688 17.9766H17.5V15.5156C17.0833 15.7031 16.6354 15.8555 16.1562 15.9727C14.9271 16.3242 13.5417 16.5 12 16.5C10.4583 16.5 9.07292 16.3242 7.84375 15.9727C7.36458 15.8555 6.91667 15.7031 6.5 15.5156V17.9766ZM19 18.1875C18.9583 18.9844 18.2708 19.6523 16.9375 20.1914C15.625 20.707 13.9792 20.9766 12 21C10.0208 20.9766 8.375 20.707 7.0625 20.1914C5.72917 19.6523 5.04167 18.9844 5 18.1875V5.8125C5.04167 5.01562 5.72917 4.34766 7.0625 3.80859C8.375 3.29297 10.0208 3.02344 12 3C13.9792 3.02344 15.625 3.29297 16.9375 3.80859C18.2708 4.34766 18.9583 5.01562 19 5.8125V18.1875Z"/></svg>