<svg width="24" height="24" viewBox="0 0 24 24" xmlns="http://www.w3.org/2000/svg" fill="#cacaca"><path d="M9.40625 6H19C19.5625 6.02083 20.0312 6.21875 20.4062 6.59375C20.7812 6.96875 20.9792 7.4375 21 8V16C20.9792 16.5625 20.7812 17.0312 20.4062 17.4062C20.0312 17.7812 19.5625 17.9792 19 18H9.40625C8.86458 18 8.39583 17.8021 8 17.4062L3.28125 12.7188C3.09375 12.5104 3 12.2708 3 12C3 11.7292 3.09375 11.4896 3.28125 11.2812L8 6.59375C8.39583 6.19792 8.86458 6 9.40625 6ZM19.5 8C19.4792 7.6875 19.3125 7.52083 19 7.5H9.40625C9.28125 7.5 9.16667 7.55208 9.0625 7.65625L4.71875 12L9.0625 16.3438C9.16667 16.4479 9.28125 16.5 9.40625 16.5H19C19.3125 16.4792 19.4792 16.3125 19.5 16V8ZM16.5312 9.46875C16.8229 9.82292 16.8229 10.1771 16.5312 10.5312L15.0625 12L16.5312 13.4688C16.8229 13.8229 16.8229 14.1771 16.5312 14.5312C16.1771 14.8229 15.8229 14.8229 15.4688 14.5312L14 13.0625L12.5312 14.5312C12.1771 14.8229 11.8229 14.8229 11.4688 14.5312C11.1771 14.1771 11.1771 13.8229 11.4688 13.4688L12.9375 12L11.4688 10.5312C11.1771 10.1771 11.1771 9.82292 11.4688 9.46875C11.8229 9.17708 12.1771 9.17708 12.5312 9.46875L14 10.9375L15.4688 9.46875C15.8229 9.17708 16.1771 9.17708 16.5312 9.46875Z"/></svg>