<svg width="24" height="24" viewBox="0 0 24 24" xmlns="http://www.w3.org/2000/svg" fill="#cacaca"><path d="M19 5.5H5C4.6875 5.52083 4.52083 5.6875 4.5 6V12H19.5V6C19.4792 5.6875 19.3125 5.52083 19 5.5ZM21 15C20.9792 15.5625 20.7812 16.0312 20.4062 16.4062C20.0312 16.7812 19.5625 16.9792 19 17H14.375L14.625 18.5H16.25C16.7083 18.5417 16.9583 18.7917 17 19.25C16.9583 19.7083 16.7083 19.9583 16.25 20H7.75C7.29167 19.9583 7.04167 19.7083 7 19.25C7.04167 18.7917 7.29167 18.5417 7.75 18.5H9.375L9.625 17H5C4.4375 16.9792 3.96875 16.7812 3.59375 16.4062C3.21875 16.0312 3.02083 15.5625 3 15V6C3.02083 5.4375 3.21875 4.96875 3.59375 4.59375C3.96875 4.21875 4.4375 4.02083 5 4H19C19.5625 4.02083 20.0312 4.21875 20.4062 4.59375C20.7812 4.96875 20.9792 5.4375 21 6V15ZM4.5 13.5V15C4.52083 15.3125 4.6875 15.4792 5 15.5H19C19.3125 15.4792 19.4792 15.3125 19.5 15V13.5H4.5ZM10.875 18.5H13.125L12.875 17H11.125L10.875 18.5Z"/></svg>