<svg width="24" height="24" viewBox="0 0 24 24" xmlns="http://www.w3.org/2000/svg" fill="#cacaca"><path d="M12 6.53125L12.5625 5.875C13.0312 5.34375 13.7188 5 14.4688 5H14.5C15.875 5 17 6.125 17 7.5C17 7.875 16.9062 8.21875 16.7812 8.5H19C21.0312 8.53125 22 10.75 22 12.5C22 14.2812 21.2188 16.25 19.4688 16.9062C19.125 17.0312 18.75 17.0312 18.4062 16.9688L14 15.9688V18.5C14 18.7188 13.875 18.875 13.6875 18.9688C13.5312 19.0625 13.3125 19.0312 13.1562 18.9062L12 17.9062L10.8125 18.9062C10.6562 19.0312 10.4375 19.0625 10.2812 18.9688C10.0938 18.875 10 18.7188 10 18.5V15.9688L5.5625 16.9688C5.21875 17.0312 4.84375 17.0312 4.53125 16.9062C2.75 16.25 2 14.2812 2 12.5C2 10.75 2.9375 8.53125 5 8.5H7.1875C7.0625 8.21875 7 7.875 7 7.5C7 6.125 8.09375 5 9.5 5H9.53125C10.25 5 10.9375 5.34375 11.4375 5.875L12 6.53125ZM14.5 8.5H14.4688C15.0312 8.5 15.4688 8.0625 15.4688 7.5C15.4688 6.96875 15.0312 6.5 14.4688 6.5H14.4375C14.4062 6.5 14.375 6.5 14.3438 6.53125C14.0938 6.53125 13.8438 6.65625 13.6875 6.875L12.5938 8.09375C12.4688 8.25 12.5625 8.5 12.7812 8.5H14.25H14.5ZM11.1875 8.5V8.53125C11.4062 8.53125 11.5 8.25 11.375 8.09375L10.2812 6.875C10.0938 6.65625 9.8125 6.5 9.53125 6.5H9.5C8.9375 6.5 8.5 6.96875 8.5 7.5C8.5 8.0625 8.9375 8.5 9.5 8.5H11.1875ZM9.5 10H5C4.625 10.0312 4.28125 10.1875 4 10.6562C3.65625 11.1562 3.5 11.875 3.5 12.5C3.5 14 4.125 15.1562 5.0625 15.5C5.0625 15.5 5.0625 15.5 5.09375 15.5C5.125 15.5312 5.1875 15.5 5.25 15.5L10 14.4375V10H9.5ZM14 10V14.4375L18.75 15.5C18.7812 15.5 18.8438 15.5312 18.875 15.5C18.9062 15.5 18.9375 15.5 18.9375 15.5C19.875 15.1562 20.5 14 20.5 12.5C20.5 11.875 20.3125 11.1562 20 10.6562C19.6875 10.1875 19.375 10.0312 18.9688 10H14.5H14Z"/></svg>