<svg width="24" height="24" viewBox="0 0 24 24" xmlns="http://www.w3.org/2000/svg" fill="#cacaca"><path d="M19 6.55566C19 6.3102 18.8146 6.06911 18.5283 6.0127L18.4004 6H5.59961C5.24171 6.0002 5 6.27531 5 6.55566V14.333C5 14.6134 5.24171 14.8885 5.59961 14.8887H18.4004C18.7583 14.8885 19 14.6134 19 14.333V6.55566ZM21 14.333C21 15.7706 19.8094 16.8885 18.4004 16.8887H13V18H15.2002L15.3018 18.0049C15.8063 18.0559 16.2002 18.4821 16.2002 19C16.2002 19.5179 15.8063 19.9441 15.3018 19.9951L15.2002 20H8.7998C8.24761 19.9999 7.7998 19.5522 7.7998 19C7.7998 18.4478 8.24761 18.0001 8.7998 18H11V16.8887H5.59961C4.19058 16.8885 3 15.7706 3 14.333V6.55566C3 5.11803 4.19058 4.00021 5.59961 4H18.4004L18.6611 4.0127C19.9532 4.14062 21 5.20765 21 6.55566V14.333Z"/></svg>