<svg width="24" height="24" viewBox="0 0 24 24" xmlns="http://www.w3.org/2000/svg" fill="#cacaca"><path d="M5.57143 4.92857C5.16964 4.95536 4.95536 5.16964 4.92857 5.57143V18.4286C4.95536 18.8304 5.16964 19.0446 5.57143 19.0714H18.4286C18.8304 19.0446 19.0446 18.8304 19.0714 18.4286V5.57143C19.0446 5.16964 18.8304 4.95536 18.4286 4.92857H5.57143ZM3 5.57143C3.02679 4.84821 3.28125 4.24554 3.76339 3.76339C4.24554 3.28125 4.84821 3.02679 5.57143 3H18.4286C19.1518 3.02679 19.7545 3.28125 20.2366 3.76339C20.7188 4.24554 20.9732 4.84821 21 5.57143V18.4286C20.9732 19.1518 20.7188 19.7545 20.2366 20.2366C19.7545 20.7188 19.1518 20.9732 18.4286 21H5.57143C4.84821 20.9732 4.24554 20.7188 3.76339 20.2366C3.28125 19.7545 3.02679 19.1518 3 18.4286V5.57143ZM12.8438 7.09821V7.66071C13.2188 7.71429 13.6071 7.79464 14.0089 7.90179C14.0893 7.92857 14.1562 7.95536 14.2098 7.98214C14.7188 8.16964 14.933 8.53125 14.8527 9.06696C14.6384 9.54911 14.2768 9.75 13.7679 9.66964C13.7411 9.64286 13.7143 9.62946 13.6875 9.62946C13.6339 9.62946 13.5938 9.61607 13.567 9.58929C13.2991 9.50893 13.0179 9.44196 12.7232 9.38839C12.1607 9.28125 11.6116 9.33482 11.0759 9.54911C10.8348 9.65625 10.6741 9.80357 10.5938 9.99107C10.4866 10.1786 10.5536 10.3661 10.7946 10.5536C11.1964 10.7679 11.625 10.9286 12.0804 11.0357C12.1071 11.0357 12.1205 11.0357 12.1205 11.0357C12.1741 11.0625 12.2277 11.0759 12.2812 11.0759C12.308 11.1027 12.3482 11.1161 12.4018 11.1161C13.0982 11.2768 13.7679 11.5446 14.4107 11.9196C15.2143 12.5089 15.5357 13.2857 15.375 14.25C15.1607 15.1607 14.6518 15.7634 13.8482 16.058C13.5268 16.192 13.192 16.2723 12.8438 16.2991V16.942C12.7902 17.4509 12.4955 17.7321 11.9598 17.7857C11.4509 17.7321 11.1696 17.4509 11.1161 16.942V16.2188C10.5268 16.0848 9.95089 15.9241 9.38839 15.7366C8.90625 15.5223 8.71875 15.1473 8.82589 14.6116C9.04018 14.1295 9.40179 13.9554 9.91071 14.0893C9.96429 14.0893 10.0179 14.1027 10.0714 14.1295C10.125 14.1295 10.1786 14.1429 10.2321 14.1696C10.6875 14.3304 11.1429 14.4643 11.5982 14.5714C12.2946 14.6518 12.8304 14.6116 13.2054 14.4509C13.4464 14.3438 13.6071 14.183 13.6875 13.9688C13.7411 13.7277 13.6607 13.5268 13.4464 13.3661C13.0179 13.0982 12.5491 12.9241 12.0402 12.8438C11.9598 12.817 11.8795 12.7902 11.7991 12.7634C11.7723 12.7366 11.7589 12.7232 11.7589 12.7232C11.0893 12.5893 10.4464 12.3482 9.83036 12C9.02679 11.4643 8.69196 10.7143 8.82589 9.75C9.06696 8.86607 9.58929 8.26339 10.3929 7.94196C10.6071 7.86161 10.8482 7.79464 11.1161 7.74107V7.09821C11.1696 6.5625 11.4509 6.26786 11.9598 6.21429C12.4955 6.26786 12.7902 6.5625 12.8438 7.09821Z"/></svg>