<svg width="24" height="24" viewBox="0 0 24 24" xmlns="http://www.w3.org/2000/svg" fill="#cacaca"><path d="M12.8438 3.84375V5.60156C13.8281 5.71875 14.6719 5.85938 15.375 6.02344C15.8438 6.1875 16.043 6.52734 15.9727 7.04297C15.8086 7.53516 15.4805 7.74609 14.9883 7.67578C14.4258 7.53516 13.7812 7.40625 13.0547 7.28906C12.3516 7.19531 11.6602 7.17188 10.9805 7.21875C10.3008 7.26562 9.76172 7.41797 9.36328 7.67578C9.01172 7.88672 8.77734 8.23828 8.66016 8.73047C8.58984 9.12891 8.61328 9.42188 8.73047 9.60938C8.82422 9.79688 9.02344 9.98438 9.32812 10.1719C10.0312 10.5703 10.9922 10.8984 12.2109 11.1562L12.2812 11.1914C12.8438 11.332 13.4062 11.4961 13.9688 11.6836C14.5547 11.8477 15.082 12.0703 15.5508 12.3516C16.0664 12.6562 16.4766 13.0898 16.7812 13.6523C17.0625 14.2148 17.1328 14.8594 16.9922 15.5859C16.6875 16.8047 15.9375 17.625 14.7422 18.0469C14.1562 18.2578 13.5234 18.3867 12.8438 18.4336V20.1562C12.7969 20.6719 12.5156 20.9531 12 21C11.4844 20.9531 11.2031 20.6719 11.1562 20.1562V18.3984C11.1094 18.3984 11.0508 18.3984 10.9805 18.3984C10.9336 18.375 10.875 18.3633 10.8047 18.3633C10.3359 18.293 9.78516 18.1758 9.15234 18.0117C8.49609 17.8477 7.92188 17.6602 7.42969 17.4492C6.98437 17.2148 6.84375 16.8516 7.00781 16.3594C7.26562 15.8906 7.64062 15.7383 8.13281 15.9023C8.53125 16.0898 9.01172 16.2539 9.57422 16.3945C10.1367 16.5352 10.6289 16.6406 11.0508 16.7109C12.3164 16.875 13.3359 16.8047 14.1094 16.5C14.8359 16.1953 15.2461 15.7852 15.3398 15.2695C15.4102 14.8711 15.3867 14.5781 15.2695 14.3906C15.1758 14.2031 14.9766 14.0039 14.6719 13.793C13.9688 13.418 13.0078 13.0898 11.7891 12.8086H11.7188C11.1562 12.668 10.5938 12.5039 10.0312 12.3164C9.44531 12.1523 8.91797 11.9297 8.44922 11.6484C7.93359 11.3438 7.52344 10.9102 7.21875 10.3477C6.9375 9.78516 6.86719 9.14062 7.00781 8.41406C7.21875 7.42969 7.71094 6.70312 8.48438 6.23438C9.21094 5.8125 9.99609 5.57812 10.8398 5.53125C10.9336 5.53125 11.0391 5.53125 11.1562 5.53125V3.84375C11.2031 3.32812 11.4844 3.04688 12 3C12.5156 3.04688 12.7969 3.32812 12.8438 3.84375Z"/></svg>