<svg width="24" height="24" viewBox="0 0 24 24" xmlns="http://www.w3.org/2000/svg" fill="#cacaca"><path d="M19.3125 12C19.3125 10.6641 18.9844 9.44531 18.3281 8.34375C17.6953 7.24219 16.8047 6.35156 15.6562 5.67188C14.5078 5.01562 13.2891 4.6875 12 4.6875C10.7109 4.6875 9.49219 5.01562 8.34375 5.67188C7.19531 6.35156 6.30469 7.24219 5.67188 8.34375C5.01562 9.44531 4.6875 10.6641 4.6875 12C4.6875 13.3359 5.01562 14.5547 5.67188 15.6562C6.30469 16.7578 7.19531 17.6484 8.34375 18.3281C9.49219 18.9844 10.7109 19.3125 12 19.3125C13.2891 19.3125 14.5078 18.9844 15.6562 18.3281C16.8047 17.6484 17.6953 16.7578 18.3281 15.6562C18.9844 14.5547 19.3125 13.3359 19.3125 12ZM3 12C3.02344 10.3594 3.42188 8.85938 4.19531 7.5C4.99219 6.14062 6.09375 5.03906 7.5 4.19531C8.92969 3.39844 10.4297 3 12 3C13.5703 3 15.0703 3.39844 16.5 4.19531C17.9062 5.03906 19.0078 6.14062 19.8047 7.5C20.5781 8.85938 20.9766 10.3594 21 12C20.9766 13.6406 20.5781 15.1406 19.8047 16.5C19.0078 17.8594 17.9062 18.9609 16.5 19.8047C15.0703 20.6016 13.5703 21 12 21C10.4297 21 8.92969 20.6016 7.5 19.8047C6.09375 18.9609 4.99219 17.8594 4.19531 16.5C3.42188 15.1406 3.02344 13.6406 3 12ZM12.7383 7.71094V8.20312C13.0664 8.25 13.4062 8.32031 13.7578 8.41406C13.8281 8.4375 13.8867 8.46094 13.9336 8.48438C14.3789 8.64844 14.5664 8.96484 14.4961 9.43359C14.3086 9.85547 13.9922 10.0312 13.5469 9.96094C13.5234 9.9375 13.5 9.92578 13.4766 9.92578C13.4297 9.92578 13.3945 9.91406 13.3711 9.89062C13.1367 9.82031 12.8906 9.76172 12.6328 9.71484C12.1406 9.62109 11.6602 9.66797 11.1914 9.85547C10.9805 9.94922 10.8398 10.0781 10.7695 10.2422C10.6758 10.4062 10.7344 10.5703 10.9453 10.7344C11.2969 10.9219 11.6719 11.0625 12.0703 11.1562C12.0938 11.1562 12.1055 11.1562 12.1055 11.1562C12.1523 11.1797 12.1992 11.1914 12.2461 11.1914C12.2695 11.2148 12.3047 11.2266 12.3516 11.2266C12.9609 11.3672 13.5469 11.6016 14.1094 11.9297C14.8125 12.4453 15.0938 13.125 14.9531 13.9688C14.7656 14.7656 14.3203 15.293 13.6172 15.5508C13.3359 15.668 13.043 15.7383 12.7383 15.7617V16.3242C12.6914 16.7695 12.4336 17.0156 11.9648 17.0625C11.5195 17.0156 11.2734 16.7695 11.2266 16.3242V15.6914C10.7109 15.5742 10.207 15.4336 9.71484 15.2695C9.29297 15.082 9.12891 14.7539 9.22266 14.2852C9.41016 13.8633 9.72656 13.7109 10.1719 13.8281C10.2188 13.8281 10.2656 13.8398 10.3125 13.8633C10.3594 13.8633 10.4062 13.875 10.4531 13.8984C10.8516 14.0391 11.25 14.1562 11.6484 14.25C12.2578 14.3203 12.7266 14.2852 13.0547 14.1445C13.2656 14.0508 13.4062 13.9102 13.4766 13.7227C13.5234 13.5117 13.4531 13.3359 13.2656 13.1953C12.8906 12.9609 12.4805 12.8086 12.0352 12.7383C11.9648 12.7148 11.8945 12.6914 11.8242 12.668C11.8008 12.6445 11.7891 12.6328 11.7891 12.6328C11.2031 12.5156 10.6406 12.3047 10.1016 12C9.39844 11.5312 9.10547 10.875 9.22266 10.0312C9.43359 9.25781 9.89062 8.73047 10.5938 8.44922C10.7812 8.37891 10.9922 8.32031 11.2266 8.27344V7.71094C11.2734 7.24219 11.5195 6.98438 11.9648 6.9375C12.4336 6.98438 12.6914 7.24219 12.7383 7.71094Z"/></svg>