<svg width="24" height="24" viewBox="0 0 24 24" xmlns="http://www.w3.org/2000/svg" fill="#cacaca"><path d="M12 19.3125C13.4826 19.2656 14.7222 18.7734 15.7188 17.8359C16.691 16.875 17.2014 15.6797 17.25 14.25C17.25 13.7812 17.0434 13.0664 16.6302 12.1055C16.1927 11.1445 15.6458 10.1484 14.9896 9.11719C14.4306 8.29688 13.8958 7.52344 13.3854 6.79688C12.8507 6.09375 12.3889 5.49609 12 5.00391C11.6111 5.49609 11.1493 6.09375 10.6146 6.79688C10.1042 7.52344 9.5816 8.29688 9.04688 9.11719C8.36632 10.1484 7.80729 11.1445 7.36979 12.1055C6.9566 13.0664 6.75 13.7812 6.75 14.25C6.79861 15.6797 7.30903 16.875 8.28125 17.8359C9.27778 18.7734 10.5174 19.2656 12 19.3125ZM5 14.25C5.04861 13.1484 5.47396 11.8594 6.27604 10.3828C7.07812 8.90625 7.95312 7.52344 8.90104 6.23438C9.84896 4.94531 10.5781 4.00781 11.0885 3.42188C11.3073 3.14062 11.599 3 11.9635 3H12.0365C12.401 3 12.6927 3.14062 12.9115 3.42188C13.4219 4.00781 14.151 4.94531 15.099 6.23438C16.0469 7.52344 16.9219 8.90625 17.724 10.3828C18.526 11.8594 18.9514 13.1484 19 14.25C18.9514 16.1719 18.2708 17.7656 16.9583 19.0312C15.6458 20.2969 13.9931 20.9531 12 21C10.0069 20.9531 8.35417 20.2969 7.04167 19.0312C5.72917 17.7656 5.04861 16.1719 5 14.25ZM10.25 13.9688C10.2743 14.5312 10.4688 15 10.8333 15.375C11.2222 15.7266 11.7083 15.9141 12.2917 15.9375C12.8264 15.9844 13.1181 16.2656 13.1667 16.7812C13.1181 17.2969 12.8264 17.5781 12.2917 17.625C11.2222 17.6016 10.3229 17.25 9.59375 16.5703C8.88889 15.8672 8.52431 15 8.5 13.9688C8.54861 13.4531 8.84028 13.1719 9.375 13.125C9.90972 13.1719 10.2014 13.4531 10.25 13.9688Z"/></svg>