<svg width="24" height="24" viewBox="0 0 24 24" xmlns="http://www.w3.org/2000/svg" fill="#cacaca"><path d="M6 6.75C6 5.8125 6.78125 5 7.75 5H8.25C9.1875 5 10 5.8125 10 6.75V11.25H14V6.75C14 5.8125 14.7812 5 15.75 5H16.25C17.1875 5 18 5.8125 18 6.75V7.25H18.75C19.6875 7.25 20.5 8.0625 20.5 9V11.25H21.25C21.6562 11.25 22 11.5938 22 12C22 12.4375 21.6562 12.75 21.25 12.75H20.5V15C20.5 15.9688 19.6875 16.75 18.75 16.75H18V17.25C18 18.2188 17.1875 19 16.25 19H15.75C14.7812 19 14 18.2188 14 17.25V12.75H10V17.25C10 18.2188 9.1875 19 8.25 19H7.75C6.78125 19 6 18.2188 6 17.25V16.75H5.25C4.28125 16.75 3.5 15.9688 3.5 15V12.75H2.75C2.3125 12.75 2 12.4375 2 12C2 11.5938 2.3125 11.25 2.75 11.25H3.5V9C3.5 8.0625 4.28125 7.25 5.25 7.25H6V6.75ZM7.5 7.25V8V16V16.75V17.25C7.5 17.4062 7.59375 17.5 7.75 17.5H8.25C8.375 17.5 8.5 17.4062 8.5 17.25V6.75C8.5 6.625 8.375 6.5 8.25 6.5H7.75C7.59375 6.5 7.5 6.625 7.5 6.75V7.25ZM6 8.75H5.25C5.09375 8.75 5 8.875 5 9V15C5 15.1562 5.09375 15.25 5.25 15.25H6V8.75ZM16.5 16V8V7.25V6.75C16.5 6.625 16.375 6.5 16.25 6.5H15.75C15.5938 6.5 15.5 6.625 15.5 6.75V17.25C15.5 17.4062 15.5938 17.5 15.75 17.5H16.25C16.375 17.5 16.5 17.4062 16.5 17.25V16.75V16ZM18.75 15.25C18.875 15.25 19 15.1562 19 15V9C19 8.875 18.875 8.75 18.75 8.75H18V15.25H18.75Z"/></svg>