<svg width="24" height="24" viewBox="0 0 24 24" xmlns="http://www.w3.org/2000/svg" fill="#cacaca"><path d="M12 20.125C14.1094 20.0729 15.9063 19.3958 17.3906 18.0938C18.849 16.7917 19.7344 15.125 20.0469 13.0938L18.9141 12.7813C18.4714 12.6771 18.1719 12.4036 18.0156 11.9609L17.3906 10.0078C17.2865 9.66927 17.2995 9.35677 17.4297 9.07031C17.5599 8.78385 17.7813 8.57552 18.0938 8.44531L19.1094 8.05469C18.4062 6.83073 17.4818 5.85417 16.3359 5.125C15.1641 4.39583 13.849 3.97917 12.3906 3.875L12.5078 4.03125C12.7682 4.55208 12.7161 5.03385 12.3516 5.47656L11.7266 6.21875C11.3359 6.73958 11.3359 7.27344 11.7266 7.82031L12.2734 8.44531C12.4818 8.73177 12.4948 9.03125 12.3125 9.34375C12.1042 9.63021 11.8177 9.72135 11.4531 9.61719L10.5547 9.34375C10.2682 9.23958 9.99479 9.2526 9.73438 9.38281L9.5 9.5C9.10938 9.73438 8.97917 10.0599 9.10938 10.4766C9.16146 10.6589 9.27865 10.8021 9.46094 10.9062L10.7891 11.6875C11.1797 11.8958 11.5964 12 12.0391 12H13.7188C14.2396 12 14.6823 12.1823 15.0469 12.5469L15.2031 12.7031C15.5677 13.0677 15.75 13.5104 15.75 14.0313V14.3438C15.724 15.0469 15.4115 15.5938 14.8125 15.9844L14.4609 16.1797C13.862 16.5182 13.4714 17.013 13.2891 17.6641L13.2109 17.8984C13.0026 18.5234 12.5859 18.9401 11.9609 19.1484C11.6484 19.2266 11.375 19.1745 11.1406 18.9922C10.8802 18.8359 10.75 18.5885 10.75 18.25V17.0781C10.724 16.6094 10.5156 16.2708 10.125 16.0625C9.73438 15.8542 9.52604 15.5156 9.5 15.0469V13.4844C9.44792 12.7292 9.07031 12.2344 8.36719 12L6.10156 11.3359C5.45052 11.1536 4.95573 10.763 4.61719 10.1641L4.26562 9.53906C4.00521 10.3203 3.875 11.1406 3.875 12C3.92708 14.2917 4.72135 16.2057 6.25781 17.7422C7.79427 19.2786 9.70833 20.0729 12 20.125ZM12 22C10.1771 21.974 8.51042 21.5312 7 20.6719C5.48958 19.7865 4.26562 18.5625 3.32813 17C2.44271 15.4115 2 13.7448 2 12C2 10.2552 2.44271 8.58854 3.32813 7C4.26562 5.4375 5.48958 4.21354 7 3.32813C8.51042 2.46875 10.1771 2.02604 12 2C13.8229 2.02604 15.4896 2.46875 17 3.32813C18.5104 4.21354 19.7344 5.4375 20.6719 7C21.5573 8.58854 22 10.2552 22 12C22 13.7448 21.5573 15.4115 20.6719 17C19.7344 18.5625 18.5104 19.7865 17 20.6719C15.4896 21.5312 13.8229 21.974 12 22Z"/></svg>