<svg width="24" height="24" viewBox="0 0 24 24" xmlns="http://www.w3.org/2000/svg" fill="#cacaca"><path d="M7.21875 4.6875C7.05469 4.71094 6.96094 4.80469 6.9375 4.96875V10.9102L5.42578 9.67969C5.37891 9.63281 5.32031 9.58594 5.25 9.53906V4.96875C5.27344 4.40625 5.46094 3.9375 5.8125 3.5625C6.1875 3.21094 6.65625 3.02344 7.21875 3H16.7812C17.3438 3.02344 17.8125 3.21094 18.1875 3.5625C18.5391 3.9375 18.7266 4.40625 18.75 4.96875V9.53906C18.6797 9.58594 18.6211 9.63281 18.5742 9.67969L17.0625 10.9102V4.96875C17.0391 4.80469 16.9453 4.71094 16.7812 4.6875H7.21875ZM4.6875 12.7031V19.0312C4.71094 19.1953 4.80469 19.2891 4.96875 19.3125H19.0312C19.1953 19.2891 19.2891 19.1953 19.3125 19.0312V12.7031L14.3203 16.8164C13.6172 17.3555 12.8438 17.625 12 17.625C11.1562 17.625 10.3828 17.3555 9.67969 16.8164L4.6875 12.7031ZM3 11.3672C3 11.0625 3.10547 10.8164 3.31641 10.6289C3.50391 10.418 3.75 10.3125 4.05469 10.3125C4.3125 10.3125 4.53516 10.3945 4.72266 10.5586L10.7695 15.5156C11.1445 15.8203 11.5547 15.9727 12 15.9727C12.4688 15.9727 12.8906 15.8203 13.2656 15.5156L19.2773 10.5586C19.4648 10.3945 19.6875 10.3125 19.9453 10.3125C20.25 10.3125 20.4961 10.418 20.6836 10.6289C20.8945 10.8164 21 11.0625 21 11.3672V19.0312C20.9766 19.5938 20.7891 20.0625 20.4375 20.4375C20.0625 20.7891 19.5938 20.9766 19.0312 21H4.96875C4.40625 20.9766 3.9375 20.7891 3.5625 20.4375C3.21094 20.0625 3.02344 19.5938 3 19.0312V11.3672ZM12.7031 6.09375V6.58594C12.9609 6.63281 13.207 6.69141 13.4414 6.76172C13.8398 6.90234 14.0039 7.18359 13.9336 7.60547C13.793 8.00391 13.5117 8.16797 13.0898 8.09766C12.6914 8.00391 12.3281 7.94531 12 7.92188C11.6953 7.92188 11.4375 7.98047 11.2266 8.09766C11.0625 8.19141 10.9922 8.29688 11.0156 8.41406C10.9922 8.48438 11.0508 8.56641 11.1914 8.66016C11.4023 8.77734 11.7422 8.90625 12.2109 9.04688C12.2344 9.04688 12.2461 9.04688 12.2461 9.04688C12.668 9.16406 13.0898 9.33984 13.5117 9.57422C14.0273 9.83203 14.3203 10.3125 14.3906 11.0156C14.3438 11.7656 14.0508 12.293 13.5117 12.5977C13.2539 12.7617 12.9844 12.8672 12.7031 12.9141V13.4062C12.6562 13.8281 12.4219 14.0625 12 14.1094C11.5781 14.0625 11.3438 13.8281 11.2969 13.4062V12.9141C10.9219 12.8203 10.5938 12.7148 10.3125 12.5977C10.2422 12.5742 10.1719 12.5508 10.1016 12.5273C9.70312 12.3633 9.55078 12.0703 9.64453 11.6484C9.80859 11.25 10.1016 11.0977 10.5234 11.1914C10.5703 11.2148 10.6172 11.2266 10.6641 11.2266C10.7109 11.25 10.7578 11.2734 10.8047 11.2969C11.25 11.4609 11.6602 11.5547 12.0352 11.5781C12.3398 11.5781 12.5859 11.5195 12.7734 11.4023C12.9141 11.332 12.9844 11.2148 12.9844 11.0508C13.0078 10.957 12.9375 10.8633 12.7734 10.7695C12.5625 10.6289 12.2344 10.5 11.7891 10.3828L11.7188 10.3477C11.2969 10.2539 10.8867 10.0898 10.4883 9.85547C9.97266 9.62109 9.67969 9.15234 9.60938 8.44922C9.65625 7.69922 9.96094 7.18359 10.5234 6.90234C10.7578 6.76172 11.0156 6.65625 11.2969 6.58594V6.09375C11.3438 5.67188 11.5781 5.4375 12 5.39062C12.4219 5.4375 12.6562 5.67188 12.7031 6.09375Z"/></svg>