<svg width="24" height="24" viewBox="0 0 24 24" xmlns="http://www.w3.org/2000/svg" fill="#cacaca"><path d="M7 6.5C6.6875 6.52083 6.52083 6.6875 6.5 7V17C6.52083 17.3125 6.6875 17.4792 7 17.5H17C17.3125 17.4792 17.4792 17.3125 17.5 17V7C17.4792 6.6875 17.3125 6.52083 17 6.5H7ZM5 7C5.02083 6.4375 5.21875 5.96875 5.59375 5.59375C5.96875 5.21875 6.4375 5.02083 7 5H17C17.5625 5.02083 18.0312 5.21875 18.4062 5.59375C18.7812 5.96875 18.9792 6.4375 19 7V17C18.9792 17.5625 18.7812 18.0312 18.4062 18.4062C18.0312 18.7812 17.5625 18.9792 17 19H7C6.4375 18.9792 5.96875 18.7812 5.59375 18.4062C5.21875 18.0312 5.02083 17.5625 5 17V7ZM12 8C12.4583 8.04167 12.7083 8.29167 12.75 8.75V12.25C12.7083 12.7083 12.4583 12.9583 12 13C11.5417 12.9583 11.2917 12.7083 11.25 12.25V8.75C11.2917 8.29167 11.5417 8.04167 12 8ZM11 15C11 14.7083 11.0938 14.4688 11.2812 14.2812C11.4688 14.0938 11.7083 14 12 14C12.2917 14 12.5312 14.0938 12.7188 14.2812C12.9062 14.4688 13 14.7083 13 15C13 15.2917 12.9062 15.5312 12.7188 15.7188C12.5312 15.9062 12.2917 16 12 16C11.7083 16 11.4688 15.9062 11.2812 15.7188C11.0938 15.5312 11 15.2917 11 15Z"/></svg>