<svg width="24" height="24" viewBox="0 0 24 24" xmlns="http://www.w3.org/2000/svg" fill="#cacaca"><path d="M12.75 5.75V14.75C12.7083 15.2083 12.4583 15.4583 12 15.5C11.5417 15.4583 11.2917 15.2083 11.25 14.75V5.75C11.2917 5.29167 11.5417 5.04167 12 5C12.4583 5.04167 12.7083 5.29167 12.75 5.75ZM12 19C11.7083 19 11.4688 18.9062 11.2812 18.7188C11.0938 18.5312 11 18.2917 11 18C11 17.7083 11.0938 17.4688 11.2812 17.2812C11.4688 17.0938 11.7083 17 12 17C12.2917 17 12.5312 17.0938 12.7188 17.2812C12.9062 17.4688 13 17.7083 13 18C13 18.2917 12.9062 18.5312 12.7188 18.7188C12.5312 18.9062 12.2917 19 12 19Z"/></svg>