<svg width="24" height="24" viewBox="0 0 24 24" xmlns="http://www.w3.org/2000/svg" fill="#cacaca"><path d="M19.3125 15.2812H19.2812C18.8021 15.0104 18.2917 14.9375 17.75 15.0625C18.2292 14.125 18.4792 13.1042 18.5 12C18.5 11.375 18.4167 10.7812 18.25 10.2188C18.1667 9.76042 18.3333 9.44792 18.75 9.28125C19.2083 9.19792 19.5208 9.36458 19.6875 9.78125C19.8958 10.4896 20 11.2292 20 12C20 13.1875 19.7708 14.2812 19.3125 15.2812ZM16 17.125C15.9792 17.6667 16.1458 18.1667 16.5 18.625C15.1875 19.5208 13.6875 19.9792 12 20C10.0417 19.9583 8.35417 19.3542 6.9375 18.1875L7.34375 17.7812C7.57292 17.5521 7.73958 17.2917 7.84375 17C9.01042 17.9792 10.3958 18.4792 12 18.5C13.5417 18.4792 14.875 18.0208 16 17.125ZM5.8125 14C5.33333 14 4.89583 14.1354 4.5 14.4062C4.4375 14.3646 4.38542 14.3333 4.34375 14.3125C4.11458 13.5833 4 12.8125 4 12C4.02083 10.5 4.38542 9.15625 5.09375 7.96875C5.80208 6.76042 6.76042 5.80208 7.96875 5.09375C9.15625 4.38542 10.5 4.02083 12 4C13.1875 4 14.2917 4.23958 15.3125 4.71875C15.7083 4.94792 15.8333 5.28125 15.6875 5.71875C15.4583 6.11458 15.125 6.23958 14.6875 6.09375C13.8542 5.69792 12.9583 5.5 12 5.5C10.1667 5.54167 8.63542 6.17708 7.40625 7.40625C6.17708 8.63542 5.54167 10.1667 5.5 12C5.5 12.7083 5.60417 13.375 5.8125 14ZM8.5 13.9062C8.85417 13.6146 9.20833 13.625 9.5625 13.9375C9.79167 14.2083 10.1146 14.4479 10.5312 14.6562C10.9271 14.8646 11.4167 14.9792 12 15C12.5833 14.9792 13.0729 14.8646 13.4688 14.6562C13.8854 14.4479 14.2083 14.2083 14.4375 13.9375C14.7917 13.625 15.1458 13.6146 15.5 13.9062C15.8125 14.2396 15.8333 14.5938 15.5625 14.9688C15.2083 15.3438 14.7396 15.6875 14.1562 16C13.5521 16.3125 12.8333 16.4792 12 16.5C11.1667 16.4792 10.4479 16.3125 9.84375 16C9.26042 15.6875 8.79167 15.3438 8.4375 14.9688C8.16667 14.5938 8.1875 14.2396 8.5 13.9062ZM8.6875 11.1875C8.39583 11.4375 8.10417 11.4479 7.8125 11.2188C7.5625 10.9271 7.55208 10.625 7.78125 10.3125C8.28125 9.85417 8.85417 9.625 9.5 9.625C10.1458 9.625 10.7083 9.85417 11.1875 10.3125C11.4375 10.625 11.4271 10.9271 11.1562 11.2188C10.8646 11.4479 10.5729 11.4375 10.2812 11.1875C10.0938 10.9792 9.83333 10.875 9.5 10.875C9.14583 10.875 8.875 10.9792 8.6875 11.1875ZM14.5 10.875C14.1458 10.8958 13.875 11 13.6875 11.1875C13.3958 11.4375 13.1042 11.4479 12.8125 11.2188C12.5625 10.9271 12.5521 10.625 12.7812 10.3125C13.2812 9.85417 13.8542 9.625 14.5 9.625C15.1458 9.625 15.7083 9.85417 16.1875 10.3125C16.4375 10.625 16.4271 10.9271 16.1562 11.2188C15.8646 11.4479 15.5729 11.4375 15.2812 11.1875C15.0938 10.9792 14.8333 10.875 14.5 10.875ZM19.9375 4.375V4.34375C20.1875 4.11458 20.4688 4 20.7812 4C21.1146 4 21.4062 4.11458 21.6562 4.34375C21.8854 4.59375 22 4.88542 22 5.21875C22 5.55208 21.8854 5.84375 21.6562 6.09375L19.9062 7.8125C19.6354 8.04167 19.3646 8.04167 19.0938 7.8125L17.3438 6.09375C17.1146 5.84375 17 5.55208 17 5.21875C17 4.88542 17.1146 4.59375 17.3438 4.34375C17.5938 4.11458 17.8854 4 18.2188 4C18.5312 4 18.8125 4.11458 19.0625 4.34375L19.5 4.78125L19.9375 4.375ZM21.6562 16.375C21.8854 16.6042 22 16.8854 22 17.2188C22 17.5521 21.8854 17.8438 21.6562 18.0938L19.9062 19.8438C19.6354 20.0521 19.3646 20.0521 19.0938 19.8438L17.3438 18.0938C17.1146 17.8438 17 17.5521 17 17.2188C17 16.9062 17.1146 16.625 17.3438 16.375C17.5938 16.125 17.8854 16 18.2188 16C18.5312 16 18.8125 16.125 19.0625 16.375L19.5 16.7812L19.9375 16.375C20.1875 16.125 20.4688 16 20.7812 16C21.1146 16 21.4062 16.125 21.6562 16.375ZM4.9375 15.375V15.3438C5.1875 15.1146 5.46875 15 5.78125 15C6.11458 15 6.40625 15.1146 6.65625 15.3438C6.88542 15.5938 7 15.8854 7 16.2188C7 16.5521 6.88542 16.8438 6.65625 17.0938L4.90625 18.8125C4.63542 19.0417 4.36458 19.0417 4.09375 18.8125L2.34375 17.0938C2.11458 16.8438 2 16.5521 2 16.2188C2 15.8854 2.11458 15.5938 2.34375 15.3438C2.59375 15.1146 2.88542 15 3.21875 15C3.53125 15 3.8125 15.1146 4.0625 15.3438L4.5 15.7812L4.9375 15.375Z"/></svg>