<svg width="24" height="24" viewBox="0 0 24 24" xmlns="http://www.w3.org/2000/svg" fill="#cacaca"><path d="M18.5 12C18.5 10.8125 18.2083 9.72917 17.625 8.75C17.0625 7.77083 16.2708 6.97917 15.25 6.375C14.2292 5.79167 13.1458 5.5 12 5.5C10.8542 5.5 9.77083 5.79167 8.75 6.375C7.72917 6.97917 6.9375 7.77083 6.375 8.75C5.79167 9.72917 5.5 10.8125 5.5 12C5.5 13.1875 5.79167 14.2708 6.375 15.25C6.9375 16.2292 7.72917 17.0208 8.75 17.625C9.77083 18.2083 10.8542 18.5 12 18.5C13.1458 18.5 14.2292 18.2083 15.25 17.625C16.2708 17.0208 17.0625 16.2292 17.625 15.25C18.2083 14.2708 18.5 13.1875 18.5 12ZM4 12C4.02083 10.5417 4.375 9.20833 5.0625 8C5.77083 6.79167 6.75 5.8125 8 5.0625C9.27083 4.35417 10.6042 4 12 4C13.3958 4 14.7292 4.35417 16 5.0625C17.25 5.8125 18.2292 6.79167 18.9375 8C19.625 9.20833 19.9792 10.5417 20 12C19.9792 13.4583 19.625 14.7917 18.9375 16C18.2292 17.2083 17.25 18.1875 16 18.9375C14.7292 19.6458 13.3958 20 12 20C10.6042 20 9.27083 19.6458 8 18.9375C6.75 18.1875 5.77083 17.2083 5.0625 16C4.375 14.7917 4.02083 13.4583 4 12ZM14.9375 13.625C15.2292 13.5833 15.4688 13.6562 15.6562 13.8438C15.8438 14.0312 15.8646 14.2604 15.7188 14.5312C15.3229 15.1146 14.8021 15.5938 14.1562 15.9688C13.5104 16.3229 12.7917 16.5 12 16.5C11.2083 16.5 10.4896 16.3229 9.84375 15.9688C9.19792 15.5938 8.67708 15.1146 8.28125 14.5312C8.13542 14.2604 8.15625 14.0312 8.34375 13.8438C8.51042 13.6562 8.75 13.5833 9.0625 13.625C9.97917 13.8542 10.9583 13.9688 12 13.9688C13.0417 13.9688 14.0208 13.8542 14.9375 13.625ZM10.7188 8.28125C11.0104 8.36458 11.2292 8.53125 11.375 8.78125C11.5 9.01042 11.5312 9.27083 11.4688 9.5625L10.9375 11.5938C10.8125 11.8854 10.6042 12 10.3125 11.9375L8.28125 11.4062C7.98958 11.3229 7.78125 11.1562 7.65625 10.9062C7.51042 10.6771 7.46875 10.4167 7.53125 10.125C7.61458 9.83333 7.78125 9.625 8.03125 9.5C8.26042 9.35417 8.52083 9.3125 8.8125 9.375L9.3125 9.53125L9.4375 9.03125C9.52083 8.73958 9.6875 8.52083 9.9375 8.375C10.1667 8.25 10.4271 8.21875 10.7188 8.28125ZM14.5625 9.03125L14.6875 9.53125L15.1875 9.40625C15.4792 9.32292 15.7396 9.35417 15.9688 9.5C16.2188 9.625 16.3854 9.83333 16.4688 10.125C16.5312 10.4167 16.4896 10.6771 16.3438 10.9062C16.2188 11.1562 16.0104 11.3229 15.7188 11.4062L13.6875 11.9375C13.3958 12 13.1875 11.8854 13.0625 11.5938L12.5312 9.5625C12.4688 9.27083 12.5 9.01042 12.625 8.78125C12.7708 8.53125 12.9896 8.36458 13.2812 8.28125C13.5521 8.21875 13.8125 8.26042 14.0625 8.40625C14.3125 8.53125 14.4792 8.73958 14.5625 9.03125Z"/></svg>