<svg width="24" height="24" viewBox="0 0 24 24" xmlns="http://www.w3.org/2000/svg" fill="#cacaca"><path d="M3 4.96875C3.02344 4.40625 3.21094 3.9375 3.5625 3.5625C3.9375 3.21094 4.40625 3.02344 4.96875 3H7.78125C8.29688 3.04688 8.57812 3.32812 8.625 3.84375C8.57812 4.35938 8.29688 4.64062 7.78125 4.6875H4.96875C4.80469 4.71094 4.71094 4.80469 4.6875 4.96875V7.78125C4.64062 8.29688 4.35938 8.57812 3.84375 8.625C3.32812 8.57812 3.04688 8.29688 3 7.78125V4.96875ZM15.375 3.84375C15.4219 3.32812 15.7031 3.04688 16.2188 3H19.0312C19.5938 3.02344 20.0625 3.21094 20.4375 3.5625C20.7891 3.9375 20.9766 4.40625 21 4.96875V7.78125C20.9531 8.29688 20.6719 8.57812 20.1562 8.625C19.6406 8.57812 19.3594 8.29688 19.3125 7.78125V4.96875C19.2891 4.80469 19.1953 4.71094 19.0312 4.6875H16.2188C15.7031 4.64062 15.4219 4.35938 15.375 3.84375ZM3.84375 15.375C4.35938 15.4219 4.64062 15.7031 4.6875 16.2188V19.0312C4.71094 19.1953 4.80469 19.2891 4.96875 19.3125H7.78125C8.29688 19.3594 8.57812 19.6406 8.625 20.1562C8.57812 20.6719 8.29688 20.9531 7.78125 21H4.96875C4.40625 20.9766 3.9375 20.7891 3.5625 20.4375C3.21094 20.0625 3.02344 19.5938 3 19.0312V16.2188C3.04688 15.7031 3.32812 15.4219 3.84375 15.375ZM20.1562 15.375C20.6719 15.4219 20.9531 15.7031 21 16.2188V19.0312C20.9766 19.5938 20.7891 20.0625 20.4375 20.4375C20.0625 20.7891 19.5938 20.9766 19.0312 21H16.2188C15.7031 20.9531 15.4219 20.6719 15.375 20.1562C15.4219 19.6406 15.7031 19.3594 16.2188 19.3125H19.0312C19.1953 19.2891 19.2891 19.1953 19.3125 19.0312V16.2188C19.3594 15.7031 19.6406 15.4219 20.1562 15.375ZM11.4375 10.5938C11.3906 11.1094 11.1094 11.3906 10.5938 11.4375C10.0781 11.3906 9.79688 11.1094 9.75 10.5938C9.79688 10.0781 10.0781 9.79688 10.5938 9.75C11.1094 9.79688 11.3906 10.0781 11.4375 10.5938ZM13.4062 11.4375C12.8906 11.3906 12.6094 11.1094 12.5625 10.5938C12.6094 10.0781 12.8906 9.79688 13.4062 9.75C13.9219 9.79688 14.2031 10.0781 14.25 10.5938C14.2031 11.1094 13.9219 11.3906 13.4062 11.4375ZM12 8.0625C11.2969 8.0625 10.6406 8.23828 10.0312 8.58984C9.42188 8.94141 8.94141 9.42188 8.58984 10.0312C8.23828 10.6406 8.0625 11.2969 8.0625 12C8.0625 12.7031 8.23828 13.3594 8.58984 13.9688C8.94141 14.5781 9.42188 15.0586 10.0312 15.4102C10.6406 15.7617 11.2969 15.9375 12 15.9375C12.7031 15.9375 13.3594 15.7617 13.9688 15.4102C14.5781 15.0586 15.0586 14.5781 15.4102 13.9688C15.7617 13.3594 15.9375 12.7031 15.9375 12C15.9375 11.2969 15.7617 10.6406 15.4102 10.0312C15.0586 9.42188 14.5781 8.94141 13.9688 8.58984C13.3594 8.23828 12.7031 8.0625 12 8.0625ZM12 17.625C10.9922 17.625 10.0547 17.3789 9.1875 16.8867C8.32031 16.3711 7.62891 15.6797 7.11328 14.8125C6.62109 13.9219 6.375 12.9844 6.375 12C6.375 11.0156 6.62109 10.0781 7.11328 9.1875C7.62891 8.32031 8.32031 7.62891 9.1875 7.11328C10.0547 6.62109 10.9922 6.375 12 6.375C13.0078 6.375 13.9453 6.62109 14.8125 7.11328C15.6797 7.62891 16.3711 8.32031 16.8867 9.1875C17.3789 10.0781 17.625 11.0156 17.625 12C17.625 12.9844 17.3789 13.9219 16.8867 14.8125C16.3711 15.6797 15.6797 16.3711 14.8125 16.8867C13.9453 17.3789 13.0078 17.625 12 17.625ZM10.5234 12.8438C10.8516 13.3828 11.3438 13.6641 12 13.6875C12.6562 13.6641 13.1484 13.3828 13.4766 12.8438C13.6641 12.5625 13.9219 12.4922 14.25 12.6328C14.5078 12.8438 14.5664 13.1016 14.4258 13.4062C13.9102 14.2969 13.1016 14.7656 12 14.8125C10.8984 14.7656 10.0898 14.2969 9.57422 13.4062C9.41016 13.1016 9.48047 12.8438 9.78516 12.6328C10.0898 12.4922 10.3359 12.5625 10.5234 12.8438Z"/></svg>