<svg width="24" height="24" viewBox="0 0 24 24" xmlns="http://www.w3.org/2000/svg" fill="#cacaca"><path d="M19.7528 20.3159C20.1045 20.2924 20.292 20.1049 20.3154 19.7532V9.62616H17.5024C17.1742 9.62616 16.9046 9.52067 16.6936 9.30969C16.4826 9.0987 16.3771 8.82912 16.3771 8.50093V5.68785H10.751C10.3993 5.71129 10.2118 5.89883 10.1884 6.25046V8.64158C9.71952 8.45404 9.23895 8.45404 8.74666 8.64158C8.67634 8.66502 8.60601 8.68846 8.53568 8.71191C8.53568 8.73535 8.52396 8.74707 8.50052 8.74707V6.25046C8.52396 5.61752 8.74666 5.09007 9.16863 4.66811C9.59059 4.24614 10.118 4.02344 10.751 4H16.5881C17.1976 4 17.7251 4.2227 18.1705 4.66811L21.3352 7.83282C21.7806 8.27822 22.0033 8.8174 22.0033 9.45034V19.7532C21.9799 20.3862 21.7572 20.9136 21.3352 21.3356C20.9132 21.7576 20.3858 21.9803 19.7528 22.0037H11.7707C11.841 21.8162 11.8762 21.6286 11.8762 21.4411V20.3159H19.7528H11.8762H19.7528ZM7.83241 9.69648L8.39503 9.90746C8.46536 9.93091 8.53568 9.93091 8.60601 9.90746L9.16863 9.69648C9.56714 9.55583 9.89534 9.63788 10.1532 9.94263L10.54 10.4349C10.5869 10.4818 10.6455 10.517 10.7158 10.5404L11.3136 10.6107C11.7121 10.6811 11.9465 10.9155 12.0169 11.314L12.1224 11.9118C12.1224 11.9821 12.1575 12.0524 12.2278 12.1228L12.685 12.4744C12.9897 12.7557 13.0835 13.0839 12.9663 13.459L12.7201 14.0216C12.6967 14.0919 12.6967 14.1622 12.7201 14.2326L12.9311 14.7952C13.0718 15.1703 12.9897 15.4985 12.685 15.7798L12.1927 16.1314C12.1458 16.1783 12.1106 16.2486 12.0872 16.3424L12.0169 16.9402C11.9465 17.3387 11.7121 17.5731 11.3136 17.6434L10.751 17.7138V21.4411C10.751 21.6521 10.6572 21.8162 10.4697 21.9334C10.2587 22.0271 10.0594 22.0154 9.87189 21.8982L8.50052 20.984L7.12914 21.8982C6.94161 22.0154 6.75407 22.0271 6.56653 21.9334C6.35555 21.8162 6.25006 21.6521 6.25006 21.4411V17.7138L5.68744 17.6434C5.28892 17.5731 5.0545 17.3387 4.98417 16.9402L4.91384 16.3424C4.8904 16.2486 4.85524 16.1783 4.80835 16.1314L4.31607 15.7798C4.01132 15.4985 3.92927 15.1703 4.06992 14.7952L4.2809 14.2326C4.30434 14.1622 4.30434 14.0919 4.2809 14.0216L4.06992 13.459C3.92927 13.0839 4.01132 12.7557 4.31607 12.4744L4.80835 12.1228C4.85524 12.0759 4.8904 12.0056 4.91384 11.9118L4.98417 11.314C5.0545 10.9155 5.30064 10.6811 5.7226 10.6107L6.28522 10.5404C6.37899 10.517 6.44932 10.4818 6.4962 10.4349L6.84784 9.94263C7.12914 9.63788 7.45734 9.55583 7.83241 9.69648ZM6.25006 14.1271C6.2735 14.971 6.64858 15.6157 7.37529 16.0611C8.12544 16.483 8.8756 16.483 9.62575 16.0611C10.3525 15.6157 10.7275 14.971 10.751 14.1271C10.7275 13.2832 10.3525 12.6385 9.62575 12.1931C8.8756 11.7711 8.12544 11.7711 7.37529 12.1931C6.64858 12.6385 6.2735 13.2832 6.25006 14.1271Z"/></svg>