<svg width="24" height="24" viewBox="0 0 24 24" xmlns="http://www.w3.org/2000/svg" fill="#cacaca"><path d="M13.875 8.2998H16.6328L13.875 5.46289V8.2998ZM20 19.2002C19.9999 19.9338 19.7165 20.6428 19.2041 21.1699C18.6907 21.6979 17.9885 22 17.25 22H6.75C6.01151 22 5.3093 21.6979 4.7959 21.1699C4.34746 20.7087 4.07387 20.1081 4.0127 19.4736L4 19.2002V4.7998C4.00005 4.06622 4.28346 3.35716 4.7959 2.83008C5.3093 2.30211 6.01151 2 6.75 2H12.875C13.145 2 13.4035 2.1092 13.5918 2.30273L19.7168 8.60254C19.8982 8.78915 19.9999 9.03954 20 9.2998V19.2002ZM6 19.2002L6.00391 19.2822C6.02227 19.4718 6.10371 19.6459 6.22949 19.7754C6.37246 19.9224 6.56032 20 6.75 20H17.25C17.4397 20 17.6275 19.9224 17.7705 19.7754C17.9142 19.6274 17.9999 19.4211 18 19.2002V10.2998H12.875C12.3227 10.2998 11.875 9.85209 11.875 9.2998V4H6.75C6.56032 4 6.37245 4.07756 6.22949 4.22461C6.08576 4.37256 6.00005 4.57886 6 4.7998V19.2002Z"/></svg>