<svg width="24" height="24" viewBox="0 0 24 24" xmlns="http://www.w3.org/2000/svg" fill="#cacaca"><path d="M8.625 18.4375H15.375V14.5V10V6.0625H8.625V10V14.5V18.4375ZM6.9375 6.0625H5.25C4.93359 6.0625 4.6875 6.34375 4.6875 6.625V9.15625H6.9375V6.0625ZM6.9375 10.8438H4.6875V13.6562H6.9375V10.8438ZM6.9375 15.3438H4.6875V17.875C4.6875 18.1914 4.93359 18.4375 5.25 18.4375H6.9375V15.3438ZM17.0625 6.0625V9.15625H19.3125V6.625C19.3125 6.34375 19.0312 6.0625 18.75 6.0625H17.0625ZM19.3125 10.8438H17.0625V13.6562H19.3125V10.8438ZM19.3125 15.3438H17.0625V18.4375H18.75C19.0312 18.4375 19.3125 18.1914 19.3125 17.875V15.3438ZM5.25 4.375H18.75C19.9805 4.375 21 5.39453 21 6.625V17.875C21 19.1406 19.9805 20.125 18.75 20.125H5.25C3.98438 20.125 3 19.1406 3 17.875V6.625C3 5.39453 3.98438 4.375 5.25 4.375Z"/><path d="M10.6055 10.0791L13.9805 12.1416C14.1445 12.2471 14.25 12.4346 14.25 12.6221C14.25 12.8213 14.1445 13.0088 13.9805 13.1026L10.6055 15.1651C10.4297 15.2705 10.207 15.2823 10.0312 15.1768C9.85547 15.083 9.75 14.8955 9.75 14.6846V10.5596C9.75 10.3604 9.85547 10.1729 10.0312 10.0791C10.207 9.97363 10.4297 9.97363 10.6055 10.0791Z"/></svg>