<svg width="24" height="24" viewBox="0 0 24 24" xmlns="http://www.w3.org/2000/svg" fill="#cacaca"><path d="M19 17H17V19H18.2559C18.6668 19 19 18.6668 19 18.2559V17ZM9 19H15V13H9V19ZM17 15H19V13H17V15ZM5 15H7V13H5V15ZM17 11H19V9H17V11ZM9 11H15V5H9V11ZM5 11H7V9H5V11ZM5 18.2559C5 18.6668 5.33324 19 5.74414 19H7V17H5V18.2559ZM19 5.74414C19 5.33324 18.6668 5 18.2559 5H17V7H19V5.74414ZM5 7H7V5H5.74414C5.33324 5 5 5.33324 5 5.74414V7ZM21 18.2559C21 19.7713 19.7713 21 18.2559 21H5.74414C4.22867 21 3 19.7713 3 18.2559V5.74414C3 4.22867 4.22867 3 5.74414 3H18.2559C19.7713 3 21 4.22867 21 5.74414V18.2559Z"/></svg>