<svg width="24" height="24" viewBox="0 0 24 24" xmlns="http://www.w3.org/2000/svg" fill="#cacaca"><path d="M20 4C20.3918 4 20.7477 4.22857 20.9102 4.58496C21.0726 4.94147 21.0119 5.36061 20.7549 5.65625L14.5997 12.7314V19C14.5997 19.3445 14.4228 19.6648 14.1309 19.8477C13.8389 20.0304 13.473 20.0499 13.1631 19.8994L9.96293 18.3438C9.61866 18.1764 9.40043 17.8271 9.40043 17.4443V12.7314L3.24516 5.65625C2.98815 5.36061 2.92749 4.94147 3.08989 4.58496C3.2524 4.22857 3.60833 4 4.00004 4H20ZM11.1543 11.7012C11.3126 11.8831 11.4003 12.1163 11.4004 12.3574V16.8184L12.5997 17.4014V12.3574C12.5997 12.1163 12.6875 11.8831 12.8457 11.7012L17.8047 6H6.19536L11.1543 11.7012Z"/></svg>