<svg width="24" height="24" viewBox="0 0 24 24" fill="#cacaca" xmlns="http://www.w3.org/2000/svg">
   <path d="M20 4C20.3917 4 20.7476 4.22857 20.9101 4.58496C21.0725 4.94147 21.0119 5.36061 20.7549 5.65625L14.5996 12.7314V19C14.5996 19.3445 14.4228 19.6648 14.1308 19.8477C13.8388 20.0304 13.4729 20.0499 13.1631 19.8994L9.96287 18.3438C9.6186 18.1764 9.40037 17.8271 9.40037 17.4443V12.7314L3.2451 5.65625C2.98809 5.36061 2.92742 4.94147 3.08983 4.58496C3.25234 4.22857 3.60827 4 3.99998 4H20ZM11.1543 11.7012C11.3125 11.8831 11.4003 12.1163 11.4004 12.3574V16.8184L12.5996 17.4014V12.3574C12.5997 12.1163 12.6875 11.8831 12.8457 11.7012L17.8047 6H6.1953L11.1543 11.7012Z" /> 
</svg>
