<svg width="24" height="24" viewBox="0 0 24 24" xmlns="http://www.w3.org/2000/svg" fill="#cacaca"><path d="M11.3984 11.1221C11.3984 10.7079 11.7342 10.3721 12.1484 10.3721C12.5626 10.3721 12.8984 10.7079 12.8984 11.1221V12.8984C12.8959 15.1339 13.5383 17.3202 14.745 19.1992L14.9941 19.5713L15.0351 19.6357C15.22 19.9678 15.1268 20.393 14.8085 20.6152C14.4901 20.8374 14.0584 20.7784 13.8105 20.4902L13.7636 20.4287L13.4833 20.0098C12.1213 17.8891 11.3955 15.4209 11.3984 12.8965V11.1221ZM8.49212 13.9287C8.87772 13.8834 9.2291 14.1387 9.31145 14.5098L9.32415 14.5859L9.41692 15.2461C9.63079 16.5617 10.017 17.8439 10.5663 19.0596L10.8544 19.6611L10.8857 19.7314C11.0223 20.0862 10.8707 20.4935 10.5243 20.6689C10.1779 20.8442 9.75964 20.7253 9.55462 20.4053L9.51653 20.3389L9.35442 20.0098C8.61545 18.4658 8.11897 16.818 7.88177 15.124L7.83489 14.7607L7.83001 14.6846C7.82374 14.3043 8.10631 13.9741 8.49212 13.9287ZM12.1435 3.25C13.4425 3.24919 14.7204 3.56768 15.8642 4.17578L16.0908 4.30078L16.1552 4.34277C16.4641 4.56444 16.5606 4.98842 16.3671 5.3252C16.1736 5.66176 15.759 5.79181 15.412 5.63672L15.3437 5.60156L14.9726 5.40527C14.0946 4.97485 13.1273 4.7494 12.1445 4.75C11.021 4.75076 9.91699 5.04642 8.94524 5.60645C7.97383 6.16638 7.16819 6.97081 6.60931 7.93848C6.05035 8.90641 5.75761 10.0043 5.76067 11.1201V12.0352C5.69746 13.9288 5.92238 15.8202 6.42766 17.6455L6.53216 18.0098L6.55071 18.084C6.62232 18.4574 6.40041 18.8322 6.02825 18.9434C5.65637 19.0543 5.26615 18.8628 5.12102 18.5117L5.09466 18.4395L4.98235 18.0459C4.43868 16.0821 4.19515 14.0473 4.26067 12.0098V11.1221C4.25722 9.74178 4.61961 8.38484 5.31048 7.18848C6.00156 5.99187 6.99693 4.99789 8.19622 4.30664C9.39575 3.61534 10.7578 3.25094 12.1435 3.25ZM14.9677 12.0098V11.1221C14.9677 10.3805 14.6715 9.66817 14.1435 9.14258C13.6812 8.68258 13.0738 8.39786 12.4277 8.33399L12.1484 8.32031C11.3996 8.32035 10.6825 8.61689 10.1542 9.14258C9.626 9.6682 9.33001 10.3803 9.33001 11.1221C9.32992 11.5361 8.994 11.8719 8.58001 11.8721C8.16585 11.8721 7.8301 11.5362 7.83001 11.1221C7.83001 9.98017 8.28536 8.88544 9.09563 8.0791C9.90582 7.2729 11.0042 6.82035 12.1484 6.82031L12.3622 6.82617C13.4287 6.87877 14.4415 7.32322 15.2011 8.0791C16.0114 8.88546 16.4677 9.98011 16.4677 11.1221V12.0098C16.4677 13.6577 16.9705 15.2645 17.9072 16.6182L18.1005 16.8848L18.1435 16.9492C18.3403 17.2743 18.2631 17.7019 17.9531 17.9355C17.6429 18.1692 17.2103 18.1257 16.9521 17.8467L16.9033 17.7881L16.6738 17.4717C15.5641 15.8681 14.9677 13.9637 14.9677 12.0098ZM17.9159 6.92871C18.248 6.72765 18.6745 6.81478 18.9033 7.11817L18.9462 7.18262L19.1074 7.46094C19.8749 8.85458 20.199 10.4495 20.0361 12.0352V12.8984C20.0352 13.7008 20.2468 14.4897 20.6493 15.1855C20.8565 15.5439 20.7341 16.0025 20.3759 16.21C20.0174 16.4174 19.5579 16.2951 19.3505 15.9365C18.8158 15.0122 18.5349 13.9635 18.5361 12.8965V12.0098L18.5409 11.9277L18.5634 11.668C18.6464 10.4578 18.3799 9.24876 17.7939 8.18457L17.663 7.95899L17.6269 7.8916C17.4638 7.5482 17.5838 7.12988 17.9159 6.92871Z"/></svg>