<svg width="24" height="24" viewBox="0 0 24 24" xmlns="http://www.w3.org/2000/svg" fill="#cacaca"><path d="M12.5312 4.28125C14.8438 6.42708 16.5417 8.98958 17.625 11.9688L17.6562 12.0312C17.8854 12.6771 18 13.3542 18 14.0625C17.9583 15.7292 17.3646 17.125 16.2188 18.25C15.0938 19.375 13.6875 19.9583 12 20C10.3125 19.9583 8.90625 19.375 7.78125 18.25C6.63542 17.125 6.04167 15.7292 6 14.0625C6 13.3542 6.125 12.6771 6.375 12.0312V11.9688L7.78125 12.4688V12.5312C7.59375 13.0312 7.5 13.5417 7.5 14.0625C7.54167 15.3125 7.97917 16.3542 8.8125 17.1875C9.66667 18.0208 10.7292 18.4583 12 18.5C13.2708 18.4583 14.3333 18.0208 15.1875 17.1875C16.0208 16.3542 16.4583 15.3125 16.5 14.0625C16.5 13.5417 16.4062 13.0312 16.2188 12.5312V12.4688C15.2812 9.94792 13.875 7.73958 12 5.84375C10.125 7.73958 8.71875 9.94792 7.78125 12.4688L6.375 11.9688C7.45833 8.98958 9.15625 6.42708 11.4688 4.28125L11.5625 4.1875C11.6875 4.0625 11.8333 4 12 4C12.1667 4 12.3125 4.0625 12.4375 4.1875L12.5312 4.28125ZM14.8125 13.0625C14.9375 13.3542 15 13.6562 15 13.9688C14.9792 14.8229 14.6875 15.5417 14.125 16.125C13.5625 16.6875 12.8542 16.9792 12 17C11.1458 16.9792 10.4375 16.6875 9.875 16.125C9.3125 15.5417 9.02083 14.8229 9 13.9688C9 13.6562 9.0625 13.3542 9.1875 13.0625L9.25 12.9375C9.75 11.8125 10.4271 10.8229 11.2812 9.96875L11.5625 9.6875C11.6875 9.5625 11.8333 9.5 12 9.5C12.1667 9.5 12.3021 9.5625 12.4062 9.6875L12.6875 9.96875C13.5625 10.8229 14.25 11.8125 14.75 12.9375L14.8125 13.0625Z"/></svg>