<svg width="24" height="24" viewBox="0 0 24 24" xmlns="http://www.w3.org/2000/svg" fill="#cacaca"><path d="M7.14844 9.53906L7.78125 8.90625C7.94531 8.76562 8.13281 8.67188 8.34375 8.625C8.39062 8.625 8.4375 8.625 8.48438 8.625C8.76562 8.625 9 8.71875 9.1875 8.90625C9.375 9.09375 9.46875 9.32812 9.46875 9.60938V13.125C9.46875 13.5234 9.60938 13.8516 9.89062 14.1094C10.1484 14.3906 10.4766 14.5312 10.875 14.5312C11.2734 14.5312 11.6016 14.3906 11.8594 14.1094C12.1406 13.8516 12.2812 13.5234 12.2812 13.125V12.6328C12.2812 12.2109 12.1523 11.8359 11.8945 11.5078L11.1562 10.4883L10.7695 9.99609C10.6758 9.87891 10.5938 9.75 10.5234 9.60938C10.1016 8.90625 9.89062 8.14453 9.89062 7.32422C9.89062 7.18359 9.89062 7.05469 9.89062 6.9375L9.92578 6.55078C9.99609 5.68359 10.2891 4.91016 10.8047 4.23047L11.1562 3.73828L11.5078 3.31641C11.6484 3.10547 11.8477 3 12.1055 3C12.5508 3.04688 12.7969 3.29297 12.8438 3.73828V4.75781C12.8438 5.08594 12.9609 5.36719 13.1953 5.60156L16.1133 8.37891C16.957 9.17578 17.6016 10.1016 18.0469 11.1562C18.5156 12.2109 18.75 13.3242 18.75 14.4961C18.7031 16.3477 18.0703 17.8828 16.8516 19.1016C15.6328 20.3203 14.0977 20.9531 12.2461 21H11.7188C9.89062 20.9531 8.36719 20.3203 7.14844 19.1016C5.92969 17.8828 5.29688 16.3594 5.25 14.5312V14.1094C5.27344 12.3281 5.90625 10.8047 7.14844 9.53906ZM7.78125 11.4023C7.21875 12.2227 6.9375 13.125 6.9375 14.1094V14.5312C6.96094 15.8906 7.42969 17.0156 8.34375 17.9062C9.23438 18.8203 10.3594 19.2891 11.7188 19.3125H12.2461C13.6055 19.2891 14.7422 18.8203 15.6562 17.9062C16.5703 16.9922 17.0391 15.8555 17.0625 14.4961C17.0391 12.5742 16.3359 10.9336 14.9531 9.57422L12.0352 6.79688C11.8945 6.65625 11.7656 6.51562 11.6484 6.375C11.625 6.46875 11.6133 6.57422 11.6133 6.69141L11.5781 7.07812C11.5312 7.78125 11.7188 8.41406 12.1406 8.97656L13.2656 10.4883C13.7344 11.1211 13.9688 11.8359 13.9688 12.6328V13.125C13.9453 13.9922 13.6406 14.7188 13.0547 15.3047C12.4688 15.8906 11.7422 16.1953 10.875 16.2188C10.0078 16.1953 9.28125 15.8906 8.69531 15.3047C8.10938 14.7188 7.80469 13.9922 7.78125 13.125V11.4023Z"/></svg>