<svg width="24" height="24" viewBox="0 0 24 24" xmlns="http://www.w3.org/2000/svg" fill="#cacaca"><path d="M7.25391 8.48438C6.33984 10.0781 5.85938 11.5664 5.8125 12.9492C5.85938 14.8008 6.45703 16.3125 7.60547 17.4844C8.75391 18.6562 10.2188 19.2656 12 19.3125C13.7578 19.2656 15.2109 18.6562 16.3594 17.4844C17.5312 16.3125 18.1406 14.8008 18.1875 12.9492C18.1641 11.8477 17.8242 10.5938 17.168 9.1875C16.5586 7.89844 15.8906 6.86719 15.1641 6.09375C15.0234 6.25781 14.8594 6.48047 14.6719 6.76172C14.625 6.80859 14.5898 6.85547 14.5664 6.90234C14.4961 6.99609 14.4375 7.07812 14.3906 7.14844C14.3438 7.21875 14.3086 7.27734 14.2852 7.32422C14.1445 7.48828 14.0391 7.64062 13.9688 7.78125C13.7812 7.99219 13.5586 8.09766 13.3008 8.09766C13.0195 8.09766 12.7969 7.99219 12.6328 7.78125C12.5625 7.71094 12.4922 7.62891 12.4219 7.53516C12.3516 7.46484 12.293 7.38281 12.2461 7.28906C12.2227 7.26562 12.1992 7.24219 12.1758 7.21875C11.8477 6.77344 11.4961 6.33984 11.1211 5.91797C10.7695 5.47266 10.4414 5.08594 10.1367 4.75781C9.10547 5.74219 8.14453 6.98438 7.25391 8.48438ZM11.1562 3.42188C11.4844 3.72656 11.8242 4.10156 12.1758 4.54688C12.5508 4.99219 12.9023 5.42578 13.2305 5.84766L13.2656 5.77734C13.5469 5.37891 13.8398 5.02734 14.1445 4.72266C14.4492 4.44141 14.7891 4.30078 15.1641 4.30078C15.5391 4.30078 15.8789 4.44141 16.1836 4.72266C16.6523 5.19141 17.1094 5.75391 17.5547 6.41016C17.9766 7.06641 18.3633 7.75781 18.7148 8.48438C19.0664 9.21094 19.3477 9.96094 19.5586 10.7344C19.7695 11.5078 19.875 12.2461 19.875 12.9492C19.8281 15.2461 19.0664 17.1445 17.5898 18.6445C16.1133 20.168 14.25 20.9531 12 21C9.72656 20.9531 7.86328 20.168 6.41016 18.6445C4.93359 17.1445 4.17188 15.2461 4.125 12.9492C4.125 12.0586 4.28906 11.168 4.61719 10.2773C4.92188 9.36328 5.32031 8.49609 5.8125 7.67578C6.28125 6.83203 6.80859 6.04688 7.39453 5.32031C7.95703 4.57031 8.53125 3.9375 9.11719 3.42188C9.42188 3.14062 9.76172 3 10.1367 3C10.5117 3 10.8516 3.14062 11.1562 3.42188ZM12.0703 17.625C10.9219 17.625 9.97266 17.2852 9.22266 16.6055C8.47266 15.9492 8.08594 15.0117 8.0625 13.793C8.0625 13.2773 8.21484 12.75 8.51953 12.2109C8.80078 11.6719 9.24609 11.0273 9.85547 10.2773C10.1367 10.0195 10.418 10.0312 10.6992 10.3125C11.0273 10.7109 11.4023 11.1797 11.8242 11.7188C12.2461 12.2578 12.6094 12.7148 12.9141 13.0898C13.1953 13.3711 13.4883 13.3828 13.793 13.125L14.6719 12.1055C14.9766 11.8242 15.2461 11.8477 15.4805 12.1758C15.9023 13.0195 16.0312 13.875 15.8672 14.7422C15.6797 15.6328 15.2227 16.3477 14.4961 16.8867C13.7461 17.3789 12.9375 17.625 12.0703 17.625Z"/></svg>