<svg width="24" height="24" viewBox="0 0 24 24" xmlns="http://www.w3.org/2000/svg" fill="#cacaca"><path d="M4.92857 5.57143V18.4286C4.95536 18.8304 5.16964 19.0446 5.57143 19.0714H18.4286C18.8304 19.0446 19.0446 18.8304 19.0714 18.4286V8.58482C19.0714 8.39732 19.0045 8.23661 18.8705 8.10268L20.2366 6.73661C20.7455 7.24554 21 7.86161 21 8.58482V18.4286C20.9732 19.1518 20.7188 19.7545 20.2366 20.2366C19.7545 20.7188 19.1518 20.9732 18.4286 21H5.57143C4.84821 20.9732 4.24554 20.7188 3.76339 20.2366C3.28125 19.7545 3.02679 19.1518 3 18.4286V5.57143C3.02679 4.84821 3.28125 4.24554 3.76339 3.76339C4.24554 3.28125 4.84821 3.02679 5.57143 3H15.4554C16.1518 3 16.7545 3.25446 17.2634 3.76339L20.2366 6.73661L18.8705 8.10268L15.8973 5.12946C15.8705 5.10268 15.8571 5.08929 15.8571 5.08929V9.10714C15.8036 9.69643 15.4821 10.0179 14.8929 10.0714H7.17857C6.58929 10.0179 6.26786 9.69643 6.21429 9.10714V4.92857H5.57143C5.16964 4.95536 4.95536 5.16964 4.92857 5.57143ZM8.14286 4.92857V8.14286H13.9286V4.92857H8.14286ZM9.42857 14.5714C9.45536 13.6071 9.88393 12.8705 10.7143 12.3616C11.5714 11.8795 12.4286 11.8795 13.2857 12.3616C14.1161 12.8705 14.5446 13.6071 14.5714 14.5714C14.5446 15.5357 14.1161 16.2723 13.2857 16.7812C12.4286 17.2634 11.5714 17.2634 10.7143 16.7812C9.88393 16.2723 9.45536 15.5357 9.42857 14.5714Z"/></svg>