<svg width="24" height="24" viewBox="0 0 24 24" xmlns="http://www.w3.org/2000/svg" fill="#cacaca"><path d="M3 6.375C3.02344 5.74219 3.24609 5.21484 3.66797 4.79297C4.08984 4.37109 4.61719 4.14844 5.25 4.125H9.89062C10.5938 4.125 11.1914 4.37109 11.6836 4.86328L13.1953 6.375H18.75C19.3828 6.39844 19.9102 6.62109 20.332 7.04297C20.7539 7.46484 20.9766 7.99219 21 8.625V17.625C20.9766 18.2578 20.7539 18.7852 20.332 19.207C19.9102 19.6289 19.3828 19.8516 18.75 19.875H5.25C4.61719 19.8516 4.08984 19.6289 3.66797 19.207C3.24609 18.7852 3.02344 18.2578 3 17.625V6.375ZM5.25 5.8125C4.89844 5.83594 4.71094 6.02344 4.6875 6.375V17.625C4.71094 17.9766 4.89844 18.1641 5.25 18.1875H18.75C19.1016 18.1641 19.2891 17.9766 19.3125 17.625V8.625C19.2891 8.27344 19.1016 8.08594 18.75 8.0625H13.0898C12.6914 8.0625 12.3516 7.92188 12.0703 7.64062L10.4883 6.05859C10.3242 5.89453 10.125 5.8125 9.89062 5.8125H5.25Z"/></svg>