<svg width="24" height="24" viewBox="0 0 24 24" xmlns="http://www.w3.org/2000/svg" fill="#cacaca"><path d="M8.18756 5.5L8.21881 5.46875L12.9688 17.9688C13.073 18.4271 12.9271 18.75 12.5313 18.9375C12.073 19.0625 11.7501 18.9271 11.5626 18.5312L10.4063 15.5H4.59381L3.46881 18.5312C3.26047 18.9271 2.93756 19.0729 2.50006 18.9688C2.08339 18.7604 1.93756 18.4375 2.06256 18L6.81256 5.5C6.93756 5.1875 7.16672 5.02083 7.50006 5C7.83339 5.02083 8.06256 5.1875 8.18756 5.5ZM9.84381 14L7.50006 7.875L5.15631 14H9.84381ZM21.2501 9C21.7084 9.04167 21.9584 9.29167 22.0001 9.75V18.25C21.9584 18.7083 21.7084 18.9583 21.2501 19C20.7917 18.9583 20.5417 18.7083 20.5001 18.25V17.9688C19.7917 18.6354 18.9167 18.9792 17.8751 19C16.7709 18.9792 15.8542 18.6042 15.1251 17.875C14.3959 17.1458 14.0209 16.2292 14.0001 15.125V12.875C14.0209 11.7708 14.3959 10.8542 15.1251 10.125C15.8542 9.39583 16.7709 9.02083 17.8751 9C18.9167 9.02083 19.7917 9.36458 20.5001 10.0312V9.75C20.5417 9.29167 20.7917 9.04167 21.2501 9ZM15.5001 12.875V15.125C15.5209 15.7917 15.7501 16.3542 16.1876 16.8125C16.6459 17.25 17.2084 17.4792 17.8751 17.5C18.5417 17.4792 19.1042 17.25 19.5626 16.8125C20.0001 16.3542 20.2292 15.7917 20.2501 15.125V12.875C20.2292 12.2083 20.0001 11.6458 19.5626 11.1875C19.1042 10.75 18.5417 10.5208 17.8751 10.5C17.2084 10.5208 16.6459 10.75 16.1876 11.1875C15.7501 11.6458 15.5209 12.2083 15.5001 12.875Z"/></svg>