<svg width="24" height="24" viewBox="0 0 24 24" xmlns="http://www.w3.org/2000/svg" fill="#cacaca"><path d="M14.5 6.75C14.5417 6.29167 14.7917 6.04167 15.25 6C15.7083 6.04167 15.9583 6.29167 16 6.75V17.25C15.9583 17.7083 15.7083 17.9583 15.25 18C14.7917 17.9583 14.5417 17.7083 14.5 17.25V13.9688L8.96875 17.8438C8.80208 17.9479 8.625 18 8.4375 18C8.16667 18 7.94792 17.9062 7.78125 17.7188C7.59375 17.5521 7.5 17.3333 7.5 17.0625V6.9375C7.5 6.66667 7.59375 6.44792 7.78125 6.28125C7.94792 6.09375 8.16667 6 8.4375 6C8.64583 6 8.82292 6.05208 8.96875 6.15625L14.5 10.0312V6.75ZM14.5 12.125V11.875L9 8.03125V16L14.5 12.125Z"/></svg>