<svg width="24" height="24" viewBox="0 0 24 24" xmlns="http://www.w3.org/2000/svg" fill="#cacaca"><path d="M20.75 18.125C20.7016 18.6597 20.4113 18.9514 19.879 19C19.3468 18.9514 19.0565 18.6597 19.0081 18.125V13.1667L12.6573 18.7448C12.4637 18.9149 12.2339 19 11.9677 19C11.6532 19 11.3992 18.8906 11.2056 18.6719C10.9879 18.4774 10.879 18.2222 10.879 17.9062V13.1667L4.52823 18.7448C4.33468 18.9149 4.10484 19 3.83871 19C3.52419 19 3.27016 18.8906 3.07661 18.6719C2.85887 18.4774 2.75 18.2222 2.75 17.9062V6.09375C2.75 5.77778 2.85887 5.52257 3.07661 5.32812C3.27016 5.10938 3.52419 5 3.83871 5C4.10484 5 4.33468 5.08507 4.52823 5.25521L10.879 10.8333V6.09375C10.879 5.77778 10.9879 5.52257 11.2056 5.32812C11.3992 5.10938 11.6532 5 11.9677 5C12.2339 5 12.4637 5.08507 12.6573 5.25521L19.0081 10.8333V5.875C19.0565 5.34028 19.3468 5.04861 19.879 5C20.4113 5.04861 20.7016 5.34028 20.75 5.875V18.125ZM4.49194 7.55208V16.4479L9.57258 12L4.49194 7.55208ZM12.621 16.4479L17.7016 12L12.621 7.55208V16.4479Z"/></svg>