<svg width="24" height="24" viewBox="0 0 24 24" xmlns="http://www.w3.org/2000/svg" fill="#cacaca"><path d="M8.46429 3C9.05357 3.05357 9.375 3.375 9.42857 3.96429C9.375 4.55357 9.05357 4.875 8.46429 4.92857H4.92857V8.46429C4.875 9.05357 4.55357 9.375 3.96429 9.42857C3.375 9.375 3.05357 9.05357 3 8.46429V3.96429C3.05357 3.375 3.375 3.05357 3.96429 3H8.46429ZM3 15.5357C3.05357 14.9464 3.375 14.625 3.96429 14.5714C4.55357 14.625 4.875 14.9464 4.92857 15.5357V19.0714H8.46429C9.05357 19.125 9.375 19.4464 9.42857 20.0357C9.375 20.625 9.05357 20.9464 8.46429 21H3.96429C3.375 20.9464 3.05357 20.625 3 20.0357V15.5357ZM20.0357 3C20.625 3.05357 20.9464 3.375 21 3.96429V8.46429C20.9464 9.05357 20.625 9.375 20.0357 9.42857C19.4464 9.375 19.125 9.05357 19.0714 8.46429V4.92857H15.5357C14.9464 4.875 14.625 4.55357 14.5714 3.96429C14.625 3.375 14.9464 3.05357 15.5357 3H20.0357ZM19.0714 15.5357C19.125 14.9464 19.4464 14.625 20.0357 14.5714C20.625 14.625 20.9464 14.9464 21 15.5357V20.0357C20.9464 20.625 20.625 20.9464 20.0357 21H15.5357C14.9464 20.9464 14.625 20.625 14.5714 20.0357C14.625 19.4464 14.9464 19.125 15.5357 19.0714H19.0714V15.5357Z"/></svg>