<svg width="24" height="24" viewBox="0 0 24 24" xmlns="http://www.w3.org/2000/svg" fill="#cacaca"><path d="M12 4.6875C10.6641 4.6875 9.44531 5.01562 8.34375 5.67188C7.24219 6.30469 6.35156 7.19531 5.67188 8.34375C5.01562 9.49219 4.6875 10.7109 4.6875 12C4.6875 13.2891 5.01562 14.5078 5.67188 15.6562C6.35156 16.8047 7.24219 17.6953 8.34375 18.3281C9.44531 18.9844 10.6641 19.3125 12 19.3125C13.3359 19.3125 14.5547 18.9844 15.6562 18.3281C16.7578 17.6953 17.6484 16.8047 18.3281 15.6562C18.9844 14.5078 19.3125 13.2891 19.3125 12C19.3125 10.7109 18.9844 9.49219 18.3281 8.34375C17.6484 7.19531 16.7578 6.30469 15.6562 5.67188C14.5547 5.01562 13.3359 4.6875 12 4.6875ZM12 21C10.3594 20.9766 8.85938 20.5781 7.5 19.8047C6.14062 19.0078 5.03906 17.9062 4.19531 16.5C3.39844 15.0703 3 13.5703 3 12C3 10.4297 3.39844 8.92969 4.19531 7.5C5.03906 6.09375 6.14062 4.99219 7.5 4.19531C8.85938 3.42188 10.3594 3.02344 12 3C13.6406 3.02344 15.1406 3.42188 16.5 4.19531C17.8594 4.99219 18.9609 6.09375 19.8047 7.5C20.6016 8.92969 21 10.4297 21 12C21 13.5703 20.6016 15.0703 19.8047 16.5C18.9609 17.9062 17.8594 19.0078 16.5 19.8047C15.1406 20.5781 13.6406 20.9766 12 21ZM13.125 6.9375C13.125 7.26562 13.0195 7.53516 12.8086 7.74609C12.5977 7.95703 12.3281 8.0625 12 8.0625C11.6719 8.0625 11.4023 7.95703 11.1914 7.74609C10.9805 7.53516 10.875 7.26562 10.875 6.9375C10.875 6.60938 10.9805 6.33984 11.1914 6.12891C11.4023 5.91797 11.6719 5.8125 12 5.8125C12.3281 5.8125 12.5977 5.91797 12.8086 6.12891C13.0195 6.33984 13.125 6.60938 13.125 6.9375ZM12 17.3438C11.4375 17.3203 10.9688 17.1328 10.5938 16.7812C10.2422 16.4062 10.0547 15.9375 10.0312 15.375C10.0547 14.8359 10.2422 14.3789 10.5938 14.0039C10.9453 13.6289 11.3906 13.4297 11.9297 13.4062L14.3203 7.99219C14.5781 7.54688 14.9531 7.40625 15.4453 7.57031C15.8906 7.82812 16.0312 8.20312 15.8672 8.69531L13.4766 14.0742C13.8047 14.4492 13.9688 14.8828 13.9688 15.375C13.9453 15.9375 13.7578 16.4062 13.4062 16.7812C13.0312 17.1328 12.5625 17.3203 12 17.3438ZM9.75 8.625C9.75 8.95312 9.64453 9.22266 9.43359 9.43359C9.22266 9.64453 8.95312 9.75 8.625 9.75C8.29688 9.75 8.02734 9.64453 7.81641 9.43359C7.60547 9.22266 7.5 8.95312 7.5 8.625C7.5 8.29688 7.60547 8.02734 7.81641 7.81641C8.02734 7.60547 8.29688 7.5 8.625 7.5C8.95312 7.5 9.22266 7.60547 9.43359 7.81641C9.64453 8.02734 9.75 8.29688 9.75 8.625ZM6.9375 13.125C6.60938 13.125 6.33984 13.0195 6.12891 12.8086C5.91797 12.5977 5.8125 12.3281 5.8125 12C5.8125 11.6719 5.91797 11.4023 6.12891 11.1914C6.33984 10.9805 6.60938 10.875 6.9375 10.875C7.26562 10.875 7.53516 10.9805 7.74609 11.1914C7.95703 11.4023 8.0625 11.6719 8.0625 12C8.0625 12.3281 7.95703 12.5977 7.74609 12.8086C7.53516 13.0195 7.26562 13.125 6.9375 13.125ZM18.1875 12C18.1875 12.3281 18.082 12.5977 17.8711 12.8086C17.6602 13.0195 17.3906 13.125 17.0625 13.125C16.7344 13.125 16.4648 13.0195 16.2539 12.8086C16.043 12.5977 15.9375 12.3281 15.9375 12C15.9375 11.6719 16.043 11.4023 16.2539 11.1914C16.4648 10.9805 16.7344 10.875 17.0625 10.875C17.3906 10.875 17.6602 10.9805 17.8711 11.1914C18.082 11.4023 18.1875 11.6719 18.1875 12Z"/></svg>