<svg width="24" height="24" viewBox="0 0 24 24" xmlns="http://www.w3.org/2000/svg" fill="#cacaca"><path d="M12.5 3C13.101 3 13.6789 3.05859 14.2337 3.17578C14.3724 3.19922 14.5457 3.25781 14.7538 3.35156C14.9387 3.46875 15.1005 3.64453 15.2392 3.87891C15.3086 3.99609 15.3664 4.13672 15.4126 4.30078L15.7247 5.63672C15.7709 5.75391 15.8518 5.84766 15.9674 5.91797C16.0829 5.98828 16.1985 6.01172 16.3141 5.98828L17.6317 5.60156C17.7704 5.55469 17.9091 5.53125 18.0478 5.53125C18.3252 5.53125 18.5563 5.58984 18.7413 5.70703C18.9493 5.82422 19.0996 5.94141 19.192 6.05859C19.9548 6.94922 20.5212 7.96875 20.891 9.11719C20.9604 9.25781 20.995 9.43359 20.995 9.64453C21.0182 9.87891 20.9604 10.1133 20.8217 10.3477C20.7292 10.4648 20.6368 10.582 20.5443 10.6992L19.5388 11.6484C19.4694 11.7422 19.4347 11.8594 19.4347 12C19.4347 12.1406 19.4694 12.2578 19.5388 12.3516L20.5443 13.3008C20.6368 13.418 20.7292 13.5352 20.8217 13.6523C20.9373 13.9102 20.995 14.1445 20.995 14.3555C20.995 14.5898 20.9604 14.7656 20.891 14.8828C20.5212 16.0312 19.9548 17.0508 19.192 17.9414C19.0996 18.0586 18.9493 18.1758 18.7413 18.293C18.5563 18.4102 18.3252 18.4688 18.0478 18.4688C17.9091 18.4688 17.7704 18.4453 17.6317 18.3984L16.3141 18.0117C16.1985 17.9883 16.0829 18.0117 15.9674 18.082C15.8518 18.1523 15.7709 18.2461 15.7247 18.3633L15.4126 19.6992C15.3664 19.8633 15.3086 20.0039 15.2392 20.1211C15.1005 20.3555 14.9387 20.5312 14.7538 20.6484C14.5457 20.7422 14.3724 20.8008 14.2337 20.8242C13.6789 20.9414 13.101 21 12.5 21C11.899 21 11.3211 20.9414 10.7663 20.8242C10.6276 20.8008 10.4543 20.7422 10.2462 20.6484C10.0613 20.5312 9.89948 20.3555 9.76078 20.1211C9.69143 20.0039 9.63364 19.8633 9.58741 19.6992L9.27535 18.3633C9.22912 18.2461 9.14821 18.1523 9.03263 18.082C8.91706 18.0117 8.80148 17.9883 8.6859 18.0117L7.3683 18.3984C7.2296 18.4453 7.09091 18.4688 6.95221 18.4688C6.67483 18.4688 6.44367 18.4102 6.25874 18.293C6.0507 18.1758 5.912 18.0586 5.84266 17.9414C5.05672 17.0508 4.47883 16.0312 4.10897 14.8828C4.03963 14.7422 4.00495 14.5664 4.00495 14.3555C3.98184 14.1211 4.03963 13.8867 4.17832 13.6523C4.27078 13.5352 4.36325 13.418 4.45571 13.3008L5.46125 12.3516C5.53059 12.2578 5.56527 12.1406 5.56527 12C5.56527 11.8594 5.53059 11.7422 5.46125 11.6484L4.45571 10.6992C4.36325 10.582 4.27078 10.4648 4.17832 10.3477C4.03963 10.0898 3.98184 9.85547 4.00495 9.64453C4.00495 9.41016 4.03963 9.23438 4.10897 9.11719C4.47883 7.99219 5.05672 6.97266 5.84266 6.05859C5.912 5.94141 6.0507 5.82422 6.25874 5.70703C6.44367 5.58984 6.67483 5.53125 6.95221 5.53125C7.09091 5.53125 7.2296 5.55469 7.3683 5.60156L8.6859 5.98828C8.80148 6.01172 8.91706 5.98828 9.03263 5.91797C9.14821 5.84766 9.22912 5.75391 9.27535 5.63672L9.58741 4.30078C9.63364 4.13672 9.69143 3.99609 9.76078 3.87891C9.89948 3.64453 10.0613 3.46875 10.2462 3.35156C10.4543 3.25781 10.6276 3.19922 10.7663 3.17578C11.3211 3.05859 11.899 3 12.5 3ZM11.1824 4.79297L10.905 6.05859C10.7432 6.62109 10.3965 7.05469 9.8648 7.35938C9.33314 7.66406 8.77836 7.74609 8.20047 7.60547L7.02156 7.25391C6.44367 7.93359 6.00447 8.70703 5.70396 9.57422L6.60548 10.4531C7.02156 10.875 7.2296 11.3906 7.2296 12C7.2296 12.6094 7.02156 13.1367 6.60548 13.582L5.70396 14.4258C6.00447 15.293 6.44367 16.0664 7.02156 16.7461L8.23514 16.3945C8.78992 16.2305 9.33314 16.3125 9.8648 16.6406C10.3965 16.9453 10.7432 17.3789 10.905 17.9414L11.1824 19.207C12.0608 19.3477 12.9392 19.3477 13.8176 19.207L14.1297 17.9414C14.2915 17.3789 14.6267 16.9453 15.1352 16.6406C15.6669 16.3359 16.2216 16.2539 16.7995 16.3945L17.9784 16.7461C18.5563 16.0664 18.9955 15.293 19.296 14.4258L18.3945 13.5469C17.9784 13.125 17.7704 12.6094 17.7704 12C17.7704 11.3906 17.9784 10.8633 18.3945 10.418L19.296 9.57422C18.9955 8.70703 18.5563 7.93359 17.9784 7.25391L16.7995 7.60547C16.2216 7.76953 15.6669 7.6875 15.1352 7.35938C14.6267 7.05469 14.2915 6.60938 14.1297 6.02344L13.8176 4.79297C12.9392 4.65234 12.0608 4.65234 11.1824 4.79297ZM13.7483 8.73047L12.6387 15.4805C12.5231 15.9023 12.2573 16.1016 11.8412 16.0781C11.4251 15.9609 11.2286 15.6914 11.2517 15.2695L12.3613 8.51953C12.4769 8.09766 12.7427 7.89844 13.1588 7.92188C13.5749 8.03906 13.7714 8.30859 13.7483 8.73047ZM10.4889 11.0859L9.58741 12L10.4889 12.9141C10.7663 13.2422 10.7663 13.5703 10.4889 13.8984C10.1653 14.1797 9.84169 14.1797 9.51807 13.8984L8.13112 12.4922C7.85373 12.1641 7.85373 11.8359 8.13112 11.5078L9.51807 10.1016C9.84169 9.82031 10.1653 9.82031 10.4889 10.1016C10.7663 10.4297 10.7663 10.7578 10.4889 11.0859ZM15.4819 10.1016L16.8689 11.5078C17.1463 11.8359 17.1463 12.1641 16.8689 12.4922L15.4819 13.8984C15.1583 14.1797 14.8347 14.1797 14.5111 13.8984C14.2337 13.5703 14.2337 13.2422 14.5111 12.9141L15.4126 12L14.5111 11.0859C14.2337 10.7578 14.2337 10.4297 14.5111 10.1016C14.8347 9.82031 15.1583 9.82031 15.4819 10.1016Z"/></svg>