<svg width="24" height="24" viewBox="0 0 24 24" xmlns="http://www.w3.org/2000/svg" fill="#cacaca"><path d="M7.14292 6.02489L6.97007 6.68749C6.91246 6.87954 6.78762 7.01398 6.59557 7.0908C6.30748 7.18683 6.04821 7.33087 5.81774 7.52293C5.66409 7.65737 5.49124 7.69578 5.29919 7.63816L4.6366 7.46531C4.48295 7.67657 4.35811 7.89744 4.26209 8.12791L4.75183 8.61765C4.88627 8.75209 4.93428 8.91533 4.89587 9.10739C4.87667 9.26103 4.86706 9.41468 4.86706 9.56832C4.86706 9.72197 4.87667 9.87561 4.89587 10.0293C4.93428 10.2213 4.88627 10.3846 4.75183 10.519L4.26209 11.0376C4.35811 11.2488 4.48295 11.4601 4.6366 11.6713L5.29919 11.4985C5.49124 11.4409 5.66409 11.4793 5.81774 11.6137C6.04821 11.8058 6.30748 11.9498 6.59557 12.0458C6.78762 12.1227 6.91246 12.2571 6.97007 12.4492L7.14292 13.1118C7.27736 13.131 7.4022 13.1406 7.51743 13.1406C7.65187 13.1406 7.77671 13.131 7.89194 13.1118L8.06479 12.4492C8.12241 12.2571 8.24725 12.1227 8.4393 12.0458C8.72739 11.9498 8.98666 11.8058 9.21713 11.6137C9.37077 11.4793 9.54362 11.4409 9.73568 11.4985L10.4271 11.6713C10.5615 11.4601 10.6768 11.2488 10.7728 11.0376L10.283 10.519C10.1486 10.3846 10.1006 10.2213 10.139 10.0293C10.1582 9.87561 10.1678 9.72197 10.1678 9.56832C10.1678 9.41468 10.1582 9.26103 10.139 9.10739C10.1006 8.91533 10.1486 8.75209 10.283 8.61765L10.7728 8.12791C10.6768 7.89744 10.5615 7.67657 10.4271 7.46531L9.73568 7.63816C9.54362 7.69578 9.37077 7.65737 9.21713 7.52293C8.98666 7.33087 8.72739 7.18683 8.4393 7.0908C8.24725 7.01398 8.12241 6.87954 8.06479 6.68749L7.89194 6.02489C7.77671 6.00569 7.65187 5.99609 7.51743 5.99609C7.38299 5.99609 7.25816 6.00569 7.14292 6.02489ZM6.56676 4.93018C6.87405 4.87256 7.19094 4.84375 7.51743 4.84375C7.84393 4.84375 8.16082 4.87256 8.46811 4.93018C8.67937 4.98779 8.82341 5.13183 8.90024 5.3623L9.10189 6.11132C9.31316 6.20735 9.51481 6.32258 9.70687 6.45702L10.4847 6.25536C10.696 6.21695 10.888 6.27457 11.0609 6.42821C11.4834 6.90835 11.8003 7.45571 12.0115 8.07029C12.0692 8.28155 12.0211 8.47361 11.8675 8.64646L11.3201 9.22262C11.3201 9.28024 11.3201 9.33786 11.3201 9.39547C11.3201 9.45309 11.3201 9.51071 11.3201 9.56832C11.3201 9.62594 11.3201 9.68356 11.3201 9.74117C11.3201 9.79879 11.3201 9.85641 11.3201 9.91403L11.8675 10.4902C12.0211 10.6438 12.0692 10.8359 12.0115 11.0664C11.8003 11.6809 11.4834 12.2283 11.0609 12.7084C10.9072 12.8621 10.7152 12.9197 10.4847 12.8813L9.70687 12.6796C9.51481 12.8141 9.31316 12.9293 9.10189 13.0253L8.90024 13.7743C8.82341 14.0048 8.67937 14.1489 8.46811 14.2065C8.16082 14.2641 7.84393 14.2929 7.51743 14.2929C7.19094 14.2929 6.87405 14.2641 6.56676 14.2065C6.3555 14.1489 6.21145 14.0048 6.13463 13.7743L5.93297 13.0253C5.72171 12.9293 5.52005 12.8141 5.328 12.6796L4.55017 12.8813C4.33891 12.9197 4.14685 12.8621 3.974 12.7084C3.55148 12.2283 3.23459 11.6809 3.02333 11.0664C2.96571 10.8551 3.01372 10.663 3.16737 10.4902L3.74354 9.91403C3.72433 9.85641 3.71473 9.79879 3.71473 9.74117C3.71473 9.68356 3.71473 9.62594 3.71473 9.56832C3.71473 9.51071 3.71473 9.45309 3.71473 9.39547C3.71473 9.33786 3.72433 9.28024 3.74354 9.22262L3.16737 8.64646C3.01372 8.47361 2.96571 8.28155 3.02333 8.07029C3.23459 7.45571 3.55148 6.90835 3.974 6.42821C4.12765 6.27457 4.3197 6.21695 4.55017 6.25536L5.328 6.45702C5.52005 6.32258 5.72171 6.20735 5.93297 6.11132L6.13463 5.3623C6.21145 5.13183 6.3555 4.98779 6.56676 4.93018ZM6.3651 9.56832C6.3843 9.1266 6.57636 8.7905 6.94127 8.56003C7.32538 8.36798 7.70949 8.36798 8.0936 8.56003C8.45851 8.7905 8.65056 9.1266 8.66977 9.56832C8.65056 10.0101 8.45851 10.3462 8.0936 10.5766C7.70949 10.7687 7.32538 10.7687 6.94127 10.5766C6.57636 10.3462 6.3843 10.0101 6.3651 9.56832ZM12.7318 15.0131L13.3943 15.186C13.5864 15.2436 13.7208 15.3684 13.7977 15.5605C13.8937 15.8486 14.0377 16.1078 14.2298 16.3383C14.3642 16.4919 14.4026 16.6648 14.345 16.8568L14.1722 17.5482C14.3834 17.6827 14.6043 17.7979 14.8348 17.8939L15.3245 17.4042C15.4589 17.2698 15.6222 17.2218 15.8142 17.2602C15.9679 17.2794 16.1215 17.289 16.2752 17.289C16.4288 17.289 16.5825 17.2794 16.7361 17.2602C16.9282 17.2218 17.0914 17.2698 17.2259 17.4042L17.7444 17.8939C17.9557 17.7979 18.1669 17.6827 18.3782 17.5482L18.2053 16.8568C18.1477 16.6648 18.1861 16.4919 18.3206 16.3383C18.5126 16.1078 18.6567 15.8486 18.7527 15.5605C18.8295 15.3684 18.964 15.2436 19.156 15.186L19.8186 15.0131C19.8378 14.8979 19.8474 14.773 19.8474 14.6386C19.8474 14.5042 19.8378 14.3793 19.8186 14.2641L19.156 14.0912C18.964 14.0336 18.8295 13.9088 18.7527 13.7167C18.6567 13.4286 18.5126 13.1694 18.3206 12.9389C18.1861 12.7853 18.1477 12.6124 18.2053 12.4204L18.3782 11.7578C18.1669 11.6041 17.9557 11.4793 17.7444 11.3833L17.2259 11.873C17.0914 12.0074 16.9282 12.0554 16.7361 12.017C16.5825 11.9978 16.4288 11.9882 16.2752 11.9882C16.1215 11.9882 15.9679 11.9978 15.8142 12.017C15.6222 12.0554 15.4589 12.0074 15.3245 11.873L14.8348 11.3833C14.6043 11.4793 14.3834 11.6041 14.1722 11.7578L14.345 12.4204C14.4026 12.6124 14.3642 12.7853 14.2298 12.9389C14.0377 13.1694 13.8937 13.4286 13.7977 13.7167C13.7208 13.9088 13.5864 14.0336 13.3943 14.0912L12.7318 14.2641C12.7125 14.3793 12.7029 14.5042 12.7029 14.6386C12.7029 14.773 12.7125 14.8979 12.7318 15.0131ZM11.637 15.5893C11.5794 15.282 11.5506 14.9651 11.5506 14.6386C11.5506 14.3121 11.5794 13.9952 11.637 13.6879C11.6946 13.4767 11.8387 13.3326 12.0692 13.2558L12.8182 13.0541C12.9142 12.8429 13.0294 12.6412 13.1639 12.4492L12.9622 11.6713C12.9238 11.4601 12.9814 11.268 13.1351 11.0952C13.6152 10.6726 14.1626 10.3558 14.7771 10.1445C14.9884 10.0869 15.1805 10.1349 15.3533 10.2885L15.9295 10.8647C15.9871 10.8455 16.0447 10.8359 16.1023 10.8359C16.1599 10.8359 16.2176 10.8359 16.2752 10.8359C16.3328 10.8359 16.3904 10.8359 16.448 10.8359C16.5056 10.8359 16.5633 10.8455 16.6209 10.8647L17.1971 10.2885C17.3507 10.1349 17.5428 10.0869 17.7732 10.1445C18.3878 10.3558 18.9352 10.6726 19.4153 11.0952C19.5689 11.2488 19.6266 11.4409 19.5881 11.6713L19.3865 12.4492C19.5209 12.6412 19.6362 12.8429 19.7322 13.0541L20.4812 13.2558C20.7117 13.3326 20.8557 13.4767 20.9133 13.6879C20.9709 13.9952 20.9998 14.3121 20.9998 14.6386C20.9998 14.9651 20.9709 15.282 20.9133 15.5893C20.8557 15.8005 20.7117 15.9446 20.4812 16.0214L19.7322 16.2231C19.6362 16.4343 19.5209 16.636 19.3865 16.828L19.5881 17.6059C19.6266 17.8171 19.5689 18.0092 19.4153 18.182C18.9352 18.5853 18.3878 18.8926 17.7732 19.1039C17.562 19.1807 17.3699 19.1423 17.1971 18.9887L16.6209 18.4413C16.5633 18.4413 16.5056 18.4413 16.448 18.4413C16.3904 18.4413 16.3328 18.4413 16.2752 18.4413C16.2176 18.4413 16.1599 18.4413 16.1023 18.4413C16.0447 18.4413 15.9871 18.4413 15.9295 18.4413L15.3533 18.9887C15.1997 19.1423 15.0076 19.1903 14.7771 19.1327C14.1626 18.9214 13.6152 18.6046 13.1351 18.182C12.9814 18.0284 12.9238 17.8363 12.9622 17.6059L13.1639 16.828C13.0294 16.636 12.9142 16.4343 12.8182 16.2231L12.0692 16.0214C11.8387 15.9446 11.6946 15.8005 11.637 15.5893ZM16.2752 15.7909C15.8335 15.7717 15.4974 15.5797 15.2669 15.2148C15.0748 14.8307 15.0748 14.4465 15.2669 14.0624C15.4974 13.6975 15.8335 13.5055 16.2752 13.4863C16.7169 13.5055 17.053 13.6975 17.2835 14.0624C17.4755 14.4465 17.4755 14.8307 17.2835 15.2148C17.053 15.5797 16.7169 15.7717 16.2752 15.7909Z"/></svg>