<svg width="24" height="24" viewBox="0 0 24 24" xmlns="http://www.w3.org/2000/svg" fill="#cacaca"><path fill-rule="evenodd" clip-rule="evenodd" d="M17.2148 3.00879C17.5596 3.0401 17.8938 3.14543 18.1953 3.31641C18.5343 3.50875 18.8218 3.7787 19.0381 4.10059L21.5557 7.75684L21.5615 7.76465L21.6699 7.94043C21.9054 8.35917 22.0184 8.83838 21.9971 9.31934C21.9962 9.33883 21.9935 9.35849 21.9922 9.37793C21.9965 9.41577 22 9.45416 22 9.49316C22 9.65874 21.958 9.81458 21.8867 9.95215C21.8107 10.2045 21.6985 10.4455 21.5479 10.6641L21.4238 10.8291L21.4199 10.833L13.8652 19.96C13.6511 20.2361 13.3793 20.4643 13.0664 20.625C12.7371 20.794 12.3723 20.8837 12.001 20.8838L11.999 20.8828H11.9971C11.6269 20.8823 11.2639 20.7935 10.9355 20.625C10.6225 20.4643 10.3509 20.2362 10.1367 19.96L2.58105 10.833L2.57715 10.8291C2.36354 10.568 2.20702 10.2682 2.11133 9.94922C2.04106 9.81242 2 9.65752 2 9.49316C2.00001 9.45284 2.00316 9.4131 2.00781 9.37402C2.00662 9.35588 2.00472 9.33753 2.00391 9.31934C1.97956 8.76954 2.13045 8.22236 2.43945 7.76465L2.44434 7.75684L4.96387 4.09961C5.18004 3.77832 5.46803 3.50846 5.80664 3.31641C6.15121 3.12109 6.53845 3.01145 6.93555 3H17.0664L17.2148 3.00879ZM12.0029 17.1719L14.6641 10.4932H9.36035L12.0029 17.1719ZM9.32715 15.8447L7.20996 10.4932H4.89648L9.32715 15.8447ZM16.8174 10.4932L14.6953 15.8184L19.1045 10.4932H16.8174ZM16.6982 8.49316H19.6348L17.3906 5.23438C17.3871 5.22932 17.3833 5.22387 17.3799 5.21875C17.3327 5.14749 17.273 5.09308 17.209 5.05664C17.1772 5.03859 17.1436 5.02406 17.1104 5.01465L17.0088 5H14.5518L16.6982 8.49316ZM6.89258 5.01465C6.85905 5.02401 6.82505 5.03849 6.79297 5.05664C6.761 5.07482 6.72994 5.09802 6.70117 5.125L6.62207 5.21875L6.61133 5.23535L4.36621 8.49316H7.33105L9.48535 5H6.99316L6.89258 5.01465ZM9.68164 8.49316H14.3516L12.2051 5H11.8359L9.68164 8.49316Z"/></svg>