<svg width="24" height="24" viewBox="0 0 24 24" xmlns="http://www.w3.org/2000/svg" fill="#cacaca"><path d="M17 6.5C17 6.10218 16.8419 5.72076 16.5605 5.43945C16.2792 5.15815 15.8978 5 15.5 5C14.8918 5 14.4796 5.20719 14.166 5.50586C13.8294 5.82655 13.5705 6.29107 13.3818 6.83008C13.2413 7.23151 13.1507 7.64125 13.0938 8H15.5C15.8978 8 16.2792 7.84185 16.5605 7.56055C16.8419 7.27924 17 6.89782 17 6.5ZM13 19H17V12H13V19ZM7 19H11V12H7V19ZM7.00781 6.64844C7.04195 6.99174 7.19337 7.31446 7.43945 7.56055C7.72076 7.84185 8.10218 8 8.5 8H10.9062C10.8493 7.64125 10.7587 7.23151 10.6182 6.83008C10.4295 6.29107 10.1706 5.82655 9.83398 5.50586C9.52038 5.20719 9.10823 5 8.5 5C8.10218 5 7.72076 5.15815 7.43945 5.43945C7.15815 5.72076 7 6.10218 7 6.5L7.00781 6.64844ZM19 6.5C19 7.02386 18.8824 7.53555 18.6621 8H20C20.5523 8 21 8.44772 21 9V11C21 11.5523 20.5523 12 20 12H19V20C19 20.5523 18.5523 21 18 21H6C5.44772 21 5 20.5523 5 20V12H4C3.44772 12 3 11.5523 3 11V9L3.00488 8.89746C3.05621 8.39333 3.48232 8 4 8H5.33789C5.14202 7.58707 5.02691 7.13682 5.00391 6.67383L5 6.5C5 5.57174 5.36901 4.68177 6.02539 4.02539C6.68177 3.36901 7.57174 3 8.5 3C9.64157 3 10.5422 3.418 11.2129 4.05664C11.532 4.36054 11.7903 4.70587 12 5.0625C12.2097 4.70587 12.468 4.36054 12.7871 4.05664C13.4578 3.418 14.3584 3 15.5 3C16.4283 3 17.3182 3.36901 17.9746 4.02539C18.631 4.68177 19 5.57174 19 6.5Z"/></svg>