<svg width="24" height="24" viewBox="0 0 24 24" xmlns="http://www.w3.org/2000/svg" fill="#cacaca"><path d="M8.28125 5L8.03125 5.71875L8.8125 5.15625C9.20833 4.90625 9.55208 4.95833 9.84375 5.3125C10.0938 5.70833 10.0417 6.05208 9.6875 6.34375L8.8125 7H9C9.6875 7.02083 10.2292 7.29167 10.625 7.8125C10.3958 8.02083 10.1979 8.25 10.0312 8.5H4C3.6875 8.52083 3.52083 8.6875 3.5 9V18C3.52083 18.3125 3.6875 18.4792 4 18.5H8V19C8 19.375 8.09375 19.7083 8.28125 20H4C3.4375 19.9792 2.96875 19.7812 2.59375 19.4062C2.21875 19.0312 2.02083 18.5625 2 18V9C2.02083 8.4375 2.21875 7.96875 2.59375 7.59375C2.96875 7.21875 3.4375 7.02083 4 7H4.1875L3.3125 6.34375C2.95833 6.05208 2.90625 5.70833 3.15625 5.3125C3.44792 4.95833 3.79167 4.90625 4.1875 5.15625L5.0625 5.78125L4.78125 5C4.67708 4.54167 4.83333 4.21875 5.25 4.03125C5.70833 3.92708 6.03125 4.08333 6.21875 4.5L6.53125 5.4375L6.84375 4.5C7.05208 4.08333 7.375 3.92708 7.8125 4.03125C8.22917 4.23958 8.38542 4.5625 8.28125 5ZM13.375 9.8125C13.2083 9.60417 13 9.5 12.75 9.5C12.2917 9.54167 12.0417 9.79167 12 10.25C12.0417 10.7083 12.2917 10.9583 12.75 11H14.2812L13.375 9.8125ZM10.5 10.25C10.5208 9.60417 10.7396 9.07292 11.1562 8.65625C11.5938 8.23958 12.125 8.02083 12.75 8C13.4792 8.02083 14.0833 8.3125 14.5625 8.875L15.5 10.125L16.4688 8.875C16.9271 8.3125 17.5208 8.02083 18.25 8C18.875 8.02083 19.4062 8.23958 19.8438 8.65625C20.2604 9.07292 20.4792 9.60417 20.5 10.25C20.5 10.5208 20.4583 10.7708 20.375 11H20.5C20.9167 11.0208 21.2708 11.1667 21.5625 11.4375C21.8333 11.7292 21.9792 12.0833 22 12.5V18.5C21.9792 18.9167 21.8333 19.2708 21.5625 19.5625C21.2708 19.8333 20.9167 19.9792 20.5 20H10.5C10.0833 19.9792 9.72917 19.8333 9.4375 19.5625C9.16667 19.2708 9.02083 18.9167 9 18.5V12.5C9.02083 12.0833 9.16667 11.7292 9.4375 11.4375C9.72917 11.1667 10.0833 11.0208 10.5 11H10.625C10.5417 10.7708 10.5 10.5208 10.5 10.25ZM10.5 12.5V14.75H14.75V12.5H10.5ZM10.5 16.25V18.5H14.75V16.25H10.5ZM20.5 16.25H16.25V18.5H20.5V16.25ZM16.25 14.75H20.5V12.5H16.25V14.75ZM19 10.25C18.9583 9.79167 18.7083 9.54167 18.25 9.5C18 9.5 17.8021 9.60417 17.6562 9.8125L16.7188 11H18.25C18.7083 10.9583 18.9583 10.7083 19 10.25Z"/></svg>