<svg width="24" height="24" viewBox="0 0 24 24" xmlns="http://www.w3.org/2000/svg" fill="#cacaca"><path d="M8.73047 3.10138V3.06623L16.043 6.72248C16.3477 6.88654 16.5 7.14435 16.5 7.49592C16.4766 7.82404 16.3242 8.07013 16.043 8.2342L9.1875 11.6795V12.7694C10.0781 12.6287 11.0156 12.5584 12 12.5584C14.3906 12.5819 16.418 12.9334 18.082 13.6131C18.9023 13.9412 19.582 14.3631 20.1211 14.8787C20.6602 15.3709 20.9531 16.0037 21 16.7772C20.9531 17.5506 20.6602 18.1951 20.1211 18.7108C19.582 19.2029 18.9023 19.6131 18.082 19.9412C16.418 20.6209 14.3906 20.9725 12 20.9959C9.60938 20.9725 7.58203 20.6209 5.91797 19.9412C5.09766 19.6131 4.41797 19.2029 3.87891 18.7108C3.33984 18.1951 3.04688 17.5506 3 16.7772C3.04688 16.0037 3.35156 15.3709 3.91406 14.8787C4.42969 14.3631 5.09766 13.9412 5.91797 13.6131C6.05859 13.5428 6.21094 13.4842 6.375 13.4373V15.2654C5.78906 15.5233 5.35547 15.7928 5.07422 16.074C4.79297 16.3787 4.66406 16.6131 4.6875 16.7772C4.66406 16.9412 4.79297 17.1756 5.07422 17.4803C5.37891 17.785 5.87109 18.0897 6.55078 18.3944C7.95703 18.9803 9.77344 19.285 12 19.3084C14.2266 19.285 16.043 18.9803 17.4492 18.3944C18.1289 18.0897 18.6211 17.785 18.9258 17.4803C19.207 17.1756 19.3359 16.9412 19.3125 16.7772C19.3359 16.6131 19.207 16.3787 18.9258 16.074C18.6211 15.7694 18.1289 15.4647 17.4492 15.16C16.043 14.574 14.2266 14.2694 12 14.2459C10.9922 14.2459 10.0547 14.3162 9.1875 14.4569V15.4764C9.53906 15.4061 9.91406 15.3709 10.3125 15.3709C11.1094 15.3709 11.7773 15.4998 12.3164 15.7576C12.832 15.992 13.1016 16.285 13.125 16.6365C13.1016 16.9881 12.832 17.2811 12.3164 17.5154C11.7773 17.7733 11.1094 17.9022 10.3125 17.9022C9.51562 17.9022 8.84766 17.7733 8.30859 17.5154C7.79297 17.2811 7.52344 16.9881 7.5 16.6365C7.5 16.6131 7.5 16.5897 7.5 16.5662C7.5 16.5428 7.5 16.5194 7.5 16.4959V3.83967C7.5 3.53498 7.62891 3.3006 7.88672 3.13654C8.16797 2.97248 8.44922 2.96076 8.73047 3.10138ZM9.1875 9.78107L13.7578 7.49592L9.1875 5.21076V9.78107Z"/></svg>