<svg width="24" height="24" viewBox="0 0 24 24" xmlns="http://www.w3.org/2000/svg" fill="#cacaca"><path d="M17.625 9.5C17.5729 7.91146 17.026 6.58333 15.9844 5.51562C14.9167 4.47396 13.5885 3.92708 12 3.875C10.4115 3.92708 9.08333 4.47396 8.01562 5.51562C6.97396 6.58333 6.42708 7.91146 6.375 9.5C6.40104 10.5938 6.6875 11.5833 7.23438 12.4688C7.78125 13.3542 8.51042 14.0312 9.42188 14.5H6.41406C5.1901 13.1198 4.55208 11.4531 4.5 9.5C4.55208 7.36458 5.28125 5.59375 6.6875 4.1875C8.09375 2.78125 9.86458 2.05208 12 2C14.1354 2.05208 15.9062 2.78125 17.3125 4.1875C18.7188 5.59375 19.4479 7.36458 19.5 9.5C19.4479 11.4531 18.8099 13.1198 17.5859 14.5H14.5781C15.4896 14.0312 16.2188 13.3542 16.7656 12.4688C17.3125 11.5833 17.599 10.5938 17.625 9.5ZM13.3281 11.7266C13.3802 11.4922 13.4844 11.4141 13.6406 11.4922C13.875 11.7266 13.9922 12.013 13.9922 12.3516C13.9661 12.7422 13.8359 13.0547 13.6016 13.2891C13.3672 13.5495 13.0547 13.6797 12.6641 13.6797C12.3255 13.6797 12.0391 13.5755 11.8047 13.3672C11.7005 13.1849 11.7786 13.0677 12.0391 13.0156C12.4036 13.0156 12.7031 12.8854 12.9375 12.625C13.1979 12.3906 13.3281 12.0911 13.3281 11.7266ZM11.2969 9.77344C11.6615 9.77344 11.9609 9.65625 12.1953 9.42188C12.4557 9.16146 12.5859 8.84896 12.5859 8.48438C12.638 8.25 12.7552 8.17188 12.9375 8.25C13.1458 8.51042 13.25 8.8099 13.25 9.14844C13.25 9.51302 13.1198 9.8125 12.8594 10.0469C12.625 10.3073 12.3255 10.4375 11.9609 10.4375C11.6224 10.4375 11.3229 10.3333 11.0625 10.125C10.9844 9.94271 11.0625 9.82552 11.2969 9.77344ZM15.7109 9.10938C15.763 8.875 15.8802 8.79688 16.0625 8.875C16.2708 9.13542 16.375 9.4349 16.375 9.77344C16.375 10.138 16.2448 10.4375 15.9844 10.6719C15.75 10.9323 15.4505 11.0625 15.0859 11.0625C14.7474 11.0625 14.4479 10.9583 14.1875 10.75C14.1094 10.5677 14.1875 10.4505 14.4219 10.3984C14.7865 10.3984 15.0859 10.2682 15.3203 10.0078C15.5807 9.77344 15.7109 9.47396 15.7109 9.10938ZM7 16.6875C7.05208 16.1146 7.36458 15.8021 7.9375 15.75H16.0625C16.6354 15.8021 16.9479 16.1146 17 16.6875C16.9479 17.2604 16.6354 17.5729 16.0625 17.625H13.5625C13.1719 17.651 12.9635 17.8594 12.9375 18.25V21.0625C12.8854 21.6354 12.5729 21.9479 12 22C11.4271 21.9479 11.1146 21.6354 11.0625 21.0625V18.25C11.0365 17.8594 10.8281 17.651 10.4375 17.625H7.9375C7.36458 17.5729 7.05208 17.2604 7 16.6875Z"/></svg>