<svg width="24" height="24" viewBox="0 0 24 24" xmlns="http://www.w3.org/2000/svg" fill="#cacaca"><path d="M20.5614 3.08663C20.9838 3.34471 21.1011 3.72011 20.9134 4.21281L13.2412 19.5923C12.7485 20.4838 11.986 20.9531 10.9537 21H4.97082C4.40773 20.9765 3.93849 20.7888 3.56309 20.4369C3.21116 20.0615 3.02346 19.5923 3 19.0292V15.1931C3.02346 14.5127 3.29328 13.9848 3.80945 13.6094C4.30215 13.234 4.87697 13.1402 5.53391 13.3279L13.3116 15.6506L19.4353 3.43856C19.6933 3.01624 20.0687 2.89893 20.5614 3.08663ZM12.5374 17.1991L5.04121 14.9468C4.83005 14.8998 4.71274 14.982 4.68928 15.1931V15.9322H5.81546C6.16739 15.9556 6.35509 16.1433 6.37855 16.4953C6.35509 16.8472 6.16739 17.0349 5.81546 17.0584H4.68928V17.6214H5.81546C6.16739 17.6449 6.35509 17.8326 6.37855 18.1845C6.35509 18.5365 6.16739 18.7242 5.81546 18.7476H4.68928V19.0292C4.71274 19.1934 4.80659 19.2873 4.97082 19.3107H10.9537C11.3056 19.3107 11.5637 19.1582 11.7279 18.8532L12.5374 17.1991Z"/></svg>