<svg width="24" height="24" viewBox="0 0 24 24" xmlns="http://www.w3.org/2000/svg" fill="#cacaca"><path d="M12 6.5C11.9167 6.5 11.8438 6.51042 11.7812 6.53125L4.96875 9L6.375 9.5C6.52083 9.4375 6.67708 9.375 6.84375 9.3125L11.8438 7.4375C12.1354 7.35417 12.3438 7.44792 12.4688 7.71875C12.5521 8.01042 12.4583 8.22917 12.1875 8.375L7.78125 10.0312L11.7812 11.4688C11.8438 11.4896 11.9167 11.5 12 11.5C12.0833 11.5 12.1562 11.4896 12.2188 11.4688L19.0312 9L12.2188 6.53125C12.1562 6.51042 12.0833 6.5 12 6.5ZM2.5 9.71875C2.1875 9.57292 2.02083 9.33333 2 9C2.02083 8.66667 2.1875 8.42708 2.5 8.28125L11.25 5.125C11.5 5.04167 11.75 5 12 5C12.25 5 12.5 5.04167 12.75 5.125L21.5 8.28125C21.8125 8.42708 21.9792 8.66667 22 9C21.9792 9.33333 21.8125 9.57292 21.5 9.71875L12.75 12.875C12.5 12.9583 12.25 13 12 13C11.75 13 11.5 12.9583 11.25 12.875L5.96875 10.9688C5.07292 11.7396 4.58333 12.7188 4.5 13.9062C4.6875 14.3229 4.83333 14.7604 4.9375 15.2188C5.1875 16.0938 5.20833 17.2188 5 18.5938C4.95833 18.7396 4.88542 18.8542 4.78125 18.9375C4.65625 19 4.52083 19.0208 4.375 19L2.375 18.5C2.20833 18.4375 2.09375 18.3229 2.03125 18.1562C1.96875 17.9896 1.98958 17.8333 2.09375 17.6875C2.36458 17.3125 2.60417 16.9271 2.8125 16.5312C3.20833 15.7604 3.4375 14.9167 3.5 14C3.5 13.9792 3.5 13.9583 3.5 13.9375C3.5625 12.625 4.03125 11.5104 4.90625 10.5938L2.5 9.71875ZM17.5312 12.2188L18 16.75C17.9583 17.3333 17.375 17.8438 16.25 18.2812C15.125 18.7396 13.7083 18.9792 12 19C10.2917 18.9792 8.875 18.7396 7.75 18.2812C6.625 17.8438 6.04167 17.3333 6 16.75L6.46875 12.2188L7.9375 12.75L7.53125 16.5C7.67708 16.6042 7.9375 16.7396 8.3125 16.9062C9.22917 17.2812 10.4583 17.4792 12 17.5C13.5417 17.4792 14.7708 17.2812 15.6875 16.9062C16.0625 16.7396 16.3229 16.6042 16.4688 16.5L16.0625 12.7188L17.5312 12.2188Z"/></svg>