<svg width="24" height="24" viewBox="0 0 24 24" xmlns="http://www.w3.org/2000/svg" fill="#cacaca"><path d="M5.5 16V18H4.5V16H5.5ZM12.5 16V18H11.5V16H12.5ZM19.5 16V18H18.5V16H19.5ZM19.5 15H18.5V18C17.3954 18 16.5 17.1046 16.5 16V15C16.5 13.8954 17.3954 13 18.5 13H19.5C20.6046 13 21.5 13.8954 21.5 15V16C21.5 17.1046 20.6046 18 19.5 18V15ZM12.5 15H11.5V18C10.3954 18 9.5 17.1046 9.5 16V15C9.5 13.8954 10.3954 13 11.5 13H12.5C13.6046 13 14.5 13.8954 14.5 15V16C14.5 17.1046 13.6046 18 12.5 18V15ZM5.5 15H4.5V18L4.2959 17.9893C3.28722 17.887 2.5 17.0357 2.5 16V15C2.5 13.8954 3.39543 13 4.5 13H5.5C6.60457 13 7.5 13.8954 7.5 15V16C7.5 17.1046 6.60457 18 5.5 18V15ZM5.5 9V11H4.5V9H5.5ZM12.5 9V11H11.5V9H12.5ZM19.5 9V11H18.5V9H19.5ZM19.5 8H18.5V11C17.3954 11 16.5 10.1046 16.5 9V8C16.5 6.89543 17.3954 6 18.5 6H19.5C20.6046 6 21.5 6.89543 21.5 8V9C21.5 10.1046 20.6046 11 19.5 11V8ZM12.5 8H11.5V11C10.3954 11 9.5 10.1046 9.5 9V8C9.5 6.89543 10.3954 6 11.5 6H12.5C13.6046 6 14.5 6.89543 14.5 8V9C14.5 10.1046 13.6046 11 12.5 11V8ZM5.5 8H4.5V11L4.2959 10.9893C3.28722 10.887 2.5 10.0357 2.5 9V8C2.5 6.89543 3.39543 6 4.5 6H5.5C6.60457 6 7.5 6.89543 7.5 8V9C7.5 10.1046 6.60457 11 5.5 11V8Z"/></svg>