<svg width="24" height="24" viewBox="0 0 24 24" xmlns="http://www.w3.org/2000/svg" fill="#cacaca"><path d="M7.275 4.79999H8.5125C9.2625 4.81874 9.87187 5.11874 10.3406 5.69999H11.55V5.47499C11.5875 5.06249 11.8125 4.83749 12.225 4.79999C12.6375 4.83749 12.8625 5.06249 12.9 5.47499V9.52499C12.8625 9.93749 12.6375 10.1625 12.225 10.2C11.8125 10.1625 11.5875 9.93749 11.55 9.52499V9.29999H10.3406C9.92812 9.82499 9.375 10.125 8.68125 10.2L9.1875 17.4C9.20625 17.9062 9.05625 18.3281 8.7375 18.6656C8.41875 19.0031 8.00625 19.1812 7.5 19.2C6.99375 19.1812 6.58125 19.0031 6.2625 18.6656C5.94375 18.3281 5.79375 17.9062 5.8125 17.4L6.31875 10.1156C5.90625 10.0031 5.55938 9.79686 5.27813 9.49686L3.98438 10.1437C3.75937 10.2375 3.53438 10.2187 3.30937 10.0875C3.10312 9.95624 3 9.76874 3 9.52499V9.07499C3.0375 7.85624 3.45937 6.85311 4.26562 6.06561C5.05312 5.25936 6.05625 4.83749 7.275 4.79999ZM11.55 7.94999V7.04999H9.975C9.7125 7.04999 9.51562 6.92811 9.38437 6.68436C9.19687 6.34686 8.90625 6.16874 8.5125 6.14999H7.275C6.5625 6.16874 5.95312 6.38436 5.44687 6.79686C4.94062 7.20936 4.60312 7.74374 4.43437 8.39999L5.16562 8.03436C5.55938 7.88436 5.85938 7.97811 6.06562 8.31561C6.25312 8.65311 6.54375 8.83124 6.9375 8.84999H8.5125C8.90625 8.83124 9.19687 8.65311 9.38437 8.31561C9.51562 8.09061 9.7125 7.96874 9.975 7.94999H11.55ZM19.65 17.85V13.8H14.25V17.85H15.6V16.5C15.6187 16.2187 15.7687 16.0687 16.05 16.05C16.3312 16.0687 16.4812 16.2187 16.5 16.5V17.85H19.65ZM13.7156 11.4656L15.6 10.2V6.14999C15.6187 5.77499 15.75 5.45624 15.9937 5.19374C16.2562 4.94999 16.575 4.81874 16.95 4.79999C17.325 4.81874 17.6437 4.94999 17.9062 5.19374C18.15 5.45624 18.2812 5.77499 18.3 6.14999V10.2L20.2125 11.4656C20.7188 11.8406 20.9812 12.3375 21 12.9562V17.85C20.9812 18.225 20.85 18.5437 20.6062 18.8062C20.3438 19.05 20.025 19.1812 19.65 19.2H14.25C13.875 19.1812 13.5562 19.05 13.2937 18.8062C13.05 18.5437 12.9187 18.225 12.9 17.85V12.9562C12.9187 12.3375 13.1906 11.8406 13.7156 11.4656ZM16.5 6.14999C16.5187 6.43124 16.6687 6.58124 16.95 6.59999C17.2312 6.58124 17.3812 6.43124 17.4 6.14999C17.3812 5.86874 17.2312 5.71874 16.95 5.69999C16.6687 5.71874 16.5187 5.86874 16.5 6.14999Z"/></svg>