<svg width="24" height="24" viewBox="0 0 24 24" xmlns="http://www.w3.org/2000/svg" fill="#cacaca"><path d="M8.125 8.28125C7.66667 7.78125 7.4375 7.21875 7.4375 6.59375C7.4375 5.94792 7.66667 5.38542 8.125 4.90625C8.60417 4.44792 9.15625 4.21875 9.78125 4.21875C10.4062 4.21875 10.9583 4.44792 11.4375 4.90625L12 5.46875L12.5625 4.90625C13.0417 4.44792 13.5938 4.21875 14.2188 4.21875C14.8438 4.21875 15.3958 4.44792 15.875 4.90625C16.3333 5.38542 16.5625 5.94792 16.5625 6.59375C16.5625 7.21875 16.3333 7.78125 15.875 8.28125L12.7188 11.5C12.5104 11.7083 12.2708 11.8125 12 11.8125C11.7292 11.8125 11.5 11.7083 11.3125 11.5L8.125 8.28125ZM8.84375 15C8.59375 15 8.36458 15.0729 8.15625 15.2188L5.65625 16.875C5.53125 16.9583 5.39583 17 5.25 17H3.75C3.29167 16.9583 3.04167 16.7083 3 16.25C3.04167 15.7917 3.29167 15.5417 3.75 15.5H5.03125L7.34375 13.9688C7.80208 13.6562 8.30208 13.5 8.84375 13.5H13.75C14.3125 13.5208 14.7812 13.7188 15.1562 14.0938C15.5312 14.4688 15.7292 14.9375 15.75 15.5C15.75 15.5208 15.75 15.5312 15.75 15.5312C15.75 15.5312 15.75 15.5417 15.75 15.5625L17.7812 14.3125C18.1146 14.1042 18.4792 14 18.875 14H19.125C19.6458 14.0208 20.0833 14.2083 20.4375 14.5625C20.7917 14.9167 20.9792 15.3542 21 15.875C20.9792 16.5625 20.6979 17.0938 20.1562 17.4688L17.1562 19.4062C16.5312 19.8021 15.8542 20 15.125 20H3.75C3.29167 19.9583 3.04167 19.7083 3 19.25C3.04167 18.7917 3.29167 18.5417 3.75 18.5H15.125C15.5625 18.5 15.9688 18.375 16.3438 18.125L19.3125 16.2188C19.4375 16.1354 19.5 16.0208 19.5 15.875C19.4792 15.6458 19.3542 15.5208 19.125 15.5H18.875C18.7708 15.5 18.6667 15.5312 18.5625 15.5938L15.6562 17.375C15.5312 17.4583 15.3958 17.5 15.25 17.5H11C10.5417 17.4583 10.2917 17.2083 10.25 16.75C10.2917 16.2917 10.5417 16.0417 11 16H13.75C14.0625 15.9792 14.2292 15.8125 14.25 15.5C14.2292 15.1875 14.0625 15.0208 13.75 15H8.84375Z"/></svg>