<svg width="24" height="24" viewBox="0 0 24 24" xmlns="http://www.w3.org/2000/svg" fill="#cacaca"><path d="M8.125 8.11881C7.66667 7.61188 7.4375 7.04158 7.4375 6.40792C7.4375 5.75314 7.66667 5.18284 8.125 4.69703C8.60417 4.23234 9.15625 4 9.78125 4C10.4062 4 10.9583 4.23234 11.4375 4.69703L12 5.26733L12.5625 4.69703C13.0417 4.23234 13.5938 4 14.2188 4C14.8438 4 15.3958 4.23234 15.875 4.69703C16.3333 5.18284 16.5625 5.75314 16.5625 6.40792C16.5625 7.04158 16.3333 7.61188 15.875 8.11881L12.7188 11.3822C12.5104 11.5934 12.2708 11.699 12 11.699C11.7292 11.699 11.5 11.5934 11.3125 11.3822L8.125 8.11881ZM6.5 8.08713V12.1743C6.89583 11.8363 7.36458 11.6568 7.90625 11.6356C8.51042 11.6356 9.02083 11.8469 9.4375 12.2693L11.375 14.2337C11.6042 14.466 11.8125 14.73 12 15.0257C12.1875 14.73 12.3958 14.466 12.625 14.2337L14.5625 12.2693C14.9792 11.8469 15.4896 11.6356 16.0938 11.6356C16.6354 11.6568 17.1042 11.8363 17.5 12.1743V8.08713C17.5208 7.43234 17.7396 6.89373 18.1562 6.47129C18.5729 6.04885 19.1042 5.82706 19.75 5.80594C20.3958 5.82706 20.9271 6.04885 21.3438 6.47129C21.7604 6.89373 21.9792 7.43234 22 8.08713V14.9307C21.9792 15.9868 21.6146 16.8845 20.9062 17.6238L18.7812 19.7782C18.4271 20.0739 18.0729 20.0739 17.7188 19.7782C17.4271 19.4191 17.4271 19.0601 17.7188 18.701L19.8438 16.5465C20.2812 16.103 20.5 15.5644 20.5 14.9307V8.08713C20.4583 7.62244 20.2083 7.36898 19.75 7.32673C19.2917 7.36898 19.0417 7.62244 19 8.08713V12.7129C18.9792 13.5578 18.6875 14.2759 18.125 14.8673L16.2812 16.7366C15.9271 17.0323 15.5729 17.0323 15.2188 16.7366C14.9271 16.3776 14.9271 16.0185 15.2188 15.6594L16.5625 14.297C16.6875 14.1703 16.75 14.0119 16.75 13.8218C16.7083 13.4205 16.4896 13.1987 16.0938 13.1564C15.9062 13.1564 15.75 13.2198 15.625 13.3465L13.6875 15.3109C13.0833 15.9446 12.7708 16.7155 12.75 17.6238V19.2396C12.7083 19.7043 12.4583 19.9578 12 20C11.5417 19.9578 11.2917 19.7043 11.25 19.2396V17.6238C11.2292 16.7155 10.9167 15.9446 10.3125 15.3109L8.375 13.3465C8.25 13.2198 8.09375 13.1564 7.90625 13.1564C7.51042 13.1987 7.29167 13.4205 7.25 13.8218C7.25 14.0119 7.3125 14.1703 7.4375 14.297L8.78125 15.6594C9.07292 16.0185 9.07292 16.3776 8.78125 16.7366C8.42708 17.0323 8.07292 17.0323 7.71875 16.7366L5.875 14.8673C5.3125 14.2759 5.02083 13.5578 5 12.7129V8.08713C4.95833 7.62244 4.70833 7.36898 4.25 7.32673C3.79167 7.36898 3.54167 7.62244 3.5 8.08713V14.9307C3.5 15.5644 3.71875 16.103 4.15625 16.5465L6.28125 18.701C6.57292 19.0601 6.57292 19.4191 6.28125 19.7782C5.92708 20.0739 5.57292 20.0739 5.21875 19.7782L3.09375 17.6238C2.38542 16.8845 2.02083 15.9868 2 14.9307V8.08713C2.02083 7.43234 2.23958 6.89373 2.65625 6.47129C3.07292 6.04885 3.60417 5.82706 4.25 5.80594C4.89583 5.82706 5.42708 6.04885 5.84375 6.47129C6.26042 6.89373 6.47917 7.43234 6.5 8.08713Z"/></svg>