<svg width="24" height="24" viewBox="0 0 24 24" xmlns="http://www.w3.org/2000/svg" fill="#cacaca"><path d="M4.6875 12V13.4062C4.64062 13.9219 4.35938 14.2031 3.84375 14.25C3.32812 14.2031 3.04688 13.9219 3 13.4062V12C3.02344 10.3125 3.43359 8.80078 4.23047 7.46484C5.02734 6.10547 6.10547 5.02734 7.46484 4.23047C8.80078 3.43359 10.3125 3.02344 12 3C13.6875 3.02344 15.1992 3.43359 16.5352 4.23047C17.8945 5.02734 18.9727 6.10547 19.7695 7.46484C20.5664 8.80078 20.9766 10.3125 21 12V17.0625C20.9766 17.9297 20.6719 18.6562 20.0859 19.2422C19.5 19.8281 18.7734 20.1328 17.9062 20.1562H14.0391C13.7109 20.6953 13.2188 20.9766 12.5625 21H11.4375C10.9688 20.9766 10.5703 20.8125 10.2422 20.5078C9.9375 20.1797 9.77344 19.7812 9.75 19.3125C9.77344 18.8438 9.9375 18.4453 10.2422 18.1172C10.5703 17.8125 10.9688 17.6484 11.4375 17.625H12.5625C13.2188 17.6484 13.7109 17.9297 14.0391 18.4688H17.9062C18.3047 18.4688 18.6328 18.3281 18.8906 18.0469C19.1719 17.7891 19.3125 17.4609 19.3125 17.0625V12C19.2656 9.9375 18.5508 8.21484 17.168 6.83203C15.7852 5.44922 14.0625 4.73438 12 4.6875C9.9375 4.73438 8.21484 5.44922 6.83203 6.83203C5.44922 8.21484 4.73438 9.9375 4.6875 12ZM8.625 10.875C8.29688 10.875 8.02734 10.9805 7.81641 11.1914C7.60547 11.4023 7.5 11.6719 7.5 12V13.6875C7.5 14.0156 7.60547 14.2852 7.81641 14.4961C8.02734 14.707 8.29688 14.8125 8.625 14.8125V10.875ZM5.8125 12C5.83594 11.2031 6.10547 10.5352 6.62109 9.99609C7.16016 9.48047 7.82812 9.21094 8.625 9.1875H9.1875C9.51562 9.1875 9.78516 9.29297 9.99609 9.50391C10.207 9.71484 10.3125 9.98438 10.3125 10.3125V15.375C10.3125 15.7031 10.207 15.9727 9.99609 16.1836C9.78516 16.3945 9.51562 16.5 9.1875 16.5H8.625C7.82812 16.4766 7.16016 16.207 6.62109 15.6914C6.10547 15.1523 5.83594 14.4844 5.8125 13.6875V12ZM15.375 10.875V14.8125C15.7031 14.8125 15.9727 14.707 16.1836 14.4961C16.3945 14.2852 16.5 14.0156 16.5 13.6875V12C16.5 11.6719 16.3945 11.4023 16.1836 11.1914C15.9727 10.9805 15.7031 10.875 15.375 10.875ZM18.1875 12V13.6875C18.1641 14.4844 17.8945 15.1523 17.3789 15.6914C16.8398 16.207 16.1719 16.4766 15.375 16.5H14.8125C14.4844 16.5 14.2148 16.3945 14.0039 16.1836C13.793 15.9727 13.6875 15.7031 13.6875 15.375V10.3125C13.6875 9.98438 13.793 9.71484 14.0039 9.50391C14.2148 9.29297 14.4844 9.1875 14.8125 9.1875H15.375C16.1719 9.21094 16.8398 9.48047 17.3789 9.99609C17.8945 10.5352 18.1641 11.2031 18.1875 12Z"/></svg>