<svg width="24" height="24" viewBox="0 0 24 24" xmlns="http://www.w3.org/2000/svg" fill="#cacaca"><path d="M7 6.5C6.6875 6.52083 6.52083 6.6875 6.5 7V17C6.52083 17.3125 6.6875 17.4792 7 17.5H17C17.3125 17.4792 17.4792 17.3125 17.5 17V7C17.4792 6.6875 17.3125 6.52083 17 6.5H7ZM5 7C5.02083 6.4375 5.21875 5.96875 5.59375 5.59375C5.96875 5.21875 6.4375 5.02083 7 5H17C17.5625 5.02083 18.0312 5.21875 18.4062 5.59375C18.7812 5.96875 18.9792 6.4375 19 7V17C18.9792 17.5625 18.7812 18.0312 18.4062 18.4062C18.0312 18.7812 17.5625 18.9792 17 19H7C6.4375 18.9792 5.96875 18.7812 5.59375 18.4062C5.21875 18.0312 5.02083 17.5625 5 17V7ZM15.5 12.3125L12.625 15.2188C12.4375 15.3854 12.2292 15.4688 12 15.4688C11.7708 15.4688 11.5625 15.3854 11.375 15.2188L8.5 12.3125C8.10417 11.8542 7.90625 11.3438 7.90625 10.7812C7.90625 10.2188 8.10417 9.70833 8.5 9.25C8.9375 8.83333 9.4375 8.625 10 8.625C10.5625 8.625 11.0625 8.83333 11.5 9.25L12 9.78125L12.5 9.25C12.9375 8.83333 13.4375 8.625 14 8.625C14.5625 8.625 15.0625 8.83333 15.5 9.25C15.9167 9.70833 16.125 10.2188 16.125 10.7812C16.125 11.3438 15.9167 11.8542 15.5 12.3125Z"/></svg>