<svg width="24" height="24" viewBox="0 0 24 24" xmlns="http://www.w3.org/2000/svg" fill="#cacaca"><path d="M10.9453 19.2637L10.8398 19.1934L4.6875 13.4629C3.58594 12.4082 3.02344 11.1191 3 9.5957V9.49023C3.02344 8.22461 3.42188 7.12305 4.19531 6.18555C4.94531 5.27148 5.94141 4.68555 7.18359 4.42773C8.63672 4.16992 9.94922 4.45117 11.1211 5.27148C11.4492 5.48242 11.7422 5.74023 12 6.04492C12.1406 5.88086 12.3047 5.72852 12.4922 5.58789C12.6094 5.4707 12.7383 5.36523 12.8789 5.27148C14.0508 4.45117 15.3633 4.1582 16.8164 4.39258C18.0586 4.65039 19.0547 5.24805 19.8047 6.18555C20.5781 7.12305 20.9766 8.22461 21 9.49023V9.5957C20.9766 11.1191 20.4141 12.4082 19.3125 13.4629L13.1602 19.1934L13.0547 19.2637C12.75 19.5449 12.3984 19.6855 12 19.6855C11.6016 19.6855 11.25 19.5449 10.9453 19.2637ZM11.4023 7.9082C11.4023 7.9082 11.3906 7.89648 11.3672 7.87305L10.7344 7.16992C10.3125 6.70117 9.82031 6.37305 9.25781 6.18555C8.69531 5.99805 8.10938 5.96289 7.5 6.08008C6.67969 6.24414 6.01172 6.64258 5.49609 7.27539C4.98047 7.88477 4.71094 8.62305 4.6875 9.49023V9.5957C4.71094 10.627 5.09766 11.5059 5.84766 12.2324L12 17.9629L18.1523 12.2324C18.9023 11.5059 19.2891 10.627 19.3125 9.5957V9.49023C19.2891 8.62305 19.0195 7.88477 18.5039 7.27539C17.9883 6.64258 17.3203 6.24414 16.5 6.08008C15.8906 5.96289 15.3047 5.99805 14.7422 6.18555C14.1797 6.37305 13.6875 6.70117 13.2656 7.16992L12.6328 7.87305C12.6328 7.87305 12.6211 7.88477 12.5977 7.9082C12.4336 8.07227 12.2344 8.1543 12 8.1543C11.7656 8.1543 11.5664 8.07227 11.4023 7.9082Z"/></svg>