<svg width="24" height="24" viewBox="0 0 24 24" xmlns="http://www.w3.org/2000/svg" fill="#cacaca"><path d="M10.8398 19.6561L4.6875 13.6911C3.58594 12.5933 3.02344 11.2515 3 9.66573V9.55594C3.02344 8.23854 3.42188 7.0919 4.19531 6.11605C4.94531 5.14019 5.94141 4.51808 7.18359 4.24972C8.63672 4.00575 9.94922 4.31071 11.1211 5.16458C11.4492 5.38415 11.7422 5.65251 12 5.96967C12.1406 5.79889 12.3047 5.64031 12.4922 5.49394C12.6094 5.37195 12.7383 5.26217 12.8789 5.16458C14.0508 4.31071 15.3633 4.01795 16.8164 4.28631C18.0586 4.55467 19.0547 5.16458 19.8047 6.11605C20.5781 7.0919 20.9766 8.23854 21 9.55594V9.66573C20.9766 11.2515 20.4141 12.5933 19.3125 13.6911L13.1602 19.6561L13.0547 19.7293C12.75 20.022 12.3984 20.1684 12 20.1684C11.6016 20.1684 11.25 20.022 10.9453 19.7293L10.8398 19.6561ZM12 18.3753L18.1523 12.4103C18.9023 11.654 19.2891 10.7392 19.3125 9.66573V9.51935C19.2891 8.64108 19.0195 7.88479 18.5039 7.25048C17.9883 6.59178 17.3203 6.17704 16.5 6.00626C15.8906 5.88428 15.3047 5.92087 14.7422 6.11605C14.1797 6.31122 13.6875 6.65277 13.2656 7.1407L12.6328 7.87259C12.6094 7.89699 12.5977 7.90918 12.5977 7.90918C12.4336 8.07996 12.2344 8.16535 12 8.16535V18.3753Z"/></svg>