<svg width="24" height="24" viewBox="0 0 24 24" xmlns="http://www.w3.org/2000/svg" fill="#cacaca"><path d="M10.9688 18.5625L5.5 13.4687C4.52083 12.5312 4.02083 11.3854 4 10.0312V9.93749C4.02083 8.81249 4.375 7.83332 5.0625 6.99999C5.72917 6.16665 6.61458 5.6354 7.71875 5.40624C9.01042 5.1979 10.1771 5.45832 11.2188 6.18749C11.5104 6.37499 11.7708 6.60415 12 6.87499C12.125 6.72915 12.2708 6.59374 12.4375 6.46874C12.5417 6.36457 12.6562 6.27082 12.7812 6.18749C13.8229 5.45832 14.9896 5.20832 16.2812 5.43749C17.3854 5.66665 18.2708 6.18749 18.9375 6.99999C19.625 7.83332 19.9792 8.81249 20 9.93749V10.0312C19.9792 11.3854 19.4792 12.5312 18.5 13.4687L13.0312 18.5625L12.9375 18.625C12.6667 18.875 12.3542 19 12 19C11.6458 19 11.3333 18.875 11.0625 18.625L10.9688 18.5625ZM11.1875 8.21874L10.875 7.87499C10.5 7.45832 10.0625 7.16665 9.5625 6.99999C9.0625 6.83332 8.54167 6.80207 8 6.90624C7.27083 7.05207 6.67708 7.40624 6.21875 7.96874C5.76042 8.5104 5.52083 9.16665 5.5 9.93749V10.0312C5.52083 10.9479 5.86458 11.7292 6.53125 12.375L12 17.4687L17.4688 12.375C18.1354 11.7292 18.4792 10.9479 18.5 10.0312V9.93749C18.4792 9.16665 18.2396 8.5104 17.7812 7.96874C17.3229 7.40624 16.7292 7.05207 16 6.90624C15.0417 6.73957 14.1979 6.9479 13.4688 7.53124L13.9688 8.65624C14.0312 8.78124 14 8.8854 13.875 8.96874L11.0938 10.5937L12.9688 13.625C13.0312 13.75 13.0104 13.8542 12.9062 13.9375C12.8021 14.0208 12.6979 14.0208 12.5938 13.9375L9.09375 10.6875C9.03125 10.6458 9 10.5833 9 10.5C9 10.4375 9.02083 10.375 9.0625 10.3125L11.1875 8.21874Z"/></svg>