<svg width="24" height="24" viewBox="0 0 24 24" xmlns="http://www.w3.org/2000/svg" fill="#cacaca"><path d="M10.0714 3C10.6607 3.05357 10.9821 3.375 11.0357 3.96429V7.5C11.0357 9 11.4911 10.3527 12.4018 11.558L13.1652 12.5625C14.2902 14.1161 14.8661 15.8571 14.8929 17.7857V20.0357C14.8393 20.625 14.5179 20.9464 13.9286 21C13.3393 20.9464 13.0179 20.625 12.9643 20.0357V17.7857C12.9643 16.2857 12.5089 14.933 11.5982 13.7277L10.8348 12.7232C9.70982 11.1696 9.13393 9.42857 9.10714 7.5V3.96429C9.16071 3.375 9.48214 3.05357 10.0714 3ZM3.96429 5.57143C4.55357 5.625 4.875 5.94643 4.92857 6.53571V8.0625C4.92857 9.42857 5.30357 10.6741 6.05357 11.7991L7.33929 13.6875C8.30357 15.1607 8.78571 16.7679 8.78571 18.5089V20.0357C8.73214 20.625 8.41071 20.9464 7.82143 21C7.23214 20.9464 6.91071 20.625 6.85714 20.0357V18.5089C6.85714 17.1429 6.48214 15.8973 5.73214 14.7723L4.44643 12.8839C3.48214 11.4107 3 9.80357 3 8.0625V6.53571C3.05357 5.94643 3.375 5.625 3.96429 5.57143ZM17.1429 6.53571V8.0625C17.1429 9.42857 17.5179 10.6741 18.2679 11.7991L19.5536 13.6875C20.5179 15.1607 21 16.7679 21 18.5089V20.0357C20.9464 20.625 20.625 20.9464 20.0357 21C19.4464 20.9464 19.125 20.625 19.0714 20.0357V18.5089C19.0714 17.1429 18.6964 15.8973 17.9464 14.7723L16.6607 12.8839C15.6964 11.4107 15.2143 9.80357 15.2143 8.0625V6.53571C15.2679 5.94643 15.5893 5.625 16.1786 5.57143C16.7679 5.625 17.0893 5.94643 17.1429 6.53571Z"/></svg>