<svg width="24" height="24" viewBox="0 0 24 24" xmlns="http://www.w3.org/2000/svg" fill="#cacaca"><path d="M5.4375 2H18.5625C19.0703 2 19.5 2.42969 19.5 2.9375C19.5 3.48438 19.0703 3.875 18.5625 3.875H18.25V4.61719C18.25 6.21875 17.625 7.70312 16.4922 8.83594L13.2891 12L16.4922 15.2031C17.625 16.2969 18.25 17.8203 18.25 19.3828V20.125H18.5625C19.0703 20.125 19.5 20.5547 19.5 21.0625C19.5 21.6094 19.0703 22 18.5625 22H5.4375C4.89062 22 4.5 21.6094 4.5 21.0625C4.5 20.5547 4.89062 20.125 5.4375 20.125H5.75V19.3828C5.75 17.8203 6.375 16.2969 7.46875 15.2031L10.6719 12L7.46875 8.83594C6.375 7.70312 5.75 6.21875 5.75 4.61719V3.875H5.4375C4.89062 3.875 4.5 3.48438 4.5 2.9375C4.5 2.42969 4.89062 2 5.4375 2ZM12 13.3281L8.79688 16.5312C8.05469 17.2734 7.625 18.3281 7.625 19.3828V20.125H16.375V19.3828C16.375 18.3281 15.9453 17.2734 15.1641 16.5312L12 13.3281ZM12 10.6719V10.7109L15.1641 7.50781C15.9453 6.72656 16.375 5.71094 16.375 4.61719V3.875H7.625V4.61719C7.625 5.71094 8.05469 6.72656 8.79688 7.50781L12 10.6719Z"/></svg>