<svg width="24" height="24" viewBox="0 0 24 24" xmlns="http://www.w3.org/2000/svg" fill="#cacaca"><path d="M19 11.917C19 11.6867 18.9202 11.4645 18.7764 11.2871L18.7109 11.2139L12.7109 5.14258C12.3195 4.74657 11.6805 4.74657 11.2891 5.14258L5.28906 11.2139C5.10408 11.4011 5 11.6538 5 11.917V18C5 18.5523 5.44772 19 6 19H7.59961C8.1519 19 8.59961 18.5523 8.59961 18V14.7139C8.59984 13.0573 9.94307 11.7141 11.5996 11.7139H12.4004C14.0569 11.7141 15.4002 13.0573 15.4004 14.7139V18C15.4004 18.5523 15.8481 19 16.4004 19H18C18.5523 19 19 18.5523 19 18V11.917ZM21 18C21 19.6569 19.6569 21 18 21H16.4004C14.7435 21 13.4004 19.6569 13.4004 18V14.7139C13.4002 14.1619 12.9524 13.7141 12.4004 13.7139H11.5996C11.0476 13.7141 10.5998 14.1619 10.5996 14.7139V18C10.5996 19.6569 9.25646 21 7.59961 21H6C4.34314 21 3 19.6569 3 18V11.917C3 11.1275 3.31126 10.3692 3.86621 9.80762L9.86621 3.73633L9.97852 3.62891C11.1598 2.54963 12.9961 2.58524 14.1338 3.73633L20.1338 9.80762C20.6887 10.3692 21 11.1275 21 11.917V18Z"/></svg>