<svg width="24" height="24" viewBox="0 0 24 24" xmlns="http://www.w3.org/2000/svg" fill="#cacaca"><path d="M19.5 9H4.5V17C4.52083 17.3125 4.6875 17.4792 5 17.5H6C6.02083 16.7917 6.26042 16.1979 6.71875 15.7188C7.19792 15.2604 7.79167 15.0208 8.5 15H10.5C11.2083 15.0208 11.8021 15.2604 12.2812 15.7188C12.7396 16.1979 12.9792 16.7917 13 17.5H19C19.3125 17.4792 19.4792 17.3125 19.5 17V9ZM5 5H19C19.5625 5.02083 20.0312 5.21875 20.4062 5.59375C20.7812 5.96875 20.9792 6.4375 21 7V17C20.9792 17.5625 20.7812 18.0312 20.4062 18.4062C20.0312 18.7812 19.5625 18.9792 19 19H5C4.4375 18.9792 3.96875 18.7812 3.59375 18.4062C3.21875 18.0312 3.02083 17.5625 3 17V7C3.02083 6.4375 3.21875 5.96875 3.59375 5.59375C3.96875 5.21875 4.4375 5.02083 5 5ZM11.5 12C11.4792 12.75 11.1458 13.3229 10.5 13.7188C9.83333 14.0938 9.16667 14.0938 8.5 13.7188C7.85417 13.3229 7.52083 12.75 7.5 12C7.52083 11.25 7.85417 10.6771 8.5 10.2812C9.16667 9.90625 9.83333 9.90625 10.5 10.2812C11.1458 10.6771 11.4792 11.25 11.5 12ZM14.75 10.5H17.25C17.7083 10.5417 17.9583 10.7917 18 11.25C17.9583 11.7083 17.7083 11.9583 17.25 12H14.75C14.2917 11.9583 14.0417 11.7083 14 11.25C14.0417 10.7917 14.2917 10.5417 14.75 10.5ZM14.75 13.5H17.25C17.7083 13.5417 17.9583 13.7917 18 14.25C17.9583 14.7083 17.7083 14.9583 17.25 15H14.75C14.2917 14.9583 14.0417 14.7083 14 14.25C14.0417 13.7917 14.2917 13.5417 14.75 13.5Z"/></svg>