<svg width="24" height="24" viewBox="0 0 24 24" xmlns="http://www.w3.org/2000/svg" fill="#cacaca"><path d="M11 4H13C13.2917 4 13.5312 4.09375 13.7188 4.28125C13.9062 4.46875 14 4.70833 14 5V7C14 7.29167 13.9062 7.53125 13.7188 7.71875C13.5312 7.90625 13.2917 8 13 8H11C10.7083 8 10.4688 7.90625 10.2812 7.71875C10.0938 7.53125 10 7.29167 10 7V5C10 4.70833 10.0938 4.46875 10.2812 4.28125C10.4688 4.09375 10.7083 4 11 4ZM9 6V7.5H5C4.6875 7.52083 4.52083 7.6875 4.5 8V18C4.52083 18.3125 4.6875 18.4792 5 18.5H19C19.3125 18.4792 19.4792 18.3125 19.5 18V8C19.4792 7.6875 19.3125 7.52083 19 7.5H15V6H19C19.5625 6.02083 20.0312 6.21875 20.4062 6.59375C20.7812 6.96875 20.9792 7.4375 21 8V18C20.9792 18.5625 20.7812 19.0312 20.4062 19.4062C20.0312 19.7812 19.5625 19.9792 19 20H5C4.4375 19.9792 3.96875 19.7812 3.59375 19.4062C3.21875 19.0312 3.02083 18.5625 3 18V8C3.02083 7.4375 3.21875 6.96875 3.59375 6.59375C3.96875 6.21875 4.4375 6.02083 5 6H9ZM12 13.5C11.25 13.4792 10.6771 13.1458 10.2812 12.5C9.90625 11.8333 9.90625 11.1667 10.2812 10.5C10.6771 9.85417 11.25 9.52083 12 9.5C12.75 9.52083 13.3229 9.85417 13.7188 10.5C14.0938 11.1667 14.0938 11.8333 13.7188 12.5C13.3229 13.1458 12.75 13.4792 12 13.5ZM11 14.5H13C13.7083 14.5208 14.3021 14.7604 14.7812 15.2188C15.2396 15.6979 15.4792 16.2917 15.5 17C15.4792 17.3125 15.3125 17.4792 15 17.5H9C8.6875 17.4792 8.52083 17.3125 8.5 17C8.52083 16.2917 8.76042 15.6979 9.21875 15.2188C9.69792 14.7604 10.2917 14.5208 11 14.5Z"/></svg>