<svg width="24" height="24" viewBox="0 0 24 24" xmlns="http://www.w3.org/2000/svg" fill="#cacaca"><path d="M5.25 5.8125C4.89844 5.83594 4.71094 6.02344 4.6875 6.375V17.625C4.71094 17.9766 4.89844 18.1641 5.25 18.1875H18.75C19.1016 18.1641 19.2891 17.9766 19.3125 17.625V6.375C19.2891 6.02344 19.1016 5.83594 18.75 5.8125H5.25ZM3 6.375C3.02344 5.74219 3.24609 5.21484 3.66797 4.79297C4.08984 4.37109 4.61719 4.14844 5.25 4.125H18.75C19.3828 4.14844 19.9102 4.37109 20.332 4.79297C20.7539 5.21484 20.9766 5.74219 21 6.375V17.625C20.9766 18.2578 20.7539 18.7852 20.332 19.207C19.9102 19.6289 19.3828 19.8516 18.75 19.875H5.25C4.61719 19.8516 4.08984 19.6289 3.66797 19.207C3.24609 18.7852 3.02344 18.2578 3 17.625V6.375ZM9.75 9.75C9.77344 8.90625 10.1484 8.26172 10.875 7.81641C11.625 7.39453 12.375 7.39453 13.125 7.81641C13.8516 8.26172 14.2266 8.90625 14.25 9.75C14.2266 10.5938 13.8516 11.2383 13.125 11.6836C12.375 12.1055 11.625 12.1055 10.875 11.6836C10.1484 11.2383 9.77344 10.5938 9.75 9.75ZM8.0625 15.5508C8.08594 14.8477 8.32031 14.2734 8.76562 13.8281C9.21094 13.3828 9.78516 13.1484 10.4883 13.125H13.5469C14.2266 13.1484 14.7891 13.3828 15.2344 13.8281C15.6797 14.2734 15.9141 14.8477 15.9375 15.5508C15.9375 15.8086 15.8438 16.0312 15.6562 16.2188C15.4688 16.4062 15.2461 16.5 14.9883 16.5H9.04688C8.76562 16.5 8.53125 16.4062 8.34375 16.2188C8.15625 16.0312 8.0625 15.8086 8.0625 15.5508Z"/></svg>