<svg width="24" height="24" viewBox="0 0 24 24" fill="#cacaca" xmlns="http://www.w3.org/2000/svg">
   <path d="M18.75 5.8125H5.25C4.89844 5.83594 4.71094 6.02344 4.6875 6.375V17.625L4.86328 17.4141L7.67578 13.4766C7.83984 13.2422 8.0625 13.125 8.34375 13.125C8.625 13.125 8.85938 13.2422 9.04688 13.4766L10.1016 14.9883L13.0195 11.1914C13.1836 10.9805 13.4062 10.875 13.6875 10.875C13.9688 10.875 14.1914 10.9805 14.3555 11.1914L19.1367 17.3789L19.3125 17.625V6.375C19.2891 6.02344 19.1016 5.83594 18.75 5.8125ZM5.25 4.125H18.75C19.3828 4.14844 19.9102 4.37109 20.332 4.79297C20.7539 5.21484 20.9766 5.74219 21 6.375V17.625C20.9766 18.2578 20.7539 18.7852 20.332 19.207C19.9102 19.6289 19.3828 19.8516 18.75 19.875H5.25C4.61719 19.8516 4.08984 19.6289 3.66797 19.207C3.24609 18.7852 3.02344 18.2578 3 17.625V6.375C3.02344 5.74219 3.24609 5.21484 3.66797 4.79297C4.08984 4.37109 4.61719 4.14844 5.25 4.125ZM8.0625 10.875C7.42969 10.8516 6.9375 10.5703 6.58594 10.0312C6.30469 9.46875 6.30469 8.90625 6.58594 8.34375C6.9375 7.80469 7.42969 7.52344 8.0625 7.5C8.69531 7.52344 9.1875 7.80469 9.53906 8.34375C9.82031 8.90625 9.82031 9.46875 9.53906 10.0312C9.1875 10.5703 8.69531 10.8516 8.0625 10.875Z" /> 
</svg>
