<svg width="24" height="24" viewBox="0 0 24 24" xmlns="http://www.w3.org/2000/svg" fill="#cacaca"><path d="M19.0714 16.5H4.92857V18.4286C4.95536 18.8304 5.16964 19.0446 5.57143 19.0714H18.4286C18.8304 19.0446 19.0446 18.8304 19.0714 18.4286V16.5ZM6.01339 14.5714L8.34375 11.4375C8.53125 11.1696 8.78571 11.0357 9.10714 11.0357C9.42857 11.0357 9.68304 11.1696 9.87054 11.4375L10.5536 12.3616L12.8036 8.90625C12.9911 8.61161 13.2589 8.46429 13.6071 8.46429C13.9554 8.46429 14.2232 8.61161 14.4107 8.90625L18.1071 14.5714H19.0714V5.57143C19.0446 5.16964 18.8304 4.95536 18.4286 4.92857H5.57143C5.16964 4.95536 4.95536 5.16964 4.92857 5.57143V14.5714H6.01339ZM21 18.4286C20.9732 19.1518 20.7188 19.7545 20.2366 20.2366C19.7545 20.7188 19.1518 20.9732 18.4286 21H5.57143C4.84821 20.9732 4.24554 20.7188 3.76339 20.2366C3.28125 19.7545 3.02679 19.1518 3 18.4286V5.57143C3.02679 4.84821 3.28125 4.24554 3.76339 3.76339C4.24554 3.28125 4.84821 3.02679 5.57143 3H18.4286C19.1518 3.02679 19.7545 3.28125 20.2366 3.76339C20.7188 4.24554 20.9732 4.84821 21 5.57143V18.4286ZM8.78571 7.5C8.78571 7.875 8.66518 8.18304 8.42411 8.42411C8.18304 8.66518 7.875 8.78571 7.5 8.78571C7.125 8.78571 6.81696 8.66518 6.57589 8.42411C6.33482 8.18304 6.21429 7.875 6.21429 7.5C6.21429 7.125 6.33482 6.81696 6.57589 6.57589C6.81696 6.33482 7.125 6.21429 7.5 6.21429C7.875 6.21429 8.18304 6.33482 8.42411 6.57589C8.66518 6.81696 8.78571 7.125 8.78571 7.5Z"/></svg>