<svg width="24" height="24" viewBox="0 0 24 24" xmlns="http://www.w3.org/2000/svg" fill="#cacaca"><path d="M18 2.25H6C5.53125 2.28125 5.28125 2.53125 5.25 3V21C5.28125 21.4688 5.53125 21.7188 6 21.75H18C18.4688 21.7188 18.7188 21.4688 18.75 21V3C18.7188 2.53125 18.4688 2.28125 18 2.25ZM18 0C18.8438 0.03125 19.5469 0.328125 20.1094 0.890625C20.6719 1.45312 20.9688 2.15625 21 3V21C20.9688 21.8438 20.6719 22.5469 20.1094 23.1094C19.5469 23.6719 18.8438 23.9688 18 24H6C5.15625 23.9688 4.45312 23.6719 3.89062 23.1094C3.32812 22.5469 3.03125 21.8438 3 21V3C3.03125 2.15625 3.32812 1.45312 3.89062 0.890625C4.45312 0.328125 5.15625 0.03125 6 0H18ZM9 9C9.03125 7.875 9.53125 7.01562 10.5 6.42188C11.5 5.85938 12.5 5.85938 13.5 6.42188C14.4688 7.01562 14.9688 7.875 15 9C14.9688 10.125 14.4688 10.9844 13.5 11.5781C12.5 12.1406 11.5 12.1406 10.5 11.5781C9.53125 10.9844 9.03125 10.125 9 9ZM6.75 16.7344C6.78125 15.7969 7.09375 15.0312 7.6875 14.4375C8.28125 13.8438 9.04688 13.5312 9.98438 13.5H14.0625C14.9688 13.5312 15.7188 13.8438 16.3125 14.4375C16.9062 15.0312 17.2188 15.7969 17.25 16.7344C17.25 17.0781 17.125 17.375 16.875 17.625C16.625 17.875 16.3281 18 15.9844 18H8.0625C7.6875 18 7.375 17.875 7.125 17.625C6.875 17.375 6.75 17.0781 6.75 16.7344Z"/></svg>