<svg width="24" height="24" viewBox="0 0 24 24" xmlns="http://www.w3.org/2000/svg" fill="#cacaca"><path d="M5.5 17C5.52083 17.3125 5.6875 17.4792 6 17.5H18C18.3125 17.4792 18.4792 17.3125 18.5 17V14.5H15.9688L15.3125 15.8125C15.0625 16.25 14.6875 16.4792 14.1875 16.5H9.8125C9.3125 16.4792 8.9375 16.25 8.6875 15.8125L8.03125 14.5H5.5V17ZM16.6875 6.875C16.6042 6.64583 16.4375 6.52083 16.1875 6.5H7.8125C7.5625 6.52083 7.40625 6.64583 7.34375 6.875L5.8125 13H8.1875C8.6875 13.0208 9.0625 13.25 9.3125 13.6875L9.96875 15H14.0312L14.6875 13.6875C14.9375 13.25 15.3125 13.0208 15.8125 13H18.1875L16.6562 6.875H16.6875ZM4 17V14.25C4 14.0833 4.02083 13.9167 4.0625 13.75L5.875 6.53125C6 6.07292 6.23958 5.70833 6.59375 5.4375C6.92708 5.14583 7.33333 5 7.8125 5H16.1875C16.6667 5 17.0729 5.14583 17.4062 5.4375C17.7604 5.70833 18 6.07292 18.125 6.53125L19.9375 13.75C19.9792 13.9167 20 14.0833 20 14.25V17C19.9792 17.5625 19.7812 18.0312 19.4062 18.4062C19.0312 18.7812 18.5625 18.9792 18 19H6C5.4375 18.9792 4.96875 18.7812 4.59375 18.4062C4.21875 18.0312 4.02083 17.5625 4 17ZM9.75 8H14.25C14.7083 8.04167 14.9583 8.29167 15 8.75C14.9583 9.20833 14.7083 9.45833 14.25 9.5H9.75C9.29167 9.45833 9.04167 9.20833 9 8.75C9.04167 8.29167 9.29167 8.04167 9.75 8ZM8.75 10.5H15.25C15.7083 10.5417 15.9583 10.7917 16 11.25C15.9583 11.7083 15.7083 11.9583 15.25 12H8.75C8.29167 11.9583 8.04167 11.7083 8 11.25C8.04167 10.7917 8.29167 10.5417 8.75 10.5Z"/></svg>