<svg width="24" height="24" viewBox="0 0 24 24" xmlns="http://www.w3.org/2000/svg" fill="#cacaca"><path d="M5.5 14.5V17C5.52083 17.3125 5.6875 17.4792 6 17.5H18C18.3125 17.4792 18.4792 17.3125 18.5 17V14.5H15.9688L15.3125 15.8125C15.0625 16.25 14.6875 16.4792 14.1875 16.5H9.8125C9.3125 16.4792 8.9375 16.25 8.6875 15.8125L8.03125 14.5H5.5ZM18.2188 13L16.6875 6.875C16.6042 6.64583 16.4375 6.52083 16.1875 6.5H7.8125C7.5625 6.52083 7.40625 6.64583 7.34375 6.875L5.8125 13H8.1875C8.6875 13.0208 9.0625 13.25 9.3125 13.6875L9.96875 15H14.0312L14.6875 13.6875C14.9375 13.25 15.3125 13.0208 15.8125 13H18.2188ZM4 14.25C4 14.0833 4.02083 13.9167 4.0625 13.75L5.875 6.53125C6 6.07292 6.23958 5.70833 6.59375 5.4375C6.92708 5.14583 7.33333 5 7.8125 5H16.1875C16.6667 5 17.0729 5.14583 17.4062 5.4375C17.7604 5.70833 18 6.07292 18.125 6.53125L19.9375 13.75C19.9792 13.9167 20 14.0833 20 14.25V17C19.9792 17.5625 19.7812 18.0312 19.4062 18.4062C19.0312 18.7812 18.5625 18.9792 18 19H6C5.4375 18.9792 4.96875 18.7812 4.59375 18.4062C4.21875 18.0312 4.02083 17.5625 4 17V14.25Z"/></svg>