<svg width="24" height="24" viewBox="0 0 24 24" xmlns="http://www.w3.org/2000/svg" fill="#cacaca"><path d="M6.28571 5.96429C5.92857 5.9881 5.7381 6.17857 5.71429 6.53571V17.9643C5.7381 18.3214 5.92857 18.5119 6.28571 18.5357H17.7143C18.0714 18.5119 18.2619 18.3214 18.2857 17.9643V6.53571C18.2619 6.17857 18.0714 5.9881 17.7143 5.96429H6.28571ZM4 6.53571C4.02381 5.89286 4.25 5.35714 4.67857 4.92857C5.10714 4.5 5.64286 4.27381 6.28571 4.25H17.7143C18.3571 4.27381 18.8929 4.5 19.3214 4.92857C19.75 5.35714 19.9762 5.89286 20 6.53571V17.9643C19.9762 18.6071 19.75 19.1429 19.3214 19.5714C18.8929 20 18.3571 20.2262 17.7143 20.25H6.28571C5.64286 20.2262 5.10714 20 4.67857 19.5714C4.25 19.1429 4.02381 18.6071 4 17.9643V6.53571ZM10.5714 15.1071H11.4286V12.8214H10.5714C10.0476 12.7738 9.76191 12.4881 9.71429 11.9643C9.76191 11.4405 10.0476 11.1548 10.5714 11.1071H12.2857C12.8095 11.1548 13.0952 11.4405 13.1429 11.9643V15.1071H13.4286C13.9524 15.1548 14.2381 15.4405 14.2857 15.9643C14.2381 16.4881 13.9524 16.7738 13.4286 16.8214H10.5714C10.0476 16.7738 9.76191 16.4881 9.71429 15.9643C9.76191 15.4405 10.0476 15.1548 10.5714 15.1071ZM12 7.67857C12.3333 7.67857 12.6071 7.78571 12.8214 8C13.0357 8.21429 13.1429 8.4881 13.1429 8.82143C13.1429 9.15476 13.0357 9.42857 12.8214 9.64286C12.6071 9.85714 12.3333 9.96429 12 9.96429C11.6667 9.96429 11.3929 9.85714 11.1786 9.64286C10.9643 9.42857 10.8571 9.15476 10.8571 8.82143C10.8571 8.4881 10.9643 8.21429 11.1786 8C11.3929 7.78571 11.6667 7.67857 12 7.67857Z"/></svg>