<svg width="24" height="24" viewBox="0 0 24 24" xmlns="http://www.w3.org/2000/svg" fill="#cacaca"><path d="M10.75 6.25C10.75 5.8125 10.9688 5.40625 11.375 5.1875C11.75 4.96875 12.2188 4.96875 12.625 5.1875C13 5.40625 13.25 5.8125 13.25 6.25C13.25 6.71875 13 7.125 12.625 7.34375C12.2188 7.5625 11.75 7.5625 11.375 7.34375C10.9688 7.125 10.75 6.71875 10.75 6.25ZM9.5 10.25C9.5 9.84375 9.8125 9.5 10.25 9.5H12C12.4062 9.5 12.75 9.84375 12.75 10.25V18.5H14.25C14.6562 18.5 15 18.8438 15 19.25C15 19.6875 14.6562 20 14.25 20H9.75C9.3125 20 9 19.6875 9 19.25C9 18.8438 9.3125 18.5 9.75 18.5H11.25V11H10.25C9.8125 11 9.5 10.6875 9.5 10.25Z"/><path d="M10.75 6.25C10.7708 5.77083 10.9792 5.40625 11.375 5.15625C11.7917 4.94792 12.2083 4.94792 12.625 5.15625C13.0208 5.40625 13.2292 5.77083 13.25 6.25C13.2292 6.72917 13.0208 7.09375 12.625 7.34375C12.2083 7.55208 11.7917 7.55208 11.375 7.34375C10.9792 7.09375 10.7708 6.72917 10.75 6.25ZM9.5 10.25C9.54167 9.79167 9.79167 9.54167 10.25 9.5H12C12.4583 9.54167 12.7083 9.79167 12.75 10.25V18.5H14.25C14.7083 18.5417 14.9583 18.7917 15 19.25C14.9583 19.7083 14.7083 19.9583 14.25 20H9.75C9.29167 19.9583 9.04167 19.7083 9 19.25C9.04167 18.7917 9.29167 18.5417 9.75 18.5H11.25V11H10.25C9.79167 10.9583 9.54167 10.7083 9.5 10.25Z"/></svg>