<svg width="24" height="24" viewBox="0 0 24 24" xmlns="http://www.w3.org/2000/svg" fill="#cacaca"><path d="M5 7.5C4.6875 7.52083 4.52083 7.6875 4.5 8V16C4.52083 16.3125 4.6875 16.4792 5 16.5H19C19.3125 16.4792 19.4792 16.3125 19.5 16V8C19.4792 7.6875 19.3125 7.52083 19 7.5H5ZM3 8C3.02083 7.4375 3.21875 6.96875 3.59375 6.59375C3.96875 6.21875 4.4375 6.02083 5 6H19C19.5625 6.02083 20.0312 6.21875 20.4062 6.59375C20.7812 6.96875 20.9792 7.4375 21 8V16C20.9792 16.5625 20.7812 17.0312 20.4062 17.4062C20.0312 17.7812 19.5625 17.9792 19 18H5C4.4375 17.9792 3.96875 17.7812 3.59375 17.4062C3.21875 17.0312 3.02083 16.5625 3 16V8ZM8.5 14H15.5C15.8125 14.0208 15.9792 14.1875 16 14.5V15C15.9792 15.3125 15.8125 15.4792 15.5 15.5H8.5C8.1875 15.4792 8.02083 15.3125 8 15V14.5C8.02083 14.1875 8.1875 14.0208 8.5 14ZM6.25 11.75C6.27083 11.4375 6.4375 11.2708 6.75 11.25H7.25C7.5625 11.2708 7.72917 11.4375 7.75 11.75V12.25C7.72917 12.5625 7.5625 12.7292 7.25 12.75H6.75C6.4375 12.7292 6.27083 12.5625 6.25 12.25V11.75ZM6.75 8.75H7.25C7.5625 8.77083 7.72917 8.9375 7.75 9.25V9.75C7.72917 10.0625 7.5625 10.2292 7.25 10.25H6.75C6.4375 10.2292 6.27083 10.0625 6.25 9.75V9.25C6.27083 8.9375 6.4375 8.77083 6.75 8.75ZM8.75 11.75C8.77083 11.4375 8.9375 11.2708 9.25 11.25H9.75C10.0625 11.2708 10.2292 11.4375 10.25 11.75V12.25C10.2292 12.5625 10.0625 12.7292 9.75 12.75H9.25C8.9375 12.7292 8.77083 12.5625 8.75 12.25V11.75ZM9.25 8.75H9.75C10.0625 8.77083 10.2292 8.9375 10.25 9.25V9.75C10.2292 10.0625 10.0625 10.2292 9.75 10.25H9.25C8.9375 10.2292 8.77083 10.0625 8.75 9.75V9.25C8.77083 8.9375 8.9375 8.77083 9.25 8.75ZM11.25 11.75C11.2708 11.4375 11.4375 11.2708 11.75 11.25H12.25C12.5625 11.2708 12.7292 11.4375 12.75 11.75V12.25C12.7292 12.5625 12.5625 12.7292 12.25 12.75H11.75C11.4375 12.7292 11.2708 12.5625 11.25 12.25V11.75ZM11.75 8.75H12.25C12.5625 8.77083 12.7292 8.9375 12.75 9.25V9.75C12.7292 10.0625 12.5625 10.2292 12.25 10.25H11.75C11.4375 10.2292 11.2708 10.0625 11.25 9.75V9.25C11.2708 8.9375 11.4375 8.77083 11.75 8.75ZM13.75 11.75C13.7708 11.4375 13.9375 11.2708 14.25 11.25H14.75C15.0625 11.2708 15.2292 11.4375 15.25 11.75V12.25C15.2292 12.5625 15.0625 12.7292 14.75 12.75H14.25C13.9375 12.7292 13.7708 12.5625 13.75 12.25V11.75ZM14.25 8.75H14.75C15.0625 8.77083 15.2292 8.9375 15.25 9.25V9.75C15.2292 10.0625 15.0625 10.2292 14.75 10.25H14.25C13.9375 10.2292 13.7708 10.0625 13.75 9.75V9.25C13.7708 8.9375 13.9375 8.77083 14.25 8.75ZM16.25 11.75C16.2708 11.4375 16.4375 11.2708 16.75 11.25H17.25C17.5625 11.2708 17.7292 11.4375 17.75 11.75V12.25C17.7292 12.5625 17.5625 12.7292 17.25 12.75H16.75C16.4375 12.7292 16.2708 12.5625 16.25 12.25V11.75ZM16.75 8.75H17.25C17.5625 8.77083 17.7292 8.9375 17.75 9.25V9.75C17.7292 10.0625 17.5625 10.2292 17.25 10.25H16.75C16.4375 10.2292 16.2708 10.0625 16.25 9.75V9.25C16.2708 8.9375 16.4375 8.77083 16.75 8.75Z"/></svg>