<svg width="24" height="24" viewBox="0 0 24 24" xmlns="http://www.w3.org/2000/svg" fill="#cacaca"><path d="M10.3125 9.1875C10.3125 9.5625 10.3594 9.91406 10.4531 10.2422C10.5 10.5469 10.418 10.8164 10.207 11.0508L4.6875 16.5703V19.3125H6.9375V17.9062C6.98438 17.3906 7.26562 17.1094 7.78125 17.0625H9.1875V15.6562C9.23438 15.1406 9.51562 14.8594 10.0312 14.8125H11.9297L12.9492 13.793C13.1836 13.582 13.4531 13.5 13.7578 13.5469C14.0859 13.6406 14.4375 13.6875 14.8125 13.6875C16.0781 13.6641 17.1445 13.2305 18.0117 12.3867C18.8555 11.5195 19.2891 10.4531 19.3125 9.1875C19.2891 7.92188 18.8555 6.85547 18.0117 5.98828C17.1445 5.14453 16.0781 4.71094 14.8125 4.6875C13.5469 4.71094 12.4805 5.14453 11.6133 5.98828C10.7695 6.85547 10.3359 7.92188 10.3125 9.1875ZM14.8125 3C16.5703 3.04688 18.0352 3.65625 19.207 4.82812C20.3555 5.97656 20.9531 7.42969 21 9.1875C20.9531 10.9453 20.3555 12.3984 19.207 13.5469C18.0352 14.7188 16.5703 15.3281 14.8125 15.375C14.4844 15.375 14.1562 15.3516 13.8281 15.3047L12.8789 16.2539C12.7148 16.418 12.5156 16.5 12.2812 16.5H10.875V17.9062C10.8281 18.4219 10.5469 18.7031 10.0312 18.75H8.625V20.1562C8.57812 20.6719 8.29688 20.9531 7.78125 21H3.84375C3.32812 20.9531 3.04688 20.6719 3 20.1562V16.2188C3 15.9844 3.08203 15.7852 3.24609 15.6211L8.69531 10.1719C8.64844 9.84375 8.625 9.51562 8.625 9.1875C8.67188 7.42969 9.28125 5.97656 10.4531 4.82812C11.6016 3.65625 13.0547 3.04688 14.8125 3ZM15.9375 9.1875C15.6094 9.1875 15.3398 9.08203 15.1289 8.87109C14.918 8.66016 14.8125 8.39062 14.8125 8.0625C14.8125 7.73438 14.918 7.46484 15.1289 7.25391C15.3398 7.04297 15.6094 6.9375 15.9375 6.9375C16.2656 6.9375 16.5352 7.04297 16.7461 7.25391C16.957 7.46484 17.0625 7.73438 17.0625 8.0625C17.0625 8.39062 16.957 8.66016 16.7461 8.87109C16.5352 9.08203 16.2656 9.1875 15.9375 9.1875Z"/></svg>