<svg width="24" height="24" viewBox="0 0 24 24" xmlns="http://www.w3.org/2000/svg" fill="#cacaca"><path d="M3.82026 18.0085C3.43326 18.4025 3.43895 19.0365 3.83295 19.4235C4.22697 19.8105 4.86099 19.8049 5.24799 19.4108L6.1103 18.531L7.76264 20.2136C7.95066 20.4049 8.20823 20.5124 8.47651 20.5124C8.74458 20.5124 9.00146 20.4047 9.1894 20.2136L11.9492 17.404C12.3313 17.015 12.3313 16.3907 11.9492 16.0017L10.2724 14.2937L12.1748 12.3562C12.4722 12.5637 12.7903 12.7413 13.1249 12.8845C13.775 13.1625 14.4734 13.3069 15.1796 13.3093C15.8859 13.3117 16.5853 13.1718 17.2373 12.8982C17.8891 12.6245 18.4807 12.2232 18.9775 11.7175C19.4742 11.2118 19.8669 10.6117 20.1337 9.95284C20.4005 9.29401 20.5364 8.58827 20.5341 7.87667C20.5318 7.16511 20.3911 6.46044 20.1201 5.80343C19.8489 5.14635 19.4522 4.54898 18.9521 4.04659L18.9443 4.03878C17.9391 3.05044 16.5894 2.50003 15.1845 2.51241C13.7796 2.52484 12.4391 3.09929 11.4511 4.10519C10.4638 5.11047 9.90655 6.46652 9.89448 7.88058C9.88522 8.9666 10.1992 10.0233 10.7841 10.9187L3.82026 18.0085ZM11.8945 7.89718C11.9023 6.99638 12.2575 6.13829 12.8779 5.50655C13.4979 4.87528 14.3331 4.5201 15.2021 4.51241C16.0678 4.50477 16.9054 4.8422 17.5351 5.45772L17.6494 5.57882C17.91 5.86793 18.1211 6.20174 18.2714 6.56612C18.4432 6.98246 18.5326 7.42991 18.5341 7.88253C18.5356 8.33534 18.4493 8.78416 18.2802 9.20187C18.1111 9.61958 17.8627 9.99844 17.5507 10.3161C17.2388 10.6336 16.8692 10.8842 16.4638 11.0544C16.0583 11.2246 15.624 11.3108 15.1865 11.3093C14.749 11.3078 14.3154 11.2186 13.9111 11.0456C13.5118 10.8748 13.1482 10.6254 12.8408 10.3112C12.8394 10.3098 12.8382 10.3078 12.8369 10.3064C12.2271 9.66344 11.8868 8.79815 11.8945 7.89718ZM8.87006 15.7214L9.83295 16.7019L8.47553 18.0847L7.51264 17.1042L8.87006 15.7214Z"/></svg>