<svg width="24" height="24" viewBox="0 0 24 24" xmlns="http://www.w3.org/2000/svg" fill="#cacaca"><path d="M4 6H20C20.5625 6.02083 21.0312 6.21875 21.4062 6.59375C21.7812 6.96875 21.9792 7.4375 22 8V16C21.9792 16.5625 21.7812 17.0312 21.4062 17.4062C21.0312 17.7812 20.5625 17.9792 20 18H4C3.4375 17.9792 2.96875 17.7812 2.59375 17.4062C2.21875 17.0312 2.02083 16.5625 2 16V8C2.02083 7.4375 2.21875 6.96875 2.59375 6.59375C2.96875 6.21875 3.4375 6.02083 4 6ZM20 7.5H12V16.5H20C20.3125 16.4792 20.4792 16.3125 20.5 16V8C20.4792 7.6875 20.3125 7.52083 20 7.5ZM7.5625 9.5C7.45833 9.27083 7.27083 9.14583 7 9.125C6.72917 9.14583 6.54167 9.27083 6.4375 9.5L4.4375 14C4.3125 14.3542 4.41667 14.625 4.75 14.8125C5.10417 14.9375 5.375 14.8333 5.5625 14.5L5.84375 13.875H8.15625L8.4375 14.5C8.625 14.8333 8.89583 14.9375 9.25 14.8125C9.58333 14.625 9.6875 14.3542 9.5625 14L7.5625 9.5ZM7.59375 12.625H6.40625L7 11.2812L7.59375 12.625ZM16.25 9.125C16.625 9.16667 16.8333 9.375 16.875 9.75V9.875H18.75C19.125 9.91667 19.3333 10.125 19.375 10.5C19.3333 10.875 19.125 11.0833 18.75 11.125H18.6875L18.625 11.2812C18.3542 12.0312 17.9479 12.7083 17.4062 13.3125C17.4062 13.3125 17.4167 13.3229 17.4375 13.3438C17.4583 13.3438 17.4688 13.3542 17.4688 13.375L18.0625 13.7188C18.375 13.9479 18.4479 14.2292 18.2812 14.5625C18.0521 14.875 17.7708 14.9479 17.4375 14.7812L16.8438 14.4375C16.6979 14.3542 16.5625 14.2604 16.4375 14.1562C16.1042 14.4062 15.75 14.6146 15.375 14.7812L15.25 14.8125C14.8958 14.9375 14.625 14.8333 14.4375 14.5C14.3125 14.1458 14.4167 13.875 14.75 13.6875L14.875 13.625C15.0625 13.5417 15.25 13.4375 15.4375 13.3125L15.0625 12.9375C14.8125 12.6458 14.8125 12.3542 15.0625 12.0625C15.3542 11.8125 15.6458 11.8125 15.9375 12.0625L16.4062 12.5312C16.8021 12.1146 17.1146 11.6458 17.3438 11.125H14C13.625 11.0833 13.4167 10.875 13.375 10.5C13.4167 10.125 13.625 9.91667 14 9.875H15.625V9.75C15.6667 9.375 15.875 9.16667 16.25 9.125Z"/></svg>