<svg width="24" height="24" viewBox="0 0 24 24" xmlns="http://www.w3.org/2000/svg" fill="#cacaca"><path d="M17.4 7.05001H6.6C6.31875 7.06876 6.16875 7.21876 6.15 7.50001V13.8H4.8V7.50001C4.81875 6.99376 4.99687 6.57189 5.33437 6.23439C5.67188 5.89689 6.09375 5.71876 6.6 5.70001H17.4C17.9062 5.71876 18.3281 5.89689 18.6656 6.23439C19.0031 6.57189 19.1812 6.99376 19.2 7.50001V13.8H17.85V7.50001C17.8312 7.21876 17.6812 7.06876 17.4 7.05001ZM5.7 16.95H18.3C18.9187 16.9125 19.3406 16.6125 19.5656 16.05H4.43437C4.65937 16.6125 5.08125 16.9125 5.7 16.95ZM3 15.6C3 15.3375 3.08437 15.1219 3.25312 14.9531C3.42188 14.7844 3.6375 14.7 3.9 14.7H20.1C20.3625 14.7 20.5781 14.7844 20.7469 14.9531C20.9156 15.1219 21 15.3375 21 15.6C20.9812 16.3688 20.7188 17.0063 20.2125 17.5125C19.7062 18.0188 19.0688 18.2813 18.3 18.3H5.7C4.93125 18.2813 4.29375 18.0188 3.7875 17.5125C3.28125 17.0063 3.01875 16.3688 3 15.6Z"/></svg>