<svg width="24" height="24" viewBox="0 0 24 24" xmlns="http://www.w3.org/2000/svg" fill="#cacaca"><path d="M16.5993 15.0648C17.0533 15.1107 17.4079 15.4942 17.4079 15.9604C17.4077 16.4263 17.0532 16.8092 16.5993 16.8551L16.5079 16.8604H16.5C16.0031 16.8604 15.6002 16.4573 15.6 15.9604C15.6 15.4633 16.0029 15.0604 16.5 15.0604H16.5079L16.5993 15.0648Z"/><path fill-rule="evenodd" clip-rule="evenodd" d="M18.5575 7.50002C19.9473 7.50024 20.9999 8.67017 21 10.0198V17.5802C20.9999 18.9299 19.9473 20.0998 18.5575 20.1H14.4425C13.1395 20.0998 12.133 19.0714 12.0123 17.8307L12 17.5802V10.0198C12.0001 8.67017 13.0527 7.50024 14.4425 7.50002H18.5575ZM14.4425 9.30002C14.1285 9.30025 13.8001 9.5806 13.8 10.0198V17.5802L13.8035 17.6602C13.8406 18.0532 14.148 18.2998 14.4425 18.3H18.5575C18.8715 18.2998 19.1999 18.0195 19.2 17.5802V10.0198C19.1999 9.5806 18.8715 9.30025 18.5575 9.30002H14.4425Z"/><path d="M9.3 16.5C9.79706 16.5 10.2 16.903 10.2 17.4C10.2 17.8971 9.79706 18.3 9.3 18.3H3.9C3.6375 18.3 3.42188 18.2156 3.25312 18.0469C3.08437 17.8781 3 17.6625 3 17.4C3 17.1375 3.08437 16.9219 3.25312 16.7531C3.42188 16.5844 3.6375 16.5 3.9 16.5H9.3Z"/><path d="M20.1 3.90002C20.5971 3.90002 21 4.30297 21 4.80002C21 5.29708 20.5971 5.70002 20.1 5.70002H4.8V13.8H9.3C9.79706 13.8 10.2 14.203 10.2 14.7C10.2 15.1971 9.79706 15.6 9.3 15.6H4.8C4.29375 15.5813 3.87187 15.4031 3.53438 15.0656C3.19687 14.7281 3.01875 14.3063 3 13.8V5.70002C3.01875 5.19377 3.19687 4.7719 3.53438 4.4344C3.87187 4.0969 4.29375 3.91877 4.8 3.90002H20.1Z"/></svg>