<svg width="24" height="24" viewBox="0 0 24 24" xmlns="http://www.w3.org/2000/svg" fill="#cacaca"><path d="M19 10.333H10.333V19H18.2227C18.6519 18.9998 18.9998 18.6519 19 18.2227V10.333ZM5 18.2227C5.00023 18.6519 5.34813 18.9998 5.77734 19H8.33301V10.333H5V18.2227ZM19 5.77734C18.9998 5.34813 18.6519 5.00023 18.2227 5H5.77734C5.34813 5.00023 5.00023 5.34813 5 5.77734V8.33301H19V5.77734ZM21 18.2227C20.9998 19.7564 19.7564 20.9998 18.2227 21H5.77734C4.24356 20.9998 3.00023 19.7564 3 18.2227V5.77734C3.00023 4.24356 4.24356 3.00023 5.77734 3H18.2227C19.7564 3.00023 20.9998 4.24356 21 5.77734V18.2227Z"/></svg>