<svg width="24" height="24" viewBox="0 0 24 24" xmlns="http://www.w3.org/2000/svg" fill="#cacaca"><path d="M19.9102 3C20.2148 3 20.4727 3.10547 20.6836 3.31641C20.8945 3.52734 21 3.78516 21 4.08984V7.78125C20.9766 8.17969 20.7773 8.44922 20.4023 8.58984L16.5 9.85547V18.1875C16.4766 18.9844 16.0898 19.6523 15.3398 20.1914C14.6133 20.707 13.6875 20.9766 12.5625 21C11.4375 20.9766 10.5117 20.707 9.78516 20.1914C9.03516 19.6523 8.64844 18.9844 8.625 18.1875C8.64844 17.3906 9.03516 16.7227 9.78516 16.1836C10.5117 15.668 11.4375 15.3984 12.5625 15.375C13.4062 15.375 14.1562 15.5391 14.8125 15.8672V5.25C14.8359 4.85156 15.0234 4.58203 15.375 4.44141L19.5586 3.07031C19.6758 3.02344 19.793 3 19.9102 3ZM14.3555 17.5898C13.957 17.2617 13.3594 17.0859 12.5625 17.0625C11.7656 17.0859 11.168 17.2617 10.7695 17.5898C10.418 17.8711 10.2656 18.0703 10.3125 18.1875C10.2656 18.3047 10.418 18.5156 10.7695 18.8203C11.168 19.125 11.7656 19.2891 12.5625 19.3125C13.3594 19.2891 13.957 19.125 14.3555 18.8203C14.707 18.5156 14.8594 18.3047 14.8125 18.1875C14.8594 18.0703 14.707 17.8711 14.3555 17.5898ZM16.5 8.0625L19.3125 7.18359V4.93359L16.5 5.84766V8.0625ZM3.84375 4.6875H12.2812C12.7969 4.73438 13.0781 5.01562 13.125 5.53125C13.0781 6.04688 12.7969 6.32812 12.2812 6.375H3.84375C3.32812 6.32812 3.04688 6.04688 3 5.53125C3.04688 5.01562 3.32812 4.73438 3.84375 4.6875ZM3.84375 9.1875H12.2812C12.7969 9.23438 13.0781 9.51562 13.125 10.0312C13.0781 10.5469 12.7969 10.8281 12.2812 10.875H3.84375C3.32812 10.8281 3.04688 10.5469 3 10.0312C3.04688 9.51562 3.32812 9.23438 3.84375 9.1875ZM3.84375 13.6875H7.78125C8.29688 13.7344 8.57812 14.0156 8.625 14.5312C8.57812 15.0469 8.29688 15.3281 7.78125 15.375H3.84375C3.32812 15.3281 3.04688 15.0469 3 14.5312C3.04688 14.0156 3.32812 13.7344 3.84375 13.6875Z"/></svg>