<svg width="24" height="24" viewBox="0 0 24 24" xmlns="http://www.w3.org/2000/svg" fill="#cacaca"><path d="M11 21V17.4004C11 16.8481 11.4477 16.4004 12 16.4004C12.5523 16.4004 13 16.8481 13 17.4004V21C13 21.5523 12.5523 22 12 22C11.4477 22 11 21.5523 11 21ZM7.47656 15.1084C7.86693 14.7181 8.50009 14.7184 8.89062 15.1084C9.28115 15.4989 9.28115 16.1329 8.89062 16.5234L6.34375 19.0703C5.95321 19.4606 5.32012 19.4607 4.92969 19.0703C4.53926 18.6799 4.53945 18.0468 4.92969 17.6562L7.47656 15.1084ZM15.1084 15.1084C15.4989 14.7179 16.1329 14.7179 16.5234 15.1084L19.0703 17.6562C19.4605 18.0468 19.4607 18.6799 19.0703 19.0703C18.6799 19.4607 18.0468 19.4605 17.6562 19.0703L15.1084 16.5234C14.7179 16.1329 14.7179 15.4989 15.1084 15.1084ZM6.59961 11C7.15189 11 7.59961 11.4477 7.59961 12C7.59961 12.5523 7.15189 13 6.59961 13H3C2.44772 13 2 12.5523 2 12C2 11.4477 2.44772 11 3 11H6.59961ZM21 11C21.5523 11 22 11.4477 22 12C22 12.5523 21.5523 13 21 13H17.4004C16.8481 13 16.4004 12.5523 16.4004 12C16.4004 11.4477 16.8481 11 17.4004 11H21ZM4.92969 4.92969C5.32012 4.53925 5.9532 4.53944 6.34375 4.92969L8.89062 7.47656C9.28115 7.86709 9.28115 8.5001 8.89062 8.89062C8.5001 9.28115 7.86709 9.28115 7.47656 8.89062L4.92969 6.34375C4.53944 5.9532 4.53925 5.32012 4.92969 4.92969ZM17.6562 4.92969C18.0468 4.53945 18.6799 4.53926 19.0703 4.92969C19.4607 5.32012 19.4606 5.95321 19.0703 6.34375L16.5234 8.89062C16.1329 9.28115 15.4989 9.28115 15.1084 8.89062C14.7184 8.50009 14.7181 7.86693 15.1084 7.47656L17.6562 4.92969ZM11 6.59961V3C11 2.44772 11.4477 2 12 2C12.5523 2 13 2.44772 13 3V6.59961C13 7.15189 12.5523 7.59961 12 7.59961C11.4477 7.59961 11 7.15189 11 6.59961Z"/></svg>