<svg width="24" height="24" viewBox="0 0 24 24" xmlns="http://www.w3.org/2000/svg" fill="#cacaca"><path d="M12 3C12.5156 3.04688 12.7969 3.32812 12.8438 3.84375V5.32031C14.3906 5.53125 15.7031 6.16406 16.7812 7.21875C17.8359 8.29688 18.4805 9.60938 18.7148 11.1562H20.1562C20.6719 11.2031 20.9531 11.4844 21 12C20.9531 12.5156 20.6719 12.7969 20.1562 12.8438H18.7148C18.4805 14.3906 17.8359 15.7031 16.7812 16.7812C15.7031 17.8359 14.3906 18.4805 12.8438 18.7148V20.1562C12.7969 20.6719 12.5156 20.9531 12 21C11.4844 20.9531 11.2031 20.6719 11.1562 20.1562V18.7148C9.60938 18.4805 8.29688 17.8359 7.21875 16.7812C6.16406 15.7031 5.53125 14.3906 5.32031 12.8438H3.84375C3.32812 12.7969 3.04688 12.5156 3 12C3.04688 11.4844 3.32812 11.2031 3.84375 11.1562H5.32031C5.53125 9.60938 6.16406 8.29688 7.21875 7.21875C8.29688 6.16406 9.60938 5.53125 11.1562 5.32031V3.84375C11.2031 3.32812 11.4844 3.04688 12 3ZM6.9375 12C6.9375 12.9141 7.16016 13.7578 7.60547 14.5312C8.05078 15.3047 8.67188 15.9258 9.46875 16.3945C10.2656 16.8398 11.1094 17.0625 12 17.0625C12.8906 17.0625 13.7344 16.8398 14.5312 16.3945C15.3281 15.9258 15.9492 15.3047 16.3945 14.5312C16.8398 13.7578 17.0625 12.9141 17.0625 12C17.0625 11.0859 16.8398 10.2422 16.3945 9.46875C15.9492 8.69531 15.3281 8.07422 14.5312 7.60547C13.7344 7.16016 12.8906 6.9375 12 6.9375C11.1094 6.9375 10.2656 7.16016 9.46875 7.60547C8.67188 8.07422 8.05078 8.69531 7.60547 9.46875C7.16016 10.2422 6.9375 11.0859 6.9375 12ZM13.6875 12C13.6641 11.3672 13.3828 10.875 12.8438 10.5234C12.2812 10.2422 11.7188 10.2422 11.1562 10.5234C10.6172 10.875 10.3359 11.3672 10.3125 12C10.3359 12.6328 10.6172 13.125 11.1562 13.4766C11.7188 13.7578 12.2812 13.7578 12.8438 13.4766C13.3828 13.125 13.6641 12.6328 13.6875 12ZM8.625 12C8.625 11.3906 8.77734 10.8281 9.08203 10.3125C9.38672 9.79688 9.79688 9.38672 10.3125 9.08203C10.8516 8.77734 11.4141 8.625 12 8.625C12.5859 8.625 13.1484 8.77734 13.6875 9.08203C14.2031 9.38672 14.6133 9.79688 14.918 10.3125C15.2227 10.8281 15.375 11.3906 15.375 12C15.375 12.6094 15.2227 13.1719 14.918 13.6875C14.6133 14.2031 14.2031 14.6133 13.6875 14.918C13.1484 15.2227 12.5859 15.375 12 15.375C11.4141 15.375 10.8516 15.2227 10.3125 14.918C9.79688 14.6133 9.38672 14.2031 9.08203 13.6875C8.77734 13.1719 8.625 12.6094 8.625 12Z"/></svg>