<svg width="24" height="24" viewBox="0 0 24 24" xmlns="http://www.w3.org/2000/svg" fill="#cacaca"><path d="M17.0724 9.76321C17.0255 8.33072 16.5323 7.13307 15.593 6.17025C14.6302 5.23092 13.4325 4.73777 12 4.6908C10.5675 4.73777 9.36989 5.23092 8.40707 6.17025C7.46774 7.13307 6.97459 8.33072 6.92762 9.76321C6.92762 10.2094 7.10374 10.8787 7.45599 11.771C7.85521 12.6634 8.3601 13.6027 8.97067 14.589C9.48731 15.411 10.0039 16.1977 10.5206 16.9491C11.0607 17.7006 11.5538 18.3581 12 18.9217C12.4462 18.3581 12.9394 17.7006 13.4795 16.9491C14.0196 16.1977 14.5362 15.411 15.0294 14.589C15.6399 13.6027 16.1448 12.6634 16.5441 11.771C16.8963 10.8787 17.0724 10.2094 17.0724 9.76321ZM18.7632 9.76321C18.7163 10.82 18.3405 12.0411 17.636 13.4266C16.908 14.8121 16.0861 16.1507 15.1703 17.4423C14.2544 18.7573 13.4795 19.8023 12.8454 20.5773C12.6106 20.8591 12.3288 21 12 21C11.6713 21 11.3895 20.8591 11.1546 20.5773C10.5206 19.8023 9.74562 18.7573 8.82977 17.4423C7.91392 16.1507 7.092 14.8121 6.36402 13.4266C5.65952 12.0411 5.28378 10.82 5.23682 9.76321C5.28378 7.83757 5.94132 6.2407 7.20942 4.9726C8.47752 3.7045 10.0744 3.04697 12 3C13.9257 3.04697 15.5225 3.7045 16.7906 4.9726C18.0587 6.2407 18.7163 7.83757 18.7632 9.76321ZM13.1272 9.76321C13.1272 9.43444 13.0216 9.16438 12.8102 8.95303C12.5989 8.74168 12.3288 8.63601 12 8.63601C11.6713 8.63601 11.4012 8.74168 11.1898 8.95303C10.9785 9.16438 10.8728 9.43444 10.8728 9.76321C10.8728 10.092 10.9785 10.362 11.1898 10.5734C11.4012 10.7847 11.6713 10.8904 12 10.8904C12.3288 10.8904 12.5989 10.7847 12.8102 10.5734C13.0216 10.362 13.1272 10.092 13.1272 9.76321ZM9.18202 9.76321C9.20551 8.70646 9.67517 7.89628 10.591 7.33268C11.5304 6.81605 12.4697 6.81605 13.409 7.33268C14.3249 7.89628 14.7945 8.70646 14.818 9.76321C14.7945 10.82 14.3249 11.6301 13.409 12.1937C12.4697 12.7104 11.5304 12.7104 10.591 12.1937C9.67517 11.6301 9.20551 10.82 9.18202 9.76321Z"/></svg>