<svg width="24" height="24" viewBox="0 0 24 24" xmlns="http://www.w3.org/2000/svg" fill="#cacaca"><path d="M3.22267 4.16062L7.78313 7.75237C8.72021 6.81539 9.87595 6.25321 11.2503 6.06581V4.75404C11.292 4.29597 11.5419 4.04611 12 4.00446C12.4581 4.04611 12.708 4.29597 12.7497 4.75404V6.06581C14.1241 6.25321 15.2902 6.81539 16.2481 7.75237C17.1852 8.71017 17.7578 9.87618 17.9661 11.2504H19.2468C19.7049 11.2921 19.9548 11.5419 19.9964 12C19.9548 12.4581 19.7049 12.7079 19.2468 12.7496H17.9661C17.8411 13.6033 17.5704 14.3841 17.1539 15.092L21.7144 18.6525C22.0476 18.9649 22.0892 19.3188 21.8394 19.7144C21.527 20.0476 21.173 20.0892 20.7773 19.8394L2.28559 5.34746C1.9524 5.03514 1.91075 4.68117 2.16064 4.28555C2.473 3.95241 2.82701 3.91076 3.22267 4.16062ZM8.9701 8.68935L10.1883 9.62632C10.6881 9.23071 11.292 9.02249 12 9.00167C12.8538 9.02249 13.5618 9.314 14.1241 9.87618C14.6863 10.4384 14.9778 11.1463 14.9987 12C14.9987 12.4373 14.9154 12.8433 14.7488 13.2181L15.967 14.155C16.321 13.5096 16.498 12.7912 16.498 12C16.4563 10.7299 16.019 9.66797 15.1861 8.81428C14.3323 7.98141 13.2703 7.54415 12 7.50251C10.813 7.52333 9.80306 7.91894 8.9701 8.68935ZM13.4993 12.2186H13.4681C13.4889 12.1353 13.4993 12.0625 13.4993 12C13.4785 11.5836 13.3327 11.2296 13.062 10.9381C12.7705 10.6674 12.4165 10.5217 12 10.5008C11.7918 10.5008 11.6043 10.5321 11.4378 10.5945L13.4993 12.2186ZM14.9674 17.2158C14.3011 17.5906 13.5618 17.8405 12.7497 17.9654V19.246C12.708 19.704 12.4581 19.9539 12 19.9955C11.5419 19.9539 11.292 19.704 11.2503 19.246V17.9654C9.87595 17.7572 8.7098 17.1846 7.7519 16.2476C6.81482 15.2898 6.25257 14.1238 6.06515 12.7496H4.75324C4.29511 12.7079 4.04522 12.4581 4.00357 12C4.04522 11.5419 4.29511 11.2921 4.75324 11.2504H6.06515C6.08597 10.9381 6.14845 10.6362 6.25257 10.3447L7.53324 11.3753C7.51242 11.5836 7.50201 11.7918 7.50201 12C7.54366 13.2701 7.98096 14.332 8.81392 15.1857C9.66771 16.0394 10.7297 16.4767 12 16.4975C12.5831 16.4975 13.1349 16.3934 13.6555 16.1852L14.9674 17.2158Z"/></svg>