<svg width="24" height="24" viewBox="0 0 24 24" xmlns="http://www.w3.org/2000/svg" fill="#cacaca"><path d="M18 12.7993C18 12.4416 17.725 12.1997 17.4443 12.1997H6.55566C6.27499 12.1997 6.00002 12.4416 6 12.7993V18.3979C6 18.7556 6.27498 18.9975 6.55566 18.9975H17.4443C17.725 18.9975 18 18.7556 18 18.3979V12.7993ZM20 18.3979C20 19.8071 18.8819 20.9975 17.4443 20.9975H6.55566C5.11813 20.9975 4 19.8071 4 18.3979V12.7993C4.00002 11.3901 5.11815 10.1997 6.55566 10.1997H7.11133V8.00044C7.11038 6.76942 7.55369 5.57756 8.3623 4.65669C9.17204 3.73476 10.2916 3.14903 11.5059 3.0229C12.7203 2.89676 13.9337 3.2403 14.9102 3.97993C15.8246 4.67266 16.4687 5.66515 16.7422 6.78169L16.792 7.00728L16.8066 7.10786C16.8543 7.61267 16.513 8.08175 16.0049 8.18208C15.4968 8.2824 15.0023 7.97855 14.8545 7.49361L14.7637 7.12251C14.581 6.49991 14.2081 5.95629 13.7031 5.57368C13.1267 5.13705 12.4173 4.9391 11.7129 5.01216C11.0081 5.08537 10.3483 5.42601 9.86523 5.97603C9.38154 6.52676 9.11062 7.24767 9.11133 7.99947V10.1997H17.4443C18.8819 10.1997 20 11.3901 20 12.7993V18.3979Z"/></svg>