<svg width="24" height="24" viewBox="0 0 24 24" xmlns="http://www.w3.org/2000/svg" fill="#cacaca"><path d="M9 8.5C9 9.04167 9.13542 9.54167 9.40625 10C9.67708 10.4583 10.0417 10.8229 10.5 11.0938C10.9792 11.3646 11.4792 11.5 12 11.5C12.5208 11.5 13.0208 11.3646 13.5 11.0938C13.9583 10.8229 14.3229 10.4583 14.5938 10C14.8646 9.54167 15 9.04167 15 8.5C15 7.95833 14.8646 7.45833 14.5938 7C14.3229 6.54167 13.9583 6.17708 13.5 5.90625C13.0208 5.63542 12.5208 5.5 12 5.5C11.4792 5.5 10.9792 5.63542 10.5 5.90625C10.0417 6.17708 9.67708 6.54167 9.40625 7C9.13542 7.45833 9 7.95833 9 8.5ZM12.75 12.9375V19.25C12.7083 19.7083 12.4583 19.9583 12 20C11.5417 19.9583 11.2917 19.7083 11.25 19.25V12.9375C10.1667 12.7292 9.27083 12.2292 8.5625 11.4375C7.875 10.625 7.52083 9.64583 7.5 8.5C7.54167 7.22917 7.97917 6.16667 8.8125 5.3125C9.66667 4.47917 10.7292 4.04167 12 4C13.2708 4.04167 14.3333 4.47917 15.1875 5.3125C16.0208 6.16667 16.4583 7.22917 16.5 8.5C16.4792 9.64583 16.125 10.6146 15.4375 11.4062C14.7292 12.2188 13.8333 12.7292 12.75 12.9375Z"/></svg>