<svg width="24" height="24" viewBox="0 0 24 24" xmlns="http://www.w3.org/2000/svg" fill="#cacaca"><path d="M15.5357 3H20.0357C20.625 3.05357 20.9464 3.375 21 3.96429V8.46429C20.9464 9.05357 20.625 9.375 20.0357 9.42857C19.4464 9.375 19.125 9.05357 19.0714 8.46429V6.29464L15.6964 9.66964C16.6339 10.875 17.1161 12.2946 17.1429 13.9286C17.0893 15.9375 16.3929 17.5982 15.0536 18.9107C13.7411 20.25 12.0804 20.9464 10.0714 21C8.0625 20.9464 6.40179 20.25 5.08929 18.9107C3.75 17.5982 3.05357 15.9375 3 13.9286C3.05357 11.9196 3.75 10.2589 5.08929 8.94643C6.40179 7.60714 8.0625 6.91071 10.0714 6.85714C11.7054 6.88393 13.125 7.36607 14.3304 8.30357L17.7054 4.92857H15.5357C14.9464 4.875 14.625 4.55357 14.5714 3.96429C14.625 3.375 14.9464 3.05357 15.5357 3ZM4.92857 13.9286C4.92857 14.8661 5.15625 15.7232 5.61161 16.5C6.06696 17.2768 6.69643 17.9062 7.5 18.3884C8.30357 18.8438 9.16071 19.0714 10.0714 19.0714C10.9821 19.0714 11.8393 18.8438 12.6429 18.3884C13.4464 17.9062 14.0759 17.2768 14.5312 16.5C14.9866 15.7232 15.2143 14.8661 15.2143 13.9286C15.2143 12.9911 14.9866 12.1339 14.5312 11.3571C14.0759 10.5804 13.4464 9.95089 12.6429 9.46875C11.8393 9.01339 10.9821 8.78571 10.0714 8.78571C9.16071 8.78571 8.30357 9.01339 7.5 9.46875C6.69643 9.95089 6.06696 10.5804 5.61161 11.3571C5.15625 12.1339 4.92857 12.9911 4.92857 13.9286Z"/></svg>