<svg width="24" height="24" viewBox="0 0 24 24" xmlns="http://www.w3.org/2000/svg" fill="#cacaca"><path d="M3.14062 4.33594C3.04687 4.19531 3 4.04297 3 3.87891C3.04688 3.33984 3.33984 3.04688 3.87891 3H7.99219C8.41406 3.02344 8.73047 3.21094 8.94141 3.5625L11.1211 7.18359L11.332 7.53516C10.7461 7.58203 10.1719 7.71094 9.60938 7.92188L7.67578 4.6875H5.39062L8.0625 8.66016C7.57031 8.96484 7.125 9.32812 6.72656 9.75L3.14062 4.33594ZM12.8789 7.18359L15.0586 3.5625C15.2695 3.21094 15.5859 3.02344 16.0078 3H20.1211C20.6602 3.04688 20.9531 3.33984 21 3.87891C21 4.04297 20.9531 4.19531 20.8594 4.33594L17.2734 9.75C16.875 9.32812 16.4297 8.96484 15.9375 8.66016L18.6094 4.6875H16.3242L14.3906 7.88672C13.8281 7.69922 13.2539 7.58203 12.668 7.53516L12.8789 7.18359ZM12 10.3125C11.1797 10.3125 10.4297 10.5117 9.75 10.9102C9.07031 11.3086 8.51953 11.8594 8.09766 12.5625C7.69922 13.2656 7.5 14.0156 7.5 14.8125C7.5 15.6094 7.69922 16.3594 8.09766 17.0625C8.51953 17.7656 9.07031 18.3164 9.75 18.7148C10.4297 19.1133 11.1797 19.3125 12 19.3125C12.8203 19.3125 13.5703 19.1133 14.25 18.7148C14.9297 18.3164 15.4805 17.7656 15.9023 17.0625C16.3008 16.3594 16.5 15.6094 16.5 14.8125C16.5 14.0156 16.3008 13.2656 15.9023 12.5625C15.4805 11.8594 14.9297 11.3086 14.25 10.9102C13.5703 10.5117 12.8203 10.3125 12 10.3125ZM12 21C10.875 21 9.84375 20.7188 8.90625 20.1562C7.96875 19.6172 7.21875 18.8672 6.65625 17.9062C6.09375 16.9219 5.8125 15.8906 5.8125 14.8125C5.8125 13.7344 6.09375 12.7031 6.65625 11.7188C7.21875 10.7578 7.96875 10.0078 8.90625 9.46875C9.84375 8.90625 10.875 8.625 12 8.625C13.125 8.625 14.1562 8.90625 15.0938 9.46875C16.0312 10.0078 16.7812 10.7578 17.3438 11.7188C17.9062 12.7031 18.1875 13.7344 18.1875 14.8125C18.1875 15.8906 17.9062 16.9219 17.3438 17.9062C16.7812 18.8672 16.0312 19.6172 15.0938 20.1562C14.1562 20.7188 13.125 21 12 21ZM12.2461 11.9648L12.9141 13.3008C12.9609 13.3945 13.0312 13.4531 13.125 13.4766L14.6367 13.6875C14.8945 13.7812 14.9531 13.9453 14.8125 14.1797L13.7227 15.2344C13.6523 15.3047 13.6172 15.3867 13.6172 15.4805L13.8984 16.9922C13.875 17.25 13.7344 17.3438 13.4766 17.2734L12.1406 16.5703C12.0469 16.5234 11.9531 16.5234 11.8594 16.5703L10.5234 17.2734C10.2656 17.3438 10.125 17.25 10.1016 16.9922L10.3828 15.4805C10.3828 15.3867 10.3477 15.3047 10.2773 15.2344L9.1875 14.1797C9.04688 13.9453 9.10547 13.7812 9.36328 13.6875L10.875 13.4766C10.9688 13.4531 11.0391 13.3945 11.0859 13.3008L11.7539 11.9648C11.918 11.7539 12.082 11.7539 12.2461 11.9648Z"/></svg>