<svg width="24" height="24" viewBox="0 0 24 24" xmlns="http://www.w3.org/2000/svg" fill="#cacaca"><path d="M18.2857 7.5H5.71429V18.75C5.7381 19.1016 5.92857 19.2891 6.28571 19.3125H17.7143C18.0714 19.2891 18.2619 19.1016 18.2857 18.75V7.5ZM6.28571 3H17.7143C18.3571 3.02344 18.8929 3.24609 19.3214 3.66797C19.75 4.08984 19.9762 4.61719 20 5.25V18.75C19.9762 19.3828 19.75 19.9102 19.3214 20.332C18.8929 20.7539 18.3571 20.9766 17.7143 21H6.28571C5.64286 20.9766 5.10714 20.7539 4.67857 20.332C4.25 19.9102 4.02381 19.3828 4 18.75V5.25C4.02381 4.61719 4.25 4.08984 4.67857 3.66797C5.10714 3.24609 5.64286 3.02344 6.28571 3ZM7.42857 10.0312C7.47619 9.51562 7.7619 9.23438 8.28571 9.1875H15.7143C16.2381 9.23438 16.5238 9.51562 16.5714 10.0312C16.5238 10.5469 16.2381 10.8281 15.7143 10.875H8.28571C7.7619 10.8281 7.47619 10.5469 7.42857 10.0312ZM7.42857 13.4062C7.47619 12.8906 7.7619 12.6094 8.28571 12.5625H15.7143C16.2381 12.6094 16.5238 12.8906 16.5714 13.4062C16.5238 13.9219 16.2381 14.2031 15.7143 14.25H8.28571C7.7619 14.2031 7.47619 13.9219 7.42857 13.4062ZM7.42857 16.7812C7.47619 16.2656 7.7619 15.9844 8.28571 15.9375H12.2857C12.8095 15.9844 13.0952 16.2656 13.1429 16.7812C13.0952 17.2969 12.8095 17.5781 12.2857 17.625H8.28571C7.7619 17.5781 7.47619 17.2969 7.42857 16.7812Z"/></svg>