<svg width="24" height="24" viewBox="0 0 24 24" xmlns="http://www.w3.org/2000/svg" fill="#cacaca"><path d="M6.66667 3.875C6.25 3.90104 6.02778 4.10938 6 4.5V19.5C6.02778 19.8906 6.25 20.099 6.66667 20.125H17.3333C17.75 20.099 17.9722 19.8906 18 19.5V4.5C17.9722 4.10938 17.75 3.90104 17.3333 3.875H6.66667ZM4 4.5C4.02778 3.79688 4.29167 3.21094 4.79167 2.74219C5.29167 2.27344 5.91667 2.02604 6.66667 2H17.3333C18.0833 2.02604 18.7083 2.27344 19.2083 2.74219C19.7083 3.21094 19.9722 3.79688 20 4.5V19.5C19.9722 20.2031 19.7083 20.7891 19.2083 21.2578C18.7083 21.7266 18.0833 21.974 17.3333 22H6.66667C5.91667 21.974 5.29167 21.7266 4.79167 21.2578C4.29167 20.7891 4.02778 20.2031 4 19.5V4.5ZM9 7H15C15.6111 7.05208 15.9444 7.36458 16 7.9375C15.9444 8.51042 15.6111 8.82292 15 8.875H9C8.38889 8.82292 8.05556 8.51042 8 7.9375C8.05556 7.36458 8.38889 7.05208 9 7ZM9 10.75H15C15.6111 10.8021 15.9444 11.1146 16 11.6875C15.9444 12.2604 15.6111 12.5729 15 12.625H9C8.38889 12.5729 8.05556 12.2604 8 11.6875C8.05556 11.1146 8.38889 10.8021 9 10.75ZM9 14.5H11C11.6111 14.5521 11.9444 14.8646 12 15.4375C11.9444 16.0104 11.6111 16.3229 11 16.375H9C8.38889 16.3229 8.05556 16.0104 8 15.4375C8.05556 14.8646 8.38889 14.5521 9 14.5Z"/></svg>