<svg width="24" height="24" viewBox="0 0 24 24" xmlns="http://www.w3.org/2000/svg" fill="#cacaca"><path d="M10.3125 17.6289V18.1914L12.8789 16.293C13.1602 16.0586 13.4883 15.9414 13.8633 15.9414H18.75C19.1016 15.918 19.2891 15.7305 19.3125 15.3789V5.25391C19.2891 4.90234 19.1016 4.71484 18.75 4.69141H5.25C4.89844 4.71484 4.71094 4.90234 4.6875 5.25391V15.3789C4.71094 15.7305 4.89844 15.918 5.25 15.9414H8.625C9.09375 15.9648 9.49219 16.1289 9.82031 16.4336C10.125 16.7617 10.2891 17.1602 10.3125 17.6289ZM10.3125 20.3008L10.1367 20.4414L9.53906 20.8984C9.35156 21.0156 9.15234 21.0273 8.94141 20.9336C8.73047 20.8398 8.625 20.6758 8.625 20.4414V17.6289H5.25C4.61719 17.6055 4.08984 17.3828 3.66797 16.9609C3.24609 16.5391 3.02344 16.0117 3 15.3789V5.25391C3.02344 4.62109 3.24609 4.09375 3.66797 3.67188C4.08984 3.25 4.61719 3.02734 5.25 3.00391H18.75C19.3828 3.02734 19.9102 3.25 20.332 3.67188C20.7539 4.09375 20.9766 4.62109 21 5.25391V15.3789C20.9766 16.0117 20.7539 16.5391 20.332 16.9609C19.9102 17.3828 19.3828 17.6055 18.75 17.6289H13.8633L10.3125 20.3008ZM8.0625 11.4414C7.73438 11.4414 7.46484 11.3359 7.25391 11.125C7.04297 10.9141 6.9375 10.6445 6.9375 10.3164C6.9375 9.98828 7.04297 9.71875 7.25391 9.50781C7.46484 9.29688 7.73438 9.19141 8.0625 9.19141C8.39062 9.19141 8.66016 9.29688 8.87109 9.50781C9.08203 9.71875 9.1875 9.98828 9.1875 10.3164C9.1875 10.6445 9.08203 10.9141 8.87109 11.125C8.66016 11.3359 8.39062 11.4414 8.0625 11.4414ZM13.125 10.3164C13.125 10.6445 13.0195 10.9141 12.8086 11.125C12.5977 11.3359 12.3281 11.4414 12 11.4414C11.6719 11.4414 11.4023 11.3359 11.1914 11.125C10.9805 10.9141 10.875 10.6445 10.875 10.3164C10.875 9.98828 10.9805 9.71875 11.1914 9.50781C11.4023 9.29688 11.6719 9.19141 12 9.19141C12.3281 9.19141 12.5977 9.29688 12.8086 9.50781C13.0195 9.71875 13.125 9.98828 13.125 10.3164ZM15.9375 11.4414C15.6094 11.4414 15.3398 11.3359 15.1289 11.125C14.918 10.9141 14.8125 10.6445 14.8125 10.3164C14.8125 9.98828 14.918 9.71875 15.1289 9.50781C15.3398 9.29688 15.6094 9.19141 15.9375 9.19141C16.2656 9.19141 16.5352 9.29688 16.7461 9.50781C16.957 9.71875 17.0625 9.98828 17.0625 10.3164C17.0625 10.6445 16.957 10.9141 16.7461 11.125C16.5352 11.3359 16.2656 11.4414 15.9375 11.4414Z"/></svg>