<svg width="24" height="24" viewBox="0 0 24 24" xmlns="http://www.w3.org/2000/svg" fill="#cacaca"><path d="M15.0938 15.9375H18.75C19.1016 15.9141 19.2891 15.7266 19.3125 15.375V5.25C19.2891 4.89844 19.1016 4.71094 18.75 4.6875H5.25C4.89844 4.71094 4.71094 4.89844 4.6875 5.25V15.375C4.71094 15.7266 4.89844 15.9141 5.25 15.9375H8.94141C9.45703 15.9375 9.87891 16.1367 10.207 16.5352L12 18.6797L13.793 16.5352C14.1211 16.1367 14.5547 15.9375 15.0938 15.9375ZM8.94141 17.625H5.25C4.61719 17.6016 4.08984 17.3789 3.66797 16.957C3.24609 16.5352 3.02344 16.0078 3 15.375V5.25C3.02344 4.61719 3.24609 4.08984 3.66797 3.66797C4.08984 3.24609 4.61719 3.02344 5.25 3H18.75C19.3828 3.02344 19.9102 3.24609 20.332 3.66797C20.7539 4.08984 20.9766 4.61719 21 5.25V15.375C20.9766 16.0078 20.7539 16.5352 20.332 16.957C19.9102 17.3789 19.3828 17.6016 18.75 17.625H15.0938L12.4219 20.7891C12.3047 20.9297 12.1641 21 12 21C11.8359 21 11.6953 20.9297 11.5781 20.7891L8.94141 17.625Z"/></svg>