<svg width="24" height="24" viewBox="0 0 24 24" xmlns="http://www.w3.org/2000/svg" fill="#cacaca"><path d="M4.35 6.82822V11.7782C4.3875 12.1907 4.6125 12.4157 5.025 12.4532H6.375C6.7875 12.4907 7.0125 12.7157 7.05 13.1282V13.6626L8.70937 12.5657C8.82187 12.4907 8.94375 12.4532 9.075 12.4532H12.675C13.0875 12.4157 13.3125 12.1907 13.35 11.7782V6.82822C13.3125 6.41572 13.0875 6.19072 12.675 6.15322H5.025C4.6125 6.19072 4.3875 6.41572 4.35 6.82822ZM5.025 4.80322H12.675C13.2562 4.82197 13.7344 5.01885 14.1094 5.39385C14.4844 5.76885 14.6812 6.24697 14.7 6.82822V11.7782C14.6812 12.3595 14.4844 12.8376 14.1094 13.2126C13.7344 13.5876 13.2562 13.7845 12.675 13.8032H9.27187L6.74062 15.4907C6.51562 15.622 6.29062 15.6313 6.06562 15.5188C5.84062 15.3876 5.71875 15.1907 5.7 14.9282V13.8032H5.025C4.44375 13.7845 3.96562 13.5876 3.59062 13.2126C3.21563 12.8376 3.01875 12.3595 3 11.7782V6.82822C3.01875 6.24697 3.21563 5.76885 3.59062 5.39385C3.96562 5.01885 4.44375 4.82197 5.025 4.80322ZM10.2 15.3782V14.7032H11.55V15.3782C11.5875 15.7907 11.8125 16.0157 12.225 16.0532H14.925C15.0562 16.0532 15.1781 16.0907 15.2906 16.1657L16.95 17.2626V16.7282C16.9875 16.3157 17.2125 16.0907 17.625 16.0532H18.975C19.3875 16.0157 19.6125 15.7907 19.65 15.3782V10.4282C19.6125 10.0157 19.3875 9.79072 18.975 9.75322H15.6V8.40322H18.975C19.5562 8.42197 20.0344 8.61885 20.4094 8.99385C20.7844 9.36885 20.9812 9.84697 21 10.4282V15.3782C20.9812 15.9595 20.7844 16.4376 20.4094 16.8126C20.0344 17.1876 19.5562 17.3845 18.975 17.4032H18.3V18.5282C18.2812 18.7907 18.1594 18.9876 17.9344 19.1188C17.7094 19.2313 17.4844 19.222 17.2594 19.0907L14.7281 17.4032H12.225C11.6438 17.3845 11.1656 17.1876 10.7906 16.8126C10.4156 16.4376 10.2188 15.9595 10.2 15.3782Z"/></svg>