<svg width="24" height="24" fill="#cacaca" xmlns="http://www.w3.org/2000/svg"><path d="M8.625 16.061c.469.024.867.188 1.195.493.305.328.47.726.492 1.195v.562l2.567-1.898c.281-.234.61-.352.984-.352h4.887c.352-.023.54-.21.563-.562V5.374c-.024-.352-.211-.54-.563-.563H5.25c-.352.024-.54.211-.563.563v10.125c.024.351.211.539.563.562h3.375zm1.688 4.36l-.176.14-.598.457a.603.603 0 01-.598.036.498.498 0 01-.316-.493V17.75H5.25c-.633-.023-1.16-.246-1.582-.668-.422-.422-.645-.95-.668-1.582V5.374c.023-.633.246-1.16.668-1.582.422-.422.95-.645 1.582-.668h13.5c.633.023 1.16.246 1.582.668.422.422.645.95.668 1.582v10.125c-.023.633-.246 1.16-.668 1.582-.422.422-.95.645-1.582.668h-4.887l-3.55 2.672z"/></svg>