<svg width="24" height="24" viewBox="0 0 24 24" xmlns="http://www.w3.org/2000/svg" fill="#cacaca"><path d="M17.875 11.4375C17.125 12.125 16.2708 12.4792 15.3125 12.5L12.75 14.875V19.25C12.7083 19.7083 12.4583 19.9583 12 20C11.5417 19.9583 11.2917 19.7083 11.25 19.25V16.2812L7.875 19.4688C7.47917 19.8229 7.02083 20 6.5 20C5.95833 20 5.48958 19.8021 5.09375 19.4062L4.59375 18.9062C4.19792 18.5104 4 18.0417 4 17.5C4 16.9792 4.17708 16.5208 4.53125 16.125L11.5 8.71875C11.5208 7.73958 11.875 6.875 12.5625 6.125L13.625 5.0625C14.3958 4.35417 15.2812 4 16.2812 4C17.2604 4 18.1354 4.36458 18.9062 5.09375C19.6354 5.86458 20 6.73958 20 7.71875C20 8.71875 19.6458 9.60417 18.9375 10.375L17.875 11.4375ZM15.3125 11C15.875 10.9792 16.375 10.7708 16.8125 10.375L13.625 7.1875C13.2292 7.625 13.0208 8.125 13 8.6875L15.3125 11ZM17.875 9.3125C18.2917 8.85417 18.5 8.32292 18.5 7.71875C18.5 7.13542 18.2812 6.61458 17.8438 6.15625C17.3854 5.71875 16.8646 5.5 16.2812 5.5C15.6771 5.5 15.1458 5.70833 14.6875 6.125L17.875 9.3125ZM6.5 18.5C6.625 18.5 6.73958 18.4583 6.84375 18.375L13.9375 11.75L12.2812 10.0938L5.625 17.1562C5.54167 17.2604 5.5 17.375 5.5 17.5C5.5 17.625 5.55208 17.7396 5.65625 17.8438L6.15625 18.375C6.26042 18.4583 6.375 18.5 6.5 18.5Z"/></svg>