<svg width="24" height="24" viewBox="0 0 24 24" xmlns="http://www.w3.org/2000/svg" fill="#cacaca"><path d="M12 4.6875C10.6641 4.6875 9.44531 5.01562 8.34375 5.67188C7.24219 6.30469 6.35156 7.19531 5.67188 8.34375C5.01562 9.49219 4.6875 10.7109 4.6875 12C4.6875 13.2891 5.01562 14.5078 5.67188 15.6562C6.35156 16.8047 7.24219 17.6953 8.34375 18.3281C9.44531 18.9844 10.6641 19.3125 12 19.3125C13.3359 19.3125 14.5547 18.9844 15.6562 18.3281C16.7578 17.6953 17.6484 16.8047 18.3281 15.6562C18.9844 14.5078 19.3125 13.2891 19.3125 12C19.3125 10.7109 18.9844 9.49219 18.3281 8.34375C17.6484 7.19531 16.7578 6.30469 15.6562 5.67188C14.5547 5.01562 13.3359 4.6875 12 4.6875ZM12 21C10.3594 20.9766 8.85938 20.5781 7.5 19.8047C6.14062 19.0078 5.03906 17.9062 4.19531 16.5C3.39844 15.0703 3 13.5703 3 12C3 10.4297 3.39844 8.92969 4.19531 7.5C5.03906 6.09375 6.14062 4.99219 7.5 4.19531C8.85938 3.42188 10.3594 3.02344 12 3C13.6406 3.02344 15.1406 3.42188 16.5 4.19531C17.8594 4.99219 18.9609 6.09375 19.8047 7.5C20.6016 8.92969 21 10.4297 21 12C21 13.5703 20.6016 15.0703 19.8047 16.5C18.9609 17.9062 17.8594 19.0078 16.5 19.8047C15.1406 20.5781 13.6406 20.9766 12 21ZM9.46875 11.1562H14.5312C15.0469 11.2031 15.3281 11.4844 15.375 12C15.3281 12.5156 15.0469 12.7969 14.5312 12.8438H9.46875C8.95312 12.7969 8.67188 12.5156 8.625 12C8.67188 11.4844 8.95312 11.2031 9.46875 11.1562Z"/></svg>