<svg width="24" height="24" viewBox="0 0 24 24" xmlns="http://www.w3.org/2000/svg" fill="#cacaca"><path d="M17 4.7998C16.9999 4.31175 16.635 4.00025 16.2861 4H7.71387C7.36497 4.00025 7.0001 4.31175 7 4.7998V19.2002L7.00391 19.2891C7.04511 19.7258 7.38663 19.9998 7.71387 20H16.2861C16.635 19.9998 16.9999 19.6883 17 19.2002V4.7998ZM12.0088 16.4004L12.1104 16.4053C12.6148 16.4563 13.0088 16.8825 13.0088 17.4004C13.0086 17.9181 12.6147 18.3435 12.1104 18.3945L12.0088 18.4004H12C11.4478 18.4004 11.0002 17.9525 11 17.4004C11 16.8481 11.4477 16.4004 12 16.4004H12.0088ZM19 19.2002C18.9999 20.6998 17.8303 21.9998 16.2861 22H7.71387C6.2661 21.9998 5.1478 20.8571 5.01367 19.4785L5 19.2002V4.7998C5.0001 3.30016 6.16967 2.00023 7.71387 2H16.2861C17.8303 2.00023 18.9999 3.30016 19 4.7998V19.2002Z"/></svg>