<svg width="24" height="24" viewBox="0 0 24 24" xmlns="http://www.w3.org/2000/svg" fill="#cacaca"><g clip-path="url(#clip0_14206_8569)"><path d="M5.96463 6.83654C5.93237 7.47794 5.71235 8.01684 5.299 8.45006C4.88587 8.88292 4.37097 9.11483 3.75785 9.1492V14.8498C4.37099 14.8842 4.88586 15.117 5.299 15.5499C5.71235 15.9832 5.93237 16.522 5.96463 17.1635H18.0353C18.0676 16.522 18.2877 15.9832 18.701 15.5499C19.1142 15.117 19.629 14.8842 20.2422 14.8498V9.1492C19.629 9.11483 19.1142 8.88292 18.701 8.45006C18.2877 8.01684 18.0676 7.47794 18.0353 6.83654H5.96463ZM12 8.47528C12.6081 8.47528 13.1703 8.63469 13.685 8.95332C14.1347 9.2318 14.5042 9.59449 14.7927 10.0413L14.9113 10.2381C15.2144 10.8001 15.367 11.3881 15.367 12C15.367 12.6119 15.2144 13.199 14.9113 13.7609C14.6079 14.2989 14.1989 14.7285 13.685 15.0467C13.1703 15.3654 12.6081 15.5247 12 15.5247C11.3919 15.5247 10.8297 15.3654 10.315 15.0467C9.80114 14.7285 9.3921 14.2998 9.08872 13.7619C8.78561 13.1999 8.63298 12.6119 8.63298 12C8.63298 11.3881 8.78561 10.801 9.08872 10.2391C9.3921 9.70114 9.80114 9.27155 10.315 8.95332C10.8297 8.63469 11.3919 8.47528 12 8.47528ZM22 16.635C21.9766 17.2975 21.7541 17.8531 21.3305 18.297C20.9066 18.7411 20.3751 18.9754 19.7408 19H4.25925C3.62492 18.9754 3.09339 18.7411 2.66952 18.297C2.2459 17.8531 2.02342 17.2975 2 16.635V7.36501C2.02342 6.70251 2.2459 6.14696 2.66952 5.703C3.09339 5.25888 3.62492 5.02462 4.25925 5H19.7408C20.3751 5.02462 20.9066 5.25888 21.3305 5.703C21.7541 6.14696 21.9766 6.70251 22 7.36501V16.635Z" stroke="#292B33" stroke-opacity="0.2" stroke-width="0.1"/></g><defs><clipPath id="clip0_14206_8569"><rect width="20" height="14" fill="white" transform="translate(2 5)"/></clipPath></defs></svg>