<svg width="24" height="24" viewBox="0 0 24 24" xmlns="http://www.w3.org/2000/svg" fill="#cacaca"><path d="M10.1698 5.97544C7.98947 7.08473 6.49768 9.3798 6.49768 11.9809C6.49768 15.7295 9.48127 18.7131 13.1916 18.7131C13.6889 18.7131 14.1862 18.6748 14.6834 18.5601C11.3173 17.4125 8.9075 14.1994 8.9075 10.4508C8.9075 8.80603 9.36651 7.27598 10.1698 5.97544ZM12.5414 3.45087C12.6561 3.45087 12.7326 3.45087 12.8091 3.45087C12.9621 3.45087 13.0769 3.45087 13.1916 3.45087C13.3064 3.45087 13.4211 3.45087 13.4976 3.45087C13.6506 3.45087 13.7654 3.45087 13.9184 3.45087C14.1862 3.48912 14.4157 3.68037 14.4539 3.94813C14.5304 4.21589 14.4157 4.48365 14.1862 4.5984C14.0332 4.6749 13.9184 4.75141 13.8036 4.82791C13.6506 4.94266 13.4976 5.05742 13.3446 5.17217C13.2681 5.21042 13.2299 5.24867 13.1916 5.28692C11.6998 6.51096 10.7436 8.38527 10.7436 10.4891C10.7436 14.1994 13.7654 17.183 17.4375 17.2213C17.4758 17.2213 17.4758 17.2213 17.4758 17.2213C17.514 17.2213 17.5523 17.2213 17.5905 17.2213C17.82 17.183 18.0113 17.183 18.2025 17.183C18.3173 17.1448 18.4703 17.1448 18.6233 17.1065C18.8911 17.0683 19.1588 17.183 19.2736 17.4125C19.3883 17.6803 19.3501 17.9481 19.1588 18.1393C19.0441 18.2541 18.9676 18.3306 18.8528 18.4071C18.6615 18.5601 18.5085 18.7131 18.3173 18.8661C18.2408 18.9043 18.1643 18.9808 18.0878 19.0191C16.7107 19.9754 15.0277 20.5491 13.1916 20.5491C8.48674 20.5491 4.66162 16.724 4.66162 11.9809C4.66162 7.46724 8.14248 3.79513 12.5414 3.45087Z"/></svg>