<svg width="24" height="24" viewBox="0 0 24 24" xmlns="http://www.w3.org/2000/svg" fill="#cacaca"><path d="M20 4.96875V8.5C20 8.5 20 8.51042 20 8.53125V15.5C19.9792 16.2083 19.6875 16.8021 19.125 17.2812C18.5625 17.7396 17.8542 17.9792 17 18C16.1458 17.9792 15.4375 17.7396 14.875 17.2812C14.3125 16.8021 14.0208 16.2083 14 15.5C14.0208 14.7917 14.3125 14.1979 14.875 13.7188C15.4375 13.2604 16.1458 13.0208 17 13C17.5625 13 18.0625 13.1146 18.5 13.3438V9.53125L10 12.125V17.5C9.97917 18.2083 9.6875 18.8021 9.125 19.2812C8.5625 19.7396 7.85417 19.9792 7 20C6.14583 19.9792 5.4375 19.7396 4.875 19.2812C4.3125 18.8021 4.02083 18.2083 4 17.5C4.02083 16.7917 4.3125 16.1979 4.875 15.7188C5.4375 15.2604 6.14583 15.0208 7 15C7.5625 15 8.0625 15.1146 8.5 15.3438V7.75C8.52083 7.39583 8.69792 7.15625 9.03125 7.03125L18.75 4.03125C18.8333 4.01042 18.9271 4 19.0312 4C19.3021 4 19.5312 4.09375 19.7188 4.28125C19.9062 4.46875 20 4.69792 20 4.96875ZM18.5 15.5C18.5 15.3333 18.3854 15.125 18.1562 14.875C17.9271 14.6458 17.5417 14.5208 17 14.5C16.4583 14.5208 16.0729 14.6458 15.8438 14.875C15.6146 15.125 15.5 15.3333 15.5 15.5C15.5 15.6667 15.6146 15.875 15.8438 16.125C16.0729 16.3542 16.4583 16.4792 17 16.5C17.5417 16.4792 17.9271 16.3542 18.1562 16.125C18.3854 15.875 18.5 15.6667 18.5 15.5ZM8.5 17.5C8.5 17.3333 8.38542 17.125 8.15625 16.875C7.92708 16.6458 7.54167 16.5208 7 16.5C6.45833 16.5208 6.07292 16.6458 5.84375 16.875C5.61458 17.125 5.5 17.3333 5.5 17.5C5.5 17.6667 5.61458 17.875 5.84375 18.125C6.07292 18.3542 6.45833 18.4792 7 18.5C7.54167 18.4792 7.92708 18.3542 8.15625 18.125C8.38542 17.875 8.5 17.6667 8.5 17.5ZM18.5 7.9375V5.6875L10 8.3125V10.5625L18.5 7.9375Z"/></svg>