<svg width="24" height="24" viewBox="0 0 24 24" xmlns="http://www.w3.org/2000/svg" fill="#cacaca"><path d="M19.0313 4.00007C19.3022 4.00007 19.5313 4.09382 19.7188 4.28132C19.9063 4.46882 20.0001 4.69799 20.0001 4.96882V8.50007C20.0001 8.50007 20.0001 8.51049 20.0001 8.53132V15.5001C20.0001 16.0209 19.823 16.4897 19.4688 16.9063L21.7188 18.6563C22.0522 18.9688 22.0938 19.323 21.8438 19.7188C21.5313 20.0522 21.1772 20.0938 20.7813 19.8438L2.28132 5.34382C1.94799 5.03132 1.90632 4.67715 2.15632 4.28132C2.46882 3.94799 2.82299 3.90632 3.21882 4.15632L8.50007 8.31257V7.75007C8.5209 7.3959 8.69799 7.15632 9.03132 7.03132L18.7501 4.03132C18.8334 4.01049 18.9272 4.00007 19.0313 4.00007ZM10.0001 9.46882L11.0001 10.2501L18.5001 7.93757V5.68757L10.0001 8.31257V9.46882ZM12.4376 11.3751L15.1563 13.5313C15.6772 13.198 16.2917 13.0209 17.0001 13.0001C17.5626 13.0001 18.0626 13.1147 18.5001 13.3438V9.53132L12.4376 11.3751ZM16.4688 14.5626L18.2813 15.9688C18.4272 15.7813 18.5001 15.6251 18.5001 15.5001C18.5001 15.3334 18.3855 15.1251 18.1563 14.8751C17.9272 14.6459 17.5417 14.5209 17.0001 14.5001C16.8126 14.5001 16.6355 14.5209 16.4688 14.5626ZM8.50007 12.1251L10.0001 13.3126V17.5001C9.97924 18.2084 9.68757 18.8022 9.12507 19.2813C8.56257 19.7397 7.85424 19.9792 7.00007 20.0001C6.1459 19.9792 5.43757 19.7397 4.87507 19.2813C4.31257 18.8022 4.0209 18.2084 4.00007 17.5001C4.0209 16.7917 4.31257 16.198 4.87507 15.7188C5.43757 15.2605 6.1459 15.0209 7.00007 15.0001C7.56257 15.0001 8.06257 15.1147 8.50007 15.3438V12.1251ZM7.00007 16.5001C6.4584 16.5209 6.07299 16.6459 5.84382 16.8751C5.61465 17.1251 5.50007 17.3334 5.50007 17.5001C5.50007 17.6667 5.61465 17.8751 5.84382 18.1251C6.07299 18.3542 6.4584 18.4792 7.00007 18.5001C7.54174 18.4792 7.92715 18.3542 8.15632 18.1251C8.38549 17.8751 8.50007 17.6667 8.50007 17.5001C8.50007 17.3334 8.38549 17.1251 8.15632 16.8751C7.92715 16.6459 7.54174 16.5209 7.00007 16.5001Z"/></svg>