<svg width="24" height="24" viewBox="0 0 24 24" xmlns="http://www.w3.org/2000/svg" fill="#cacaca"><path d="M18.0001 4.96882V8.25007C17.9792 8.62507 17.7917 8.86465 17.4376 8.96882L13.0001 10.0938V11.8438L21.7188 18.6563C22.0522 18.9688 22.0938 19.323 21.8438 19.7188C21.5313 20.0522 21.1772 20.0938 20.7813 19.8438L2.28132 5.34382C1.94799 5.03132 1.90632 4.67715 2.15632 4.28132C2.46882 3.94799 2.82299 3.90632 3.21882 4.15632L11.5001 10.6563V6.00007C11.5209 5.62507 11.7084 5.38549 12.0626 5.28132L16.7813 4.03132C16.8647 4.01049 16.948 4.00007 17.0313 4.00007C17.3022 4.00007 17.5313 4.09382 17.7188 4.28132C17.9063 4.46882 18.0001 4.69799 18.0001 4.96882ZM11.5001 15.4376V14.5001L13.0001 15.6563V17.5001C12.9792 18.2084 12.6355 18.8022 11.9688 19.2813C11.323 19.7397 10.5001 19.9792 9.50007 20.0001C8.50007 19.9792 7.67715 19.7397 7.03132 19.2813C6.36465 18.8022 6.0209 18.2084 6.00007 17.5001C6.0209 16.7917 6.36465 16.198 7.03132 15.7188C7.67715 15.2605 8.50007 15.0209 9.50007 15.0001C10.2501 15.0001 10.9167 15.1459 11.5001 15.4376ZM11.5001 17.5001C11.5417 17.3959 11.4063 17.2188 11.0938 16.9688C10.7397 16.6772 10.2084 16.5209 9.50007 16.5001C8.79174 16.5209 8.26049 16.6772 7.90632 16.9688C7.59382 17.2188 7.4584 17.3959 7.50007 17.5001C7.4584 17.6042 7.59382 17.7917 7.90632 18.0626C8.26049 18.3334 8.79174 18.4792 9.50007 18.5001C10.2084 18.4792 10.7397 18.3334 11.0938 18.0626C11.4063 17.7917 11.5417 17.6042 11.5001 17.5001ZM16.5001 7.65632V5.65632L13.0001 6.59382V8.56257L16.5001 7.65632Z"/></svg>