<svg width="24" height="24" viewBox="0 0 24 24" xmlns="http://www.w3.org/2000/svg" fill="#cacaca"><path d="M18 4.96875V8.25C17.9792 8.625 17.7917 8.86458 17.4375 8.96875L13 10.0938V17.5C12.9792 18.2083 12.6354 18.8021 11.9688 19.2812C11.3229 19.7396 10.5 19.9792 9.5 20C8.5 19.9792 7.67708 19.7396 7.03125 19.2812C6.36458 18.8021 6.02083 18.2083 6 17.5C6.02083 16.7917 6.36458 16.1979 7.03125 15.7188C7.67708 15.2604 8.5 15.0208 9.5 15C10.25 15 10.9167 15.1458 11.5 15.4375V6C11.5208 5.625 11.7083 5.38542 12.0625 5.28125L16.7812 4.03125C16.8646 4.01042 16.9479 4 17.0312 4C17.3021 4 17.5312 4.09375 17.7188 4.28125C17.9062 4.46875 18 4.69792 18 4.96875ZM11.5 17.5C11.5417 17.3958 11.4062 17.2188 11.0938 16.9688C10.7396 16.6771 10.2083 16.5208 9.5 16.5C8.79167 16.5208 8.26042 16.6771 7.90625 16.9688C7.59375 17.2188 7.45833 17.3958 7.5 17.5C7.45833 17.6042 7.59375 17.7917 7.90625 18.0625C8.26042 18.3333 8.79167 18.4792 9.5 18.5C10.2083 18.4792 10.7396 18.3333 11.0938 18.0625C11.4062 17.7917 11.5417 17.6042 11.5 17.5ZM16.5 7.65625V5.65625L13 6.59375V8.5625L16.5 7.65625Z"/></svg>