<svg width="24" height="24" viewBox="0 0 24 24" xmlns="http://www.w3.org/2000/svg" fill="#cacaca"><path d="M8.90625 5.8125C8.39062 5.85938 8.10938 6.14062 8.0625 6.65625V17.3438C8.0625 17.6484 8.01562 17.9297 7.92188 18.1875H18.4688C18.9844 18.1406 19.2656 17.8594 19.3125 17.3438V6.65625C19.2656 6.14062 18.9844 5.85938 18.4688 5.8125H8.90625ZM5.53125 19.875C4.80469 19.8516 4.20703 19.6055 3.73828 19.1367C3.26953 18.668 3.02344 18.0703 3 17.3438V6.9375C3.04688 6.42188 3.32812 6.14062 3.84375 6.09375C4.35938 6.14062 4.64062 6.42188 4.6875 6.9375V17.3438C4.73438 17.8594 5.01562 18.1406 5.53125 18.1875C6.04688 18.1406 6.32812 17.8594 6.375 17.3438V6.65625C6.39844 5.92969 6.64453 5.33203 7.11328 4.86328C7.58203 4.39453 8.17969 4.14844 8.90625 4.125H18.4688C19.1953 4.14844 19.793 4.39453 20.2617 4.86328C20.7305 5.33203 20.9766 5.92969 21 6.65625V17.3438C20.9766 18.0703 20.7305 18.668 20.2617 19.1367C19.793 19.6055 19.1953 19.8516 18.4688 19.875H5.53125ZM9.1875 7.78125C9.23438 7.26562 9.51562 6.98438 10.0312 6.9375H13.4062C13.9219 6.98438 14.2031 7.26562 14.25 7.78125V10.5938C14.2031 11.1094 13.9219 11.3906 13.4062 11.4375H10.0312C9.51562 11.3906 9.23438 11.1094 9.1875 10.5938V7.78125ZM16.2188 6.9375H17.3438C17.8594 6.98438 18.1406 7.26562 18.1875 7.78125C18.1406 8.29688 17.8594 8.57812 17.3438 8.625H16.2188C15.7031 8.57812 15.4219 8.29688 15.375 7.78125C15.4219 7.26562 15.7031 6.98438 16.2188 6.9375ZM16.2188 9.75H17.3438C17.8594 9.79688 18.1406 10.0781 18.1875 10.5938C18.1406 11.1094 17.8594 11.3906 17.3438 11.4375H16.2188C15.7031 11.3906 15.4219 11.1094 15.375 10.5938C15.4219 10.0781 15.7031 9.79688 16.2188 9.75ZM10.0312 12.5625H17.3438C17.8594 12.6094 18.1406 12.8906 18.1875 13.4062C18.1406 13.9219 17.8594 14.2031 17.3438 14.25H10.0312C9.51562 14.2031 9.23438 13.9219 9.1875 13.4062C9.23438 12.8906 9.51562 12.6094 10.0312 12.5625ZM10.0312 15.375H17.3438C17.8594 15.4219 18.1406 15.7031 18.1875 16.2188C18.1406 16.7344 17.8594 17.0156 17.3438 17.0625H10.0312C9.51562 17.0156 9.23438 16.7344 9.1875 16.2188C9.23438 15.7031 9.51562 15.4219 10.0312 15.375Z"/></svg>