<svg width="24" height="24" viewBox="0 0 24 24" xmlns="http://www.w3.org/2000/svg" fill="#cacaca"><path d="M5.57143 4.92857C5.16964 4.95536 4.95536 5.16964 4.92857 5.57143V18.4286C4.95536 18.8304 5.16964 19.0446 5.57143 19.0714H14.5714V15.8571C14.5714 15.4821 14.692 15.1741 14.933 14.933C15.1741 14.692 15.4821 14.5714 15.8571 14.5714H19.0714V5.57143C19.0446 5.16964 18.8304 4.95536 18.4286 4.92857H5.57143ZM5.57143 21C4.84821 20.9732 4.24554 20.7188 3.76339 20.2366C3.28125 19.7545 3.02679 19.1518 3 18.4286V5.57143C3.02679 4.84821 3.28125 4.24554 3.76339 3.76339C4.24554 3.28125 4.84821 3.02679 5.57143 3H18.4286C19.1518 3.02679 19.7545 3.28125 20.2366 3.76339C20.7188 4.24554 20.9732 4.84821 21 5.57143V14.8125C21 15.5089 20.7455 16.1116 20.2366 16.6205L16.6205 20.2366C16.1116 20.7455 15.5089 21 14.8125 21H5.57143Z"/></svg>