<svg width="24" height="24" viewBox="0 0 24 24" xmlns="http://www.w3.org/2000/svg" fill="#cacaca"><path d="M15.8441 14.2443C16.112 13.9756 16.5462 13.9754 16.8139 14.2443C17.0816 14.5131 17.0815 14.9492 16.8139 15.2181L14.7564 17.2841C14.4886 17.5529 14.0544 17.5529 13.7866 17.2841C13.5188 17.0152 13.5189 16.5792 13.7866 16.3103L15.8441 14.2443Z"/><path fill-rule="evenodd" clip-rule="evenodd" d="M8.01596 4.19954C8.82025 3.39226 10.1241 3.39493 10.9267 4.20088L19.9578 13.2691C20.7604 14.0751 20.7631 15.3843 19.9591 16.1919L15.7262 20.4422C14.9228 21.2488 13.6203 21.2488 12.8168 20.4422L3.78308 11.3713C2.97965 10.5645 2.97976 9.25668 3.78308 8.44986L8.01596 4.19954ZM9.95693 5.17469C9.68843 4.90509 9.25288 4.90547 8.98577 5.17335L4.75289 9.42367C4.48525 9.69261 4.48513 10.1286 4.75289 10.3975L13.7866 19.4684C14.0544 19.7371 14.4886 19.7371 14.7564 19.4684L18.9893 15.2181C19.2561 14.9499 19.2564 14.5125 18.988 14.2429L9.95693 5.17469Z"/><path d="M15.6459 2.96883C16.3783 2.81677 17.2205 2.84234 18.0074 3.18404C19.2998 3.74542 20.2277 5.04347 20.4387 7.22453H21.4848C22.1565 7.22501 22.4928 8.04135 22.018 8.51846L20.2913 10.2509L20.1735 10.3491C19.8807 10.5431 19.4828 10.5096 19.2251 10.2509L17.4984 8.51846C17.0232 8.04131 17.3596 7.22476 18.0316 7.22453H19.0643C18.867 5.48821 18.1331 4.73974 17.4623 4.44837C16.9808 4.23937 16.4335 4.21194 15.9232 4.3179C15.4051 4.4256 14.9863 4.65749 14.7564 4.8882C14.4886 5.15704 14.0544 5.15702 13.7866 4.8882C13.5188 4.61928 13.5188 4.18334 13.7866 3.91439C14.2425 3.45672 14.9214 3.11934 15.6459 2.96883Z"/><path d="M7.83446 21.7912C7.10207 21.9432 6.25973 21.9177 5.47288 21.576C4.18059 21.0146 3.25259 19.7165 3.04165 17.5355H1.99548C1.32403 17.5349 0.987761 16.7187 1.46236 16.2416L3.189 14.5092L3.30687 14.411C3.59963 14.217 3.9975 14.2505 4.25526 14.5092L5.9819 16.2416C6.45709 16.7187 6.12069 17.5353 5.44877 17.5355H4.416C4.61335 19.2717 5.34725 20.0203 6.01807 20.3117C6.4995 20.5206 7.0469 20.548 7.55717 20.4421C8.07511 20.3345 8.49396 20.1025 8.7239 19.8718C8.99169 19.603 9.42589 19.6031 9.69371 19.8718C9.96153 20.1408 9.96148 20.5767 9.69371 20.8456C9.23779 21.3032 8.55888 21.6407 7.83446 21.7912Z"/></svg>