<svg width="24" height="24" viewBox="0 0 24 24" xmlns="http://www.w3.org/2000/svg" fill="#cacaca"><path d="M8.68611 4.537L12.1102 7.96109L11.0421 9.02915L10.0055 7.9925L8.05784 9.94014L9.09448 10.9768L8.84318 11.2281H8.78035C8.29867 11.2281 7.83794 11.2909 7.39815 11.4166L4.60234 8.62077C4.26726 8.26475 4.07878 7.85637 4.03689 7.39564C3.99501 6.93491 4.09972 6.50559 4.35103 6.10768C4.4348 5.98203 4.51857 5.87732 4.60234 5.79355L5.85888 4.537C6.27773 4.16004 6.74893 3.97156 7.2725 3.97156C7.817 3.97156 8.2882 4.16004 8.68611 4.537ZM16.0055 13.9925L17.0735 12.9244L18.2358 14.1182C18.5709 14.4323 18.8118 14.8197 18.9584 15.2805L19.6809 17.7307L20.0578 19.0501C20.1207 19.3433 20.0578 19.5946 19.8694 19.804C19.6599 20.0134 19.4086 20.0763 19.1154 19.9925L17.7961 19.6155L15.3458 18.893C14.9479 18.7674 14.6023 18.5684 14.3091 18.2962C14.2463 18.2543 14.2044 18.2229 14.1835 18.2019L13.618 17.6365C13.7437 17.1967 13.8065 16.736 13.8065 16.2543V16.1915L14.0578 15.9401L15.2201 17.1024C15.3877 17.27 15.5657 17.3852 15.7542 17.448L16.5081 17.6365L18.2358 18.1705L17.5133 15.6888C17.4505 15.5213 17.3563 15.3642 17.2306 15.2176C17.2097 15.1967 17.1992 15.1757 17.1992 15.1548L16.0055 13.9925ZM19.3039 5.73072C18.9898 5.47941 18.6756 5.47941 18.3615 5.73072L12.6128 11.4794L13.5552 12.4218L19.3039 6.67313C19.5552 6.35899 19.5552 6.04486 19.3039 5.73072ZM8.78035 13.9925C8.13113 14.0134 7.5971 14.2333 7.17825 14.6522C6.75941 15.071 6.53951 15.6051 6.51857 16.2543C6.51857 16.3799 6.52904 16.4951 6.54998 16.5998C6.63375 17.2909 6.48715 17.9192 6.11019 18.4846L6.07878 18.5161H8.78035C9.42956 18.4951 9.96359 18.2752 10.3824 17.8564C10.8013 17.4375 11.0212 16.9035 11.0421 16.2543C11.0421 15.9611 10.9898 15.6888 10.8851 15.4375L9.62852 14.1496C9.35626 14.0449 9.07354 13.9925 8.78035 13.9925ZM17.2934 4.66266C17.7332 4.24381 18.2463 4.03438 18.8327 4.03438C19.4191 4.03438 19.9322 4.24381 20.372 4.66266C20.7908 5.10245 21.0002 5.61554 21.0002 6.20192C21.0002 6.78831 20.7908 7.3014 20.372 7.74119L12.4872 15.626C12.529 15.8354 12.55 16.0449 12.55 16.2543C12.529 17.3223 12.1625 18.2124 11.4505 18.9244C10.7385 19.6365 9.84841 20.003 8.78035 20.0239H4.00548C3.71229 20.0239 3.47145 19.9297 3.28297 19.7412C3.09448 19.5527 3.00024 19.3119 3.00024 19.0187C3.00024 18.7255 3.09448 18.4846 3.28297 18.2962C3.47145 18.1077 3.71229 18.0134 4.00548 18.0134H4.19396C4.48716 17.9925 4.70705 17.8668 4.85365 17.6365C5.02119 17.3852 5.08401 17.1129 5.04213 16.8197C5.02119 16.6312 5.01072 16.4428 5.01072 16.2543C5.03166 15.1862 5.39815 14.2962 6.11019 13.5841C6.82223 12.8721 7.71229 12.5056 8.78035 12.4846C8.98977 12.4846 9.1992 12.5056 9.40862 12.5475L17.2934 4.66266Z"/></svg>