<svg width="24" height="24" viewBox="0 0 24 24" xmlns="http://www.w3.org/2000/svg" fill="#cacaca"><path d="M3.5 6.53125V17.4688C3.79167 17.3646 4.38542 17.2083 5.28125 17C5.32292 16.9375 5.36458 16.875 5.40625 16.8125L8.15625 13.0625C8.30208 12.8542 8.5 12.75 8.75 12.75C9 12.75 9.19792 12.8542 9.34375 13.0625L10.2812 14.3125L12.875 10.3438C13.0208 10.1146 13.2292 10 13.5 10C13.7708 10 13.9792 10.1146 14.125 10.3438L18.375 16.8438C18.3958 16.8646 18.4167 16.8958 18.4375 16.9375C19.5 17.1667 20.1875 17.3438 20.5 17.4688V6.53125C20.0833 6.69792 19.125 6.92708 17.625 7.21875C16.125 7.53125 14.25 7.70833 12 7.75C9.75 7.70833 7.875 7.53125 6.375 7.21875C4.875 6.92708 3.91667 6.69792 3.5 6.53125ZM20.125 5.0625C20.2708 5.02083 20.4167 5 20.5625 5C20.9792 5 21.3229 5.13542 21.5938 5.40625C21.8438 5.67708 21.9792 6.02083 22 6.4375V17.5625C21.9792 17.9792 21.8438 18.3229 21.5938 18.5938C21.3229 18.8646 20.9792 19 20.5625 19C20.4167 19 20.2708 18.9792 20.125 18.9375C19.8542 18.8125 19 18.5938 17.5625 18.2812C16.1042 17.9688 14.25 17.7917 12 17.75C9.75 17.7917 7.89583 17.9688 6.4375 18.2812C5 18.5938 4.14583 18.8125 3.875 18.9375C3.72917 18.9792 3.58333 19 3.4375 19C3.02083 19 2.67708 18.8646 2.40625 18.5938C2.13542 18.3229 2 17.9792 2 17.5625V6.4375C2 6.02083 2.13542 5.67708 2.40625 5.40625C2.67708 5.13542 3.02083 5 3.4375 5C3.58333 5 3.72917 5.02083 3.875 5.0625C4.14583 5.1875 5 5.40625 6.4375 5.71875C7.89583 6.03125 9.75 6.20833 12 6.25C14.25 6.20833 16.1042 6.03125 17.5625 5.71875C19 5.40625 19.8542 5.1875 20.125 5.0625ZM6.5 11.5C6.20833 11.5 5.96875 11.4062 5.78125 11.2188C5.59375 11.0312 5.5 10.7917 5.5 10.5C5.5 10.2083 5.59375 9.96875 5.78125 9.78125C5.96875 9.59375 6.20833 9.5 6.5 9.5C6.79167 9.5 7.03125 9.59375 7.21875 9.78125C7.40625 9.96875 7.5 10.2083 7.5 10.5C7.5 10.7917 7.40625 11.0312 7.21875 11.2188C7.03125 11.4062 6.79167 11.5 6.5 11.5Z"/></svg>