<svg width="24" height="24" viewBox="0 0 24 24" xmlns="http://www.w3.org/2000/svg" fill="#cacaca"><path d="M3.56439 12.1415L19.3059 3.14633C19.7275 2.93551 20.1257 2.95894 20.5005 3.21661C20.8753 3.47428 21.0393 3.83737 20.9924 4.30586L18.7437 18.9229C18.6734 19.2743 18.486 19.5437 18.1815 19.7311C17.8769 19.8951 17.549 19.9185 17.1976 19.8014L12.8406 17.9742L10.6621 20.5744C10.4279 20.8555 10.135 20.996 9.78367 20.996C9.45573 20.996 9.18634 20.8789 8.97552 20.6447C8.74127 20.4338 8.62415 20.1644 8.62415 19.8365V16.2174L3.70494 14.1794C3.28329 13.9686 3.04905 13.6406 3.0022 13.1956C2.97877 12.7505 3.16617 12.3991 3.56439 12.1415ZM5.39153 13.055L9.7134 14.847L9.67826 14.8119L17.4084 6.20327L5.39153 13.055ZM17.1625 17.9391L18.8491 7.11684L11.3297 15.5146L17.1625 17.9391Z"/></svg>