<svg width="24" height="24" viewBox="0 0 24 24" xmlns="http://www.w3.org/2000/svg" fill="#cacaca"><path d="M18.1862 4.48964C17.6069 3.9655 16.9586 3.70343 16.2414 3.70343C15.4966 3.70343 14.8483 3.9655 14.2966 4.48964L6.35172 12.4345C5.44138 13.3724 4.98621 14.462 4.98621 15.7034C4.98621 16.9448 5.44138 18.0345 6.35172 18.9724C7.28966 19.8827 8.37931 20.3379 9.62069 20.3379C10.8621 20.3379 11.9517 19.8827 12.8897 18.9724L19.1793 12.6827C19.6483 12.2965 20.1172 12.2965 20.5862 12.6827C20.9724 13.1517 20.9724 13.6207 20.5862 14.0896L14.2966 20.3793C12.9448 21.6758 11.3862 22.3241 9.62069 22.3241C7.85517 22.3241 6.29655 21.6758 4.94483 20.3793C3.64828 19.0276 3 17.4689 3 15.7034C3 13.9379 3.64828 12.3793 4.94483 11.0276L12.8897 3.08274C13.8552 2.14481 14.9724 1.67584 16.2414 1.67584C17.5103 1.67584 18.6276 2.14481 19.5931 3.08274C20.531 4.04826 21 5.1655 21 6.43446C21 7.70343 20.531 8.82067 19.5931 9.78619L11.9793 17.4C11.2897 18.0345 10.5034 18.3379 9.62069 18.3103C8.73793 18.2552 7.9931 17.8689 7.38621 17.1517C6.88966 16.4896 6.65517 15.7862 6.68276 15.0414C6.73793 14.2689 7.04138 13.5931 7.5931 13.0138L13.8828 6.72412C14.3517 6.33791 14.8207 6.33791 15.2897 6.72412C15.6759 7.19308 15.6759 7.66205 15.2897 8.13101L9 14.4207C8.58621 14.8896 8.55862 15.3862 8.91724 15.9103C9.13793 16.1586 9.41379 16.2965 9.74483 16.3241C10.0483 16.3241 10.3241 16.2138 10.5724 15.9931L18.1862 8.37929C18.7379 7.79998 19.0138 7.1517 19.0138 6.43446C19.0138 5.68964 18.7379 5.04136 18.1862 4.48964Z"/></svg>