<svg width="24" height="24" viewBox="0 0 24 24" xmlns="http://www.w3.org/2000/svg" fill="#cacaca"><path d="M7.70846 11.1483H16.4639L5.31741 6.36623L7.70846 11.1483ZM7.70846 12.8361L5.31741 17.6182L16.4639 12.8361H7.70846ZM4.57899 4.22132L20.3318 10.9725C20.7537 11.1835 20.9764 11.5234 20.9999 11.9922C20.9764 12.4845 20.7537 12.8361 20.3318 13.0471L4.57899 19.7983C4.08672 19.9624 3.66477 19.8686 3.31314 19.517C2.98496 19.1419 2.91464 18.72 3.10217 18.2512L6.23163 11.9922L3.10217 5.7333C2.91464 5.26447 2.98496 4.84252 3.31314 4.46746C3.66477 4.11583 4.08672 4.03378 4.57899 4.22132Z"/></svg>