<svg width="24" height="24" viewBox="0 0 24 24" fill="#cacaca" xmlns="http://www.w3.org/2000/svg">
   <path d="M18.1862 4.4897C17.6069 3.96556 16.9586 3.70349 16.2414 3.70349C15.4966 3.70349 14.8483 3.96556 14.2966 4.4897L6.35172 12.4345C5.44138 13.3725 4.98621 14.4621 4.98621 15.7035C4.98621 16.9449 5.44138 18.0345 6.35172 18.9725C7.28966 19.8828 8.37931 20.338 9.62069 20.338C10.8621 20.338 11.9517 19.8828 12.8897 18.9725L19.1793 12.6828C19.6483 12.2966 20.1172 12.2966 20.5862 12.6828C20.9724 13.1518 20.9724 13.6207 20.5862 14.0897L14.2966 20.3794C12.9448 21.6759 11.3862 22.3242 9.62069 22.3242C7.85517 22.3242 6.29655 21.6759 4.94483 20.3794C3.64828 19.0276 3 17.469 3 15.7035C3 13.938 3.64828 12.3794 4.94483 11.0276L12.8897 3.0828C13.8552 2.14487 14.9724 1.6759 16.2414 1.6759C17.5103 1.6759 18.6276 2.14487 19.5931 3.0828C20.531 4.04832 21 5.16556 21 6.43452C21 7.70349 20.531 8.82073 19.5931 9.78625L11.9793 17.4C11.2897 18.0345 10.5034 18.338 9.62069 18.3104C8.73793 18.2552 7.9931 17.869 7.38621 17.1518C6.88966 16.4897 6.65517 15.7862 6.68276 15.0414C6.73793 14.269 7.04138 13.5931 7.5931 13.0138L13.8828 6.72418C14.3517 6.33797 14.8207 6.33797 15.2897 6.72418C15.6759 7.19314 15.6759 7.66211 15.2897 8.13108L9 14.4207C8.58621 14.8897 8.55862 15.3862 8.91724 15.9104C9.13793 16.1587 9.41379 16.2966 9.74483 16.3242C10.0483 16.3242 10.3241 16.2138 10.5724 15.9931L18.1862 8.37935C18.7379 7.80004 19.0138 7.15177 19.0138 6.43452C19.0138 5.6897 18.7379 5.04142 18.1862 4.4897Z" /> 
</svg>
