<svg width="24" height="24" viewBox="0 0 24 24" fill="currentColor" xmlns="http://www.w3.org/2000/svg">
    <path fill-rule="evenodd" clip-rule="evenodd" d="M20.1 11.1C20.5971 11.1 21 11.5029 21 12V20.1C21 20.5971 20.5971 21 20.1 21H6.6C6.10294 21 5.7 20.5971 5.7 20.1V12C5.7 11.5029 6.10294 11.1 6.6 11.1H20.1ZM7.5 19.2H19.2V12.9H7.5V19.2Z"/>
    <path d="M12 3C14.9671 3 17.5985 4.43686 19.2369 6.64922C19.5326 7.04858 19.4489 7.61199 19.0497 7.90781C18.6503 8.20359 18.0861 8.11992 17.7902 7.72061C16.4766 5.94686 14.3726 4.8 12 4.8C9.6721 4.8 7.60193 5.9037 6.28447 7.62041C6.26626 7.64414 6.24695 7.66717 6.22646 7.68896L5.98125 7.95H7.95C8.44706 7.95 8.85 8.35294 8.85 8.85C8.85 9.34706 8.44706 9.75 7.95 9.75H3.9C3.8894 9.75 3.87888 9.74861 3.86836 9.74824C3.85429 9.74775 3.84021 9.74763 3.82617 9.74648C3.81109 9.74526 3.79621 9.74317 3.78135 9.74121C3.76573 9.73914 3.75028 9.73619 3.73477 9.7333C3.72028 9.73061 3.70593 9.72789 3.6917 9.72451C3.68022 9.72179 3.66881 9.7189 3.65742 9.71572C3.63634 9.70983 3.61545 9.70375 3.59502 9.69639C3.58996 9.69456 3.58512 9.69215 3.58008 9.69023C3.56011 9.68263 3.54045 9.67458 3.52119 9.66562C3.51028 9.66055 3.49942 9.65534 3.48867 9.6498C3.47371 9.64209 3.45919 9.63371 3.44473 9.6252C3.43647 9.62033 3.42825 9.6154 3.42012 9.61025C3.40277 9.59928 3.38566 9.58808 3.36914 9.57598C3.3599 9.5692 3.35093 9.56205 3.34189 9.55488C3.32852 9.54428 3.31596 9.53282 3.30322 9.52148C3.29702 9.51597 3.28997 9.51138 3.28389 9.50566C3.28102 9.50297 3.2788 9.4996 3.27598 9.49687C3.26253 9.4839 3.24992 9.47022 3.2373 9.45645C3.22899 9.44738 3.22057 9.43852 3.2127 9.4292C3.20248 9.41709 3.19239 9.40493 3.18281 9.39228C3.17521 9.38226 3.16709 9.37267 3.15996 9.3624C3.14857 9.34598 3.13862 9.32862 3.12832 9.31143C3.12359 9.30352 3.11873 9.29572 3.11426 9.28769C3.04819 9.16935 3.00825 9.03487 3.00176 8.89131C3.00142 8.88398 3.00104 8.87667 3.00088 8.86934C3.00074 8.8629 3 8.85647 3 8.85V4.8C3 4.30294 3.40294 3.9 3.9 3.9C4.39706 3.9 4.8 4.30294 4.8 4.8V6.57715L4.88965 6.48223C6.53471 4.36478 9.10825 3 12 3Z"/>
</svg>