<svg width="24" height="24" viewBox="0 0 24 24" xmlns="http://www.w3.org/2000/svg" fill="#cacaca"><path d="M4.11821 4.12662C4.11821 3.79839 4.22371 3.52877 4.43471 3.31776C4.64572 3.10676 4.91534 3.00126 5.24357 3.00126C5.5718 3.00126 5.84141 3.10676 6.05242 3.31776C6.26343 3.52877 6.36893 3.79839 6.36893 4.12662C6.36893 4.45485 6.26343 4.72447 6.05242 4.93547C5.84141 5.14648 5.5718 5.25198 5.24357 5.25198C4.91534 5.25198 4.64572 5.14648 4.43471 4.93547C4.22371 4.72447 4.11821 4.45485 4.11821 4.12662ZM18.7479 8.62806C18.7479 8.29983 18.8534 8.03021 19.0644 7.81921C19.2754 7.6082 19.545 7.5027 19.8733 7.5027C20.2015 7.5027 20.4711 7.6082 20.6821 7.81921C20.8931 8.03021 20.9986 8.29983 20.9986 8.62806C20.9986 8.95629 20.8931 9.22591 20.6821 9.43691C20.4711 9.64792 20.2015 9.75342 19.8733 9.75342C19.545 9.75342 19.2754 9.64792 19.0644 9.43691C18.8534 9.22591 18.7479 8.95629 18.7479 8.62806ZM19.8733 17.6309C20.2015 17.6309 20.4711 17.7365 20.6821 17.9475C20.8931 18.1585 20.9986 18.4281 20.9986 18.7563C20.9986 19.0845 20.8931 19.3542 20.6821 19.5652C20.4711 19.7762 20.2015 19.8817 19.8733 19.8817C19.545 19.8817 19.2754 19.7762 19.0644 19.5652C18.8534 19.3542 18.7479 19.0845 18.7479 18.7563C18.7479 18.4281 18.8534 18.1585 19.0644 17.9475C19.2754 17.7365 19.545 17.6309 19.8733 17.6309ZM8.86582 8.38189C8.53759 7.98332 8.53759 7.58476 8.86582 7.18619L9.14716 6.90485C9.75673 6.29528 10.1084 5.56849 10.2022 4.72447L10.3077 3.73977C10.4249 3.24743 10.7414 3.00126 11.2572 3.00126C11.7496 3.11848 11.9957 3.43499 11.9957 3.95078L11.8902 4.9003C11.7496 6.14289 11.2338 7.20964 10.3429 8.10055L10.0615 8.38189C9.66295 8.71012 9.26439 8.71012 8.86582 8.38189ZM15.618 13.9384L15.8993 13.657C16.7902 12.7661 17.857 12.2503 19.0996 12.1096L20.0491 12.0041C20.5649 12.0041 20.8814 12.2503 20.9986 12.7427C20.9986 13.2585 20.7524 13.575 20.2601 13.6922L19.2754 13.7977C18.4314 13.8915 17.7046 14.2431 17.095 14.8527L16.8137 15.1341C16.4151 15.4623 16.0166 15.4623 15.618 15.1341C15.2898 14.7355 15.2898 14.3369 15.618 13.9384ZM20.7876 3.31776C21.0924 3.73977 21.069 4.12662 20.7173 4.47829L20.3656 4.7948C19.8029 5.24026 19.1816 5.45126 18.5017 5.42782C18.1969 5.42782 17.939 5.53332 17.728 5.74432C17.517 5.93188 17.3998 6.16633 17.3764 6.44767L17.306 7.5027C17.2357 8.27639 16.9426 8.9094 16.4268 9.40175C15.8876 9.89409 15.2311 10.1403 14.4575 10.1403C14.1996 10.1168 13.9651 10.1989 13.7541 10.3864L13.4024 10.6678C12.957 10.9726 12.5584 10.9491 12.2067 10.5974C11.902 10.152 11.9371 9.75342 12.3122 9.40175L12.6639 9.08524C13.2032 8.63978 13.8244 8.42878 14.5278 8.45222C14.8091 8.45222 15.0553 8.35844 15.2663 8.17088C15.4773 7.95988 15.5945 7.71371 15.618 7.43237L15.6883 6.37734C15.7587 5.60365 16.0517 4.97064 16.5675 4.47829C17.1067 3.98595 17.7632 3.73977 18.5369 3.73977C18.8182 3.76322 19.0644 3.68116 19.2754 3.4936L19.6271 3.21226C20.0491 2.90748 20.4359 2.93092 20.7876 3.2826V3.31776ZM5.06773 18.9321L8.1273 17.7716L6.22826 15.8726L5.06773 18.9321ZM12.1012 16.2946L7.70529 11.8986L6.86127 14.1494L9.88568 17.1386L12.1012 16.2946ZM6.43926 10.4919C6.60338 10.0934 6.873 9.85893 7.24812 9.78859C7.64668 9.69481 7.99836 9.78859 8.30314 10.0699L13.9299 15.6967C14.2113 16.0015 14.3051 16.3532 14.2113 16.7518C14.141 17.1269 13.9182 17.3965 13.5431 17.5606L4.50505 20.9367C4.03615 21.0774 3.64931 20.9836 3.34452 20.6554C3.01629 20.3506 2.92251 19.9637 3.06318 19.4948L6.43926 10.4919Z"/></svg>