<svg width="24" height="24" viewBox="0 0 24 24" xmlns="http://www.w3.org/2000/svg" fill="#cacaca"><path d="M6.75 5.25V18.75H9V5.25H6.75ZM4.5 5.25C4.53125 4.625 4.75 4.09375 5.15625 3.65625C5.59375 3.25 6.125 3.03125 6.75 3H9C9.625 3.03125 10.1562 3.25 10.5938 3.65625C11 4.09375 11.2188 4.625 11.25 5.25V18.75C11.2188 19.375 11 19.9062 10.5938 20.3438C10.1562 20.75 9.625 20.9688 9 21H6.75C6.125 20.9688 5.59375 20.75 5.15625 20.3438C4.75 19.9062 4.53125 19.375 4.5 18.75V5.25ZM15 5.25V18.75H17.25V5.25H15ZM12.75 5.25C12.7812 4.625 13 4.09375 13.4062 3.65625C13.8438 3.25 14.375 3.03125 15 3H17.25C17.875 3.03125 18.4062 3.25 18.8438 3.65625C19.25 4.09375 19.4688 4.625 19.5 5.25V18.75C19.4688 19.375 19.25 19.9062 18.8438 20.3438C18.4062 20.75 17.875 20.9688 17.25 21H15C14.375 20.9688 13.8438 20.75 13.4062 20.3438C13 19.9062 12.7812 19.375 12.75 18.75V5.25Z"/></svg>