<svg width="24" height="24" viewBox="0 0 24 24" xmlns="http://www.w3.org/2000/svg" fill="#cacaca"><path d="M19.1038 6.36791C18.783 6.10376 18.4623 6.10376 18.1415 6.36791L17.5472 6.96225L18.8491 8.26414L19.4434 7.6698C19.7075 7.34905 19.7075 7.02829 19.4434 6.70754L19.1038 6.36791ZM13.1887 11.4056C13.0943 11.5 13.0283 11.6132 12.9906 11.7453L12.7075 13.1604L14.1226 12.849C14.2547 12.8302 14.3679 12.7736 14.4623 12.6792L17.8868 9.2264L16.6132 7.95282L13.1887 11.4056ZM17.1792 5.43395C17.5943 5.01886 18.0755 4.81131 18.6226 4.81131C19.1698 4.81131 19.6509 5.00942 20.066 5.40565L20.4057 5.74527C20.8019 6.16037 21 6.6415 21 7.18867C21 7.73584 20.8019 8.21697 20.4057 8.63206L15.4245 13.6415C15.1226 13.9245 14.7736 14.1038 14.3774 14.1792L11.9717 14.6887C11.7264 14.7264 11.5189 14.6698 11.3491 14.5189C11.1792 14.3302 11.1226 14.1226 11.1792 13.8962L11.6887 11.4623C11.7642 11.066 11.9434 10.7264 12.2264 10.4434L17.1792 5.43395ZM5.03774 8.32074H10.4717C10.8868 8.35848 11.1132 8.58489 11.1509 8.99999C11.1132 9.41508 10.8868 9.6415 10.4717 9.67923H5.03774C4.62264 9.71697 4.39623 9.94339 4.35849 10.3585V17.1509C4.39623 17.566 4.62264 17.7924 5.03774 17.8302H17.2642C17.6792 17.7924 17.9057 17.566 17.9434 17.1509V13.5283C17.9811 13.1132 18.2075 12.8868 18.6226 12.849C19.0377 12.8868 19.2642 13.1132 19.3019 13.5283V17.1509C19.283 17.7358 19.0849 18.217 18.7075 18.5943C18.3302 18.9717 17.8491 19.1698 17.2642 19.1887H5.03774C4.45283 19.1698 3.9717 18.9717 3.59434 18.5943C3.21698 18.217 3.01887 17.7358 3 17.1509V10.3585C3.01887 9.77357 3.21698 9.29244 3.59434 8.91508C3.9717 8.53772 4.45283 8.33961 5.03774 8.32074ZM6.62264 14.6604C6.35849 14.6604 6.14151 14.5755 5.9717 14.4056C5.80189 14.2358 5.71698 14.0189 5.71698 13.7547C5.71698 13.4906 5.80189 13.2736 5.9717 13.1038C6.14151 12.934 6.35849 12.849 6.62264 12.849C6.88679 12.849 7.10377 12.934 7.27358 13.1038C7.4434 13.2736 7.5283 13.4906 7.5283 13.7547C7.5283 14.0189 7.4434 14.2358 7.27358 14.4056C7.10377 14.5755 6.88679 14.6604 6.62264 14.6604ZM10.2453 13.7547C10.2453 14.0189 10.1604 14.2358 9.99057 14.4056C9.82076 14.5755 9.60377 14.6604 9.33962 14.6604C9.07547 14.6604 8.85849 14.5755 8.68868 14.4056C8.51887 14.2358 8.43396 14.0189 8.43396 13.7547C8.43396 13.4906 8.51887 13.2736 8.68868 13.1038C8.85849 12.934 9.07547 12.849 9.33962 12.849C9.60377 12.849 9.82076 12.934 9.99057 13.1038C10.1604 13.2736 10.2453 13.4906 10.2453 13.7547Z"/></svg>