<svg width="24" height="24" viewBox="0 0 24 24" xmlns="http://www.w3.org/2000/svg" fill="#cacaca"><path d="M15.6866 6.49989L6.01878 16.1668L5.3391 18.66L7.83226 17.9803L17.5001 8.31337L15.6866 6.49989ZM20.9143 6.36798C20.9143 6.79894 20.8292 7.22567 20.6643 7.62384C20.4994 8.02203 20.2581 8.3845 19.9534 8.68927L9.0598 19.5828C8.93677 19.7059 8.78331 19.7939 8.61546 19.8397L4.17699 21.0506C3.83089 21.1448 3.46091 21.0464 3.20726 20.7928C2.95361 20.5391 2.85522 20.1692 2.94945 19.8231L4.16038 15.3846L4.20238 15.2615C4.25244 15.142 4.32498 15.0325 4.41722 14.9402L15.3108 4.04669C15.6155 3.74194 15.978 3.50069 16.3762 3.33575C16.7744 3.17086 17.2011 3.08575 17.6321 3.08575C18.063 3.08577 18.4897 3.17083 18.8879 3.33575C19.2862 3.50071 19.6486 3.7419 19.9534 4.04669C20.2581 4.35148 20.4993 4.71389 20.6643 5.11212C20.8292 5.51031 20.9143 5.937 20.9143 6.36798Z"/></svg>