<svg width="24" height="24" viewBox="0 0 24 24" xmlns="http://www.w3.org/2000/svg" fill="#cacaca"><path d="M3.06055 18.3485V7.21667C3.06055 6.52967 3.33355 5.87043 3.81934 5.38464C4.30511 4.89895 4.96443 4.62585 5.65137 4.62585H11.2168C11.769 4.62585 12.2166 5.07371 12.2168 5.62585C12.2168 6.17814 11.7691 6.62585 11.2168 6.62585H5.65137C5.49487 6.62585 5.3441 6.68809 5.2334 6.79871C5.12269 6.90942 5.06055 7.0601 5.06055 7.21667V18.3485C5.06055 18.5051 5.12269 18.6558 5.2334 18.7665C5.34411 18.8772 5.4948 18.9393 5.65137 18.9393H16.7832C16.9398 18.9393 17.0905 18.8772 17.2012 18.7665C17.3118 18.6558 17.374 18.505 17.374 18.3485V12.7831C17.374 12.2308 17.8217 11.7831 18.374 11.7831C18.9262 11.7832 19.374 12.2309 19.374 12.7831V18.3485C19.374 19.0354 19.1009 19.6948 18.6152 20.1805C18.1294 20.6663 17.4702 20.9393 16.7832 20.9393H5.65137C4.96436 20.9393 4.30512 20.6663 3.81934 20.1805C3.33355 19.6948 3.06055 19.0355 3.06055 18.3485ZM19.0605 5.62585C19.0605 5.44381 18.9881 5.26924 18.8594 5.1405C18.7306 5.01177 18.5561 4.93941 18.374 4.93933C18.1919 4.93933 18.0165 5.0117 17.8877 5.1405L10.5293 12.4979L10.2051 13.7938L11.501 13.4696L18.8594 6.11218C18.9882 5.98338 19.0605 5.80801 19.0605 5.62585ZM21.0605 5.62585C21.0605 6.33844 20.7773 7.02237 20.2734 7.52625L12.7197 15.08C12.5916 15.2081 12.4307 15.2997 12.2549 15.3436L9.07422 16.1385C8.73344 16.2237 8.3724 16.1242 8.12402 15.8759C7.87564 15.6275 7.77613 15.2664 7.86133 14.9257L8.65625 11.745C8.70021 11.5692 8.79176 11.4083 8.91992 11.2802L16.4736 3.72644C16.9775 3.22256 17.6614 2.93933 18.374 2.93933C19.0865 2.93941 19.7696 3.22263 20.2734 3.72644C20.7772 4.23025 21.0605 4.91337 21.0605 5.62585Z"/></svg>