<svg width="24" height="24" viewBox="0 0 24 24" xmlns="http://www.w3.org/2000/svg" fill="#cacaca"><path d="M6 8C5.4375 7.97917 5 7.72917 4.6875 7.25C4.4375 6.75 4.4375 6.25 4.6875 5.75C5 5.27083 5.4375 5.02083 6 5C6.5625 5.02083 7 5.27083 7.3125 5.75C7.5625 6.25 7.5625 6.75 7.3125 7.25C7 7.72917 6.5625 7.97917 6 8ZM5.5 9H6.5C7.27083 9.02083 7.9375 9.22917 8.5 9.625C8.125 9.95833 7.8125 10.3542 7.5625 10.8125C7.25 10.6042 6.89583 10.5 6.5 10.5H5.5V16.5H6.5V16C6.54167 15.5417 6.79167 15.2917 7.25 15.25C7.70833 15.2917 7.95833 15.5417 8 16V17C8 17.2917 7.90625 17.5312 7.71875 17.7188C7.53125 17.9062 7.29167 18 7 18H5C4.70833 18 4.46875 17.9062 4.28125 17.7188C4.09375 17.5312 4 17.2917 4 17V15.6562C3.39583 15.3646 2.91667 14.9479 2.5625 14.4062C2.1875 13.8438 2 13.2083 2 12.5C2.02083 11.5 2.36458 10.6771 3.03125 10.0312C3.67708 9.36458 4.5 9.02083 5.5 9ZM4 11.1875C3.6875 11.5417 3.52083 11.9792 3.5 12.5C3.52083 13.0208 3.6875 13.4583 4 13.8125V11.1875ZM17.5 10.5C17.1042 10.5 16.75 10.6042 16.4375 10.8125C16.1875 10.3542 15.875 9.95833 15.5 9.625C16.0625 9.22917 16.7292 9.02083 17.5 9H18.5C19.5 9.02083 20.3229 9.36458 20.9688 10.0312C21.6354 10.6771 21.9792 11.5 22 12.5C22 13.2083 21.8125 13.8438 21.4375 14.4062C21.0833 14.9479 20.6042 15.3646 20 15.6562V17C20 17.2917 19.9062 17.5312 19.7188 17.7188C19.5312 17.9062 19.2917 18 19 18H17C16.7083 18 16.4688 17.9062 16.2812 17.7188C16.0938 17.5312 16 17.2917 16 17V16C16.0417 15.5417 16.2917 15.2917 16.75 15.25C17.2083 15.2917 17.4583 15.5417 17.5 16V16.5H18.5V10.5H17.5ZM20.5 12.5C20.5 11.9792 20.3333 11.5417 20 11.1875V13.8125C20.3333 13.4583 20.5 13.0208 20.5 12.5ZM19.5 6.5C19.4792 7.0625 19.2292 7.5 18.75 7.8125C18.25 8.0625 17.75 8.0625 17.25 7.8125C16.7708 7.5 16.5208 7.0625 16.5 6.5C16.5208 5.9375 16.7708 5.5 17.25 5.1875C17.75 4.9375 18.25 4.9375 18.75 5.1875C19.2292 5.5 19.4792 5.9375 19.5 6.5ZM12 8.5C11.3333 8.47917 10.8333 8.1875 10.5 7.625C10.1667 7.04167 10.1667 6.45833 10.5 5.875C10.8333 5.3125 11.3333 5.02083 12 5C12.6667 5.02083 13.1667 5.3125 13.5 5.875C13.8333 6.45833 13.8333 7.04167 13.5 7.625C13.1667 8.1875 12.6667 8.47917 12 8.5ZM11.5 9.5H12.5C13.5 9.52083 14.3229 9.86458 14.9688 10.5312C15.6354 11.1771 15.9792 12 16 13C16 13.7083 15.8125 14.3438 15.4375 14.9062C15.0833 15.4479 14.6042 15.8646 14 16.1562V18C14 18.2917 13.9062 18.5312 13.7188 18.7188C13.5312 18.9062 13.2917 19 13 19H11C10.7083 19 10.4688 18.9062 10.2812 18.7188C10.0938 18.5312 10 18.2917 10 18V16.1562C9.39583 15.8646 8.91667 15.4479 8.5625 14.9062C8.1875 14.3438 8 13.7083 8 13C8.02083 12 8.36458 11.1771 9.03125 10.5312C9.67708 9.86458 10.5 9.52083 11.5 9.5ZM11.5 17.5H12.5V11H11.5V17.5ZM10 14.3125V11.6875C9.6875 12.0417 9.52083 12.4792 9.5 13C9.52083 13.5208 9.6875 13.9583 10 14.3125ZM14 14.3125C14.3333 13.9583 14.5 13.5208 14.5 13C14.5 12.4792 14.3333 12.0417 14 11.6875V14.3125Z"/></svg>