<svg width="24" height="24" viewBox="0 0 24 24" xmlns="http://www.w3.org/2000/svg" fill="#cacaca"><path d="M4.00002 6C4.02085 5.25 4.35418 4.67708 5.00002 4.28125C5.66668 3.90625 6.33335 3.90625 7.00002 4.28125C7.64585 4.67708 7.97918 5.25 8.00002 6C7.97918 6.75 7.64585 7.32292 7.00002 7.71875C6.33335 8.09375 5.66668 8.09375 5.00002 7.71875C4.35418 7.32292 4.02085 6.75 4.00002 6ZM5.31252 10.5C5.04168 10.5 4.81252 10.5833 4.62502 10.75C4.43752 10.9375 4.33335 11.1562 4.31252 11.4062L4.18752 12.9688C4.18752 13.2812 4.35418 13.4583 4.68752 13.5H6.00002C6.00002 13.9583 6.16668 14.375 6.50002 14.75L8.00002 16.2188V19.25C7.95835 19.7083 7.70835 19.9583 7.25002 20C6.79168 19.9583 6.54168 19.7083 6.50002 19.25V15H5.50002V19.25C5.45835 19.7083 5.20835 19.9583 4.75002 20C4.29168 19.9583 4.04168 19.7083 4.00002 19.25V14.875C3.58335 14.7292 3.25002 14.4688 3.00002 14.0938C2.75002 13.7188 2.64585 13.3021 2.68752 12.8438L2.81252 11.2812C2.87502 10.6354 3.13543 10.0938 3.59377 9.65625C4.07293 9.23958 4.64585 9.02083 5.31252 9H6.68752C7.58335 9.04167 8.27085 9.39583 8.75002 10.0625C8.66668 10.125 8.58335 10.1875 8.50002 10.25L7.62502 11.1562C7.45835 10.7396 7.14585 10.5208 6.68752 10.5H5.31252ZM16 19.25V16.2188L17.5 14.75C17.8334 14.375 18 13.9583 18 13.5H19.3125C19.6459 13.4583 19.8125 13.2812 19.8125 12.9688L19.6875 11.4062C19.6667 11.1562 19.5625 10.9375 19.375 10.75C19.1875 10.5833 18.9584 10.5 18.6875 10.5H17.3125C16.8542 10.5208 16.5417 10.7396 16.375 11.1562L15.5 10.25C15.4167 10.1875 15.3334 10.125 15.25 10.0625C15.75 9.39583 16.4375 9.04167 17.3125 9H18.6875C19.3542 9.02083 19.9271 9.23958 20.4063 9.65625C20.8646 10.0938 21.125 10.6354 21.1875 11.2812L21.3125 12.8438C21.3542 13.3021 21.25 13.7188 21 14.0938C20.75 14.4688 20.4167 14.7292 20 14.875V19.25C19.9584 19.7083 19.7084 19.9583 19.25 20C18.7917 19.9583 18.5417 19.7083 18.5 19.25V15H17.5V19.25C17.4584 19.7083 17.2084 19.9583 16.75 20C16.2917 19.9583 16.0417 19.7083 16 19.25ZM16 6C16.0209 5.25 16.3542 4.67708 17 4.28125C17.6667 3.90625 18.3334 3.90625 19 4.28125C19.6459 4.67708 19.9792 5.25 20 6C19.9792 6.75 19.6459 7.32292 19 7.71875C18.3334 8.09375 17.6667 8.09375 17 7.71875C16.3542 7.32292 16.0209 6.75 16 6ZM10.2813 12.0312L9.56252 12.75H14.4375L13.7188 12.0312C13.4271 11.6771 13.4271 11.3229 13.7188 10.9688C14.0729 10.6771 14.4271 10.6771 14.7813 10.9688L16.7813 12.9688C17.0729 13.3229 17.0729 13.6771 16.7813 14.0312L14.7813 16.0312C14.4271 16.3229 14.0729 16.3229 13.7188 16.0312C13.4271 15.6771 13.4271 15.3229 13.7188 14.9688L14.4375 14.25H9.56252L10.2813 14.9688C10.5729 15.3229 10.5729 15.6771 10.2813 16.0312C9.9271 16.3229 9.57293 16.3229 9.21877 16.0312L7.21877 14.0312C6.9271 13.6771 6.9271 13.3229 7.21877 12.9688L9.21877 10.9688C9.57293 10.6771 9.9271 10.6771 10.2813 10.9688C10.5729 11.3229 10.5729 11.6771 10.2813 12.0312Z"/></svg>