<svg width="24" height="24" viewBox="0 0 24 24" xmlns="http://www.w3.org/2000/svg" fill="#cacaca"><path d="M8 7C7.4375 6.97917 7 6.72917 6.6875 6.25C6.4375 5.75 6.4375 5.25 6.6875 4.75C7 4.27083 7.4375 4.02083 8 4C8.5625 4.02083 9 4.27083 9.3125 4.75C9.5625 5.25 9.5625 5.75 9.3125 6.25C9 6.72917 8.5625 6.97917 8 7ZM7.5625 9.5C7.5625 9.5 7.55208 9.5 7.53125 9.5C7.53125 9.5 7.52083 9.5 7.5 9.5V13.5H8.5V9.5H7.5625ZM7.5 19.25C7.45833 19.7083 7.20833 19.9583 6.75 20C6.29167 19.9583 6.04167 19.7083 6 19.25V11L4.65625 13.375C4.38542 13.75 4.04167 13.8438 3.625 13.6562C3.25 13.3854 3.15625 13.0417 3.34375 12.625L5.1875 9.40625C5.4375 8.96875 5.77083 8.625 6.1875 8.375C6.60417 8.125 7.0625 8 7.5625 8H12V5.5C12.0208 5.08333 12.1667 4.72917 12.4375 4.4375C12.7292 4.16667 13.0833 4.02083 13.5 4H20.5C20.9167 4.02083 21.2708 4.16667 21.5625 4.4375C21.8333 4.72917 21.9792 5.08333 22 5.5V12.5C21.9792 12.9167 21.8333 13.2708 21.5625 13.5625C21.2708 13.8333 20.9167 13.9792 20.5 14H13.5C13.0833 13.9792 12.7292 13.8333 12.4375 13.5625C12.1667 13.2708 12.0208 12.9167 12 12.5V11H13.5V12.5H20.5V5.5H13.5V8H14.25C14.7083 8.04167 14.9583 8.29167 15 8.75C14.9583 9.20833 14.7083 9.45833 14.25 9.5H10V19.25C9.95833 19.7083 9.70833 19.9583 9.25 20C8.79167 19.9583 8.54167 19.7083 8.5 19.25V15H7.5V19.25Z"/></svg>