<svg width="24" height="24" viewBox="0 0 24 24" xmlns="http://www.w3.org/2000/svg" fill="#cacaca"><path d="M12 8C11.2812 8 10.625 7.625 10.25 7C9.90625 6.40625 9.90625 5.625 10.25 5C10.625 4.40625 11.2812 4 12 4C12.6875 4 13.3438 4.40625 13.7188 5C14.0625 5.625 14.0625 6.40625 13.7188 7C13.3438 7.625 12.6875 8 12 8ZM10.2812 11.4375L10.1562 12.9688C10.125 13.25 10.375 13.5 10.6562 13.5H10.75H13.25H13.3125C13.5938 13.5 13.8438 13.25 13.8125 12.9688L13.6875 11.4375C13.625 10.9062 13.2188 10.5 12.6875 10.5H11.2812C10.7812 10.5 10.3438 10.9062 10.2812 11.4375ZM11.5 15V19.25C11.5 19.6875 11.1562 20 10.75 20C10.3125 20 10 19.6875 10 19.25V14.9062C9.15625 14.5938 8.59375 13.7812 8.65625 12.8438L8.78125 11.3125C8.90625 10 10 9 11.2812 9H12.6875C14 9 15.0625 10 15.1875 11.3125L15.3125 12.8438C15.375 13.7812 14.8125 14.5938 14 14.9062V19.25C14 19.6875 13.6562 20 13.25 20C12.8125 20 12.5 19.6875 12.5 19.25V15H11.5Z"/></svg>