<svg width="24" height="24" viewBox="0 0 24 24" xmlns="http://www.w3.org/2000/svg" fill="#cacaca"><path d="M8 5.5C7.6875 5.52083 7.52083 5.6875 7.5 6V15C7.52083 15.3125 7.6875 15.4792 8 15.5H9.5C9.8125 15.4792 9.97917 15.3125 10 15V6C9.97917 5.6875 9.8125 5.52083 9.5 5.5H8ZM6.28125 5C6.65625 4.375 7.22917 4.04167 8 4H9.5C10.2708 4.04167 10.8438 4.375 11.2188 5H19C19.5625 5.02083 20.0312 5.21875 20.4062 5.59375C20.7812 5.96875 20.9792 6.4375 21 7V18C20.9792 18.5625 20.7812 19.0312 20.4062 19.4062C20.0312 19.7812 19.5625 19.9792 19 20H5C4.4375 19.9792 3.96875 19.7812 3.59375 19.4062C3.21875 19.0312 3.02083 18.5625 3 18V7C3.02083 6.4375 3.21875 5.96875 3.59375 5.59375C3.96875 5.21875 4.4375 5.02083 5 5H6.28125ZM6 6.5H5C4.6875 6.52083 4.52083 6.6875 4.5 7V18C4.52083 18.3125 4.6875 18.4792 5 18.5H19C19.3125 18.4792 19.4792 18.3125 19.5 18V10H14.25C13.8958 10 13.6042 9.875 13.375 9.625C13.125 9.39583 13 9.10417 13 8.75V6.5H11.5V15C11.4792 15.5625 11.2812 16.0312 10.9062 16.4062C10.5312 16.7812 10.0625 16.9792 9.5 17H8C7.4375 16.9792 6.96875 16.7812 6.59375 16.4062C6.21875 16.0312 6.02083 15.5625 6 15V6.5ZM14.5 6.5V8.5H19.5V7C19.4792 6.6875 19.3125 6.52083 19 6.5H14.5ZM15 12.5C15 12.7917 14.9062 13.0312 14.7188 13.2188C14.5312 13.4062 14.2917 13.5 14 13.5C13.7083 13.5 13.4688 13.4062 13.2812 13.2188C13.0938 13.0312 13 12.7917 13 12.5C13 12.2083 13.0938 11.9688 13.2812 11.7812C13.4688 11.5938 13.7083 11.5 14 11.5C14.2917 11.5 14.5312 11.5938 14.7188 11.7812C14.9062 11.9688 15 12.2083 15 12.5ZM14 16.5C13.7083 16.5 13.4688 16.4062 13.2812 16.2188C13.0938 16.0312 13 15.7917 13 15.5C13 15.2083 13.0938 14.9688 13.2812 14.7812C13.4688 14.5938 13.7083 14.5 14 14.5C14.2917 14.5 14.5312 14.5938 14.7188 14.7812C14.9062 14.9688 15 15.2083 15 15.5C15 15.7917 14.9062 16.0312 14.7188 16.2188C14.5312 16.4062 14.2917 16.5 14 16.5ZM18 12.5C18 12.7917 17.9062 13.0312 17.7188 13.2188C17.5312 13.4062 17.2917 13.5 17 13.5C16.7083 13.5 16.4688 13.4062 16.2812 13.2188C16.0938 13.0312 16 12.7917 16 12.5C16 12.2083 16.0938 11.9688 16.2812 11.7812C16.4688 11.5938 16.7083 11.5 17 11.5C17.2917 11.5 17.5312 11.5938 17.7188 11.7812C17.9062 11.9688 18 12.2083 18 12.5ZM17 16.5C16.7083 16.5 16.4688 16.4062 16.2812 16.2188C16.0938 16.0312 16 15.7917 16 15.5C16 15.2083 16.0938 14.9688 16.2812 14.7812C16.4688 14.5938 16.7083 14.5 17 14.5C17.2917 14.5 17.5312 14.5938 17.7188 14.7812C17.9062 14.9688 18 15.2083 18 15.5C18 15.7917 17.9062 16.0312 17.7188 16.2188C17.5312 16.4062 17.2917 16.5 17 16.5Z"/></svg>