<svg width="24" height="24" viewBox="0 0 24 24" xmlns="http://www.w3.org/2000/svg" fill="#cacaca"><path d="M12 3.875C10.5156 3.875 9.16146 4.23958 7.9375 4.96875C6.71354 5.67188 5.72396 6.66146 4.96875 7.9375C4.23958 9.21354 3.875 10.5677 3.875 12C3.875 13.4323 4.23958 14.7865 4.96875 16.0625C5.72396 17.3385 6.71354 18.3281 7.9375 19.0312C9.16146 19.7604 10.5156 20.125 12 20.125C13.4844 20.125 14.8385 19.7604 16.0625 19.0312C17.2865 18.3281 18.276 17.3385 19.0312 16.0625C19.7604 14.7865 20.125 13.4323 20.125 12C20.125 10.5677 19.7604 9.21354 19.0312 7.9375C18.276 6.66146 17.2865 5.67188 16.0625 4.96875C14.8385 4.23958 13.4844 3.875 12 3.875ZM12 22C10.1771 21.974 8.51042 21.5312 7 20.6719C5.48958 19.7865 4.26562 18.5625 3.32812 17C2.44271 15.4115 2 13.7448 2 12C2 10.2552 2.44271 8.58854 3.32812 7C4.26562 5.4375 5.48958 4.21354 7 3.32812C8.51042 2.46875 10.1771 2.02604 12 2C13.8229 2.02604 15.4896 2.46875 17 3.32812C18.5104 4.21354 19.7344 5.4375 20.6719 7C21.5573 8.58854 22 10.2552 22 12C22 13.7448 21.5573 15.4115 20.6719 17C19.7344 18.5625 18.5104 19.7865 17 20.6719C15.4896 21.5312 13.8229 21.974 12 22ZM9.30469 7.03906C9.72135 6.96094 10.0208 7.10417 10.2031 7.46875L10.9844 9.34375C11.1146 9.70833 11.0495 10.0208 10.7891 10.2812L9.8125 11.0625C10.4896 12.4688 11.5312 13.5104 12.9375 14.1875L13.7188 13.2109C13.9792 12.9505 14.2917 12.8854 14.6562 13.0156L16.5312 13.7969C16.8958 13.9792 17.0391 14.2786 16.9609 14.6953L16.4922 16.4141C16.388 16.7786 16.1406 16.974 15.75 17C14.1094 16.974 12.638 16.5703 11.3359 15.7891C10.0078 15.0339 8.96615 13.9922 8.21094 12.6641C7.42969 11.362 7.02604 9.89062 7 8.25C7.02604 7.85938 7.22135 7.61198 7.58594 7.50781L9.30469 7.03906Z"/></svg>