<svg width="24" height="24" viewBox="0 0 24 24" xmlns="http://www.w3.org/2000/svg" fill="#cacaca"><path d="M15.75 12.5937L19.25 14.0937C19.5208 14.2187 19.7292 14.4167 19.875 14.6875C20 14.9375 20.0312 15.2187 19.9688 15.5312L19.2188 19.0312C19.0521 19.6354 18.6458 19.9583 18 20C17.8125 20 17.625 20 17.4375 20C17.125 19.9792 16.8125 19.9583 16.5 19.9375C14.125 19.6458 12 18.8646 10.125 17.5937C8.25 16.3021 6.77083 14.6562 5.6875 12.6562C4.58333 10.6562 4.02083 8.43749 4 5.99999C4.04167 5.35415 4.375 4.9479 5 4.78124L8.5 4.03124C8.79167 3.96874 9.0625 4.0104 9.3125 4.15624C9.58333 4.28124 9.78125 4.47915 9.90625 4.74999L11.4062 8.24999C11.6146 8.81249 11.4896 9.30207 11.0312 9.71874L9.78125 10.75C10.6354 12.2083 11.7917 13.3646 13.25 14.2187L14.2812 12.9687C14.6979 12.5104 15.1875 12.3854 15.75 12.5937ZM17.8125 18.5L18.4688 15.4062L15.3438 14.0625L14.4062 15.1875C14.1562 15.4583 13.8646 15.625 13.5312 15.6875C13.1771 15.7708 12.8333 15.7187 12.5 15.5312C10.8125 14.5312 9.46875 13.1875 8.46875 11.5C8.30208 11.1667 8.25 10.8333 8.3125 10.5C8.375 10.1458 8.54167 9.84374 8.8125 9.59374L9.9375 8.68749L8.59375 5.53124L5.5 6.21874C5.5625 8.48957 6.14583 10.5417 7.25 12.375C8.33333 14.2083 9.79167 15.6667 11.625 16.75C13.4583 17.8542 15.5208 18.4375 17.8125 18.5Z"/></svg>