<svg width="24" height="24" viewBox="0 0 24 24" xmlns="http://www.w3.org/2000/svg" fill="#cacaca"><path d="M12.8438 3C14.3672 3.02344 15.7383 3.39844 16.957 4.125C18.1758 4.85156 19.1484 5.82422 19.875 7.04297C20.6016 8.26172 20.9766 9.63281 21 11.1562C20.9531 11.6719 20.6719 11.9531 20.1562 12C19.6406 11.9531 19.3594 11.6719 19.3125 11.1562C19.2656 9.32812 18.6328 7.80469 17.4141 6.58594C16.1953 5.36719 14.6719 4.73438 12.8438 4.6875C12.3281 4.64062 12.0469 4.35938 12 3.84375C12.0469 3.32812 12.3281 3.04688 12.8438 3ZM13.125 9.75C13.4531 9.75 13.7227 9.85547 13.9336 10.0664C14.1445 10.2773 14.25 10.5469 14.25 10.875C14.25 11.2031 14.1445 11.4727 13.9336 11.6836C13.7227 11.8945 13.4531 12 13.125 12C12.7969 12 12.5273 11.8945 12.3164 11.6836C12.1055 11.4727 12 11.2031 12 10.875C12 10.5469 12.1055 10.2773 12.3164 10.0664C12.5273 9.85547 12.7969 9.75 13.125 9.75ZM12 7.21875C12.0469 6.70312 12.3281 6.42188 12.8438 6.375C14.2031 6.39844 15.3281 6.86719 16.2188 7.78125C17.1328 8.67188 17.6016 9.79688 17.625 11.1562C17.5781 11.6719 17.2969 11.9531 16.7812 12C16.2656 11.9531 15.9844 11.6719 15.9375 11.1562C15.9141 10.2891 15.6094 9.5625 15.0234 8.97656C14.4375 8.39062 13.7109 8.08594 12.8438 8.0625C12.3281 8.01562 12.0469 7.73438 12 7.21875ZM14.5664 13.0898C15.0352 12.5742 15.5859 12.4336 16.2188 12.668L20.1562 14.3555C20.4609 14.4961 20.6953 14.7188 20.8594 15.0234C21 15.3047 21.0352 15.6094 20.9648 15.9375L20.1211 19.875C19.9336 20.5781 19.4766 20.9531 18.75 21C18.5391 21 18.3281 21 18.1172 21C17.7656 20.9766 17.4141 20.9414 17.0625 20.8945C14.3906 20.5898 12 19.7227 9.89062 18.293C7.78125 16.8398 6.11719 14.9883 4.89844 12.7383C3.65625 10.4883 3.02344 7.99219 3 5.25C3.04688 4.52344 3.42188 4.06641 4.125 3.87891L8.0625 3.03516C8.39062 2.96484 8.69531 3 8.97656 3.14062C9.28125 3.30469 9.50391 3.53906 9.64453 3.84375L11.332 7.78125C11.5664 8.41406 11.4258 8.96484 10.9102 9.43359L9.50391 10.5938C10.4648 12.2344 11.7656 13.5352 13.4062 14.4961L14.5664 13.0898ZM19.2773 15.832L15.7266 14.3203L14.707 15.5859C14.4258 15.8906 14.0859 16.0781 13.6875 16.1484C13.3125 16.2188 12.9375 16.1602 12.5625 15.9727C10.6641 14.8477 9.15234 13.3359 8.02734 11.4375C7.81641 11.0625 7.74609 10.6758 7.81641 10.2773C7.91016 9.90234 8.10938 9.57422 8.41406 9.29297L9.67969 8.27344L8.16797 4.72266L4.6875 5.49609C4.75781 8.05078 5.41406 10.3594 6.65625 12.4219C7.875 14.4844 9.51562 16.125 11.5781 17.3438C13.6406 18.5859 15.9609 19.2422 18.5391 19.3125L19.2773 15.832Z"/></svg>