<svg width="24" height="24" viewBox="0 0 24 24" xmlns="http://www.w3.org/2000/svg" fill="#cacaca"><path d="M20.7813 4.15626C21.1772 3.90626 21.5313 3.94793 21.8438 4.28126C22.0938 4.67709 22.0522 5.03126 21.7188 5.34376L3.21882 19.8438C2.82299 20.0938 2.46882 20.0521 2.15632 19.7188C1.90632 19.3229 1.94799 18.9688 2.28132 18.6563L7.15632 14.8438C6.15632 13.6354 5.38549 12.2813 4.84382 10.7813C4.28132 9.28126 4.00007 7.68751 4.00007 6.00001C4.04174 5.35418 4.37507 4.94793 5.00007 4.78126L8.50007 4.03126C8.79174 3.96876 9.06257 4.01043 9.31257 4.15626C9.5834 4.28126 9.78132 4.47918 9.90632 4.75001L11.4063 8.25001C11.6147 8.81251 11.4897 9.30209 11.0313 9.71876L9.78132 10.75C10.0522 11.2292 10.3542 11.6667 10.6876 12.0625L20.7813 4.15626ZM9.50007 13C9.12507 12.5208 8.78132 12.0208 8.46882 11.5C8.28132 11.1667 8.22924 10.8333 8.31257 10.5C8.37507 10.1458 8.54174 9.84376 8.81257 9.59376L9.93757 8.68751L8.59382 5.53126L5.50007 6.21876C5.5209 7.67709 5.78132 9.06251 6.28132 10.375C6.78132 11.6875 7.46882 12.875 8.34382 13.9375L9.50007 13ZM9.31257 17L10.5313 16.0313C12.6147 17.5938 15.0417 18.4167 17.8126 18.5L18.4688 15.4063L15.3126 14.0625L14.4063 15.1875C14.1563 15.4583 13.8542 15.625 13.5001 15.6875C13.1667 15.75 12.8334 15.6979 12.5001 15.5313C12.2501 15.3854 12.0105 15.2292 11.7813 15.0625L13.0001 14.0938C13.0209 14.0938 13.0417 14.1042 13.0626 14.125C13.1251 14.1667 13.1876 14.1979 13.2501 14.2188L14.0001 13.3125L14.9688 12.5313C15.2397 12.4688 15.5001 12.4896 15.7501 12.5938L19.2501 14.0938C19.5209 14.2188 19.7188 14.4167 19.8438 14.6875C19.9897 14.9375 20.0313 15.2083 19.9688 15.5L19.2188 19C19.0522 19.625 18.6459 19.9583 18.0001 20C17.8126 20 17.6251 20 17.4376 20C17.1251 19.9792 16.8126 19.9479 16.5001 19.9063C13.7709 19.5938 11.3751 18.625 9.31257 17Z"/></svg>