<svg width="24" height="24" viewBox="0 0 24 24" xmlns="http://www.w3.org/2000/svg" fill="#cacaca"><path d="M12.9156 6.17659L8.49022 10.602L12.9858 15.1327C12.74 15.6946 12.5644 16.3268 12.4941 16.9942L7.29607 11.7961C7.0151 12.1122 6.94486 12.5688 7.12047 12.9551L7.75266 14.4654C8.20925 15.519 7.96339 16.7483 7.15559 17.5561L5.32925 19.3473C5.11851 19.5581 5.11851 19.9444 5.32925 20.1551C5.5751 20.3659 5.92632 20.3659 6.13705 20.1551L7.96339 18.3288C8.7712 17.521 9.96534 17.2751 11.019 17.7317L12.5292 18.3288C12.6346 18.961 12.8453 19.5581 13.1263 20.0849C12.7049 20.12 12.2834 20.0498 11.8619 19.8742L10.3868 19.2771C9.96534 19.1015 9.47364 19.2068 9.15754 19.5229L7.3312 21.3493C6.45315 22.2273 5.01315 22.2273 4.1351 21.3493C3.25705 20.4712 3.25705 19.0312 4.1351 18.1532L5.96144 16.362C6.27754 16.0459 6.3829 15.5542 6.20729 15.1327L5.5751 13.5873C5.11851 12.5337 5.36437 11.3395 6.17217 10.5317L11.7214 4.98245C13.021 3.68293 15.1634 3.68293 16.498 4.98245L20.4668 8.98635C21.5205 10.0049 21.7312 11.5503 21.1692 12.7795C20.6775 12.4634 20.1507 12.2527 19.6239 12.0771C19.9049 11.48 19.7995 10.6722 19.2727 10.1805L15.3039 6.17659C14.6366 5.5444 13.5829 5.5444 12.9156 6.17659ZM22.6092 17.4859C22.6092 19.1015 21.7312 20.5766 20.3614 21.3844C18.9566 22.1922 17.2356 22.1922 15.8658 21.3844C14.461 20.5766 13.618 19.1015 13.618 17.4859C13.618 15.9054 14.461 14.4303 15.8658 13.6224C17.2356 12.8146 18.9566 12.8146 20.3614 13.6224C21.7312 14.4303 22.6092 15.9054 22.6092 17.4859ZM15.8658 16.9239C15.8658 16.6429 15.5849 16.362 15.3039 16.362C14.9878 16.362 14.7419 16.6429 14.7419 16.9239C14.7419 17.24 14.9878 17.4859 15.3039 17.4859C15.5849 17.4859 15.8658 17.24 15.8658 16.9239ZM17.5517 20.8576C17.8327 20.8576 18.1136 20.6117 18.1136 20.2956C18.1136 20.0146 17.8327 19.7337 17.5517 19.7337C17.2356 19.7337 16.9897 20.0146 16.9897 20.2956C16.9897 20.6117 17.2356 20.8576 17.5517 20.8576ZM18.6756 17.4859C18.6756 17.2049 18.3946 16.9239 18.1136 16.9239C17.7975 16.9239 17.5517 17.2049 17.5517 17.4859C17.5517 17.802 17.7975 18.0478 18.1136 18.0478C18.3946 18.0478 18.6756 17.802 18.6756 17.4859ZM20.9234 18.6098C21.2044 18.6098 21.4853 18.3639 21.4853 18.0478C21.4853 17.7668 21.2044 17.4859 20.9234 17.4859C20.6073 17.4859 20.3614 17.7668 20.3614 18.0478C20.3614 18.3639 20.6073 18.6098 20.9234 18.6098ZM19.2375 14.6761C19.2375 14.3951 18.9566 14.1142 18.6756 14.1142C18.3595 14.1142 18.1136 14.3951 18.1136 14.6761C18.1136 14.9922 18.3595 15.2381 18.6756 15.2381C18.9566 15.2381 19.2375 14.9922 19.2375 14.6761Z"/></svg>