<svg width="24" height="24" viewBox="0 0 24 24" xmlns="http://www.w3.org/2000/svg" fill="#cacaca"><path d="M20.125 12C20.125 10.5156 19.7604 9.16146 19.0312 7.9375C18.3281 6.71354 17.3385 5.72396 16.0625 4.96875C14.7865 4.23958 13.4323 3.875 12 3.875C10.5677 3.875 9.21354 4.23958 7.9375 4.96875C6.66146 5.72396 5.67188 6.71354 4.96875 7.9375C4.23958 9.16146 3.875 10.5156 3.875 12C3.875 13.4844 4.23958 14.8385 4.96875 16.0625C5.67188 17.2865 6.66146 18.276 7.9375 19.0312C9.21354 19.7604 10.5677 20.125 12 20.125C13.4323 20.125 14.7865 19.7604 16.0625 19.0312C17.3385 18.276 18.3281 17.2865 19.0312 16.0625C19.7604 14.8385 20.125 13.4844 20.125 12ZM2 12C2.02604 10.1771 2.46875 8.51042 3.32812 7C4.21354 5.48958 5.4375 4.26562 7 3.32812C8.58854 2.44271 10.2552 2 12 2C13.7448 2 15.4115 2.44271 17 3.32812C18.5625 4.26562 19.7865 5.48958 20.6719 7C21.5312 8.51042 21.974 10.1771 22 12C21.974 13.8229 21.5312 15.4896 20.6719 17C19.7865 18.5104 18.5625 19.7344 17 20.6719C15.4115 21.5573 13.7448 22 12 22C10.2552 22 8.58854 21.5573 7 20.6719C5.4375 19.7344 4.21354 18.5104 3.32812 17C2.46875 15.4896 2.02604 13.8229 2 12ZM9.34375 7.74219C9.68229 7.58594 10.0078 7.59896 10.3203 7.78125L15.9453 11.2188C16.2318 11.401 16.375 11.6615 16.375 12C16.375 12.3385 16.2318 12.612 15.9453 12.8203L10.3203 16.2578C10.0078 16.4141 9.68229 16.4141 9.34375 16.2578C9.03125 16.0755 8.875 15.8021 8.875 15.4375V8.5625C8.875 8.19792 9.03125 7.92448 9.34375 7.74219Z"/></svg>