<svg width="24" height="24" viewBox="0 0 24 24" xmlns="http://www.w3.org/2000/svg" fill="#cacaca"><path d="M19.0714 10.7142C19.0179 8.7053 18.3214 7.04459 16.9821 5.73209C15.6696 4.3928 14.0089 3.69638 12 3.6428C9.99107 3.69638 8.33036 4.3928 7.01786 5.73209C5.67857 7.04459 4.98214 8.7053 4.92857 10.7142C4.92857 11.9464 5.20982 13.0714 5.77232 14.0892C6.33482 15.1071 7.09821 15.9374 8.0625 16.5803C8.14286 17.3035 8.25 18.0535 8.38393 18.8303V18.9508C6.77679 18.2276 5.47768 17.1428 4.48661 15.6964C3.52232 14.2499 3.02679 12.5892 3 10.7142C3.02679 9.02673 3.44196 7.51334 4.24554 6.17405C5.02232 4.80798 6.09375 3.73655 7.45982 2.95977C8.79911 2.1562 10.3125 1.74102 12 1.71423C13.6875 1.74102 15.2009 2.1562 16.5402 2.95977C17.9062 3.73655 18.9777 4.80798 19.7545 6.17405C20.558 7.51334 20.9732 9.02673 21 10.7142C20.9732 12.5892 20.4777 14.2499 19.5134 15.6964C18.5223 17.1428 17.2232 18.2276 15.6161 18.9508L15.6562 18.7901C15.7634 18.0401 15.8571 17.3169 15.9375 16.6205C16.9018 15.9508 17.6652 15.1071 18.2277 14.0892C18.7902 13.0714 19.0714 11.9464 19.0714 10.7142ZM17.7857 10.7142C17.7321 12.4553 17.1027 13.8883 15.8973 15.0133C15.817 14.7187 15.6964 14.4508 15.5357 14.2098C15.3482 13.8616 15.1071 13.5803 14.8125 13.366C15.4821 12.6428 15.8304 11.7589 15.8571 10.7142C15.8304 9.61602 15.4554 8.7053 14.7321 7.98209C14.0089 7.25888 13.0982 6.88388 12 6.85709C10.9018 6.88388 9.99107 7.25888 9.26786 7.98209C8.54464 8.7053 8.16964 9.61602 8.14286 10.7142C8.16964 11.7589 8.51786 12.6428 9.1875 13.366C8.91964 13.5803 8.67857 13.8616 8.46429 14.2098C8.30357 14.4508 8.19643 14.7187 8.14286 15.0133C6.91071 13.8883 6.26786 12.4553 6.21429 10.7142C6.26786 9.0803 6.83036 7.71423 7.90179 6.61602C9 5.54459 10.3661 4.98209 12 4.92852C13.6339 4.98209 15 5.54459 16.0982 6.61602C17.1696 7.71423 17.7321 9.0803 17.7857 10.7142ZM12 10.0714C11.5982 10.0982 11.3839 10.3124 11.3571 10.7142C11.3839 11.116 11.5982 11.3303 12 11.3571C12.4018 11.3303 12.6161 11.116 12.6429 10.7142C12.6161 10.3124 12.4018 10.0982 12 10.0714ZM12 13.2857C11.0357 13.2589 10.2991 12.8303 9.79018 11.9999C9.30804 11.1428 9.30804 10.2857 9.79018 9.42852C10.2991 8.59816 11.0357 8.16959 12 8.1428C12.9643 8.16959 13.7009 8.59816 14.2098 9.42852C14.692 10.2857 14.692 11.1428 14.2098 11.9999C13.7009 12.8303 12.9643 13.2589 12 13.2857ZM10.192 21.3214C10.0045 20.6517 9.81696 19.741 9.62946 18.5892C9.44196 17.4642 9.33482 16.5267 9.30804 15.7767C9.33482 15.0535 9.61607 14.558 10.1518 14.2901C10.6607 14.0223 11.2768 13.9017 12 13.9285C12.7232 13.9017 13.3393 14.0223 13.8482 14.2901C14.3839 14.558 14.6652 15.0535 14.692 15.7767C14.6652 16.5267 14.558 17.4642 14.3705 18.5892C14.183 19.741 13.9955 20.6517 13.808 21.3214C13.7009 21.6964 13.4732 21.9508 13.125 22.0848C12.7768 22.2187 12.4018 22.2857 12 22.2857C11.5982 22.2857 11.2232 22.2187 10.875 22.0848C10.5268 21.9508 10.2991 21.6964 10.192 21.3214ZM12.0804 20.3571C12.2143 19.7946 12.3482 19.0982 12.4821 18.2678C12.6429 17.2767 12.7366 16.4999 12.7634 15.9374C12.7366 15.9374 12.7232 15.9241 12.7232 15.8973C12.6964 15.8973 12.6696 15.8973 12.6429 15.8973C12.4821 15.8705 12.2679 15.8571 12 15.8571C11.7321 15.8571 11.5179 15.8705 11.3571 15.8973C11.3304 15.8973 11.3036 15.8973 11.2768 15.8973C11.2768 15.9241 11.2768 15.9374 11.2768 15.9374C11.3036 16.5267 11.3973 17.3169 11.558 18.308C11.692 19.1116 11.8259 19.7946 11.9598 20.3571C11.9866 20.3571 12 20.3571 12 20.3571C12 20.3571 12.0134 20.3571 12.0402 20.3571C12.0402 20.3571 12.0536 20.3571 12.0804 20.3571Z"/></svg>