<svg width="24" height="24" viewBox="0 0 24 24" xmlns="http://www.w3.org/2000/svg" fill="#cacaca"><path d="M3.75 4H20.25C20.7083 4.04167 20.9583 4.29167 21 4.75C20.9583 5.20833 20.7083 5.45833 20.25 5.5H3.75C3.29167 5.45833 3.04167 5.20833 3 4.75C3.04167 4.29167 3.29167 4.04167 3.75 4ZM4 6.5H5.5V13.25C5.52083 13.3958 5.60417 13.4792 5.75 13.5H18.25C18.3958 13.4792 18.4792 13.3958 18.5 13.25V6.5H20V13.25C19.9792 13.75 19.8021 14.1667 19.4688 14.5C19.1562 14.8125 18.75 14.9792 18.25 15H12.75V16.4375L15.0312 18.7188C15.3229 19.0729 15.3229 19.4271 15.0312 19.7812C14.6771 20.0729 14.3229 20.0729 13.9688 19.7812L12 17.8125L10.0312 19.7812C9.67708 20.0729 9.32292 20.0729 8.96875 19.7812C8.67708 19.4271 8.67708 19.0729 8.96875 18.7188L11.25 16.4375V15H5.75C5.25 14.9792 4.83333 14.8125 4.5 14.5C4.1875 14.1667 4.02083 13.75 4 13.25V6.5Z"/></svg>