<svg width="24" height="24" viewBox="0 0 24 24" xmlns="http://www.w3.org/2000/svg" fill="#cacaca"><path d="M7.5 9H6V6C6.02083 5.4375 6.21875 4.96875 6.59375 4.59375C6.96875 4.21875 7.4375 4.02083 8 4H15.1875C15.7292 4 16.1979 4.19792 16.5938 4.59375L17.4062 5.40625C17.8021 5.80208 18 6.28125 18 6.84375V9H16.5V6.84375C16.5 6.69792 16.4479 6.57292 16.3438 6.46875L15.5312 5.65625C15.4271 5.55208 15.3125 5.5 15.1875 5.5H8C7.6875 5.52083 7.52083 5.6875 7.5 6V9ZM8 15.5V18.5H16V15.5H8ZM7.5 14H16.5C16.7917 14 17.0312 14.0938 17.2188 14.2812C17.4062 14.4688 17.5 14.7083 17.5 15H18.5V12C18.4792 11.6875 18.3125 11.5208 18 11.5H6C5.6875 11.5208 5.52083 11.6875 5.5 12V15H6.5C6.5 14.7083 6.59375 14.4688 6.78125 14.2812C6.96875 14.0938 7.20833 14 7.5 14ZM17.5 16.5V19C17.5 19.2917 17.4062 19.5312 17.2188 19.7188C17.0312 19.9062 16.7917 20 16.5 20H7.5C7.20833 20 6.96875 19.9062 6.78125 19.7188C6.59375 19.5312 6.5 19.2917 6.5 19V16.5H5C4.70833 16.5 4.46875 16.4062 4.28125 16.2188C4.09375 16.0312 4 15.7917 4 15.5V12C4.02083 11.4375 4.21875 10.9688 4.59375 10.5938C4.96875 10.2188 5.4375 10.0208 6 10H18C18.5625 10.0208 19.0312 10.2188 19.4062 10.5938C19.7812 10.9688 19.9792 11.4375 20 12V15.5C20 15.7917 19.9062 16.0312 19.7188 16.2188C19.5312 16.4062 19.2917 16.5 19 16.5H17.5Z"/></svg>