<svg width="24" height="24" viewBox="0 0 24 24" xmlns="http://www.w3.org/2000/svg" fill="#cacaca"><path d="M18.75 3C19.3828 3.02344 19.9102 3.24609 20.332 3.66797C20.7539 4.08984 20.9766 4.61719 21 5.25V9.75C20.9766 10.1016 20.7891 10.2891 20.4375 10.3125H18.6094C18.3516 10.3359 18.2109 10.4766 18.1875 10.7344V10.875C18.1875 11.2031 18.082 11.4727 17.8711 11.6836C17.6602 11.8945 17.3906 12 17.0625 12C16.7344 12 16.4648 11.8945 16.2539 11.6836C16.043 11.4727 15.9375 11.2031 15.9375 10.875V10.7344C15.9141 10.4766 15.7734 10.3359 15.5156 10.3125H14.25C13.8984 10.2891 13.7109 10.1016 13.6875 9.75V8.625C13.7109 8.27344 13.8984 8.08594 14.25 8.0625H14.8125C15.1406 8.0625 15.4102 7.95703 15.6211 7.74609C15.832 7.53516 15.9375 7.26562 15.9375 6.9375C15.9375 6.60938 15.832 6.33984 15.6211 6.12891C15.4102 5.91797 15.1406 5.8125 14.8125 5.8125H14.25C13.8984 5.78906 13.7109 5.60156 13.6875 5.25V3.5625C13.7109 3.21094 13.8984 3.02344 14.25 3H18.75ZM3 7.5C3.02344 6.86719 3.24609 6.33984 3.66797 5.91797C4.08984 5.49609 4.61719 5.27344 5.25 5.25H10.3125C10.6641 5.27344 10.8516 5.46094 10.875 5.8125V7.64062C10.8984 7.89844 11.0391 8.03906 11.2969 8.0625H11.4375C11.7656 8.0625 12.0352 8.16797 12.2461 8.37891C12.457 8.58984 12.5625 8.85938 12.5625 9.1875C12.5625 9.51562 12.457 9.78516 12.2461 9.99609C12.0352 10.207 11.7656 10.3125 11.4375 10.3125H11.2969C11.0391 10.3359 10.8984 10.4766 10.875 10.7344V12.5625C10.8516 12.9141 10.6641 13.1016 10.3125 13.125H9.1875C8.83594 13.1016 8.64844 12.9141 8.625 12.5625V12C8.625 11.6719 8.51953 11.4023 8.30859 11.1914C8.09766 10.9805 7.82812 10.875 7.5 10.875C7.17188 10.875 6.90234 10.9805 6.69141 11.1914C6.48047 11.4023 6.375 11.6719 6.375 12V12.5625C6.35156 12.9141 6.16406 13.1016 5.8125 13.125H4.6875V18.4688C4.73438 18.9844 5.01562 19.2656 5.53125 19.3125H10.875V18.0469C10.8516 17.7891 10.7109 17.6484 10.4531 17.625H10.3125C9.98438 17.625 9.71484 17.5195 9.50391 17.3086C9.29297 17.0977 9.1875 16.8281 9.1875 16.5C9.1875 16.1719 9.29297 15.9023 9.50391 15.6914C9.71484 15.4805 9.98438 15.375 10.3125 15.375H10.4531C10.7109 15.3516 10.8516 15.2109 10.875 14.9531V13.6875C10.8984 13.3359 11.0859 13.1484 11.4375 13.125H13.125C13.4766 13.1484 13.6641 13.3359 13.6875 13.6875V14.25C13.6875 14.5781 13.793 14.8477 14.0039 15.0586C14.2148 15.2695 14.4844 15.375 14.8125 15.375C15.1406 15.375 15.4102 15.2695 15.6211 15.0586C15.832 14.8477 15.9375 14.5781 15.9375 14.25V13.6875C15.9609 13.3359 16.1484 13.1484 16.5 13.125H18.1875C18.5391 13.1484 18.7266 13.3359 18.75 13.6875V18.75C18.7266 19.3828 18.5039 19.9102 18.082 20.332C17.6602 20.7539 17.1328 20.9766 16.5 21H5.53125C4.80469 20.9766 4.20703 20.7305 3.73828 20.2617C3.26953 19.793 3.02344 19.1953 3 18.4688V7.5Z"/></svg>