<svg width="24" height="24" viewBox="0 0 24 24" xmlns="http://www.w3.org/2000/svg" fill="#cacaca"><path d="M10.0664 5.00391C9.83203 5.21484 9.72656 5.39062 9.75 5.53125C9.72656 5.69531 9.84375 5.88281 10.1016 6.09375C10.4062 6.28125 10.5703 6.57422 10.5938 6.97266C10.5938 7.27734 10.4883 7.53516 10.2773 7.74609C10.0664 7.95703 9.80859 8.0625 9.50391 8.0625H4.96875C4.80469 8.08594 4.71094 8.17969 4.6875 8.34375V10.207C4.94531 10.0898 5.22656 10.0312 5.53125 10.0312C6.30469 10.0547 6.91406 10.3477 7.35938 10.9102C7.82812 11.4492 8.0625 12.0938 8.0625 12.8438C8.0625 13.5938 7.82812 14.2383 7.35938 14.7773C6.91406 15.3398 6.30469 15.6328 5.53125 15.6562C5.22656 15.6562 4.94531 15.6094 4.6875 15.5156V19.0312C4.71094 19.1953 4.80469 19.2891 4.96875 19.3125H8.51953C8.40234 19.0547 8.34375 18.7734 8.34375 18.4688C8.36719 17.6953 8.66016 17.0859 9.22266 16.6406C9.76172 16.1719 10.4062 15.9375 11.1562 15.9375C11.9062 15.9375 12.5508 16.1719 13.0898 16.6406C13.6523 17.0859 13.9453 17.6953 13.9688 18.4688C13.9688 18.7734 13.9219 19.0547 13.8281 19.3125H15.6562C15.8203 19.2891 15.9141 19.1953 15.9375 19.0312V14.4961C15.9375 14.1914 16.043 13.9336 16.2539 13.7227C16.4648 13.5117 16.7227 13.4062 17.0273 13.4062C17.4258 13.4297 17.7188 13.5938 17.9062 13.8984C18.1172 14.1562 18.3047 14.2734 18.4688 14.25C18.6094 14.2734 18.7852 14.168 18.9961 13.9336C19.1836 13.6758 19.2891 13.3125 19.3125 12.8438C19.2891 12.375 19.1836 12.0117 18.9961 11.7539C18.7852 11.5195 18.6094 11.4141 18.4688 11.4375C18.3047 11.4141 18.1172 11.5312 17.9062 11.7891C17.7188 12.0938 17.4258 12.2578 17.0273 12.2812C16.7227 12.2812 16.4648 12.1758 16.2539 11.9648C16.043 11.7539 15.9375 11.4961 15.9375 11.1914V8.34375C15.9141 8.17969 15.8203 8.08594 15.6562 8.0625H12.8086C12.5039 8.0625 12.2461 7.95703 12.0352 7.74609C11.8242 7.53516 11.7188 7.27734 11.7188 6.97266C11.7422 6.57422 11.9062 6.28125 12.2109 6.09375C12.4688 5.88281 12.5859 5.69531 12.5625 5.53125C12.5859 5.39062 12.4805 5.21484 12.2461 5.00391C11.9883 4.81641 11.625 4.71094 11.1562 4.6875C10.6875 4.71094 10.3242 4.81641 10.0664 5.00391ZM9.04688 3.66797C9.65625 3.22266 10.3594 3 11.1562 3C11.9531 3 12.6562 3.22266 13.2656 3.66797C13.875 4.11328 14.2031 4.73438 14.25 5.53125C14.25 5.83594 14.1914 6.11719 14.0742 6.375H15.6562C16.2188 6.39844 16.6875 6.58594 17.0625 6.9375C17.4141 7.3125 17.6016 7.78125 17.625 8.34375V9.92578C17.8828 9.80859 18.1641 9.75 18.4688 9.75C19.2656 9.79688 19.8867 10.125 20.332 10.7344C20.7773 11.3203 21 12.0234 21 12.8438C21 13.6406 20.7773 14.3438 20.332 14.9531C19.8867 15.5625 19.2656 15.8906 18.4688 15.9375C18.1641 15.9375 17.8828 15.8789 17.625 15.7617V19.0312C17.6016 19.5938 17.4141 20.0625 17.0625 20.4375C16.6875 20.7891 16.2188 20.9766 15.6562 21H12.9141C12.5859 21 12.3047 20.8828 12.0703 20.6484C11.8359 20.4141 11.7188 20.1328 11.7188 19.8047C11.7422 19.4531 11.8594 19.1719 12.0703 18.9609C12.2109 18.7969 12.2812 18.6328 12.2812 18.4688C12.2812 18.2812 12.1875 18.0938 12 17.9062C11.8125 17.7422 11.5312 17.6484 11.1562 17.625C10.7812 17.6484 10.5 17.7422 10.3125 17.9062C10.125 18.0938 10.0312 18.2812 10.0312 18.4688C10.0312 18.6328 10.1016 18.7969 10.2422 18.9609C10.4531 19.1719 10.5703 19.4531 10.5938 19.8047C10.5938 20.1328 10.4766 20.4141 10.2422 20.6484C10.0078 20.8828 9.72656 21 9.39844 21H4.96875C4.40625 20.9766 3.9375 20.7891 3.5625 20.4375C3.21094 20.0625 3.02344 19.5938 3 19.0312V14.6016C3 14.2734 3.11719 13.9922 3.35156 13.7578C3.58594 13.5234 3.86719 13.4062 4.19531 13.4062C4.54688 13.4297 4.82812 13.5469 5.03906 13.7578C5.20312 13.8984 5.36719 13.9688 5.53125 13.9688C5.71875 13.9688 5.90625 13.875 6.09375 13.6875C6.25781 13.5 6.35156 13.2188 6.375 12.8438C6.35156 12.4688 6.25781 12.1875 6.09375 12C5.90625 11.8125 5.71875 11.7188 5.53125 11.7188C5.36719 11.7188 5.20312 11.7891 5.03906 11.9297C4.82812 12.1406 4.54688 12.2578 4.19531 12.2812C3.86719 12.2812 3.58594 12.1641 3.35156 11.9297C3.11719 11.6953 3 11.4141 3 11.0859V8.34375C3.02344 7.78125 3.21094 7.3125 3.5625 6.9375C3.9375 6.58594 4.40625 6.39844 4.96875 6.375H8.23828C8.12109 6.11719 8.0625 5.83594 8.0625 5.53125C8.10938 4.73438 8.4375 4.11328 9.04688 3.66797Z"/></svg>