<svg width="24" height="24" viewBox="0 0 24 24" xmlns="http://www.w3.org/2000/svg" fill="#cacaca"><path d="M8.78571 4.92857H4.92857V8.78571H8.78571V4.92857ZM4.92857 3H8.78571C9.32143 3.02679 9.77679 3.21429 10.1518 3.5625C10.5 3.9375 10.6875 4.39286 10.7143 4.92857V8.78571C10.6875 9.32143 10.5 9.77679 10.1518 10.1518C9.77679 10.5 9.32143 10.6875 8.78571 10.7143H4.92857C4.39286 10.6875 3.9375 10.5 3.5625 10.1518C3.21429 9.77679 3.02679 9.32143 3 8.78571V4.92857C3.02679 4.39286 3.21429 3.9375 3.5625 3.5625C3.9375 3.21429 4.39286 3.02679 4.92857 3ZM8.78571 15.2143H4.92857V19.0714H8.78571V15.2143ZM4.92857 13.2857H8.78571C9.32143 13.3125 9.77679 13.5 10.1518 13.8482C10.5 14.2232 10.6875 14.6786 10.7143 15.2143V19.0714C10.6875 19.6071 10.5 20.0625 10.1518 20.4375C9.77679 20.7857 9.32143 20.9732 8.78571 21H4.92857C4.39286 20.9732 3.9375 20.7857 3.5625 20.4375C3.21429 20.0625 3.02679 19.6071 3 19.0714V15.2143C3.02679 14.6786 3.21429 14.2232 3.5625 13.8482C3.9375 13.5 4.39286 13.3125 4.92857 13.2857ZM15.2143 4.92857V8.78571H19.0714V4.92857H15.2143ZM13.2857 4.92857C13.3125 4.39286 13.5 3.9375 13.8482 3.5625C14.2232 3.21429 14.6786 3.02679 15.2143 3H19.0714C19.6071 3.02679 20.0625 3.21429 20.4375 3.5625C20.7857 3.9375 20.9732 4.39286 21 4.92857V8.78571C20.9732 9.32143 20.7857 9.77679 20.4375 10.1518C20.0625 10.5 19.6071 10.6875 19.0714 10.7143H15.2143C14.6786 10.6875 14.2232 10.5 13.8482 10.1518C13.5 9.77679 13.3125 9.32143 13.2857 8.78571V4.92857ZM5.89286 6.53571C5.91964 6.13393 6.13393 5.91964 6.53571 5.89286H7.17857C7.58036 5.91964 7.79464 6.13393 7.82143 6.53571V7.17857C7.79464 7.58036 7.58036 7.79464 7.17857 7.82143H6.53571C6.13393 7.79464 5.91964 7.58036 5.89286 7.17857V6.53571ZM6.53571 16.1786H7.17857C7.58036 16.2054 7.79464 16.4196 7.82143 16.8214V17.4643C7.79464 17.8661 7.58036 18.0804 7.17857 18.1071H6.53571C6.13393 18.0804 5.91964 17.8661 5.89286 17.4643V16.8214C5.91964 16.4196 6.13393 16.2054 6.53571 16.1786ZM16.1786 6.53571C16.2054 6.13393 16.4196 5.91964 16.8214 5.89286H17.4643C17.8661 5.91964 18.0804 6.13393 18.1071 6.53571V7.17857C18.0804 7.58036 17.8661 7.79464 17.4643 7.82143H16.8214C16.4196 7.79464 16.2054 7.58036 16.1786 7.17857V6.53571ZM13.2857 13.9286C13.3125 13.5268 13.5268 13.3125 13.9286 13.2857H16.5C16.9018 13.3125 17.1161 13.5268 17.1429 13.9286C17.1696 14.3304 17.3839 14.5446 17.7857 14.5714H19.0714C19.4732 14.5446 19.6875 14.3304 19.7143 13.9286C19.7411 13.5268 19.9554 13.3125 20.3571 13.2857C20.7589 13.3125 20.9732 13.5268 21 13.9286V17.7857C20.9732 18.1875 20.7589 18.4018 20.3571 18.4286H17.7857C17.3839 18.4018 17.1696 18.1875 17.1429 17.7857C17.1161 17.3839 16.9018 17.1696 16.5 17.1429C16.0982 17.1696 15.8839 17.3839 15.8571 17.7857V20.3571C15.8304 20.7589 15.6161 20.9732 15.2143 21H13.9286C13.5268 20.9732 13.3125 20.7589 13.2857 20.3571V13.9286ZM17.7857 19.7143C18.1875 19.7411 18.4018 19.9554 18.4286 20.3571C18.4018 20.7589 18.1875 20.9732 17.7857 21C17.3839 20.9732 17.1696 20.7589 17.1429 20.3571C17.1696 19.9554 17.3839 19.7411 17.7857 19.7143ZM20.3571 19.7143C20.7589 19.7411 20.9732 19.9554 21 20.3571C20.9732 20.7589 20.7589 20.9732 20.3571 21C19.9554 20.9732 19.7411 20.7589 19.7143 20.3571C19.7411 19.9554 19.9554 19.7411 20.3571 19.7143Z"/></svg>