<svg width="24" height="24" viewBox="0 0 24 24" xmlns="http://www.w3.org/2000/svg" fill="#cacaca"><path d="M8 8.14286C7.94444 8.73214 7.61111 9.05357 7 9.10714C6.38889 9.05357 6.05556 8.73214 6 8.14286C6.02778 6.69643 6.54167 5.49107 7.54167 4.52679C8.56944 3.53571 9.83333 3.02679 11.3333 3H12.6667C14.1667 3.02679 15.4167 3.53571 16.4167 4.52679C17.4444 5.49107 17.9722 6.69643 18 8.14286V8.34375C18 9.14732 17.8056 9.89732 17.4167 10.5938C17.0278 11.2902 16.4861 11.8795 15.7917 12.3616L13.5833 13.7277C13.1944 13.9955 13 14.3571 13 14.8125V14.8929C12.9444 15.4821 12.6111 15.8036 12 15.8571C11.3889 15.8036 11.0556 15.4821 11 14.8929V14.8125C11.0278 13.6875 11.5278 12.7902 12.5 12.1205L14.6667 10.7545C15.5278 10.1652 15.9722 9.36161 16 8.34375V8.14286C15.9722 7.23214 15.6528 6.46875 15.0417 5.85268C14.4028 5.26339 13.6111 4.95536 12.6667 4.92857H11.3333C10.3889 4.95536 9.59722 5.26339 8.95833 5.85268C8.34722 6.46875 8.02778 7.23214 8 8.14286ZM12 21C11.6111 21 11.2917 20.8795 11.0417 20.6384C10.7917 20.3973 10.6667 20.0893 10.6667 19.7143C10.6667 19.3393 10.7917 19.0312 11.0417 18.7902C11.2917 18.5491 11.6111 18.4286 12 18.4286C12.3889 18.4286 12.7083 18.5491 12.9583 18.7902C13.2083 19.0312 13.3333 19.3393 13.3333 19.7143C13.3333 20.0893 13.2083 20.3973 12.9583 20.6384C12.7083 20.8795 12.3889 21 12 21Z"/></svg>