<svg width="24" height="24" viewBox="0 0 24 24" xmlns="http://www.w3.org/2000/svg" fill="#cacaca"><path d="M5.57143 4.92857C5.16964 4.95536 4.95536 5.16964 4.92857 5.57143V18.4286C4.95536 18.8304 5.16964 19.0446 5.57143 19.0714H18.4286C18.8304 19.0446 19.0446 18.8304 19.0714 18.4286V5.57143C19.0446 5.16964 18.8304 4.95536 18.4286 4.92857H5.57143ZM3 5.57143C3.02679 4.84821 3.28125 4.24554 3.76339 3.76339C4.24554 3.28125 4.84821 3.02679 5.57143 3H18.4286C19.1518 3.02679 19.7545 3.28125 20.2366 3.76339C20.7188 4.24554 20.9732 4.84821 21 5.57143V18.4286C20.9732 19.1518 20.7188 19.7545 20.2366 20.2366C19.7545 20.7188 19.1518 20.9732 18.4286 21H5.57143C4.84821 20.9732 4.24554 20.7188 3.76339 20.2366C3.28125 19.7545 3.02679 19.1518 3 18.4286V5.57143ZM8.54464 8.34375C8.70536 7.88839 8.97321 7.52679 9.34821 7.25893C9.72321 6.99107 10.1652 6.85714 10.6741 6.85714H13.0045C13.7277 6.88393 14.3304 7.13839 14.8125 7.62054C15.2679 8.07589 15.5089 8.66518 15.5357 9.38839C15.5089 10.3527 15.0804 11.0893 14.25 11.5982L12.9643 12.3214C12.9107 12.9107 12.5893 13.2321 12 13.2857C11.4107 13.2321 11.0893 12.9107 11.0357 12.3214V11.7991C11.0357 11.4241 11.1964 11.1429 11.5179 10.9554L13.2857 9.91071C13.5 9.80357 13.6071 9.62946 13.6071 9.38839C13.5804 9.01339 13.3795 8.8125 13.0045 8.78571H10.6741C10.5134 8.78571 10.4062 8.85268 10.3527 8.98661V9.06696C10.0848 9.60268 9.66964 9.79018 9.10714 9.62946C8.57143 9.38839 8.37054 8.98661 8.50446 8.42411L8.54464 8.34375ZM10.7143 15.8571C10.7143 15.4821 10.8348 15.1741 11.0759 14.933C11.317 14.692 11.625 14.5714 12 14.5714C12.375 14.5714 12.683 14.692 12.9241 14.933C13.1652 15.1741 13.2857 15.4821 13.2857 15.8571C13.2857 16.2321 13.1652 16.5402 12.9241 16.7812C12.683 17.0223 12.375 17.1429 12 17.1429C11.625 17.1429 11.317 17.0223 11.0759 16.7812C10.8348 16.5402 10.7143 16.2321 10.7143 15.8571Z"/></svg>