<svg width="24" height="24" viewBox="0 0 24 24" xmlns="http://www.w3.org/2000/svg" fill="#cacaca"><path d="M19 13.25C18.9792 14.3125 18.6146 15.1979 17.9062 15.9062C17.1979 16.6146 16.3125 16.9792 15.25 17H14.75C14.2917 16.9583 14.0417 16.7083 14 16.25C14.0417 15.7917 14.2917 15.5417 14.75 15.5H15.25C15.8958 15.4792 16.4271 15.2604 16.8438 14.8438C17.2604 14.4271 17.4792 13.8958 17.5 13.25V12.9375C17.3333 12.9792 17.1667 13 17 13H15C14.4375 12.9792 13.9688 12.7812 13.5938 12.4062C13.2188 12.0312 13.0208 11.5625 13 11V9C13.0208 8.4375 13.2188 7.96875 13.5938 7.59375C13.9688 7.21875 14.4375 7.02083 15 7H17C17.5625 7.02083 18.0312 7.21875 18.4062 7.59375C18.7812 7.96875 18.9792 8.4375 19 9V13.25ZM17.5 11V9C17.4792 8.6875 17.3125 8.52083 17 8.5H15C14.6875 8.52083 14.5208 8.6875 14.5 9V11C14.5208 11.3125 14.6875 11.4792 15 11.5H17C17.3125 11.4792 17.4792 11.3125 17.5 11ZM7 11.5H9C9.3125 11.4792 9.47917 11.3125 9.5 11V9C9.47917 8.6875 9.3125 8.52083 9 8.5H7C6.6875 8.52083 6.52083 8.6875 6.5 9V11C6.52083 11.3125 6.6875 11.4792 7 11.5ZM11 13.25C10.9792 14.3125 10.6146 15.1979 9.90625 15.9062C9.19792 16.6146 8.3125 16.9792 7.25 17H6.75C6.29167 16.9583 6.04167 16.7083 6 16.25C6.04167 15.7917 6.29167 15.5417 6.75 15.5H7.25C7.89583 15.4792 8.42708 15.2604 8.84375 14.8438C9.26042 14.4271 9.47917 13.8958 9.5 13.25V12.9375C9.33333 12.9792 9.16667 13 9 13H7C6.4375 12.9792 5.96875 12.7812 5.59375 12.4062C5.21875 12.0312 5.02083 11.5625 5 11V9C5.02083 8.4375 5.21875 7.96875 5.59375 7.59375C5.96875 7.21875 6.4375 7.02083 7 7H9C9.5625 7.02083 10.0312 7.21875 10.4062 7.59375C10.7812 7.96875 10.9792 8.4375 11 9V13.25Z"/></svg>