<svg width="24" height="24" viewBox="0 0 24 24" xmlns="http://www.w3.org/2000/svg" fill="#cacaca"><path d="M5 10.75C5.02083 9.6875 5.38542 8.80208 6.09375 8.09375C6.80208 7.38542 7.6875 7.02083 8.75 7H9.25C9.70833 7.04167 9.95833 7.29167 10 7.75C9.95833 8.20833 9.70833 8.45833 9.25 8.5H8.75C8.10417 8.52083 7.57292 8.73958 7.15625 9.15625C6.73958 9.57292 6.52083 10.1042 6.5 10.75V11.0625C6.66667 11.0208 6.83333 11 7 11H9C9.5625 11.0208 10.0312 11.2188 10.4062 11.5938C10.7812 11.9688 10.9792 12.4375 11 13V15C10.9792 15.5625 10.7812 16.0312 10.4062 16.4062C10.0312 16.7812 9.5625 16.9792 9 17H7C6.4375 16.9792 5.96875 16.7812 5.59375 16.4062C5.21875 16.0312 5.02083 15.5625 5 15V10.75ZM6.5 13V15C6.52083 15.3125 6.6875 15.4792 7 15.5H9C9.3125 15.4792 9.47917 15.3125 9.5 15V13C9.47917 12.6875 9.3125 12.5208 9 12.5H7C6.6875 12.5208 6.52083 12.6875 6.5 13ZM17 12.5H15C14.6875 12.5208 14.5208 12.6875 14.5 13V15C14.5208 15.3125 14.6875 15.4792 15 15.5H17C17.3125 15.4792 17.4792 15.3125 17.5 15V13C17.4792 12.6875 17.3125 12.5208 17 12.5ZM13 10.75C13.0208 9.6875 13.3854 8.80208 14.0938 8.09375C14.8021 7.38542 15.6875 7.02083 16.75 7H17.25C17.7083 7.04167 17.9583 7.29167 18 7.75C17.9583 8.20833 17.7083 8.45833 17.25 8.5H16.75C16.1042 8.52083 15.5729 8.73958 15.1562 9.15625C14.7396 9.57292 14.5208 10.1042 14.5 10.75V11.0625C14.6667 11.0208 14.8333 11 15 11H17C17.5625 11.0208 18.0312 11.2188 18.4062 11.5938C18.7812 11.9688 18.9792 12.4375 19 13V15C18.9792 15.5625 18.7812 16.0312 18.4062 16.4062C18.0312 16.7812 17.5625 16.9792 17 17H15C14.4375 16.9792 13.9688 16.7812 13.5938 16.4062C13.2188 16.0312 13.0208 15.5625 13 15V10.75Z"/></svg>