<svg width="24" height="24" viewBox="0 0 24 24" xmlns="http://www.w3.org/2000/svg" fill="#cacaca"><path d="M20.3672 4.64604L10.0664 7.49369H18.75C19.3828 7.51713 19.9102 7.73979 20.332 8.16166C20.7539 8.58354 20.9766 9.11088 21 9.74369V18.7437C20.9766 19.3765 20.7539 19.9038 20.332 20.3257C19.9102 20.7476 19.3828 20.9703 18.75 20.9937H5.25C4.61719 20.9703 4.08984 20.7476 3.66797 20.3257C3.24609 19.9038 3.02344 19.3765 3 18.7437V9.63822C3 9.05229 3.17578 8.53666 3.52734 8.09135C3.85547 7.64604 4.30078 7.34135 4.86328 7.17729L19.9453 3.02885C20.4375 2.9351 20.7773 3.13432 20.9648 3.6265C21.0586 4.11869 20.8594 4.45854 20.3672 4.64604ZM4.6875 9.74369V18.7437C4.71094 19.0953 4.89844 19.2828 5.25 19.3062H18.75C19.1016 19.2828 19.2891 19.0953 19.3125 18.7437V9.74369C19.2891 9.39213 19.1016 9.20463 18.75 9.18119H5.25C4.89844 9.20463 4.71094 9.39213 4.6875 9.74369ZM15.375 13.1187C15.0469 13.1187 14.7773 13.2242 14.5664 13.4351C14.3555 13.646 14.25 13.9156 14.25 14.2437C14.25 14.5718 14.3555 14.8413 14.5664 15.0523C14.7773 15.2632 15.0469 15.3687 15.375 15.3687C15.7031 15.3687 15.9727 15.2632 16.1836 15.0523C16.3945 14.8413 16.5 14.5718 16.5 14.2437C16.5 13.9156 16.3945 13.646 16.1836 13.4351C15.9727 13.2242 15.7031 13.1187 15.375 13.1187ZM15.375 17.0562C14.3203 17.0328 13.5117 16.564 12.9492 15.6499C12.4336 14.7124 12.4336 13.7749 12.9492 12.8374C13.5117 11.9234 14.3203 11.4546 15.375 11.4312C16.4297 11.4546 17.2383 11.9234 17.8008 12.8374C18.3164 13.7749 18.3164 14.7124 17.8008 15.6499C17.2383 16.564 16.4297 17.0328 15.375 17.0562ZM6.9375 11.4312H10.3125C10.6641 11.4546 10.8516 11.6421 10.875 11.9937C10.8516 12.3453 10.6641 12.5328 10.3125 12.5562H6.9375C6.58594 12.5328 6.39844 12.3453 6.375 11.9937C6.39844 11.6421 6.58594 11.4546 6.9375 11.4312ZM6.375 13.6812H10.875C11.2266 13.7046 11.4141 13.8921 11.4375 14.2437C11.4141 14.5953 11.2266 14.7828 10.875 14.8062H6.375C6.02344 14.7828 5.83594 14.5953 5.8125 14.2437C5.83594 13.8921 6.02344 13.7046 6.375 13.6812ZM6.9375 15.9312H10.3125C10.6641 15.9546 10.8516 16.1421 10.875 16.4937C10.8516 16.8453 10.6641 17.0328 10.3125 17.0562H6.9375C6.58594 17.0328 6.39844 16.8453 6.375 16.4937C6.39844 16.1421 6.58594 15.9546 6.9375 15.9312Z"/></svg>