<svg width="24" height="24" viewBox="0 0 24 24" xmlns="http://www.w3.org/2000/svg" fill="#cacaca"><path d="M8.3125 7.34375L9.625 5.21875C9.70833 5.07292 9.83333 5 10 5C10.1667 5 10.2917 5.07292 10.375 5.21875L11.6875 7.34375C11.8958 7.67708 12 8.04167 12 8.4375V8.5C11.9792 9.0625 11.7812 9.53125 11.4062 9.90625C11.0312 10.2812 10.5625 10.4792 10 10.5C9.4375 10.4792 8.96875 10.2812 8.59375 9.90625C8.21875 9.53125 8.02083 9.0625 8 8.5V8.4375C8 8.04167 8.10417 7.67708 8.3125 7.34375ZM5.3125 13.3438L6.625 11.2188C6.70833 11.0729 6.83333 11 7 11C7.16667 11 7.29167 11.0729 7.375 11.2188L8.6875 13.3438C8.89583 13.6771 9 14.0417 9 14.4375V14.5C8.97917 15.0625 8.78125 15.5312 8.40625 15.9062C8.03125 16.2812 7.5625 16.4792 7 16.5C6.4375 16.4792 5.96875 16.2812 5.59375 15.9062C5.21875 15.5312 5.02083 15.0625 5 14.5V14.4375C5 14.0417 5.10417 13.6771 5.3125 13.3438ZM12.9062 13.6875C12.6354 14.1042 12.5 14.5521 12.5 15.0312C12.5208 15.7188 12.7604 16.3021 13.2188 16.7812C13.6979 17.2396 14.2917 17.4792 15 17.5C15.7083 17.4792 16.3021 17.2396 16.7812 16.7812C17.2396 16.3021 17.4792 15.7188 17.5 15.0312C17.5 14.5521 17.375 14.1042 17.125 13.6875L15 10.4062L12.9062 13.6875ZM11.625 12.875L14.625 8.21875C14.7083 8.07292 14.8333 8 15 8C15.1667 8 15.2917 8.07292 15.375 8.21875L18.375 12.875C18.7917 13.5417 19 14.2604 19 15.0312C18.9792 16.1562 18.5833 17.0938 17.8125 17.8438C17.0625 18.5938 16.125 18.9792 15 19C13.875 18.9792 12.9375 18.5938 12.1875 17.8438C11.4167 17.0938 11.0208 16.1562 11 15.0312C11 14.2604 11.2083 13.5417 11.625 12.875Z"/></svg>