<svg width="24" height="24" viewBox="0 0 24 24" xmlns="http://www.w3.org/2000/svg" fill="#cacaca"><path d="M5 6.5C4.6875 6.52083 4.52083 6.6875 4.5 7V17C4.52083 17.3125 4.6875 17.4792 5 17.5H19C19.3125 17.4792 19.4792 17.3125 19.5 17V7C19.4792 6.6875 19.3125 6.52083 19 6.5H5ZM3 7C3.02083 6.4375 3.21875 5.96875 3.59375 5.59375C3.96875 5.21875 4.4375 5.02083 5 5H19C19.5625 5.02083 20.0312 5.21875 20.4062 5.59375C20.7812 5.96875 20.9792 6.4375 21 7V17C20.9792 17.5625 20.7812 18.0312 20.4062 18.4062C20.0312 18.7812 19.5625 18.9792 19 19H5C4.4375 18.9792 3.96875 18.7812 3.59375 18.4062C3.21875 18.0312 3.02083 17.5625 3 17V7ZM6.75 8C7.20833 8.04167 7.45833 8.29167 7.5 8.75V15.25C7.45833 15.7083 7.20833 15.9583 6.75 16C6.29167 15.9583 6.04167 15.7083 6 15.25V8.75C6.04167 8.29167 6.29167 8.04167 6.75 8ZM9 8C9.3125 8.02083 9.47917 8.1875 9.5 8.5V15.5C9.47917 15.8125 9.3125 15.9792 9 16C8.6875 15.9792 8.52083 15.8125 8.5 15.5V8.5C8.52083 8.1875 8.6875 8.02083 9 8ZM10.5 8.75C10.5417 8.29167 10.7917 8.04167 11.25 8C11.7083 8.04167 11.9583 8.29167 12 8.75V15.25C11.9583 15.7083 11.7083 15.9583 11.25 16C10.7917 15.9583 10.5417 15.7083 10.5 15.25V8.75ZM14.75 8C15.2083 8.04167 15.4583 8.29167 15.5 8.75V15.25C15.4583 15.7083 15.2083 15.9583 14.75 16C14.2917 15.9583 14.0417 15.7083 14 15.25V8.75C14.0417 8.29167 14.2917 8.04167 14.75 8ZM17 8.5C17.0208 8.1875 17.1875 8.02083 17.5 8C17.8125 8.02083 17.9792 8.1875 18 8.5V15.5C17.9792 15.8125 17.8125 15.9792 17.5 16C17.1875 15.9792 17.0208 15.8125 17 15.5V8.5Z"/></svg>