<svg width="24" height="24" viewBox="0 0 24 24" xmlns="http://www.w3.org/2000/svg" fill="#cacaca"><path d="M5 6.5C4.71875 6.5 4.5 6.75 4.5 7V17C4.5 17.2812 4.71875 17.5 5 17.5H19C19.25 17.5 19.5 17.2812 19.5 17V7C19.5 6.75 19.25 6.5 19 6.5H5ZM3 7C3 5.90625 3.875 5 5 5H19C20.0938 5 21 5.90625 21 7V17C21 18.125 20.0938 19 19 19H5C3.875 19 3 18.125 3 17V7ZM10.1562 9.4375L12.4062 13.9375C12.5938 14.3125 12.4375 14.75 12.0625 14.9375C11.7188 15.125 11.25 14.9687 11.0625 14.5938L10.9062 14.25H8.0625L7.90625 14.5938C7.71875 14.9687 7.28125 15.125 6.90625 14.9375C6.53125 14.75 6.375 14.3125 6.5625 13.9375L8.8125 9.4375C8.9375 9.1875 9.1875 9 9.5 9C9.78125 9 10.0313 9.15625 10.1562 9.4375ZM9.5 11.4375L8.8125 12.75H10.1562L9.5 11.4375ZM15.25 12C14.8125 12 14.5 12.3438 14.5 12.75C14.5 13.1875 14.8125 13.5 15.25 13.5C15.6563 13.5 16 13.1875 16 12.75C16 12.3438 15.6563 12 15.25 12ZM16 10.6562V9.75C16 9.34375 16.3125 9 16.75 9C17.1563 9 17.5 9.34375 17.5 9.75V12.75V14.25C17.5 14.6875 17.1563 15 16.75 15C16.5313 15 16.3437 14.9375 16.2188 14.7812C15.9062 14.9375 15.5938 15 15.25 15C14 15 13 14 13 12.75C13 11.5313 14 10.5 15.25 10.5C15.5 10.5 15.75 10.5625 16 10.6562Z"/></svg>