<svg width="24" height="24" viewBox="0 0 24 24" xmlns="http://www.w3.org/2000/svg" fill="#cacaca"><path d="M5.00012 14.8799V9.01562L3.64074 10.1484C3.2165 10.502 2.58514 10.4447 2.23156 10.0205C1.87803 9.59626 1.9353 8.96491 2.35949 8.61133L5.35949 6.11133L5.43176 6.05762C5.79785 5.80421 6.29312 5.82164 6.64074 6.11133L9.64074 8.61133C10.0649 8.96491 10.1222 9.59626 9.76867 10.0205C9.41509 10.4447 8.78374 10.502 8.35949 10.1484L7.00012 9.01562V14.8799C7.00012 15.4322 7.44783 15.8799 8.00012 15.8799H11.0001C11.5524 15.8799 12.0001 16.3276 12.0001 16.8799C12.0001 17.4322 11.5524 17.8799 11.0001 17.8799H8.00012C6.34326 17.8799 5.00012 16.5367 5.00012 14.8799ZM17.0001 8.87988C17.0001 8.3276 16.5524 7.87988 16.0001 7.87988H13.0001C12.4478 7.87988 12.0001 7.43217 12.0001 6.87988C12.0001 6.3276 12.4478 5.87988 13.0001 5.87988H16.0001C17.657 5.87988 19.0001 7.22303 19.0001 8.87988V14.7441L20.3595 13.6113C20.7837 13.2578 21.4151 13.3151 21.7687 13.7393C22.1222 14.1635 22.0649 14.7949 21.6407 15.1484L18.6407 17.6484C18.2699 17.9575 17.7303 17.9575 17.3595 17.6484L14.3595 15.1484C13.9353 14.7949 13.878 14.1635 14.2316 13.7393C14.5851 13.3151 15.2165 13.2578 15.6407 13.6113L17.0001 14.7441V8.87988Z"/></svg>