<svg width="24" height="24" viewBox="0 0 24 24" fill="#cacaca" xmlns="http://www.w3.org/2000/svg">

    <path
        d="M8.75855 17.4994C7.92926 17.4994 7.26566 16.8112 7.26566 16.0372V12.0763C7.26552 11.8713 7.30434 11.6682 7.37989 11.4788C7.45545 11.2893 7.56627 11.1172 7.70602 10.9722C7.84576 10.8272 8.0117 10.7121 8.19433 10.6337C8.37696 10.5552 8.57272 10.5148 8.7704 10.5149H9.64242C9.64549 10.5149 9.64844 10.5136 9.65061 10.5113C9.65278 10.5091 9.654 10.506 9.654 10.5029V9.03636C9.654 7.74628 10.4171 6.95456 11.6611 6.95456C12.905 6.95456 13.6684 7.74599 13.6684 9.03636V10.5037C13.6684 10.5069 13.6696 10.51 13.6718 10.5122C13.6739 10.5145 13.6769 10.5157 13.68 10.5157H14.4693C14.667 10.5155 14.8628 10.5558 15.0455 10.6341C15.2282 10.7125 15.3942 10.8274 15.5341 10.9723C15.6739 11.1172 15.7849 11.2893 15.8605 11.4788C15.9362 11.6682 15.9751 11.8712 15.9751 12.0763V16.0252C15.9751 16.4161 15.8253 16.7911 15.5588 17.0676C15.2922 17.3441 14.9306 17.4994 14.5536 17.4994H8.75855ZM8.77013 11.4621C8.69236 11.4621 8.61535 11.478 8.5435 11.5089C8.47166 11.5397 8.40637 11.585 8.35138 11.642C8.29639 11.699 8.25277 11.7667 8.22301 11.8413C8.19325 11.9158 8.17794 11.9956 8.17794 12.0763V16.0252C8.17794 16.188 8.24033 16.3443 8.35138 16.4594C8.46244 16.5746 8.61307 16.6393 8.77013 16.6393H14.3866C14.5436 16.6393 14.6942 16.5746 14.8053 16.4594C14.9164 16.3443 14.9788 16.188 14.9788 16.0252V12.0763C14.9788 11.9956 14.9634 11.9158 14.9337 11.8413C14.9039 11.7667 14.8603 11.699 14.8053 11.642C14.7503 11.585 14.685 11.5397 14.6132 11.5089C14.5413 11.478 14.4643 11.4621 14.3866 11.4621H8.77013ZM12.6618 10.5149C12.6649 10.5149 12.6678 10.5136 12.67 10.5113C12.6722 10.5091 12.6734 10.506 12.6734 10.5029V9.03636C12.6734 8.26237 12.3249 7.90096 11.5786 7.90096C10.915 7.90096 10.5665 8.26237 10.5665 9.03636V10.5037C10.5665 10.5069 10.5678 10.51 10.5699 10.5122C10.5721 10.5145 10.5751 10.5157 10.5781 10.5157L12.6618 10.5149Z" />
    <path
        d="M14.5525 17.6423H8.75855C7.87467 17.6423 7.12782 16.9072 7.12782 16.0372V12.0763C7.12804 11.6245 7.30114 11.1912 7.60911 10.8717C7.91708 10.5521 8.33475 10.3724 8.7704 10.3719H9.51643V9.03636C9.51643 7.66393 10.3383 6.8116 11.6613 6.8116C12.9844 6.8116 13.8065 7.66393 13.8065 9.03636V10.3719H14.4695C14.9053 10.3721 15.3232 10.5518 15.6314 10.8714C15.9395 11.1909 16.1127 11.6243 16.113 12.0763V16.0252C16.1124 16.4541 15.9478 16.8653 15.6553 17.1685C15.3627 17.4717 14.9661 17.6421 14.5525 17.6423ZM8.7704 10.6578C8.40809 10.6583 8.06074 10.8077 7.80454 11.0734C7.54835 11.3391 7.40423 11.6994 7.40379 12.0751V16.0372C7.40379 16.752 8.02437 17.3564 8.75882 17.3564H14.5525C14.893 17.3563 15.2196 17.216 15.4604 16.9664C15.7013 16.7168 15.8368 16.3783 15.8373 16.0252V12.0763C15.8372 11.7001 15.6931 11.3394 15.4366 11.0734C15.1801 10.8074 14.8323 10.6579 14.4695 10.6578H13.6802C13.6406 10.6577 13.6027 10.6414 13.5747 10.6124C13.5466 10.5833 13.5309 10.5439 13.5308 10.5029V9.03636C13.5308 7.82233 12.8319 7.09752 11.6613 7.09752C10.4907 7.09752 9.79212 7.82233 9.79212 9.03636V10.5037C9.79183 10.5447 9.77593 10.5839 9.74789 10.6128C9.71985 10.6416 9.68194 10.6578 9.64242 10.6578H8.7704ZM14.3866 16.7823H8.7704C8.57685 16.7821 8.39129 16.7022 8.25443 16.5603C8.11757 16.4183 8.04058 16.2259 8.04037 16.0252V12.0763C8.04058 11.8756 8.11757 11.6831 8.25443 11.5412C8.39129 11.3992 8.57685 11.3194 8.7704 11.3192H14.3866C14.5801 11.3194 14.7657 11.3992 14.9025 11.5412C15.0394 11.6831 15.1164 11.8756 15.1166 12.0763V16.0252C15.1164 16.2259 15.0394 16.4183 14.9025 16.5603C14.7657 16.7022 14.5801 16.7821 14.3866 16.7823ZM8.7704 11.6051C8.64995 11.6052 8.53447 11.6549 8.44929 11.7433C8.36412 11.8316 8.31621 11.9514 8.31606 12.0763V16.0252C8.31621 16.1501 8.36412 16.2698 8.44929 16.3582C8.53447 16.4465 8.64995 16.4962 8.7704 16.4964H14.3866C14.507 16.4962 14.6225 16.4465 14.7077 16.3582C14.7928 16.2698 14.8408 16.1501 14.8409 16.0252V12.0763C14.8408 11.9514 14.7928 11.8316 14.7077 11.7433C14.6225 11.6549 14.507 11.6052 14.3866 11.6051H8.7704ZM12.6618 10.6578H10.5781C10.5385 10.6577 10.5006 10.6414 10.4725 10.6124C10.4445 10.5833 10.4288 10.5439 10.4287 10.5029V9.03636C10.4287 8.20004 10.8263 7.758 11.5786 7.758C12.3966 7.758 12.8112 8.18688 12.8112 9.03636V10.5037C12.811 10.5446 12.7951 10.5838 12.7671 10.6127C12.7391 10.6415 12.7013 10.6578 12.6618 10.6578ZM10.7044 10.3719H12.5356V9.03636C12.5356 8.34071 12.2494 8.04392 11.5786 8.04392C10.9823 8.04392 10.7044 8.35844 10.7044 9.03636V10.3719Z" />
    <path
        d="M11.6704 21.737C6.53783 21.737 2.35583 17.3999 2.35583 12.0771C2.35583 6.75441 6.53783 2.41725 11.6704 2.41725C13.8377 2.41725 15.8182 3.19239 17.5193 4.55052C17.5226 4.55321 17.5266 4.55478 17.5308 4.55501C17.535 4.55524 17.5392 4.55412 17.5427 4.55181C17.5463 4.54949 17.5491 4.54609 17.5507 4.54208C17.5523 4.53806 17.5527 4.53362 17.5518 4.52936L17.1835 2.71518V2.7109C17.1835 2.61225 17.1835 2.41925 17.2764 2.3209L17.2797 2.31604C17.374 2.12066 17.4685 2.02297 17.5631 2.02297H17.6568C17.8468 2.02297 18.1321 2.21997 18.1321 2.41725L18.7971 5.96269V6.06334C18.7971 6.35898 18.6069 6.55598 18.4169 6.55598L14.9983 7.24563H14.9013C14.7113 7.24563 14.426 7.04834 14.426 6.85134C14.426 6.7527 14.426 6.55569 14.5211 6.45705C14.6162 6.35841 14.7111 6.26005 14.8062 6.26005L17.2375 5.77398C17.2413 5.77325 17.2448 5.77145 17.2476 5.76877C17.2505 5.76609 17.2526 5.76264 17.2536 5.75881C17.2547 5.75498 17.2547 5.75092 17.2536 5.74709C17.2526 5.74325 17.2505 5.73979 17.2477 5.7371C15.4609 4.01728 13.0266 3.24328 10.5539 3.57324C6.77465 4.08161 3.83521 7.24248 3.4462 11.1742C2.95629 16.1284 6.55272 20.3454 11.1609 20.6365C15.9304 20.9379 19.9404 16.9633 19.9393 12.0091C19.9393 11.5087 19.9363 11.0778 19.8709 10.6547C19.8544 10.5475 19.823 10.4045 19.8017 10.2967C19.7855 10.2216 19.777 10.1449 19.7764 10.068C19.7801 10.0362 19.7894 10.0055 19.8039 9.97733C19.8288 9.92701 19.9217 9.74859 20.2233 9.71285H20.3184C20.6032 9.71285 20.7711 9.92672 20.888 10.3004V10.3039C20.9814 10.5555 21.0771 11.3223 21.0777 12.0766C21.0829 17.4002 16.8008 21.7365 11.6682 21.7365L11.6704 21.737Z" />
    <path
        d="M11.6704 21.88C6.45981 21.88 2.21826 17.4825 2.21826 12.0771C2.21826 6.67178 6.45843 2.27429 11.6704 2.27429C12.7429 2.27328 13.8075 2.46462 14.8172 2.83985C15.7226 3.18018 16.5766 3.6525 17.3536 4.24258L17.0503 2.74435C17.0481 2.73325 17.047 2.72194 17.047 2.71061C17.047 2.60139 17.047 2.37837 17.1653 2.23626C17.2157 2.13247 17.3478 1.88 17.5631 1.88H17.6568C17.8948 1.88 18.257 2.11217 18.2697 2.40153L18.9314 5.93639C18.9333 5.94675 18.9344 5.95728 18.9344 5.96784V6.06448C18.9344 6.40902 18.7097 6.69065 18.431 6.70008L15.0231 7.3863C15.0132 7.38836 15.003 7.38942 14.9928 7.38944H14.8996C14.6576 7.38944 14.2865 7.1487 14.2865 6.8522C14.2865 6.73783 14.2865 6.49708 14.4221 6.35669C14.5324 6.24232 14.6446 6.12595 14.7893 6.11823L16.9806 5.68277C15.2542 4.11763 12.9323 3.40283 10.5715 3.71791C8.76648 3.96279 7.09443 4.83386 5.82737 6.18943C4.56165 7.549 3.77148 9.30907 3.58295 11.1888C3.35329 13.5105 4.02406 15.7618 5.46952 17.5285C6.16764 18.3838 7.02315 19.0862 7.98605 19.5946C9.47311 20.3822 11.1589 20.6727 12.8116 20.4262C14.4643 20.1797 16.0029 19.4084 17.2157 18.2182C18.0335 17.4219 18.685 16.46 19.1298 15.392C19.5746 14.324 19.8033 13.1727 19.8017 12.0094C19.8017 11.481 19.7968 11.0761 19.7353 10.6776C19.724 10.6044 19.7044 10.5091 19.6873 10.4254C19.6802 10.3905 19.6733 10.3567 19.6672 10.3259C19.6518 10.2561 19.6431 10.185 19.6413 10.1134L19.6394 10.0777C19.6394 10.0608 19.6355 10.0102 19.6826 9.91385C19.7769 9.72229 19.9641 9.60105 20.2095 9.57218H20.32C20.8061 9.57218 20.9676 10.0888 21.0209 10.2584L21.0228 10.2644C21.1306 10.5692 21.2174 11.3755 21.2183 12.0783C21.2207 14.6564 20.2384 17.0974 18.4522 18.9519C17.5762 19.8636 16.5385 20.591 15.3962 21.094C14.2183 21.6145 12.9508 21.8819 11.6704 21.88ZM11.6704 2.56021C6.61034 2.56021 2.49368 6.82961 2.49368 12.0771C2.49368 17.3247 6.61034 21.5941 11.6704 21.5941C12.913 21.5952 14.1429 21.3351 15.2859 20.8295C16.3962 20.3413 17.4049 19.635 18.2565 18.7494C19.9906 16.9481 20.9445 14.5798 20.942 12.0783C20.942 11.3377 20.848 10.5915 20.7614 10.3567L20.7559 10.3387C20.6217 9.91443 20.4598 9.85724 20.3195 9.85724H20.2327C20.0818 9.87668 19.9793 9.9393 19.928 10.0437C19.9231 10.0537 19.9188 10.064 19.9151 10.0745V10.0968C19.916 10.1546 19.923 10.2121 19.9357 10.2684C19.9418 10.2987 19.9484 10.3316 19.9556 10.3656C19.9735 10.4528 19.9936 10.5517 20.0063 10.6324C20.0711 11.0518 20.0761 11.4676 20.0763 12.0094C20.0775 13.8012 19.5513 15.5507 18.5679 17.024C17.5846 18.4973 16.191 19.6242 14.5735 20.254C13.4884 20.6712 12.3318 20.8506 11.1765 20.781C10.0212 20.7114 8.89236 20.3943 7.86116 19.8497C6.86577 19.3241 5.98139 18.598 5.25972 17.7138C3.76435 15.8871 3.07264 13.5594 3.30918 11.1596C3.50408 9.21607 4.32104 7.39621 5.6297 5.99043C6.93815 4.58518 8.66885 3.68369 10.537 3.43428C13.0591 3.09775 15.5395 3.90005 17.3423 5.63588C17.3637 5.65654 17.3793 5.68296 17.3871 5.71221C17.395 5.74146 17.3949 5.7724 17.3869 5.80159C17.3788 5.83079 17.3631 5.8571 17.3415 5.87762C17.3199 5.89813 17.2933 5.91204 17.2645 5.9178L14.8202 6.40387H14.807C14.7689 6.40387 14.6716 6.5048 14.6195 6.55913C14.5674 6.61345 14.5644 6.78786 14.5644 6.8522C14.5644 6.95084 14.7692 7.10352 14.9018 7.10352H14.9845L18.4062 6.41331H18.4194C18.5366 6.41331 18.6617 6.27263 18.6617 6.06362V5.97785L17.9957 2.43098V2.41725C17.9957 2.31861 17.7908 2.16593 17.6582 2.16593H17.5631C17.5631 2.16593 17.5019 2.17508 17.4024 2.38008L17.3977 2.3898L17.3836 2.41011L17.3748 2.42011C17.3241 2.47415 17.3197 2.62655 17.3197 2.69774L17.6852 4.49905C17.6919 4.53189 17.6887 4.56606 17.6761 4.59696C17.6634 4.62786 17.642 4.65399 17.6146 4.67185C17.5872 4.6897 17.5552 4.69841 17.5228 4.69681C17.4905 4.69521 17.4594 4.68337 17.4338 4.66289C16.5833 3.98382 15.671 3.46201 14.7218 3.10833C13.7427 2.74471 12.7104 2.55928 11.6704 2.56021Z" />
    <path
        d="M8.75855 17.4994C7.92926 17.4994 7.26566 16.8112 7.26566 16.0372V12.0763C7.26552 11.8713 7.30434 11.6682 7.37989 11.4788C7.45545 11.2893 7.56627 11.1172 7.70602 10.9722C7.84576 10.8272 8.0117 10.7121 8.19433 10.6337C8.37696 10.5552 8.57272 10.5148 8.7704 10.5149H9.64242C9.64549 10.5149 9.64844 10.5136 9.65061 10.5113C9.65278 10.5091 9.654 10.506 9.654 10.5029V9.03636C9.654 7.74628 10.4171 6.95456 11.6611 6.95456C12.905 6.95456 13.6684 7.74599 13.6684 9.03636V10.5037C13.6684 10.5069 13.6696 10.51 13.6718 10.5122C13.6739 10.5145 13.6769 10.5157 13.68 10.5157H14.4693C14.667 10.5155 14.8628 10.5558 15.0455 10.6341C15.2282 10.7125 15.3942 10.8274 15.5341 10.9723C15.6739 11.1172 15.7849 11.2893 15.8605 11.4788C15.9362 11.6682 15.9751 11.8712 15.9751 12.0763V16.0252C15.9751 16.4161 15.8253 16.7911 15.5588 17.0676C15.2922 17.3441 14.9306 17.4994 14.5536 17.4994H8.75855ZM8.77013 11.4621C8.69236 11.4621 8.61535 11.478 8.5435 11.5089C8.47166 11.5397 8.40637 11.585 8.35138 11.642C8.29639 11.699 8.25277 11.7667 8.22301 11.8413C8.19325 11.9158 8.17794 11.9956 8.17794 12.0763V16.0252C8.17794 16.188 8.24033 16.3443 8.35138 16.4594C8.46244 16.5746 8.61307 16.6393 8.77013 16.6393H14.3866C14.5436 16.6393 14.6942 16.5746 14.8053 16.4594C14.9164 16.3443 14.9788 16.188 14.9788 16.0252V12.0763C14.9788 11.9956 14.9634 11.9158 14.9337 11.8413C14.9039 11.7667 14.8603 11.699 14.8053 11.642C14.7503 11.585 14.685 11.5397 14.6132 11.5089C14.5413 11.478 14.4643 11.4621 14.3866 11.4621H8.77013ZM12.6618 10.5149C12.6649 10.5149 12.6678 10.5136 12.67 10.5113C12.6722 10.5091 12.6734 10.506 12.6734 10.5029V9.03636C12.6734 8.26237 12.3249 7.90096 11.5786 7.90096C10.915 7.90096 10.5665 8.26237 10.5665 9.03636V10.5037C10.5665 10.5069 10.5678 10.51 10.5699 10.5122C10.5721 10.5145 10.5751 10.5157 10.5781 10.5157L12.6618 10.5149Z" />
    <path
        d="M14.5525 17.6423H8.75855C7.87467 17.6423 7.12782 16.9072 7.12782 16.0372V12.0763C7.12804 11.6245 7.30114 11.1912 7.60911 10.8717C7.91708 10.5521 8.33475 10.3724 8.7704 10.3719H9.51643V9.03636C9.51643 7.66393 10.3383 6.8116 11.6613 6.8116C12.9844 6.8116 13.8065 7.66393 13.8065 9.03636V10.3719H14.4695C14.9053 10.3721 15.3232 10.5518 15.6314 10.8714C15.9395 11.1909 16.1127 11.6243 16.113 12.0763V16.0252C16.1124 16.4541 15.9478 16.8653 15.6553 17.1685C15.3627 17.4717 14.9661 17.6421 14.5525 17.6423ZM8.7704 10.6578C8.40809 10.6583 8.06074 10.8077 7.80454 11.0734C7.54835 11.3391 7.40423 11.6994 7.40379 12.0751V16.0372C7.40379 16.752 8.02437 17.3564 8.75882 17.3564H14.5525C14.893 17.3563 15.2196 17.216 15.4604 16.9664C15.7013 16.7168 15.8368 16.3783 15.8373 16.0252V12.0763C15.8372 11.7001 15.6931 11.3394 15.4366 11.0734C15.1801 10.8074 14.8323 10.6579 14.4695 10.6578H13.6802C13.6406 10.6577 13.6027 10.6414 13.5747 10.6124C13.5466 10.5833 13.5309 10.5439 13.5308 10.5029V9.03636C13.5308 7.82233 12.8319 7.09752 11.6613 7.09752C10.4907 7.09752 9.79212 7.82233 9.79212 9.03636V10.5037C9.79183 10.5447 9.77593 10.5839 9.74789 10.6128C9.71985 10.6416 9.68194 10.6578 9.64242 10.6578H8.7704ZM14.3866 16.7823H8.7704C8.57685 16.7821 8.39129 16.7022 8.25443 16.5603C8.11757 16.4183 8.04058 16.2259 8.04037 16.0252V12.0763C8.04058 11.8756 8.11757 11.6831 8.25443 11.5412C8.39129 11.3992 8.57685 11.3194 8.7704 11.3192H14.3866C14.5801 11.3194 14.7657 11.3992 14.9025 11.5412C15.0394 11.6831 15.1164 11.8756 15.1166 12.0763V16.0252C15.1164 16.2259 15.0394 16.4183 14.9025 16.5603C14.7657 16.7022 14.5801 16.7821 14.3866 16.7823ZM8.7704 11.6051C8.64995 11.6052 8.53447 11.6549 8.44929 11.7433C8.36412 11.8316 8.31621 11.9514 8.31606 12.0763V16.0252C8.31621 16.1501 8.36412 16.2698 8.44929 16.3582C8.53447 16.4465 8.64995 16.4962 8.7704 16.4964H14.3866C14.507 16.4962 14.6225 16.4465 14.7077 16.3582C14.7928 16.2698 14.8408 16.1501 14.8409 16.0252V12.0763C14.8408 11.9514 14.7928 11.8316 14.7077 11.7433C14.6225 11.6549 14.507 11.6052 14.3866 11.6051H8.7704ZM12.6618 10.6578H10.5781C10.5385 10.6577 10.5006 10.6414 10.4725 10.6124C10.4445 10.5833 10.4288 10.5439 10.4287 10.5029V9.03636C10.4287 8.20004 10.8263 7.758 11.5786 7.758C12.3966 7.758 12.8112 8.18688 12.8112 9.03636V10.5037C12.811 10.5446 12.7951 10.5838 12.7671 10.6127C12.7391 10.6415 12.7013 10.6578 12.6618 10.6578ZM10.7044 10.3719H12.5356V9.03636C12.5356 8.34071 12.2494 8.04392 11.5786 8.04392C10.9823 8.04392 10.7044 8.35844 10.7044 9.03636V10.3719Z" />
    <path
        d="M11.6704 21.737C6.53783 21.737 2.35583 17.3999 2.35583 12.0771C2.35583 6.75441 6.53783 2.41725 11.6704 2.41725C13.8377 2.41725 15.8182 3.19239 17.5193 4.55052C17.5226 4.55321 17.5266 4.55478 17.5308 4.55501C17.535 4.55524 17.5392 4.55412 17.5427 4.55181C17.5463 4.54949 17.5491 4.54609 17.5507 4.54208C17.5523 4.53806 17.5527 4.53362 17.5518 4.52936L17.1835 2.71518V2.7109C17.1835 2.61225 17.1835 2.41925 17.2764 2.3209L17.2797 2.31604C17.374 2.12066 17.4685 2.02297 17.5631 2.02297H17.6568C17.8468 2.02297 18.1321 2.21997 18.1321 2.41725L18.7971 5.96269V6.06334C18.7971 6.35898 18.6069 6.55598 18.4169 6.55598L14.9983 7.24563H14.9013C14.7113 7.24563 14.426 7.04834 14.426 6.85134C14.426 6.7527 14.426 6.55569 14.5211 6.45705C14.6162 6.35841 14.7111 6.26005 14.8062 6.26005L17.2375 5.77398C17.2413 5.77325 17.2448 5.77145 17.2476 5.76877C17.2505 5.76609 17.2526 5.76264 17.2536 5.75881C17.2547 5.75498 17.2547 5.75092 17.2536 5.74709C17.2526 5.74325 17.2505 5.73979 17.2477 5.7371C15.4609 4.01728 13.0266 3.24328 10.5539 3.57324C6.77465 4.08161 3.83521 7.24248 3.4462 11.1742C2.95629 16.1284 6.55272 20.3454 11.1609 20.6365C15.9304 20.9379 19.9404 16.9633 19.9393 12.0091C19.9393 11.5087 19.9363 11.0778 19.8709 10.6547C19.8544 10.5475 19.823 10.4045 19.8017 10.2967C19.7855 10.2216 19.777 10.1449 19.7764 10.068C19.7801 10.0362 19.7894 10.0055 19.8039 9.97733C19.8288 9.92701 19.9217 9.74859 20.2233 9.71285H20.3184C20.6032 9.71285 20.7711 9.92672 20.888 10.3004V10.3039C20.9814 10.5555 21.0771 11.3223 21.0777 12.0766C21.0829 17.4002 16.8008 21.7365 11.6682 21.7365L11.6704 21.737Z" />
    <path
        d="M11.6704 21.88C6.45981 21.88 2.21826 17.4825 2.21826 12.0771C2.21826 6.67178 6.45843 2.27429 11.6704 2.27429C12.7429 2.27328 13.8075 2.46462 14.8172 2.83985C15.7226 3.18018 16.5766 3.6525 17.3536 4.24258L17.0503 2.74435C17.0481 2.73325 17.047 2.72194 17.047 2.71061C17.047 2.60139 17.047 2.37837 17.1653 2.23626C17.2157 2.13247 17.3478 1.88 17.5631 1.88H17.6568C17.8948 1.88 18.257 2.11217 18.2697 2.40153L18.9314 5.93639C18.9333 5.94675 18.9344 5.95728 18.9344 5.96784V6.06448C18.9344 6.40902 18.7097 6.69065 18.431 6.70008L15.0231 7.3863C15.0132 7.38836 15.003 7.38942 14.9928 7.38944H14.8996C14.6576 7.38944 14.2865 7.1487 14.2865 6.8522C14.2865 6.73783 14.2865 6.49708 14.4221 6.35669C14.5324 6.24232 14.6446 6.12595 14.7893 6.11823L16.9806 5.68277C15.2542 4.11763 12.9323 3.40283 10.5715 3.71791C8.76648 3.96279 7.09443 4.83386 5.82737 6.18943C4.56165 7.549 3.77148 9.30907 3.58295 11.1888C3.35329 13.5105 4.02406 15.7618 5.46952 17.5285C6.16764 18.3838 7.02315 19.0862 7.98605 19.5946C9.47311 20.3822 11.1589 20.6727 12.8116 20.4262C14.4643 20.1797 16.0029 19.4084 17.2157 18.2182C18.0335 17.4219 18.685 16.46 19.1298 15.392C19.5746 14.324 19.8033 13.1727 19.8017 12.0094C19.8017 11.481 19.7968 11.0761 19.7353 10.6776C19.724 10.6044 19.7044 10.5091 19.6873 10.4254C19.6802 10.3905 19.6733 10.3567 19.6672 10.3259C19.6518 10.2561 19.6431 10.185 19.6413 10.1134L19.6394 10.0777C19.6394 10.0608 19.6355 10.0102 19.6826 9.91385C19.7769 9.72229 19.9641 9.60105 20.2095 9.57218H20.32C20.8061 9.57218 20.9676 10.0888 21.0209 10.2584L21.0228 10.2644C21.1306 10.5692 21.2174 11.3755 21.2183 12.0783C21.2207 14.6564 20.2384 17.0974 18.4522 18.9519C17.5762 19.8636 16.5385 20.591 15.3962 21.094C14.2183 21.6145 12.9508 21.8819 11.6704 21.88ZM11.6704 2.56021C6.61034 2.56021 2.49368 6.82961 2.49368 12.0771C2.49368 17.3247 6.61034 21.5941 11.6704 21.5941C12.913 21.5952 14.1429 21.3351 15.2859 20.8295C16.3962 20.3413 17.4049 19.635 18.2565 18.7494C19.9906 16.9481 20.9445 14.5798 20.942 12.0783C20.942 11.3377 20.848 10.5915 20.7614 10.3567L20.7559 10.3387C20.6217 9.91443 20.4598 9.85724 20.3195 9.85724H20.2327C20.0818 9.87668 19.9793 9.9393 19.928 10.0437C19.9231 10.0537 19.9188 10.064 19.9151 10.0745V10.0968C19.916 10.1546 19.923 10.2121 19.9357 10.2684C19.9418 10.2987 19.9484 10.3316 19.9556 10.3656C19.9735 10.4528 19.9936 10.5517 20.0063 10.6324C20.0711 11.0518 20.0761 11.4676 20.0763 12.0094C20.0775 13.8012 19.5513 15.5507 18.5679 17.024C17.5846 18.4973 16.191 19.6242 14.5735 20.254C13.4884 20.6712 12.3318 20.8506 11.1765 20.781C10.0212 20.7114 8.89236 20.3943 7.86116 19.8497C6.86577 19.3241 5.98139 18.598 5.25972 17.7138C3.76435 15.8871 3.07264 13.5594 3.30918 11.1596C3.50408 9.21607 4.32104 7.39621 5.6297 5.99043C6.93815 4.58518 8.66885 3.68369 10.537 3.43428C13.0591 3.09775 15.5395 3.90005 17.3423 5.63588C17.3637 5.65654 17.3793 5.68296 17.3871 5.71221C17.395 5.74146 17.3949 5.7724 17.3869 5.80159C17.3788 5.83079 17.3631 5.8571 17.3415 5.87762C17.3199 5.89813 17.2933 5.91204 17.2645 5.9178L14.8202 6.40387H14.807C14.7689 6.40387 14.6716 6.5048 14.6195 6.55913C14.5674 6.61345 14.5644 6.78786 14.5644 6.8522C14.5644 6.95084 14.7692 7.10352 14.9018 7.10352H14.9845L18.4062 6.41331H18.4194C18.5366 6.41331 18.6617 6.27263 18.6617 6.06362V5.97785L17.9957 2.43098V2.41725C17.9957 2.31861 17.7908 2.16593 17.6582 2.16593H17.5631C17.5631 2.16593 17.5019 2.17508 17.4024 2.38008L17.3977 2.3898L17.3836 2.41011L17.3748 2.42011C17.3241 2.47415 17.3197 2.62655 17.3197 2.69774L17.6852 4.49905C17.6919 4.53189 17.6887 4.56606 17.6761 4.59696C17.6634 4.62786 17.642 4.65399 17.6146 4.67185C17.5872 4.6897 17.5552 4.69841 17.5228 4.69681C17.4905 4.69521 17.4594 4.68337 17.4338 4.66289C16.5833 3.98382 15.671 3.46201 14.7218 3.10833C13.7427 2.74471 12.7104 2.55928 11.6704 2.56021Z" />
    <path
        d="M21.0178 10.2515L20.9245 10.2875L20.9262 10.2918L21.0195 10.2558L21.1128 10.2198L21.1111 10.2156L21.0178 10.2515ZM7.26566 12.0763H7.46566L7.46566 12.0761L7.26566 12.0763ZM8.7704 10.5149L8.77036 10.7149H8.7704V10.5149ZM9.654 10.5029H9.454H9.654ZM13.6684 10.5037H13.4684V10.5037H13.6684ZM13.68 10.5157V10.7157V10.7157V10.5157ZM14.4693 10.5157V10.7157H14.4695L14.4693 10.5157ZM15.9751 12.0763L15.7751 12.0763V12.0763H15.9751ZM8.77013 11.4621V11.2621V11.4621ZM8.17794 12.0763H8.37794V12.0763H8.17794ZM8.17794 16.0252H8.37794H8.17794ZM8.77013 16.6393V16.8393V16.6393ZM14.9788 16.0252H15.1788H14.9788ZM14.9788 12.0763H14.7788V12.0763H14.9788ZM14.3866 11.4621V11.2621V11.4621ZM12.6618 10.5149V10.3149H12.6617L12.6618 10.5149ZM10.5665 10.5037H10.3665V10.5037H10.5665ZM10.5781 10.5157V10.7157H10.5782L10.5781 10.5157ZM14.5525 17.6423V17.8423H14.5526L14.5525 17.6423ZM7.12782 16.0372H6.92782H7.12782ZM7.12782 12.0763L6.92782 12.0762V12.0763H7.12782ZM8.7704 10.3719V10.1719H8.77019L8.7704 10.3719ZM9.51643 10.3719V10.5719H9.71643V10.3719H9.51643ZM13.8065 10.3719H13.6065V10.5719H13.8065V10.3719ZM14.4695 10.3719L14.4697 10.1719H14.4695V10.3719ZM16.113 12.0763H16.313V12.0762L16.113 12.0763ZM16.113 16.0252L16.313 16.0254V16.0252H16.113ZM8.7704 10.6578V10.4578H8.77015L8.7704 10.6578ZM7.40379 12.0751L7.20379 12.0749V12.0751H7.40379ZM14.5525 17.3564V17.5564H14.5526L14.5525 17.3564ZM15.8373 16.0252L16.0373 16.0254V16.0252H15.8373ZM15.8373 12.0763H16.0373V12.0762L15.8373 12.0763ZM14.4695 10.6578L14.4696 10.4578H14.4695V10.6578ZM13.6802 10.6578L13.6799 10.8578H13.6802V10.6578ZM13.5308 10.5029H13.3308L13.3308 10.5032L13.5308 10.5029ZM9.79212 10.5037L9.99212 10.5051V10.5037H9.79212ZM9.64242 10.6578L9.64243 10.4578H9.64242V10.6578ZM14.3866 16.7823V16.9823H14.3868L14.3866 16.7823ZM8.7704 16.7823L8.77017 16.9823H8.7704V16.7823ZM8.04037 16.0252H7.84036L7.84037 16.0254L8.04037 16.0252ZM8.04037 12.0763L7.84037 12.0761V12.0763H8.04037ZM8.7704 11.3192V11.1192H8.77017L8.7704 11.3192ZM14.3866 11.3192L14.3868 11.1192H14.3866V11.3192ZM15.1166 12.0763H15.3166V12.0761L15.1166 12.0763ZM15.1166 16.0252L15.3166 16.0254V16.0252H15.1166ZM8.7704 11.6051V11.4051H8.77015L8.7704 11.6051ZM8.31606 12.0763L8.11606 12.0761V12.0763H8.31606ZM8.31606 16.0252H8.11606L8.11606 16.0254L8.31606 16.0252ZM8.7704 16.4964L8.77015 16.6964H8.7704V16.4964ZM14.3866 16.4964V16.6964H14.3868L14.3866 16.4964ZM14.8409 16.0252L15.0409 16.0254V16.0252H14.8409ZM14.8409 12.0763H15.0409V12.0761L14.8409 12.0763ZM14.3866 11.6051L14.3868 11.4051H14.3866V11.6051ZM12.6618 10.6578V10.8578L12.6622 10.8578L12.6618 10.6578ZM10.5781 10.6578L10.5777 10.8578H10.5781V10.6578ZM10.4287 10.5029H10.2287L10.2287 10.5032L10.4287 10.5029ZM11.5786 7.758V7.958V7.958V7.758ZM12.8112 10.5037L13.0112 10.5051V10.5037H12.8112ZM10.7044 10.3719H10.5044V10.5719H10.7044V10.3719ZM12.5356 10.3719V10.5719H12.7356V10.3719H12.5356ZM10.7044 9.03636H10.9044H10.7044ZM11.6704 21.737V21.937L11.7208 21.5435L11.6704 21.737ZM17.5193 4.55052L17.6456 4.39544L17.6441 4.39423L17.5193 4.55052ZM17.5518 4.52936L17.3558 4.56916L17.3561 4.57061L17.5518 4.52936ZM17.1835 2.71518H16.9835V2.73528L16.9875 2.75498L17.1835 2.71518ZM17.1835 2.7109H16.9835H17.1835ZM17.2764 2.3209L17.4218 2.45823L17.4327 2.44663L17.4417 2.43343L17.2764 2.3209ZM17.2797 2.31604L17.445 2.42857L17.4534 2.41631L17.4598 2.40296L17.2797 2.31604ZM18.1321 2.41725H17.9321V2.43585L17.9356 2.45412L18.1321 2.41725ZM18.7971 5.96269H18.9971V5.9441L18.9937 5.92582L18.7971 5.96269ZM18.4169 6.55598V6.35598H18.397L18.3774 6.35993L18.4169 6.55598ZM14.9983 7.24563V7.44563H15.0183L15.0379 7.44168L14.9983 7.24563ZM14.8062 6.26005V6.46005H14.826L14.8454 6.45617L14.8062 6.26005ZM17.2375 5.77398L17.1997 5.57759L17.1983 5.57786L17.2375 5.77398ZM17.2477 5.7371L17.109 5.8812L17.1098 5.88199L17.2477 5.7371ZM10.5539 3.57324L10.5274 3.37499L10.5272 3.37502L10.5539 3.57324ZM3.4462 11.1742L3.24717 11.1545L3.24717 11.1545L3.4462 11.1742ZM11.1609 20.6365L11.1736 20.4369H11.1736L11.1609 20.6365ZM19.9393 12.0091H19.7393V12.0091L19.9393 12.0091ZM19.8709 10.6547L19.6733 10.6852L19.6733 10.6852L19.8709 10.6547ZM19.8017 10.2967L19.998 10.2581L19.9972 10.2545L19.8017 10.2967ZM19.7764 10.068L19.5777 10.0449L19.5763 10.0572L19.5764 10.0697L19.7764 10.068ZM19.8039 9.97733L19.9817 10.069L19.9833 10.0658L19.8039 9.97733ZM20.2233 9.71285V9.51285H20.2115L20.1997 9.51424L20.2233 9.71285ZM20.888 10.3004H21.088V10.2699L21.0789 10.2407L20.888 10.3004ZM20.888 10.3039H20.688V10.3398L20.7005 10.3735L20.888 10.3039ZM21.0777 12.0766L20.8777 12.0767V12.0768L21.0777 12.0766ZM11.6682 21.7365V21.5365L11.6178 21.93L11.6682 21.7365ZM11.6704 21.88L11.6707 21.68H11.6704V21.88ZM11.6704 2.27429V2.47429L11.6706 2.47429L11.6704 2.27429ZM14.8172 2.83985L14.8876 2.65264L14.8869 2.65237L14.8172 2.83985ZM17.3536 4.24258L17.2326 4.40186L17.6548 4.72247L17.5496 4.2029L17.3536 4.24258ZM17.0503 2.74435L16.8542 2.78374L16.8543 2.78403L17.0503 2.74435ZM17.047 2.71061L17.247 2.71113V2.71061H17.047ZM17.1653 2.23626L17.319 2.36421L17.3345 2.34554L17.3452 2.3237L17.1653 2.23626ZM18.2697 2.40153L18.0699 2.41028L18.0705 2.42442L18.0731 2.43832L18.2697 2.40153ZM18.9314 5.93639L18.7348 5.97318L18.7349 5.97364L18.9314 5.93639ZM18.9344 5.96784H19.1344L19.1344 5.96683L18.9344 5.96784ZM18.431 6.70008L18.4242 6.5002L18.4077 6.50076L18.3915 6.50402L18.431 6.70008ZM15.0231 7.3863L14.9837 7.19023L14.9827 7.19044L15.0231 7.3863ZM14.9928 7.38944V7.58945L14.9934 7.58944L14.9928 7.38944ZM14.2865 6.8522H14.4865V6.8522H14.2865ZM14.4221 6.35669L14.566 6.49566L14.5661 6.49552L14.4221 6.35669ZM14.7893 6.11823L14.8 6.31795L14.8143 6.31719L14.8283 6.3144L14.7893 6.11823ZM16.9806 5.68277L17.0195 5.87894L17.4093 5.80149L17.1149 5.5346L16.9806 5.68277ZM10.5715 3.71791L10.5451 3.51967L10.5446 3.51973L10.5715 3.71791ZM5.82737 6.18943L5.68126 6.05286L5.68099 6.05315L5.82737 6.18943ZM3.58295 11.1888L3.38394 11.1688L3.38392 11.1691L3.58295 11.1888ZM5.46952 17.5285L5.62446 17.4021L5.62431 17.4019L5.46952 17.5285ZM7.98605 19.5946L8.07966 19.4179L8.07943 19.4178L7.98605 19.5946ZM17.2157 18.2182L17.0762 18.0749L17.0757 18.0754L17.2157 18.2182ZM19.8017 12.0094H19.6017V12.0096L19.8017 12.0094ZM19.7353 10.6776L19.933 10.6471L19.933 10.647L19.7353 10.6776ZM19.6873 10.4254L19.8833 10.3854L19.8832 10.3851L19.6873 10.4254ZM19.6672 10.3259L19.8635 10.2873L19.8625 10.2827L19.6672 10.3259ZM19.6413 10.1134L19.8413 10.1084L19.841 10.1027L19.6413 10.1134ZM19.6394 10.0777H19.4391L19.4396 10.0885L19.6394 10.0777ZM19.6826 9.91385L19.5032 9.82553L19.503 9.82596L19.6826 9.91385ZM20.2095 9.57218V9.37218H20.1978L20.1861 9.37355L20.2095 9.57218ZM21.0209 10.2584L20.83 10.3183L20.8305 10.3196L21.0209 10.2584ZM21.0228 10.2644L20.8323 10.3256L20.8342 10.3311L21.0228 10.2644ZM21.2183 12.0783L21.4183 12.0781V12.0781L21.2183 12.0783ZM18.4522 18.9519L18.3082 18.8131L18.308 18.8133L18.4522 18.9519ZM15.3962 21.094L15.3156 20.911L15.3153 20.9111L15.3962 21.094ZM11.6704 2.56021V2.76021L11.6706 2.76021L11.6704 2.56021ZM11.6704 21.5941L11.6706 21.3941H11.6704V21.5941ZM15.2859 20.8295L15.2054 20.6464L15.205 20.6466L15.2859 20.8295ZM18.2565 18.7494L18.1124 18.6107L18.1123 18.6108L18.2565 18.7494ZM20.942 12.0783H20.742V12.0785L20.942 12.0783ZM20.7614 10.3567L20.5699 10.4154L20.5738 10.4259L20.7614 10.3567ZM20.7559 10.3387L20.9472 10.2802L20.9466 10.2784L20.7559 10.3387ZM20.2327 9.85724V9.65724H20.2198L20.2071 9.65888L20.2327 9.85724ZM19.928 10.0437L19.7485 9.95546L19.7483 9.95592L19.928 10.0437ZM19.9151 10.0745L19.7265 10.0077L19.715 10.0401V10.0745H19.9151ZM19.9151 10.0968H19.715L19.7151 10.1002L19.9151 10.0968ZM19.9357 10.2684L20.1319 10.2291L20.1308 10.2241L19.9357 10.2684ZM19.9556 10.3656L20.1515 10.3254L20.1513 10.3244L19.9556 10.3656ZM20.0063 10.6324L20.204 10.6018L20.2039 10.6013L20.0063 10.6324ZM20.0763 12.0094L19.8763 12.0095V12.0095L20.0763 12.0094ZM14.5735 20.254L14.6453 20.4406L14.646 20.4403L14.5735 20.254ZM7.86116 19.8497L7.95457 19.6728L7.95455 19.6728L7.86116 19.8497ZM5.25972 17.7138L5.41466 17.5874L5.41448 17.5871L5.25972 17.7138ZM3.30918 11.1596L3.11018 11.1397L3.11015 11.14L3.30918 11.1596ZM5.6297 5.99043L5.48332 5.85414L5.48331 5.85415L5.6297 5.99043ZM10.537 3.43428L10.5106 3.23604L10.5106 3.23604L10.537 3.43428ZM17.3423 5.63588L17.2036 5.77995L17.2036 5.77998L17.3423 5.63588ZM17.2645 5.9178L17.3035 6.11396L17.3039 6.1139L17.2645 5.9178ZM14.8202 6.40387V6.60387H14.8399L14.8592 6.60003L14.8202 6.40387ZM14.9845 7.10352V7.30352H15.0045L15.0241 7.29957L14.9845 7.10352ZM18.4062 6.41331V6.21331H18.3862L18.3666 6.21725L18.4062 6.41331ZM18.6617 5.97785H18.8617V5.95923L18.8583 5.94093L18.6617 5.97785ZM17.9957 2.43098H17.7957V2.44959L17.7991 2.46789L17.9957 2.43098ZM17.6582 2.16593V2.36593V2.36593V2.16593ZM17.5631 2.16593V1.96593H17.5482L17.5335 1.96813L17.5631 2.16593ZM17.4024 2.38008L17.2225 2.29274L17.2222 2.29319L17.4024 2.38008ZM17.3977 2.3898L17.5621 2.50368L17.571 2.49081L17.5778 2.4767L17.3977 2.3898ZM17.3836 2.41011L17.5337 2.54234L17.5414 2.53358L17.548 2.52398L17.3836 2.41011ZM17.3748 2.42011L17.5207 2.55706L17.5249 2.55235L17.3748 2.42011ZM17.3197 2.69774H17.1197V2.71783L17.1237 2.73752L17.3197 2.69774ZM17.6852 4.49905L17.4892 4.53883L17.4892 4.53886L17.6852 4.49905ZM17.4338 4.66289L17.5587 4.50664L17.5586 4.50659L17.4338 4.66289ZM14.7218 3.10833L14.7916 2.92091L14.7914 2.92084L14.7218 3.10833ZM8.75855 17.4994V17.2994C8.03919 17.2994 7.46566 16.7002 7.46566 16.0372H7.26566H7.06566C7.06566 16.9221 7.81933 17.6994 8.75855 17.6994V17.4994ZM7.26566 16.0372H7.46566V12.0763H7.26566H7.06566V16.0372H7.26566ZM7.26566 12.0763L7.46566 12.0761C7.46554 11.8964 7.49957 11.7186 7.56567 11.5529L7.37989 11.4788L7.19412 11.4047C7.1091 11.6179 7.0655 11.8461 7.06566 12.0764L7.26566 12.0763ZM7.37989 11.4788L7.56567 11.5529C7.63175 11.3872 7.7285 11.2371 7.85003 11.1109L7.70602 10.9722L7.56201 10.8334C7.40405 10.9973 7.27915 11.1915 7.19412 11.4047L7.37989 11.4788ZM7.70602 10.9722L7.85003 11.1109C7.97155 10.9848 8.11544 10.8852 8.27328 10.8174L8.19433 10.6337L8.11538 10.4499C7.90795 10.539 7.71998 10.6695 7.56201 10.8334L7.70602 10.9722ZM8.19433 10.6337L8.27328 10.8174C8.4311 10.7496 8.59999 10.7148 8.77036 10.7149L8.7704 10.5149L8.77044 10.3149C8.54544 10.3148 8.32283 10.3608 8.11538 10.4499L8.19433 10.6337ZM8.7704 10.5149V10.7149H9.64242V10.5149V10.3149H8.7704V10.5149ZM9.64242 10.5149V10.7149C9.70092 10.7149 9.7555 10.6907 9.79458 10.6502L9.65061 10.5113L9.50664 10.3725C9.54138 10.3365 9.59007 10.3149 9.64242 10.3149V10.5149ZM9.65061 10.5113L9.79458 10.6502C9.83342 10.6099 9.854 10.5568 9.854 10.5029H9.654H9.454C9.454 10.4553 9.47214 10.4083 9.50664 10.3725L9.65061 10.5113ZM9.654 10.5029H9.854V9.03636H9.654H9.454V10.5029H9.654ZM9.654 9.03636H9.854C9.854 8.43051 10.0326 7.96423 10.335 7.65049C10.6367 7.33762 11.0825 7.15456 11.6611 7.15456V6.95456V6.75456C10.9957 6.75456 10.438 6.96736 10.0471 7.37287C9.65698 7.77751 9.454 8.35213 9.454 9.03636H9.654ZM11.6611 6.95456V7.15456C12.2396 7.15456 12.6855 7.33756 12.9872 7.6504C13.2897 7.9641 13.4684 8.43037 13.4684 9.03636H13.6684H13.8684C13.8684 8.35198 13.6653 7.77734 13.2752 7.37274C12.8842 6.96727 12.3264 6.75456 11.6611 6.75456V6.95456ZM13.6684 9.03636H13.4684V10.5037H13.6684H13.8684V9.03636H13.6684ZM13.6684 10.5037H13.4684C13.4684 10.5577 13.489 10.6108 13.5278 10.651L13.6718 10.5122L13.8157 10.3734C13.8502 10.4091 13.8684 10.4561 13.8684 10.5037H13.6684ZM13.6718 10.5122L13.5278 10.651C13.5668 10.6915 13.6214 10.7157 13.68 10.7157V10.5157V10.3157C13.7324 10.3157 13.781 10.3374 13.8157 10.3734L13.6718 10.5122ZM13.68 10.5157V10.7157H14.4693V10.5157V10.3157H13.68V10.5157ZM14.4693 10.5157L14.4695 10.7157C14.6399 10.7156 14.8088 10.7502 14.9667 10.8179L15.0455 10.6341L15.1243 10.4503C14.9168 10.3613 14.6941 10.3155 14.4691 10.3157L14.4693 10.5157ZM15.0455 10.6341L14.9667 10.8179C15.1246 10.8856 15.2685 10.9852 15.3902 11.1112L15.5341 10.9723L15.678 10.8334C15.5199 10.6696 15.3318 10.5393 15.1243 10.4503L15.0455 10.6341ZM15.5341 10.9723L15.3902 11.1112C15.5118 11.2372 15.6086 11.3873 15.6748 11.553L15.8605 11.4788L16.0463 11.4046C15.9611 11.1914 15.8361 10.9973 15.678 10.8334L15.5341 10.9723ZM15.8605 11.4788L15.6748 11.553C15.741 11.7187 15.7751 11.8965 15.7751 12.0763L15.9751 12.0763L16.1751 12.0763C16.1752 11.846 16.1314 11.6177 16.0463 11.4046L15.8605 11.4788ZM15.9751 12.0763H15.7751V16.0252H15.9751H16.1751V12.0763H15.9751ZM15.9751 16.0252H15.7751C15.7751 16.3654 15.6447 16.6903 15.4148 16.9288L15.5588 17.0676L15.7027 17.2064C16.006 16.8919 16.1751 16.4669 16.1751 16.0252H15.9751ZM15.5588 17.0676L15.4148 16.9288C15.1851 17.167 14.8752 17.2994 14.5536 17.2994V17.4994V17.6994C14.9861 17.6994 15.3993 17.5211 15.7027 17.2064L15.5588 17.0676ZM14.5536 17.4994V17.2994H8.75855V17.4994V17.6994H14.5536V17.4994ZM8.77013 11.4621V11.2621C8.66506 11.2621 8.56121 11.2836 8.46456 11.3251L8.5435 11.5089L8.62245 11.6926C8.66949 11.6724 8.71965 11.6621 8.77013 11.6621V11.4621ZM8.5435 11.5089L8.46456 11.3251C8.36794 11.3666 8.28062 11.4273 8.20741 11.5032L8.35138 11.642L8.49536 11.7808C8.53212 11.7427 8.57538 11.7129 8.62245 11.6926L8.5435 11.5089ZM8.35138 11.642L8.20741 11.5032C8.13421 11.5791 8.07652 11.6688 8.03728 11.7671L8.22301 11.8413L8.40875 11.9154C8.42903 11.8647 8.45858 11.819 8.49536 11.7808L8.35138 11.642ZM8.22301 11.8413L8.03728 11.7671C7.99804 11.8653 7.97794 11.9704 7.97794 12.0763H8.17794H8.37794C8.37794 12.0209 8.38846 11.9662 8.40875 11.9154L8.22301 11.8413ZM8.17794 12.0763H7.97794V16.0252H8.17794H8.37794V12.0763H8.17794ZM8.17794 16.0252H7.97794C7.97794 16.2388 8.05969 16.4451 8.20741 16.5983L8.35138 16.4594L8.49536 16.3206C8.42096 16.2435 8.37794 16.1373 8.37794 16.0252H8.17794ZM8.35138 16.4594L8.20741 16.5983C8.35537 16.7517 8.55763 16.8393 8.77013 16.8393V16.6393V16.4393C8.66851 16.4393 8.56952 16.3975 8.49536 16.3206L8.35138 16.4594ZM8.77013 16.6393V16.8393H14.3866V16.6393V16.4393H8.77013V16.6393ZM14.3866 16.6393V16.8393C14.5991 16.8393 14.8013 16.7517 14.9493 16.5983L14.8053 16.4594L14.6613 16.3206C14.5872 16.3975 14.4882 16.4393 14.3866 16.4393V16.6393ZM14.8053 16.4594L14.9493 16.5983C15.097 16.4451 15.1788 16.2388 15.1788 16.0252H14.9788H14.7788C14.7788 16.1373 14.7357 16.2435 14.6613 16.3206L14.8053 16.4594ZM14.9788 16.0252H15.1788V12.0763H14.9788H14.7788V16.0252H14.9788ZM14.9788 12.0763H15.1788C15.1788 11.9704 15.1586 11.8653 15.1194 11.7671L14.9337 11.8413L14.7479 11.9154C14.7682 11.9662 14.7788 12.0209 14.7788 12.0763H14.9788ZM14.9337 11.8413L15.1194 11.7671C15.0802 11.6688 15.0225 11.5791 14.9493 11.5032L14.8053 11.642L14.6613 11.7808C14.6981 11.819 14.7277 11.8647 14.7479 11.9154L14.9337 11.8413ZM14.8053 11.642L14.9493 11.5032C14.8761 11.4273 14.7888 11.3666 14.6921 11.3251L14.6132 11.5089L14.5342 11.6926C14.5813 11.7129 14.6246 11.7427 14.6613 11.7808L14.8053 11.642ZM14.6132 11.5089L14.6921 11.3251C14.5955 11.2836 14.4916 11.2621 14.3866 11.2621V11.4621V11.6621C14.437 11.6621 14.4872 11.6724 14.5342 11.6926L14.6132 11.5089ZM14.3866 11.4621V11.2621H8.77013V11.4621V11.6621H14.3866V11.4621ZM12.6618 10.5149V10.7149C12.7204 10.7149 12.7749 10.6907 12.814 10.6502L12.67 10.5113L12.526 10.3725C12.5607 10.3365 12.6094 10.3149 12.6618 10.3149V10.5149ZM12.67 10.5113L12.814 10.6502C12.8528 10.6099 12.8734 10.5568 12.8734 10.5029H12.6734H12.4734C12.4734 10.4553 12.4916 10.4083 12.526 10.3725L12.67 10.5113ZM12.6734 10.5029H12.8734V9.03636H12.6734H12.4734V10.5029H12.6734ZM12.6734 9.03636H12.8734C12.8734 8.62368 12.781 8.27927 12.5498 8.03959C12.3173 7.7984 11.981 7.70096 11.5786 7.70096V7.90096V8.10096C11.9226 8.10096 12.1336 8.18422 12.2619 8.31723C12.3916 8.45176 12.4734 8.67505 12.4734 9.03636H12.6734ZM11.5786 7.90096V7.70096C11.2113 7.70096 10.8958 7.8018 10.6757 8.04389C10.459 8.28228 10.3665 8.62346 10.3665 9.03636H10.5665H10.7665C10.7665 8.67527 10.8483 8.44874 10.9717 8.31294C11.0918 8.18082 11.2823 8.10096 11.5786 8.10096V7.90096ZM10.5665 9.03636H10.3665V10.5037H10.5665H10.7665V9.03636H10.5665ZM10.5665 10.5037H10.3665C10.3665 10.5576 10.3871 10.6107 10.426 10.651L10.5699 10.5122L10.7139 10.3734C10.7484 10.4092 10.7665 10.4562 10.7665 10.5037H10.5665ZM10.5699 10.5122L10.426 10.651C10.465 10.6915 10.5196 10.7157 10.5781 10.7157V10.5157V10.3157C10.6305 10.3157 10.6792 10.3374 10.7139 10.3734L10.5699 10.5122ZM10.5781 10.5157L10.5782 10.7157L12.6619 10.7149L12.6618 10.5149L12.6617 10.3149L10.578 10.3157L10.5781 10.5157ZM14.5525 17.6423V17.4423H8.75855V17.6423V17.8423H14.5525V17.6423ZM8.75855 17.6423V17.4423C7.98214 17.4423 7.32782 16.7938 7.32782 16.0372H7.12782H6.92782C6.92782 17.0207 7.76721 17.8423 8.75855 17.8423V17.6423ZM7.12782 16.0372H7.32782V12.0763H7.12782H6.92782V16.0372H7.12782ZM7.12782 12.0763L7.32782 12.0764C7.32801 11.6753 7.48176 11.292 7.75312 11.0104L7.60911 10.8717L7.4651 10.7329C7.12052 11.0904 6.92806 11.5737 6.92782 12.0762L7.12782 12.0763ZM7.60911 10.8717L7.75312 11.0104C8.02424 10.7291 8.39035 10.5723 8.77061 10.5719L8.7704 10.3719L8.77019 10.1719C8.27916 10.1724 7.80993 10.3751 7.4651 10.7329L7.60911 10.8717ZM8.7704 10.3719V10.5719H9.51643V10.3719V10.1719H8.7704V10.3719ZM9.51643 10.3719H9.71643V9.03636H9.51643H9.31643V10.3719H9.51643ZM9.51643 9.03636H9.71643C9.71643 8.38994 9.90934 7.88768 10.2367 7.54813C10.5633 7.20942 11.0438 7.0116 11.6613 7.0116V6.8116V6.6116C10.9558 6.6116 10.3639 6.83993 9.94875 7.2705C9.53444 7.70023 9.31643 8.31035 9.31643 9.03636H9.51643ZM11.6613 6.8116V7.0116C12.2788 7.0116 12.7595 7.20943 13.0861 7.54815C13.4135 7.8877 13.6065 8.38996 13.6065 9.03636H13.8065H14.0065C14.0065 8.31033 13.7884 7.70021 13.374 7.27049C12.9588 6.83993 12.3669 6.6116 11.6613 6.6116V6.8116ZM13.8065 9.03636H13.6065V10.3719H13.8065H14.0065V9.03636H13.8065ZM13.8065 10.3719V10.5719H14.4695V10.3719V10.1719H13.8065V10.3719ZM14.4695 10.3719L14.4694 10.5719C14.8498 10.5721 15.2161 10.7288 15.4874 11.0102L15.6314 10.8714L15.7753 10.7325C15.4303 10.3747 14.9608 10.1722 14.4697 10.1719L14.4695 10.3719ZM15.6314 10.8714L15.4874 11.0102C15.7589 11.2918 15.9128 11.6751 15.913 12.0764L16.113 12.0763L16.313 12.0762C16.3127 11.5735 16.1201 11.0901 15.7753 10.7325L15.6314 10.8714ZM16.113 12.0763H15.913V16.0252H16.113H16.313V12.0763H16.113ZM16.113 16.0252L15.913 16.0249C15.9125 16.4032 15.7673 16.7644 15.5114 17.0296L15.6553 17.1685L15.7992 17.3074C16.1284 16.9662 16.3124 16.505 16.313 16.0254L16.113 16.0252ZM15.6553 17.1685L15.5114 17.0296C15.2557 17.2946 14.9106 17.4421 14.5524 17.4423L14.5525 17.6423L14.5526 17.8423C15.0216 17.8421 15.4698 17.6488 15.7992 17.3074L15.6553 17.1685ZM8.7704 10.6578L8.77015 10.4578C8.35248 10.4583 7.95361 10.6307 7.66057 10.9346L7.80454 11.0734L7.94852 11.2123C8.16787 10.9848 8.46369 10.8582 8.77065 10.8578L8.7704 10.6578ZM7.80454 11.0734L7.66057 10.9346C7.36777 11.2383 7.20429 11.6485 7.20379 12.0749L7.40379 12.0751L7.60379 12.0754C7.60417 11.7503 7.72892 11.44 7.94852 11.2123L7.80454 11.0734ZM7.40379 12.0751H7.20379V16.0372H7.40379H7.60379V12.0751H7.40379ZM7.40379 16.0372H7.20379C7.20379 16.8674 7.91897 17.5564 8.75882 17.5564V17.3564V17.1564C8.12978 17.1564 7.60379 16.6365 7.60379 16.0372H7.40379ZM8.75882 17.3564V17.5564H14.5525V17.3564V17.1564H8.75882V17.3564ZM14.5525 17.3564L14.5526 17.5564C14.9485 17.5562 15.3266 17.3931 15.6043 17.1053L15.4604 16.9664L15.3165 16.8275C15.1125 17.0389 14.8376 17.1563 14.5524 17.1564L14.5525 17.3564ZM15.4604 16.9664L15.6043 17.1053C15.8818 16.8177 16.0368 16.4292 16.0373 16.0254L15.8373 16.0252L15.6373 16.0249C15.6369 16.3274 15.5207 16.6159 15.3165 16.8275L15.4604 16.9664ZM15.8373 16.0252H16.0373V12.0763H15.8373H15.6373V16.0252H15.8373ZM15.8373 12.0763L16.0373 12.0762C16.0372 11.6493 15.8737 11.2386 15.5806 10.9345L15.4366 11.0734L15.2926 11.2122C15.5124 11.4402 15.6372 11.7509 15.6373 12.0763L15.8373 12.0763ZM15.4366 11.0734L15.5806 10.9345C15.2872 10.6303 14.8877 10.4579 14.4696 10.4578L14.4695 10.6578L14.4695 10.8578C14.7768 10.8579 15.073 10.9844 15.2926 11.2122L15.4366 11.0734ZM14.4695 10.6578V10.4578H13.6802V10.6578V10.8578H14.4695V10.6578ZM13.6802 10.6578L13.6806 10.4578C13.6963 10.4579 13.7098 10.4644 13.7186 10.4735L13.5747 10.6124L13.4307 10.7512C13.4955 10.8184 13.5849 10.8576 13.6799 10.8578L13.6802 10.6578ZM13.5747 10.6124L13.7186 10.4735C13.7272 10.4824 13.7308 10.493 13.7308 10.5025L13.5308 10.5029L13.3308 10.5032C13.331 10.5949 13.3661 10.6842 13.4307 10.7512L13.5747 10.6124ZM13.5308 10.5029H13.7308V9.03636H13.5308H13.3308V10.5029H13.5308ZM13.5308 9.03636H13.7308C13.7308 8.39151 13.5446 7.85205 13.179 7.47286C12.8125 7.09273 12.2886 6.89752 11.6613 6.89752V7.09752V7.29752C12.2047 7.29752 12.6155 7.46471 12.8911 7.7505C13.1675 8.03722 13.3308 8.46718 13.3308 9.03636H13.5308ZM11.6613 7.09752V6.89752C11.0341 6.89752 10.5102 7.09273 10.1438 7.47287C9.77821 7.85207 9.59212 8.39153 9.59212 9.03636H9.79212H9.99212C9.99212 8.46716 10.1553 8.0372 10.4317 7.75049C10.7072 7.46471 11.118 7.29752 11.6613 7.29752V7.09752ZM9.79212 9.03636H9.59212V10.5037H9.79212H9.99212V9.03636H9.79212ZM9.79212 10.5037L9.59213 10.5023C9.5922 10.4928 9.59584 10.4823 9.60443 10.4734L9.74789 10.6128L9.89135 10.7521C9.95603 10.6855 9.99147 10.5966 9.99212 10.5051L9.79212 10.5037ZM9.74789 10.6128L9.60443 10.4734C9.61326 10.4643 9.62677 10.4578 9.64243 10.4578L9.64242 10.6578L9.64242 10.8578C9.7371 10.8578 9.82643 10.8189 9.89135 10.7521L9.74789 10.6128ZM9.64242 10.6578V10.4578H8.7704V10.6578V10.8578H9.64242V10.6578ZM14.3866 16.7823V16.5823H8.7704V16.7823V16.9823H14.3866V16.7823ZM8.7704 16.7823L8.77064 16.5823C8.63245 16.5821 8.49842 16.5252 8.3984 16.4215L8.25443 16.5603L8.11046 16.6991C8.28416 16.8792 8.52126 16.982 8.77017 16.9823L8.7704 16.7823ZM8.25443 16.5603L8.3984 16.4215C8.29815 16.3175 8.24053 16.175 8.24037 16.0249L8.04037 16.0252L7.84037 16.0254C7.84064 16.2768 7.93699 16.5192 8.11046 16.6991L8.25443 16.5603ZM8.04037 16.0252H8.24037V12.0763H8.04037H7.84037V16.0252H8.04037ZM8.04037 12.0763L8.24037 12.0765C8.24053 11.9264 8.29815 11.784 8.3984 11.68L8.25443 11.5412L8.11046 11.4023C7.93699 11.5823 7.84064 11.8247 7.84037 12.0761L8.04037 12.0763ZM8.25443 11.5412L8.3984 11.68C8.49842 11.5763 8.63245 11.5193 8.77064 11.5192L8.7704 11.3192L8.77017 11.1192C8.52126 11.1195 8.28416 11.2222 8.11046 11.4023L8.25443 11.5412ZM8.7704 11.3192V11.5192H14.3866V11.3192V11.1192H8.7704V11.3192ZM14.3866 11.3192L14.3863 11.5192C14.5245 11.5193 14.6585 11.5763 14.7586 11.68L14.9025 11.5412L15.0465 11.4023C14.8728 11.2222 14.6357 11.1195 14.3868 11.1192L14.3866 11.3192ZM14.9025 11.5412L14.7586 11.68C14.8588 11.784 14.9164 11.9264 14.9166 12.0765L15.1166 12.0763L15.3166 12.0761C15.3163 11.8247 15.22 11.5823 15.0465 11.4023L14.9025 11.5412ZM15.1166 12.0763H14.9166V16.0252H15.1166H15.3166V12.0763H15.1166ZM15.1166 16.0252L14.9166 16.0249C14.9164 16.175 14.8588 16.3175 14.7586 16.4215L14.9025 16.5603L15.0465 16.6991C15.22 16.5192 15.3163 16.2768 15.3166 16.0254L15.1166 16.0252ZM14.9025 16.5603L14.7586 16.4215C14.6585 16.5252 14.5245 16.5821 14.3863 16.5823L14.3866 16.7823L14.3868 16.9823C14.6357 16.982 14.8728 16.8792 15.0465 16.6991L14.9025 16.5603ZM8.7704 11.6051L8.77015 11.4051C8.59434 11.4053 8.42734 11.4779 8.30532 11.6044L8.44929 11.7433L8.59327 11.8821C8.6416 11.832 8.70555 11.8052 8.77065 11.8051L8.7704 11.6051ZM8.44929 11.7433L8.30532 11.6044C8.18354 11.7307 8.11626 11.9005 8.11606 12.0761L8.31606 12.0763L8.51606 12.0765C8.51615 12.0023 8.5447 11.9325 8.59327 11.8821L8.44929 11.7433ZM8.31606 12.0763H8.11606V16.0252H8.31606H8.51606V12.0763H8.31606ZM8.31606 16.0252L8.11606 16.0254C8.11626 16.201 8.18354 16.3707 8.30532 16.497L8.44929 16.3582L8.59327 16.2194C8.5447 16.169 8.51615 16.0992 8.51606 16.0249L8.31606 16.0252ZM8.44929 16.3582L8.30532 16.497C8.42734 16.6235 8.59434 16.6961 8.77015 16.6964L8.7704 16.4964L8.77065 16.2964C8.70555 16.2963 8.6416 16.2695 8.59327 16.2194L8.44929 16.3582ZM8.7704 16.4964V16.6964H14.3866V16.4964V16.2964H8.7704V16.4964ZM14.3866 16.4964L14.3868 16.6964C14.5626 16.6961 14.7296 16.6235 14.8516 16.497L14.7077 16.3582L14.5637 16.2194C14.5154 16.2695 14.4514 16.2963 14.3863 16.2964L14.3866 16.4964ZM14.7077 16.3582L14.8516 16.497C14.9734 16.3707 15.0407 16.201 15.0409 16.0254L14.8409 16.0252L14.6409 16.0249C14.6408 16.0992 14.6123 16.169 14.5637 16.2194L14.7077 16.3582ZM14.8409 16.0252H15.0409V12.0763H14.8409H14.6409V16.0252H14.8409ZM14.8409 12.0763L15.0409 12.0761C15.0407 11.9005 14.9734 11.7307 14.8516 11.6044L14.7077 11.7433L14.5637 11.8821C14.6123 11.9325 14.6408 12.0023 14.6409 12.0765L14.8409 12.0763ZM14.7077 11.7433L14.8516 11.6044C14.7296 11.4779 14.5626 11.4053 14.3868 11.4051L14.3866 11.6051L14.3863 11.8051C14.4514 11.8052 14.5154 11.832 14.5637 11.8821L14.7077 11.7433ZM14.3866 11.6051V11.4051H8.7704V11.6051V11.8051H14.3866V11.6051ZM12.6618 10.6578V10.4578H10.5781V10.6578V10.8578H12.6618V10.6578ZM10.5781 10.6578L10.5785 10.4578C10.5942 10.4579 10.6077 10.4644 10.6165 10.4735L10.4725 10.6124L10.3286 10.7512C10.3934 10.8184 10.4828 10.8576 10.5777 10.8578L10.5781 10.6578ZM10.4725 10.6124L10.6165 10.4735C10.6251 10.4824 10.6287 10.493 10.6287 10.5025L10.4287 10.5029L10.2287 10.5032C10.2289 10.5949 10.264 10.6842 10.3286 10.7512L10.4725 10.6124ZM10.4287 10.5029H10.6287V9.03636H10.4287H10.2287V10.5029H10.4287ZM10.4287 9.03636H10.6287C10.6287 8.64671 10.7215 8.38262 10.8702 8.21731C11.0156 8.05565 11.2421 7.958 11.5786 7.958V7.758V7.558C11.1628 7.558 10.8143 7.68137 10.5728 7.94981C10.3347 8.2146 10.2287 8.58969 10.2287 9.03636H10.4287ZM11.5786 7.758V7.958C11.9543 7.958 12.202 8.05605 12.3578 8.2175C12.5148 8.38025 12.6112 8.64127 12.6112 9.03636H12.8112H13.0112C13.0112 8.58197 12.9004 8.20381 12.6456 7.93975C12.3896 7.67439 12.0209 7.558 11.5786 7.558V7.758ZM12.8112 9.03636H12.6112V10.5037H12.8112H13.0112V9.03636H12.8112ZM12.8112 10.5037L12.6113 10.5023C12.6113 10.4928 12.615 10.4823 12.6235 10.4734L12.7671 10.6127L12.9107 10.7519C12.9752 10.6853 13.0106 10.5965 13.0112 10.5051L12.8112 10.5037ZM12.7671 10.6127L12.6235 10.4734C12.6323 10.4644 12.6458 10.4579 12.6614 10.4578L12.6618 10.6578L12.6622 10.8578C12.7568 10.8576 12.8459 10.8187 12.9107 10.7519L12.7671 10.6127ZM10.7044 10.3719V10.5719H12.5356V10.3719V10.1719H10.7044V10.3719ZM12.5356 10.3719H12.7356V9.03636H12.5356H12.3356V10.3719H12.5356ZM12.5356 9.03636H12.7356C12.7356 8.66723 12.6606 8.35619 12.4526 8.14045C12.2429 7.92301 11.9386 7.84392 11.5786 7.84392V8.04392V8.24392C11.8894 8.24392 12.0635 8.31323 12.1646 8.41809C12.2674 8.52465 12.3356 8.70984 12.3356 9.03636H12.5356ZM11.5786 8.04392V7.84392C11.2466 7.84392 10.963 7.93224 10.7679 8.15366C10.5774 8.3697 10.5044 8.67567 10.5044 9.03636H10.7044H10.9044C10.9044 8.71913 10.9703 8.52888 11.0679 8.41817C11.1608 8.31286 11.3143 8.24392 11.5786 8.24392V8.04392ZM10.7044 9.03636H10.5044V10.3719H10.7044H10.9044V9.03636H10.7044ZM11.6704 21.737V21.537C6.65509 21.537 2.55583 17.2963 2.55583 12.0771H2.35583H2.15583C2.15583 17.5034 6.42058 21.937 11.6704 21.937V21.737ZM2.35583 12.0771H2.55583C2.55583 6.85794 6.65509 2.61725 11.6704 2.61725V2.41725V2.21725C6.42058 2.21725 2.15583 6.65088 2.15583 12.0771H2.35583ZM11.6704 2.41725V2.61725C13.7871 2.61725 15.7246 3.37358 17.3945 4.70682L17.5193 4.55052L17.6441 4.39423C15.9118 3.0112 13.8882 2.21725 11.6704 2.21725V2.41725ZM17.5193 4.55052L17.393 4.70559C17.4285 4.73456 17.4728 4.75213 17.5198 4.75471L17.5308 4.55501L17.5417 4.35531C17.5804 4.35743 17.6166 4.37187 17.6456 4.39545L17.5193 4.55052ZM17.5308 4.55501L17.5198 4.75471C17.5669 4.75729 17.613 4.74466 17.6518 4.71946L17.5427 4.55181L17.4337 4.38415C17.4653 4.36358 17.5031 4.35319 17.5417 4.35531L17.5308 4.55501ZM17.5427 4.55181L17.6518 4.71946C17.6904 4.69435 17.7194 4.65829 17.736 4.61717L17.5507 4.54208L17.3653 4.46699C17.3787 4.43389 17.4022 4.40463 17.4337 4.38415L17.5427 4.55181ZM17.5507 4.54208L17.736 4.61717C17.7527 4.57616 17.7566 4.53121 17.7475 4.48811L17.5518 4.52936L17.3561 4.57061C17.3488 4.53603 17.352 4.49995 17.3653 4.46699L17.5507 4.54208ZM17.5518 4.52936L17.7478 4.48957L17.3795 2.67539L17.1835 2.71518L16.9875 2.75498L17.3558 4.56916L17.5518 4.52936ZM17.1835 2.71518H17.3835V2.7109H17.1835H16.9835V2.71518H17.1835ZM17.1835 2.7109H17.3835C17.3835 2.66041 17.3838 2.60242 17.3926 2.54726C17.4021 2.4874 17.417 2.46328 17.4218 2.45823L17.2764 2.3209L17.131 2.18356C17.0428 2.27687 17.0113 2.39843 16.9976 2.48431C16.9831 2.5749 16.9835 2.66274 16.9835 2.7109H17.1835ZM17.2764 2.3209L17.4417 2.43343L17.445 2.42857L17.2797 2.31604L17.1144 2.2035L17.111 2.20837L17.2764 2.3209ZM17.2797 2.31604L17.4598 2.40296C17.5025 2.31445 17.5388 2.26244 17.565 2.23527C17.5912 2.20823 17.5899 2.22297 17.5631 2.22297V2.02297V1.82297C17.4416 1.82297 17.3458 1.88655 17.2775 1.9572C17.2093 2.02771 17.1511 2.12224 17.0996 2.22911L17.2797 2.31604ZM17.5631 2.02297V2.22297H17.6568V2.02297V1.82297H17.5631V2.02297ZM17.6568 2.02297V2.22297C17.6936 2.22297 17.7703 2.24757 17.843 2.30403C17.9198 2.36375 17.9321 2.41074 17.9321 2.41725H18.1321H18.3321C18.3321 2.22648 18.2018 2.07632 18.0885 1.98822C17.9709 1.89686 17.81 1.82297 17.6568 1.82297V2.02297ZM18.1321 2.41725L17.9356 2.45412L18.6005 5.99956L18.7971 5.96269L18.9937 5.92582L18.3287 2.38038L18.1321 2.41725ZM18.7971 6.06334H18.5971C18.5971 6.28573 18.4626 6.35598 18.4169 6.35598V6.55598V6.75598C18.7512 6.75598 18.9971 6.43223 18.9971 6.06334H18.7971ZM18.4169 6.55598L18.3774 6.35993L14.9588 7.04957L14.9983 7.24563L15.0379 7.44168L18.4565 6.75203L18.4169 6.55598ZM14.9983 7.24563V7.04563H14.9013V7.24563V7.44563H14.9983V7.24563ZM14.9013 7.24563V7.04563C14.8646 7.04563 14.7879 7.02101 14.7152 6.96448C14.6383 6.90466 14.626 6.85767 14.626 6.85134H14.426H14.226C14.226 7.04201 14.3564 7.19216 14.4696 7.28023C14.5871 7.3716 14.748 7.44563 14.9013 7.44563V7.24563ZM14.426 6.85134H14.626C14.626 6.80089 14.6263 6.74201 14.6353 6.68596C14.6452 6.62493 14.6604 6.6007 14.6651 6.59587L14.5211 6.45705L14.3771 6.31823C14.2867 6.41205 14.2544 6.53564 14.2404 6.62243C14.2257 6.7142 14.226 6.80314 14.226 6.85134H14.426ZM14.5211 6.45705L14.6651 6.59587C14.7153 6.54383 14.7524 6.50587 14.7864 6.47945C14.8228 6.45114 14.8261 6.46005 14.8062 6.46005V6.26005V6.06005C14.6911 6.06005 14.5994 6.11815 14.5409 6.16366C14.4799 6.21109 14.4221 6.27163 14.3771 6.31823L14.5211 6.45705ZM14.8062 6.26005L14.8454 6.45617L17.2767 5.9701L17.2375 5.77398L17.1983 5.57786L14.767 6.06393L14.8062 6.26005ZM17.2375 5.77398L17.2754 5.97037C17.317 5.96234 17.3548 5.94258 17.3848 5.91432L17.2476 5.76877L17.1105 5.62322C17.1348 5.60032 17.1656 5.58417 17.1997 5.5776L17.2375 5.77398ZM17.2476 5.76877L17.3848 5.91432C17.4147 5.88614 17.4357 5.85061 17.4464 5.81212L17.2536 5.75881L17.0608 5.7055C17.0694 5.67467 17.0863 5.64604 17.1105 5.62322L17.2476 5.76877ZM17.2536 5.75881L17.4464 5.81212C17.457 5.77369 17.4571 5.73312 17.4466 5.69467L17.2536 5.74709L17.0606 5.7995C17.0523 5.76873 17.0523 5.73627 17.0608 5.7055L17.2536 5.75881ZM17.2536 5.74709L17.4466 5.69467C17.4362 5.65616 17.4154 5.62054 17.3856 5.59221L17.2477 5.7371L17.1098 5.88199C17.0857 5.85904 17.069 5.83034 17.0606 5.7995L17.2536 5.74709ZM17.2477 5.7371L17.3864 5.593C15.5546 3.82979 13.0589 3.03719 10.5274 3.37499L10.5539 3.57324L10.5803 3.77148C12.9942 3.44937 15.3673 4.20476 17.109 5.88119L17.2477 5.7371ZM10.5539 3.57324L10.5272 3.37502C6.65051 3.89651 3.64474 7.13626 3.24717 11.1545L3.4462 11.1742L3.64523 11.1939C4.02567 7.3487 6.8988 4.26671 10.5805 3.77145L10.5539 3.57324ZM3.4462 11.1742L3.24717 11.1545C2.74664 16.2161 6.4219 20.5376 11.1483 20.8361L11.1609 20.6365L11.1736 20.4369C6.68354 20.1533 3.16595 16.0406 3.64523 11.1939L3.4462 11.1742ZM11.1609 20.6365L11.1483 20.8361C16.0423 21.1453 20.1404 17.0692 20.1393 12.009L19.9393 12.0091L19.7393 12.0091C19.7404 16.8574 15.8186 20.7304 11.1736 20.4369L11.1609 20.6365ZM19.9393 12.0091H20.1393C20.1393 11.5106 20.1366 11.0648 20.0686 10.6242L19.8709 10.6547L19.6733 10.6852C19.7359 11.0909 19.7393 11.5068 19.7393 12.0091H19.9393ZM19.8709 10.6547L20.0686 10.6242C20.0512 10.5116 20.0177 10.3584 19.998 10.2581L19.8017 10.2967L19.6055 10.3353C19.6282 10.4506 19.6576 10.5833 19.6733 10.6852L19.8709 10.6547ZM19.8017 10.2967L19.9972 10.2545C19.9839 10.1927 19.9769 10.1296 19.9764 10.0663L19.7764 10.068L19.5764 10.0697C19.5772 10.1602 19.5872 10.2504 19.6062 10.3389L19.8017 10.2967ZM19.7764 10.068L19.975 10.091C19.976 10.0831 19.9783 10.0756 19.9817 10.069L19.8039 9.97733L19.6262 9.88563C19.6005 9.9354 19.5842 9.9894 19.5777 10.0449L19.7764 10.068ZM19.8039 9.97733L19.9833 10.0658C19.9908 10.0505 20.006 10.0208 20.0406 9.99091C20.0738 9.96223 20.1349 9.92473 20.2468 9.91146L20.2233 9.71285L20.1997 9.51424C20.0101 9.53671 19.8739 9.60629 19.779 9.68833C19.6856 9.76913 19.6419 9.85379 19.6246 9.88888L19.8039 9.97733ZM20.2233 9.71285V9.91285H20.3184V9.71285V9.51285H20.2233V9.71285ZM20.3184 9.71285V9.91285C20.4023 9.91285 20.4629 9.94098 20.519 10.0019C20.5821 10.0705 20.6423 10.1849 20.6971 10.3601L20.888 10.3004L21.0789 10.2407C21.0168 10.0422 20.9346 9.86285 20.8133 9.73107C20.685 9.59165 20.5193 9.51285 20.3184 9.51285V9.71285ZM20.888 10.3004H20.688V10.3039H20.888H21.088V10.3004H20.888ZM20.888 10.3039L20.7005 10.3735C20.7378 10.474 20.7832 10.7067 20.8189 11.024C20.8538 11.3345 20.8774 11.7074 20.8777 12.0767L21.0777 12.0766L21.2777 12.0764C21.2774 11.6915 21.2529 11.3038 21.2164 10.9794C21.1807 10.6619 21.1316 10.3853 21.0755 10.2342L20.888 10.3039ZM21.0777 12.0766L20.8777 12.0768C20.8828 17.2938 16.6863 21.5365 11.6682 21.5365V21.7365V21.9365C16.9153 21.9365 21.283 17.5065 21.2777 12.0764L21.0777 12.0766ZM11.6682 21.7365L11.6178 21.93L11.62 21.9306L11.6704 21.737L11.7208 21.5435L11.7186 21.5429L11.6682 21.7365ZM11.6704 21.88V21.68C6.57705 21.68 2.41826 17.379 2.41826 12.0771H2.21826H2.01826C2.01826 17.5861 6.34257 22.08 11.6704 22.08V21.88ZM2.21826 12.0771H2.41826C2.41826 6.77531 6.5757 2.47429 11.6704 2.47429V2.27429V2.07429C6.34117 2.07429 2.01826 6.56825 2.01826 12.0771H2.21826ZM11.6704 2.27429L11.6706 2.47429C12.7192 2.4733 13.7601 2.66036 14.7475 3.02732L14.8172 2.83985L14.8869 2.65237C13.855 2.26887 12.7667 2.07326 11.6702 2.07429L11.6704 2.27429ZM14.8172 2.83985L14.7468 3.02706C15.6339 3.36052 16.4709 3.82339 17.2326 4.40186L17.3536 4.24258L17.4745 4.08331C16.6823 3.48162 15.8112 2.99985 14.8876 2.65264L14.8172 2.83985ZM17.3536 4.24258L17.5496 4.2029L17.2463 2.70467L17.0503 2.74435L16.8543 2.78403L17.1576 4.28226L17.3536 4.24258ZM17.0503 2.74435L17.2464 2.70496C17.2468 2.70701 17.247 2.70907 17.247 2.71113L17.047 2.71061L16.847 2.71009C16.8469 2.73482 16.8494 2.75949 16.8542 2.78374L17.0503 2.74435ZM17.047 2.71061H17.247C17.247 2.65551 17.2473 2.58786 17.259 2.51921C17.2709 2.44907 17.2917 2.39703 17.319 2.36421L17.1653 2.23626L17.0116 2.10832C16.9206 2.2176 16.8823 2.34813 16.8646 2.45232C16.8467 2.55801 16.847 2.65649 16.847 2.71061H17.047ZM17.1653 2.23626L17.3452 2.3237C17.3691 2.27452 17.4053 2.20559 17.4532 2.15053C17.5028 2.09361 17.5393 2.08 17.5631 2.08V1.88V1.68C17.3716 1.68 17.2344 1.79263 17.1515 1.8879C17.067 1.98502 17.0119 2.09422 16.9854 2.14883L17.1653 2.23626ZM17.5631 1.88V2.08H17.6568V1.88V1.68H17.5631V1.88ZM17.6568 1.88V2.08C17.7205 2.08 17.8287 2.11572 17.9254 2.1905C18.0224 2.26542 18.0671 2.34711 18.0699 2.41028L18.2697 2.40153L18.4695 2.39277C18.4596 2.16659 18.3169 1.98752 18.17 1.87402C18.023 1.76037 17.8311 1.68 17.6568 1.68V1.88ZM18.2697 2.40153L18.0731 2.43832L18.7348 5.97318L18.9314 5.93639L19.128 5.89959L18.4663 2.36473L18.2697 2.40153ZM18.9314 5.93639L18.7349 5.97364C18.7346 5.97206 18.7344 5.97046 18.7344 5.96884L18.9344 5.96784L19.1344 5.96683C19.1343 5.9441 19.1321 5.92144 19.1279 5.89914L18.9314 5.93639ZM18.9344 5.96784H18.7344V6.06448H18.9344H19.1344V5.96784H18.9344ZM18.9344 6.06448H18.7344C18.7344 6.33913 18.5609 6.49557 18.4242 6.5002L18.431 6.70008L18.4378 6.89997C18.8585 6.88573 19.1344 6.4789 19.1344 6.06448H18.9344ZM18.431 6.70008L18.3915 6.50402L14.9837 7.19024L15.0231 7.3863L15.0626 7.58236L18.4705 6.89615L18.431 6.70008ZM15.0231 7.3863L14.9827 7.19044C14.9858 7.18979 14.989 7.18945 14.9922 7.18945L14.9928 7.38944L14.9934 7.58944C15.017 7.58938 15.0405 7.58694 15.0636 7.58216L15.0231 7.3863ZM14.9928 7.38944V7.18944H14.8996V7.38944V7.58944H14.9928V7.38944ZM14.8996 7.38944V7.18944C14.8347 7.18944 14.7239 7.15222 14.6263 7.07511C14.5285 6.99782 14.4865 6.91522 14.4865 6.8522H14.2865H14.0865C14.0865 7.08567 14.23 7.27169 14.3783 7.38891C14.5268 7.50629 14.7225 7.58944 14.8996 7.58944V7.38944ZM14.2865 6.8522H14.4865C14.4865 6.7944 14.4869 6.7224 14.5001 6.65044C14.5137 6.57674 14.537 6.52564 14.566 6.49566L14.4221 6.35669L14.2783 6.21772C14.1716 6.32813 14.1271 6.4676 14.1067 6.57797C14.0861 6.69006 14.0865 6.79563 14.0865 6.8522H14.2865ZM14.4221 6.35669L14.5661 6.49552C14.6238 6.43567 14.6677 6.39084 14.7118 6.35823C14.7536 6.3273 14.7806 6.31898 14.8 6.31795L14.7893 6.11823L14.7787 5.91852C14.6533 5.9252 14.5519 5.97894 14.4738 6.03671C14.398 6.09281 14.3307 6.16335 14.2782 6.21787L14.4221 6.35669ZM14.7893 6.11823L14.8283 6.3144L17.0195 5.87894L16.9806 5.68277L16.9416 5.48661L14.7504 5.92207L14.7893 6.11823ZM16.9806 5.68277L17.1149 5.5346C15.344 3.92912 12.963 3.19696 10.5451 3.51967L10.5715 3.71791L10.598 3.91616C12.9016 3.6087 15.1643 4.30615 16.8462 5.83095L16.9806 5.68277ZM10.5715 3.71791L10.5446 3.51973C8.69302 3.77092 6.97914 4.66431 5.68126 6.05286L5.82737 6.18943L5.97348 6.326C7.20972 5.0034 8.83993 4.15466 10.5984 3.9161L10.5715 3.71791ZM5.82737 6.18943L5.68099 6.05315C4.38495 7.44529 3.57676 9.24643 3.38394 11.1688L3.58295 11.1888L3.78195 11.2087C3.9662 9.37171 4.73835 7.65271 5.97375 6.32571L5.82737 6.18943ZM3.58295 11.1888L3.38392 11.1691C3.14917 13.5423 3.83495 15.8465 5.31473 17.6552L5.46952 17.5285L5.62431 17.4019C4.21316 15.6771 3.55742 13.4787 3.78198 11.2085L3.58295 11.1888ZM5.46952 17.5285L5.31458 17.655C6.02939 18.5308 6.90575 19.2504 7.89267 19.7715L7.98605 19.5946L8.07943 19.4178C7.14056 18.922 6.30588 18.2369 5.62446 17.4021L5.46952 17.5285ZM7.98605 19.5946L7.89245 19.7714C9.41696 20.5787 11.1458 20.8768 12.8411 20.624L12.8116 20.4262L12.7821 20.2284C11.1719 20.4685 9.52927 20.1856 8.07966 19.4179L7.98605 19.5946ZM12.8116 20.4262L12.8411 20.624C14.5363 20.3712 16.1134 19.5801 17.3558 18.3609L17.2157 18.2182L17.0757 18.0754C15.8924 19.2366 14.3923 19.9882 12.7821 20.2284L12.8116 20.4262ZM17.2157 18.2182L17.3553 18.3615C18.1927 17.5461 18.8593 16.5615 19.3144 15.4689L19.1298 15.392L18.9451 15.3151C18.5106 16.3585 17.8743 17.2977 17.0762 18.0749L17.2157 18.2182ZM19.1298 15.392L19.3144 15.4689C19.7695 14.3763 20.0033 13.1988 20.0017 12.0091L19.8017 12.0094L19.6017 12.0096C19.6033 13.1467 19.3797 14.2717 18.9451 15.3151L19.1298 15.392ZM19.8017 12.0094H20.0017C20.0017 11.4824 19.9971 11.0629 19.933 10.6471L19.7353 10.6776L19.5376 10.708C19.5964 11.0893 19.6017 11.4795 19.6017 12.0094H19.8017ZM19.7353 10.6776L19.933 10.647C19.9207 10.568 19.9 10.4672 19.8833 10.3854L19.6873 10.4254L19.4914 10.4654C19.5089 10.551 19.5272 10.6407 19.5376 10.7081L19.7353 10.6776ZM19.6873 10.4254L19.8832 10.3851C19.8761 10.3502 19.8693 10.3173 19.8635 10.2873L19.6672 10.3259L19.471 10.3644C19.4772 10.3962 19.4843 10.4307 19.4914 10.4656L19.6873 10.4254ZM19.6672 10.3259L19.8625 10.2827C19.8498 10.2255 19.8427 10.1671 19.8412 10.1084L19.6413 10.1134L19.4413 10.1185C19.4435 10.2028 19.4537 10.2868 19.4719 10.3691L19.6672 10.3259ZM19.6413 10.1134L19.841 10.1027L19.8391 10.0669L19.6394 10.0777L19.4396 10.0885L19.4416 10.1242L19.6413 10.1134ZM19.6394 10.0777H19.8394C19.8394 10.0653 19.8392 10.0702 19.8393 10.0672C19.8393 10.0669 19.8394 10.0653 19.84 10.0617C19.8413 10.0548 19.8458 10.0354 19.8623 10.0017L19.6826 9.91385L19.503 9.82596C19.4723 9.88871 19.4552 9.94279 19.4466 9.98942C19.4423 10.0127 19.4404 10.0329 19.4397 10.0498C19.4391 10.0641 19.4394 10.0816 19.4394 10.0777H19.6394ZM19.6826 9.91385L19.8621 10.0022C19.9212 9.88198 20.0423 9.79323 20.2329 9.77081L20.2095 9.57218L20.1861 9.37355C19.8859 9.40888 19.6326 9.56259 19.5032 9.82553L19.6826 9.91385ZM20.2095 9.57218V9.77218H20.32V9.57218V9.37218H20.2095V9.57218ZM20.32 9.57218V9.77218C20.479 9.77218 20.5869 9.85199 20.6702 9.96823C20.7573 10.0897 20.8032 10.2329 20.83 10.3183L21.0209 10.2584L21.2117 10.1985C21.1853 10.1143 21.1238 9.91441 20.9953 9.73517C20.8631 9.5507 20.6471 9.37218 20.32 9.37218V9.57218ZM21.0209 10.2584L20.8305 10.3196L20.8324 10.3256L21.0228 10.2644L21.2132 10.2032L21.2113 10.1972L21.0209 10.2584ZM21.0228 10.2644L20.8342 10.3311C20.8797 10.4596 20.9266 10.7169 20.9618 11.0435C20.9964 11.3643 21.0179 11.7345 21.0183 12.0785L21.2183 12.0783L21.4183 12.0781C21.4178 11.7193 21.3955 11.3349 21.3595 11.0007C21.3241 10.6722 21.2737 10.374 21.2113 10.1977L21.0228 10.2644ZM21.2183 12.0783L21.0183 12.0785C21.0207 14.6049 20.0584 16.996 18.3082 18.8131L18.4522 18.9519L18.5963 19.0906C20.4185 17.1987 21.4208 14.708 21.4183 12.0781L21.2183 12.0783ZM18.4522 18.9519L18.308 18.8133C17.4499 19.7064 16.4337 20.4186 15.3156 20.911L15.3962 21.094L15.4767 21.277C16.6433 20.7634 17.7026 20.0207 18.5964 19.0904L18.4522 18.9519ZM15.3962 21.094L15.3153 20.9111C14.1628 21.4204 12.923 21.6819 11.6707 21.68L11.6704 21.88L11.6701 22.08C12.9786 22.082 14.2737 21.8087 15.477 21.2769L15.3962 21.094ZM11.6704 2.56021V2.36021C6.49308 2.36021 2.29368 6.72608 2.29368 12.0771H2.49368H2.69368C2.69368 6.93314 6.7276 2.76021 11.6704 2.76021V2.56021ZM2.49368 12.0771H2.29368C2.29368 17.4282 6.49308 21.7941 11.6704 21.7941V21.5941V21.3941C6.7276 21.3941 2.69368 17.2211 2.69368 12.0771H2.49368ZM11.6704 21.5941L11.6702 21.7941C12.9409 21.7952 14.1984 21.5292 15.3668 21.0124L15.2859 20.8295L15.205 20.6466C14.0874 21.1409 12.8851 21.3951 11.6706 21.3941L11.6704 21.5941ZM15.2859 20.8295L15.3664 21.0126C16.5009 20.5138 17.5312 19.7922 18.4006 18.8881L18.2565 18.7494L18.1123 18.6108C17.2786 19.4778 16.2914 20.1689 15.2054 20.6464L15.2859 20.8295ZM18.2565 18.7494L18.4006 18.8881C20.1706 17.0495 21.1445 14.6314 21.142 12.0781L20.942 12.0783L20.742 12.0785C20.7444 14.5282 19.8106 16.8467 18.1124 18.6107L18.2565 18.7494ZM20.942 12.0783H21.142C21.142 11.7002 21.118 11.3211 21.083 11.0057C21.0487 10.6976 21.0017 10.4302 20.9491 10.2875L20.7614 10.3567L20.5738 10.4259C20.6077 10.518 20.6511 10.7412 20.6854 11.05C20.719 11.3516 20.742 11.7159 20.742 12.0783H20.942ZM20.7614 10.3567L20.9527 10.2982L20.9472 10.2802L20.7559 10.3387L20.5647 10.3973L20.5702 10.4153L20.7614 10.3567ZM20.7559 10.3387L20.9466 10.2784C20.8746 10.051 20.7866 9.8918 20.6738 9.79024C20.5518 9.68039 20.4229 9.65724 20.3195 9.65724V9.85724V10.0572C20.3565 10.0572 20.3786 10.0627 20.4062 10.0875C20.4429 10.1206 20.5029 10.2022 20.5652 10.3991L20.7559 10.3387ZM20.3195 9.85724V9.65724H20.2327V9.85724V10.0572H20.3195V9.85724ZM20.2327 9.85724L20.2071 9.65888C20.0129 9.68392 19.8384 9.7726 19.7485 9.95546L19.928 10.0437L20.1075 10.1319C20.1202 10.106 20.1508 10.0694 20.2582 10.0556L20.2327 9.85724ZM19.928 10.0437L19.7483 9.95592C19.7401 9.97276 19.7328 9.99006 19.7265 10.0077L19.9151 10.0745L20.1036 10.1414C20.1048 10.1379 20.1062 10.1346 20.1077 10.1314L19.928 10.0437ZM19.9151 10.0745H19.715V10.0968H19.9151H20.1151V10.0745H19.9151ZM19.9151 10.0968L19.7151 10.1002C19.7163 10.1717 19.7249 10.243 19.7407 10.3127L19.9357 10.2684L20.1308 10.2241C20.121 10.1813 20.1158 10.1375 20.115 10.0935L19.9151 10.0968ZM19.9357 10.2684L19.7396 10.3076C19.7457 10.338 19.7525 10.3718 19.7599 10.4068L19.9556 10.3656L20.1513 10.3244C20.1443 10.2914 20.1379 10.2594 20.1318 10.2292L19.9357 10.2684ZM19.9556 10.3656L19.7597 10.4059C19.7778 10.494 19.7969 10.5882 19.8087 10.6635L20.0063 10.6324L20.2039 10.6013C20.1903 10.5152 20.1692 10.4117 20.1515 10.3254L19.9556 10.3656ZM20.0063 10.6324L19.8086 10.6629C19.8708 11.0651 19.8761 11.4663 19.8763 12.0095L20.0763 12.0094L20.2763 12.0093C20.2761 11.4688 20.2714 11.0385 20.204 10.6018L20.0063 10.6324ZM20.0763 12.0094L19.8763 12.0095C19.8775 13.7623 19.3627 15.473 18.4016 16.913L18.5679 17.024L18.7343 17.1351C19.7399 15.6284 20.2776 13.8402 20.2763 12.0092L20.0763 12.0094ZM18.5679 17.024L18.4016 16.913C17.4405 18.3529 16.0793 19.453 14.5009 20.0676L14.5735 20.254L14.646 20.4403C16.3026 19.7953 17.7286 18.6418 18.7343 17.1351L18.5679 17.024ZM14.5735 20.254L14.5017 20.0673C13.4432 20.4743 12.3151 20.6493 11.1885 20.5814L11.1765 20.781L11.1645 20.9807C12.3484 21.052 13.5336 20.868 14.6453 20.4406L14.5735 20.254ZM11.1765 20.781L11.1885 20.5814C10.0619 20.5135 8.96077 20.2043 7.95457 19.6728L7.86116 19.8497L7.76776 20.0265C8.82395 20.5844 9.98051 20.9094 11.1645 20.9807L11.1765 20.781ZM7.86116 19.8497L7.95455 19.6728C6.98318 19.1599 6.11963 18.4511 5.41466 17.5874L5.25972 17.7138L5.10478 17.8403C5.84314 18.7449 6.74836 19.4883 7.76778 20.0265L7.86116 19.8497ZM5.25972 17.7138L5.41448 17.5871C3.95352 15.8024 3.27673 13.5276 3.50822 11.1792L3.30918 11.1596L3.11015 11.14C2.86854 13.5911 3.57519 15.9717 5.10496 17.8405L5.25972 17.7138ZM3.30918 11.1596L3.50818 11.1796C3.6988 9.2787 4.49774 7.49992 5.77609 6.1267L5.6297 5.99043L5.48331 5.85415C4.14433 7.2925 3.30936 9.15343 3.11018 11.1397L3.30918 11.1596ZM5.6297 5.99043L5.77607 6.12672C7.05358 4.75469 8.74218 3.87567 10.5635 3.63252L10.537 3.43428L10.5106 3.23604C8.59551 3.4917 6.82271 4.41566 5.48332 5.85414L5.6297 5.99043ZM10.537 3.43428L10.5635 3.63252C13.0263 3.3039 15.4456 4.08724 17.2036 5.77995L17.3423 5.63588L17.481 5.49181C15.6335 3.71286 13.0919 2.8916 10.5106 3.23604L10.537 3.43428ZM17.3423 5.63588L17.2036 5.77998C17.1984 5.77499 17.1954 5.76937 17.194 5.76416L17.3871 5.71221L17.5803 5.66026C17.5631 5.59654 17.5291 5.53809 17.481 5.49179L17.3423 5.63588ZM17.3871 5.71221L17.194 5.76416C17.1926 5.75898 17.1926 5.75362 17.194 5.74842L17.3869 5.80159L17.5797 5.85476C17.5972 5.79117 17.5974 5.72394 17.5803 5.66026L17.3871 5.71221ZM17.3869 5.80159L17.194 5.74842C17.1955 5.7432 17.1985 5.73758 17.2038 5.73262L17.3415 5.87762L17.4793 6.02261C17.5277 5.97662 17.5621 5.91838 17.5797 5.85476L17.3869 5.80159ZM17.3415 5.87762L17.2038 5.73262C17.2091 5.72759 17.2164 5.72348 17.2252 5.72171L17.2645 5.9178L17.3039 6.1139C17.3702 6.1006 17.4308 6.06866 17.4793 6.02261L17.3415 5.87762ZM17.2645 5.9178L17.2255 5.72164L14.7812 6.20771L14.8202 6.40387L14.8592 6.60003L17.3035 6.11396L17.2645 5.9178ZM14.8202 6.40387V6.20387H14.807V6.40387V6.60387H14.8202V6.40387ZM14.807 6.40387V6.20387C14.7619 6.20387 14.7264 6.21772 14.7085 6.22576C14.6879 6.23494 14.6704 6.24576 14.6571 6.25468C14.6307 6.27253 14.6054 6.29386 14.5848 6.31244C14.5429 6.35014 14.5006 6.39418 14.4752 6.42068L14.6195 6.55913L14.7639 6.69757C14.7906 6.66974 14.823 6.63616 14.8523 6.60982C14.8672 6.59636 14.8767 6.58907 14.8808 6.5863C14.8829 6.58491 14.8796 6.58741 14.8719 6.59087C14.8678 6.5927 14.8606 6.59563 14.8508 6.59823C14.8413 6.60078 14.8262 6.60387 14.807 6.60387V6.40387ZM14.6195 6.55913L14.4752 6.42068C14.4298 6.46798 14.4085 6.52472 14.3976 6.56053C14.3854 6.60055 14.3784 6.64181 14.3739 6.67721C14.3651 6.7483 14.3644 6.81801 14.3644 6.8522H14.5644H14.7644C14.7644 6.82206 14.7652 6.77239 14.7709 6.72661C14.7737 6.70357 14.7772 6.68702 14.7803 6.67705C14.7846 6.66287 14.7832 6.67743 14.7639 6.69757L14.6195 6.55913ZM14.5644 6.8522H14.3644C14.3644 6.9408 14.4072 7.01164 14.4388 7.05358C14.4741 7.10036 14.5187 7.14158 14.5639 7.17523C14.647 7.23714 14.7735 7.30352 14.9018 7.30352V7.10352V6.90352C14.9041 6.90352 14.8937 6.90338 14.8704 6.89365C14.8489 6.88465 14.825 6.87092 14.8029 6.85447C14.7802 6.83762 14.7653 6.82217 14.7581 6.81259C14.7546 6.80799 14.7552 6.80778 14.7572 6.81225C14.7589 6.81639 14.7644 6.83045 14.7644 6.8522H14.5644ZM14.9018 7.10352V7.30352H14.9845V7.10352V6.90352H14.9018V7.10352ZM14.9845 7.10352L15.0241 7.29957L18.4457 6.60936L18.4062 6.41331L18.3666 6.21725L14.945 6.90747L14.9845 7.10352ZM18.4062 6.41331V6.61331H18.4194V6.41331V6.21331H18.4062V6.41331ZM18.4194 6.41331V6.61331C18.5589 6.61331 18.6731 6.53219 18.7446 6.43679C18.8186 6.33798 18.8617 6.2076 18.8617 6.06362H18.6617H18.4617C18.4617 6.12865 18.4423 6.17312 18.4245 6.1969C18.4041 6.22408 18.3971 6.21331 18.4194 6.21331V6.41331ZM18.6617 6.06362H18.8617V5.97785H18.6617H18.4617V6.06362H18.6617ZM18.6617 5.97785L18.8583 5.94093L18.1922 2.39406L17.9957 2.43098L17.7991 2.46789L18.4652 6.01476L18.6617 5.97785ZM17.9957 2.43098H18.1957V2.41725H17.9957H17.7957V2.43098H17.9957ZM17.9957 2.41725H18.1957C18.1957 2.32865 18.1529 2.25781 18.1212 2.21587C18.0859 2.16909 18.0413 2.12787 17.9962 2.09422C17.9131 2.03231 17.7866 1.96593 17.6582 1.96593V2.16593V2.36593C17.6559 2.36593 17.6664 2.36606 17.6896 2.3758C17.7111 2.3848 17.7351 2.39853 17.7572 2.41498C17.7798 2.43183 17.7947 2.44728 17.802 2.45686C17.8054 2.46146 17.8048 2.46167 17.8029 2.4572C17.8011 2.45306 17.7957 2.439 17.7957 2.41725H17.9957ZM17.6582 2.16593V1.96593H17.5631V2.16593V2.36593H17.6582V2.16593ZM17.5631 2.16593C17.5335 1.96813 17.5332 1.96817 17.5329 1.96821C17.5329 1.96823 17.5326 1.96827 17.5324 1.9683C17.532 1.96837 17.5316 1.96843 17.5312 1.96849C17.5304 1.96862 17.5296 1.96875 17.5288 1.96889C17.5272 1.96917 17.5256 1.96946 17.524 1.96978C17.5208 1.97042 17.5176 1.97114 17.5143 1.97195C17.5078 1.97357 17.5012 1.97553 17.4945 1.97785C17.4812 1.9825 17.4679 1.98849 17.4547 1.99582C17.4284 2.01045 17.403 2.03021 17.3782 2.05514C17.3296 2.10402 17.2779 2.17847 17.2225 2.29274L17.4024 2.38008L17.5823 2.46743C17.6263 2.37669 17.655 2.34406 17.6619 2.33711C17.6649 2.33414 17.661 2.33879 17.6493 2.3453C17.6434 2.34857 17.6357 2.35225 17.6261 2.35559C17.6213 2.35726 17.6161 2.35883 17.6105 2.36021C17.6077 2.3609 17.6048 2.36155 17.6018 2.36214C17.6003 2.36243 17.5988 2.36271 17.5973 2.36298C17.5966 2.36311 17.5958 2.36324 17.595 2.36337C17.5946 2.36343 17.5942 2.36349 17.5938 2.36355C17.5937 2.36358 17.5934 2.36363 17.5933 2.36364C17.593 2.36369 17.5927 2.36373 17.5631 2.16593ZM17.4024 2.38008L17.2222 2.29319L17.2176 2.30291L17.3977 2.3898L17.5778 2.4767L17.5825 2.46697L17.4024 2.38008ZM17.3977 2.3898L17.2333 2.27593L17.2192 2.29623L17.3836 2.41011L17.548 2.52398L17.5621 2.50368L17.3977 2.3898ZM17.3836 2.41011L17.2336 2.27787L17.2248 2.28787L17.3748 2.42011L17.5249 2.55235L17.5337 2.54234L17.3836 2.41011ZM17.3748 2.42011L17.229 2.28323C17.1877 2.32719 17.1665 2.37823 17.1548 2.41392C17.1422 2.45223 17.1348 2.49129 17.1301 2.52506C17.1208 2.59259 17.1197 2.65939 17.1197 2.69774H17.3197H17.5197C17.5197 2.6649 17.5208 2.6199 17.5263 2.57993C17.5291 2.55994 17.5323 2.54632 17.5348 2.53864C17.5382 2.52833 17.5365 2.54005 17.5206 2.557L17.3748 2.42011ZM17.3197 2.69774L17.1237 2.73752L17.4892 4.53883L17.6852 4.49905L17.8812 4.45928L17.5157 2.65796L17.3197 2.69774ZM17.6852 4.49905L17.4892 4.53886C17.4881 4.53314 17.4886 4.52711 17.491 4.52126L17.6761 4.59696L17.8612 4.67266C17.8889 4.60502 17.8957 4.53065 17.8812 4.45925L17.6852 4.49905ZM17.6761 4.59696L17.491 4.52126C17.4934 4.51535 17.498 4.5091 17.5054 4.50428L17.6146 4.67185L17.7238 4.83941C17.786 4.79889 17.8335 4.74036 17.8612 4.67266L17.6761 4.59696ZM17.6146 4.67185L17.5054 4.50428C17.5129 4.49939 17.5225 4.49655 17.5327 4.49706L17.5228 4.69681L17.5129 4.89657C17.5878 4.90028 17.6614 4.88002 17.7238 4.83941L17.6146 4.67185ZM17.5228 4.69681L17.5327 4.49706C17.543 4.49756 17.552 4.5013 17.5587 4.50664L17.4338 4.66289L17.309 4.81914C17.3669 4.86544 17.4381 4.89286 17.5129 4.89657L17.5228 4.69681ZM17.4338 4.66289L17.5586 4.50659C16.6926 3.81517 15.762 3.28247 14.7916 2.92091L14.7218 3.10833L14.652 3.29574C15.5801 3.64156 16.474 4.15247 17.309 4.81918L17.4338 4.66289ZM14.7218 3.10833L14.7914 2.92084C13.7901 2.54896 12.7342 2.35925 11.6702 2.36021L11.6704 2.56021L11.6706 2.76021C12.6866 2.7593 13.6953 2.94045 14.6522 3.29582L14.7218 3.10833ZM18.7971 5.96269H18.5971V6.06334H18.7971H18.9971V5.96269H18.7971Z"
        mask="url(#path-1-outside-1_13850_7339)" />
</svg>