<svg width="24" height="24" viewBox="0 0 24 24" xmlns="http://www.w3.org/2000/svg" fill="#cacaca"><path d="M20.069 10.7586H14.4828C13.9138 10.7069 13.6034 10.3965 13.5517 9.82758C13.6034 9.25861 13.9138 8.94826 14.4828 8.89654H18.0129L16.9267 7.65516V7.61637C16.306 6.86637 15.5431 6.27154 14.6379 5.83189C13.7328 5.39223 12.75 5.1724 11.6897 5.1724C9.75 5.22413 8.14655 5.89654 6.87931 7.18964C5.58621 8.45689 4.91379 10.0603 4.86207 12C4.91379 13.9396 5.58621 15.5431 6.87931 16.8103C8.14655 18.1034 9.75 18.7759 11.6897 18.8276C13.2672 18.8017 14.6379 18.3491 15.8017 17.4698C16.2672 17.1595 16.694 17.2241 17.0819 17.6638C17.3922 18.1293 17.3276 18.556 16.8879 18.944C15.4138 20.0819 13.681 20.6638 11.6897 20.6896C10.0603 20.6638 8.59914 20.2629 7.30603 19.4871C5.98707 18.7371 4.95259 17.7026 4.20259 16.3836C3.42672 15.0905 3.02586 13.6293 3 12C3.02586 10.3707 3.42672 8.90947 4.20259 7.61637C4.95259 6.2974 5.98707 5.26292 7.30603 4.51292C8.59914 3.73706 10.0603 3.3362 11.6897 3.31033C13.0345 3.31033 14.2888 3.59482 15.4526 4.16378C16.5905 4.70689 17.5603 5.46982 18.3621 6.45257L19.1379 7.34482V4.24137C19.1897 3.6724 19.5 3.36206 20.069 3.31033C20.6379 3.36206 20.9483 3.6724 21 4.24137V9.82758C20.9483 10.3965 20.6379 10.7069 20.069 10.7586Z"/></svg>