<svg width="24" height="24" viewBox="0 0 24 24" xmlns="http://www.w3.org/2000/svg" fill="#cacaca"><path d="M11.5938 4.125C11.8646 3.95833 12.1354 3.95833 12.4062 4.125L16.7188 7H19.75C20.3958 7.02083 20.9271 7.23958 21.3438 7.65625C21.7604 8.07292 21.9792 8.60417 22 9.25V17.75C21.9792 18.3958 21.7604 18.9271 21.3438 19.3438C20.9271 19.7604 20.3958 19.9792 19.75 20H4.25C3.60417 19.9792 3.07292 19.7604 2.65625 19.3438C2.23958 18.9271 2.02083 18.3958 2 17.75V9.25C2.02083 8.60417 2.23958 8.07292 2.65625 7.65625C3.07292 7.23958 3.60417 7.02083 4.25 7H7.28125L11.5938 4.125ZM19.75 18.5C20.2083 18.4583 20.4583 18.2083 20.5 17.75V9.25C20.4583 8.79167 20.2083 8.54167 19.75 8.5H16.5C16.3542 8.5 16.2188 8.45833 16.0938 8.375L12 5.65625L7.90625 8.375C7.78125 8.45833 7.64583 8.5 7.5 8.5H4.25C3.79167 8.54167 3.54167 8.79167 3.5 9.25V17.75C3.54167 18.2083 3.79167 18.4583 4.25 18.5H10V16C10.0208 15.4375 10.2188 14.9688 10.5938 14.5938C10.9688 14.2188 11.4375 14.0208 12 14C12.5625 14.0208 13.0312 14.2188 13.4062 14.5938C13.7812 14.9688 13.9792 15.4375 14 16V18.5H19.75ZM5.5 10H6.5C6.8125 10.0208 6.97917 10.1875 7 10.5V12.5C6.97917 12.8125 6.8125 12.9792 6.5 13H5.5C5.1875 12.9792 5.02083 12.8125 5 12.5V10.5C5.02083 10.1875 5.1875 10.0208 5.5 10ZM17 10.5C17.0208 10.1875 17.1875 10.0208 17.5 10H18.5C18.8125 10.0208 18.9792 10.1875 19 10.5V12.5C18.9792 12.8125 18.8125 12.9792 18.5 13H17.5C17.1875 12.9792 17.0208 12.8125 17 12.5V10.5ZM5.5 14H6.5C6.8125 14.0208 6.97917 14.1875 7 14.5V16.5C6.97917 16.8125 6.8125 16.9792 6.5 17H5.5C5.1875 16.9792 5.02083 16.8125 5 16.5V14.5C5.02083 14.1875 5.1875 14.0208 5.5 14ZM17 14.5C17.0208 14.1875 17.1875 14.0208 17.5 14H18.5C18.8125 14.0208 18.9792 14.1875 19 14.5V16.5C18.9792 16.8125 18.8125 16.9792 18.5 17H17.5C17.1875 16.9792 17.0208 16.8125 17 16.5V14.5ZM9.5 10C9.52083 9.0625 9.9375 8.34375 10.75 7.84375C11.5833 7.38542 12.4167 7.38542 13.25 7.84375C14.0625 8.34375 14.4792 9.0625 14.5 10C14.4792 10.9375 14.0625 11.6562 13.25 12.1562C12.4167 12.6146 11.5833 12.6146 10.75 12.1562C9.9375 11.6562 9.52083 10.9375 9.5 10ZM12 8.5C11.6875 8.52083 11.5208 8.6875 11.5 9V10C11.5208 10.3125 11.6875 10.4792 12 10.5H12.75C13.0625 10.4792 13.2292 10.3125 13.25 10C13.2292 9.6875 13.0625 9.52083 12.75 9.5H12.5V9C12.4792 8.6875 12.3125 8.52083 12 8.5Z"/></svg>