<svg width="24" height="24" viewBox="0 0 24 24" xmlns="http://www.w3.org/2000/svg" fill="#cacaca"><path d="M20.7951 18.4357C20.4434 18.8109 20.0565 18.846 19.6345 18.5412L13.9724 13.8287L15.3088 12.7385L20.6896 17.2752C21.0647 17.6269 21.0998 18.0137 20.7951 18.4357ZM6.93883 4.68502C6.09479 4.70846 5.45004 5.08359 5.00458 5.8104C4.58256 6.56065 4.58256 7.3109 5.00458 8.06115C5.45004 8.78796 6.09479 9.16309 6.93883 9.18653C7.78286 9.16309 8.42761 8.78796 8.87307 8.06115C9.29509 7.3109 9.29509 6.56065 8.87307 5.8104C8.42761 5.08359 7.78286 4.70846 6.93883 4.68502ZM6.93883 2.99695C8.06421 3.02039 8.9903 3.40724 9.71711 4.1575C10.4674 4.8843 10.8542 5.8104 10.8777 6.93577C10.8777 7.5688 10.737 8.15494 10.4556 8.69418L13.1284 10.9098L19.6345 5.45871C20.0565 5.15392 20.4434 5.18909 20.7951 5.56422C21.0998 5.98624 21.0647 6.37309 20.6896 6.72477L10.4556 15.3058C10.737 15.845 10.8777 16.4312 10.8777 17.0642C10.8542 18.1896 10.4674 19.1157 9.71711 19.8425C8.9903 20.5927 8.06421 20.9796 6.93883 21.003C5.81345 20.9796 4.88735 20.5927 4.16055 19.8425C3.41029 19.1157 3.02345 18.1896 3 17.0642C3.02345 15.9388 3.41029 15.0127 4.16055 14.2859C4.88735 13.5357 5.81345 13.1488 6.93883 13.1254C7.90009 13.1488 8.72068 13.4419 9.40059 14.0046L11.792 12L9.40059 9.9954C8.72068 10.5581 7.90009 10.8512 6.93883 10.8746C5.81345 10.8512 4.88735 10.4643 4.16055 9.71405C3.41029 8.98725 3.02345 8.06115 3 6.93577C3.02345 5.8104 3.41029 4.8843 4.16055 4.1575C4.88735 3.40724 5.81345 3.02039 6.93883 2.99695ZM9.18958 17.0642C9.16614 16.2202 8.79101 15.5754 8.06421 15.1299C7.31395 14.7079 6.5637 14.7079 5.81345 15.1299C5.08664 15.5754 4.71151 16.2202 4.68807 17.0642C4.71151 17.9082 5.08664 18.553 5.81345 18.9984C6.5637 19.4204 7.31395 19.4204 8.06421 18.9984C8.79101 18.553 9.16614 17.9082 9.18958 17.0642Z"/></svg>