<svg width="24" height="24" viewBox="0 0 24 24" xmlns="http://www.w3.org/2000/svg" fill="#cacaca"><path d="M5.77734 3.42578L9.43359 6.23828C9.64453 6.40234 9.75 6.625 9.75 6.90625V8.80469L13.582 12.6367C14.0977 12.3789 14.6484 12.2969 15.2344 12.3906C15.7969 12.4609 16.3008 12.707 16.7461 13.1289L20.6836 17.0664C20.8945 17.3008 21 17.5703 21 17.875C21 18.1797 20.8945 18.4492 20.6836 18.6836L18.4336 20.9336C18.1992 21.1445 17.9297 21.25 17.625 21.25C17.3203 21.25 17.0508 21.1445 16.8164 20.9336L12.8789 16.9961C12.457 16.5508 12.2109 16.0469 12.1406 15.4844C12.0469 14.8984 12.1289 14.3477 12.3867 13.832L8.55469 10H6.65625C6.375 10 6.15234 9.89453 5.98828 9.68359L3.17578 6.02734C2.91797 5.62891 2.94141 5.25391 3.24609 4.90234L4.65234 3.49609C5.00391 3.19141 5.37891 3.16797 5.77734 3.42578ZM3.80859 16.5039L8.625 11.6875L9.82031 12.8828L5.00391 17.6992C4.79297 17.9102 4.6875 18.168 4.6875 18.4727C4.6875 18.7773 4.79297 19.0352 5.00391 19.2461C5.21484 19.457 5.47266 19.5625 5.77734 19.5625C6.08203 19.5625 6.33984 19.457 6.55078 19.2461L10.9805 14.8164C10.9336 15.5195 11.0742 16.1875 11.4023 16.8203L7.74609 20.4414C7.20703 20.9805 6.55078 21.25 5.77734 21.25C5.00391 21.2266 4.34766 20.957 3.80859 20.4414C3.29297 19.9023 3.02344 19.2461 3 18.4727C3 17.6992 3.26953 17.043 3.80859 16.5039ZM19.3125 9.01562L18.4336 9.89453C17.9883 10.3398 17.4492 10.5625 16.8164 10.5625H15.9375C15.3047 10.5391 14.7773 10.3164 14.3555 9.89453C13.9336 9.47266 13.7109 8.94531 13.6875 8.3125V7.43359C13.6875 6.80078 13.9102 6.26172 14.3555 5.81641L15.2344 4.9375C14.1562 5.00781 13.2656 5.40625 12.5625 6.13281C11.8359 6.85938 11.4609 7.77344 11.4375 8.875V8.91016L10.875 8.34766V6.90625C10.875 6.55469 10.7812 6.21484 10.5938 5.88672C11.1094 5.08984 11.7773 4.45703 12.5977 3.98828C13.4414 3.49609 14.3672 3.25 15.375 3.25C16.2422 3.25 17.0508 3.4375 17.8008 3.8125C18.1289 4.02344 18.1758 4.29297 17.9414 4.62109L15.5508 7.01172C15.4336 7.12891 15.375 7.26953 15.375 7.43359V8.3125C15.3984 8.66406 15.5859 8.85156 15.9375 8.875H16.8164C16.9805 8.875 17.1211 8.81641 17.2383 8.69922L19.6289 6.30859C19.957 6.07422 20.2266 6.12109 20.4375 6.44922C20.8125 7.19922 21 8.00781 21 8.875C21 9.83594 20.7891 10.7148 20.3672 11.5117C19.9453 12.2852 19.3711 12.9297 18.6445 13.4453L17.5195 12.3555C17.4961 12.3086 17.4609 12.2734 17.4141 12.25C17.9766 11.8984 18.4219 11.4414 18.75 10.8789C19.1016 10.3164 19.2891 9.69531 19.3125 9.01562Z"/></svg>