<svg width="24" height="24" viewBox="0 0 24 24" xmlns="http://www.w3.org/2000/svg" fill="#cacaca"><path d="M9.71875 4.6875C10.1875 4.25 10.8125 4 11.4375 4H11.4688C12.8438 4 14 5.15625 14 6.53125C14 7.1875 13.7188 7.84375 13.25 8.3125L6.78125 14.7812C6.59375 14.9688 6.5 15.2188 6.5 15.5C6.5 16.0625 6.9375 16.5 7.5 16.5C7.78125 16.5 8.03125 16.4062 8.21875 16.2188L15.6875 8.75C16.1562 8.28125 16.8125 8 17.4688 8C18.875 8 20 9.15625 20 10.5312C20 11.1875 19.7188 11.8438 19.25 12.3125L16 15.5625C15.6562 15.9062 15.5 16.3438 15.5 16.7812C15.5 17.75 16.25 18.5 17.2188 18.5H17.3438C17.5312 18.5 17.6875 18.5 17.875 18.4375L19 18.0625C19.4062 17.9062 19.8125 18.125 19.9375 18.5312C20.0938 18.9062 19.875 19.3438 19.4688 19.4688L18.3438 19.8438C18.0312 19.9688 17.6875 20.0312 17.3438 20.0312H17.2188C15.4375 20.0312 14 18.5625 14 16.7812C14 15.9375 14.3125 15.125 14.9375 14.5L18.1875 11.25C18.375 11.0625 18.5 10.8125 18.5 10.5312C18.5 9.96875 18.0312 9.5 17.4688 9.5C17.1875 9.5 16.9375 9.625 16.75 9.8125L9.28125 17.2812C8.8125 17.75 8.15625 18 7.5 18C6.125 18 5 16.875 5 15.5C5 14.8125 5.25 14.1875 5.71875 13.7188L12.1875 7.25C12.375 7.0625 12.5 6.8125 12.5 6.53125C12.5 5.96875 12.0312 5.5 11.4688 5.5H11.4375C11.1875 5.5 10.9062 5.625 10.7188 5.78125L5.25 10.8125C4.9375 11.0938 4.46875 11.0625 4.1875 10.7812C3.90625 10.4688 3.9375 10 4.21875 9.71875L9.71875 4.6875Z"/></svg>