<svg width="24" height="24" viewBox="0 0 24 24" xmlns="http://www.w3.org/2000/svg" fill="#cacaca"><path d="M13.5938 10.4688C14.9271 10.3021 16.0417 9.76042 16.9375 8.84375C17.8125 7.94792 18.3229 6.83333 18.4688 5.5H18.25C17.0417 5.52083 15.9688 5.86458 15.0312 6.53125C14.1146 7.19792 13.4583 8.08333 13.0625 9.1875C12.7917 8.64583 12.4583 8.14583 12.0625 7.6875C12.6667 6.58333 13.5104 5.69792 14.5938 5.03125C15.6771 4.36458 16.8958 4.02083 18.25 4H19C19.2917 4 19.5312 4.09375 19.7188 4.28125C19.9062 4.46875 20 4.70833 20 5C19.9583 6.8125 19.375 8.35417 18.25 9.625C17.125 10.8958 15.6875 11.6667 13.9375 11.9375C13.875 11.4375 13.7604 10.9479 13.5938 10.4688ZM5.5 7.5V8C5.54167 9.5625 6.08333 10.8542 7.125 11.875C8.14583 12.9167 9.4375 13.4583 11 13.5H11.25V13C11.2083 11.4375 10.6667 10.1458 9.625 9.125C8.60417 8.08333 7.3125 7.54167 5.75 7.5H5.5ZM12.75 13V19.25C12.7083 19.7083 12.4583 19.9583 12 20C11.5417 19.9583 11.2917 19.7083 11.25 19.25V15H11C9.6875 14.9792 8.51042 14.6562 7.46875 14.0312C6.40625 13.4271 5.57292 12.5938 4.96875 11.5312C4.34375 10.4896 4.02083 9.3125 4 8V7C4 6.70833 4.09375 6.46875 4.28125 6.28125C4.46875 6.09375 4.70833 6 5 6H5.75C7.0625 6.02083 8.23958 6.34375 9.28125 6.96875C10.3438 7.57292 11.1771 8.40625 11.7812 9.46875C12.4062 10.5104 12.7292 11.6875 12.75 13Z"/></svg>