<svg width="24" height="24" viewBox="0 0 24 24" xmlns="http://www.w3.org/2000/svg" fill="#cacaca"><path d="M5.25 5.71429C4.89844 5.7381 4.71094 5.92857 4.6875 6.28571V8.57143C4.71094 8.92857 4.89844 9.11905 5.25 9.14286H18.75C19.1016 9.11905 19.2891 8.92857 19.3125 8.57143V6.28571C19.2891 5.92857 19.1016 5.7381 18.75 5.71429H5.25ZM3 6.28571C3.02344 5.64286 3.24609 5.10714 3.66797 4.67857C4.08984 4.25 4.61719 4.02381 5.25 4H18.75C19.3828 4.02381 19.9102 4.25 20.332 4.67857C20.7539 5.10714 20.9766 5.64286 21 6.28571V8.57143C20.9766 9.21429 20.7539 9.75 20.332 10.1786C19.9102 10.6071 19.3828 10.8333 18.75 10.8571H5.25C4.61719 10.8333 4.08984 10.6071 3.66797 10.1786C3.24609 9.75 3.02344 9.21429 3 8.57143V6.28571ZM5.25 14.8571C4.89844 14.881 4.71094 15.0714 4.6875 15.4286V17.7143C4.71094 18.0714 4.89844 18.2619 5.25 18.2857H18.75C19.1016 18.2619 19.2891 18.0714 19.3125 17.7143V15.4286C19.2891 15.0714 19.1016 14.881 18.75 14.8571H5.25ZM3 15.4286C3.02344 14.7857 3.24609 14.25 3.66797 13.8214C4.08984 13.3929 4.61719 13.1667 5.25 13.1429H18.75C19.3828 13.1667 19.9102 13.3929 20.332 13.8214C20.7539 14.25 20.9766 14.7857 21 15.4286V17.7143C20.9766 18.3571 20.7539 18.8929 20.332 19.3214C19.9102 19.75 19.3828 19.9762 18.75 20H5.25C4.61719 19.9762 4.08984 19.75 3.66797 19.3214C3.24609 18.8929 3.02344 18.3571 3 17.7143V15.4286ZM16.7812 16.5714C16.8281 16.0476 17.1094 15.7619 17.625 15.7143C18.1406 15.7619 18.4219 16.0476 18.4688 16.5714C18.4219 17.0952 18.1406 17.381 17.625 17.4286C17.1094 17.381 16.8281 17.0952 16.7812 16.5714ZM17.625 6.57143C18.1406 6.61905 18.4219 6.90476 18.4688 7.42857C18.4219 7.95238 18.1406 8.2381 17.625 8.28571C17.1094 8.2381 16.8281 7.95238 16.7812 7.42857C16.8281 6.90476 17.1094 6.61905 17.625 6.57143ZM14.5312 16.5714C14.5781 16.0476 14.8594 15.7619 15.375 15.7143C15.8906 15.7619 16.1719 16.0476 16.2188 16.5714C16.1719 17.0952 15.8906 17.381 15.375 17.4286C14.8594 17.381 14.5781 17.0952 14.5312 16.5714ZM15.375 6.57143C15.8906 6.61905 16.1719 6.90476 16.2188 7.42857C16.1719 7.95238 15.8906 8.2381 15.375 8.28571C14.8594 8.2381 14.5781 7.95238 14.5312 7.42857C14.5781 6.90476 14.8594 6.61905 15.375 6.57143Z"/></svg>