<svg width="24" height="24" viewBox="0 0 24 24" xmlns="http://www.w3.org/2000/svg" fill="#cacaca"><path d="M13.125 5.21484L10.7344 9.1875H15.5156L13.125 5.21484ZM17.4492 9.1875C17.6602 9.5625 17.6719 9.9375 17.4844 10.3125C17.25 10.6641 16.9219 10.8516 16.5 10.875H9.75C9.32812 10.8516 9 10.6641 8.76562 10.3125C8.57812 9.9375 8.58984 9.5625 8.80078 9.1875L12.1758 3.5625C12.3867 3.21094 12.7031 3.02344 13.125 3C13.5469 3.02344 13.8633 3.21094 14.0742 3.5625L17.4492 9.1875ZM19.3125 14.25H14.8125V18.75H19.3125V14.25ZM14.5312 12.5625H19.5938C19.9922 12.5625 20.3203 12.7031 20.5781 12.9844C20.8594 13.2422 21 13.5703 21 13.9688V19.0312C21 19.4297 20.8594 19.7578 20.5781 20.0156C20.3203 20.2969 19.9922 20.4375 19.5938 20.4375H14.5312C14.1328 20.4375 13.8047 20.2969 13.5469 20.0156C13.2656 19.7578 13.125 19.4297 13.125 19.0312V13.9688C13.125 13.5703 13.2656 13.2422 13.5469 12.9844C13.8047 12.7031 14.1328 12.5625 14.5312 12.5625ZM10.3125 16.5C10.2891 15.4453 9.82031 14.6367 8.90625 14.0742C7.96875 13.5586 7.03125 13.5586 6.09375 14.0742C5.17969 14.6367 4.71094 15.4453 4.6875 16.5C4.71094 17.5547 5.17969 18.3633 6.09375 18.9258C7.03125 19.4414 7.96875 19.4414 8.90625 18.9258C9.82031 18.3633 10.2891 17.5547 10.3125 16.5ZM3 16.5C3 15.6797 3.19922 14.9297 3.59766 14.25C3.99609 13.5703 4.54688 13.0195 5.25 12.5977C5.95312 12.1992 6.70312 12 7.5 12C8.29688 12 9.04688 12.1992 9.75 12.5977C10.4531 13.0195 11.0039 13.5703 11.4023 14.25C11.8008 14.9297 12 15.6797 12 16.5C12 17.3203 11.8008 18.0703 11.4023 18.75C11.0039 19.4297 10.4531 19.9805 9.75 20.4023C9.04688 20.8008 8.29688 21 7.5 21C6.70312 21 5.95312 20.8008 5.25 20.4023C4.54688 19.9805 3.99609 19.4297 3.59766 18.75C3.19922 18.0703 3 17.3203 3 16.5Z"/></svg>