<svg width="24" height="24" viewBox="0 0 24 24" xmlns="http://www.w3.org/2000/svg" fill="#cacaca"><path d="M17.5 17.5996C17.4998 16.8331 16.8718 16.2002 16.083 16.2002C15.5904 16.2003 15.1605 16.4471 14.9072 16.8193C14.8956 16.8439 14.884 16.8686 14.8701 16.8926C14.8539 16.9206 14.8358 16.9469 14.8174 16.9727C14.7212 17.1619 14.6671 17.3749 14.667 17.5996C14.667 18.3662 15.2942 18.9998 16.083 19C16.8719 19 17.5 18.3663 17.5 17.5996ZM7.83301 12C7.83301 11.2334 7.20578 10.5998 6.41699 10.5996C5.62805 10.5996 5 11.2333 5 12C5 12.7667 5.62805 13.4004 6.41699 13.4004C7.20578 13.4002 7.83301 12.7666 7.83301 12ZM17.5 6.40039C17.5 5.6337 16.8719 5 16.083 5C15.2942 5.00017 14.667 5.63381 14.667 6.40039C14.6672 7.16679 15.2944 7.79963 16.083 7.7998C16.8718 7.7998 17.4998 7.1669 17.5 6.40039ZM19.5 6.40039C19.4998 8.28449 17.9633 9.7998 16.083 9.7998C15.1904 9.79972 14.3756 9.45794 13.7656 8.89746L9.74414 11.2285C9.80186 11.4763 9.83301 11.7344 9.83301 12C9.83301 12.2653 9.80172 12.523 9.74414 12.7705L13.7686 15.0996C14.3782 14.5408 15.1918 14.2003 16.083 14.2002C17.9633 14.2002 19.4998 15.7155 19.5 17.5996C19.5 19.4839 17.9634 21 16.083 21C14.2027 20.9998 12.667 19.4838 12.667 17.5996C12.667 17.333 12.6977 17.0738 12.7559 16.8252L8.7334 14.4961C8.12342 15.0567 7.30972 15.4003 6.41699 15.4004C4.53655 15.4004 3 13.8843 3 12C3 10.1157 4.53656 8.59961 6.41699 8.59961C7.30925 8.59969 8.12352 8.94192 8.7334 9.50195L12.7559 7.1709C12.6983 6.92342 12.667 6.66568 12.667 6.40039C12.667 4.51622 14.2027 3.00018 16.083 3C17.9634 3 19.5 4.51611 19.5 6.40039Z"/></svg>