<svg width="24" height="24" viewBox="0 0 24 24" xmlns="http://www.w3.org/2000/svg" fill="#cacaca"><path d="M13.9688 11.4384C14.4844 11.4852 14.7656 11.7665 14.8125 12.2821V14.1102L19.0312 10.3134L14.8125 6.51648V8.3446C14.7656 8.86023 14.4844 9.14148 13.9688 9.18835H9.1875C7.92188 9.21179 6.85547 9.64538 5.98828 10.4891C5.14453 11.3563 4.71094 12.4227 4.6875 13.6883C4.6875 14.2274 4.74609 14.7196 4.86328 15.1649C5.19141 14.0633 5.78906 13.1727 6.65625 12.493C7.52344 11.8134 8.55469 11.4618 9.75 11.4384H13.9688ZM13.125 13.1258H9.75C8.78906 13.1493 7.99219 13.4774 7.35938 14.1102C6.72656 14.743 6.39844 15.5399 6.375 16.5008C6.39844 17.1102 6.50391 17.579 6.69141 17.9071C6.76172 18.0243 6.82031 18.118 6.86719 18.1883C6.96094 18.3055 7.05469 18.411 7.14844 18.5048C7.17188 18.5048 7.18359 18.5165 7.18359 18.5399C7.18359 18.5399 7.19531 18.5399 7.21875 18.5399C7.38281 18.7274 7.47656 18.9383 7.5 19.1727C7.45312 19.5946 7.21875 19.829 6.79688 19.8758C6.70312 19.8758 6.60938 19.8524 6.51562 19.8055C6.42188 19.7587 6.29297 19.6883 6.12891 19.5946C6.03516 19.5243 5.92969 19.4423 5.8125 19.3485C5.69531 19.2548 5.56641 19.1493 5.42578 19.0321C4.86328 18.5868 4.32422 17.9305 3.80859 17.0633C3.29297 16.1727 3.02344 15.0477 3 13.6883C3.04688 11.9305 3.65625 10.4774 4.82812 9.32898C5.97656 8.1571 7.42969 7.54773 9.1875 7.50085H13.125V5.25085C13.1484 4.7821 13.3711 4.44226 13.793 4.23132C14.2383 4.04382 14.6367 4.10241 14.9883 4.4071L20.6133 9.4696C20.8711 9.70398 21 9.98523 21 10.3134C21 10.6415 20.8711 10.9227 20.6133 11.1571L14.9883 16.2196C14.6367 16.5243 14.2383 16.5829 13.793 16.3954C13.3711 16.1844 13.1484 15.8446 13.125 15.3758V13.1258Z"/></svg>