<svg width="24" height="24" viewBox="0 0 24 24" xmlns="http://www.w3.org/2000/svg" fill="#cacaca"><path d="M15.8571 11.9679L19.2643 8.91428L15.8571 5.86071V7.37142C15.8357 7.69285 15.6643 7.86428 15.3429 7.88571H12.2571C11.2286 7.90714 10.3821 8.26071 9.71786 8.94642C9.03214 9.61071 8.67857 10.4571 8.65714 11.4857C8.65714 11.8714 8.71071 12.2143 8.81786 12.5143C9.075 11.7429 9.51429 11.1321 10.1357 10.6821C10.7571 10.2107 11.4857 9.96428 12.3214 9.94285H15.3429C15.6643 9.96428 15.8357 10.1357 15.8571 10.4571V11.9679ZM12.3214 11.4857C11.7214 11.5071 11.2179 11.7107 10.8107 12.0964C10.425 12.5036 10.2214 12.9964 10.2 13.575C10.2 13.875 10.2429 14.1214 10.3286 14.3143C10.3929 14.4214 10.4464 14.5071 10.4893 14.5714C10.5107 14.5929 10.5321 14.6143 10.5536 14.6357C10.5536 14.6357 10.5643 14.6464 10.5857 14.6679C10.6071 14.6893 10.6286 14.7107 10.65 14.7321C10.65 14.7536 10.65 14.7643 10.65 14.7643C10.7143 14.8071 10.7679 14.85 10.8107 14.8929C10.8321 14.8929 10.8429 14.8929 10.8429 14.8929C10.8429 14.8929 10.8429 14.9036 10.8429 14.925C11.0786 15.075 11.2071 15.2786 11.2286 15.5357C11.2071 15.8786 11.0143 16.0714 10.65 16.1143H10.5857C10.5 16.1143 10.425 16.1036 10.3607 16.0821C10.2964 16.0393 10.2 15.9964 10.0714 15.9536C9.96429 15.8893 9.84643 15.8143 9.71786 15.7286C9.54643 15.6214 9.36429 15.5036 9.17143 15.375C8.67857 15.0321 8.21786 14.5393 7.78929 13.8964C7.36071 13.2536 7.13571 12.45 7.11429 11.4857C7.15714 10.0286 7.66071 8.81785 8.625 7.85357C9.58929 6.88928 10.8 6.38571 12.2571 6.34285H14.3143V4.89642C14.3143 4.57499 14.4214 4.30714 14.6357 4.09285C14.85 3.87857 15.1179 3.77142 15.4393 3.77142C15.7179 3.77142 15.9643 3.86785 16.1786 4.06071L20.6143 8.04642C20.8714 8.28214 21 8.57142 21 8.91428C21 9.25714 20.8714 9.54642 20.6143 9.78214L16.1464 13.8C15.9536 13.9714 15.7286 14.0571 15.4714 14.0571H15.3429C15.0429 14.0571 14.7964 13.9607 14.6036 13.7679C14.4107 13.575 14.3143 13.3286 14.3143 13.0286V11.4857H12.3214ZM5.31429 4.79999H7.37143C7.84286 4.84285 8.1 5.09999 8.14286 5.57142C8.1 6.04285 7.84286 6.29999 7.37143 6.34285H5.31429C4.84286 6.38571 4.58571 6.64285 4.54286 7.11428V17.9143C4.58571 18.3857 4.84286 18.6429 5.31429 18.6857H16.1143C16.5857 18.6429 16.8429 18.3857 16.8857 17.9143V15.8571C16.9286 15.3857 17.1857 15.1286 17.6571 15.0857C18.1286 15.1286 18.3857 15.3857 18.4286 15.8571V17.9143C18.4071 18.5786 18.1821 19.125 17.7536 19.5536C17.325 19.9821 16.7786 20.2071 16.1143 20.2286H5.31429C4.65 20.2071 4.10357 19.9821 3.675 19.5536C3.24643 19.125 3.02143 18.5786 3 17.9143V7.11428C3.02143 6.45 3.24643 5.90357 3.675 5.47499C4.10357 5.04642 4.65 4.82142 5.31429 4.79999Z"/></svg>