<svg width="24" height="24" viewBox="0 0 24 24" xmlns="http://www.w3.org/2000/svg" fill="#cacaca"><path d="M5.13876 7.21977C4.91381 7.34474 4.80133 7.50721 4.80133 7.70716C4.80133 8.8819 5.00129 10.2316 5.4012 11.7563C5.80112 13.2559 6.50096 14.7306 7.50074 16.1803C8.52552 17.605 9.95021 18.7797 11.7748 19.7045C11.9248 19.7545 12.0747 19.7545 12.2247 19.7045C14.0493 18.7797 15.474 17.605 16.4988 16.1803C17.4986 14.7306 18.1984 13.2559 18.5983 11.7563C18.9982 10.2316 19.1982 8.8819 19.1982 7.70716C19.1982 7.50721 19.0857 7.34474 18.8608 7.21977L11.9998 4.29541L5.13876 7.21977ZM19.5731 5.57013C19.998 5.74509 20.3354 6.02003 20.5854 6.39495C20.8603 6.76987 20.9978 7.20727 20.9978 7.70716C21.0228 8.98188 20.8103 10.4816 20.3604 12.2062C19.9105 13.9308 19.0982 15.6054 17.9235 17.2301C16.7737 18.8797 15.1241 20.2419 12.9745 21.3167C12.3247 21.6166 11.6748 21.6166 11.025 21.3167C8.87544 20.2419 7.2258 18.8797 6.07606 17.2301C4.90131 15.6054 4.08899 13.9308 3.63909 12.2062C3.18919 10.4816 2.97673 8.98188 3.00173 7.70716C3.00173 7.20727 3.1392 6.76987 3.41414 6.39495C3.66408 6.02003 4.00151 5.74509 4.42642 5.57013L11.5124 2.57079C11.6623 2.4958 11.8248 2.45831 11.9998 2.45831C12.1747 2.45831 12.3372 2.4958 12.4871 2.57079L19.5731 5.57013ZM8.96292 9.01937C9.38783 8.66945 9.81274 8.66945 10.2376 9.01937L11.9998 10.7815L13.7619 9.01937C14.1868 8.66945 14.6117 8.66945 15.0366 9.01937C15.3865 9.44428 15.3865 9.86919 15.0366 10.2941L13.2745 12.0562L15.0366 13.8183C15.3865 14.2432 15.3865 14.6681 15.0366 15.093C14.6117 15.443 14.1868 15.443 13.7619 15.093L11.9998 13.3309L10.2376 15.093C9.81274 15.443 9.38783 15.443 8.96292 15.093C8.613 14.6681 8.613 14.2432 8.96292 13.8183L10.725 12.0562L8.96292 10.2941C8.613 9.86919 8.613 9.44428 8.96292 9.01937Z"/></svg>