<svg width="24" height="24" viewBox="0 0 24 24" xmlns="http://www.w3.org/2000/svg" fill="#cacaca"><path d="M5.13925 7.19379C4.9143 7.31822 4.80182 7.47998 4.80182 7.67906C4.80182 8.35096 4.86431 9.09753 4.98928 9.91874H11.1004V4.69281L5.13925 7.19379ZM5.40169 11.7105C5.77661 13.129 6.41397 14.5101 7.31377 15.8539C8.23857 17.1977 9.50079 18.33 11.1004 19.2508V11.7105H5.40169ZM12.9 11.7105V19.2508C14.4997 18.33 15.7619 17.1977 16.6867 15.8539C17.5865 14.5101 18.2239 13.129 18.5988 11.7105H12.9ZM19.0112 9.91874C19.1362 9.09753 19.1987 8.35096 19.1987 7.67906C19.1987 7.47998 19.0862 7.31822 18.8612 7.19379L12.9 4.69281V9.91874H19.0112ZM12.4876 2.56511L19.5736 5.55136C19.9985 5.72555 20.3359 5.99929 20.5859 6.37257C20.8608 6.74586 20.9983 7.18135 20.9983 7.67906C21.0233 8.94821 20.8108 10.4413 20.3609 12.1584C19.911 13.8755 19.0987 15.5428 17.9239 17.1604C16.7742 18.8028 15.1246 20.1591 12.975 21.2292C12.3252 21.5278 11.6753 21.5278 11.0255 21.2292C8.87593 20.1591 7.22629 18.8028 6.07654 17.1604C4.9018 15.5428 4.08948 13.8755 3.63958 12.1584C3.18968 10.4413 2.97722 8.94821 3.00222 7.67906C3.00222 7.18135 3.13969 6.74586 3.41463 6.37257C3.66457 5.99929 4.002 5.72555 4.42691 5.55136L11.5129 2.56511C11.6628 2.49045 11.8253 2.45312 12.0002 2.45312C12.1752 2.45312 12.3377 2.49045 12.4876 2.56511Z"/></svg>