<svg width="24" height="24" viewBox="0 0 24 24" xmlns="http://www.w3.org/2000/svg" fill="#cacaca"><path fill-rule="evenodd" clip-rule="evenodd" d="M12.1287 1.91764C12.336 1.85912 12.558 1.86881 12.7605 1.94694L19.7605 4.64616C20.146 4.79505 20.4001 5.16649 20.4001 5.57975V11.8796C20.3999 15.0142 18.3821 17.5164 16.5691 19.1481C15.6438 19.9808 14.7227 20.6317 14.0349 21.0739C13.6901 21.2956 13.401 21.4669 13.196 21.5837C13.0936 21.642 13.0113 21.6864 12.9539 21.7174C12.9254 21.7328 12.9026 21.7451 12.8865 21.7536C12.8785 21.7578 12.8717 21.7618 12.8669 21.7643L12.8591 21.7682C12.5724 21.9154 12.2289 21.9154 11.9421 21.7682L11.9333 21.7643C11.9286 21.7618 11.9218 21.7578 11.9138 21.7536C11.8977 21.7451 11.8749 21.7328 11.8464 21.7174C11.789 21.6864 11.7067 21.642 11.6042 21.5837C11.3993 21.4669 11.1102 21.2956 10.7654 21.0739C10.0776 20.6317 9.1565 19.9808 8.2312 19.1481C6.41821 17.5164 4.40035 15.0142 4.40015 11.8796V5.57975C4.40015 5.16649 4.65432 4.79505 5.03979 4.64616L12.0398 1.94694L12.1287 1.91764ZM6.40015 6.2653V11.8796C6.40035 14.1444 7.88239 16.1427 9.56909 17.6608C10.2089 18.2366 10.8525 18.7176 11.4001 19.0924V4.33659L6.40015 6.2653ZM13.4001 19.0924C13.9478 18.7176 14.5914 18.2366 15.2312 17.6608C16.9179 16.1427 18.3999 14.1444 18.4001 11.8796V6.2653L13.4001 4.33659V19.0924Z"/></svg>