<svg width="24" height="24" viewBox="0 0 24 24" xmlns="http://www.w3.org/2000/svg" fill="#cacaca"><path d="M12.4473 21.6445C12.1657 21.7853 11.8343 21.7853 11.5527 21.6445L12 20.75L12.4473 21.6445ZM18 6.56835L12 4.31835L6 6.56835V12C6 14.1784 7.4681 16.1119 9.1582 17.5908C9.98232 18.3119 10.8117 18.8829 11.4365 19.2734C11.6528 19.4086 11.8442 19.5201 12 19.6094C12.1558 19.5201 12.3472 19.4086 12.5635 19.2734C13.1883 18.8829 14.0177 18.3119 14.8418 17.5908C16.5319 16.1119 18 14.1784 18 12V6.56835ZM15.2793 8.18651C15.6622 7.78867 16.2954 7.7764 16.6934 8.15917C17.0912 8.54209 17.1035 9.1753 16.7207 9.57323L11.9082 14.5732C11.7197 14.7691 11.4593 14.8799 11.1875 14.8799C10.9157 14.8799 10.6553 14.7691 10.4668 14.5732L8.2793 12.3008L8.21191 12.2236C7.89923 11.8248 7.93363 11.2457 8.30664 10.8867C8.67963 10.5278 9.25896 10.5161 9.64551 10.8437L9.7207 10.9141L11.1865 12.4375L15.2793 8.18651ZM20 12C20 15.0714 17.968 17.5131 16.1582 19.0967C15.2326 19.9065 14.3116 20.539 13.624 20.9687C13.2792 21.1842 12.9901 21.3504 12.7852 21.4639C12.6826 21.5206 12.6004 21.5646 12.543 21.5947C12.5144 21.6097 12.4917 21.6216 12.4756 21.6299L12.4482 21.6435V21.6445C12.4479 21.6447 12.4472 21.6444 12 20.75C11.5528 21.6444 11.5521 21.6447 11.5518 21.6445V21.6435L11.5244 21.6299C11.5083 21.6216 11.4856 21.6097 11.457 21.5947C11.3996 21.5646 11.3174 21.5206 11.2148 21.4639C11.0099 21.3504 10.7208 21.1842 10.376 20.9687C9.68839 20.539 8.76741 19.9065 7.8418 19.0967C6.03205 17.5131 4 15.0714 4 12V5.87499C4 5.45826 4.25831 5.08491 4.64844 4.93847L11.6484 2.31347L11.7344 2.28612C11.937 2.23027 12.1533 2.23913 12.3516 2.31347L19.3516 4.93847C19.7417 5.08491 20 5.45826 20 5.87499V12Z"/></svg>