<svg width="24" height="24" viewBox="0 0 24 24" xmlns="http://www.w3.org/2000/svg" fill="#cacaca"><path fill-rule="evenodd" clip-rule="evenodd" d="M11.542 21.8886C11.8288 22.036 12.1722 22.036 12.459 21.8886L12.4668 21.8847L12.4744 21.8805L12.4863 21.874L12.5245 21.8536L12.5537 21.8379C12.6112 21.8068 12.6934 21.7625 12.7959 21.7041C13.0009 21.5873 13.2899 21.416 13.6348 21.1943C14.3226 20.7521 15.2436 20.1014 16.1689 19.2685C17.2061 18.3351 18.3103 17.117 19.0654 15.6585L17.0815 15.1143C16.4972 16.1091 15.6907 17.0075 14.8311 17.7812C14.0066 18.5233 13.1773 19.1102 12.5527 19.5117C12.3412 19.6477 12.1538 19.7607 12 19.8515C11.8462 19.7607 11.6588 19.6477 11.4473 19.5117C10.8227 19.1102 9.99344 18.5233 9.16895 17.7812C7.5008 16.2798 6.03283 14.3092 6.00054 12.0751L4 11.5264V12C4 15.1348 6.01797 17.6368 7.83105 19.2685C8.75643 20.1014 9.67737 20.7521 10.3652 21.1943C10.7101 21.416 10.9991 21.5873 11.2041 21.7041C11.3066 21.7625 11.3888 21.8068 11.4463 21.8379C11.4749 21.8533 11.4975 21.8655 11.5137 21.874L11.5256 21.8805L11.5332 21.8847L11.542 21.8886ZM19.7984 13.7095L19.7964 13.7178L17.8652 13.1881L6 9.93371L4 9.38515V9.37637L2.74904 9.03326C2.2101 8.88544 1.89027 8.31839 2.03467 7.76672C2.17908 7.21504 2.73305 6.88766 3.272 7.03548L4 7.23515V5.70017C4 5.28685 4.25408 4.91543 4.63965 4.76658L11.6396 2.06736L11.7285 2.03806C11.9358 1.97954 12.1578 1.98924 12.3604 2.06736L19.3604 4.76658C19.7459 4.91543 20 5.28685 20 5.70017V11.6236L21.251 11.9667C21.7899 12.1145 22.1097 12.6816 21.9653 13.2333C21.8209 13.7849 21.2669 14.1123 20.728 13.9645L19.7984 13.7095ZM12 4.07127L18 6.38572V11.075L6 7.78371V6.38572L12 4.07127Z"/></svg>