<svg width="24" height="24" viewBox="0 0 24 24" xmlns="http://www.w3.org/2000/svg" fill="#cacaca"><path d="M5.13876 7.21977C4.91381 7.34474 4.80133 7.50721 4.80133 7.70716C4.80133 8.8819 5.00129 10.2316 5.4012 11.7563C5.80112 13.2559 6.50096 14.7306 7.50074 16.1803C8.52552 17.605 9.95021 18.7797 11.7748 19.7045C11.9248 19.7545 12.0747 19.7545 12.2247 19.7045C14.0493 18.7797 15.474 17.605 16.4988 16.1803C17.4986 14.7306 18.1984 13.2559 18.5983 11.7563C18.9982 10.2316 19.1982 8.8819 19.1982 7.70716C19.1982 7.50721 19.0857 7.34474 18.8608 7.21977L11.9998 4.29541L5.13876 7.21977ZM19.5731 5.57013C19.998 5.74509 20.3354 6.02003 20.5854 6.39495C20.8603 6.76987 20.9978 7.20727 20.9978 7.70716C21.0228 8.98188 20.8103 10.4816 20.3604 12.2062C19.9105 13.9308 19.0982 15.6054 17.9235 17.2301C16.7737 18.8797 15.1241 20.2419 12.9745 21.3167C12.3247 21.6166 11.6748 21.6166 11.025 21.3167C8.87544 20.2419 7.2258 18.8797 6.07606 17.2301C4.90131 15.6054 4.08899 13.9308 3.63909 12.2062C3.18919 10.4816 2.97673 8.98188 3.00173 7.70716C3.00173 7.20727 3.1392 6.76987 3.41414 6.39495C3.66408 6.02003 4.00151 5.74509 4.42642 5.57013L11.5124 2.57079C11.6623 2.4958 11.8248 2.45831 11.9998 2.45831C12.1747 2.45831 12.3372 2.4958 12.4871 2.57079L19.5731 5.57013ZM11.9998 7.25726C12.5496 7.30725 12.8496 7.60718 12.8996 8.15706V12.3561C12.8496 12.906 12.5496 13.206 11.9998 13.2559C11.4499 13.206 11.1499 12.906 11.1 12.3561V8.15706C11.1499 7.60718 11.4499 7.30725 11.9998 7.25726ZM13.1995 15.6554C13.1995 16.0053 13.087 16.2928 12.8621 16.5177C12.6371 16.7427 12.3497 16.8552 11.9998 16.8552C11.6498 16.8552 11.3624 16.7427 11.1374 16.5177C10.9125 16.2928 10.8 16.0053 10.8 15.6554C10.8 15.3055 10.9125 15.0181 11.1374 14.7931C11.3624 14.5682 11.6498 14.4557 11.9998 14.4557C12.3497 14.4557 12.6371 14.5682 12.8621 14.7931C13.087 15.0181 13.1995 15.3055 13.1995 15.6554Z"/></svg>