<svg width="24" height="24" viewBox="0 0 24 24" xmlns="http://www.w3.org/2000/svg" fill="#cacaca"><path d="M18.9414 4.99609L21.7539 7.80859C22.082 8.20703 22.082 8.60547 21.7539 9.00391L18.9414 11.8164C18.543 12.1445 18.1445 12.1445 17.7461 11.8164C17.418 11.418 17.418 11.0195 17.7461 10.6211L19.1172 9.25H16.375C15.9062 9.25 15.5312 9.4375 15.25 9.8125L13.6328 11.957L12.5781 10.5508L13.9141 8.79297C14.5234 7.99609 15.3438 7.58594 16.375 7.5625H19.1172L17.7461 6.19141C17.418 5.79297 17.418 5.39453 17.7461 4.99609C18.1445 4.66797 18.543 4.66797 18.9414 4.99609ZM11.1719 15.2617L9.83594 17.0195C9.22656 17.8164 8.40625 18.2266 7.375 18.25H4.84375C4.32812 18.2031 4.04688 17.9219 4 17.4062C4.04688 16.8906 4.32812 16.6094 4.84375 16.5625H7.375C7.84375 16.5625 8.21875 16.375 8.5 16L10.1172 13.8555L11.1719 15.2617ZM17.7461 13.9961C18.1445 13.668 18.543 13.668 18.9414 13.9961L21.7539 16.8086C22.082 17.207 22.082 17.6055 21.7539 18.0039L18.9414 20.8164C18.543 21.1445 18.1445 21.1445 17.7461 20.8164C17.418 20.418 17.418 20.0195 17.7461 19.6211L19.1172 18.25H16.375C15.3438 18.2266 14.5234 17.8164 13.9141 17.0195L8.5 9.8125C8.21875 9.4375 7.84375 9.25 7.375 9.25H4.84375C4.32812 9.20312 4.04688 8.92188 4 8.40625C4.04688 7.89062 4.32812 7.60938 4.84375 7.5625H7.375C8.40625 7.58594 9.22656 7.99609 9.83594 8.79297L15.25 16C15.5312 16.375 15.9062 16.5625 16.375 16.5625H19.1172L17.7461 15.1914C17.418 14.793 17.418 14.3945 17.7461 13.9961Z"/></svg>