<svg width="24" height="24" viewBox="0 0 24 24" xmlns="http://www.w3.org/2000/svg" fill="#cacaca"><path d="M19.8707 10.8571H14.5948C14.0575 10.8095 13.7644 10.5238 13.7155 10C13.7644 9.47619 14.0575 9.19048 14.5948 9.14286H17.9289L16.903 8V7.96429C16.3168 7.27381 15.5963 6.72619 14.7414 6.32143C13.8865 5.91667 12.9583 5.71429 11.9569 5.71429C10.125 5.7619 8.61063 6.38095 7.41379 7.57143C6.19253 8.7381 5.55747 10.2143 5.50862 12C5.55747 13.7857 6.19253 15.2619 7.41379 16.4286C8.61063 17.619 10.125 18.2381 11.9569 18.2857C13.4468 18.2619 14.7414 17.8452 15.8405 17.0357C16.2802 16.75 16.6832 16.8095 17.0496 17.2143C17.3427 17.6429 17.2816 18.0357 16.8664 18.3929C15.4741 19.4405 13.8376 19.9762 11.9569 20C10.4181 19.9762 9.03807 19.6071 7.81681 18.8929C6.57112 18.2024 5.59411 17.25 4.88578 16.0357C4.15302 14.8452 3.77443 13.5 3.75 12C3.77443 10.5 4.15302 9.15476 4.88578 7.96429C5.59411 6.75 6.57112 5.79762 7.81681 5.10714C9.03807 4.39286 10.4181 4.02381 11.9569 4C13.227 4 14.4116 4.2619 15.5108 4.78571C16.5855 5.28571 17.5014 5.9881 18.2586 6.89286L18.9914 7.71429V4.85714C19.0402 4.33333 19.3333 4.04762 19.8707 4C20.408 4.04762 20.7011 4.33333 20.75 4.85714V10C20.7011 10.5238 20.408 10.8095 19.8707 10.8571Z"/><path d="M7.75 10.5C7.75 10.2239 7.99873 10 8.30556 10C8.61238 10 8.86111 10.2239 8.86111 10.5V14.5C8.86111 14.7761 8.61238 15 8.30556 15C7.99873 15 7.75 14.7761 7.75 14.5V10.5Z"/><path fill-rule="evenodd" clip-rule="evenodd" d="M11.6389 13.5V11.5C11.6389 11.2239 11.3902 11 11.0833 11C10.7765 11 10.5278 11.2239 10.5278 11.5V13.5C10.5278 13.7761 10.7765 14 11.0833 14C11.3902 14 11.6389 13.7761 11.6389 13.5ZM11.0833 10C10.1629 10 9.41667 10.6716 9.41667 11.5V13.5C9.41667 14.3284 10.1629 15 11.0833 15C12.0038 15 12.75 14.3284 12.75 13.5V11.5C12.75 10.6716 12.0038 10 11.0833 10Z"/></svg>