<svg width="24" height="24" viewBox="0 0 24 24" xmlns="http://www.w3.org/2000/svg" fill="#cacaca"><path d="M5.25 11C4.79167 10.9583 4.54167 10.7083 4.5 10.25V5.75C4.54167 5.29167 4.79167 5.04167 5.25 5C5.70833 5.04167 5.95833 5.29167 6 5.75V8.25L6.625 7.53125C7.27083 6.73958 8.05208 6.125 8.96875 5.6875C9.90625 5.22917 10.9167 5 12 5C13.3125 5.02083 14.4896 5.34375 15.5312 5.96875C16.5938 6.57292 17.4271 7.40625 18.0312 8.46875C18.6562 9.51042 18.9792 10.6875 19 12C18.9792 13.3125 18.6562 14.4896 18.0312 15.5312C17.4271 16.5938 16.5938 17.4271 15.5312 18.0312C14.4896 18.6562 13.3125 18.9792 12 19C10.3958 18.9792 9 18.5104 7.8125 17.5938C7.45833 17.2812 7.40625 16.9375 7.65625 16.5625C7.96875 16.2083 8.3125 16.1562 8.6875 16.4062C9.625 17.1146 10.7292 17.4792 12 17.5C13.5625 17.4583 14.8542 16.9167 15.875 15.875C16.9167 14.8542 17.4583 13.5625 17.5 12C17.4583 10.4375 16.9167 9.14583 15.875 8.125C14.8542 7.08333 13.5625 6.54167 12 6.5C11.1458 6.5 10.3542 6.67708 9.625 7.03125C8.89583 7.38542 8.28125 7.86458 7.78125 8.46875V8.5L6.90625 9.5H9.75C10.2083 9.54167 10.4583 9.79167 10.5 10.25C10.4583 10.7083 10.2083 10.9583 9.75 11H5.25Z"/><path d="M11 10.5C11 10.2239 11.2239 10 11.5 10C11.7761 10 12 10.2239 12 10.5V14.5C12 14.7761 11.7761 15 11.5 15C11.2239 15 11 14.7761 11 14.5V10.5Z"/><path fill-rule="evenodd" clip-rule="evenodd" d="M14.5 13.5V11.5C14.5 11.2239 14.2761 11 14 11C13.7239 11 13.5 11.2239 13.5 11.5V13.5C13.5 13.7761 13.7239 14 14 14C14.2761 14 14.5 13.7761 14.5 13.5ZM14 10C13.1716 10 12.5 10.6716 12.5 11.5V13.5C12.5 14.3284 13.1716 15 14 15C14.8284 15 15.5 14.3284 15.5 13.5V11.5C15.5 10.6716 14.8284 10 14 10Z"/></svg>