<svg width="24" height="24" viewBox="0 0 24 24" xmlns="http://www.w3.org/2000/svg" fill="#cacaca"><path d="M4.7041 19V14.3057H3C2.58582 14.3057 2.25006 13.9698 2.25 13.5557C2.25 13.1415 2.58579 12.8057 3 12.8057H7.90918C8.32335 12.8057 8.65918 13.1415 8.65918 13.5557C8.65912 13.9698 8.32332 14.3056 7.90918 14.3057H6.2041V19C6.2041 19.4142 5.86832 19.75 5.4541 19.75C5.04009 19.7498 4.7041 19.4141 4.7041 19ZM11.25 19V12C11.25 11.5858 11.5858 11.25 12 11.25C12.4142 11.25 12.75 11.5858 12.75 12V19C12.75 19.4142 12.4142 19.75 12 19.75C11.5858 19.75 11.25 19.4142 11.25 19ZM17.7959 19V15.8613H16.0908C15.6767 15.8613 15.3409 15.5254 15.3408 15.1113C15.3408 14.6971 15.6766 14.3614 16.0908 14.3613H21C21.4142 14.3613 21.75 14.6971 21.75 15.1113C21.7499 15.5254 21.4141 15.8613 21 15.8613H19.2959V19C19.2959 19.4141 18.9599 19.7498 18.5459 19.75C18.1317 19.75 17.7959 19.4142 17.7959 19ZM17.7959 12V5C17.7959 4.58579 18.1317 4.25 18.5459 4.25C18.9599 4.25024 19.2959 4.58593 19.2959 5V12C19.2959 12.4141 18.9599 12.7498 18.5459 12.75C18.1317 12.75 17.7959 12.4142 17.7959 12ZM4.7041 10.4443V5C4.7041 4.58593 5.04009 4.25024 5.4541 4.25C5.86832 4.25 6.2041 4.58579 6.2041 5V10.4443C6.2041 10.8585 5.86832 11.1943 5.4541 11.1943C5.04009 11.1941 4.7041 10.8584 4.7041 10.4443ZM11.25 5C11.25 4.58579 11.5858 4.25 12 4.25C12.4142 4.25 12.75 4.58579 12.75 5V8.13867H14.4541L14.5312 8.14258C14.9094 8.18098 15.204 8.50045 15.2041 8.88867C15.2041 9.27698 14.9094 9.59634 14.5312 9.63477L14.4541 9.63867H9.5459C9.13168 9.63867 8.7959 9.30289 8.7959 8.88867C8.79602 8.47456 9.13176 8.13867 9.5459 8.13867H11.25V5Z"/></svg>