<svg width="24" height="24" viewBox="0 0 24 24" xmlns="http://www.w3.org/2000/svg" fill="#cacaca"><path d="M6.375 3C6.89062 3.04688 7.17188 3.32812 7.21875 3.84375V5.95312C7.80469 6.14062 8.27344 6.46875 8.625 6.9375C9 7.42969 9.1875 7.99219 9.1875 8.625C9.1875 9.25781 9 9.82031 8.625 10.3125C8.27344 10.7812 7.80469 11.1094 7.21875 11.2969V20.1562C7.17188 20.6719 6.89062 20.9531 6.375 21C5.85938 20.9531 5.57812 20.6719 5.53125 20.1562V11.2969C4.94531 11.1094 4.47656 10.7812 4.125 10.3125C3.75 9.82031 3.5625 9.25781 3.5625 8.625C3.5625 7.99219 3.75 7.42969 4.125 6.9375C4.47656 6.46875 4.94531 6.14062 5.53125 5.95312V3.84375C5.57812 3.32812 5.85938 3.04688 6.375 3ZM6.375 9.75C6.70312 9.75 6.97266 9.64453 7.18359 9.43359C7.39453 9.22266 7.5 8.95312 7.5 8.625C7.5 8.29688 7.39453 8.02734 7.18359 7.81641C6.97266 7.60547 6.70312 7.5 6.375 7.5C6.04688 7.5 5.77734 7.60547 5.56641 7.81641C5.35547 8.02734 5.25 8.29688 5.25 8.625C5.25 8.95312 5.35547 9.22266 5.56641 9.43359C5.77734 9.64453 6.04688 9.75 6.375 9.75ZM12 16.5C12.3281 16.5 12.5977 16.3945 12.8086 16.1836C13.0195 15.9727 13.125 15.7031 13.125 15.375C13.125 15.0469 13.0195 14.7773 12.8086 14.5664C12.5977 14.3555 12.3281 14.25 12 14.25C11.6719 14.25 11.4023 14.3555 11.1914 14.5664C10.9805 14.7773 10.875 15.0469 10.875 15.375C10.875 15.7031 10.9805 15.9727 11.1914 16.1836C11.4023 16.3945 11.6719 16.5 12 16.5ZM14.8125 15.375C14.8125 16.0078 14.625 16.5703 14.25 17.0625C13.8984 17.5312 13.4297 17.8594 12.8438 18.0469V20.1562C12.7969 20.6719 12.5156 20.9531 12 21C11.4844 20.9531 11.2031 20.6719 11.1562 20.1562V18.0469C10.5703 17.8594 10.1016 17.5312 9.75 17.0625C9.375 16.5703 9.1875 16.0078 9.1875 15.375C9.1875 14.7422 9.375 14.1797 9.75 13.6875C10.1016 13.2188 10.5703 12.8906 11.1562 12.7031V3.84375C11.2031 3.32812 11.4844 3.04688 12 3C12.5156 3.04688 12.7969 3.32812 12.8438 3.84375V12.7031C13.4297 12.8906 13.8984 13.2188 14.25 13.6875C14.625 14.1797 14.8125 14.7422 14.8125 15.375ZM18.75 9.75C18.75 9.42188 18.6445 9.15234 18.4336 8.94141C18.2227 8.73047 17.9531 8.625 17.625 8.625C17.2969 8.625 17.0273 8.73047 16.8164 8.94141C16.6055 9.15234 16.5 9.42188 16.5 9.75C16.5 10.0781 16.6055 10.3477 16.8164 10.5586C17.0273 10.7695 17.2969 10.875 17.625 10.875C17.9531 10.875 18.2227 10.7695 18.4336 10.5586C18.6445 10.3477 18.75 10.0781 18.75 9.75ZM18.4688 12.4219V20.1562C18.4219 20.6719 18.1406 20.9531 17.625 21C17.1094 20.9531 16.8281 20.6719 16.7812 20.1562V12.4219C16.1953 12.2344 15.7266 11.9062 15.375 11.4375C15 10.9453 14.8125 10.3828 14.8125 9.75C14.8125 9.11719 15 8.55469 15.375 8.0625C15.7266 7.59375 16.1953 7.26562 16.7812 7.07812V3.84375C16.8281 3.32812 17.1094 3.04688 17.625 3C18.1406 3.04688 18.4219 3.32812 18.4688 3.84375V7.07812C19.0547 7.26562 19.5234 7.59375 19.875 8.0625C20.25 8.55469 20.4375 9.11719 20.4375 9.75C20.4375 10.3828 20.25 10.9453 19.875 11.4375C19.5234 11.9062 19.0547 12.2344 18.4688 12.4219Z"/></svg>