<svg width="24" height="24" viewBox="0 0 24 24" xmlns="http://www.w3.org/2000/svg" fill="#cacaca"><path d="M4.5 8C4.54167 8.89583 4.90625 9.58333 5.59375 10.0625C5.01042 10.1667 4.46875 10.3542 3.96875 10.625C3.34375 9.89583 3.02083 9.02083 3 8C3.02083 6.875 3.40625 5.92708 4.15625 5.15625C4.92708 4.40625 5.875 4.02083 7 4C8.29167 4.04167 9.32292 4.53125 10.0938 5.46875C10.6771 5.15625 11.3125 5 12 5C12.7083 5 13.3438 5.16667 13.9062 5.5C14.4896 5.8125 14.9583 6.23958 15.3125 6.78125C14.9583 7.01042 14.6354 7.28125 14.3438 7.59375C14.1979 7.51042 14.0521 7.4375 13.9062 7.375C13.4271 6.8125 12.7917 6.52083 12 6.5C11.375 6.52083 10.8333 6.71875 10.375 7.09375C10.1875 7.23958 9.97917 7.29167 9.75 7.25C9.52083 7.20833 9.34375 7.08333 9.21875 6.875C9.01042 6.45833 8.70833 6.125 8.3125 5.875C7.9375 5.625 7.5 5.5 7 5.5C6.29167 5.52083 5.69792 5.76042 5.21875 6.21875C4.76042 6.69792 4.52083 7.29167 4.5 8ZM20.5 11C20.4792 10.2917 20.2292 9.69792 19.75 9.21875C19.2917 8.76042 18.7083 8.52083 18 8.5C17.375 8.52083 16.8438 8.70833 16.4062 9.0625C15.9479 9.4375 15.6562 9.91667 15.5312 10.5C15.4688 10.7708 15.3229 10.9583 15.0938 11.0625C14.7188 10.7708 14.3229 10.5417 13.9062 10.375C13.4271 9.8125 12.7917 9.52083 12 9.5C11.2083 9.52083 10.5729 9.8125 10.0938 10.375C9.82292 10.4792 9.5625 10.6146 9.3125 10.7812C9.02083 10.5938 8.70833 10.4375 8.375 10.3125C8.6875 9.625 9.16667 9.07292 9.8125 8.65625C10.4583 8.23958 11.1875 8.02083 12 8C13 8.02083 13.8542 8.33333 14.5625 8.9375C14.9167 8.35417 15.3958 7.88542 16 7.53125C16.6042 7.17708 17.2708 7 18 7C19.125 7.02083 20.0729 7.40625 20.8438 8.15625C21.5938 8.92708 21.9792 9.875 22 11C22 11.6667 21.8542 12.2812 21.5625 12.8438C21.2708 13.3854 20.875 13.8438 20.375 14.2188C20.125 13.7812 19.8021 13.3958 19.4062 13.0625C20.0938 12.5833 20.4583 11.8958 20.5 11ZM3.5 15.5C3.52083 16.3542 3.8125 17.0625 4.375 17.625C4.9375 18.1875 5.64583 18.4792 6.5 18.5H16.5C17.0625 18.4792 17.5312 18.2812 17.9062 17.9062C18.2812 17.5312 18.4792 17.0625 18.5 16.5C18.4792 15.9375 18.2812 15.4688 17.9062 15.0938C17.5312 14.7188 17.0625 14.5208 16.5 14.5C16.125 14.5 15.7917 14.5833 15.5 14.75C15.2917 14.875 15.0729 14.8958 14.8438 14.8125C14.6146 14.7083 14.4688 14.5417 14.4062 14.3125C14.2396 13.7708 13.9479 13.3333 13.5312 13C13.0938 12.6667 12.5833 12.5 12 12.5C11.1458 12.5208 10.4688 12.8646 9.96875 13.5312C9.82292 13.7188 9.63542 13.8229 9.40625 13.8438C9.15625 13.8438 8.95833 13.75 8.8125 13.5625C8.22917 12.875 7.45833 12.5208 6.5 12.5C5.64583 12.5208 4.9375 12.8125 4.375 13.375C3.8125 13.9375 3.52083 14.6458 3.5 15.5ZM6.5 11C7.60417 11.0208 8.55208 11.3542 9.34375 12C10.0729 11.3542 10.9583 11.0208 12 11C12.7708 11 13.4688 11.1979 14.0938 11.5938C14.7188 11.9688 15.1979 12.4792 15.5312 13.125C15.8438 13.0417 16.1667 13 16.5 13C17.5 13.0208 18.3229 13.3646 18.9688 14.0312C19.6354 14.6771 19.9792 15.5 20 16.5C19.9792 17.5 19.6354 18.3229 18.9688 18.9688C18.3229 19.6354 17.5 19.9792 16.5 20H6.5C5.22917 19.9583 4.16667 19.5208 3.3125 18.6875C2.47917 17.8333 2.04167 16.7708 2 15.5C2.04167 14.2292 2.47917 13.1667 3.3125 12.3125C4.16667 11.4792 5.22917 11.0417 6.5 11Z"/></svg>