<svg width="24" height="24" viewBox="0 0 24 24" xmlns="http://www.w3.org/2000/svg" fill="#cacaca"><path d="M12 4C12.4583 4.04167 12.7083 4.29167 12.75 4.75V6.1875L13.4688 5.46875C13.8229 5.17708 14.1771 5.17708 14.5312 5.46875C14.8229 5.82292 14.8229 6.17708 14.5312 6.53125L12.75 8.3125V10.7188L14.8125 9.5L15.4688 7.09375C15.6354 6.65625 15.9375 6.47917 16.375 6.5625C16.8125 6.70833 16.9896 7.01042 16.9062 7.46875L16.6562 8.4375L17.8125 7.78125C18.2292 7.59375 18.5729 7.6875 18.8438 8.0625C19.0312 8.47917 18.9375 8.8125 18.5625 9.0625L17.4062 9.75L18.4062 10C18.8229 10.1667 19 10.4792 18.9375 10.9375C18.7708 11.3542 18.4583 11.5312 18 11.4688L15.5625 10.8125L13.5 12L15.5625 13.1875L18 12.5312C18.4583 12.4688 18.7604 12.6458 18.9062 13.0625C18.9896 13.5208 18.8125 13.8333 18.375 14L17.4062 14.25L18.5625 14.9375C18.9375 15.1875 19.0312 15.5208 18.8438 15.9375C18.5729 16.3125 18.2292 16.4062 17.8125 16.2188L16.6562 15.5625L16.9062 16.5312C16.9896 16.9896 16.8125 17.3021 16.375 17.4688C15.9375 17.5312 15.6354 17.3542 15.4688 16.9375L14.8125 14.5L12.75 13.3125V15.6875L14.5312 17.4688C14.8229 17.8229 14.8229 18.1771 14.5312 18.5312C14.1771 18.8229 13.8229 18.8229 13.4688 18.5312L12.75 17.8125V19.25C12.7083 19.7083 12.4583 19.9583 12 20C11.5417 19.9583 11.2917 19.7083 11.25 19.25V17.8125L10.5312 18.5312C10.1771 18.8229 9.82292 18.8229 9.46875 18.5312C9.17708 18.1771 9.17708 17.8229 9.46875 17.4688L11.25 15.6875V13.3125L9.1875 14.5L8.53125 16.9375C8.36458 17.3542 8.0625 17.5312 7.625 17.4688C7.1875 17.3021 7.01042 16.9896 7.09375 16.5312L7.34375 15.5625L6.1875 16.2188C5.77083 16.4062 5.42708 16.3125 5.15625 15.9375C4.96875 15.5208 5.0625 15.1875 5.4375 14.9375L6.59375 14.25L5.625 14C5.1875 13.8333 5.01042 13.5208 5.09375 13.0625C5.23958 12.6458 5.54167 12.4688 6 12.5312L8.4375 13.1875L10.5 12L8.4375 10.8125L6 11.4688C5.54167 11.5312 5.23958 11.3542 5.09375 10.9375C5.01042 10.4792 5.1875 10.1667 5.625 10L6.59375 9.75L5.4375 9.0625C5.0625 8.8125 4.96875 8.47917 5.15625 8.0625C5.42708 7.6875 5.77083 7.59375 6.1875 7.78125L7.34375 8.4375L7.09375 7.46875C7.01042 7.01042 7.1875 6.69792 7.625 6.53125C8.0625 6.46875 8.36458 6.64583 8.53125 7.0625L9.1875 9.5L11.25 10.6875V8.3125L9.46875 6.53125C9.17708 6.17708 9.17708 5.82292 9.46875 5.46875C9.82292 5.17708 10.1771 5.17708 10.5312 5.46875L11.25 6.1875V4.75C11.2917 4.29167 11.5417 4.04167 12 4Z"/></svg>