<svg width="24" height="24" viewBox="0 0 24 24" xmlns="http://www.w3.org/2000/svg" fill="#cacaca"><path d="M14.5312 5.98828L16.5 5.25L17.2383 3.28125C17.3086 3.09375 17.4375 3 17.625 3C17.8125 3 17.9414 3.09375 18.0117 3.28125L18.75 5.25L20.7539 5.98828C20.918 6.05859 21 6.1875 21 6.375C21 6.5625 20.918 6.69141 20.7539 6.76172L18.75 7.5L18.0117 9.50391C17.9414 9.66797 17.8125 9.75 17.625 9.75C17.4375 9.75 17.3086 9.66797 17.2383 9.50391L16.5 7.5L14.5312 6.76172C14.3438 6.69141 14.25 6.5625 14.25 6.375C14.25 6.1875 14.3438 6.05859 14.5312 5.98828ZM3.31641 11.4375L3.91406 11.1562L4.23047 11.0156L7.32422 9.57422L8.76562 6.48047L8.80078 6.44531L8.90625 6.16406L9.1875 5.56641C9.30469 5.35547 9.48047 5.25 9.71484 5.25C9.94922 5.25 10.1133 5.35547 10.207 5.56641L10.4883 6.16406L10.6289 6.48047L12.0703 9.57422L15.1641 11.0156L15.1992 11.0508L15.4805 11.1562L16.0781 11.4375C16.2891 11.5547 16.3945 11.7305 16.3945 11.9648C16.3945 12.1992 16.2891 12.3633 16.0781 12.457L15.4805 12.7383L15.1992 12.8789H15.1641L12.0703 14.3203L10.6289 17.4141V17.4492L10.4883 17.7305L10.207 18.3281C10.0898 18.5391 9.92578 18.6445 9.71484 18.6445C9.48047 18.6445 9.30469 18.5391 9.1875 18.3281L8.90625 17.7305L8.76562 17.4492V17.4141L7.32422 14.3203L4.23047 12.8789H4.19531L3.91406 12.7383L3.31641 12.457C3.10547 12.3633 3 12.1992 3 11.9648C3 11.7305 3.10547 11.5547 3.31641 11.4375ZM6.23438 11.9648L8.0625 12.7734C8.41406 12.9609 8.68359 13.2422 8.87109 13.6172L9.71484 15.4102L10.5234 13.6172C10.7109 13.2422 10.9922 12.9609 11.3672 12.7734L13.1602 11.9648L11.3672 11.1211C10.9922 10.9336 10.7109 10.6523 10.5234 10.2773L9.71484 8.48438L8.87109 10.2773C8.68359 10.6523 8.41406 10.9336 8.0625 11.1211L6.23438 11.9648ZM16.5 16.5L17.2383 14.5312C17.3086 14.3438 17.4375 14.25 17.625 14.25C17.8125 14.25 17.9414 14.3438 18.0117 14.5312L18.75 16.5L20.7539 17.2383C20.918 17.3086 21 17.4375 21 17.625C21 17.8125 20.918 17.9414 20.7539 18.0117L18.75 18.75L18.0117 20.7539C17.9414 20.918 17.8125 21 17.625 21C17.4375 21 17.3086 20.918 17.2383 20.7539L16.5 18.75L14.5312 18.0117C14.3438 17.9414 14.25 17.8125 14.25 17.625C14.25 17.4375 14.3438 17.3086 14.5312 17.2383L16.5 16.5Z"/></svg>