<svg width="24" height="24" viewBox="0 0 24 24" xmlns="http://www.w3.org/2000/svg" fill="#cacaca"><path d="M16.6667 4.6875H7.33333C6.96875 4.71094 6.77431 4.89844 6.75 5.25V18.75C6.77431 19.1016 6.96875 19.2891 7.33333 19.3125H16.6667C17.0312 19.2891 17.2257 19.1016 17.25 18.75V5.25C17.2257 4.89844 17.0312 4.71094 16.6667 4.6875ZM7.33333 3H16.6667C17.3229 3.02344 17.8698 3.24609 18.3073 3.66797C18.7448 4.08984 18.9757 4.61719 19 5.25V18.75C18.9757 19.3828 18.7448 19.9102 18.3073 20.332C17.8698 20.7539 17.3229 20.9766 16.6667 21H7.33333C6.67708 20.9766 6.13021 20.7539 5.69271 20.332C5.25521 19.9102 5.02431 19.3828 5 18.75V5.25C5.02431 4.61719 5.25521 4.08984 5.69271 3.66797C6.13021 3.24609 6.67708 3.02344 7.33333 3ZM13.4583 7.21875C13.434 7.75781 13.191 8.16797 12.7292 8.44922C12.2431 8.68359 11.7569 8.68359 11.2708 8.44922C10.809 8.16797 10.566 7.75781 10.5417 7.21875C10.566 6.67969 10.809 6.26953 11.2708 5.98828C11.7569 5.75391 12.2431 5.75391 12.7292 5.98828C13.191 6.26953 13.434 6.67969 13.4583 7.21875ZM12 18.1875C11.3194 18.1875 10.6875 18.0234 10.1042 17.6953C9.52083 17.3672 9.05903 16.9219 8.71875 16.3594C8.37847 15.7734 8.20833 15.1641 8.20833 14.5312C8.20833 13.8984 8.37847 13.2891 8.71875 12.7031C9.05903 12.1406 9.52083 11.6953 10.1042 11.3672C10.6875 11.0391 11.3194 10.875 12 10.875C12.6806 10.875 13.3125 11.0391 13.8958 11.3672C14.4792 11.6953 14.941 12.1406 15.2812 12.7031C15.6215 13.2891 15.7917 13.8984 15.7917 14.5312C15.7917 15.1641 15.6215 15.7734 15.2812 16.3594C14.941 16.9219 14.4792 17.3672 13.8958 17.6953C13.3125 18.0234 12.6806 18.1875 12 18.1875ZM9.95833 14.5312C9.98264 15.2812 10.3229 15.8438 10.9792 16.2188C11.6597 16.5938 12.3403 16.5938 13.0208 16.2188C13.6771 15.8438 14.0174 15.2812 14.0417 14.5312C14.0174 13.7812 13.6771 13.2188 13.0208 12.8438C12.3403 12.4688 11.6597 12.4688 10.9792 12.8438C10.3229 13.2188 9.98264 13.7812 9.95833 14.5312Z"/></svg>