<svg width="24" height="24" viewBox="0 0 24 24" xmlns="http://www.w3.org/2000/svg" fill="#cacaca"><path d="M12.0083 4.64049C11.7487 4.66471 11.6071 4.81001 11.5835 5.07639C11.6071 5.34277 11.7487 5.48807 12.0083 5.51229C12.2679 5.48807 12.4095 5.34277 12.4331 5.07639C12.4095 4.81001 12.2679 4.66471 12.0083 4.64049ZM10.1676 5.07639C10.1912 4.37411 10.498 3.82924 11.0879 3.44177C11.7015 3.10274 12.3151 3.10274 12.9287 3.44177C13.5186 3.82924 13.8254 4.37411 13.849 5.07639C13.8254 5.77867 13.5186 6.32354 12.9287 6.711C12.3151 7.05004 11.7015 7.05004 11.0879 6.711C10.498 6.32354 10.1912 5.77867 10.1676 5.07639ZM10.8756 19.0251C10.8756 18.6861 10.9817 18.4076 11.1941 18.1896C11.4065 17.9717 11.6779 17.8627 12.0083 17.8627C12.3387 17.8627 12.6101 17.9717 12.8225 18.1896C13.0348 18.4076 13.141 18.6861 13.141 19.0251C13.141 19.3641 13.0348 19.6426 12.8225 19.8606C12.6101 20.0785 12.3387 20.1875 12.0083 20.1875C11.6779 20.1875 11.4065 20.0785 11.1941 19.8606C10.9817 19.6426 10.8756 19.3641 10.8756 19.0251ZM19.9375 12.0507C19.9375 12.3898 19.8313 12.6683 19.6189 12.8862C19.4065 13.1042 19.1351 13.2131 18.8048 13.2131C18.4744 13.2131 18.203 13.1042 17.9906 12.8862C17.7782 12.6683 17.672 12.3898 17.672 12.0507C17.672 11.7117 17.7782 11.4332 17.9906 11.2153C18.203 10.9973 18.4744 10.8884 18.8048 10.8884C19.1351 10.8884 19.4065 10.9973 19.6189 11.2153C19.8313 11.4332 19.9375 11.7117 19.9375 12.0507ZM5.21184 10.7431C5.56582 10.7431 5.8608 10.8762 6.09679 11.1426C6.35638 11.3848 6.48617 11.6875 6.48617 12.0507C6.48617 12.414 6.35638 12.7167 6.09679 12.9589C5.8608 13.2252 5.56582 13.3584 5.21184 13.3584C4.85785 13.3584 4.56287 13.2252 4.32688 12.9589C4.06729 12.7167 3.9375 12.414 3.9375 12.0507C3.9375 11.6875 4.06729 11.3848 4.32688 11.1426C4.56287 10.8762 4.85785 10.7431 5.21184 10.7431ZM17.2118 7.54647C17.377 7.37696 17.436 7.18323 17.3888 6.96528C17.318 6.74733 17.1764 6.60203 16.964 6.52938C16.7517 6.48095 16.5747 6.54149 16.4331 6.711C16.2679 6.8563 16.2089 7.05004 16.2561 7.2922C16.3033 7.51015 16.4331 7.64334 16.6455 7.69177C16.8815 7.74021 17.0702 7.69177 17.2118 7.54647ZM18.203 5.69391C18.7222 6.25089 18.8992 6.90474 18.734 7.65545C18.5216 8.38194 18.0496 8.85417 17.318 9.07212C16.5865 9.26585 15.9493 9.09633 15.4065 8.56357C14.8874 8.00659 14.7222 7.35274 14.911 6.60203C15.1233 5.85132 15.5835 5.36699 16.2915 5.14904C17.023 4.97952 17.6602 5.16115 18.203 5.69391ZM6.41538 16.1554C6.62777 15.9375 6.88735 15.8285 7.19414 15.8285C7.50092 15.8285 7.77231 15.9375 8.0083 16.1554C8.22069 16.3976 8.32688 16.6761 8.32688 16.9909C8.32688 17.3057 8.22069 17.5721 8.0083 17.7901C7.77231 18.0322 7.50092 18.1533 7.19414 18.1533C6.88735 18.1533 6.62777 18.0322 6.41538 17.7901C6.17939 17.5721 6.06139 17.3057 6.06139 16.9909C6.06139 16.6761 6.17939 16.3976 6.41538 16.1554ZM17.6012 17.7901C17.3888 18.0322 17.1292 18.1533 16.8225 18.1533C16.5157 18.1533 16.2443 18.0322 16.0083 17.7901C15.7959 17.5721 15.6897 17.3057 15.6897 16.9909C15.6897 16.6761 15.7959 16.3976 16.0083 16.1554C16.2443 15.9375 16.5157 15.8285 16.8225 15.8285C17.1292 15.8285 17.3888 15.9375 17.6012 16.1554C17.8372 16.3976 17.9552 16.6761 17.9552 16.9909C17.9552 17.3057 17.8372 17.5721 17.6012 17.7901ZM7.40653 7.32853C7.47732 7.25588 7.50092 7.15901 7.47732 7.03793C7.45372 6.94106 7.38293 6.86841 7.26493 6.81998C7.17054 6.79576 7.08794 6.83209 7.01715 6.92895C6.92275 7.0016 6.88735 7.08636 6.91095 7.18323C6.95815 7.30431 7.02895 7.37696 7.12334 7.40118C7.24133 7.42539 7.33573 7.40118 7.40653 7.32853ZM8.39768 5.87553C8.84605 6.35986 8.99945 6.92895 8.85785 7.5828C8.66906 8.21243 8.26788 8.62411 7.65431 8.81784C7.01715 8.96314 6.46257 8.80573 5.9906 8.34562C5.56582 7.86129 5.42423 7.30431 5.56582 6.67468C5.75461 6.04505 6.15579 5.63337 6.76936 5.43964C7.38293 5.29434 7.9257 5.43964 8.39768 5.87553Z"/></svg>