<svg width="24" height="24" viewBox="0 0 24 24" xmlns="http://www.w3.org/2000/svg" fill="#cacaca"><path d="M13.125 4.375C13.125 4.70312 13.0195 4.97266 12.8086 5.18359C12.5977 5.39453 12.3281 5.5 12 5.5C11.6719 5.5 11.4023 5.39453 11.1914 5.18359C10.9805 4.97266 10.875 4.70312 10.875 4.375C10.875 4.04688 10.9805 3.77734 11.1914 3.56641C11.4023 3.35547 11.6719 3.25 12 3.25C12.3281 3.25 12.5977 3.35547 12.8086 3.56641C13.0195 3.77734 13.125 4.04688 13.125 4.375ZM13.125 20.125C13.125 20.4531 13.0195 20.7227 12.8086 20.9336C12.5977 21.1445 12.3281 21.25 12 21.25C11.6719 21.25 11.4023 21.1445 11.1914 20.9336C10.9805 20.7227 10.875 20.4531 10.875 20.125C10.875 19.7969 10.9805 19.5273 11.1914 19.3164C11.4023 19.1055 11.6719 19 12 19C12.3281 19 12.5977 19.1055 12.8086 19.3164C13.0195 19.5273 13.125 19.7969 13.125 20.125ZM18.75 12.25C18.75 11.9219 18.8555 11.6523 19.0664 11.4414C19.2773 11.2305 19.5469 11.125 19.875 11.125C20.2031 11.125 20.4727 11.2305 20.6836 11.4414C20.8945 11.6523 21 11.9219 21 12.25C21 12.5781 20.8945 12.8477 20.6836 13.0586C20.4727 13.2695 20.2031 13.375 19.875 13.375C19.5469 13.375 19.2773 13.2695 19.0664 13.0586C18.8555 12.8477 18.75 12.5781 18.75 12.25ZM4.125 13.375C3.79688 13.375 3.52734 13.2695 3.31641 13.0586C3.10547 12.8477 3 12.5781 3 12.25C3 11.9219 3.10547 11.6523 3.31641 11.4414C3.52734 11.2305 3.79688 11.125 4.125 11.125C4.45312 11.125 4.72266 11.2305 4.93359 11.4414C5.14453 11.6523 5.25 11.9219 5.25 12.25C5.25 12.5781 5.14453 12.8477 4.93359 13.0586C4.72266 13.2695 4.45312 13.375 4.125 13.375ZM5.63672 18.6133C5.42578 18.3789 5.32031 18.1094 5.32031 17.8047C5.32031 17.5234 5.42578 17.2656 5.63672 17.0312C5.87109 16.7969 6.14062 16.6797 6.44531 16.6797C6.72656 16.6797 6.98438 16.7969 7.21875 17.0312C7.45312 17.2656 7.57031 17.5234 7.57031 17.8047C7.57031 18.1094 7.45312 18.3789 7.21875 18.6133C6.98438 18.8242 6.72656 18.9297 6.44531 18.9297C6.14062 18.9297 5.87109 18.8242 5.63672 18.6133ZM16.7812 18.6133C16.4531 18.3086 16.3359 17.9453 16.4297 17.5234C16.5469 17.0781 16.8281 16.7969 17.2734 16.6797C17.6953 16.5859 18.0586 16.7031 18.3633 17.0312C18.668 17.3359 18.7852 17.6992 18.7148 18.1211C18.5742 18.543 18.293 18.8242 17.8711 18.9648C17.4492 19.0352 17.0859 18.918 16.7812 18.6133ZM5.63672 5.88672C5.87109 5.67578 6.14062 5.57031 6.44531 5.57031C6.72656 5.57031 6.98438 5.67578 7.21875 5.88672C7.45312 6.12109 7.57031 6.39062 7.57031 6.69531C7.57031 6.97656 7.45312 7.23438 7.21875 7.46875C6.98438 7.70312 6.72656 7.82031 6.44531 7.82031C6.14062 7.82031 5.87109 7.70312 5.63672 7.46875C5.42578 7.23438 5.32031 6.97656 5.32031 6.69531C5.32031 6.39062 5.42578 6.12109 5.63672 5.88672Z"/></svg>