<svg width="24" height="24" viewBox="0 0 24 24" fill="#cacaca" xmlns="http://www.w3.org/2000/svg">
<path d="M5.57143 5.17857C5.20982 5.17857 4.92857 5.5 4.92857 5.82143V18.6786C4.92857 19.0402 5.20982 19.3214 5.57143 19.3214H18.4286C18.7499 19.3214 19.0714 19.0402 19.0714 18.6786V5.82143C19.0714 5.5 18.7499 5.17857 18.4286 5.17857H5.57143ZM3 5.82143C3 4.41518 4.12501 3.25 5.57143 3.25H18.4286C19.8349 3.25 21 4.41518 21 5.82143V18.6786C21 20.125 19.8349 21.25 18.4286 21.25H5.57143C4.12501 21.25 3 20.125 3 18.6786V5.82143ZM6.85714 8.39286C6.85714 7.70982 7.41965 7.10714 8.14286 7.10714C8.8259 7.10714 9.42857 7.70982 9.42857 8.39286C9.42857 9.11607 8.8259 9.67857 8.14286 9.67857C7.41965 9.67857 6.85714 9.11607 6.85714 8.39286ZM11.0357 8.39286C11.0357 7.87054 11.4375 7.42857 12 7.42857H15.8571C16.3794 7.42857 16.8215 7.87054 16.8215 8.39286C16.8215 8.95536 16.3794 9.35714 15.8571 9.35714H12C11.4375 9.35714 11.0357 8.95536 11.0357 8.39286ZM11.0357 12.25C11.0357 11.7277 11.4375 11.2857 12 11.2857H15.8571C16.3794 11.2857 16.8215 11.7277 16.8215 12.25C16.8215 12.8125 16.3794 13.2143 15.8571 13.2143H12C11.4375 13.2143 11.0357 12.8125 11.0357 12.25ZM11.0357 16.1071C11.0357 15.5849 11.4375 15.1428 12 15.1428H15.8571C16.3794 15.1428 16.8215 15.5849 16.8215 16.1071C16.8215 16.6697 16.3794 17.0715 15.8571 17.0715H12C11.4375 17.0715 11.0357 16.6697 11.0357 16.1071ZM8.14286 13.5357C7.41965 13.5357 6.85714 12.9732 6.85714 12.25C6.85714 11.5669 7.41965 10.9643 8.14286 10.9643C8.8259 10.9643 9.42857 11.5669 9.42857 12.25C9.42857 12.9732 8.8259 13.5357 8.14286 13.5357ZM6.85714 16.1071C6.85714 15.4241 7.41965 14.8214 8.14286 14.8214C8.8259 14.8214 9.42857 15.4241 9.42857 16.1071C9.42857 16.8303 8.8259 17.3929 8.14286 17.3929C7.41965 17.3929 6.85714 16.8303 6.85714 16.1071Z"/>
</svg>
