<svg width="24" height="24" viewBox="0 0 24 24" xmlns="http://www.w3.org/2000/svg" fill="#cacaca"><path d="M12.8086 3.63281L14.3906 9.60938L20.3672 11.1914C20.7656 11.3086 20.9766 11.5781 21 12C20.9766 12.4219 20.7656 12.6914 20.3672 12.8086L14.3555 14.3906L12.8086 20.3672C12.6914 20.7656 12.4219 20.9766 12 21C11.5781 20.9766 11.3086 20.7656 11.1914 20.3672L9.60938 14.3906L3.63281 12.8086C3.23438 12.6914 3.02344 12.4219 3 12C3.02344 11.5781 3.23438 11.3086 3.63281 11.1914L9.60938 9.60938L11.1914 3.63281C11.3086 3.23438 11.5781 3.02344 12 3C12.4219 3.02344 12.6914 3.23438 12.8086 3.63281ZM11.1211 10.5234C11.0273 10.8281 10.8281 11.0273 10.5234 11.1211L7.18359 12L10.5234 12.8789C10.8281 12.9727 11.0273 13.1719 11.1211 13.4766L12 16.8164L12.8789 13.4766C12.9727 13.1719 13.1719 12.9727 13.4766 12.8789L16.8164 12L13.4766 11.1211C13.1719 11.0273 12.9727 10.8281 12.8789 10.5234L12 7.18359L11.1211 10.5234ZM5.49609 5.49609C5.89453 5.16797 6.29297 5.16797 6.69141 5.49609L8.37891 7.18359C8.70703 7.58203 8.70703 7.98047 8.37891 8.37891C7.98047 8.70703 7.58203 8.70703 7.18359 8.37891L5.49609 6.69141C5.16797 6.29297 5.16797 5.89453 5.49609 5.49609ZM18.5039 5.49609C18.832 5.89453 18.832 6.29297 18.5039 6.69141L16.8164 8.37891C16.418 8.70703 16.0195 8.70703 15.6211 8.37891C15.293 7.98047 15.293 7.58203 15.6211 7.18359L17.3086 5.49609C17.707 5.16797 18.1055 5.16797 18.5039 5.49609ZM18.5039 17.3086C18.832 17.707 18.832 18.1055 18.5039 18.5039C18.1055 18.832 17.707 18.832 17.3086 18.5039L15.6211 16.8164C15.293 16.418 15.293 16.0195 15.6211 15.6211C16.0195 15.293 16.418 15.293 16.8164 15.6211L18.5039 17.3086ZM5.49609 18.5039C5.16797 18.1055 5.16797 17.707 5.49609 17.3086L7.18359 15.6211C7.58203 15.293 7.98047 15.293 8.37891 15.6211C8.70703 16.0195 8.70703 16.418 8.37891 16.8164L6.69141 18.5039C6.29297 18.832 5.89453 18.832 5.49609 18.5039Z"/></svg>