<svg width="24" height="24" viewBox="0 0 24 24" xmlns="http://www.w3.org/2000/svg" fill="#cacaca"><path d="M9.23621 4.62967C9.2618 3.93869 9.50492 3.36287 9.96557 2.90222C10.4262 2.44157 11.002 2.19844 11.693 2.17285H12.3072C12.9982 2.19844 13.574 2.44157 14.0347 2.90222C14.4953 3.36287 14.7384 3.93869 14.764 4.62967V7.20164L16.9905 5.93485C17.6047 5.60215 18.2317 5.51258 18.8715 5.66613C19.5113 5.84528 20.0104 6.22915 20.3686 6.81777L20.6757 7.35519C21.0084 7.9694 21.0852 8.5964 20.9061 9.23619C20.7525 9.85039 20.3686 10.3366 19.7544 10.6949L17.528 12.0001L19.7544 13.3053C20.3686 13.6636 20.7525 14.1498 20.9061 14.764C21.0852 15.4038 21.0084 16.0308 20.6757 16.645L20.3686 17.1824C19.9848 17.7711 19.4857 18.1549 18.8715 18.3341C18.2317 18.4876 17.6047 18.3981 16.9905 18.0654L14.764 16.7986V19.3705C14.7384 20.0615 14.4953 20.6373 14.0347 21.098C13.574 21.5586 12.9982 21.8018 12.3072 21.8274H11.693C11.002 21.8018 10.4262 21.5586 9.96557 21.098C9.50492 20.6373 9.2618 20.0615 9.23621 19.3705V16.7986L7.00972 18.0654C6.39552 18.3981 5.76852 18.4876 5.12872 18.3341C4.51452 18.1549 4.01548 17.7711 3.6316 17.1824L3.3245 16.645C2.9918 16.0308 2.91503 15.4038 3.09417 14.764C3.24772 14.1498 3.6316 13.6636 4.2458 13.3053L6.47229 12.0001L4.2458 10.6949C3.6316 10.3366 3.24772 9.85039 3.09417 9.23619C2.91503 8.5964 2.9918 7.9694 3.3245 7.35519L3.6316 6.81777C4.01548 6.22915 4.51452 5.84528 5.12872 5.66613C5.76852 5.51258 6.39552 5.60215 7.00972 5.93485L9.23621 7.20164V4.62967ZM11.693 4.01546C11.3091 4.04105 11.1044 4.24579 11.0788 4.62967V8.81393C11.0788 9.17221 10.9253 9.44093 10.6182 9.62007C10.3111 9.77362 10.004 9.77362 9.69686 9.62007L6.08841 7.50874C5.73013 7.35519 5.44862 7.43197 5.24388 7.73907L4.93678 8.2765C4.78323 8.60919 4.86001 8.8907 5.16711 9.12103L8.77555 11.194C9.08266 11.3731 9.23621 11.6418 9.23621 12.0001C9.23621 12.3584 9.08266 12.6271 8.77555 12.8062L5.16711 14.8792C4.86001 15.1095 4.78323 15.391 4.93678 15.7237L5.24388 16.2611C5.44862 16.5682 5.73013 16.645 6.08841 16.4915L9.69686 14.3801C10.004 14.2266 10.3111 14.2266 10.6182 14.3801C10.9253 14.5849 11.0788 14.8536 11.0788 15.1863V19.3705C11.1044 19.7544 11.3091 19.9592 11.693 19.9848H12.3072C12.6911 19.9592 12.8958 19.7544 12.9214 19.3705V15.1863C12.9214 14.828 13.075 14.5593 13.3821 14.3801C13.6892 14.2266 13.9963 14.2266 14.3034 14.3801L17.9118 16.4915C18.2701 16.645 18.5516 16.5682 18.7564 16.2611L19.0635 15.7237C19.217 15.391 19.1402 15.1095 18.8331 14.8792L15.2247 12.8062C14.9176 12.6271 14.764 12.3584 14.764 12.0001C14.764 11.6418 14.9176 11.3731 15.2247 11.194L18.8331 9.12103C19.1402 8.8907 19.217 8.60919 19.0635 8.2765L18.7564 7.73907C18.5516 7.43197 18.2701 7.35519 17.9118 7.50874L14.3034 9.62007C13.9963 9.77362 13.6892 9.77362 13.3821 9.62007C13.075 9.41533 12.9214 9.14662 12.9214 8.81393V4.62967C12.8958 4.24579 12.6911 4.04105 12.3072 4.01546H11.693Z"/></svg>