<svg width="24" height="24" viewBox="0 0 24 24" xmlns="http://www.w3.org/2000/svg" fill="#cacaca"><path d="M12.7495 3.75338L15.0664 8.5576L20.2795 9.3072C20.6202 9.37534 20.8474 9.56842 20.9609 9.88643C21.0518 10.2044 20.9837 10.477 20.7565 10.7042L16.9745 14.4521L17.8603 19.7674C17.9058 20.0855 17.7922 20.3467 17.5196 20.5511C17.247 20.7555 16.9631 20.7783 16.6678 20.6193L11.9999 18.132L7.33195 20.6193C7.03665 20.7783 6.75272 20.7555 6.48014 20.5511C6.20756 20.3467 6.09398 20.0855 6.13941 19.7674L7.0253 14.4521L3.24325 10.7042C3.0161 10.477 2.94796 10.2044 3.03882 9.88643C3.15239 9.56842 3.37954 9.3867 3.72027 9.34127L8.93336 8.5576L11.2503 3.75338C11.4093 3.45809 11.6592 3.29908 11.9999 3.27637C12.3406 3.29908 12.5905 3.45809 12.7495 3.75338ZM11.9999 16.3943C12.1362 16.3943 12.2611 16.4283 12.3747 16.4965L15.9523 18.4045L15.2708 14.3158C15.2481 14.0433 15.3276 13.8048 15.5093 13.6003L18.4396 10.7042L14.419 10.1249C14.1237 10.0568 13.9193 9.89778 13.8057 9.64792L11.9999 5.96809V16.3943Z"/></svg>