<svg width="24" height="24" viewBox="0 0 24 24" xmlns="http://www.w3.org/2000/svg" fill="#cacaca"><path d="M11.9999 3.27295C12.3406 3.29566 12.5905 3.45467 12.7495 3.74996L15.0664 8.55418L20.2795 9.30378C20.6202 9.37192 20.8474 9.565 20.9609 9.88301C21.0518 10.201 20.9837 10.4736 20.7565 10.7007L16.9745 14.4487L17.8603 19.764C17.9058 20.082 17.7922 20.3546 17.5196 20.5818C17.247 20.7635 16.9631 20.7748 16.6678 20.6158L11.9999 18.1285L7.33195 20.6158C7.03665 20.7748 6.75272 20.7521 6.48014 20.5477C6.20756 20.3433 6.09398 20.082 6.13941 19.764L7.0253 14.4487L3.24325 10.7007C3.0161 10.4736 2.94796 10.201 3.03882 9.88301C3.15239 9.565 3.37954 9.37192 3.72027 9.30378L8.93336 8.55418L11.2503 3.74996C11.4093 3.45467 11.6592 3.29566 11.9999 3.27295ZM11.9999 5.96467L10.194 9.6445C10.0805 9.89437 9.87603 10.0534 9.58073 10.1215L5.56018 10.7007L8.49041 13.5969C8.67213 13.8013 8.75164 14.0398 8.72892 14.3124L8.0134 18.4011L11.6251 16.4931C11.8749 16.3568 12.1248 16.3568 12.3747 16.4931L15.9523 18.4011L15.2708 14.3124C15.2254 14.0398 15.3049 13.8013 15.5093 13.5969L18.4396 10.7007L14.419 10.1215C14.1237 10.0534 13.9193 9.89437 13.8057 9.6445L11.9999 5.96467Z"/></svg>