<svg width="24" height="24" viewBox="0 0 24 24" xmlns="http://www.w3.org/2000/svg" fill="#cacaca"><path d="M17.3333 6H6.66667C6.25 6.02778 6.02778 6.25 6 6.66667V17.3333C6.02778 17.75 6.25 17.9722 6.66667 18H17.3333C17.75 17.9722 17.9722 17.75 18 17.3333V6.66667C17.9722 6.25 17.75 6.02778 17.3333 6ZM6.66667 4H17.3333C18.0833 4.02778 18.7083 4.29167 19.2083 4.79167C19.7083 5.29167 19.9722 5.91667 20 6.66667V17.3333C19.9722 18.0833 19.7083 18.7083 19.2083 19.2083C18.7083 19.7083 18.0833 19.9722 17.3333 20H6.66667C5.91667 19.9722 5.29167 19.7083 4.79167 19.2083C4.29167 18.7083 4.02778 18.0833 4 17.3333V6.66667C4.02778 5.91667 4.29167 5.29167 4.79167 4.79167C5.29167 4.29167 5.91667 4.02778 6.66667 4Z"/></svg>