<svg width="24" height="24" viewBox="0 0 24 24" xmlns="http://www.w3.org/2000/svg" fill="#cacaca"><path d="M5 6.5C4.6875 6.52083 4.52083 6.6875 4.5 7V17C4.52083 17.3125 4.6875 17.4792 5 17.5H19C19.3125 17.4792 19.4792 17.3125 19.5 17V7C19.4792 6.6875 19.3125 6.52083 19 6.5H5ZM3 7C3.02083 6.4375 3.21875 5.96875 3.59375 5.59375C3.96875 5.21875 4.4375 5.02083 5 5H19C19.5625 5.02083 20.0312 5.21875 20.4062 5.59375C20.7812 5.96875 20.9792 6.4375 21 7V17C20.9792 17.5625 20.7812 18.0312 20.4062 18.4062C20.0312 18.7812 19.5625 18.9792 19 19H5C4.4375 18.9792 3.96875 18.7812 3.59375 18.4062C3.21875 18.0312 3.02083 17.5625 3 17V7ZM6.75 11.5H12.25C12.7083 11.5417 12.9583 11.7917 13 12.25C12.9583 12.7083 12.7083 12.9583 12.25 13H6.75C6.29167 12.9583 6.04167 12.7083 6 12.25C6.04167 11.7917 6.29167 11.5417 6.75 11.5ZM14.75 11.5H17.25C17.7083 11.5417 17.9583 11.7917 18 12.25C17.9583 12.7083 17.7083 12.9583 17.25 13H14.75C14.2917 12.9583 14.0417 12.7083 14 12.25C14.0417 11.7917 14.2917 11.5417 14.75 11.5ZM6.75 14.5H9.25C9.70833 14.5417 9.95833 14.7917 10 15.25C9.95833 15.7083 9.70833 15.9583 9.25 16H6.75C6.29167 15.9583 6.04167 15.7083 6 15.25C6.04167 14.7917 6.29167 14.5417 6.75 14.5ZM11.75 14.5H17.25C17.7083 14.5417 17.9583 14.7917 18 15.25C17.9583 15.7083 17.7083 15.9583 17.25 16H11.75C11.2917 15.9583 11.0417 15.7083 11 15.25C11.0417 14.7917 11.2917 14.5417 11.75 14.5Z"/></svg>