<svg width="24" height="24" viewBox="0 0 24 24" xmlns="http://www.w3.org/2000/svg" fill="#cacaca"><path d="M3.22267 4.16062L4.40964 5.0976C4.59705 5.03514 4.79488 5.0039 5.00312 5.0039H18.9969C19.5591 5.02473 20.0277 5.22253 20.4025 5.59732C20.7773 5.97211 20.9752 6.4406 20.996 7.00279V16.9972C20.996 17.3304 20.9231 17.6427 20.7773 17.9342L21.7144 18.6525C22.0476 18.9649 22.0892 19.3188 21.8394 19.7144C21.527 20.0476 21.173 20.0892 20.7773 19.8394L2.28559 5.34746C1.9524 5.03514 1.91075 4.68117 2.16064 4.28555C2.473 3.95241 2.82701 3.91076 3.22267 4.16062ZM6.19009 6.50307L14.2802 12.812C14.0928 12.6663 13.9991 12.4789 13.9991 12.2499C14.0408 11.7918 14.2906 11.5419 14.7488 11.5003H17.2477C17.7058 11.5419 17.9557 11.7918 17.9973 12.2499C17.9557 12.7079 17.7058 12.9578 17.2477 12.9994H14.7488C14.5822 12.9994 14.4364 12.9474 14.3115 12.8433L16.4043 14.4986H17.2477C17.7058 14.5402 17.9557 14.7901 17.9973 15.2482C17.9973 15.3939 17.9557 15.5293 17.8724 15.6542L19.4967 16.9347V7.00279C19.4758 6.69046 19.3092 6.52389 18.9969 6.50307H6.19009ZM17.2164 18.9961H5.00312C4.44087 18.9753 3.97233 18.7775 3.5975 18.4027C3.22267 18.0279 3.02484 17.5594 3.00402 16.9972V7.7836L4.50335 8.97044V16.9972C4.52417 17.3095 4.69076 17.4761 5.00312 17.4969H15.3423L17.2164 18.9961ZM13.4369 15.9978H11.7501C11.292 15.9561 11.0421 15.7063 11.0004 15.2482C11.0213 14.8734 11.2087 14.6339 11.5627 14.5298L13.4369 15.9978ZM9.62606 12.9994H6.75234C6.29421 12.9578 6.04433 12.7079 6.00268 12.2499C6.04433 11.7918 6.29421 11.5419 6.75234 11.5003H7.72066L9.62606 12.9994ZM6.75234 14.4986H9.25123C9.70936 14.5402 9.95924 14.7901 10.0009 15.2482C9.95924 15.7063 9.70936 15.9561 9.25123 15.9978H6.75234C6.29421 15.9561 6.04433 15.7063 6.00268 15.2482C6.04433 14.7901 6.29421 14.5402 6.75234 14.4986Z"/></svg>