<svg width="24" height="24" viewBox="0 0 24 24" xmlns="http://www.w3.org/2000/svg" fill="#cacaca"><path d="M12.7724 4.53485V6.5942C12.7724 7.04468 12.4184 7.36646 12.0001 7.36646C11.5496 7.36646 11.2278 7.04468 11.2278 6.5942V4.53485C11.2278 4.11654 11.5496 3.76259 12.0001 3.76259C12.4184 3.76259 12.7724 4.11654 12.7724 4.53485ZM17.8242 7.26992L16.3441 8.75008C16.0545 9.03968 15.5718 9.03968 15.25 8.75008C14.9604 8.42831 14.9604 7.94565 15.25 7.65605L16.7302 6.17589C17.0198 5.8863 17.5024 5.8863 17.8242 6.17589C18.1138 6.49767 18.1138 6.98033 17.8242 7.26992ZM7.23785 6.17589L8.71801 7.65605C9.00761 7.94565 9.00761 8.42831 8.71801 8.75008C8.39624 9.03968 7.91358 9.03968 7.62398 8.75008L6.176 7.26992C5.85423 6.98033 5.85423 6.49767 6.176 6.17589C6.4656 5.8863 6.94826 5.8863 7.23785 6.17589ZM4.53495 11.2277H6.59431C7.01261 11.2277 7.36656 11.5817 7.36656 12C7.36656 12.4505 7.01261 12.7723 6.59431 12.7723H4.53495C4.08447 12.7723 3.7627 12.4505 3.7627 12C3.7627 11.5817 4.08447 11.2277 4.53495 11.2277ZM17.4059 11.2277H19.4653C19.8836 11.2277 20.2375 11.5817 20.2375 12C20.2375 12.4505 19.8836 12.7723 19.4653 12.7723H17.4059C16.9554 12.7723 16.6337 12.4505 16.6337 12C16.6337 11.5817 16.9554 11.2277 17.4059 11.2277ZM8.71801 16.3761L7.23785 17.8241C6.94826 18.1459 6.4656 18.1459 6.176 17.8241C5.85423 17.5345 5.85423 17.0519 6.176 16.7623L7.62398 15.2821C7.91358 14.9925 8.39624 14.9925 8.71801 15.2821C9.00761 15.6039 9.00761 16.0865 8.71801 16.3761ZM16.3441 15.2821L17.8242 16.7623C18.1138 17.0519 18.1138 17.5345 17.8242 17.8241C17.5024 18.1459 17.0198 18.1459 16.7302 17.8241L15.25 16.3761C14.9604 16.0865 14.9604 15.6039 15.25 15.2821C15.5718 14.9925 16.0545 14.9925 16.3441 15.2821ZM12.7724 17.4058V19.4652C12.7724 19.9156 12.4184 20.2374 12.0001 20.2374C11.5496 20.2374 11.2278 19.9156 11.2278 19.4652V17.4058C11.2278 16.9875 11.5496 16.6335 12.0001 16.6335C12.4184 16.6335 12.7724 16.9875 12.7724 17.4058ZM14.0595 12C14.0595 11.2921 13.6412 10.6164 13.0298 10.2302C12.3862 9.87629 11.5818 9.87629 10.9704 10.2302C10.3269 10.6164 9.94075 11.2921 9.94075 12C9.94075 12.7401 10.3269 13.4158 10.9704 13.8019C11.5818 14.1559 12.3862 14.1559 13.0298 13.8019C13.6412 13.4158 14.0595 12.7401 14.0595 12ZM8.39624 12C8.39624 10.7129 9.07196 9.55452 10.1982 8.91097C11.2922 8.23525 12.6758 8.23525 13.802 8.91097C14.8961 9.55452 15.604 10.7129 15.604 12C15.604 13.3193 14.8961 14.4777 13.802 15.1212C12.6758 15.7969 11.2922 15.7969 10.1982 15.1212C9.07196 14.4777 8.39624 13.3193 8.39624 12Z"/></svg>