<svg width="24" height="24" viewBox="0 0 24 24" xmlns="http://www.w3.org/2000/svg" fill="#cacaca"><path d="M3.8443 3H10.0314C10.547 3.04687 10.8282 3.3281 10.8751 3.84369C10.8282 4.35928 10.547 4.64051 10.0314 4.68738H3.8443C3.32871 4.64051 3.04748 4.35928 3.00061 3.84369C3.04748 3.3281 3.32871 3.04687 3.8443 3ZM3.8443 5.8123H10.0314C10.547 5.85918 10.8282 6.14041 10.8751 6.656C10.8282 7.17158 10.547 7.45281 10.0314 7.49969H7.78153V10.0308C7.73466 10.5463 7.45342 10.8276 6.93784 10.8745C6.42225 10.8276 6.14102 10.5463 6.09414 10.0308V7.49969H3.8443C3.32871 7.45281 3.04748 7.17158 3.00061 6.656C3.04748 6.14041 3.32871 5.85918 3.8443 5.8123ZM19.312 4.86315L15.3747 5.67169V10.312C15.3513 10.7807 15.1287 11.1791 14.7068 11.5072C14.285 11.8119 13.7577 11.9759 13.1249 11.9994C12.4921 11.9759 11.9648 11.8119 11.543 11.5072C11.1211 11.1791 10.8985 10.7807 10.8751 10.312C10.8985 9.84327 11.1211 9.44486 11.543 9.11676C11.9648 8.81209 12.4921 8.64804 13.1249 8.62461C13.3124 8.62461 13.4999 8.64804 13.6874 8.69492V5.42561C13.6874 5.07407 13.7928 4.78113 14.0037 4.54677C14.2147 4.28897 14.4842 4.12492 14.8123 4.05461L19.312 3.14062C19.7573 3.07031 20.1439 3.17577 20.472 3.457C20.8001 3.71479 20.9759 4.07805 20.9994 4.54677V9.18707C20.9759 9.65579 20.7533 10.0542 20.3314 10.3823C19.9096 10.687 19.3823 10.851 18.7495 10.8745C18.1167 10.851 17.5894 10.687 17.1676 10.3823C16.7457 10.0542 16.5231 9.65579 16.4997 9.18707C16.5231 8.71835 16.7457 8.31994 17.1676 7.99184C17.5894 7.68717 18.1167 7.52312 18.7495 7.49969C18.937 7.49969 19.1245 7.52312 19.312 7.56999V4.86315ZM15.3747 14.2492C15.3747 14.5773 15.2693 14.8468 15.0584 15.0578C14.8474 15.2687 14.5779 15.3741 14.2498 15.3741C13.9217 15.3741 13.6522 15.2687 13.4413 15.0578C13.2304 14.8468 13.1249 14.5773 13.1249 14.2492C13.1249 13.9211 13.2304 13.6516 13.4413 13.4407C13.6522 13.2298 13.9217 13.1243 14.2498 13.1243C14.5779 13.1243 14.8474 13.2298 15.0584 13.4407C15.2693 13.6516 15.3747 13.9211 15.3747 14.2492ZM20.7533 13.3704C21.0814 13.7688 21.0814 14.1672 20.7533 14.5656L14.5662 20.7527C14.1678 21.0808 13.7694 21.0808 13.371 20.7527C13.0429 20.3543 13.0429 19.9558 13.371 19.5574L19.5581 13.3704C19.9565 13.0423 20.3549 13.0423 20.7533 13.3704ZM19.8744 20.9987C19.5463 20.9987 19.2768 20.8933 19.0659 20.6824C18.855 20.4714 18.7495 20.2019 18.7495 19.8738C18.7495 19.5457 18.855 19.2762 19.0659 19.0653C19.2768 18.8544 19.5463 18.7489 19.8744 18.7489C20.2025 18.7489 20.472 18.8544 20.683 19.0653C20.8939 19.2762 20.9994 19.5457 20.9994 19.8738C20.9994 20.2019 20.8939 20.4714 20.683 20.6824C20.472 20.8933 20.2025 20.9987 19.8744 20.9987ZM5.95353 11.9994H5.98868C6.66832 12.0228 7.21907 12.2572 7.64091 12.7024C8.08619 13.1477 8.32055 13.6985 8.34399 14.3547C8.32055 15.1046 8.01589 15.7257 7.42999 16.2178L7.14876 16.4288L8.06276 17.2724L9.50406 16.1124C9.92591 15.8311 10.3243 15.878 10.6993 16.253C10.9805 16.6748 10.9337 17.0732 10.5587 17.4482L9.36345 18.3974L10.5938 19.5223C10.9454 19.8973 10.9688 20.2957 10.6641 20.7175C10.2892 21.0691 9.89075 21.0925 9.46891 20.7878L8.0276 19.4871L6.72691 20.5066C6.30507 20.8347 5.83635 20.9987 5.32076 20.9987C4.66456 20.9753 4.11381 20.7527 3.66853 20.3308C3.24669 19.8855 3.02405 19.3465 3.00061 18.7137V18.6434C3.02405 17.8935 3.32871 17.2724 3.91461 16.7803L4.51222 16.3233L4.37161 16.1827C3.85602 15.6905 3.58651 15.0929 3.56307 14.3898C3.58651 13.7102 3.82087 13.1477 4.26615 12.7024C4.71143 12.2572 5.27389 12.0228 5.95353 11.9994ZM5.49653 14.9171L5.88322 15.2687L6.41053 14.882C6.57458 14.7414 6.65661 14.5656 6.65661 14.3547C6.60973 13.9563 6.38709 13.7336 5.98868 13.6868H5.95353C5.53168 13.7336 5.29733 13.968 5.25045 14.3898C5.25045 14.6008 5.33248 14.7765 5.49653 14.9171ZM4.93407 18.1161C4.77002 18.2567 4.68799 18.4325 4.68799 18.6434V18.7137C4.73486 19.0887 4.94579 19.2879 5.32076 19.3114C5.46138 19.3114 5.57856 19.2645 5.6723 19.1707L6.76207 18.3271L5.77776 17.4834L4.93407 18.1161Z"/></svg>