<svg width="24" height="24" viewBox="0 0 24 24" xmlns="http://www.w3.org/2000/svg" fill="#cacaca"><path d="M18 4.7998C17.9999 4.33134 17.6378 4 17.25 4H6.75C6.36221 4 6.0001 4.33134 6 4.7998V19.2002C6.0001 19.6687 6.36221 20 6.75 20H17.25C17.6378 20 17.9999 19.6687 18 19.2002V4.7998ZM12.0088 16.4004L12.1113 16.4053C12.6154 16.4566 13.0088 16.8827 13.0088 17.4004C13.0086 17.9179 12.6153 18.3432 12.1113 18.3945L12.0088 18.4004H12C11.4478 18.4004 11.0002 17.9525 11 17.4004C11 16.8481 11.4477 16.4004 12 16.4004H12.0088ZM20 19.2002C19.9999 20.7198 18.7951 22 17.25 22H6.75C5.20491 22 4.0001 20.7198 4 19.2002V4.7998C4.0001 3.28024 5.20491 2 6.75 2H17.25C18.7951 2 19.9999 3.28024 20 4.7998V19.2002Z"/></svg>