<svg width="24" height="24" viewBox="0 0 24 24" xmlns="http://www.w3.org/2000/svg" fill="#cacaca"><path d="M17.4844 6.48926C15.0586 4.06348 11.1562 4.06348 8.73047 6.48926L7.07812 8.1416L13.9336 14.9971C13.582 15.4893 13.3359 16.0518 13.1953 16.6494L6.02344 9.47754C5.88281 9.8291 5.8125 10.2158 5.8125 10.6025V10.6729C5.8125 11.4463 6.09375 12.1494 6.62109 12.6768C7.81641 13.8721 7.67578 15.8408 6.33984 16.8604L4.72266 18.0908L5.84766 19.2158L7.11328 17.6338C8.13281 16.2979 10.1016 16.1572 11.2969 17.3525L10.1016 18.5479L11.2969 17.3525C11.7891 17.8447 12.457 18.126 13.125 18.1611C13.2305 18.7588 13.4062 19.3564 13.6875 19.8486C13.582 19.8486 13.4766 19.8486 13.3711 19.8486H13.2656C12.1055 19.8486 10.9453 19.3916 10.1016 18.5479C9.64453 18.0557 8.83594 18.126 8.44922 18.6533L7.11328 20.376C6.79688 20.7627 6.33984 20.9736 5.88281 20.9736C5.46094 20.9736 5.07422 20.833 4.79297 20.5166L3.42188 19.1807C3.14062 18.8994 3 18.5127 3 18.0908C3 17.5986 3.21094 17.1768 3.59766 16.8604L5.32031 15.5244C5.84766 15.1377 5.88281 14.3291 5.42578 13.8721C4.58203 13.0283 4.125 11.8682 4.125 10.6729V10.6025C4.125 9.40723 4.58203 8.24707 5.42578 7.40332L7.53516 5.29395C10.6289 2.23535 15.5859 2.23535 18.6797 5.29395C21.0352 7.64941 21.5977 11.1299 20.332 14.0127C19.875 13.6963 19.3477 13.415 18.8203 13.2744C19.7695 11.0244 19.3125 8.31738 17.4844 6.48926ZM15.9375 17.5986C15.9375 18.2314 16.2539 18.7588 16.7812 19.0752C17.2734 19.3916 17.9414 19.3916 18.4688 19.0752C18.9609 18.7588 19.3125 18.2314 19.3125 17.5986C19.3125 17.001 18.9609 16.4736 18.4688 16.1572C17.9414 15.8408 17.2734 15.8408 16.7812 16.1572C16.2539 16.4736 15.9375 17.001 15.9375 17.5986ZM21 17.5986C21 18.8291 20.332 19.9189 19.3125 20.5518C18.2578 21.1494 16.957 21.1494 15.9375 20.5518C14.8828 19.9189 14.25 18.8291 14.25 17.5986C14.25 16.4033 14.8828 15.3135 15.9375 14.6807C16.957 14.083 18.2578 14.083 19.3125 14.6807C20.332 15.3135 21 16.4033 21 17.5986Z"/></svg>