<svg width="24" height="24" viewBox="0 0 24 24" xmlns="http://www.w3.org/2000/svg" fill="#cacaca"><path d="M3 11.2324V5.75391L3.00098 5.70312C3.03662 4.99297 3.29459 4.35198 3.78027 3.83008L3.83301 3.77832C4.35599 3.2938 4.9978 3.03641 5.70801 3.00098L5.75781 3H11.2129L11.3848 3.00391C12.2364 3.04318 12.9919 3.37608 13.6035 3.98633L20.0469 10.415L20.083 10.4531L20.293 10.7051C20.7512 11.3057 21 12.0009 21 12.7676C20.9999 13.5478 20.7551 14.2531 20.2822 14.8506L20.0664 15.0996C20.0602 15.1061 20.0533 15.1128 20.0469 15.1191L15.1406 20.0137C15.1348 20.0195 15.1291 20.0255 15.123 20.0312C14.4698 20.6504 13.6804 21 12.7871 21C11.935 21 11.178 20.6985 10.5557 20.1309L10.4336 20.0137L3.98926 13.585C3.34474 12.9419 3 12.1413 3 11.2324ZM5 11.2324C5 11.5899 5.11933 11.8866 5.40234 12.1689L11.8457 18.5977L11.9531 18.6963C12.2046 18.9083 12.4718 19 12.7871 19C13.1116 19 13.418 18.8875 13.7383 18.5869L18.6221 13.7148C18.8817 13.4384 18.9999 13.1389 19 12.7676C19 12.4303 18.8885 12.1196 18.6084 11.8047L12.1904 5.40234C11.9498 5.16227 11.6851 5.03406 11.3574 5.00586L11.2129 5H5.7998C5.55198 5.01368 5.37295 5.09003 5.21973 5.22266C5.08867 5.37444 5.01372 5.5513 5 5.79492V11.2324Z"/><path d="M9 8C9 8.55228 8.55228 9 8 9C7.44772 9 7 8.55228 7 8C7 7.44772 7.44772 7 8 7C8.55228 7 9 7.44772 9 8Z"/></svg>