<svg width="24" height="24" viewBox="0 0 24 24" xmlns="http://www.w3.org/2000/svg" fill="#cacaca"><path d="M11.6875 20.1055C11.6875 17.957 12.5078 15.8086 14.1484 14.168C15.7891 12.4883 17.9375 11.668 20.0859 11.668C19.9297 7.44922 16.5312 4.05078 12.3125 3.89453C12.3125 6.04297 11.4531 8.19141 9.8125 9.83203C8.17188 11.4727 6.02344 12.293 3.875 12.293C4.03125 16.5508 7.42969 19.9492 11.6875 20.1055ZM13.5625 19.9883C16.7656 19.3242 19.3438 16.7852 19.9688 13.543C18.3281 13.582 16.7266 14.2461 15.4766 15.4961C14.2266 16.7461 13.6016 18.3477 13.5625 19.9883ZM3.99219 10.418C5.63281 10.3789 7.27344 9.75391 8.48438 8.50391C9.73438 7.25391 10.3984 5.65234 10.4375 4.01172C7.19531 4.63672 4.65625 7.21484 3.99219 10.418ZM2 11.9805C2 8.42578 3.875 5.14453 7 3.34766C10.0859 1.55078 13.875 1.55078 17 3.34766C20.0859 5.14453 22 8.42578 22 11.9805C22 15.5742 20.0859 18.8555 17 20.6523C13.875 22.4492 10.0859 22.4492 7 20.6523C3.875 18.8555 2 15.5742 2 11.9805Z"/></svg>