<svg width="24" height="24" viewBox="0 0 24 24" xmlns="http://www.w3.org/2000/svg" fill="#cacaca"><path d="M3.5 8C3.45833 8.45833 3.20833 8.70833 2.75 8.75C2.29167 8.70833 2.04167 8.45833 2 8V6.25C2 5.89583 2.125 5.60417 2.375 5.375C2.60417 5.125 2.89583 5 3.25 5H12.75C13.1042 5 13.3958 5.125 13.625 5.375C13.875 5.60417 14 5.89583 14 6.25V8C13.9583 8.45833 13.7083 8.70833 13.25 8.75C12.7917 8.70833 12.5417 8.45833 12.5 8V6.5H8.75V17.5H10.25C10.7083 17.5417 10.9583 17.7917 11 18.25C10.9583 18.7083 10.7083 18.9583 10.25 19H5.75C5.29167 18.9583 5.04167 18.7083 5 18.25C5.04167 17.7917 5.29167 17.5417 5.75 17.5H7.25V6.5H3.5V8ZM13.25 13.25C13.2083 13.7083 12.9583 13.9583 12.5 14C12.0417 13.9583 11.7917 13.7083 11.75 13.25V12.25C11.75 11.8958 11.875 11.6042 12.125 11.375C12.3542 11.125 12.6458 11 13 11H20.75C21.1042 11 21.3958 11.125 21.625 11.375C21.875 11.6042 22 11.8958 22 12.25V13.25C21.9583 13.7083 21.7083 13.9583 21.25 14C20.7917 13.9583 20.5417 13.7083 20.5 13.25V12.5H17.75V17.5H18.75C19.2083 17.5417 19.4583 17.7917 19.5 18.25C19.4583 18.7083 19.2083 18.9583 18.75 19H15.25C14.7917 18.9583 14.5417 18.7083 14.5 18.25C14.5417 17.7917 14.7917 17.5417 15.25 17.5H16.25V12.5H13.25V13.25Z"/></svg>