<svg width="24" height="24" viewBox="0 0 24 24" xmlns="http://www.w3.org/2000/svg" fill="#cacaca"><path d="M6.5 6.5V8C6.45833 8.45833 6.20833 8.70833 5.75 8.75C5.29167 8.70833 5.04167 8.45833 5 8V6.25C5 5.89583 5.125 5.60417 5.375 5.375C5.60417 5.125 5.89583 5 6.25 5H17.75C18.1042 5 18.3958 5.125 18.625 5.375C18.875 5.60417 19 5.89583 19 6.25V8C18.9583 8.45833 18.7083 8.70833 18.25 8.75C17.7917 8.70833 17.5417 8.45833 17.5 8V6.5H12.75V17.5H14.25C14.7083 17.5417 14.9583 17.7917 15 18.25C14.9583 18.7083 14.7083 18.9583 14.25 19H9.75C9.29167 18.9583 9.04167 18.7083 9 18.25C9.04167 17.7917 9.29167 17.5417 9.75 17.5H11.25V6.5H6.5Z"/></svg>