<svg width="24" height="24" viewBox="0 0 24 24" xmlns="http://www.w3.org/2000/svg" fill="#cacaca"><path d="M14.3906 19.7711C13.6875 19.9586 13.043 19.8883 12.457 19.5602C11.8711 19.2321 11.4727 18.7281 11.2617 18.0485L11.0508 17.3453C10.9102 16.8766 10.6875 16.4664 10.3828 16.1149L8.55469 14.111C8.25 13.7125 8.27344 13.3258 8.625 12.9508C9.04688 12.6227 9.44531 12.6344 9.82031 12.986L11.6133 14.9899C12.1055 15.5289 12.457 16.1617 12.668 16.8883L12.8789 17.5914C13.0664 18.0602 13.418 18.2477 13.9336 18.1539C14.4023 17.9664 14.5898 17.6149 14.4961 17.0992L14.2852 16.3961C14.0977 15.693 13.793 15.0485 13.3711 14.4625C13.1836 14.1813 13.1602 13.8883 13.3008 13.5836C13.4648 13.3024 13.7109 13.15 14.0391 13.1266H18.75C19.1016 13.1031 19.2891 12.9156 19.3125 12.5641C19.2891 12.3063 19.1719 12.1305 18.9609 12.0367C18.6797 11.9196 18.5039 11.7203 18.4336 11.4391C18.3633 11.1578 18.4219 10.9117 18.6094 10.7008C18.7031 10.5836 18.75 10.4547 18.75 10.3141C18.7266 10.0094 18.5742 9.8219 18.293 9.75159C17.9883 9.68127 17.7773 9.50549 17.6602 9.22424C17.5664 8.91956 17.6133 8.65002 17.8008 8.41565C17.8711 8.3219 17.9062 8.20471 17.9062 8.06409C17.8828 7.80627 17.7656 7.63049 17.5547 7.53674C17.1094 7.32581 16.9336 6.98596 17.0273 6.51721C17.0508 6.47034 17.0625 6.42346 17.0625 6.37659C17.0391 6.02502 16.8516 5.83752 16.5 5.81409H13.0898C12.6211 5.81409 12.1992 5.94299 11.8242 6.20081L9.64453 7.64221C9.19922 7.87659 8.8125 7.79456 8.48438 7.39612C8.22656 6.95081 8.30859 6.56409 8.73047 6.23596L10.875 4.79456C11.5547 4.34924 12.293 4.12659 13.0898 4.12659H16.5C17.1328 4.15002 17.6602 4.36096 18.082 4.7594C18.5039 5.18127 18.7266 5.6969 18.75 6.30627C19.2891 6.75159 19.5703 7.33752 19.5938 8.06409C19.5938 8.22815 19.582 8.38049 19.5586 8.52112C20.1211 8.96643 20.4141 9.56409 20.4375 10.3141C20.4375 10.5485 20.4023 10.7711 20.332 10.9821C20.7539 11.4039 20.9766 11.9313 21 12.5641C20.9766 13.1969 20.7539 13.7242 20.332 14.1461C19.9102 14.568 19.3828 14.7906 18.75 14.8141H15.5156C15.6797 15.1891 15.8203 15.5641 15.9375 15.9391L16.1133 16.6422C16.3008 17.3453 16.2305 17.9899 15.9023 18.5758C15.5742 19.1617 15.0703 19.5602 14.3906 19.7711ZM4.125 16.5016C3.79688 16.5016 3.52734 16.3961 3.31641 16.1852C3.10547 15.9742 3 15.7047 3 15.3766V7.50159C3 7.17346 3.10547 6.90393 3.31641 6.69299C3.52734 6.48206 3.79688 6.37659 4.125 6.37659H6.375C6.70312 6.37659 6.97266 6.48206 7.18359 6.69299C7.39453 6.90393 7.5 7.17346 7.5 7.50159V15.3766C7.5 15.7047 7.39453 15.9742 7.18359 16.1852C6.97266 16.3961 6.70312 16.5016 6.375 16.5016H4.125Z"/></svg>