<svg width="24" height="24" viewBox="0 0 24 24" xmlns="http://www.w3.org/2000/svg" fill="#cacaca"><path d="M5 6H19C19.5625 6.02083 20.0312 6.21875 20.4062 6.59375C20.7812 6.96875 20.9792 7.4375 21 8V9.875C20.9792 10.2083 20.8125 10.4479 20.5 10.5938C19.875 10.8438 19.5417 11.3125 19.5 12C19.5417 12.6875 19.875 13.1562 20.5 13.4062C20.8125 13.5521 20.9792 13.7917 21 14.125V16C20.9792 16.5625 20.7812 17.0312 20.4062 17.4062C20.0312 17.7812 19.5625 17.9792 19 18H5C4.4375 17.9792 3.96875 17.7812 3.59375 17.4062C3.21875 17.0312 3.02083 16.5625 3 16V14.125C3.02083 13.7917 3.1875 13.5521 3.5 13.4062C4.125 13.1562 4.45833 12.6875 4.5 12C4.45833 11.3125 4.125 10.8438 3.5 10.5938C3.1875 10.4688 3.02083 10.2292 3 9.875V8C3.02083 7.4375 3.21875 6.96875 3.59375 6.59375C3.96875 6.21875 4.4375 6.02083 5 6ZM4.5 8V9.40625C4.95833 9.67708 5.32292 10.0312 5.59375 10.4688C5.86458 10.9271 6 11.4375 6 12C6 12.5625 5.86458 13.0729 5.59375 13.5312C5.32292 13.9688 4.95833 14.3229 4.5 14.5938V16C4.52083 16.3125 4.6875 16.4792 5 16.5H19C19.3125 16.4792 19.4792 16.3125 19.5 16V14.5938C19.0417 14.3229 18.6771 13.9688 18.4062 13.5312C18.1354 13.0729 18 12.5625 18 12C18 11.4375 18.1354 10.9271 18.4062 10.4688C18.6771 10.0312 19.0417 9.67708 19.5 9.40625V8C19.4792 7.6875 19.3125 7.52083 19 7.5H5C4.6875 7.52083 4.52083 7.6875 4.5 8ZM15.5 13.5V10.5H8.5V13.5H15.5ZM7 10C7 9.70833 7.09375 9.46875 7.28125 9.28125C7.46875 9.09375 7.70833 9 8 9H16C16.2917 9 16.5312 9.09375 16.7188 9.28125C16.9062 9.46875 17 9.70833 17 10V14C17 14.2917 16.9062 14.5312 16.7188 14.7188C16.5312 14.9062 16.2917 15 16 15H8C7.70833 15 7.46875 14.9062 7.28125 14.7188C7.09375 14.5312 7 14.2917 7 14V10Z"/></svg>