<svg width="24" height="24" viewBox="0 0 24 24" xmlns="http://www.w3.org/2000/svg" fill="#cacaca"><path d="M4 7.5C3.6875 7.52083 3.52083 7.6875 3.5 8V16C3.52083 16.3125 3.6875 16.4792 4 16.5H20C20.3125 16.4792 20.4792 16.3125 20.5 16V14.9062C19.8333 14.7188 19.2917 14.3646 18.875 13.8438C18.4792 13.3229 18.2708 12.7083 18.25 12C18.2708 11.2917 18.4792 10.6771 18.875 10.1562C19.2917 9.63542 19.8333 9.28125 20.5 9.09375V8C20.4792 7.6875 20.3125 7.52083 20 7.5H4ZM2 8C2.02083 7.4375 2.21875 6.96875 2.59375 6.59375C2.96875 6.21875 3.4375 6.02083 4 6H20C20.5625 6.02083 21.0312 6.21875 21.4062 6.59375C21.7812 6.96875 21.9792 7.4375 22 8V9.90625C22 10.0938 21.9167 10.2396 21.75 10.3438C21.6042 10.4479 21.4375 10.5 21.25 10.5C20.8333 10.5208 20.4792 10.6667 20.1875 10.9375C19.9167 11.2292 19.7708 11.5833 19.75 12C19.7708 12.4167 19.9167 12.7708 20.1875 13.0625C20.4792 13.3333 20.8333 13.4792 21.25 13.5C21.4375 13.5 21.6042 13.5521 21.75 13.6562C21.9167 13.7604 22 13.9062 22 14.0938V16C21.9792 16.5625 21.7812 17.0312 21.4062 17.4062C21.0312 17.7812 20.5625 17.9792 20 18H4C3.4375 17.9792 2.96875 17.7812 2.59375 17.4062C2.21875 17.0312 2.02083 16.5625 2 16V8ZM15.5 8.5C15.8125 8.52083 15.9792 8.6875 16 9C15.9792 9.3125 15.8125 9.47917 15.5 9.5C15.1875 9.47917 15.0208 9.3125 15 9C15.0208 8.6875 15.1875 8.52083 15.5 8.5ZM15.5 10.5C15.8125 10.5208 15.9792 10.6875 16 11C15.9792 11.3125 15.8125 11.4792 15.5 11.5C15.1875 11.4792 15.0208 11.3125 15 11C15.0208 10.6875 15.1875 10.5208 15.5 10.5ZM15 13C15.0208 12.6875 15.1875 12.5208 15.5 12.5C15.8125 12.5208 15.9792 12.6875 16 13C15.9792 13.3125 15.8125 13.4792 15.5 13.5C15.1875 13.4792 15.0208 13.3125 15 13ZM15.5 14.5C15.8125 14.5208 15.9792 14.6875 16 15C15.9792 15.3125 15.8125 15.4792 15.5 15.5C15.1875 15.4792 15.0208 15.3125 15 15C15.0208 14.6875 15.1875 14.5208 15.5 14.5ZM7.84375 11L7.125 8.84375C7.08333 8.63542 7.15625 8.52083 7.34375 8.5H8.3125C8.60417 8.5 8.82292 8.625 8.96875 8.875L10.2188 11H11.4688C11.9896 11 12.4375 11.1875 12.8125 11.5625C13.0625 11.8542 13.0625 12.1458 12.8125 12.4375C12.4375 12.8125 11.9896 13 11.4688 13H10.2188L8.96875 15.125C8.82292 15.375 8.60417 15.5 8.3125 15.5H7.34375C7.15625 15.4792 7.08333 15.375 7.125 15.1875L7.84375 13H6.5L5.90625 13.8125C5.80208 13.9375 5.66667 14 5.5 14H5.0625C4.875 13.9792 4.79167 13.875 4.8125 13.6875L5.21875 12.125C5.23958 12.0417 5.23958 11.9583 5.21875 11.875L4.84375 10.3125C4.82292 10.125 4.89583 10.0208 5.0625 10H5.5C5.66667 10 5.80208 10.0625 5.90625 10.1875L6.5 11H7.84375Z"/></svg>