<svg width="24" height="24" viewBox="0 0 24 24" xmlns="http://www.w3.org/2000/svg" fill="#cacaca"><path d="M8 6.5V11.5H10V11C10 10.7083 10.0938 10.4688 10.2812 10.2812C10.4688 10.0938 10.7083 10 11 10H13C13.2917 10 13.5312 10.0938 13.7188 10.2812C13.9062 10.4688 14 10.7083 14 11V11.5H16V6.5H8ZM4.5 9V11.5H6.5V6.5625C5.91667 6.6875 5.4375 6.96875 5.0625 7.40625C4.70833 7.84375 4.52083 8.375 4.5 9ZM4.5 17.5H6.5V13H4.5V17.5ZM16 13H14V14C14 14.2917 13.9062 14.5312 13.7188 14.7188C13.5312 14.9062 13.2917 15 13 15H11C10.7083 15 10.4688 14.9062 10.2812 14.7188C10.0938 14.5312 10 14.2917 10 14V13H8V17.5H16V13ZM19.5 17.5V13H17.5V17.5H19.5ZM19.5 9C19.4792 8.375 19.2917 7.84375 18.9375 7.40625C18.5625 6.96875 18.0833 6.6875 17.5 6.5625V11.5H19.5V9ZM7 5H17C18.125 5.02083 19.0729 5.40625 19.8438 6.15625C20.5938 6.92708 20.9792 7.875 21 9V17.5C20.9792 17.9167 20.8333 18.2708 20.5625 18.5625C20.2708 18.8333 19.9167 18.9792 19.5 19H4.5C4.08333 18.9792 3.72917 18.8333 3.4375 18.5625C3.16667 18.2708 3.02083 17.9167 3 17.5V9C3.02083 7.875 3.40625 6.92708 4.15625 6.15625C4.92708 5.40625 5.875 5.02083 7 5ZM12.5 12C12.4792 11.6875 12.3125 11.5208 12 11.5C11.6875 11.5208 11.5208 11.6875 11.5 12V13C11.5208 13.3125 11.6875 13.4792 12 13.5C12.3125 13.4792 12.4792 13.3125 12.5 13V12Z"/></svg>