<svg width="24" height="24" fill="#cacaca" xmlns="http://www.w3.org/2000/svg"><path d="M4.8 6.75v7.875h14.4V6.75H4.8zm-1.8 0c.019-.492.197-.902.534-1.23.338-.329.76-.502 1.266-.52h14.4c.506.018.928.191 1.266.52.337.328.515.738.534 1.23v7.875a1.744 1.744 0 01-.534 1.23c-.338.329-.76.502-1.266.52H4.8c-.506-.018-.928-.191-1.266-.52A1.744 1.744 0 013 14.625V6.75zm3.6 10.5h10.8a.89.89 0 01.647.246.84.84 0 01.253.629.84.84 0 01-.253.629.89.89 0 01-.647.246H6.6a.89.89 0 01-.647-.246.84.84 0 01-.253-.629.84.84 0 01.253-.629.89.89 0 01.647-.246z"/></svg>