<svg width="24" height="24" viewBox="0 0 24 24" xmlns="http://www.w3.org/2000/svg" fill="#cacaca"><path d="M19 9.59962C18.9998 9.26856 18.7315 9.00022 18.4004 9.00001H5.59961C5.26855 9.00022 5.00021 9.26856 5 9.59962V18.4004C5.00021 18.7315 5.26855 18.9998 5.59961 19H18.4004C18.7315 18.9998 18.9998 18.7315 19 18.4004V9.59962ZM21 18.4004C20.9998 19.836 19.836 20.9998 18.4004 21H5.59961C4.16398 20.9998 3.00021 19.836 3 18.4004V9.59962C3.00021 8.16399 4.16398 7.00022 5.59961 7.00001H9.58594L7.29297 4.70704L7.22461 4.63087C6.90426 4.2381 6.92685 3.65909 7.29297 3.29298C7.65908 2.92686 8.23809 2.90427 8.63086 3.22462L8.70703 3.29298L12 6.58595L15.293 3.29298L15.3691 3.22462C15.7619 2.90427 16.3409 2.92686 16.707 3.29298C17.0731 3.65909 17.0957 4.2381 16.7754 4.63087L16.707 4.70704L14.4141 7.00001H18.4004C19.836 7.00022 20.9998 8.16399 21 9.59962V18.4004Z"/></svg>