<svg width="24" height="24" viewBox="0 0 24 24" xmlns="http://www.w3.org/2000/svg" fill="#cacaca"><path d="M19.3125 12.25C19.3125 10.9141 18.9844 9.69531 18.3281 8.59375C17.6953 7.49219 16.8047 6.60156 15.6562 5.92188C14.5078 5.26562 13.2891 4.9375 12 4.9375C10.7109 4.9375 9.49219 5.26562 8.34375 5.92188C7.19531 6.60156 6.30469 7.49219 5.67188 8.59375C5.01562 9.69531 4.6875 10.9141 4.6875 12.25C4.6875 13.5859 5.01562 14.8047 5.67188 15.9062C6.30469 17.0078 7.19531 17.8984 8.34375 18.5781C9.49219 19.2344 10.7109 19.5625 12 19.5625C13.2891 19.5625 14.5078 19.2344 15.6562 18.5781C16.8047 17.8984 17.6953 17.0078 18.3281 15.9062C18.9844 14.8047 19.3125 13.5859 19.3125 12.25ZM3 12.25C3.02344 10.6094 3.42188 9.10938 4.19531 7.75C4.99219 6.39062 6.09375 5.28906 7.5 4.44531C8.92969 3.64844 10.4297 3.25 12 3.25C13.5703 3.25 15.0703 3.64844 16.5 4.44531C17.9062 5.28906 19.0078 6.39062 19.8047 7.75C20.5781 9.10938 20.9766 10.6094 21 12.25C20.9766 13.8906 20.5781 15.3906 19.8047 16.75C19.0078 18.1094 17.9062 19.2109 16.5 20.0547C15.0703 20.8516 13.5703 21.25 12 21.25C10.4297 21.25 8.92969 20.8516 7.5 20.0547C6.09375 19.2109 4.99219 18.1094 4.19531 16.75C3.42188 15.3906 3.02344 13.8906 3 12.25ZM8.69531 9.22656L9.08203 9.40234C10.0195 9.80078 10.9922 10 12 10C13.0078 10 13.9805 9.80078 14.918 9.40234L15.3398 9.22656C15.832 9.0625 16.1953 9.21484 16.4297 9.68359C16.5938 10.1758 16.4531 10.5391 16.0078 10.7734L15.5859 10.9492C14.9766 11.207 14.3438 11.3945 13.6875 11.5117V13.3047C13.6875 13.4453 13.7109 13.5859 13.7578 13.7266L14.7773 16.75C14.8945 17.2656 14.7188 17.6289 14.25 17.8398C13.7344 17.957 13.3711 17.7695 13.1602 17.2773L12.3164 14.7109C12.2695 14.5703 12.1641 14.5 12 14.5C11.8594 14.5 11.7539 14.5703 11.6836 14.7109L10.8398 17.2773C10.6289 17.7695 10.2773 17.957 9.78516 17.8398C9.29297 17.6289 9.10547 17.2656 9.22266 16.75L10.2422 13.7266C10.2891 13.5859 10.3125 13.4453 10.3125 13.3047V11.5117C9.65625 11.3945 9.03516 11.207 8.44922 10.9492L8.02734 10.7734C7.55859 10.5391 7.40625 10.1758 7.57031 9.68359C7.82812 9.21484 8.20312 9.0625 8.69531 9.22656ZM12 6.0625C12.5391 6.08594 12.9492 6.32031 13.2305 6.76562C13.4648 7.23438 13.4648 7.70312 13.2305 8.17188C12.9492 8.61719 12.5391 8.85156 12 8.875C11.4609 8.85156 11.0508 8.61719 10.7695 8.17188C10.5352 7.70312 10.5352 7.23438 10.7695 6.76562C11.0508 6.32031 11.4609 6.08594 12 6.0625Z"/></svg>