<svg width="20" height="18" viewBox="0 0 20 18" xmlns="http://www.w3.org/2000/svg" fill="#cacaca"><path d="M15.1875 1.6875C13.6055 1.6875 12.375 2.95312 12.375 4.5V6.75H13.5C14.7305 6.75 15.75 7.76953 15.75 9V15.75C15.75 17.0156 14.7305 18 13.5 18H2.25C0.984375 18 0 17.0156 0 15.75V9C0 7.76953 0.984375 6.75 2.25 6.75H10.6875V4.5C10.6875 2.03906 12.6914 0 15.1875 0C17.6484 0 19.6875 2.03906 19.6875 4.5V7.03125C19.6875 7.52344 19.3008 7.875 18.8438 7.875C18.3516 7.875 18 7.52344 18 7.03125V4.5C18 2.95312 16.7344 1.6875 15.1875 1.6875ZM13.5 8.4375H2.25C1.93359 8.4375 1.6875 8.71875 1.6875 9V15.75C1.6875 16.0664 1.93359 16.3125 2.25 16.3125H13.5C13.7812 16.3125 14.0625 16.0664 14.0625 15.75V9C14.0625 8.71875 13.7812 8.4375 13.5 8.4375ZM9 13.2188H6.75C6.25781 13.2188 5.90625 12.8672 5.90625 12.375C5.90625 11.918 6.25781 11.5312 6.75 11.5312H9C9.45703 11.5312 9.84375 11.918 9.84375 12.375C9.84375 12.8672 9.45703 13.2188 9 13.2188Z"/></svg>