<svg width="24" height="24" viewBox="0 0 24 24" xmlns="http://www.w3.org/2000/svg" fill="#cacaca"><path d="M10.9996 19.0012V14.3294L9.41558 15.8362L8.03765 14.387L11.3101 11.2756L11.3853 11.2112C11.7714 10.9102 12.3262 10.9316 12.688 11.2756L15.9605 14.387L16.0308 14.4612C16.3612 14.8457 16.3534 15.4257 15.9966 15.801C15.6398 16.1763 15.0604 16.214 14.6597 15.9036L14.5826 15.8362L12.9996 14.3303V19.0012C12.9996 19.5534 12.5517 20.001 11.9996 20.0012C11.4473 20.0012 10.9996 19.5535 10.9996 19.0012ZM9.26421 4.00611C10.396 3.96646 11.5243 4.17148 12.564 4.60669C13.6037 5.04196 14.531 5.69761 15.273 6.52759C15.84 7.16189 16.2866 7.88588 16.5953 8.66626H16.9087L17.1177 8.67115C18.1624 8.71308 19.1744 9.06294 20.0113 9.68189C20.9048 10.3428 21.551 11.2753 21.8355 12.3381C22.1202 13.4017 22.0237 14.5251 21.564 15.5276C21.1048 16.5289 20.3127 17.3459 19.3238 17.8586L19.23 17.9016C18.7588 18.0881 18.2134 17.8905 17.9752 17.4309C17.7212 16.9407 17.9127 16.3374 18.4029 16.0833L18.6236 15.9573C19.1236 15.6444 19.5118 15.2036 19.7457 14.6936C20.0123 14.1121 20.0664 13.4668 19.9029 12.8557C19.739 12.2437 19.363 11.6906 18.8218 11.2903C18.3475 10.9394 17.7725 10.7252 17.1675 10.677L16.9068 10.6663H15.8775C15.4263 10.6663 15.0301 10.3644 14.9117 9.92896C14.7056 9.17122 14.3208 8.4636 13.7818 7.8606C13.2424 7.25733 12.5626 6.77419 11.7916 6.45142C11.0204 6.1286 10.18 5.97551 9.33453 6.00513C8.48905 6.03476 7.66343 6.24602 6.92046 6.62134C6.17779 6.99656 5.53849 7.52448 5.04839 8.16236C4.55849 8.80005 4.22932 9.53172 4.08257 10.301C3.93591 11.0702 3.97456 11.8615 4.19585 12.6155C4.38962 13.2755 4.7204 13.8947 5.16949 14.4368L5.36871 14.6643L5.43414 14.7424C5.74024 15.1466 5.69625 15.7248 5.31695 16.0774C4.93762 16.4299 4.3579 16.4316 3.9771 16.0969L3.90386 16.0256L3.62847 15.7131C3.00925 14.9656 2.54863 14.1046 2.27691 13.179C1.96636 12.121 1.91245 11.0088 2.11871 9.92701C2.32493 8.84539 2.78542 7.82592 3.46246 6.94458C4.13939 6.06344 5.01464 5.34361 6.0191 4.83619C7.02328 4.32893 8.13263 4.0458 9.26421 4.00611ZM9.41558 15.8362C9.01544 16.2167 8.38309 16.201 8.0025 15.801C7.62193 15.4008 7.63741 14.7675 8.03765 14.387L9.41558 15.8362Z"/></svg>