<svg width="24" height="24" viewBox="0 0 24 24" xmlns="http://www.w3.org/2000/svg" fill="#cacaca"><path d="M23.7852 12.25C23.7852 12.3906 23.7148 12.4961 23.6445 12.5312L20.4805 14.3945C20.4453 14.4297 20.4102 14.4648 20.3398 14.4648C20.3047 14.4648 20.2344 14.4648 20.1641 14.4297C20.0938 14.3594 20.0234 14.2539 20.0234 14.1484V12.8828H11.6211C12.5352 14.2891 13.0625 16.6445 14.082 16.6445H15.0312V15.6953C15.0312 15.5195 15.1367 15.4141 15.3125 15.4141H18.4766C18.6523 15.4141 18.7578 15.5195 18.7578 15.6953V18.8594C18.7578 19.0352 18.6523 19.1406 18.4766 19.1406H15.3125C15.1367 19.1406 15.0312 19.0352 15.0312 18.8594V17.9102H14.082C11.4102 17.9102 11.2344 12.8828 9.6875 12.8828H6.17188C5.89062 13.9727 4.90625 14.7812 3.74609 14.7812C2.375 14.7812 1.25 13.6562 1.25 12.25C1.25 10.8789 2.375 9.75391 3.74609 9.75391C4.90625 9.75391 5.89062 10.5625 6.17188 11.6523C7.54297 11.6523 7.71875 11.9688 8.77344 9.50781C10.2148 6.37891 10.8477 6.625 12.6055 6.625C12.8867 5.88672 13.5547 5.39453 14.3984 5.39453C15.418 5.39453 16.2617 6.20312 16.2617 7.25781C16.2617 8.3125 15.418 9.15625 14.3984 9.15625C13.5547 9.15625 12.8867 8.62891 12.6055 7.89062H11.5859C10.5312 7.89062 10.0039 10.2461 9.125 11.6523H20.0234V10.3867C20.0234 10.2812 20.0938 10.1758 20.1992 10.1055C20.2695 10.0703 20.4102 10.0703 20.4805 10.1406L23.6445 12.0039C23.7148 12.0391 23.7852 12.1445 23.7852 12.25Z"/></svg>