<svg width="24" height="24" viewBox="0 0 24 24" xmlns="http://www.w3.org/2000/svg" fill="#cacaca"><path d="M9 10.5C9.9375 10.4792 10.6562 10.0625 11.1562 9.25C11.6146 8.41667 11.6146 7.58333 11.1562 6.75C10.6562 5.9375 9.9375 5.52083 9 5.5C8.0625 5.52083 7.34375 5.9375 6.84375 6.75C6.38542 7.58333 6.38542 8.41667 6.84375 9.25C7.34375 10.0625 8.0625 10.4792 9 10.5ZM9 4C9.72917 4 10.3958 4.17708 11 4.53125C11.6042 4.88542 12.0938 5.375 12.4688 6C12.8229 6.625 13 7.29167 13 8C13 8.70833 12.8229 9.375 12.4688 10C12.0938 10.625 11.6042 11.1146 11 11.4688C10.3958 11.8229 9.72917 12 9 12C8.27083 12 7.60417 11.8229 7 11.4688C6.39583 11.1146 5.90625 10.625 5.53125 10C5.17708 9.375 5 8.70833 5 8C5 7.29167 5.17708 6.625 5.53125 6C5.90625 5.375 6.39583 4.88542 7 4.53125C7.60417 4.17708 8.27083 4 9 4ZM3.53125 18.5H12.2188L12.0312 19.125C11.9688 19.4375 11.9896 19.7292 12.0938 20H2.9375C2.66667 20 2.44792 19.9062 2.28125 19.7188C2.09375 19.5521 2 19.3333 2 19.0625C2.04167 17.5 2.58333 16.1875 3.625 15.125C4.6875 14.0833 6 13.5417 7.5625 13.5H10.4375C11.9792 13.5417 13.2708 14.0625 14.3125 15.0625L13.25 16.125C12.4792 15.3958 11.5417 15.0208 10.4375 15H7.5625C6.52083 15.0208 5.63542 15.3542 4.90625 16C4.15625 16.6458 3.69792 17.4792 3.53125 18.5ZM21.1875 11.375L21.625 11.8125C21.875 12.0625 22 12.3542 22 12.6875C22 13.0208 21.875 13.3229 21.625 13.5938L20.7188 14.5L18.5 12.2812L19.4062 11.375C19.6771 11.125 19.9688 11 20.2812 11C20.6146 11 20.9167 11.125 21.1875 11.375ZM13.75 17.0312L17.7812 13L20 15.2188L15.9688 19.25C15.8438 19.375 15.6875 19.4583 15.5 19.5L13.625 19.9688C13.4375 20.0104 13.2812 19.9688 13.1562 19.8438C13.0312 19.7188 12.9792 19.5625 13 19.375L13.4688 17.5C13.5312 17.3125 13.625 17.1562 13.75 17.0312Z"/></svg>