<svg width="24" height="24" viewBox="0 0 24 24" xmlns="http://www.w3.org/2000/svg" fill="#cacaca"><path d="M12 10.3125C13.0547 10.2891 13.8633 9.82031 14.4258 8.90625C14.9414 7.96875 14.9414 7.03125 14.4258 6.09375C13.8633 5.17969 13.0547 4.71094 12 4.6875C10.9453 4.71094 10.1367 5.17969 9.57422 6.09375C9.05859 7.03125 9.05859 7.96875 9.57422 8.90625C10.1367 9.82031 10.9453 10.2891 12 10.3125ZM16.5 7.5C16.5 8.32031 16.3008 9.07031 15.9023 9.75C15.5039 10.4297 14.9531 10.9805 14.25 11.4023C13.5469 11.8008 12.7969 12 12 12C11.2031 12 10.4531 11.8008 9.75 11.4023C9.04688 10.9805 8.49609 10.4297 8.09766 9.75C7.69922 9.07031 7.5 8.32031 7.5 7.5C7.5 6.67969 7.69922 5.92969 8.09766 5.25C8.49609 4.57031 9.04688 4.01953 9.75 3.59766C10.4531 3.19922 11.2031 3 12 3C12.7969 3 13.5469 3.19922 14.25 3.59766C14.9531 4.01953 15.5039 4.57031 15.9023 5.25C16.3008 5.92969 16.5 6.67969 16.5 7.5ZM11.4727 15.6211L10.8398 14.5312C10.7227 14.3438 10.7109 14.1562 10.8047 13.9688C10.9219 13.8047 11.0859 13.7109 11.2969 13.6875H12.7031C12.9141 13.7109 13.0781 13.8047 13.1953 13.9688C13.2891 14.1562 13.2773 14.3438 13.1602 14.5312L12.5273 15.6211L13.0898 17.6953L14.6016 14.6367C14.7422 14.4023 14.9297 14.2969 15.1641 14.3203C16.5469 14.6016 17.6719 15.2461 18.5391 16.2539C19.4062 17.2617 19.8516 18.4805 19.875 19.9102C19.875 20.2148 19.7695 20.4727 19.5586 20.6836C19.3477 20.8945 19.0898 21 18.7852 21H5.21484C4.91016 21 4.65234 20.8945 4.44141 20.6836C4.23047 20.4727 4.125 20.2148 4.125 19.9102C4.14844 18.4805 4.59375 17.2617 5.46094 16.2539C6.32812 15.2461 7.45312 14.6016 8.83594 14.3203C9.07031 14.2969 9.24609 14.4023 9.36328 14.6367L10.9102 17.6953L11.4727 15.6211ZM8.30859 16.2188C7.65234 16.5 7.11328 16.9102 6.69141 17.4492C6.24609 17.9883 5.96484 18.6094 5.84766 19.3125H9.82031L8.30859 16.2188ZM14.1797 19.3125H18.1523C18.0352 18.6094 17.7539 17.9883 17.3086 17.4492C16.8867 16.9102 16.3594 16.5 15.7266 16.2188L14.1797 19.3125Z"/></svg>