<svg width="24" height="24" viewBox="0 0 24 24" xmlns="http://www.w3.org/2000/svg" fill="#cacaca"><path d="M18.4286 4.92857H5.57143C5.16964 4.95536 4.95536 5.16964 4.92857 5.57143V18.4286C4.95536 18.8304 5.16964 19.0446 5.57143 19.0714H5.61161C5.79911 17.7857 6.36161 16.7143 7.29911 15.8571C8.23661 15.0268 9.375 14.5982 10.7143 14.5714H13.2857C14.625 14.5982 15.7634 15.0268 16.7009 15.8571C17.6384 16.7143 18.2009 17.7857 18.3884 19.0714H18.4286C18.8304 19.0446 19.0446 18.8304 19.0714 18.4286V5.57143C19.0446 5.16964 18.8304 4.95536 18.4286 4.92857ZM16.4196 19.0714C16.2589 18.3214 15.8973 17.7054 15.3348 17.2232C14.7723 16.7679 14.0893 16.5268 13.2857 16.5H10.7143C9.91071 16.5268 9.22768 16.7679 8.66518 17.2232C8.10268 17.7054 7.74107 18.3214 7.58036 19.0714H16.4196ZM5.57143 3H18.4286C19.1518 3.02679 19.7545 3.28125 20.2366 3.76339C20.7188 4.24554 20.9732 4.84821 21 5.57143V18.4286C20.9732 19.1518 20.7188 19.7545 20.2366 20.2366C19.7545 20.7188 19.1518 20.9732 18.4286 21H5.57143C4.84821 20.9732 4.24554 20.7188 3.76339 20.2366C3.28125 19.7545 3.02679 19.1518 3 18.4286V5.57143C3.02679 4.84821 3.28125 4.24554 3.76339 3.76339C4.24554 3.28125 4.84821 3.02679 5.57143 3ZM12 11.3571C12.6161 11.3304 13.0848 11.0625 13.4062 10.5536C13.6741 10.0179 13.6741 9.48214 13.4062 8.94643C13.0848 8.4375 12.6161 8.16964 12 8.14286C11.3839 8.16964 10.9152 8.4375 10.5938 8.94643C10.3259 9.48214 10.3259 10.0179 10.5938 10.5536C10.9152 11.0625 11.3839 11.3304 12 11.3571ZM8.46429 9.75C8.51786 8.41071 9.10714 7.39286 10.2321 6.69643C11.4107 6.05357 12.5893 6.05357 13.7679 6.69643C14.8929 7.39286 15.4821 8.41071 15.5357 9.75C15.4821 11.0893 14.8929 12.1071 13.7679 12.8036C12.5893 13.4464 11.4107 13.4464 10.2321 12.8036C9.10714 12.1071 8.51786 11.0893 8.46429 9.75Z"/></svg>