<svg width="24" height="24" viewBox="0 0 24 24" xmlns="http://www.w3.org/2000/svg" fill="#cacaca"><path d="M12.1561 4.03125L18.4061 5.28125C18.7811 5.36458 18.979 5.60417 18.9998 6C18.979 6.39583 18.7811 6.64583 18.4061 6.75L12.1561 8C12.0519 8.02083 11.9478 8.02083 11.8436 8L6.49984 6.90625V8.9375L6.99984 11.4062C7.02067 11.5521 6.979 11.6875 6.87484 11.8125C6.77067 11.9375 6.64567 12 6.49984 12H5.49984C5.33317 12 5.20817 11.9375 5.12484 11.8125C5.02067 11.6875 4.979 11.5521 4.99984 11.4062L5.49984 8.9375V6.71875C5.18734 6.59375 5.02067 6.35417 4.99984 6C5.02067 5.60417 5.21859 5.36458 5.59359 5.28125L11.8436 4.03125C11.9478 4.01042 12.0519 4.01042 12.1561 4.03125ZM6.53109 18.5H11.0311C10.8436 18.3958 10.6665 18.25 10.4998 18.0625L8.53109 15.8438C7.98942 16.0938 7.55192 16.4479 7.21859 16.9062C6.86442 17.3646 6.63525 17.8958 6.53109 18.5ZM17.4686 18.5C17.3644 17.8958 17.1353 17.3646 16.7811 16.9062C16.4478 16.4479 16.0103 16.0938 15.4686 15.8438L13.4998 18.0625C13.3332 18.25 13.1561 18.3958 12.9686 18.5H17.4686ZM8.43734 14.25C8.7915 14.1667 9.104 14.2604 9.37484 14.5312L11.6248 17.0938C11.8748 17.3021 12.1248 17.3021 12.3748 17.0938L14.6248 14.5625C14.8957 14.2708 15.2082 14.1771 15.5623 14.2812C16.5832 14.6354 17.4061 15.2292 18.0311 16.0625C18.6561 16.9167 18.979 17.9062 18.9998 19.0312C18.9998 19.3021 18.9061 19.5312 18.7186 19.7188C18.5311 19.9062 18.3019 20 18.0311 20H5.96859C5.69775 20 5.46859 19.9062 5.28109 19.7188C5.09359 19.5312 4.99984 19.3021 4.99984 19.0312C5.02067 17.9062 5.34359 16.9167 5.96859 16.0625C6.59359 15.2083 7.4165 14.6042 8.43734 14.25ZM7.99984 9V8.25L9.49984 8.53125V9C9.52067 9.70833 9.76025 10.3021 10.2186 10.7812C10.6978 11.2396 11.2915 11.4792 11.9998 11.5C12.7082 11.4792 13.3019 11.2396 13.7811 10.7812C14.2394 10.3021 14.479 9.70833 14.4998 9V8.53125L15.9998 8.25V9C15.979 10.125 15.5936 11.0729 14.8436 11.8438C14.0728 12.5938 13.1248 12.9792 11.9998 13C10.8748 12.9792 9.92692 12.5938 9.15609 11.8438C8.40609 11.0729 8.02067 10.125 7.99984 9Z"/></svg>