<svg width="24" height="24" viewBox="0 0 24 24" xmlns="http://www.w3.org/2000/svg" fill="#cacaca"><path d="M13 14C13.5523 14 14 14.4477 14 15C14 15.5523 13.5523 16 13 16H8C6.34315 16 5 17.3431 5 19V20C5 20.5523 4.55228 21 4 21C3.44772 21 3 20.5523 3 20V19C3 16.2386 5.23858 14 8 14H13Z"/><path d="M20 12.8799C20.5522 12.8799 20.9999 13.3277 21 13.8799V15.8799H23L23.1025 15.8848C23.6066 15.9361 23.9999 16.3623 24 16.8799C24 17.3976 23.6067 17.8237 23.1025 17.875L23 17.8799H21V19.8799C21 20.4322 20.5523 20.8799 20 20.8799C19.4477 20.8799 19 20.4322 19 19.8799V17.8799H17C16.4477 17.8799 16 17.4322 16 16.8799C16.0001 16.3277 16.4478 15.8799 17 15.8799H19V13.8799C19.0001 13.3277 19.4478 12.8799 20 12.8799Z"/><path fill-rule="evenodd" clip-rule="evenodd" d="M12 3C14.7614 3 17 5.23858 17 8C17 10.7614 14.7614 13 12 13C9.23858 13 7 10.7614 7 8C7 5.23858 9.23858 3 12 3ZM12 5C10.3431 5 9 6.34315 9 8C9 9.65685 10.3431 11 12 11C13.6569 11 15 9.65685 15 8C15 6.34315 13.6569 5 12 5Z"/></svg>