<svg width="24" height="24" viewBox="0 0 24 24" xmlns="http://www.w3.org/2000/svg" fill="#cacaca"><path d="M12 4.125C10.4062 4.17188 9.08203 4.72266 8.02734 5.77734C6.97266 6.83203 6.42188 8.15625 6.375 9.75V10.3125C6.35156 10.6641 6.16406 10.8516 5.8125 10.875C5.46094 10.8516 5.27344 10.6641 5.25 10.3125V9.75C5.29688 7.82812 5.95312 6.23438 7.21875 4.96875C8.48438 3.70312 10.0781 3.04688 12 3C13.9219 3.04688 15.5156 3.70312 16.7812 4.96875C18.0469 6.23438 18.7031 7.82812 18.75 9.75V10.3125C18.7266 11.4375 18.3398 12.3633 17.5898 13.0898C16.8633 13.8398 15.9375 14.2266 14.8125 14.25H11.4375C11.1094 14.25 10.8398 14.1445 10.6289 13.9336C10.418 13.7227 10.3125 13.4531 10.3125 13.125C10.3125 12.7969 10.418 12.5273 10.6289 12.3164C10.8398 12.1055 11.1094 12 11.4375 12H12.5625C12.8906 12 13.1602 12.1055 13.3711 12.3164C13.582 12.5273 13.6875 12.7969 13.6875 13.125H14.8125C15.6094 13.1016 16.2773 12.832 16.8164 12.3164C17.332 11.7773 17.6016 11.1094 17.625 10.3125V9.75C17.5781 8.15625 17.0273 6.83203 15.9727 5.77734C14.918 4.72266 13.5938 4.17188 12 4.125ZM12 5.25C13.2656 5.27344 14.332 5.70703 15.1992 6.55078C16.043 7.41797 16.4766 8.48438 16.5 9.75C16.5 10.2422 16.4297 10.7109 16.2891 11.1562C15.9609 11.6953 15.4688 11.9766 14.8125 12H14.4961C14.4023 11.8359 14.2969 11.6836 14.1797 11.543C14.5781 11.0508 14.7891 10.4531 14.8125 9.75C14.7891 8.95312 14.5195 8.28516 14.0039 7.74609C13.4648 7.23047 12.7969 6.96094 12 6.9375C11.2031 6.96094 10.5352 7.23047 9.99609 7.74609C9.48047 8.28516 9.21094 8.95312 9.1875 9.75C9.21094 10.4531 9.42188 11.0508 9.82031 11.543C9.42188 11.9648 9.21094 12.4922 9.1875 13.125C9.1875 13.1719 9.1875 13.2188 9.1875 13.2656C8.10938 12.3984 7.54688 11.2266 7.5 9.75C7.52344 8.48438 7.95703 7.41797 8.80078 6.55078C9.66797 5.70703 10.7344 5.27344 12 5.25ZM11.4375 15.375H15.1641C16.5 15.3984 17.6133 15.8555 18.5039 16.7461C19.3945 17.6367 19.8516 18.75 19.875 20.0859C19.8281 20.6484 19.5234 20.9531 18.9609 21H5.03906C4.47656 20.9531 4.17188 20.6484 4.125 20.0859C4.14844 18.75 4.60547 17.6367 5.49609 16.7461C6.38672 15.8555 7.5 15.3984 8.83594 15.375H11.4375ZM15.1641 17.0625H8.83594C8.13281 17.0859 7.51172 17.2969 6.97266 17.6953C6.45703 18.1172 6.10547 18.6562 5.91797 19.3125H18.082C17.8945 18.6562 17.543 18.1172 17.0273 17.6953C16.4883 17.2969 15.8672 17.0859 15.1641 17.0625Z"/></svg>