<svg width="24" height="24" viewBox="0 0 24 24" xmlns="http://www.w3.org/2000/svg" fill="#cacaca"><path d="M17.8984 17.625C19.3307 16.1146 20.0729 14.2396 20.125 12C20.0729 9.70833 19.2786 7.79427 17.7422 6.25781C16.2057 4.72135 14.2917 3.92708 12 3.875C9.70833 3.92708 7.79427 4.72135 6.25781 6.25781C4.72135 7.79427 3.92708 9.70833 3.875 12C3.92708 14.2396 4.68229 16.1146 6.14062 17.625C6.50521 16.6875 7.10417 15.9323 7.9375 15.3594C8.74479 14.8125 9.68229 14.526 10.75 14.5H13.25C14.3177 14.526 15.2552 14.8125 16.0625 15.3594C16.8958 15.9323 17.5078 16.6875 17.8984 17.625ZM16.2969 18.875H16.3359C16.1536 18.1458 15.7891 17.5469 15.2422 17.0781C14.6953 16.6354 14.0313 16.401 13.25 16.375H10.75C9.96875 16.401 9.30469 16.6354 8.75781 17.0781C8.21094 17.5469 7.85938 18.1458 7.70313 18.875C8.95313 19.6823 10.3854 20.099 12 20.125C13.6146 20.099 15.0469 19.6823 16.2969 18.875ZM12 22C10.1771 21.974 8.51042 21.5312 7 20.6719C5.48958 19.7865 4.26562 18.5625 3.32813 17C2.44271 15.4115 2 13.7448 2 12C2 10.2552 2.44271 8.58854 3.32813 7C4.26562 5.4375 5.48958 4.21354 7 3.32813C8.51042 2.46875 10.1771 2.02604 12 2C13.8229 2.02604 15.4896 2.46875 17 3.32813C18.5104 4.21354 19.7344 5.4375 20.6719 7C21.5573 8.58854 22 10.2552 22 12C22 13.7448 21.5573 15.4115 20.6719 17C19.7344 18.5625 18.5104 19.7865 17 20.6719C15.4896 21.5312 13.8229 21.974 12 22ZM12 11.375C12.599 11.349 13.0547 11.0885 13.3672 10.5938C13.6276 10.0729 13.6276 9.55208 13.3672 9.03125C13.0547 8.53646 12.599 8.27604 12 8.25C11.401 8.27604 10.9453 8.53646 10.6328 9.03125C10.3724 9.55208 10.3724 10.0729 10.6328 10.5938C10.9453 11.0885 11.401 11.349 12 11.375ZM8.5625 9.8125C8.61458 8.51042 9.1875 7.52083 10.2812 6.84375C11.4271 6.21875 12.5729 6.21875 13.7188 6.84375C14.8125 7.52083 15.3854 8.51042 15.4375 9.8125C15.3854 11.1146 14.8125 12.1042 13.7188 12.7813C12.5729 13.4063 11.4271 13.4063 10.2812 12.7813C9.1875 12.1042 8.61458 11.1146 8.5625 9.8125Z"/></svg>