<svg width="24" height="24" viewBox="0 0 24 24" xmlns="http://www.w3.org/2000/svg" fill="#cacaca"><path d="M7.5 9.1875C7.5 10.0078 7.69922 10.7578 8.09766 11.4375C8.49609 12.1172 9.04688 12.668 9.75 13.0898C10.4531 13.4883 11.2031 13.6875 12 13.6875C12.7969 13.6875 13.5469 13.4883 14.25 13.0898C14.9531 12.668 15.5039 12.1172 15.9023 11.4375C16.3008 10.7578 16.5 10.0078 16.5 9.1875C16.5 8.36719 16.3008 7.61719 15.9023 6.9375C15.5039 6.25781 14.9531 5.70703 14.25 5.28516C13.5469 4.88672 12.7969 4.6875 12 4.6875C11.2031 4.6875 10.4531 4.88672 9.75 5.28516C9.04688 5.70703 8.49609 6.25781 8.09766 6.9375C7.69922 7.61719 7.5 8.36719 7.5 9.1875ZM12.8438 15.3047V17.0625H14.5312C15.0469 17.1094 15.3281 17.3906 15.375 17.9062C15.3281 18.4219 15.0469 18.7031 14.5312 18.75H12.8438V20.1562C12.7969 20.6719 12.5156 20.9531 12 21C11.4844 20.9531 11.2031 20.6719 11.1562 20.1562V18.75H9.46875C8.95312 18.7031 8.67188 18.4219 8.625 17.9062C8.67188 17.3906 8.95312 17.1094 9.46875 17.0625H11.1562V15.3047C9.60938 15.0703 8.34375 14.3906 7.35938 13.2656C6.35156 12.1406 5.83594 10.7812 5.8125 9.1875C5.85938 7.42969 6.46875 5.97656 7.64062 4.82812C8.78906 3.65625 10.2422 3.04688 12 3C13.7578 3.04688 15.2109 3.65625 16.3594 4.82812C17.5312 5.97656 18.1406 7.42969 18.1875 9.1875C18.1641 10.7812 17.6484 12.1406 16.6406 13.2656C15.6562 14.3906 14.3906 15.0703 12.8438 15.3047Z"/></svg>