<svg width="24" height="24" viewBox="0 0 24 24" xmlns="http://www.w3.org/2000/svg" fill="#cacaca"><path d="M20.125 12C20.125 10.5156 19.7604 9.16146 19.0312 7.9375C18.3281 6.71354 17.3385 5.72396 16.0625 4.96875C14.7865 4.23958 13.4323 3.875 12 3.875C10.5677 3.875 9.21354 4.23958 7.9375 4.96875C6.66146 5.72396 5.67188 6.71354 4.96875 7.9375C4.23958 9.16146 3.875 10.5156 3.875 12C3.875 13.4844 4.23958 14.8385 4.96875 16.0625C5.67188 17.2865 6.66146 18.276 7.9375 19.0312C9.21354 19.7604 10.5677 20.125 12 20.125C13.4323 20.125 14.7865 19.7604 16.0625 19.0312C17.3385 18.276 18.3281 17.2865 19.0312 16.0625C19.7604 14.8385 20.125 13.4844 20.125 12ZM2 12C2.02604 10.1771 2.46875 8.51042 3.32812 7C4.21354 5.48958 5.4375 4.26562 7 3.32812C8.58854 2.44271 10.2552 2 12 2C13.7448 2 15.4115 2.44271 17 3.32812C18.5625 4.26562 19.7865 5.48958 20.6719 7C21.5312 8.51042 21.974 10.1771 22 12C21.974 13.8229 21.5312 15.4896 20.6719 17C19.7865 18.5104 18.5625 19.7344 17 20.6719C15.4115 21.5573 13.7448 22 12 22C10.2552 22 8.58854 21.5573 7 20.6719C5.4375 19.7344 4.21354 18.5104 3.32812 17C2.46875 15.4896 2.02604 13.8229 2 12ZM7.625 9.8125C7.67708 9.23958 7.98958 8.92708 8.5625 8.875H12.3125C12.8854 8.92708 13.1979 9.23958 13.25 9.8125V14.1875C13.1979 14.7604 12.8854 15.0729 12.3125 15.125H8.5625C7.98958 15.0729 7.67708 14.7604 7.625 14.1875V9.8125ZM16.2578 14.4219L14.5 13.25V10.75L16.2578 9.57812C16.3359 9.52604 16.4271 9.5 16.5312 9.5C16.8177 9.52604 16.974 9.68229 17 9.96875V14.0312C16.974 14.3177 16.8177 14.474 16.5312 14.5C16.4271 14.5 16.3359 14.474 16.2578 14.4219Z"/></svg>