<svg width="24" height="24" viewBox="0 0 24 24" xmlns="http://www.w3.org/2000/svg" fill="#cacaca"><path d="M5 7.5C4.6875 7.52083 4.52083 7.6875 4.5 8V16C4.52083 16.3125 4.6875 16.4792 5 16.5H13C13.3125 16.4792 13.4792 16.3125 13.5 16V8C13.4792 7.6875 13.3125 7.52083 13 7.5H5ZM3 8C3.02083 7.4375 3.21875 6.96875 3.59375 6.59375C3.96875 6.21875 4.4375 6.02083 5 6H13C13.5625 6.02083 14.0312 6.21875 14.4062 6.59375C14.7812 6.96875 14.9792 7.4375 15 8V16C14.9792 16.5625 14.7812 17.0312 14.4062 17.4062C14.0312 17.7812 13.5625 17.9792 13 18H5C4.4375 17.9792 3.96875 17.7812 3.59375 17.4062C3.21875 17.0312 3.02083 16.5625 3 16V8ZM19.5 15.3438V8.65625L16 10.2188V8.5625L19.25 7.125C19.4167 7.04167 19.5938 7 19.7812 7C20.1146 7 20.3958 7.125 20.625 7.375C20.875 7.60417 21 7.89583 21 8.25V15.7812C21 16.1146 20.875 16.3958 20.625 16.625C20.3958 16.875 20.1146 17 19.7812 17C19.5938 17 19.4167 16.9688 19.25 16.9062L16 15.4375V13.7812L19.5 15.3438Z"/></svg>