<svg width="24" height="24" viewBox="0 0 24 24" xmlns="http://www.w3.org/2000/svg" fill="#cacaca"><path d="M2.16064 4.28555C2.473 3.95241 2.82701 3.91076 3.22267 4.16062L5.56537 6.00335H12.9996C13.5618 6.02417 14.0303 6.22197 14.4052 6.59677C14.78 6.97156 14.9778 7.44004 14.9987 8.00223V13.4055L19.4967 16.9347V8.65811L15.9982 10.2197V8.56442L19.2468 7.12772C19.4134 7.04443 19.5904 7.00279 19.7778 7.00279C20.111 7.00279 20.3921 7.12772 20.6212 7.37758C20.871 7.60662 20.996 7.89812 20.996 8.25209V18.0904L21.7144 18.6525C22.0476 18.9649 22.0892 19.3188 21.8394 19.7144C21.527 20.0476 21.173 20.0892 20.7773 19.8394L2.28559 5.34746C1.9524 5.03514 1.91075 4.68117 2.16064 4.28555ZM13.4993 12.2186V8.00223C13.4785 7.68991 13.3119 7.52333 12.9996 7.50251H7.47077L13.4993 12.2186ZM3.00402 8.00223C3.00402 7.93977 3.00402 7.8773 3.00402 7.81484L4.50335 8.97044V15.9978C4.52417 16.3101 4.69076 16.4767 5.00312 16.4975H12.9996C13.2703 16.4767 13.4369 16.3309 13.4993 16.0602L14.7175 17.0284C14.3427 17.6323 13.77 17.955 12.9996 17.9967H5.00312C4.44087 17.9758 3.97233 17.778 3.5975 17.4032C3.22267 17.0284 3.02484 16.56 3.00402 15.9978V8.00223Z"/></svg>