<svg width="24" height="24" viewBox="0 0 24 24" xmlns="http://www.w3.org/2000/svg" fill="#cacaca"><path d="M3.2187 4.1562L6.2187 6.49995C6.23953 6.43745 6.2812 6.38536 6.3437 6.3437C6.55203 6.1562 6.79161 6.06245 7.06245 6.06245C7.31245 6.06245 7.54161 6.1562 7.74995 6.3437L7.99995 6.5937C8.62495 7.11453 9.26036 7.23953 9.9062 6.9687C10.5729 6.69786 10.9374 6.16661 10.9999 5.37495V4.99995C10.9999 4.70828 11.0937 4.4687 11.2812 4.2812C11.4687 4.0937 11.7083 3.99995 11.9999 3.99995C12.2916 3.99995 12.5312 4.0937 12.7187 4.2812C12.9062 4.4687 12.9999 4.70828 12.9999 4.99995V5.37495C13.0624 6.16661 13.427 6.69786 14.0937 6.9687C14.7395 7.23953 15.3749 7.11453 15.9999 6.5937L16.2499 6.3437C16.4583 6.1562 16.6874 6.06245 16.9374 6.06245C17.2083 6.06245 17.4479 6.1562 17.6562 6.3437C17.8437 6.55203 17.9374 6.79161 17.9374 7.06245C17.9374 7.31245 17.8437 7.54161 17.6562 7.74995L17.4062 7.99995C16.8854 8.62495 16.7604 9.26036 17.0312 9.9062C17.302 10.5729 17.8437 10.9374 18.6562 10.9999H18.9999C19.2916 10.9999 19.5312 11.0937 19.7187 11.2812C19.9062 11.4687 19.9999 11.7083 19.9999 11.9999C19.9999 12.2916 19.9062 12.5312 19.7187 12.7187C19.5312 12.9062 19.2916 12.9999 18.9999 12.9999H18.6562C18.0937 13.0208 17.6562 13.2187 17.3437 13.5937C17.0104 13.9687 16.8645 14.3958 16.9062 14.8749L21.7187 18.6562C22.052 18.9687 22.0937 19.3229 21.8437 19.7187C21.5312 20.052 21.177 20.0937 20.7812 19.8437L2.2812 5.3437C1.94786 5.0312 1.9062 4.67703 2.1562 4.2812C2.4687 3.94786 2.82286 3.9062 3.2187 4.1562ZM8.87495 8.5937L15.5312 13.8124C15.7604 13.0416 16.2083 12.4374 16.8749 11.9999C16.3124 11.6249 15.8958 11.1249 15.6249 10.4999C15.3749 9.87495 15.3229 9.2187 15.4687 8.5312C14.7812 8.67703 14.1249 8.62495 13.4999 8.37495C12.8749 8.10411 12.3749 7.68745 11.9999 7.12495C11.6458 7.64578 11.1979 8.0312 10.6562 8.2812C10.0937 8.55203 9.49995 8.6562 8.87495 8.5937ZM14.5624 16.9062C14.1458 16.9479 13.7812 17.1249 13.4687 17.4374C13.177 17.7499 13.0208 18.1562 12.9999 18.6562V18.9999C12.9999 19.2916 12.9062 19.5312 12.7187 19.7187C12.5312 19.9062 12.2916 19.9999 11.9999 19.9999C11.7083 19.9999 11.4687 19.9062 11.2812 19.7187C11.0937 19.5312 10.9999 19.2916 10.9999 18.9999V18.6562C10.9374 17.8437 10.5729 17.302 9.9062 17.0312C9.26036 16.7604 8.62495 16.8854 7.99995 17.4062L7.74995 17.6562C7.54161 17.8437 7.31245 17.9374 7.06245 17.9374C6.79161 17.9374 6.55203 17.8437 6.3437 17.6562C6.1562 17.4479 6.06245 17.2083 6.06245 16.9374C6.06245 16.6874 6.1562 16.4583 6.3437 16.2499L6.5937 15.9999C7.11453 15.3749 7.23953 14.7395 6.9687 14.0937C6.69786 13.427 6.16661 13.0624 5.37495 12.9999H4.99995C4.70828 12.9999 4.4687 12.9062 4.2812 12.7187C4.0937 12.5312 3.99995 12.2916 3.99995 11.9999C3.99995 11.7083 4.0937 11.4687 4.2812 11.2812C4.4687 11.0937 4.70828 10.9999 4.99995 10.9999H5.3437C5.82286 10.9791 6.2187 10.8333 6.5312 10.5624L7.7187 11.4999C7.5312 11.6874 7.33328 11.8541 7.12495 11.9999C7.68745 12.3749 8.10411 12.8749 8.37495 13.4999C8.62495 14.1249 8.67703 14.7812 8.5312 15.4687C9.2187 15.3229 9.87495 15.3749 10.4999 15.6249C11.1249 15.8958 11.6249 16.3124 11.9999 16.8749C12.3124 16.4166 12.6979 16.0624 13.1562 15.8124L14.5624 16.9062Z"/></svg>