<svg width="24" height="24" viewBox="0 0 24 24" xmlns="http://www.w3.org/2000/svg" fill="#cacaca"><path d="M6.34375 6.34375C6.55208 6.15625 6.79167 6.0625 7.0625 6.0625C7.3125 6.0625 7.54167 6.15625 7.75 6.34375L8.03125 6.59375C8.63542 7.11458 9.26042 7.23958 9.90625 6.96875C10.5729 6.69792 10.9375 6.16667 11 5.375V5C11 4.70833 11.0938 4.46875 11.2812 4.28125C11.4688 4.09375 11.7083 4 12 4C12.2917 4 12.5312 4.09375 12.7188 4.28125C12.9062 4.46875 13 4.70833 13 5V5.375C13.0625 6.16667 13.4271 6.69792 14.0938 6.96875C14.7396 7.23958 15.375 7.11458 16 6.59375L16.25 6.34375C16.4583 6.15625 16.6875 6.0625 16.9375 6.0625C17.2083 6.0625 17.4479 6.15625 17.6562 6.34375C17.8438 6.55208 17.9375 6.79167 17.9375 7.0625C17.9375 7.3125 17.8438 7.54167 17.6562 7.75L17.4062 8C16.8854 8.625 16.7604 9.26042 17.0312 9.90625C17.3021 10.5729 17.8438 10.9375 18.6562 11H19C19.2917 11 19.5312 11.0938 19.7188 11.2812C19.9062 11.4688 20 11.7083 20 12C20 12.2917 19.9062 12.5312 19.7188 12.7188C19.5312 12.9062 19.2917 13 19 13H18.6562C17.8438 13.0625 17.3021 13.4271 17.0312 14.0938C16.7604 14.7396 16.8854 15.375 17.4062 16L17.6562 16.25C17.8438 16.4583 17.9375 16.6875 17.9375 16.9375C17.9375 17.2083 17.8438 17.4479 17.6562 17.6562C17.4479 17.8438 17.2083 17.9375 16.9375 17.9375C16.6875 17.9375 16.4583 17.8438 16.25 17.6562L16 17.4062C15.375 16.8854 14.7396 16.7604 14.0938 17.0312C13.4271 17.3021 13.0625 17.8438 13 18.6562V19C13 19.2917 12.9062 19.5312 12.7188 19.7188C12.5312 19.9062 12.2917 20 12 20C11.7083 20 11.4688 19.9062 11.2812 19.7188C11.0938 19.5312 11 19.2917 11 19V18.6562C10.9375 17.8438 10.5729 17.3021 9.90625 17.0312C9.26042 16.7604 8.625 16.8854 8 17.4062L7.75 17.6562C7.54167 17.8438 7.3125 17.9375 7.0625 17.9375C6.79167 17.9375 6.55208 17.8438 6.34375 17.6562C6.15625 17.4479 6.0625 17.2083 6.0625 16.9375C6.0625 16.6875 6.15625 16.4583 6.34375 16.25L6.59375 16C7.11458 15.375 7.23958 14.7396 6.96875 14.0938C6.69792 13.4271 6.16667 13.0625 5.375 13H5C4.70833 13 4.46875 12.9062 4.28125 12.7188C4.09375 12.5312 4 12.2917 4 12C4 11.7083 4.09375 11.4688 4.28125 11.2812C4.46875 11.0938 4.70833 11 5 11H5.375C6.16667 10.9375 6.69792 10.5729 6.96875 9.90625C7.23958 9.26042 7.11458 8.625 6.59375 8L6.34375 7.75C6.15625 7.54167 6.0625 7.3125 6.0625 7.0625C6.0625 6.79167 6.15625 6.55208 6.34375 6.34375ZM12 7.125C11.625 7.6875 11.125 8.10417 10.5 8.375C9.875 8.625 9.21875 8.67708 8.53125 8.53125C8.67708 9.21875 8.625 9.875 8.375 10.5C8.10417 11.125 7.6875 11.625 7.125 12C7.6875 12.375 8.10417 12.875 8.375 13.5C8.625 14.125 8.67708 14.7812 8.53125 15.4688C9.21875 15.3229 9.875 15.375 10.5 15.625C11.125 15.8958 11.625 16.3125 12 16.875C12.375 16.3125 12.875 15.8958 13.5 15.625C14.125 15.375 14.7812 15.3229 15.4688 15.4688C15.3229 14.7812 15.375 14.125 15.625 13.5C15.8958 12.875 16.3125 12.375 16.875 12C16.3125 11.625 15.8958 11.125 15.625 10.5C15.375 9.875 15.3229 9.21875 15.4688 8.53125C14.7812 8.67708 14.125 8.625 13.5 8.375C12.875 8.10417 12.375 7.6875 12 7.125ZM10 11C10 10.7083 10.0938 10.4688 10.2812 10.2812C10.4688 10.0938 10.7083 10 11 10C11.2917 10 11.5312 10.0938 11.7188 10.2812C11.9062 10.4688 12 10.7083 12 11C12 11.2917 11.9062 11.5312 11.7188 11.7188C11.5312 11.9062 11.2917 12 11 12C10.7083 12 10.4688 11.9062 10.2812 11.7188C10.0938 11.5312 10 11.2917 10 11ZM13.5 12.75C13.9583 12.7917 14.2083 13.0417 14.25 13.5C14.2083 13.9583 13.9583 14.2083 13.5 14.25C13.0417 14.2083 12.7917 13.9583 12.75 13.5C12.7917 13.0417 13.0417 12.7917 13.5 12.75Z"/></svg>