<svg width="24" height="24" viewBox="0 0 24 24" xmlns="http://www.w3.org/2000/svg" fill="#cacaca"><path d="M16.4922 18.7383C13.7188 19.0117 10.8281 18.4258 8.28906 16.9023C7.9375 17.4883 7.66406 18.1133 7.42969 18.7383C8.71875 19.5977 10.2812 20.1055 12 20.1055C13.6406 20.1055 15.2031 19.6367 16.4922 18.7383ZM18.8359 16.3555C19.1875 15.8086 19.5 15.1836 19.6953 14.5195C17.1172 14.832 14.4609 14.3633 12 13.0742C10.9844 13.7383 10.125 14.5195 9.38281 15.3789C12.3125 17.0977 15.7891 17.3711 18.8359 16.3555ZM20.0859 12.6055C20.0859 12.4102 20.0859 12.2148 20.0859 11.9805C20.0859 8.97266 18.4453 6.31641 15.9453 4.91016C17.3516 7.17578 18.0547 9.91016 17.8984 12.7227C18.6406 12.7617 19.3438 12.7227 20.0859 12.5664V12.6055ZM5.94531 17.4102C6.96094 15.0273 8.71875 12.957 11.0234 11.4727C10.9844 10.3008 10.75 9.16797 10.3594 8.11328C7.46875 9.40234 5.32031 11.7461 4.26562 14.5195C4.61719 15.6133 5.16406 16.5898 5.94531 17.4102ZM3.91406 11.1602C5.28125 9.12891 7.19531 7.44922 9.61719 6.39453C9.26562 5.80859 8.875 5.22266 8.44531 4.67578C5.94531 5.88672 4.1875 8.30859 3.91406 11.1602ZM10.3203 4.05078C11.8438 6.12109 12.7812 8.66016 12.8984 11.4336C13.9141 11.9414 14.9688 12.332 16.0234 12.5273C16.2188 9.24609 14.9688 6.16016 12.8594 3.93359C12.5469 3.89453 12.2734 3.85547 12 3.85547C11.4141 3.85547 10.8672 3.93359 10.3203 4.05078ZM2 11.9805C2 8.42578 3.875 5.14453 7 3.34766C10.0859 1.55078 13.875 1.55078 17 3.34766C20.0859 5.14453 22 8.42578 22 11.9805C22 15.5742 20.0859 18.8555 17 20.6523C13.875 22.4492 10.0859 22.4492 7 20.6523C3.875 18.8555 2 15.5742 2 11.9805Z"/></svg>