<svg width="24" height="24" viewBox="0 0 24 24" xmlns="http://www.w3.org/2000/svg" fill="#cacaca"><path d="M8.58824 10.0714C8.42525 10.2143 8.23897 10.2857 8.02941 10.2857H4.95588C4.79289 10.3095 4.69975 10.4048 4.67647 10.5714V13.4286C4.69975 13.5952 4.79289 13.6905 4.95588 13.7143H8.02941C8.23897 13.7143 8.42525 13.7857 8.58824 13.9286L12.5 17.5V6.5L8.58824 10.0714ZM13.1287 4C13.4314 4 13.6759 4.10714 13.8621 4.32143C14.0717 4.5119 14.1765 4.7619 14.1765 5.07143V18.9286C14.1765 19.2381 14.0717 19.4881 13.8621 19.6786C13.6759 19.8929 13.4314 20 13.1287 20C12.8725 20 12.6397 19.9167 12.4301 19.75L7.71507 15.4286H4.95588C4.39706 15.4048 3.93137 15.2143 3.55882 14.8571C3.20956 14.4762 3.02328 14 3 13.4286V10.5714C3.02328 10 3.20956 9.52381 3.55882 9.14286C3.93137 8.78571 4.39706 8.59524 4.95588 8.57143H7.71507L12.4301 4.28571C12.6397 4.09524 12.8725 4 13.1287 4ZM19.5202 6.67857C20.2886 7.32143 20.894 8.09524 21.3364 9C21.7788 9.92857 22 10.9286 22 12C22 13.0952 21.7788 14.0952 21.3364 15C20.894 15.9048 20.2886 16.6786 19.5202 17.3214C19.1011 17.6071 18.7053 17.5714 18.3327 17.2143C18.0533 16.7619 18.0999 16.3571 18.4724 16C19.6599 15 20.277 13.6667 20.3235 12C20.277 10.3333 19.6599 9 18.4724 8C18.0999 7.64286 18.0533 7.25 18.3327 6.82143C18.7053 6.44048 19.1011 6.39286 19.5202 6.67857ZM17.4246 9.35714C18.193 10 18.6005 10.881 18.6471 12C18.6005 13.119 18.193 14.0119 17.4246 14.6786C16.9822 14.9643 16.5864 14.9167 16.2371 14.5357C15.9577 14.1071 15.9926 13.7024 16.3419 13.3214C16.7377 12.9881 16.9473 12.5476 16.9706 12C16.9473 11.4524 16.7377 11.0119 16.3419 10.6786C15.9926 10.2976 15.9577 9.89286 16.2371 9.46429C16.5864 9.08333 16.9822 9.04762 17.4246 9.35714Z"/></svg>