<svg width="24" height="24" viewBox="0 0 24 24" xmlns="http://www.w3.org/2000/svg" fill="#cacaca"><path d="M3.22267 4.16062L8.25167 8.09593L11.4378 5.25376C11.6252 5.08719 11.8334 5.0039 12.0625 5.0039C12.3332 5.0039 12.5518 5.0976 12.7184 5.285C12.9058 5.45157 12.9996 5.6702 12.9996 5.94088V11.8438L14.8425 13.2805C14.8633 13.2389 14.8945 13.1972 14.9362 13.1556C15.2902 12.8641 15.4776 12.4789 15.4984 12C15.4776 11.5211 15.2902 11.1359 14.9362 10.8444C14.6238 10.5112 14.5926 10.1573 14.8425 9.78249C15.1548 9.44934 15.5089 9.41811 15.9045 9.68879C16.5917 10.251 16.9561 11.0214 16.9978 12C16.9769 12.8953 16.6542 13.6345 16.0295 14.2175L17.2164 15.1545C18.0494 14.3008 18.4763 13.2493 18.4971 12C18.4555 10.5425 17.9036 9.37646 16.8416 8.50195C16.5084 8.18963 16.4668 7.84607 16.7166 7.47128C17.0498 7.13813 17.4038 7.09649 17.7787 7.34635C18.4659 7.90853 19.0073 8.58524 19.4029 9.37646C19.7986 10.1885 19.9964 11.063 19.9964 12C19.9548 13.6033 19.4238 14.9567 18.4034 16.0602L21.7144 18.6525C22.0476 18.9649 22.0892 19.3188 21.8394 19.7144C21.527 20.0476 21.173 20.0892 20.7773 19.8394L2.28559 5.34746C1.9524 5.03514 1.91075 4.68117 2.16064 4.28555C2.473 3.95241 2.82701 3.91076 3.22267 4.16062ZM9.43864 9.03291L11.5002 10.657V7.19018L9.43864 9.03291ZM3.00402 10.7507C3.00402 10.2926 3.14978 9.90742 3.44132 9.59509C3.73286 9.26194 4.10769 9.06414 4.56582 9.00167L6.43998 10.5008H4.75324C4.60747 10.5217 4.52417 10.6049 4.50335 10.7507V13.2493C4.52417 13.3951 4.60747 13.4783 4.75324 13.4992H7.50201C7.68942 13.4992 7.85602 13.5616 8.00178 13.6866L11.5002 16.8098V14.4986L12.9996 15.6542V18.0591C12.9996 18.3298 12.9058 18.5484 12.7184 18.715C12.5518 18.9024 12.3332 18.9961 12.0625 18.9961C11.8334 18.9961 11.6252 18.9232 11.4378 18.7775L7.22088 14.9983H4.75324C4.25346 14.9775 3.83698 14.8109 3.50379 14.4986C3.19143 14.1655 3.02484 13.749 3.00402 13.2493V10.7507Z"/></svg>