<svg width="24" height="24" viewBox="0 0 24 24" xmlns="http://www.w3.org/2000/svg" fill="#cacaca"><path d="M6.09375 4.125H19.0312C19.5469 4.17188 19.8281 4.45312 19.875 4.96875C19.8281 5.48438 19.5469 5.76562 19.0312 5.8125H6.09375C5.69531 5.8125 5.36719 5.95312 5.10938 6.23438C4.82812 6.49219 4.6875 6.82031 4.6875 7.21875V16.7812C4.6875 17.1797 4.82812 17.5078 5.10938 17.7656C5.36719 18.0469 5.69531 18.1875 6.09375 18.1875H17.9062C18.3047 18.1875 18.6328 18.0469 18.8906 17.7656C19.1719 17.5078 19.3125 17.1797 19.3125 16.7812V10.5938C19.3125 10.1953 19.1719 9.86719 18.8906 9.60938C18.6328 9.32812 18.3047 9.1875 17.9062 9.1875H7.21875C6.70312 9.14062 6.42188 8.85938 6.375 8.34375C6.42188 7.82812 6.70312 7.54688 7.21875 7.5H17.9062C18.7734 7.52344 19.5 7.82812 20.0859 8.41406C20.6719 9 20.9766 9.72656 21 10.5938V16.7812C20.9766 17.6484 20.6719 18.375 20.0859 18.9609C19.5 19.5469 18.7734 19.8516 17.9062 19.875H6.09375C5.22656 19.8516 4.5 19.5469 3.91406 18.9609C3.32813 18.375 3.02344 17.6484 3 16.7812V7.21875C3.02344 6.35156 3.32813 5.625 3.91406 5.03906C4.5 4.45313 5.22656 4.14844 6.09375 4.125ZM16.5 14.8125C16.1719 14.8125 15.9023 14.707 15.6914 14.4961C15.4805 14.2852 15.375 14.0156 15.375 13.6875C15.375 13.3594 15.4805 13.0898 15.6914 12.8789C15.9023 12.668 16.1719 12.5625 16.5 12.5625C16.8281 12.5625 17.0977 12.668 17.3086 12.8789C17.5195 13.0898 17.625 13.3594 17.625 13.6875C17.625 14.0156 17.5195 14.2852 17.3086 14.4961C17.0977 14.707 16.8281 14.8125 16.5 14.8125Z"/></svg>