<svg width="24" height="24" viewBox="0 0 24 24" xmlns="http://www.w3.org/2000/svg" fill="#cacaca"><path d="M5.49994 6.4375C5.83327 6.1875 6.16661 6.1875 6.49994 6.4375C6.83327 6.72917 7.21869 6.97917 7.65619 7.1875C8.09369 7.39583 8.54161 7.5 8.99994 7.5C9.45828 7.5 9.90619 7.39583 10.3437 7.1875C10.7604 6.97917 11.1458 6.72917 11.4999 6.4375C11.8333 6.1875 12.1666 6.1875 12.4999 6.4375C12.8333 6.72917 13.2187 6.97917 13.6562 7.1875C14.0937 7.39583 14.5416 7.5 14.9999 7.5C15.4583 7.5 15.9062 7.39583 16.3437 7.1875C16.7604 6.97917 17.1458 6.72917 17.4999 6.4375C17.8333 6.1875 18.1666 6.1875 18.4999 6.4375C19.0624 6.9375 19.6979 7.27083 20.4062 7.4375C20.8437 7.58333 21.0312 7.88542 20.9687 8.34375C20.8229 8.78125 20.5312 8.96875 20.0937 8.90625C19.1562 8.63542 18.4583 8.3125 17.9999 7.9375C17.1041 8.60417 16.1041 8.95833 14.9999 9C13.8958 8.95833 12.8958 8.60417 11.9999 7.9375C11.1041 8.60417 10.1041 8.95833 8.99994 9C7.89578 8.95833 6.89577 8.60417 5.99994 7.9375C5.52077 8.3125 4.82286 8.63542 3.90619 8.90625C3.44786 8.96875 3.14577 8.78125 2.99994 8.34375C2.95827 7.88542 3.15619 7.58333 3.59369 7.4375C4.30202 7.25 4.93744 6.91667 5.49994 6.4375ZM5.49994 15.4375C5.83327 15.1875 6.16661 15.1875 6.49994 15.4375C6.83327 15.7292 7.21869 15.9792 7.65619 16.1875C8.09369 16.3958 8.54161 16.5 8.99994 16.5C9.45828 16.5 9.90619 16.3958 10.3437 16.1875C10.7604 15.9792 11.1458 15.7292 11.4999 15.4375C11.8333 15.1875 12.1666 15.1875 12.4999 15.4375C12.8333 15.7292 13.2187 15.9792 13.6562 16.1875C14.0937 16.3958 14.5416 16.5 14.9999 16.5C15.4583 16.5 15.9062 16.3958 16.3437 16.1875C16.7604 15.9792 17.1458 15.7292 17.4999 15.4375C17.8333 15.1875 18.1666 15.1875 18.4999 15.4375C19.0624 15.9375 19.6979 16.2708 20.4062 16.4375C20.8437 16.5833 21.0312 16.8854 20.9687 17.3438C20.8229 17.7812 20.5312 17.9688 20.0937 17.9062C19.1562 17.6354 18.4583 17.3125 17.9999 16.9375C17.1041 17.6042 16.1041 17.9583 14.9999 18C13.8958 17.9583 12.8958 17.6042 11.9999 16.9375C11.1041 17.6042 10.1041 17.9583 8.99994 18C7.89578 17.9583 6.89577 17.6042 5.99994 16.9375C5.52077 17.3125 4.82286 17.6354 3.90619 17.9062C3.44786 17.9688 3.14577 17.7812 2.99994 17.3438C2.95827 16.8854 3.15619 16.5833 3.59369 16.4375C4.30202 16.25 4.93744 15.9167 5.49994 15.4375ZM6.49994 10.9375C6.83327 11.2292 7.21869 11.4792 7.65619 11.6875C8.09369 11.8958 8.54161 12 8.99994 12C9.45828 12 9.90619 11.8958 10.3437 11.6875C10.7604 11.4792 11.1458 11.2292 11.4999 10.9375C11.8333 10.6875 12.1666 10.6875 12.4999 10.9375C12.8333 11.2292 13.2187 11.4792 13.6562 11.6875C14.0937 11.8958 14.5416 12 14.9999 12C15.4583 12 15.9062 11.8958 16.3437 11.6875C16.7604 11.4792 17.1458 11.2292 17.4999 10.9375C17.8333 10.6875 18.1666 10.6875 18.4999 10.9375C19.0624 11.4375 19.6979 11.7708 20.4062 11.9375C20.8437 12.0833 21.0312 12.3854 20.9687 12.8438C20.8229 13.2812 20.5312 13.4688 20.0937 13.4062C19.1562 13.1354 18.4583 12.8125 17.9999 12.4375C17.1041 13.1042 16.1041 13.4583 14.9999 13.5C13.8958 13.4583 12.8958 13.1042 11.9999 12.4375C11.1041 13.1042 10.1041 13.4583 8.99994 13.5C7.89578 13.4583 6.89577 13.1042 5.99994 12.4375C5.52077 12.8125 4.82286 13.1354 3.90619 13.4062C3.44786 13.4688 3.14577 13.2812 2.99994 12.8438C2.95827 12.3854 3.15619 12.0833 3.59369 11.9375C4.30202 11.75 4.93744 11.4167 5.49994 10.9375C5.83327 10.6875 6.16661 10.6875 6.49994 10.9375Z"/></svg>