<svg width="24" height="24" viewBox="0 0 24 24" xmlns="http://www.w3.org/2000/svg" fill="#cacaca"><path d="M11.9719 4.80005C12.3281 4.8188 12.5531 4.98755 12.6469 5.3063L14.8969 13.8563L15.6562 12.225C15.9562 11.6438 16.425 11.3438 17.0625 11.325H20.325C20.7375 11.3625 20.9625 11.5875 21 12C20.9625 12.4125 20.7375 12.6375 20.325 12.675H17.0625C16.9688 12.675 16.9031 12.7219 16.8656 12.8157L15.3187 16.1063C15.1687 16.3875 14.9437 16.5188 14.6437 16.5C14.3438 16.4625 14.1469 16.2938 14.0531 15.9938L12.0844 8.42817L9.975 18.6657C9.88125 18.9844 9.66562 19.1625 9.32812 19.2C8.99062 19.1813 8.76562 19.0125 8.65312 18.6938L7.02187 12.8438C6.98438 12.7313 6.91875 12.675 6.825 12.675H3.675C3.2625 12.6375 3.0375 12.4125 3 12C3.0375 11.5875 3.2625 11.3625 3.675 11.325H6.825C7.18125 11.325 7.5 11.4282 7.78125 11.6344C8.04375 11.8594 8.23125 12.1407 8.34375 12.4782L9.21562 15.6563L11.3531 5.33442C11.4281 5.01567 11.6344 4.83755 11.9719 4.80005Z"/></svg>