<svg width="24" height="24" viewBox="0 0 24 24" xmlns="http://www.w3.org/2000/svg" fill="#cacaca"><path d="M12 4C12.4583 4.04167 12.7083 4.29167 12.75 4.75V19.25C12.7083 19.7083 12.4583 19.9583 12 20C11.5417 19.9583 11.2917 19.7083 11.25 19.25V4.75C11.2917 4.29167 11.5417 4.04167 12 4ZM18.25 6C18.7083 6.04167 18.9583 6.29167 19 6.75V17.25C18.9583 17.7083 18.7083 17.9583 18.25 18C17.7917 17.9583 17.5417 17.7083 17.5 17.25V6.75C17.5417 6.29167 17.7917 6.04167 18.25 6ZM8.75 7C9.20833 7.04167 9.45833 7.29167 9.5 7.75V16.25C9.45833 16.7083 9.20833 16.9583 8.75 17C8.29167 16.9583 8.04167 16.7083 8 16.25V7.75C8.04167 7.29167 8.29167 7.04167 8.75 7ZM15.25 8C15.7083 8.04167 15.9583 8.29167 16 8.75V15.25C15.9583 15.7083 15.7083 15.9583 15.25 16C14.7917 15.9583 14.5417 15.7083 14.5 15.25V8.75C14.5417 8.29167 14.7917 8.04167 15.25 8ZM5.75 10C6.20833 10.0417 6.45833 10.2917 6.5 10.75V13.25C6.45833 13.7083 6.20833 13.9583 5.75 14C5.29167 13.9583 5.04167 13.7083 5 13.25V10.75C5.04167 10.2917 5.29167 10.0417 5.75 10ZM2.75 11C3.20833 11.0417 3.45833 11.2917 3.5 11.75V12.25C3.45833 12.7083 3.20833 12.9583 2.75 13C2.29167 12.9583 2.04167 12.7083 2 12.25V11.75C2.04167 11.2917 2.29167 11.0417 2.75 11ZM21.25 11C21.7083 11.0417 21.9583 11.2917 22 11.75V12.25C21.9583 12.7083 21.7083 12.9583 21.25 13C20.7917 12.9583 20.5417 12.7083 20.5 12.25V11.75C20.5417 11.2917 20.7917 11.0417 21.25 11Z"/></svg>