<svg width="24" height="24" viewBox="0 0 24 24" xmlns="http://www.w3.org/2000/svg" fill="#cacaca"><path d="M19.7812 4.21875C20.0729 4.57292 20.0729 4.92708 19.7812 5.28125L15.4375 9.625C15.6875 9.64583 15.9375 9.69792 16.1875 9.78125L18.7188 7.21875C19.0729 6.92708 19.4271 6.92708 19.7812 7.21875C20.0729 7.57292 20.0729 7.92708 19.7812 8.28125L17.5625 10.5C17.6458 10.5833 17.7292 10.6667 17.8125 10.75L18.3438 11.2812C18.6354 11.6354 18.6354 11.9896 18.3438 12.3438L17.8125 12.875C17.2708 13.3958 16.6562 13.7188 15.9688 13.8438C16.1771 14.1771 16.1458 14.5 15.875 14.8125L15.3438 15.3438C14.8021 15.8854 14.1875 16.2083 13.5 16.3125C13.7083 16.6667 13.6771 16.9896 13.4062 17.2812L12.875 17.8125C12.1667 18.5 11.3438 18.8438 10.4062 18.8438C9.46875 18.8438 8.64583 18.5 7.9375 17.8125L7.59375 17.4688L5.28125 19.7812C4.92708 20.0729 4.57292 20.0729 4.21875 19.7812C3.92708 19.4271 3.92708 19.0729 4.21875 18.7188L6.53125 16.4375L6.15625 16.0625C5.48958 15.3542 5.15625 14.5312 5.15625 13.5938C5.15625 12.6562 5.48958 11.8333 6.15625 11.125L6.6875 10.5938C7 10.3229 7.32292 10.2917 7.65625 10.5C7.78125 9.8125 8.10417 9.19792 8.625 8.65625L9.15625 8.125C9.46875 7.85417 9.79167 7.82292 10.125 8.03125C10.25 7.34375 10.5833 6.72917 11.125 6.1875L11.625 5.65625C11.9792 5.36458 12.3333 5.36458 12.6875 5.65625L13.2188 6.1875C13.3229 6.27083 13.4062 6.36458 13.4688 6.46875L15.7188 4.21875C16.0729 3.92708 16.4271 3.92708 16.7812 4.21875C17.0729 4.57292 17.0729 4.92708 16.7812 5.28125L14.2188 7.84375C14.3021 8.07292 14.3542 8.3125 14.375 8.5625L18.7188 4.21875C19.0729 3.92708 19.4271 3.92708 19.7812 4.21875ZM12.1875 7.21875C11.7917 7.63542 11.5938 8.11458 11.5938 8.65625C11.5938 9.17708 11.7917 9.64583 12.1875 10.0625L12.5 10.375C12.8125 9.875 12.9479 9.33333 12.9062 8.75C12.8438 8.1875 12.6042 7.67708 12.1875 7.21875ZM9.6875 9.71875C9.3125 10.1146 9.125 10.5833 9.125 11.125C9.125 11.6458 9.3125 12.1146 9.6875 12.5312L10 12.8438C10.3333 12.3438 10.4688 11.8021 10.4062 11.2188C10.3646 10.6562 10.125 10.1562 9.6875 9.71875ZM9 16.7812C9.39583 17.1562 9.86458 17.3438 10.4062 17.3438C10.9271 17.3438 11.3958 17.1562 11.8125 16.7812C11.375 16.3438 10.8646 16.1042 10.2812 16.0625C9.71875 16 9.1875 16.1354 8.6875 16.4688L9 16.7812ZM7.21875 15L7.53125 15.3125C7.86458 14.8125 8 14.2812 7.9375 13.7188C7.89583 13.1354 7.65625 12.625 7.21875 12.1875C6.82292 12.5833 6.625 13.0521 6.625 13.5938C6.625 14.1146 6.82292 14.5833 7.21875 15ZM11.4688 14.3125C11.8854 14.6875 12.3542 14.875 12.875 14.875C13.4167 14.875 13.8854 14.6875 14.2812 14.3125C13.8438 13.875 13.3333 13.625 12.75 13.5625C12.1875 13.5208 11.6562 13.6562 11.1562 13.9688L11.4688 14.2812V14.3125ZM13.9375 11.8125C14.3542 12.2083 14.8229 12.4062 15.3438 12.4062C15.8854 12.4062 16.3646 12.2083 16.7812 11.8125C16.3229 11.3958 15.8125 11.1562 15.25 11.0938C14.6667 11.0521 14.125 11.1875 13.625 11.5L13.9375 11.8125Z"/></svg>