<svg width="24" height="24" viewBox="0 0 24 24" xmlns="http://www.w3.org/2000/svg" fill="#cacaca"><path d="M18 5.5C17.6458 5.5 17.3542 5.625 17.125 5.875C16.875 6.10417 16.75 6.39583 16.75 6.75V7.25H17.25C17.6042 7.25 17.8958 7.125 18.125 6.875C18.375 6.64583 18.5 6.35417 18.5 6V5.5H18ZM15.3125 6.15625C15.4583 5.51042 15.7812 5 16.2812 4.625C16.7604 4.22917 17.3333 4.02083 18 4H19.25C19.7083 4.04167 19.9583 4.29167 20 4.75V6C19.9792 6.66667 19.7812 7.23958 19.4062 7.71875C19.0104 8.21875 18.5 8.54167 17.875 8.6875C18.3125 8.875 18.7188 9.15625 19.0938 9.53125L19.5938 10.0312C19.8854 10.3854 19.8854 10.7396 19.5938 11.0938L19.0938 11.625C18.5312 12.1667 17.9062 12.4896 17.2188 12.5938C17.4271 12.9479 17.3958 13.2708 17.125 13.5625L16.5938 14.0938C16.0521 14.6354 15.4375 14.9583 14.75 15.0625C14.9583 15.4167 14.9271 15.75 14.6562 16.0625L14.125 16.5625C13.4167 17.25 12.5938 17.5938 11.6562 17.5938C10.7188 17.5938 9.89583 17.25 9.1875 16.5625L8.84375 16.2188L5.28125 19.7812C4.92708 20.0729 4.57292 20.0729 4.21875 19.7812C3.92708 19.4271 3.92708 19.0729 4.21875 18.7188L7.78125 15.1875L7.40625 14.8125C6.73958 14.1042 6.40625 13.2812 6.40625 12.3438C6.40625 11.4062 6.73958 10.5833 7.40625 9.875L7.9375 9.34375C8.25 9.07292 8.57292 9.05208 8.90625 9.28125C9.03125 8.57292 9.35417 7.94792 9.875 7.40625L10.4062 6.875C10.7188 6.60417 11.0417 6.57292 11.375 6.78125C11.5 6.09375 11.8333 5.47917 12.375 4.9375L12.875 4.40625C13.2292 4.11458 13.5833 4.11458 13.9375 4.40625L14.4688 4.9375C14.8438 5.29167 15.125 5.69792 15.3125 6.15625ZM13.4375 8.8125L13.75 9.125C14.0625 8.625 14.1979 8.08333 14.1562 7.5C14.0938 6.9375 13.8542 6.42708 13.4375 5.96875C13.0417 6.38542 12.8438 6.86458 12.8438 7.40625C12.8438 7.92708 13.0417 8.39583 13.4375 8.8125ZM10.9375 11.2812L11.2812 11.5938C11.5938 11.0938 11.7188 10.5521 11.6562 9.96875C11.6146 9.40625 11.375 8.90625 10.9375 8.46875C10.5625 8.86458 10.375 9.33333 10.375 9.875C10.375 10.3958 10.5625 10.8646 10.9375 11.2812ZM8.46875 13.75L8.78125 14.0625C9.11458 13.5625 9.25 13.0312 9.1875 12.4688C9.14583 11.8854 8.90625 11.375 8.46875 10.9375C8.07292 11.3333 7.875 11.8021 7.875 12.3438C7.875 12.8646 8.07292 13.3333 8.46875 13.75ZM13.0625 15.5312C12.625 15.0938 12.1146 14.8542 11.5312 14.8125C10.9688 14.75 10.4375 14.8854 9.9375 15.2188L10.25 15.5312C10.6458 15.9062 11.1146 16.0938 11.6562 16.0938C12.1771 16.0938 12.6458 15.9062 13.0625 15.5312ZM15.5312 13.0625C15.0938 12.625 14.5833 12.375 14 12.3125C13.4375 12.2708 12.9062 12.4062 12.4062 12.7188L12.7188 13.0312C13.1354 13.4271 13.6042 13.625 14.125 13.625C14.6667 13.625 15.1354 13.4271 15.5312 13.0312V13.0625ZM18.0312 10.5625C17.5729 10.1458 17.0625 9.90625 16.5 9.84375C15.9167 9.80208 15.375 9.9375 14.875 10.25L15.1875 10.5625C15.6042 10.9583 16.0729 11.1562 16.5938 11.1562C17.1354 11.1562 17.6146 10.9583 18.0312 10.5625Z"/></svg>