<svg width="24" height="24" fill="#cacaca" xmlns="http://www.w3.org/2000/svg"><path d="M3.25 9.813c-.375.27-.73.25-1.063-.063-.27-.375-.25-.73.063-1.063A14.718 14.718 0 016.687 5.97C8.354 5.323 10.125 5 12 5c1.875 0 3.646.323 5.313.969a14.718 14.718 0 014.437 2.718c.313.334.333.688.063 1.063-.334.313-.688.333-1.063.063a13.054 13.054 0 00-4-2.438C15.27 6.792 13.687 6.5 12 6.5c-1.688 0-3.27.292-4.75.875a13.053 13.053 0 00-4 2.438zM12 12c-2.063.042-3.813.719-5.25 2.031-.354.292-.708.281-1.063-.031-.27-.375-.25-.73.063-1.063a8.979 8.979 0 012.844-1.78A8.86 8.86 0 0112 10.5a8.86 8.86 0 013.406.656 8.978 8.978 0 012.844 1.781c.313.334.333.688.063 1.063-.355.313-.709.323-1.063.031C15.812 12.72 14.062 12.041 12 12zm1.75 5.25c-.02.667-.313 1.167-.875 1.5-.583.333-1.167.333-1.75 0-.563-.333-.854-.833-.875-1.5.02-.667.313-1.167.875-1.5.583-.333 1.167-.333 1.75 0 .563.333.854.833.875 1.5z"/></svg>