<svg width="24" height="24" viewBox="0 0 24 24" xmlns="http://www.w3.org/2000/svg" fill="#cacaca"><path d="M3.2499 9.8125C2.8749 10.0833 2.52073 10.0625 2.1874 9.75C1.91656 9.375 1.9374 9.02083 2.2499 8.6875C3.5624 7.52083 5.04156 6.61458 6.6874 5.96875C8.35406 5.32292 10.1249 5 11.9999 5C13.8749 5 15.6457 5.32292 17.3124 5.96875C18.9582 6.61458 20.4374 7.52083 21.7499 8.6875C22.0624 9.02083 22.0832 9.375 21.8124 9.75C21.4791 10.0625 21.1249 10.0833 20.7499 9.8125C19.5832 8.77083 18.2499 7.95833 16.7499 7.375C15.2707 6.79167 13.6874 6.5 11.9999 6.5C10.3124 6.5 8.72906 6.79167 7.2499 7.375C5.7499 7.95833 4.41656 8.77083 3.2499 9.8125ZM11.9999 12C9.9374 12.0417 8.1874 12.7188 6.7499 14.0312C6.39573 14.3229 6.04156 14.3125 5.6874 14C5.41656 13.625 5.4374 13.2708 5.7499 12.9375C6.58323 12.1667 7.53115 11.5729 8.59365 11.1562C9.65615 10.7188 10.7916 10.5 11.9999 10.5C13.2082 10.5 14.3436 10.7188 15.4061 11.1562C16.4686 11.5729 17.4166 12.1667 18.2499 12.9375C18.5624 13.2708 18.5832 13.625 18.3124 14C17.9582 14.3125 17.6041 14.3229 17.2499 14.0312C15.8124 12.7188 14.0624 12.0417 11.9999 12ZM13.7499 17.25C13.7291 17.9167 13.4374 18.4167 12.8749 18.75C12.2916 19.0833 11.7082 19.0833 11.1249 18.75C10.5624 18.4167 10.2707 17.9167 10.2499 17.25C10.2707 16.5833 10.5624 16.0833 11.1249 15.75C11.7082 15.4167 12.2916 15.4167 12.8749 15.75C13.4374 16.0833 13.7291 16.5833 13.7499 17.25Z"/></svg>