<svg width="24" height="24" viewBox="0 0 24 24" xmlns="http://www.w3.org/2000/svg" fill="#cacaca"><path d="M13.125 3.84375C13.1719 3.32812 13.4531 3.04688 13.9688 3H15.5156C16.4297 3.02344 17.1914 3.33984 17.8008 3.94922C18.4102 4.55859 18.7266 5.32031 18.75 6.23438C18.7266 7.14844 18.4102 7.91016 17.8008 8.51953C17.1914 9.12891 16.4297 9.44531 15.5156 9.46875H3.84375C3.32812 9.42188 3.04688 9.14062 3 8.625C3.04688 8.10938 3.32812 7.82812 3.84375 7.78125H15.5156C15.9609 7.78125 16.3242 7.62891 16.6055 7.32422C16.9102 7.04297 17.0625 6.67969 17.0625 6.23438C17.0625 5.78906 16.9102 5.42578 16.6055 5.14453C16.3242 4.83984 15.9609 4.6875 15.5156 4.6875H13.9688C13.4531 4.64062 13.1719 4.35938 13.125 3.84375ZM15.375 16.7812C15.4219 16.2656 15.7031 15.9844 16.2188 15.9375H17.7656C18.2109 15.9375 18.5742 15.7852 18.8555 15.4805C19.1602 15.1992 19.3125 14.8359 19.3125 14.3906C19.3125 13.9453 19.1602 13.582 18.8555 13.3008C18.5742 12.9961 18.2109 12.8438 17.7656 12.8438H3.84375C3.32812 12.7969 3.04688 12.5156 3 12C3.04688 11.4844 3.32812 11.2031 3.84375 11.1562H17.7656C18.6797 11.1797 19.4414 11.4961 20.0508 12.1055C20.6602 12.7148 20.9766 13.4766 21 14.3906C20.9766 15.3047 20.6602 16.0664 20.0508 16.6758C19.4414 17.2852 18.6797 17.6016 17.7656 17.625H16.2188C15.7031 17.5781 15.4219 17.2969 15.375 16.7812ZM7.21875 21C6.70312 20.9531 6.42188 20.6719 6.375 20.1562C6.42188 19.6406 6.70312 19.3594 7.21875 19.3125H8.76562C9.21094 19.3125 9.57422 19.1602 9.85547 18.8555C10.1602 18.5742 10.3125 18.2109 10.3125 17.7656C10.3125 17.3203 10.1602 16.957 9.85547 16.6758C9.57422 16.3711 9.21094 16.2188 8.76562 16.2188H3.84375C3.32812 16.1719 3.04688 15.8906 3 15.375C3.04688 14.8594 3.32812 14.5781 3.84375 14.5312H8.76562C9.67969 14.5547 10.4414 14.8711 11.0508 15.4805C11.6602 16.0898 11.9766 16.8516 12 17.7656C11.9766 18.6797 11.6602 19.4414 11.0508 20.0508C10.4414 20.6602 9.67969 20.9766 8.76562 21H7.21875Z"/></svg>