<svg width="24" height="24" viewBox="0 0 24 24" xmlns="http://www.w3.org/2000/svg" fill="#cacaca"><path d="M2.29298 2.29298C2.65909 1.92686 3.2381 1.90427 3.63087 2.22462L3.70704 2.29298L21.707 20.293L21.7754 20.3692C22.0958 20.7619 22.0732 21.3409 21.707 21.707C21.3409 22.0732 20.7619 22.0958 20.3692 21.7754L20.293 21.707L15.3399 16.7539L11.9502 20.8223C11.666 21.1632 11.1904 21.2754 10.7832 21.0986C10.3763 20.9217 10.1344 20.4979 10.1895 20.0576L10.8672 14.6367H4.63673C4.24871 14.6367 3.89506 14.4119 3.73048 14.0606C3.56595 13.7092 3.61979 13.2942 3.86817 12.9961L7.37403 8.7881L2.29298 3.70704L2.22462 3.63087C1.90427 3.2381 1.92686 2.65909 2.29298 2.29298ZM12.5967 16.9219L13.9199 15.334L12.9199 14.334L12.5967 16.9219ZM6.77052 12.6367H11.2227L8.79395 10.208L6.77052 12.6367Z"/><path d="M13.3281 7.82813C13.2599 8.37606 12.7599 8.76534 12.2119 8.69728C11.664 8.62908 11.2747 8.12906 11.3428 7.58106L11.4121 7.01856C11.051 7.27805 10.5481 7.27327 10.1904 6.9756C9.76603 6.6223 9.70829 5.99187 10.0615 5.56739L12.0498 3.17872L12.1641 3.06153C12.4508 2.81348 12.8593 2.74594 13.2158 2.9004C13.5722 3.05479 13.8021 3.39875 13.8174 3.77735L13.8106 3.94142L13.3281 7.82813Z"/><path d="M18.1426 13.3858C17.7885 13.8094 17.1582 13.8656 16.7344 13.5117C16.3108 13.1577 16.2537 12.5274 16.6074 12.1035L17.2256 11.3633H14.9942C14.442 11.3631 13.9942 10.9154 13.9942 10.3633C13.9943 9.8113 14.4422 9.3635 14.9942 9.36329H19.3633C19.7514 9.36329 20.105 9.58803 20.2695 9.93946C20.434 10.2911 20.3797 10.7069 20.1309 11.0049L18.1426 13.3858Z"/></svg>