<svg width="24" height="24" viewBox="0 0 24 24" xmlns="http://www.w3.org/2000/svg" fill="#cacaca"><path d="M12.1144 3.25099C12.3991 2.99856 12.8089 2.92693 13.1681 3.07911C13.5786 3.25312 13.8244 3.67851 13.7706 4.1211L13.129 9.4004H19.0001C19.3856 9.4004 19.7365 9.62176 19.9024 9.96974C20.0683 10.3176 20.0199 10.7298 19.7774 11.0293L11.9991 20.6299C11.7185 20.976 11.2425 21.0948 10.8321 20.9209C10.4216 20.7469 10.1758 20.3215 10.2296 19.8789L10.8712 14.5996H5.0001C4.61458 14.5996 4.26369 14.3783 4.09776 14.0303C3.93188 13.6824 3.98028 13.2702 4.22276 12.9707L12.0011 3.37013L12.1144 3.25099ZM7.09775 12.5996H12.0001C12.2863 12.5996 12.5593 12.7223 12.7491 12.9365C12.9389 13.1508 13.0278 13.4366 12.9933 13.7207L12.6349 16.667L16.9024 11.4004H12.0001C11.7139 11.4004 11.4409 11.2777 11.2511 11.0635C11.0613 10.8492 10.9724 10.5634 11.0069 10.2793L11.3644 7.33204L7.09775 12.5996Z"/></svg>