<svg width="24" height="24" viewBox="0 0 24 24" fill="#cacaca" xmlns="http://www.w3.org/2000/svg">
  <path d="M5.4 2.3999H16.2C16.875 2.4249 17.4375 2.6624 17.8875 3.1124C18.3375 3.5624 18.575 4.1249 18.6 4.7999V19.1999C18.575 19.8749 18.3375 20.4374 17.8875 20.8874C17.4375 21.3374 16.875 21.5749 16.2 21.5999H5.4C4.725 21.5749 4.1625 21.3374 3.7125 20.8874C3.2625 20.4374 3.025 19.8749 3 19.1999V4.7999C3.025 4.1249 3.2625 3.5624 3.7125 3.1124C4.1625 2.6624 4.725 2.4249 5.4 2.3999ZM9.6 13.1999C8.75 13.2249 8.0375 13.5124 7.4625 14.0624C6.9125 14.6374 6.625 15.3499 6.6 16.1999C6.625 16.5749 6.825 16.7749 7.2 16.7999H14.4C14.775 16.7749 14.975 16.5749 15 16.1999C14.975 15.3499 14.6875 14.6374 14.1375 14.0624C13.5625 13.5124 12.85 13.2249 12 13.1999H9.6ZM8.4 9.5999C8.425 10.4999 8.825 11.1874 9.6 11.6624C10.4 12.1124 11.2 12.1124 12 11.6624C12.775 11.1874 13.175 10.4999 13.2 9.5999C13.175 8.6999 12.775 8.0124 12 7.5374C11.2 7.0874 10.4 7.0874 9.6 7.5374C8.825 8.0124 8.425 8.6999 8.4 9.5999ZM21 5.3999V7.7999C20.975 8.1749 20.775 8.3749 20.4 8.3999C20.025 8.3749 19.825 8.1749 19.8 7.7999V5.3999C19.825 5.0249 20.025 4.8249 20.4 4.7999C20.775 4.8249 20.975 5.0249 21 5.3999ZM20.4 9.5999C20.775 9.6249 20.975 9.8249 21 10.1999V12.5999C20.975 12.9749 20.775 13.1749 20.4 13.1999C20.025 13.1749 19.825 12.9749 19.8 12.5999V10.1999C19.825 9.8249 20.025 9.6249 20.4 9.5999ZM21 14.9999V17.3999C20.975 17.7749 20.775 17.9749 20.4 17.9999C20.025 17.9749 19.825 17.7749 19.8 17.3999V14.9999C19.825 14.6249 20.025 14.4249 20.4 14.3999C20.775 14.4249 20.975 14.6249 21 14.9999Z" />
</svg>
