<svg width="24" height="24" viewBox="0 0 24 24" xmlns="http://www.w3.org/2000/svg" fill="#cacaca"><path d="M12 13.333C12.2918 13.333 12.5688 13.4611 12.7588 13.6826L16.7588 18.3496C17.0129 18.6461 17.0714 19.0632 16.9082 19.418C16.745 19.7726 16.3905 20 16 20H8C7.60955 20 7.25503 19.7726 7.0918 19.418C6.92861 19.0632 6.98706 18.6461 7.24121 18.3496L11.2412 13.6826L11.3164 13.6035C11.5007 13.4309 11.7448 13.333 12 13.333ZM19 14.333V6.55566C19 6.41756 18.9435 6.27935 18.834 6.17285C18.7236 6.06553 18.5683 6.0001 18.4004 6H5.59961C5.4317 6.0001 5.27643 6.06553 5.16602 6.17285C5.05648 6.27935 5 6.41756 5 6.55566V14.333L5.01074 14.4365C5.03168 14.5386 5.08393 14.636 5.16602 14.7158C5.27643 14.8232 5.43168 14.8886 5.59961 14.8887H6.40039C6.95242 14.8889 7.40027 15.3366 7.40039 15.8887C7.40039 16.4408 6.9525 16.8885 6.40039 16.8887H5.59961C4.91914 16.8886 4.26101 16.6263 3.77148 16.1504C3.34217 15.733 3.07313 15.1807 3.0127 14.5889L3 14.333V6.55566C3 5.86865 3.28091 5.21523 3.77148 4.73828C4.261 4.26244 4.91919 4.0001 5.59961 4H18.4004C19.0808 4.0001 19.739 4.26244 20.2285 4.73828C20.7191 5.21523 21 5.86865 21 6.55566V14.333C21 15.02 20.7191 15.6734 20.2285 16.1504C19.739 16.6263 19.0809 16.8886 18.4004 16.8887H17.5996C17.0475 16.8885 16.5996 16.4408 16.5996 15.8887C16.5997 15.3366 17.0476 14.8889 17.5996 14.8887H18.4004C18.5683 14.8886 18.7236 14.8232 18.834 14.7158C18.9435 14.6093 19 14.4711 19 14.333Z"/></svg>