<svg width="24" height="24" viewBox="0 0 24 24" xmlns="http://www.w3.org/2000/svg" fill="#cacaca"><path d="M8.625 3.87891L3.52734 8.13281C3.17578 7.61719 3 7.01953 3 6.33984C3.02344 5.40234 3.35156 4.61719 3.98438 3.98438C4.61719 3.35156 5.40234 3.02344 6.33984 3C7.25391 3.02344 8.01562 3.31641 8.625 3.87891ZM12 21C10.1953 20.9766 8.625 20.4492 7.28906 19.418L6.05859 20.6836C5.82422 20.8945 5.55469 21 5.25 21C4.94531 21 4.67578 20.8945 4.44141 20.6836C4.23047 20.4492 4.125 20.1797 4.125 19.875C4.125 19.5703 4.23047 19.3008 4.44141 19.0664L5.70703 17.8359C4.67578 16.5 4.14844 14.9297 4.125 13.125C4.14844 11.6484 4.51172 10.3242 5.21484 9.15234C5.89453 7.95703 6.83203 7.01953 8.02734 6.33984C9.19922 5.63672 10.5234 5.27344 12 5.25C13.4766 5.27344 14.8008 5.63672 15.9727 6.33984C17.168 7.01953 18.1055 7.95703 18.7852 9.15234C19.4883 10.3242 19.8516 11.6484 19.875 13.125C19.8516 14.9297 19.3359 16.5 18.3281 17.8359L19.5586 19.0664C19.7695 19.3008 19.875 19.5703 19.875 19.875C19.875 20.1797 19.7695 20.4492 19.5586 20.6836C19.3242 20.8945 19.0547 21 18.75 21C18.4453 21 18.1758 20.8945 17.9414 20.6836L16.7109 19.418C15.375 20.4492 13.8047 20.9766 12 21ZM20.4727 8.13281L15.375 3.87891C15.9844 3.31641 16.7461 3.02344 17.6602 3C18.5977 3.02344 19.3828 3.35156 20.0156 3.98438C20.6484 4.61719 20.9766 5.40234 21 6.33984C21 7.01953 20.8242 7.61719 20.4727 8.13281ZM12.8438 9.46875C12.7969 8.95312 12.5156 8.67188 12 8.625C11.4844 8.67188 11.2031 8.95312 11.1562 9.46875V13.125C11.1562 13.3594 11.2383 13.5586 11.4023 13.7227L13.0898 15.4102C13.4883 15.7383 13.8867 15.7383 14.2852 15.4102C14.6133 15.0117 14.6133 14.6133 14.2852 14.2148L12.8438 12.7734V9.46875Z"/></svg>