<svg width="24" height="24" viewBox="0 0 24 24" xmlns="http://www.w3.org/2000/svg" fill="#cacaca"><path d="M4.13268 3.85172C4.17951 3.33659 4.46049 3.05562 4.97561 3.00879H19.0244C19.5395 3.05562 19.8205 3.33659 19.8673 3.85172C19.8205 4.36684 19.5395 4.64781 19.0244 4.69464H4.97561C4.46049 4.64781 4.17951 4.36684 4.13268 3.85172ZM4.69463 8.6283H19.3054C19.8205 8.6283 20.242 8.81562 20.5698 9.19025C20.8976 9.5883 21.038 10.0332 20.9912 10.5249L19.8673 19.5161C19.7971 19.9376 19.6098 20.2888 19.3054 20.5698C19.001 20.8507 18.6263 20.9912 18.1815 20.9912H5.81854C5.37366 20.9912 4.99902 20.8507 4.69463 20.5698C4.39024 20.2888 4.20293 19.9376 4.13268 19.5161L3.00878 10.5249C2.96195 10.0332 3.10244 9.5883 3.43024 9.19025C3.75805 8.81562 4.17951 8.6283 4.69463 8.6283ZM18.4624 15.0907C18.4156 13.7327 17.7834 12.6088 16.5659 11.719C15.3483 10.8059 13.8263 10.3376 12 10.3142C10.1737 10.3376 8.65171 10.8059 7.43415 11.719C6.21659 12.6088 5.58439 13.7327 5.53756 15.0907C5.58439 16.4488 6.21659 17.5727 7.43415 18.4624C8.65171 19.3756 10.1737 19.8439 12 19.8673C13.8263 19.8439 15.3483 19.3756 16.5659 18.4624C17.7834 17.5727 18.4156 16.4488 18.4624 15.0907ZM12 16.2146C11.6722 16.2146 11.4029 16.1327 11.1922 15.9688C10.9815 15.8049 10.8761 15.6059 10.8761 15.3717C10.8761 15.1376 10.9815 14.9385 11.1922 14.7746C11.4029 14.6107 11.6722 14.5288 12 14.5288C12.3278 14.5288 12.5971 14.6107 12.8078 14.7746C13.0185 14.9385 13.1239 15.1376 13.1239 15.3717C13.1239 15.6059 13.0185 15.8049 12.8078 15.9688C12.5971 16.1327 12.3278 16.2146 12 16.2146ZM4.41366 5.81855H19.5863C20.1015 5.86537 20.3824 6.14635 20.4293 6.66147C20.3824 7.17659 20.1015 7.45757 19.5863 7.5044H4.41366C3.89854 7.45757 3.61756 7.17659 3.57073 6.66147C3.61756 6.14635 3.89854 5.86537 4.41366 5.81855Z"/></svg>