<svg width="24" height="24" viewBox="0 0 24 24" xmlns="http://www.w3.org/2000/svg" fill="#cacaca"><path d="M14.8975 3C15.4279 3 15.9365 3.2109 16.3115 3.58594L20.4141 7.68848C20.7891 8.06354 21 8.57213 21 9.10254V14.8975C21 15.4279 20.7891 15.9365 20.4141 16.3115L16.3115 20.4141C15.9365 20.7891 15.4279 21 14.8975 21H9.10254C8.57213 21 8.06354 20.7891 7.68848 20.4141L3.58594 16.3115C3.2109 15.9365 3 15.4279 3 14.8975V9.10254C3 8.57213 3.2109 8.06354 3.58594 7.68848L7.68848 3.58594C8.06354 3.2109 8.57213 3 9.10254 3H14.8975ZM12 15C11.4477 15 11 15.4477 11 16C11 16.5523 11.4477 17 12 17C12.5523 17 13 16.5523 13 16C13 15.4477 12.5523 15 12 15ZM12 7C11.4477 7 11 7.44772 11 8V12C11 12.5523 11.4477 13 12 13C12.5523 13 13 12.5523 13 12V8C13 7.44772 12.5523 7 12 7Z"/></svg>