<svg width="24" height="24" viewBox="0 0 24 24" xmlns="http://www.w3.org/2000/svg" fill="#cacaca"><path fill-rule="evenodd" clip-rule="evenodd" d="M11.9998 2.94849C12.4726 2.94849 12.9364 3.07351 13.3455 3.30981C13.7032 3.51653 14.0077 3.80191 14.239 4.14185L14.3338 4.29028L14.3367 4.29517L21.6326 16.7932L21.6404 16.8069C21.8751 17.224 21.9984 17.6948 21.9998 18.1731C22.0011 18.6515 21.8807 19.1238 21.6482 19.5422C21.4156 19.9608 21.0783 20.3129 20.6677 20.5608C20.2569 20.8088 19.7877 20.943 19.3074 20.9485H4.69215C4.21181 20.943 3.74259 20.8088 3.3318 20.5608C2.92119 20.3129 2.58389 19.9608 2.35133 19.5422C2.11885 19.1238 1.99846 18.6515 1.99977 18.1731C2.00109 17.6948 2.12448 17.224 2.35914 16.8069L2.36695 16.7932L9.66285 4.29517L9.66578 4.29028C9.90566 3.88456 10.2453 3.54599 10.6541 3.30981C11.0631 3.07351 11.5269 2.94849 11.9998 2.94849ZM13.0086 16.4133C13.0086 15.8611 12.5608 15.4134 12.0086 15.4133H11.9998C11.4475 15.4133 10.9998 15.861 10.9998 16.4133C10.9999 16.9655 11.4475 17.4133 11.9998 17.4133H12.0086C12.5607 17.4132 13.0085 16.9655 13.0086 16.4133ZM10.9998 9.34204V12.8782C11 13.4303 11.4476 13.8782 11.9998 13.8782C12.5519 13.8782 12.9995 13.4303 12.9998 12.8782V9.34204C12.9996 8.78992 12.5519 8.34205 11.9998 8.34204C11.4476 8.34204 11 8.78992 10.9998 9.34204Z"/></svg>