<svg width="24" height="24" viewBox="0 0 24 24" xmlns="http://www.w3.org/2000/svg" fill="#cacaca"><path d="M17.7071 9.58696C18.0732 9.22084 18.0958 8.64184 17.7754 8.24907L17.7071 8.1729L12.7071 3.1729C12.3166 2.78237 11.6835 2.78237 11.293 3.1729L6.29302 8.1729C5.90249 8.56342 5.90249 9.19644 6.29302 9.58696C6.68354 9.97749 7.31655 9.97749 7.70708 9.58696L12 5.29399L16.293 9.58696L16.3692 9.65532C16.762 9.97567 17.341 9.95308 17.7071 9.58696Z"/><path d="M17.7754 15.5108C18.0958 15.118 18.0732 14.539 17.7071 14.1729C17.341 13.8068 16.762 13.7842 16.3692 14.1045L16.293 14.1729L12 18.4659L7.70708 14.1729C7.31655 13.7824 6.68354 13.7824 6.29302 14.1729C5.90249 14.5634 5.90249 15.1964 6.29302 15.587L11.293 20.587C11.6835 20.9775 12.3166 20.9775 12.7071 20.587L17.7071 15.587L17.7754 15.5108Z"/></svg>