<svg width="24" height="24" viewBox="0 0 24 24" xmlns="http://www.w3.org/2000/svg" fill="#cacaca"><path fill-rule="evenodd" clip-rule="evenodd" d="M12 19C15.866 19 19 15.866 19 12C19 8.13401 15.866 5 12 5C8.13401 5 5 8.13401 5 12C5 15.866 8.13401 19 12 19ZM12 3C16.9706 3 21 7.02944 21 12C21 16.9706 16.9706 21 12 21C7.02944 21 3 16.9706 3 12C3 7.02944 7.02944 3 12 3Z"/><path fill-rule="evenodd" clip-rule="evenodd" d="M19 12C19 15.866 15.866 19 12 19C8.13401 19 5 15.866 5 12C5 8.13401 8.13401 5 12 5C15.866 5 19 8.13401 19 12ZM11 12.7861V8.7998C11.0001 8.24761 11.4478 7.7998 12 7.7998C12.5522 7.7998 12.9999 8.24761 13 8.7998V12.7861L14.4932 11.293L14.5684 11.2246C14.9611 10.9039 15.541 10.9267 15.9072 11.293C16.2732 11.6591 16.2958 12.2381 15.9756 12.6309L15.9072 12.707L12.707 15.9072C12.3409 16.2732 11.7619 16.2958 11.3691 15.9756L11.293 15.9072L8.09277 12.707C7.70238 12.3165 7.70238 11.6835 8.09277 11.293C8.48327 10.9025 9.1163 10.9025 9.50684 11.293L11 12.7861Z"/></svg>