<svg width="24" height="24" viewBox="0 0 24 24" xmlns="http://www.w3.org/2000/svg" fill="#cacaca"><path fill-rule="evenodd" clip-rule="evenodd" d="M12 5C15.866 5 19 8.13401 19 12C19 15.866 15.866 19 12 19C8.13401 19 5 15.866 5 12C5 8.13401 8.13401 5 12 5ZM12 21C16.9706 21 21 16.9706 21 12C21 7.02944 16.9706 3 12 3C7.02944 3 3 7.02944 3 12C3 16.9706 7.02944 21 12 21Z"/><path fill-rule="evenodd" clip-rule="evenodd" d="M19 12C19 8.13401 15.866 5 12 5C8.13401 5 5 8.13401 5 12C5 15.866 8.13401 19 12 19C15.866 19 19 15.866 19 12ZM11 11.2139V15.2002C11.0001 15.7524 11.4478 16.2002 12 16.2002C12.5522 16.2002 12.9999 15.7524 13 15.2002V11.2139L14.4932 12.707L14.5684 12.7754C14.9611 13.0961 15.541 13.0733 15.9072 12.707C16.2732 12.3409 16.2958 11.7619 15.9756 11.3691L15.9072 11.293L12.707 8.09277C12.3409 7.72678 11.7619 7.70417 11.3691 8.02441L11.293 8.09277L8.09277 11.293C7.70238 11.6835 7.70238 12.3165 8.09277 12.707C8.48327 13.0975 9.1163 13.0975 9.50684 12.707L11 11.2139Z"/></svg>