<svg width="24" height="24" viewBox="0 0 24 24" xmlns="http://www.w3.org/2000/svg" fill="#cacaca"><path d="M11.209 4.45898C11.6309 4.00195 12.3692 4.00195 12.791 4.45898L17.291 8.95898C17.6074 9.27539 17.7129 9.76758 17.5371 10.1895C17.3614 10.6113 16.9746 10.8926 16.5176 10.8926H7.5176C7.06057 10.8926 6.6387 10.6113 6.46291 10.1895C6.28713 9.76758 6.3926 9.27539 6.70901 8.95898L11.209 4.45898ZM11.209 19.541L6.70901 15.041C6.3926 14.7246 6.28713 14.2324 6.46291 13.8105C6.6387 13.3887 7.06057 13.1074 7.5176 13.1074H16.5176C16.9395 13.1074 17.3614 13.3887 17.5371 13.8105C17.7129 14.2324 17.6074 14.7246 17.291 15.041L12.791 19.541C12.3692 19.998 11.6309 19.998 11.209 19.541Z"/></svg>