<svg width="24" height="24" viewBox="0 0 24 24" xmlns="http://www.w3.org/2000/svg" fill="#cacaca"><path d="M11.952 11.6364C11.952 12.5767 11.7759 13.3821 11.4236 14.0526C11.0742 14.7202 10.5969 15.2316 9.99182 15.5867C9.38955 15.9418 8.70631 16.1194 7.9421 16.1194C7.1779 16.1194 6.49324 15.9418 5.88813 15.5867C5.28585 15.2287 4.80858 14.7159 4.45631 14.0483C4.10688 13.3779 3.93216 12.5739 3.93216 11.6364C3.93216 10.6961 4.10688 9.89208 4.45631 9.22447C4.80858 8.55401 5.28585 8.04123 5.88813 7.68611C6.49324 7.331 7.1779 7.15344 7.9421 7.15344C8.70631 7.15344 9.38955 7.331 9.99182 7.68611C10.5969 8.04123 11.0742 8.55401 11.4236 9.22447C11.7759 9.89208 11.952 10.6961 11.952 11.6364ZM10.3626 11.6364C10.3626 10.9745 10.2589 10.4162 10.0515 9.96168C9.84693 9.50429 9.56284 9.15912 9.1992 8.92617C8.83557 8.69037 8.41653 8.57248 7.9421 8.57248C7.46767 8.57248 7.04864 8.69037 6.685 8.92617C6.32136 9.15912 6.03585 9.50429 5.82847 9.96168C5.62392 10.4162 5.52165 10.9745 5.52165 11.6364C5.52165 12.2983 5.62392 12.858 5.82847 13.3154C6.03585 13.7699 6.32136 14.1151 6.685 14.3509C7.04864 14.5838 7.46767 14.7003 7.9421 14.7003C8.41653 14.7003 8.83557 14.5838 9.1992 14.3509C9.56284 14.1151 9.84693 13.7699 10.0515 13.3154C10.2589 12.858 10.3626 12.2983 10.3626 11.6364Z"/><path d="M13.4467 16V7.27276H15.0277V11.2827H15.1342L18.539 7.27276H20.4694L17.0944 11.189L20.4993 16H18.5987L15.995 12.2586L15.0277 13.4006V16H13.4467Z"/></svg>