<svg width="24" height="24" viewBox="0 0 24 24" xmlns="http://www.w3.org/2000/svg" fill="#cacaca"><path d="M14.7803 12.253C15.193 11.8861 15.8245 11.9232 16.1914 12.336L19.7471 16.336C20.0839 16.7149 20.0839 17.2852 19.7471 17.6641L16.1914 21.6641C15.8245 22.0768 15.193 22.114 14.7803 21.7471C14.3676 21.3802 14.3304 20.7487 14.6973 20.336L16.7734 18H5C4.44772 18 4 17.5523 4 17C4 16.4477 4.44772 16 5 16H16.7734L14.6973 13.6641L14.6328 13.585C14.3359 13.1741 14.3933 12.597 14.7803 12.253ZM7.80859 2.33597C8.17552 1.92324 8.80696 1.88606 9.21973 2.25296C9.63243 2.61987 9.66958 3.25133 9.30273 3.66409L7.22656 6.00003H19L19.1025 6.00491C19.6067 6.05624 20 6.48235 20 7.00003C20 7.51771 19.6067 7.94382 19.1025 7.99515L19 8.00003H7.22656L9.30273 10.336L9.36719 10.4151C9.66409 10.826 9.60672 11.403 9.21973 11.7471C8.83273 12.0911 8.25317 12.0802 7.87988 11.7373L7.80859 11.6641L4.25293 7.66409C3.91614 7.28521 3.91614 6.71485 4.25293 6.33597L7.80859 2.33597Z"/></svg>