<svg width="24" height="24" viewBox="0 0 24 24" xmlns="http://www.w3.org/2000/svg" fill="#cacaca"><path d="M19.541 11.209C19.998 11.6309 19.998 12.3692 19.541 12.791L15.041 17.291C14.7246 17.6074 14.2324 17.7129 13.8105 17.5371C13.3886 17.3614 13.1074 16.9746 13.1074 16.5176L13.1074 7.5176C13.1074 7.06057 13.3886 6.6387 13.8105 6.46291C14.2324 6.28713 14.7246 6.3926 15.041 6.70901L19.541 11.209ZM4.45895 11.209L8.95895 6.70901C9.27536 6.3926 9.76755 6.28713 10.1894 6.46291C10.6113 6.6387 10.8925 7.06057 10.8925 7.5176L10.8925 16.5176C10.8925 16.9395 10.6113 17.3614 10.1894 17.5371C9.76755 17.7129 9.27536 17.6074 8.95895 17.291L4.45895 12.791C4.00192 12.3692 4.00192 11.6309 4.45895 11.209Z"/></svg>