<svg width="24" height="24" viewBox="0 0 24 24" xmlns="http://www.w3.org/2000/svg" fill="#cacaca"><path d="M8.31625 19.8954C8.07029 20.1413 7.77513 20.2643 7.43078 20.2643C7.08643 20.2643 6.79128 20.1413 6.54532 19.8954L3.2986 16.3535C3.07723 16.083 2.97885 15.8001 3.00345 15.5049C3.02804 15.1852 3.15102 14.9023 3.37239 14.6564C3.64295 14.435 3.92581 14.3366 4.22096 14.3612C4.54072 14.3858 4.82357 14.5088 5.06954 14.7302L6.25016 16.0584V4.91622C6.25016 4.57187 6.36084 4.28901 6.58221 4.06765C6.80358 3.84628 7.08643 3.7356 7.43078 3.7356C7.77513 3.7356 8.05799 3.84628 8.27936 4.06765C8.50072 4.28901 8.61141 4.57187 8.61141 4.91622V16.0584L9.79203 14.7302C10.038 14.5088 10.3209 14.3858 10.6406 14.3612C10.9358 14.3366 11.2186 14.435 11.4892 14.6564C11.7105 14.9023 11.8335 15.1729 11.8581 15.468C11.8827 15.7878 11.7843 16.083 11.563 16.3535L8.31625 19.8954ZM13.3339 14.3612C13.3339 14.0169 13.4446 13.734 13.666 13.5126C13.8873 13.2913 14.1702 13.1806 14.5145 13.1806H19.237C19.7535 13.2052 20.1225 13.4511 20.3439 13.9185C20.516 14.3858 20.4299 14.8162 20.0856 15.2098L17.3554 17.9031H19.237C19.5814 17.9031 19.8642 18.0138 20.0856 18.2351C20.307 18.4565 20.4176 18.7394 20.4176 19.0837C20.4176 19.4281 20.307 19.7109 20.0856 19.9323C19.8642 20.1536 19.5814 20.2643 19.237 20.2643H14.5145C13.998 20.2397 13.6291 19.9938 13.4077 19.5264C13.2355 19.0591 13.3216 18.6287 13.666 18.2351L16.3961 15.5418H14.5145C14.1702 15.5418 13.8873 15.4311 13.666 15.2098C13.4446 14.9884 13.3339 14.7056 13.3339 14.3612ZM16.8758 3.7356C17.3431 3.76019 17.6997 3.98156 17.9457 4.3997L20.8973 10.3028C21.0203 10.598 21.0326 10.8931 20.9342 11.1883C20.8358 11.4834 20.639 11.7171 20.3439 11.8893C20.0487 12.0123 19.7535 12.0246 19.4584 11.9262C19.1632 11.8278 18.9296 11.631 18.7574 11.3359L18.4991 10.8193H15.2524L14.9942 11.3359C14.822 11.631 14.5883 11.8278 14.2932 11.9262C13.998 12.0246 13.7028 12.0123 13.4077 11.8893C13.1125 11.7171 12.9158 11.4834 12.8174 11.1883C12.719 10.8931 12.7313 10.598 12.8543 10.3028L15.8058 4.3997C16.0518 3.98156 16.4084 3.76019 16.8758 3.7356ZM16.1379 9.0484H17.6137L16.8758 7.57262L16.1379 9.0484Z"/></svg>