<svg width="24" height="24" viewBox="0 0 24 24" xmlns="http://www.w3.org/2000/svg" fill="#cacaca"><path d="M12 5.25C10.0781 5.29688 8.48438 5.95312 7.21875 7.21875C5.95312 8.48438 5.29688 10.0781 5.25 12C5.29688 13.9219 5.95312 15.5156 7.21875 16.7812C8.48438 18.0469 10.0781 18.7031 12 18.75C12.3281 18.75 12.5977 18.8555 12.8086 19.0664C13.0195 19.2773 13.125 19.5469 13.125 19.875C13.125 20.2031 13.0195 20.4727 12.8086 20.6836C12.5977 20.8945 12.3281 21 12 21C10.3125 20.9766 8.80078 20.5664 7.46484 19.7695C6.10547 18.9727 5.02734 17.8945 4.23047 16.5352C3.43359 15.1992 3.02344 13.6875 3 12C3.02344 10.3125 3.43359 8.80078 4.23047 7.46484C5.02734 6.10547 6.10547 5.02734 7.46484 4.23047C8.80078 3.43359 10.3125 3.02344 12 3C13.6875 3.02344 15.1992 3.43359 16.5352 4.23047C17.8945 5.02734 18.9727 6.10547 19.7695 7.46484C20.5664 8.80078 20.9766 10.3125 21 12V13.125C20.9766 14.0859 20.6484 14.8828 20.0156 15.5156C19.3828 16.1484 18.5859 16.4766 17.625 16.5C16.5703 16.4766 15.7148 16.0781 15.0586 15.3047C14.2148 16.0781 13.1953 16.4766 12 16.5C10.7344 16.4766 9.66797 16.043 8.80078 15.1992C7.95703 14.332 7.52344 13.2656 7.5 12C7.52344 10.7344 7.95703 9.66797 8.80078 8.80078C9.66797 7.95703 10.7344 7.52344 12 7.5C13.0078 7.52344 13.8867 7.80469 14.6367 8.34375C14.8242 8.15625 15.0703 8.0625 15.375 8.0625C15.7031 8.0625 15.9727 8.16797 16.1836 8.37891C16.3945 8.58984 16.5 8.85938 16.5 9.1875V13.125C16.5 13.4531 16.6055 13.7227 16.8164 13.9336C17.0273 14.1445 17.2969 14.25 17.625 14.25C17.9531 14.25 18.2227 14.1445 18.4336 13.9336C18.6445 13.7227 18.75 13.4531 18.75 13.125V12C18.7031 10.0781 18.0469 8.48438 16.7812 7.21875C15.5156 5.95312 13.9219 5.29688 12 5.25ZM14.25 12C14.2266 11.1562 13.8516 10.5117 13.125 10.0664C12.375 9.64453 11.625 9.64453 10.875 10.0664C10.1484 10.5117 9.77344 11.1562 9.75 12C9.77344 12.8438 10.1484 13.4883 10.875 13.9336C11.625 14.3555 12.375 14.3555 13.125 13.9336C13.8516 13.4883 14.2266 12.8438 14.25 12Z"/></svg>