<svg width="24" height="24" viewBox="0 0 24 24" xmlns="http://www.w3.org/2000/svg" fill="#cacaca"><path d="M18.375 17.7813L13 13.3125V10.6875L18.375 6.21877C18.6875 5.96877 19.0417 5.92711 19.4375 6.09377C19.7917 6.28127 19.9792 6.58336 20 7.00002V17C19.9792 17.4167 19.7917 17.7188 19.4375 17.9063C19.0417 18.0729 18.6875 18.0313 18.375 17.7813ZM12 17C11.9792 17.4167 11.7917 17.7188 11.4375 17.9063C11.0417 18.0729 10.6875 18.0313 10.375 17.7813L4.375 12.7813C4.125 12.5729 4 12.3125 4 12C4 11.6875 4.125 11.4271 4.375 11.2188L10.375 6.21877C10.6875 5.96877 11.0417 5.92711 11.4375 6.09377C11.7917 6.28127 11.9792 6.58336 12 7.00002V17Z"/></svg>