<svg width="24" height="24" viewBox="0 0 24 24" xmlns="http://www.w3.org/2000/svg" fill="#cacaca"><path d="M20.3672 18.8835C19.9219 19.0777 19.5234 19.0291 19.1719 18.7378L13.125 13.5297V17.8273C13.1016 18.3129 12.8906 18.6649 12.4922 18.8835C12.0469 19.0777 11.6484 19.0291 11.2969 18.7378L5.25 13.5297V17.8273C5.25 18.1672 5.14453 18.4464 4.93359 18.6649C4.72266 18.8835 4.45312 18.9927 4.125 18.9927C3.79688 18.9927 3.52734 18.8835 3.31641 18.6649C3.10547 18.4464 3 18.1672 3 17.8273V6.17274C3 5.83281 3.10547 5.55359 3.31641 5.33507C3.52734 5.11655 3.79688 5.00728 4.125 5.00728C4.45312 5.00728 4.72266 5.11655 4.93359 5.33507C5.14453 5.55359 5.25 5.83281 5.25 6.17274V10.4703L11.2969 5.26223C11.6484 4.97086 12.0469 4.9223 12.4922 5.11655C12.8906 5.33507 13.1016 5.68713 13.125 6.17274V10.4703L19.1719 5.26223C19.5234 4.97086 19.9219 4.9223 20.3672 5.11655C20.7656 5.33507 20.9766 5.68713 21 6.17274V17.8273C20.9766 18.3129 20.7656 18.6649 20.3672 18.8835Z"/></svg>