<svg width="24" height="24" viewBox="0 0 24 24" xmlns="http://www.w3.org/2000/svg" fill="#cacaca"><path d="M15.375 17.7813L9 12.4688V17C9 17.2917 8.90625 17.5313 8.71875 17.7188C8.53125 17.9063 8.29167 18 8 18C7.70833 18 7.46875 17.9063 7.28125 17.7188C7.09375 17.5313 7 17.2917 7 17V7.00002C7 6.70836 7.09375 6.46877 7.28125 6.28127C7.46875 6.09377 7.70833 6.00002 8 6.00002C8.29167 6.00002 8.53125 6.09377 8.71875 6.28127C8.90625 6.46877 9 6.70836 9 7.00002V11.5313L15.375 6.21877C15.6875 5.96877 16.0417 5.92711 16.4375 6.09377C16.7917 6.28127 16.9792 6.58336 17 7.00002V17C16.9792 17.4167 16.7917 17.7188 16.4375 17.9063C16.0417 18.0729 15.6875 18.0313 15.375 17.7813Z"/></svg>