<svg width="24" height="24" viewBox="0 0 24 24" xmlns="http://www.w3.org/2000/svg" fill="#cacaca"><path d="M15.9023 17.5195L6.51562 8.09766C5.69531 9.22266 5.27344 10.5234 5.25 12C5.29688 13.9219 5.95312 15.5156 7.21875 16.7812C8.48438 18.0469 10.0781 18.7031 12 18.75C13.4766 18.7266 14.7773 18.3164 15.9023 17.5195ZM17.5195 15.9023C18.3164 14.7773 18.7266 13.4766 18.75 12C18.7031 10.0781 18.0469 8.48438 16.7812 7.21875C15.5156 5.95312 13.9219 5.29688 12 5.25C10.5234 5.27344 9.22266 5.69531 8.09766 6.51562L17.5195 15.9023ZM3 12C3.02344 10.3594 3.42188 8.85938 4.19531 7.5C4.99219 6.14062 6.09375 5.03906 7.5 4.19531C8.92969 3.39844 10.4297 3 12 3C13.5703 3 15.0703 3.39844 16.5 4.19531C17.9062 5.03906 19.0078 6.14062 19.8047 7.5C20.5781 8.85938 20.9766 10.3594 21 12C20.9766 13.6406 20.5781 15.1406 19.8047 16.5C19.0078 17.8594 17.9062 18.9609 16.5 19.8047C15.0703 20.6016 13.5703 21 12 21C10.4297 21 8.92969 20.6016 7.5 19.8047C6.09375 18.9609 4.99219 17.8594 4.19531 16.5C3.42188 15.1406 3.02344 13.6406 3 12Z"/></svg>