<svg width="24" height="24" viewBox="0 0 24 24" xmlns="http://www.w3.org/2000/svg" fill="#cacaca"><path d="M4.75 5H5.25C5.70833 5.04167 5.95833 5.29167 6 5.75V18.25C5.95833 18.7083 5.70833 18.9583 5.25 19H4.75C4.29167 18.9583 4.04167 18.7083 4 18.25V5.75C4.04167 5.29167 4.29167 5.04167 4.75 5ZM7.5 5C7.8125 5.02083 7.97917 5.1875 8 5.5V18.5C7.97917 18.8125 7.8125 18.9792 7.5 19C7.1875 18.9792 7.02083 18.8125 7 18.5V5.5C7.02083 5.1875 7.1875 5.02083 7.5 5ZM9.75 5H10.25C10.7083 5.04167 10.9583 5.29167 11 5.75V18.25C10.9583 18.7083 10.7083 18.9583 10.25 19H9.75C9.29167 18.9583 9.04167 18.7083 9 18.25V5.75C9.04167 5.29167 9.29167 5.04167 9.75 5ZM12.75 5H13.25C13.7083 5.04167 13.9583 5.29167 14 5.75V18.25C13.9583 18.7083 13.7083 18.9583 13.25 19H12.75C12.2917 18.9583 12.0417 18.7083 12 18.25V5.75C12.0417 5.29167 12.2917 5.04167 12.75 5ZM18 5.75C18.0417 5.29167 18.2917 5.04167 18.75 5H19.25C19.7083 5.04167 19.9583 5.29167 20 5.75V18.25C19.9583 18.7083 19.7083 18.9583 19.25 19H18.75C18.2917 18.9583 18.0417 18.7083 18 18.25V5.75ZM16 5.5C16.0208 5.1875 16.1875 5.02083 16.5 5C16.8125 5.02083 16.9792 5.1875 17 5.5V18.5C16.9792 18.8125 16.8125 18.9792 16.5 19C16.1875 18.9792 16.0208 18.8125 16 18.5V5.5Z"/></svg>