<svg width="24" height="24" viewBox="0 0 24 24" xmlns="http://www.w3.org/2000/svg" fill="#cacaca"><path d="M4 6.28568C4 5.95235 4.10714 5.67854 4.32143 5.46425C4.53571 5.24997 4.80952 5.14282 5.14286 5.14282H18.8571C19.1905 5.14282 19.4643 5.24997 19.6786 5.46425C19.8929 5.67854 20 5.95235 20 6.28568C20 6.61901 19.8929 6.89282 19.6786 7.10711C19.4643 7.32139 19.1905 7.42854 18.8571 7.42854H5.14286C4.80952 7.42854 4.53571 7.32139 4.32143 7.10711C4.10714 6.89282 4 6.61901 4 6.28568ZM6.28571 12C6.28571 11.6666 6.39286 11.3928 6.60714 11.1785C6.82143 10.9643 7.09524 10.8571 7.42857 10.8571H16.5714C16.9048 10.8571 17.1786 10.9643 17.3929 11.1785C17.6071 11.3928 17.7143 11.6666 17.7143 12C17.7143 12.3333 17.6071 12.6071 17.3929 12.8214C17.1786 13.0357 16.9048 13.1428 16.5714 13.1428H7.42857C7.09524 13.1428 6.82143 13.0357 6.60714 12.8214C6.39286 12.6071 6.28571 12.3333 6.28571 12ZM14.2857 17.7143C14.2857 18.0476 14.1786 18.3214 13.9643 18.5357C13.75 18.75 13.4762 18.8571 13.1429 18.8571H10.8571C10.5238 18.8571 10.25 18.75 10.0357 18.5357C9.82143 18.3214 9.71429 18.0476 9.71429 17.7143C9.71429 17.3809 9.82143 17.1071 10.0357 16.8928C10.25 16.6785 10.5238 16.5714 10.8571 16.5714H13.1429C13.4762 16.5714 13.75 16.6785 13.9643 16.8928C14.1786 17.1071 14.2857 17.3809 14.2857 17.7143Z"/></svg>