<svg width="24" height="24" viewBox="0 0 24 24" xmlns="http://www.w3.org/2000/svg" fill="#cacaca"><path d="M18 9V8H14V9H18ZM5.5 6H18.5C18.9167 6.02083 19.2708 6.16667 19.5625 6.4375C19.8333 6.72917 19.9792 7.08333 20 7.5V9.5C19.9792 9.91667 19.8333 10.2708 19.5625 10.5625C19.2708 10.8333 18.9167 10.9792 18.5 11H5.5C5.08333 10.9792 4.72917 10.8333 4.4375 10.5625C4.16667 10.2708 4.02083 9.91667 4 9.5V7.5C4.02083 7.08333 4.16667 6.72917 4.4375 6.4375C4.72917 6.16667 5.08333 6.02083 5.5 6ZM18 15H10V16H18V15ZM5.5 13H18.5C18.9167 13.0208 19.2708 13.1667 19.5625 13.4375C19.8333 13.7292 19.9792 14.0833 20 14.5V16.5C19.9792 16.9167 19.8333 17.2708 19.5625 17.5625C19.2708 17.8333 18.9167 17.9792 18.5 18H5.5C5.08333 17.9792 4.72917 17.8333 4.4375 17.5625C4.16667 17.2708 4.02083 16.9167 4 16.5V14.5C4.02083 14.0833 4.16667 13.7292 4.4375 13.4375C4.72917 13.1667 5.08333 13.0208 5.5 13Z"/></svg>