<svg width="24" height="24" viewBox="0 0 24 24" xmlns="http://www.w3.org/2000/svg" fill="#cacaca"><path d="M5.35938 4.5C6.64844 3.40625 8.17188 2.58594 9.89062 2.23438C10.0469 2.78125 10.125 3.32812 10.125 3.875C10.125 5.39844 9.57812 6.76562 8.67969 7.85938L5.35938 4.5ZM4.5 5.39844L7.82031 8.71875C6.72656 9.61719 5.35938 10.125 3.875 10.125C3.28906 10.125 2.74219 10.0469 2.19531 9.92969C2.58594 8.21094 3.36719 6.64844 4.5 5.39844ZM12 2C14.5 2 16.8438 2.97656 18.6016 4.5L12 11.1406L9.57812 8.71875C10.6719 7.42969 11.375 5.75 11.375 3.875C11.375 3.25 11.2969 2.625 11.1406 2.03906C11.4141 2.03906 11.6875 2 12 2ZM3.875 11.375C5.71094 11.375 7.39062 10.7109 8.71875 9.61719L11.1016 12L4.5 18.6406C2.9375 16.8828 2 14.5391 2 12C2 11.7266 2 11.4531 2 11.1797C2.625 11.2969 3.21094 11.375 3.875 11.375ZM21.9609 12.8594C21.375 12.7031 20.75 12.625 20.125 12.625C18.25 12.625 16.5703 13.3281 15.2812 14.4219L12.8594 12L19.5 5.39844C21.0234 7.15625 22 9.5 22 12C22 12.3125 21.9609 12.5859 21.9609 12.8594ZM21.7656 14.1094C21.4141 15.8281 20.5938 17.3906 19.5 18.6406L16.1406 15.3203C17.2344 14.4219 18.6016 13.875 20.125 13.875C20.6719 13.875 21.2188 13.9531 21.7656 14.1094ZM15.2812 16.1797L18.6016 19.5C17.3516 20.6328 15.7891 21.4141 14.0703 21.8047C13.9531 21.2578 13.875 20.7109 13.875 20.125C13.875 18.6406 14.3828 17.2734 15.2812 16.1797ZM14.3828 15.2812C13.2891 16.6094 12.625 18.2891 12.625 20.125C12.625 20.7891 12.7031 21.375 12.8203 22C12.5469 22 12.2734 22 12 22C9.46094 22 7.11719 21.0625 5.35938 19.5L12 12.8984L14.3828 15.2812Z"/></svg>