<svg width="24" height="24" viewBox="0 0 24 24" xmlns="http://www.w3.org/2000/svg" fill="#cacaca"><path d="M10.9062 5.09208L8.375 9.99833H15.625L13.0938 5.09208C12.9062 4.67541 13.0104 4.34208 13.4062 4.09208C13.8229 3.90458 14.1562 4.00875 14.4062 4.40458L17.3125 9.99833H20C20.2917 9.99833 20.5312 10.0921 20.7188 10.2796C20.9062 10.4671 21 10.7067 21 10.9983C21 11.29 20.9062 11.5296 20.7188 11.7171C20.5312 11.9046 20.2917 11.9983 20 11.9983L18.375 18.4983C18.25 18.9358 18.0104 19.29 17.6562 19.5608C17.3229 19.8525 16.9167 19.9983 16.4375 19.9983H7.5625C7.08333 19.9983 6.67708 19.8525 6.34375 19.5608C5.98958 19.29 5.75 18.9358 5.625 18.4983L4 11.9983C3.70833 11.9983 3.46875 11.9046 3.28125 11.7171C3.09375 11.5296 3 11.29 3 10.9983C3 10.7067 3.09375 10.4671 3.28125 10.2796C3.46875 10.0921 3.70833 9.99833 4 9.99833H6.6875L9.59375 4.40458C9.84375 4.00875 10.1771 3.90458 10.5938 4.09208C10.9896 4.34208 11.0938 4.67541 10.9062 5.09208ZM9 13.4983C8.97917 13.1858 8.8125 13.0192 8.5 12.9983C8.1875 13.0192 8.02083 13.1858 8 13.4983V16.4983C8.02083 16.8108 8.1875 16.9775 8.5 16.9983C8.8125 16.9775 8.97917 16.8108 9 16.4983V13.4983ZM12 12.9983C11.6875 13.0192 11.5208 13.1858 11.5 13.4983V16.4983C11.5208 16.8108 11.6875 16.9775 12 16.9983C12.3125 16.9775 12.4792 16.8108 12.5 16.4983V13.4983C12.4792 13.1858 12.3125 13.0192 12 12.9983ZM16 13.4983C15.9792 13.1858 15.8125 13.0192 15.5 12.9983C15.1875 13.0192 15.0208 13.1858 15 13.4983V16.4983C15.0208 16.8108 15.1875 16.9775 15.5 16.9983C15.8125 16.9775 15.9792 16.8108 16 16.4983V13.4983Z"/></svg>