<svg width="24" height="24" viewBox="0 0 24 24" xmlns="http://www.w3.org/2000/svg" fill="#cacaca"><path d="M12.4745 18.7119C12.7458 18.231 13.3558 18.0608 13.8368 18.332C14.3173 18.6035 14.4876 19.2135 14.2167 19.6944C13.9953 20.0869 13.6748 20.416 13.286 20.6465C12.8969 20.8771 12.453 20.9999 11.9999 21C11.5468 21 11.1029 20.877 10.7137 20.6465C10.3734 20.4448 10.0859 20.1672 9.87097 19.8379L9.78308 19.6944L9.73718 19.6026C9.53409 19.1383 9.71215 18.5865 10.163 18.332C10.6139 18.078 11.1784 18.2111 11.4706 18.625L11.5253 18.7119L11.5682 18.7774C11.6144 18.8388 11.6711 18.8889 11.7333 18.9258C11.8162 18.9748 11.9082 19 11.9999 19C12.0915 18.9999 12.1836 18.9749 12.2665 18.9258C12.3494 18.8765 12.4226 18.8039 12.4745 18.7119Z"/><path d="M12.5878 17.002H4.99988C4.56169 17.002 4.17459 16.7164 4.0448 16.2979C3.91535 15.8798 4.07296 15.4267 4.43347 15.1787H4.43152L4.42956 15.1807L4.42566 15.1836C4.42372 15.185 4.4198 15.1875 4.4198 15.1875L4.41784 15.1885C4.42119 15.1859 4.43219 15.1776 4.44909 15.1631C4.48432 15.1329 4.54736 15.0757 4.62878 14.9873C4.79165 14.8104 5.03314 14.5046 5.28308 14.0332C5.65325 13.3349 6.05237 12.2506 6.23327 10.6475L12.5878 17.002Z"/><path d="M12.2821 3.00685C13.6906 3.07877 15.0224 3.68645 16.0165 4.709C17.0758 5.79887 17.6668 7.27146 17.6669 8.8008C17.6669 11.4584 18.219 13.0944 18.7167 14.0332C18.9667 14.5047 19.2081 14.8105 19.371 14.9873C19.4525 15.0758 19.5155 15.133 19.5507 15.1631C19.568 15.1779 19.579 15.1863 19.5819 15.1885L19.58 15.1875C19.58 15.1875 19.5765 15.1853 19.5741 15.1836L19.5702 15.1807L19.5682 15.1787H19.5663C19.9265 15.4267 20.0843 15.88 19.955 16.2979C19.8253 16.7163 19.4379 17.0018 18.9999 17.002H18.4159L7.1737 5.75978C7.40091 5.38196 7.67215 5.02907 7.98327 4.709C9.04361 3.61842 10.4879 3.00002 11.9999 3.00002L12.2821 3.00685Z"/><path d="M2.29273 3.70704L2.22437 3.63087C1.90402 3.2381 1.92662 2.65909 2.29273 2.29298C2.65885 1.92686 3.23785 1.90427 3.63063 2.22462L3.7068 2.29298C9.70683 8.29301 15.7067 14.2929 21.7068 20.293L21.7752 20.3692C22.0955 20.7619 22.0729 21.3409 21.7068 21.707C21.3407 22.0732 20.7617 22.0958 20.3689 21.7754L20.2927 21.707L2.29273 3.70704Z"/></svg>