<svg width="24" height="24" viewBox="0 0 24 24" xmlns="http://www.w3.org/2000/svg" fill="#cacaca"><path d="M12 3C12.3281 3 12.5976 3.10547 12.8086 3.31641C13.0195 3.52734 13.125 3.79688 13.125 4.125V4.79297C14.4375 5.07422 15.5039 5.71875 16.3242 6.72656C17.1679 7.73438 17.6015 8.92969 17.625 10.3125V10.9805C17.6484 12.6914 18.2226 14.1797 19.3476 15.4453L19.5937 15.7617C19.8984 16.1133 19.957 16.5117 19.7695 16.957C19.5586 17.3789 19.2187 17.6016 18.75 17.625H5.24997C4.78122 17.6016 4.44137 17.3789 4.23043 16.957C4.04293 16.5117 4.10153 16.1133 4.40622 15.7617L4.68747 15.4453C5.78903 14.1562 6.35153 12.668 6.37497 10.9805V10.3125C6.3984 8.92969 6.832 7.73438 7.67575 6.72656C8.49606 5.71875 9.56247 5.07422 10.875 4.79297V4.125C10.875 3.79688 10.9804 3.52734 11.1914 3.31641C11.4023 3.10547 11.6718 3 12 3ZM13.582 20.332C13.1367 20.7773 12.6093 21 12 21C11.3906 21 10.8632 20.7773 10.4179 20.332C9.97262 19.8867 9.74997 19.3594 9.74997 18.75H14.25C14.25 19.3594 14.0273 19.8867 13.582 20.332ZM10.875 14.25C10.875 14.5781 10.9804 14.8477 11.1914 15.0586C11.4023 15.2695 11.6718 15.375 12 15.375C12.3281 15.375 12.5976 15.2695 12.8086 15.0586C13.0195 14.8477 13.125 14.5781 13.125 14.25C13.125 13.9219 13.0195 13.6523 12.8086 13.4414C12.5976 13.2305 12.3281 13.125 12 13.125C11.6718 13.125 11.4023 13.2305 11.1914 13.4414C10.9804 13.6523 10.875 13.9219 10.875 14.25ZM12.8437 7.78125C12.7968 7.26562 12.5156 6.98438 12 6.9375C11.4843 6.98438 11.2031 7.26562 11.1562 7.78125V11.1562C11.2031 11.6719 11.4843 11.9531 12 12C12.5156 11.9531 12.7968 11.6719 12.8437 11.1562V7.78125Z"/></svg>