<svg width="24" height="24" viewBox="0 0 24 24" xmlns="http://www.w3.org/2000/svg" fill="#cacaca"><path d="M12.4745 18.7119C12.7457 18.2308 13.3557 18.0608 13.8368 18.332C14.3176 18.6034 14.4879 19.2134 14.2167 19.6943C13.9952 20.087 13.6749 20.416 13.286 20.6465C12.8967 20.8772 12.4531 21 11.9999 21C11.5466 21 11.103 20.8772 10.7137 20.6465C10.3733 20.4447 10.0859 20.1673 9.87097 19.8379L9.78308 19.6943L9.73718 19.6025C9.53409 19.1382 9.71215 18.5864 10.163 18.332C10.614 18.0777 11.1783 18.2109 11.4706 18.625L11.5253 18.7119L11.5682 18.7773C11.6144 18.8389 11.671 18.8889 11.7333 18.9258C11.8163 18.975 11.9081 19 11.9999 19C12.0917 19 12.1835 18.975 12.2665 18.9258C12.3496 18.8765 12.4225 18.804 12.4745 18.7119ZM15.6669 8.80078C15.6668 7.7839 15.2736 6.81423 14.5829 6.10352C13.9359 5.43797 13.078 5.05059 12.1796 5.00488L11.9999 5C11.0367 5 10.1068 5.39372 9.41687 6.10352C8.72617 6.81423 8.3329 7.7839 8.33288 8.80078L8.32605 9.34082C8.25617 11.9867 7.67685 13.7878 7.04968 14.9707C7.04406 14.9813 7.03773 14.9915 7.0321 15.002H16.9676C16.962 14.9915 16.9557 14.9813 16.9501 14.9707C16.2811 13.7091 15.6669 11.744 15.6669 8.80078ZM17.6669 8.80078C17.6669 11.4584 18.219 13.0944 18.7167 14.0332C18.9667 14.5048 19.2081 14.8104 19.371 14.9873C19.4526 15.076 19.5155 15.1329 19.5507 15.1631C19.5681 15.1781 19.579 15.1862 19.5819 15.1885C19.5833 15.1896 19.5826 15.1894 19.58 15.1875C19.5786 15.1865 19.5765 15.1853 19.5741 15.1836C19.5729 15.1828 19.5716 15.1816 19.5702 15.1807L19.5682 15.1787H19.5663C19.9268 15.4267 20.0844 15.8798 19.955 16.2979C19.8252 16.7164 19.4381 17.002 18.9999 17.002H4.99988C4.56164 17.002 4.17455 16.7164 4.0448 16.2979C3.91535 15.8798 4.07296 15.4267 4.43347 15.1787H4.43152L4.42956 15.1807C4.42815 15.1816 4.42682 15.1828 4.42566 15.1836C4.42326 15.1853 4.42113 15.1865 4.4198 15.1875C4.41714 15.1894 4.41642 15.1896 4.41784 15.1885C4.42078 15.1862 4.43162 15.1781 4.44909 15.1631C4.48426 15.1329 4.54714 15.076 4.62878 14.9873C4.79165 14.8104 5.03303 14.5048 5.28308 14.0332C5.74969 13.1531 6.26454 11.6602 6.32702 9.28711L6.33288 8.80078C6.3329 7.27133 6.92385 5.79887 7.98327 4.70898C9.04363 3.61825 10.4878 3 11.9999 3L12.2821 3.00684C13.6907 3.07864 15.0223 3.68631 16.0165 4.70898C17.0759 5.79887 17.6668 7.27133 17.6669 8.80078Z"/><path d="M15.6669 8.80078C15.6668 7.7839 15.2736 6.81423 14.5829 6.10352C13.9359 5.43797 13.078 5.05059 12.1796 5.00488L11.9999 5C11.0367 5 10.1068 5.39372 9.41687 6.10352C8.72617 6.81423 8.3329 7.7839 8.33288 8.80078L8.32605 9.34082C8.25617 11.9867 7.67685 13.7878 7.04968 14.9707C7.04406 14.9813 7.03773 14.9915 7.0321 15.002H16.9676C16.962 14.9915 16.9557 14.9813 16.9501 14.9707C16.2811 13.7091 15.6669 11.744 15.6669 8.80078Z"/></svg>