<svg width="24" height="24" viewBox="0 0 24 24" xmlns="http://www.w3.org/2000/svg" fill="#cacaca"><path d="M12 3C12.3281 3 12.5977 3.10547 12.8086 3.31641C13.0195 3.52734 13.125 3.79688 13.125 4.125V4.79297C14.4375 5.07422 15.5039 5.71875 16.3242 6.72656C17.168 7.73438 17.6016 8.92969 17.625 10.3125V10.9805C17.6484 12.6914 18.2227 14.1797 19.3477 15.4453L19.5938 15.7617C19.8984 16.1133 19.957 16.5117 19.7695 16.957C19.5586 17.3789 19.2188 17.6016 18.75 17.625H5.25C4.78125 17.6016 4.44141 17.3789 4.23047 16.957C4.04297 16.5117 4.10156 16.1133 4.40625 15.7617L4.6875 15.4453C5.78906 14.1562 6.35156 12.668 6.375 10.9805V10.3125C6.39844 8.92969 6.83203 7.73438 7.67578 6.72656C8.49609 5.71875 9.5625 5.07422 10.875 4.79297V4.125C10.875 3.79688 10.9805 3.52734 11.1914 3.31641C11.4023 3.10547 11.6719 3 12 3ZM13.582 20.332C13.1367 20.7773 12.6094 21 12 21C11.3906 21 10.8633 20.7773 10.418 20.332C9.97266 19.8867 9.75 19.3594 9.75 18.75H14.25C14.25 19.3594 14.0273 19.8867 13.582 20.332ZM0.75 10.0312C0.796875 9.51562 1.07812 9.23438 1.59375 9.1875H4.40625C4.92188 9.23438 5.20312 9.51562 5.25 10.0312C5.20312 10.5469 4.92188 10.8281 4.40625 10.875H1.59375C1.07812 10.8281 0.796875 10.5469 0.75 10.0312ZM19.5938 9.1875H22.4062C22.9219 9.23438 23.2031 9.51562 23.25 10.0312C23.2031 10.5469 22.9219 10.8281 22.4062 10.875H19.5938C19.0781 10.8281 18.7969 10.5469 18.75 10.0312C18.7969 9.51562 19.0781 9.23438 19.5938 9.1875ZM21.7734 3.73828C21.9609 4.23047 21.832 4.61719 21.3867 4.89844L19.1367 6.02344C18.6445 6.21094 18.2695 6.08203 18.0117 5.63672C17.8242 5.14453 17.9414 4.76953 18.3633 4.51172L20.6133 3.38672C21.1055 3.19922 21.4922 3.31641 21.7734 3.73828ZM2.61328 4.89844C2.19141 4.61719 2.07422 4.23047 2.26172 3.73828C2.51953 3.31641 2.89453 3.19922 3.38672 3.38672L5.63672 4.51172C6.05859 4.76953 6.1875 5.14453 6.02344 5.63672C5.74219 6.05859 5.35547 6.1875 4.86328 6.02344L2.61328 4.89844Z"/></svg>