<svg width="24" height="24" viewBox="0 0 24 24" fill="#cacaca" xmlns="http://www.w3.org/2000/svg">
   <path d="M12 3C12.3281 3 12.5977 3.10547 12.8086 3.31641C13.0195 3.52734 13.125 3.79688 13.125 4.125V4.79297C14.4375 5.07422 15.5039 5.71875 16.3242 6.72656C17.168 7.73438 17.6016 8.92969 17.625 10.3125V10.9805C17.6484 12.6914 18.2227 14.1797 19.3477 15.4453L19.5938 15.7617C19.8984 16.1133 19.957 16.5117 19.7695 16.957C19.5586 17.3789 19.2188 17.6016 18.75 17.625H5.25C4.78125 17.6016 4.44141 17.3789 4.23047 16.957C4.04297 16.5117 4.10156 16.1133 4.40625 15.7617L4.6875 15.4453C5.78906 14.1562 6.35156 12.668 6.375 10.9805V10.3125C6.39844 8.92969 6.83203 7.73438 7.67578 6.72656C8.49609 5.71875 9.5625 5.07422 10.875 4.79297V4.125C10.875 3.79688 10.9805 3.52734 11.1914 3.31641C11.4023 3.10547 11.6719 3 12 3ZM13.582 20.332C13.1367 20.7773 12.6094 21 12 21C11.3906 21 10.8633 20.7773 10.418 20.332C9.97266 19.8867 9.75 19.3594 9.75 18.75H14.25C14.25 19.3594 14.0273 19.8867 13.582 20.332ZM6.97266 3.52734C7.30078 3.94922 7.30078 4.34766 6.97266 4.72266C6.24609 5.40234 5.68359 6.19922 5.28516 7.11328C4.88672 8.00391 4.6875 8.97656 4.6875 10.0312C4.64062 10.5469 4.35938 10.8281 3.84375 10.875C3.32812 10.8281 3.04688 10.5469 3 10.0312C3 8.74219 3.24609 7.53516 3.73828 6.41016C4.23047 5.30859 4.92188 4.34766 5.8125 3.52734C6.21094 3.19922 6.59766 3.19922 6.97266 3.52734ZM17.0273 4.72266H17.0625C16.7109 4.34766 16.6992 3.94922 17.0273 3.52734C17.4023 3.19922 17.8008 3.19922 18.2227 3.52734C19.0898 4.34766 19.7695 5.30859 20.2617 6.41016C20.7539 7.53516 21 8.74219 21 10.0312C20.9531 10.5469 20.6719 10.8281 20.1562 10.875C19.6406 10.8281 19.3594 10.5469 19.3125 10.0312C19.3125 8.97656 19.1133 8.00391 18.7148 7.11328C18.3164 6.19922 17.7539 5.40234 17.0273 4.72266Z" /> 
</svg>
