<svg width="24" height="24" viewBox="0 0 24 24" xmlns="http://www.w3.org/2000/svg" fill="#cacaca"><path d="M11.75 5H12.8438C13.2188 5 13.5312 5.21875 13.7188 5.53125L16.7812 11.1875C17.1562 11.0938 17.5625 11 18 11C20.1875 11 22 12.8125 22 15C22 17.2188 20.1875 19 18 19C15.7812 19 14 17.2188 14 15C14 13.75 14.5625 12.6562 15.4688 11.9062L14.7812 10.6562L12.125 15.1562C12 15.375 11.75 15.5 11.5 15.5H9.96875C9.71875 17.5 8.03125 19 6 19C3.78125 19 2 17.2188 2 15C2 12.8125 3.78125 11 6 11C6.3125 11 6.65625 11.0625 6.96875 11.125L7.78125 9.46875L7.09375 8.5H5.75C5.3125 8.5 5 8.1875 5 7.75C5 7.34375 5.3125 7 5.75 7H7.5C7.71875 7 7.96875 7.125 8.09375 7.3125L8.9375 8.5H13.625L12.5312 6.5H11.75C11.3125 6.5 11 6.1875 11 5.75C11 5.34375 11.3125 5 11.75 5ZM16.3125 13.5C15.9688 13.9062 15.75 14.4375 15.75 15C15.75 16.25 16.75 17.25 18 17.25C19.2188 17.25 20.25 16.25 20.25 15C20.25 13.7812 19.2188 12.75 18 12.75C17.875 12.75 17.75 12.7812 17.625 12.7812L18.6562 14.6562C18.8438 15.0312 18.7188 15.4688 18.3438 15.6875C17.9688 15.875 17.5312 15.75 17.3125 15.375L16.3125 13.5ZM6.15625 15.5V15.5312C5.53125 15.5312 5.09375 14.8438 5.375 14.2812L6.15625 12.7812C6.09375 12.7812 6.03125 12.75 6 12.75C4.75 12.75 3.75 13.7812 3.75 15C3.75 16.25 4.75 17.25 6 17.25C7.0625 17.25 7.9375 16.5312 8.1875 15.5H6.15625ZM7.1875 14H11.0625L8.78125 10.8438L7.1875 14ZM10.0312 10L11.9062 12.5938L13.4062 10H10.0312Z"/></svg>