<svg width="24" height="24" viewBox="0 0 24 24" xmlns="http://www.w3.org/2000/svg" fill="#cacaca"><path d="M14.4258 9.26171L12.9141 10.7734L12.8789 7.74999L14.4258 9.26171ZM12.8789 16.9961L14.4258 15.4844L12.9141 13.9726L12.8789 16.9961ZM18.75 12.3555C18.75 14.7461 18.4805 16.5859 17.9414 17.875C17.4258 19.1641 16.6758 20.0547 15.6914 20.5469C14.7305 21.0391 13.582 21.2734 12.2461 21.25C10.9102 21.2734 9.71484 21.0391 8.66016 20.5469C7.60547 20.0547 6.77344 19.1641 6.16406 17.875C5.57812 16.5859 5.27344 14.7461 5.25 12.3555C5.25 9.98827 5.55469 8.13671 6.16406 6.80077C6.75 5.46484 7.55859 4.53905 8.58984 4.02343C9.64453 3.48437 10.8398 3.22655 12.1758 3.24999C14.1914 3.17968 15.7852 3.80077 16.957 5.11327C18.1289 6.40234 18.7266 8.8164 18.75 12.3555ZM13.1953 12.3555L15.9727 9.26171L11.5781 4.55077V10.7383L8.97656 8.17187L8.02734 9.12109L11.2969 12.3906L8.02734 15.6601L8.97656 16.5742L11.5781 14.0078L11.6484 19.9844L16.1133 15.4844L13.1953 12.3555Z"/></svg>