<svg width="24" height="24" viewBox="0 0 24 24" xmlns="http://www.w3.org/2000/svg" fill="#cacaca"><path d="M5.26318 11.9825L6.24564 3.98246C6.31582 3.42105 6.80704 3 7.36845 3H13.2632C13.7895 3 14.2456 3.45614 14.2456 3.98246C14.2456 4.08772 14.2106 4.19298 14.1755 4.29825L12.5614 8.61404H17.4386C18.1404 8.61404 18.7369 9.21053 18.7369 9.91228C18.7369 10.193 18.6316 10.4386 18.4913 10.6491L11.7544 20.5088C11.5439 20.7895 11.193 21 10.8421 21H10.7369C10.1755 21 9.75441 20.5439 9.75441 19.9825C9.75441 19.9123 9.75441 19.807 9.7895 19.7368L11.4386 13.1053H6.38599C5.75441 13.1053 5.26318 12.614 5.26318 11.9825Z"/></svg>