<svg width="24" height="24" viewBox="0 0 24 24" xmlns="http://www.w3.org/2000/svg" fill="#cacaca"><path d="M10.2721 19.9792C9.80882 19.7856 9.25735 19.5919 8.61765 19.3982C7.95588 19.2287 7.33823 19.1319 6.76471 19.1077C6.10294 19.1077 5.40809 19.1924 4.68015 19.3619C3.97426 19.5313 3.34559 19.725 2.79412 19.9429C2.59559 19.9914 2.41912 19.955 2.26471 19.834C2.08824 19.7129 2 19.5435 2 19.3256V5.88846C2.02206 5.40424 2.22059 5.06528 2.59559 4.8716C3.08088 4.67791 3.6875 4.48422 4.41544 4.29053C5.14338 4.09684 5.92647 4 6.76471 4C7.73529 4.02421 8.57353 4.16948 9.27941 4.4358C9.98529 4.70212 10.5037 4.99265 10.8346 5.30739C10.9449 5.40424 11 5.5374 11 5.70687V19.3982C11 19.6161 10.9228 19.7735 10.7684 19.8703C10.614 19.9914 10.4485 20.0277 10.2721 19.9792Z"/><path d="M21.2721 19.9792C20.8088 19.7856 20.2574 19.5919 19.6176 19.3982C18.9559 19.2287 18.3382 19.1319 17.7647 19.1077C17.1029 19.1077 16.4081 19.1924 15.6801 19.3619C14.9743 19.5313 14.3456 19.725 13.7941 19.9429C13.5956 19.9914 13.4191 19.955 13.2647 19.834C13.0882 19.7129 13 19.5435 13 19.3256V5.88846C13.0221 5.40424 13.2206 5.06528 13.5956 4.8716C14.0809 4.67791 14.6875 4.48422 15.4154 4.29053C16.1434 4.09684 16.9265 4 17.7647 4C18.7353 4.02421 19.5735 4.16948 20.2794 4.4358C20.9853 4.70212 21.5037 4.99265 21.8346 5.30739C21.9449 5.40424 22 5.5374 22 5.70687V19.3982C22 19.6161 21.9228 19.7735 21.7684 19.8703C21.614 19.9914 21.4485 20.0277 21.2721 19.9792Z"/></svg>