<svg width="24" height="24" viewBox="0 0 24 24" xmlns="http://www.w3.org/2000/svg" fill="#cacaca"><path fill-rule="evenodd" clip-rule="evenodd" d="M19 1.88C19.5523 1.88 20 2.32772 20 2.88V16.38C20 16.9323 19.5523 17.38 19 17.38H18V19.88H19C19.5523 19.88 20 20.3277 20 20.88C20 21.4323 19.5523 21.88 19 21.88H7.1875C6.33292 21.88 5.51928 21.5305 4.92383 20.9181C4.3293 20.3066 4 19.483 4 18.63V5.13C4 4.277 4.3293 3.45344 4.92383 2.84192C5.51928 2.22949 6.33292 1.88 7.1875 1.88H19ZM6.00586 18.757C6.03421 19.0494 6.15997 19.3203 6.35742 19.5236C6.58243 19.755 6.88179 19.88 7.1875 19.88H16V17.38H7.1875C6.88179 17.38 6.58243 17.505 6.35742 17.7365C6.13167 17.9688 6 18.2897 6 18.63L6.00586 18.757ZM15 9.75989C15.5522 9.75989 15.9999 10.2077 16 10.7599C16 11.3122 15.5523 11.7599 15 11.7599H9C8.44772 11.7599 8 11.3122 8 10.7599C8.00007 10.2077 8.44776 9.75989 9 9.75989H15ZM16 6.75989C15.9999 6.20766 15.5522 5.75989 15 5.75989H9C8.44776 5.75989 8.00007 6.20766 8 6.75989C8 7.31217 8.44772 7.75989 9 7.75989H15C15.5523 7.75989 16 7.31217 16 6.75989Z"/></svg>