<svg width="24" height="24" viewBox="0 0 24 24" xmlns="http://www.w3.org/2000/svg" fill="#cacaca"><path d="M16.4444 5.32037C16.4444 4.10509 17.4167 3.09814 18.6667 3.09814C19.8819 3.09814 20.8889 4.10509 20.8889 5.32037V5.38981C20.8889 5.63287 20.8542 5.87592 20.7847 6.1537L20.1597 8.37592C20.125 8.48009 20.125 8.58426 20.0903 8.6537H17.2083C17.2083 8.58426 17.1736 8.48009 17.1389 8.37592L16.5139 6.1537C16.4444 5.87592 16.4444 5.63287 16.4444 5.38981V5.32037ZM17.2083 9.76481H20.0903C20.125 10.0079 20.1597 10.2162 20.2292 10.4245L21.6528 14.2093C21.8611 14.8343 22 15.494 22 16.1537C22 16.8481 21.8611 17.5426 21.5833 18.2023L20.7847 20.1815C20.6111 20.5981 20.2292 20.8759 19.7778 20.8759H17.5556C17.0694 20.8759 16.6875 20.5981 16.5139 20.1815L15.8889 18.6537C16.9306 17.2648 17.5556 15.5287 17.5556 13.6537C17.5556 12.612 17.3472 11.5704 16.9653 10.6329L17.0694 10.4245C17.1389 10.2162 17.1736 10.0079 17.2083 9.76481ZM2 13.6537C2 11.0843 3.35417 8.72315 5.61111 7.4037C7.83333 6.11898 10.5764 6.11898 12.8333 7.4037C15.0556 8.72315 16.4444 11.0843 16.4444 13.6537C16.4444 16.2579 15.0556 18.619 12.8333 19.9384C10.5764 21.2231 7.83333 21.2231 5.61111 19.9384C3.35417 18.619 2 16.2579 2 13.6537ZM9.77778 9.07037C9.77778 8.54953 9.32639 8.09814 8.80556 8.09814C8.25 8.09814 7.83333 8.54953 7.83333 9.07037C7.83333 9.62592 8.25 10.0426 8.80556 10.0426C9.32639 10.0426 9.77778 9.62592 9.77778 9.07037ZM8.80556 13.0981C9.32639 13.0981 9.77778 12.6815 9.77778 12.1259C9.77778 11.6051 9.32639 11.1537 8.80556 11.1537C8.25 11.1537 7.83333 11.6051 7.83333 12.1259C7.83333 12.6815 8.25 13.0981 8.80556 13.0981ZM7.27778 10.737C7.27778 10.2162 6.82639 9.76481 6.30556 9.76481C5.75 9.76481 5.33333 10.2162 5.33333 10.737C5.33333 11.2926 5.75 11.7093 6.30556 11.7093C6.82639 11.7093 7.27778 11.2926 7.27778 10.737Z"/></svg>