<svg width="24" height="24" viewBox="0 0 24 24" xmlns="http://www.w3.org/2000/svg" fill="#cacaca"><path d="M12 3C12.4533 3 12.8975 3.12205 13.2871 3.35254L13.2861 3.35352L18.7275 6.53809L18.7314 6.54004L18.874 6.63086C19.1231 6.80141 19.3379 7.01581 19.5127 7.26074C19.564 7.31457 19.6109 7.3747 19.6504 7.44141C19.6886 7.5059 19.7179 7.57319 19.7402 7.6416C19.9108 7.99558 19.9995 8.38441 20 8.77832V15.1562C19.9995 15.6064 19.8835 16.0499 19.6621 16.4424C19.4406 16.835 19.1205 17.1644 18.7314 17.3945L18.7275 17.3965L13.2861 20.5811L13.2871 20.582C13.0268 20.736 12.7417 20.8394 12.4463 20.8926C12.3117 20.96 12.1608 21 12 21C11.8389 21 11.6875 20.9603 11.5527 20.8926C11.2577 20.8393 10.9729 20.7358 10.7129 20.582L5.27246 17.3965L5.26855 17.3945C4.87954 17.1644 4.55944 16.835 4.33789 16.4424C4.14409 16.0989 4.03137 15.7161 4.00586 15.3242L4 15.1562V8.77832L4.00586 8.61035C4.02776 8.27391 4.11412 7.94449 4.26074 7.64062C4.28304 7.57262 4.31163 7.50553 4.34961 7.44141C4.38914 7.3747 4.43599 7.31457 4.4873 7.26074C4.69465 6.97021 4.95906 6.72312 5.26855 6.54004L5.27246 6.53809L10.7129 3.35352C11.1025 3.12303 11.5467 3 12 3ZM6 15.1543L6.00488 15.2344C6.01522 15.3143 6.04136 15.3913 6.08008 15.46C6.13153 15.551 6.20384 15.6236 6.28711 15.6729L11 18.4316V12.5449L6 9.58105V15.1543ZM13 12.5449V18.4316L17.7129 15.6729L17.7734 15.6318C17.8313 15.5864 17.8813 15.5282 17.9199 15.46C17.9713 15.369 17.9997 15.2635 18 15.1553V9.58105L13 12.5449ZM12 5C11.9305 5 11.8613 5.01428 11.7959 5.04199L11.7275 5.07617L6.99512 7.84668L12 10.8125L17.0039 7.84668L12.2725 5.07617L12.2041 5.04199C12.1387 5.01428 12.0695 5 12 5Z"/><path d="M6 15.1543L6.00488 15.2344C6.01522 15.3143 6.04136 15.3913 6.08008 15.46C6.13153 15.551 6.20384 15.6236 6.28711 15.6729L11 18.4316V12.5449L6 9.58105V15.1543Z"/></svg>