<svg width="24" height="24" viewBox="0 0 24 24" xmlns="http://www.w3.org/2000/svg" fill="#cacaca"><path d="M13.751 4.0127C14.3321 4.07254 14.8726 4.33898 15.2803 4.76172C15.7449 5.24354 16 5.88939 16 6.55566V7H18.4004C19.819 7.00021 20.9999 8.13442 21 9.57129V17.4287C20.9999 18.8656 19.819 19.9998 18.4004 20H5.59961C4.18095 19.9998 3.00008 18.8656 3 17.4287V9.57129C3.00008 8.13442 4.18095 7.00021 5.59961 7H8V6.55566C8 5.88939 8.25512 5.24354 8.71973 4.76172C9.18553 4.27866 9.82498 4 10.5 4H13.5L13.751 4.0127ZM8 9V18H10V9H8ZM14 9V18H16V9H14ZM10.5 6C10.3794 6 10.256 6.04914 10.1592 6.14941C10.0612 6.25104 10 6.39682 10 6.55566V7H14V6.55566C14 6.39682 13.9388 6.25104 13.8408 6.14941C13.7683 6.07433 13.6807 6.02839 13.5908 6.00977L13.5 6H10.5Z"/></svg>