<svg width="24" height="24" viewBox="0 0 24 24" xmlns="http://www.w3.org/2000/svg" fill="#cacaca"><path d="M20.6836 3.31641C20.8945 3.55078 21 3.82031 21 4.125C21 4.42969 20.8945 4.69922 20.6836 4.93359L16.1836 9.43359L16.7109 9.96094C16.9922 10.2422 17.1562 10.5703 17.2031 10.9453C17.25 11.2969 17.1797 11.6484 16.9922 12L16.3594 13.125L10.875 7.64062L12 7.00781C12.75 6.63281 13.4297 6.72656 14.0391 7.28906L14.5664 7.81641L19.0664 3.31641C19.3008 3.10547 19.5703 3 19.875 3C20.1797 3 20.4492 3.10547 20.6836 3.31641ZM9.60938 8.34375L15.6562 14.4258L12.3164 20.4375C12.1055 20.7891 11.7773 20.9766 11.332 21C11.0273 21 10.7695 20.8945 10.5586 20.6836L6.76172 16.9219C6.69141 16.8281 6.67969 16.7227 6.72656 16.6055L7.32422 14.7773C7.34766 14.5195 7.23047 14.4023 6.97266 14.4258L5.14453 15.0586C5.02734 15.082 4.93359 15.0586 4.86328 14.9883L3.31641 13.4414C3.10547 13.2305 3 12.9727 3 12.668C3.02344 12.2227 3.21094 11.8945 3.5625 11.6836L9.60938 8.34375Z"/></svg>