<svg width="24" height="24" viewBox="0 0 24 24" xmlns="http://www.w3.org/2000/svg" fill="#cacaca"><path d="M12 4C12.8542 4.02083 13.5625 4.3125 14.125 4.875C14.6875 5.4375 14.9792 6.14583 15 7V7.125C15 7.375 14.9167 7.58333 14.75 7.75C14.5833 7.91667 14.375 8 14.125 8H9.90625C9.63542 8 9.41667 7.91667 9.25 7.75C9.08333 7.58333 9 7.375 9 7.125V7C9.02083 6.14583 9.3125 5.4375 9.875 4.875C10.4375 4.3125 11.1458 4.02083 12 4ZM5.28125 7.28125C5.48958 7.09375 5.72917 7 6 7C6.27083 7 6.51042 7.09375 6.71875 7.28125L8.71875 9.28125C8.73958 9.30208 8.76042 9.32292 8.78125 9.34375C8.78125 9.34375 8.78125 9.35417 8.78125 9.375C9.21875 9.125 9.70833 9 10.25 9H13.75C14.2917 9 14.7917 9.125 15.25 9.375C15.25 9.33333 15.2604 9.30208 15.2812 9.28125L17.2812 7.28125C17.4896 7.09375 17.7292 7 18 7C18.2708 7 18.5104 7.09375 18.7188 7.28125C18.9062 7.48958 19 7.72917 19 8C19 8.27083 18.9062 8.51042 18.7188 8.71875L16.7188 10.7188C16.6979 10.7396 16.6771 10.7604 16.6562 10.7812C16.8438 11.1562 16.9583 11.5625 17 12H19C19.2917 12 19.5312 12.0938 19.7188 12.2812C19.9062 12.4688 20 12.7083 20 13C20 13.2917 19.9062 13.5312 19.7188 13.7188C19.5312 13.9062 19.2917 14 19 14H17C17 14.7708 16.8438 15.4896 16.5312 16.1562C16.5938 16.1979 16.6562 16.2396 16.7188 16.2812L18.7188 18.2812C18.9062 18.4896 19 18.7292 19 19C19 19.2708 18.9062 19.5104 18.7188 19.7188C18.5104 19.9062 18.2708 20 18 20C17.7292 20 17.4896 19.9062 17.2812 19.7188L15.3125 17.75C14.5417 18.4375 13.6042 18.8438 12.5 18.9688V11.5C12.4792 11.1875 12.3125 11.0208 12 11C11.6875 11.0208 11.5208 11.1875 11.5 11.5V18.9688C10.3958 18.8438 9.45833 18.4375 8.6875 17.75L6.71875 19.7188C6.51042 19.9062 6.27083 20 6 20C5.72917 20 5.48958 19.9062 5.28125 19.7188C5.09375 19.5104 5 19.2708 5 19C5 18.7292 5.09375 18.4896 5.28125 18.2812L7.28125 16.2812C7.34375 16.2396 7.40625 16.1979 7.46875 16.1562C7.15625 15.4896 7 14.7708 7 14H5C4.70833 14 4.46875 13.9062 4.28125 13.7188C4.09375 13.5312 4 13.2917 4 13C4 12.7083 4.09375 12.4688 4.28125 12.2812C4.46875 12.0938 4.70833 12 5 12H7C7.04167 11.5625 7.15625 11.1562 7.34375 10.7812C7.32292 10.7604 7.30208 10.7396 7.28125 10.7188L5.28125 8.71875C5.09375 8.51042 5 8.27083 5 8C5 7.72917 5.09375 7.48958 5.28125 7.28125Z"/></svg>