<svg width="24" height="24" viewBox="0 0 24 24" xmlns="http://www.w3.org/2000/svg" fill="#cacaca"><path d="M3.2187 4.1562L9.49995 9.0937C9.74995 9.0312 9.99995 8.99995 10.2499 8.99995H13.7499C14.2916 8.99995 14.7916 9.11453 15.2499 9.3437C15.2499 9.32286 15.2604 9.30203 15.2812 9.2812L17.2812 7.2812C17.4895 7.0937 17.7291 6.99995 17.9999 6.99995C18.2708 6.99995 18.5104 7.0937 18.7187 7.2812C18.9062 7.48953 18.9999 7.72911 18.9999 7.99995C18.9999 8.27078 18.9062 8.51036 18.7187 8.7187L16.7187 10.7187C16.6979 10.7395 16.677 10.7604 16.6562 10.7812C16.8437 11.1562 16.9583 11.5624 16.9999 11.9999H18.9999C19.2916 11.9999 19.5312 12.0937 19.7187 12.2812C19.9062 12.4687 19.9999 12.7083 19.9999 12.9999C19.9999 13.2916 19.9062 13.5312 19.7187 13.7187C19.5312 13.9062 19.2916 13.9999 18.9999 13.9999H16.9999C16.9999 14.3124 16.9687 14.6145 16.9062 14.9062L21.7187 18.6562C22.052 18.9687 22.0937 19.3229 21.8437 19.7187C21.5312 20.052 21.177 20.0937 20.7812 19.8437L2.2812 5.3437C1.94786 5.0312 1.9062 4.67703 2.1562 4.2812C2.4687 3.94786 2.82286 3.9062 3.2187 4.1562ZM11.9999 3.99995C12.8541 4.02078 13.5624 4.31245 14.1249 4.87495C14.6874 5.43745 14.9791 6.14578 14.9999 6.99995V7.12495C14.9999 7.37495 14.9166 7.58328 14.7499 7.74995C14.5833 7.91661 14.3749 7.99995 14.1249 7.99995H9.87495C9.62495 7.99995 9.41661 7.91661 9.24995 7.74995C9.08328 7.58328 8.99995 7.37495 8.99995 7.12495V6.99995C9.02078 6.14578 9.31245 5.43745 9.87495 4.87495C10.4374 4.31245 11.1458 4.02078 11.9999 3.99995ZM6.99995 11.9999C7.04161 11.6874 7.11453 11.3854 7.2187 11.0937L11.4999 14.4999V18.9687C10.3958 18.8437 9.45828 18.4374 8.68745 17.7499L6.7187 19.7187C6.51036 19.9062 6.27078 19.9999 5.99995 19.9999C5.72911 19.9999 5.48953 19.9062 5.2812 19.7187C5.0937 19.5104 4.99995 19.2708 4.99995 18.9999C4.99995 18.7291 5.0937 18.4895 5.2812 18.2812L7.2812 16.2812C7.3437 16.2395 7.4062 16.1979 7.4687 16.1562C7.1562 15.4895 6.99995 14.7708 6.99995 13.9999H4.99995C4.70828 13.9999 4.4687 13.9062 4.2812 13.7187C4.0937 13.5312 3.99995 13.2916 3.99995 12.9999C3.99995 12.7083 4.0937 12.4687 4.2812 12.2812C4.4687 12.0937 4.70828 11.9999 4.99995 11.9999H6.99995ZM12.4999 18.9687V15.2812L15.4687 17.5937C14.6562 18.3854 13.6666 18.8437 12.4999 18.9687Z"/></svg>