<svg width="24" height="24" viewBox="0 0 24 24" xmlns="http://www.w3.org/2000/svg" fill="#cacaca"><path d="M7.14844 3.21094C7.24219 3.07031 7.35938 3 7.5 3C7.64062 3 7.75781 3.07031 7.85156 3.21094L8.69531 4.6875C8.83594 4.92188 8.90625 5.16797 8.90625 5.42578V5.53125C8.90625 5.92969 8.76562 6.25781 8.48438 6.51562C8.22656 6.79688 7.89844 6.9375 7.5 6.9375C7.10156 6.9375 6.77344 6.79688 6.51562 6.51562C6.23438 6.25781 6.09375 5.92969 6.09375 5.53125V5.42578C6.09375 5.16797 6.16406 4.92188 6.30469 4.6875L7.14844 3.21094L6.30469 4.6875L7.14844 3.21094ZM11.6484 3.21094C11.7422 3.07031 11.8594 3 12 3C12.1406 3 12.2578 3.07031 12.3516 3.21094L13.1953 4.6875C13.3359 4.92188 13.4062 5.16797 13.4062 5.42578V5.53125C13.4062 5.92969 13.2656 6.25781 12.9844 6.51562C12.7266 6.79688 12.3984 6.9375 12 6.9375C11.6016 6.9375 11.2734 6.79688 11.0156 6.51562C10.7344 6.25781 10.5938 5.92969 10.5938 5.53125V5.42578C10.5938 5.16797 10.6641 4.92188 10.8047 4.6875L11.6484 3.21094L10.8047 4.6875L11.6484 3.21094ZM15.3047 4.6875L16.1484 3.21094C16.2422 3.07031 16.3594 3 16.5 3C16.6406 3 16.7578 3.07031 16.8516 3.21094L17.6953 4.6875C17.8359 4.92188 17.9062 5.16797 17.9062 5.42578V5.53125C17.9062 5.92969 17.7656 6.25781 17.4844 6.51562C17.2266 6.79688 16.8984 6.9375 16.5 6.9375C16.1016 6.9375 15.7734 6.79688 15.5156 6.51562C15.2344 6.25781 15.0938 5.92969 15.0938 5.53125V5.42578C15.0938 5.16797 15.1641 4.92188 15.3047 4.6875ZM8.625 9.1875V10.875H10.875V9.1875C10.8984 8.85938 11.0156 8.58984 11.2266 8.37891C11.4375 8.16797 11.6953 8.0625 12 8.0625C12.3281 8.0625 12.5977 8.16797 12.8086 8.37891C13.0195 8.58984 13.125 8.85938 13.125 9.1875V10.875H15.375V9.1875C15.3984 8.85938 15.5156 8.58984 15.7266 8.37891C15.9375 8.16797 16.1953 8.0625 16.5 8.0625C16.8281 8.0625 17.0977 8.16797 17.3086 8.37891C17.5195 8.58984 17.625 8.85938 17.625 9.1875V10.875C18.2578 10.8984 18.7852 11.1211 19.207 11.543C19.6523 11.9648 19.875 12.4922 19.875 13.125V15.6211C19.5938 15.8086 19.2539 15.9141 18.8555 15.9375C18.3633 15.9141 17.918 15.7617 17.5195 15.4805C17.332 15.3398 17.1797 15.2227 17.0625 15.1289C17.0156 15.1055 16.9805 15.082 16.957 15.0586C16.957 15.0352 16.957 15.0234 16.957 15.0234C16.9336 15.0234 16.9219 15.0117 16.9219 14.9883C16.8047 14.8711 16.6641 14.8125 16.5 14.8125C16.3359 14.8125 16.1953 14.8828 16.0781 15.0234C16.0781 15.0234 16.0664 15.0234 16.043 15.0234C16.0195 15.0469 15.9844 15.082 15.9375 15.1289C15.8438 15.2227 15.7031 15.3398 15.5156 15.4805C15.1641 15.7617 14.7422 15.9141 14.25 15.9375C13.7812 15.9141 13.3594 15.7617 12.9844 15.4805C12.7969 15.3398 12.6562 15.2227 12.5625 15.1289C12.5156 15.082 12.4805 15.0469 12.457 15.0234C12.457 15.0234 12.4453 15.0234 12.4219 15.0234C12.3047 14.8828 12.1641 14.8125 12 14.8125C11.8359 14.8125 11.6953 14.8828 11.5781 15.0234C11.5781 15.0234 11.5664 15.0234 11.543 15.0234C11.5195 15.0469 11.4844 15.082 11.4375 15.1289C11.3438 15.2227 11.2031 15.3398 11.0156 15.4805C10.6641 15.7617 10.2422 15.9141 9.75 15.9375C9.28125 15.9141 8.85938 15.7617 8.48438 15.4805C8.29688 15.3398 8.15625 15.2227 8.0625 15.1289C8.01562 15.082 7.98047 15.0469 7.95703 15.0234C7.95703 15.0234 7.94531 15.0234 7.92188 15.0234C7.80469 14.8828 7.67578 14.8125 7.53516 14.8125C7.34766 14.8125 7.20703 14.8711 7.11328 14.9883C7.08984 14.9883 7.07812 14.9883 7.07812 14.9883C7.07812 15.0117 7.07812 15.0234 7.07812 15.0234C7.05469 15.0234 7.04297 15.0352 7.04297 15.0586C7.01953 15.082 6.98438 15.1055 6.9375 15.1289C6.82031 15.2227 6.66797 15.3398 6.48047 15.4805C6.08203 15.7617 5.63672 15.9141 5.14453 15.9375C4.76953 15.9141 4.42969 15.8086 4.125 15.6211V13.125C4.14844 12.4922 4.37109 11.9648 4.79297 11.543C5.21484 11.1211 5.74219 10.8984 6.375 10.875V9.1875C6.375 8.85938 6.48047 8.58984 6.69141 8.37891C6.90234 8.16797 7.17188 8.0625 7.5 8.0625C7.82812 8.0625 8.09766 8.16797 8.30859 8.37891C8.51953 8.58984 8.625 8.85938 8.625 9.1875ZM19.875 16.8867V19.875C19.875 20.2031 19.7695 20.4727 19.5586 20.6836C19.3477 20.8945 19.0781 21 18.75 21H5.25C4.92188 21 4.65234 20.8945 4.44141 20.6836C4.23047 20.4727 4.125 20.2031 4.125 19.875V16.8867C4.42969 17.0039 4.76953 17.0625 5.14453 17.0625C5.94141 16.9922 6.59766 16.7695 7.11328 16.3945C7.25391 16.3008 7.38281 16.2188 7.5 16.1484C7.59375 16.2188 7.69922 16.3008 7.81641 16.3945C8.28516 16.7695 8.92969 16.9922 9.75 17.0625C10.5703 16.9922 11.2148 16.7695 11.6836 16.3945C11.8008 16.3008 11.9062 16.2188 12 16.1484C12.0938 16.2188 12.1992 16.3008 12.3164 16.3945C12.7852 16.7695 13.4297 16.9922 14.25 17.0625C15.0703 16.9922 15.7148 16.7695 16.1836 16.3945C16.3008 16.3008 16.418 16.2188 16.5352 16.1484C16.6289 16.2188 16.7461 16.3008 16.8867 16.3945C17.3789 16.7695 18.0352 16.9922 18.8555 17.0625C19.2305 17.0625 19.5703 17.0039 19.875 16.8867Z"/></svg>