<svg width="24" height="24" viewBox="0 0 24 24" xmlns="http://www.w3.org/2000/svg" fill="#cacaca"><path d="M8 4H16C16.5625 4.02083 17.0312 4.21875 17.4062 4.59375C17.7812 4.96875 17.9792 5.4375 18 6V18C17.9792 18.5625 17.7812 19.0312 17.4062 19.4062C17.0312 19.7812 16.5625 19.9792 16 20H8C7.4375 19.9792 6.96875 19.7812 6.59375 19.4062C6.21875 19.0312 6.02083 18.5625 6 18V6C6.02083 5.4375 6.21875 4.96875 6.59375 4.59375C6.96875 4.21875 7.4375 4.02083 8 4ZM9 6C8.70833 6 8.46875 6.09375 8.28125 6.28125C8.09375 6.46875 8 6.70833 8 7V8C8 8.29167 8.09375 8.53125 8.28125 8.71875C8.46875 8.90625 8.70833 9 9 9H15C15.2917 9 15.5312 8.90625 15.7188 8.71875C15.9062 8.53125 16 8.29167 16 8V7C16 6.70833 15.9062 6.46875 15.7188 6.28125C15.5312 6.09375 15.2917 6 15 6H9ZM10 11C10 10.7083 9.90625 10.4688 9.71875 10.2812C9.53125 10.0938 9.29167 10 9 10C8.70833 10 8.46875 10.0938 8.28125 10.2812C8.09375 10.4688 8 10.7083 8 11C8 11.2917 8.09375 11.5312 8.28125 11.7188C8.46875 11.9062 8.70833 12 9 12C9.29167 12 9.53125 11.9062 9.71875 11.7188C9.90625 11.5312 10 11.2917 10 11ZM9 15C9.29167 15 9.53125 14.9062 9.71875 14.7188C9.90625 14.5312 10 14.2917 10 14C10 13.7083 9.90625 13.4688 9.71875 13.2812C9.53125 13.0938 9.29167 13 9 13C8.70833 13 8.46875 13.0938 8.28125 13.2812C8.09375 13.4688 8 13.7083 8 14C8 14.2917 8.09375 14.5312 8.28125 14.7188C8.46875 14.9062 8.70833 15 9 15ZM8 17C8 17.2917 8.09375 17.5312 8.28125 17.7188C8.46875 17.9062 8.70833 18 9 18H12C12.2917 18 12.5312 17.9062 12.7188 17.7188C12.9062 17.5312 13 17.2917 13 17C13 16.7083 12.9062 16.4688 12.7188 16.2812C12.5312 16.0938 12.2917 16 12 16H9C8.70833 16 8.46875 16.0938 8.28125 16.2812C8.09375 16.4688 8 16.7083 8 17ZM12 12C12.2917 12 12.5312 11.9062 12.7188 11.7188C12.9062 11.5312 13 11.2917 13 11C13 10.7083 12.9062 10.4688 12.7188 10.2812C12.5312 10.0938 12.2917 10 12 10C11.7083 10 11.4688 10.0938 11.2812 10.2812C11.0938 10.4688 11 10.7083 11 11C11 11.2917 11.0938 11.5312 11.2812 11.7188C11.4688 11.9062 11.7083 12 12 12ZM13 14C13 13.7083 12.9062 13.4688 12.7188 13.2812C12.5312 13.0938 12.2917 13 12 13C11.7083 13 11.4688 13.0938 11.2812 13.2812C11.0938 13.4688 11 13.7083 11 14C11 14.2917 11.0938 14.5312 11.2812 14.7188C11.4688 14.9062 11.7083 15 12 15C12.2917 15 12.5312 14.9062 12.7188 14.7188C12.9062 14.5312 13 14.2917 13 14ZM15 12C15.2917 12 15.5312 11.9062 15.7188 11.7188C15.9062 11.5312 16 11.2917 16 11C16 10.7083 15.9062 10.4688 15.7188 10.2812C15.5312 10.0938 15.2917 10 15 10C14.7083 10 14.4688 10.0938 14.2812 10.2812C14.0938 10.4688 14 10.7083 14 11C14 11.2917 14.0938 11.5312 14.2812 11.7188C14.4688 11.9062 14.7083 12 15 12ZM16 14C16 13.7083 15.9062 13.4688 15.7188 13.2812C15.5312 13.0938 15.2917 13 15 13C14.7083 13 14.4688 13.0938 14.2812 13.2812C14.0938 13.4688 14 13.7083 14 14C14 14.2917 14.0938 14.5312 14.2812 14.7188C14.4688 14.9062 14.7083 15 15 15C15.2917 15 15.5312 14.9062 15.7188 14.7188C15.9062 14.5312 16 14.2917 16 14ZM15 18C15.2917 18 15.5312 17.9062 15.7188 17.7188C15.9062 17.5312 16 17.2917 16 17C16 16.7083 15.9062 16.4688 15.7188 16.2812C15.5312 16.0938 15.2917 16 15 16C14.7083 16 14.4688 16.0938 14.2812 16.2812C14.0938 16.4688 14 16.7083 14 17C14 17.2917 14.0938 17.5312 14.2812 17.7188C14.4688 17.9062 14.7083 18 15 18Z"/></svg>