<svg width="24" height="24" viewBox="0 0 24 24" xmlns="http://www.w3.org/2000/svg" fill="#cacaca"><path d="M4 5.5C4.02083 5.08333 4.16667 4.72917 4.4375 4.4375C4.72917 4.16667 5.08333 4.02083 5.5 4H9.5C9.91667 4.02083 10.2708 4.16667 10.5625 4.4375C10.8333 4.72917 10.9792 5.08333 11 5.5V9.5C10.9792 9.91667 10.8333 10.2708 10.5625 10.5625C10.2708 10.8333 9.91667 10.9792 9.5 11H5.5C5.08333 10.9792 4.72917 10.8333 4.4375 10.5625C4.16667 10.2708 4.02083 9.91667 4 9.5V5.5ZM13 5.5C13.0208 5.08333 13.1667 4.72917 13.4375 4.4375C13.7292 4.16667 14.0833 4.02083 14.5 4H18.5C18.9167 4.02083 19.2708 4.16667 19.5625 4.4375C19.8333 4.72917 19.9792 5.08333 20 5.5V9.5C19.9792 9.91667 19.8333 10.2708 19.5625 10.5625C19.2708 10.8333 18.9167 10.9792 18.5 11H14.5C14.0833 10.9792 13.7292 10.8333 13.4375 10.5625C13.1667 10.2708 13.0208 9.91667 13 9.5V5.5ZM14.5 13H18.5C18.9167 13.0208 19.2708 13.1667 19.5625 13.4375C19.8333 13.7292 19.9792 14.0833 20 14.5V18.5C19.9792 18.9167 19.8333 19.2708 19.5625 19.5625C19.2708 19.8333 18.9167 19.9792 18.5 20H14.5C14.0833 19.9792 13.7292 19.8333 13.4375 19.5625C13.1667 19.2708 13.0208 18.9167 13 18.5V14.5C13.0208 14.0833 13.1667 13.7292 13.4375 13.4375C13.7292 13.1667 14.0833 13.0208 14.5 13ZM4 14.5C4.02083 14.0833 4.16667 13.7292 4.4375 13.4375C4.72917 13.1667 5.08333 13.0208 5.5 13H9.5C9.91667 13.0208 10.2708 13.1667 10.5625 13.4375C10.8333 13.7292 10.9792 14.0833 11 14.5V18.5C10.9792 18.9167 10.8333 19.2708 10.5625 19.5625C10.2708 19.8333 9.91667 19.9792 9.5 20H5.5C5.08333 19.9792 4.72917 19.8333 4.4375 19.5625C4.16667 19.2708 4.02083 18.9167 4 18.5V14.5ZM17 6C16.9792 5.6875 16.8125 5.52083 16.5 5.5C16.1875 5.52083 16.0208 5.6875 16 6V7H15C14.6875 7.02083 14.5208 7.1875 14.5 7.5C14.5208 7.8125 14.6875 7.97917 15 8H16V9C16.0208 9.3125 16.1875 9.47917 16.5 9.5C16.8125 9.47917 16.9792 9.3125 17 9V8H18C18.3125 7.97917 18.4792 7.8125 18.5 7.5C18.4792 7.1875 18.3125 7.02083 18 7H17V6ZM6 7C5.6875 7.02083 5.52083 7.1875 5.5 7.5C5.52083 7.8125 5.6875 7.97917 6 8H9C9.3125 7.97917 9.47917 7.8125 9.5 7.5C9.47917 7.1875 9.3125 7.02083 9 7H6ZM6.59375 14.9062C6.36458 14.6979 6.13542 14.6979 5.90625 14.9062C5.69792 15.1354 5.69792 15.3646 5.90625 15.5938L6.78125 16.5L5.90625 17.4062C5.69792 17.6354 5.69792 17.8646 5.90625 18.0938C6.13542 18.3021 6.36458 18.3021 6.59375 18.0938L7.5 17.2188L8.40625 18.0938C8.63542 18.3021 8.86458 18.3021 9.09375 18.0938C9.30208 17.8646 9.30208 17.6354 9.09375 17.4062L8.21875 16.5L9.09375 15.5938C9.30208 15.3646 9.30208 15.1354 9.09375 14.9062C8.86458 14.6979 8.63542 14.6979 8.40625 14.9062L7.5 15.7812L6.59375 14.9062ZM15 15C14.6875 15.0208 14.5208 15.1875 14.5 15.5C14.5208 15.8125 14.6875 15.9792 15 16H18C18.3125 15.9792 18.4792 15.8125 18.5 15.5C18.4792 15.1875 18.3125 15.0208 18 15H15ZM15 17C14.6875 17.0208 14.5208 17.1875 14.5 17.5C14.5208 17.8125 14.6875 17.9792 15 18H18C18.3125 17.9792 18.4792 17.8125 18.5 17.5C18.4792 17.1875 18.3125 17.0208 18 17H15Z"/></svg>