<svg width="24" height="24" viewBox="0 0 24 24" xmlns="http://www.w3.org/2000/svg" fill="#cacaca"><path d="M20 19C20 20.0042 19 21 18 21H6C5 21 4 20.0042 4 19V11H20V19ZM15.7178 13.3037C15.3333 12.9074 14.7002 12.8978 14.3037 13.2822L10.875 16.6064L9.69629 15.4639L9.61914 15.3965C9.22157 15.0823 8.64269 15.1139 8.28223 15.4854C7.92167 15.8572 7.9077 16.4374 8.23438 16.8252L8.30371 16.8994L10.1787 18.7178C10.5666 19.0939 11.1834 19.0939 11.5713 18.7178L15.6963 14.7178C16.0926 14.3333 16.1022 13.7002 15.7178 13.3037ZM15 3C15.5523 3 16 3.44772 16 4V5H18C19 5 20 6 20 7V9H4V7C4 6 5 5 6 5H8V4C8 3.44772 8.44772 3 9 3C9.55228 3 10 3.44772 10 4V5H14V4C14 3.44772 14.4477 3 15 3Z"/></svg>