<svg width="24" height="24" viewBox="0 0 24 24" xmlns="http://www.w3.org/2000/svg" fill="#cacaca"><path d="M4.96875 3H7.78125C8.29688 3.04688 8.57812 3.32812 8.625 3.84375C8.57812 4.35938 8.29688 4.64062 7.78125 4.6875H4.96875C4.80469 4.71094 4.71094 4.80469 4.6875 4.96875V7.78125C4.64062 8.29688 4.35938 8.57812 3.84375 8.625C3.32812 8.57812 3.04688 8.29688 3 7.78125V4.96875C3.02344 4.40625 3.21094 3.9375 3.5625 3.5625C3.9375 3.21094 4.40625 3.02344 4.96875 3ZM16.2188 3H19.0312C19.5938 3.02344 20.0625 3.21094 20.4375 3.5625C20.7891 3.9375 20.9766 4.40625 21 4.96875V7.78125C20.9531 8.29688 20.6719 8.57812 20.1562 8.625C19.6406 8.57812 19.3594 8.29688 19.3125 7.78125V4.96875C19.2891 4.80469 19.1953 4.71094 19.0312 4.6875H16.2188C15.7031 4.64062 15.4219 4.35938 15.375 3.84375C15.4219 3.32812 15.7031 3.04688 16.2188 3ZM4.6875 16.2188V19.0312C4.71094 19.1953 4.80469 19.2891 4.96875 19.3125H7.78125C8.29688 19.3594 8.57812 19.6406 8.625 20.1562C8.57812 20.6719 8.29688 20.9531 7.78125 21H4.96875C4.40625 20.9766 3.9375 20.7891 3.5625 20.4375C3.21094 20.0625 3.02344 19.5938 3 19.0312V16.2188C3.04688 15.7031 3.32812 15.4219 3.84375 15.375C4.35938 15.4219 4.64062 15.7031 4.6875 16.2188ZM21 16.2188V19.0312C20.9766 19.5938 20.7891 20.0625 20.4375 20.4375C20.0625 20.7891 19.5938 20.9766 19.0312 21H16.2188C15.7031 20.9531 15.4219 20.6719 15.375 20.1562C15.4219 19.6406 15.7031 19.3594 16.2188 19.3125H19.0312C19.1953 19.2891 19.2891 19.1953 19.3125 19.0312V16.2188C19.3594 15.7031 19.6406 15.4219 20.1562 15.375C20.6719 15.4219 20.9531 15.7031 21 16.2188ZM9.32812 7.5L9.53906 6.9375C9.70312 6.58594 9.97266 6.39844 10.3477 6.375H13.6523C14.0508 6.39844 14.3203 6.58594 14.4609 6.9375L14.6719 7.5H15.9375C16.4062 7.52344 16.8047 7.6875 17.1328 7.99219C17.4375 8.32031 17.6016 8.71875 17.625 9.1875V14.8125C17.6016 15.2812 17.4375 15.6797 17.1328 16.0078C16.8047 16.3125 16.4062 16.4766 15.9375 16.5H8.0625C7.59375 16.4766 7.19531 16.3125 6.86719 16.0078C6.5625 15.6797 6.39844 15.2812 6.375 14.8125V9.1875C6.39844 8.71875 6.5625 8.32031 6.86719 7.99219C7.19531 7.6875 7.59375 7.52344 8.0625 7.5H9.32812ZM14.25 12C14.2266 11.1562 13.8516 10.5117 13.125 10.0664C12.375 9.64453 11.625 9.64453 10.875 10.0664C10.1484 10.5117 9.77344 11.1562 9.75 12C9.77344 12.8438 10.1484 13.4883 10.875 13.9336C11.625 14.3555 12.375 14.3555 13.125 13.9336C13.8516 13.4883 14.2266 12.8438 14.25 12Z"/></svg>