<svg width="24" height="24" viewBox="0 0 24 24" xmlns="http://www.w3.org/2000/svg" fill="#cacaca"><path d="M3.22267 4.16062L6.84605 7.00279H8.34538L8.65774 6.03458C8.90763 5.38911 9.38658 5.04555 10.0946 5.0039H13.9054C14.6134 5.04555 15.0924 5.38911 15.3423 6.03458L15.6546 7.00279H17.9973C18.5596 7.02361 19.0281 7.22142 19.4029 7.59621C19.7778 7.971 19.9756 8.43949 19.9964 9.00167V16.9972C19.9964 17.1013 19.986 17.2054 19.9652 17.3095L21.7144 18.6525C22.0476 18.9649 22.0892 19.3188 21.8394 19.7144C21.527 20.0476 21.173 20.0892 20.7773 19.8394L2.28559 5.34746C1.9524 5.03514 1.91075 4.68117 2.16064 4.28555C2.473 3.95241 2.82701 3.91076 3.22267 4.16062ZM10.9067 10.1885L14.9674 13.3742C14.9882 13.2493 14.9987 13.1244 14.9987 12.9994C14.9778 12.1458 14.6863 11.4378 14.1241 10.8756C13.5618 10.3134 12.8538 10.0219 12 10.0011C11.6252 10.0011 11.2607 10.0636 10.9067 10.1885ZM9.00134 12.9994C9.02216 13.8531 9.3137 14.5611 9.87595 15.1233C10.4382 15.6854 11.1462 15.9769 12 15.9978C12.3957 15.9978 12.7705 15.9249 13.1245 15.7791L17.2164 18.9961H6.00268C5.44043 18.9753 4.97189 18.7775 4.59705 18.4027C4.22222 18.0279 4.02439 17.5594 4.00357 16.9972V9.00167C4.00357 8.87674 4.01398 8.7414 4.03481 8.59565L9.03257 12.531C9.01175 12.6767 9.00134 12.8329 9.00134 12.9994Z"/></svg>