<svg width="24" height="24" viewBox="0 0 24 24" xmlns="http://www.w3.org/2000/svg" fill="#cacaca"><path d="M8.23828 5.17857C8.51953 4.44048 9.05859 4.04762 9.85547 4H14.1445C14.9414 4.04762 15.4805 4.44048 15.7617 5.17857L16.1133 6.28571H18.75C19.3828 6.30952 19.9102 6.53571 20.332 6.96429C20.7539 7.39286 20.9766 7.92857 21 8.57143V17.7143C20.9766 18.3571 20.7539 18.8929 20.332 19.3214C19.9102 19.75 19.3828 19.9762 18.75 20H5.25C4.61719 19.9762 4.08984 19.75 3.66797 19.3214C3.24609 18.8929 3.02344 18.3571 3 17.7143V8.57143C3.02344 7.92857 3.24609 7.39286 3.66797 6.96429C4.08984 6.53571 4.61719 6.30952 5.25 6.28571H7.88672L8.23828 5.17857ZM12 9.71429C11.3906 9.71429 10.8281 9.86905 10.3125 10.1786C9.79688 10.4881 9.38672 10.9048 9.08203 11.4286C8.77734 11.9762 8.625 12.5476 8.625 13.1429C8.625 13.7381 8.77734 14.3095 9.08203 14.8571C9.38672 15.381 9.79688 15.7976 10.3125 16.1071C10.8281 16.4167 11.3906 16.5714 12 16.5714C12.6094 16.5714 13.1719 16.4167 13.6875 16.1071C14.2031 15.7976 14.6133 15.381 14.918 14.8571C15.2227 14.3095 15.375 13.7381 15.375 13.1429C15.375 12.5476 15.2227 11.9762 14.918 11.4286C14.6133 10.9048 14.2031 10.4881 13.6875 10.1786C13.1719 9.86905 12.6094 9.71429 12 9.71429Z"/></svg>