<svg width="24" height="24" viewBox="0 0 24 24" xmlns="http://www.w3.org/2000/svg" fill="#cacaca"><path d="M3.22267 4.16062L6.47122 6.7217C7.11676 5.88883 7.91849 5.23294 8.87639 4.75404C9.8343 4.25432 10.8755 4.00446 12 4.00446C13.3119 4.02528 14.4885 4.34802 15.5297 4.97267C16.5917 5.5765 17.4247 6.40937 18.0286 7.47128C18.6533 8.51236 18.9761 9.68879 18.9969 11.0006C18.9761 12.6663 18.4763 14.1134 17.4975 15.3419L21.7144 18.6525C22.0476 18.9649 22.0892 19.3188 21.8394 19.7144C21.527 20.0476 21.173 20.0892 20.7773 19.8394L2.28559 5.34746C1.9524 5.03514 1.91075 4.68117 2.16064 4.28555C2.473 3.95241 2.82701 3.91076 3.22267 4.16062ZM8.03302 7.93977L8.84516 8.56442C9.61565 7.56497 10.6673 7.04443 12 7.00279C13.1245 7.02361 14.072 7.40881 14.8425 8.15839C15.5921 8.9288 15.9774 9.87618 15.9982 11.0006C15.9774 11.9584 15.6859 12.7912 15.1236 13.4992L15.9045 14.1238C16.6125 13.2493 16.9769 12.2082 16.9978 11.0006C16.9561 9.58468 16.4668 8.40825 15.5297 7.47128C14.5926 6.5343 13.416 6.04499 12 6.00335C11.1879 6.00335 10.4382 6.18033 9.751 6.5343C9.08463 6.88827 8.51197 7.35676 8.03302 7.93977ZM10.813 10.0948C11.0837 9.72002 11.4794 9.52222 12 9.50139C12.3124 9.48057 12.479 9.314 12.4998 9.00167C12.479 8.68935 12.3124 8.52277 12 8.50195C11.167 8.52277 10.5007 8.85592 10.0009 9.50139L10.813 10.0948ZM17.8724 19.4958C17.6641 19.8081 17.3726 19.9747 16.9978 19.9955H7.00223C6.52328 19.9747 6.20051 19.7457 6.03391 19.3084C5.92979 18.8503 6.06515 18.4756 6.43998 18.184L8.25167 16.9035C7.25212 16.2789 6.46081 15.446 5.87773 14.4049C5.31548 13.3846 5.02395 12.2499 5.00312 11.0006C5.00312 10.48 5.05518 9.98029 5.1593 9.50139L7.00223 10.9381C7.00223 10.9589 7.00223 10.9693 7.00223 10.9693C7.00223 10.9901 7.00223 11.0006 7.00223 11.0006C7.04388 12.4164 7.53324 13.5929 8.47033 14.5298C9.40741 15.4668 10.584 15.9561 12 15.9978C12.4165 15.9978 12.8225 15.9457 13.2182 15.8416L17.8724 19.4958ZM12.1562 14.9983C12.0937 14.9983 12.0416 14.9983 12 14.9983C11.0213 14.9775 10.1675 14.6756 9.43864 14.0926C8.73063 13.4888 8.28291 12.7183 8.09549 11.7814L12.1562 14.9983Z"/></svg>