<svg width="24" height="24" viewBox="0 0 24 24" xmlns="http://www.w3.org/2000/svg" fill="#cacaca"><path d="M3 4.28572C3.02679 3.56251 3.28125 2.95983 3.76339 2.47769C4.24554 1.99554 4.84821 1.74108 5.57143 1.71429H18.4286C19.1518 1.74108 19.7545 1.99554 20.2366 2.47769C20.7188 2.95983 20.9732 3.56251 21 4.28572V15.8572C20.9732 16.5804 20.7188 17.183 20.2366 17.6652C19.7545 18.1473 19.1518 18.4018 18.4286 18.4286H15.4554L17.8259 19.9152C18.3348 20.2634 18.5223 20.7455 18.3884 21.3616C18.1741 21.9509 17.7589 22.2589 17.1429 22.2857H6.85714C6.24107 22.2589 5.82589 21.9509 5.61161 21.3616C5.47768 20.7455 5.66518 20.2634 6.17411 19.9152L8.54464 18.4286H5.57143C4.84821 18.4018 4.24554 18.1473 3.76339 17.6652C3.28125 17.183 3.02679 16.5804 3 15.8572V4.28572ZM8.14286 10.0714C8.14286 9.37501 8.31696 8.73215 8.66518 8.14287C9.01339 7.55358 9.48214 7.08483 10.0714 6.73662C10.6875 6.3884 11.3304 6.21429 12 6.21429C12.6696 6.21429 13.3125 6.3884 13.9286 6.73662C14.5179 7.08483 14.9866 7.55358 15.3348 8.14287C15.683 8.73215 15.8571 9.37501 15.8571 10.0714C15.8571 10.7679 15.683 11.4107 15.3348 12C14.9866 12.5893 14.5179 13.058 13.9286 13.4063C13.3125 13.7545 12.6696 13.9286 12 13.9286C11.3304 13.9286 10.6875 13.7545 10.0714 13.4063C9.48214 13.058 9.01339 12.5893 8.66518 12C8.31696 11.4107 8.14286 10.7679 8.14286 10.0714ZM17.1429 10.0714C17.1429 9.13394 16.9152 8.27679 16.4598 7.50001C16.0045 6.72322 15.375 6.09376 14.5714 5.61162C13.7679 5.15626 12.9107 4.92858 12 4.92858C11.0893 4.92858 10.2321 5.15626 9.42857 5.61162C8.625 6.09376 7.99554 6.72322 7.54018 7.50001C7.08482 8.27679 6.85714 9.13394 6.85714 10.0714C6.85714 11.0089 7.08482 11.8661 7.54018 12.6429C7.99554 13.4197 8.625 14.0491 9.42857 14.5313C10.2321 14.9866 11.0893 15.2143 12 15.2143C12.9107 15.2143 13.7679 14.9866 14.5714 14.5313C15.375 14.0491 16.0045 13.4197 16.4598 12.6429C16.9152 11.8661 17.1429 11.0089 17.1429 10.0714Z"/></svg>