<svg width="24" height="24" viewBox="0 0 24 24" xmlns="http://www.w3.org/2000/svg" fill="#cacaca"><path d="M7.37492 4.09374V4.06249L19.3749 9.06249C19.7499 9.22915 19.9583 9.5104 19.9999 9.90624C20.0208 10.3021 19.8749 10.6146 19.5624 10.8437L13.5624 14.8437C13.2708 15.0312 12.9583 15.0625 12.6249 14.9375L10.4062 14L8.93742 17.8437C8.74992 18.2604 8.43742 18.4792 7.99992 18.5H4.99992V19C4.99992 19.2917 4.90617 19.5312 4.71867 19.7187C4.53117 19.9062 4.29159 20 3.99992 20C3.70825 20 3.46867 19.9062 3.28117 19.7187C3.09367 19.5312 2.99992 19.2917 2.99992 19V16C2.99992 15.7083 3.09367 15.4687 3.28117 15.2812C3.46867 15.0937 3.70825 15 3.99992 15C4.29159 15 4.53117 15.0937 4.71867 15.2812C4.90617 15.4687 4.99992 15.7083 4.99992 16V16.5H7.31242L8.56242 13.25L3.62492 11.1875C3.35409 11.0625 3.16659 10.8542 3.06242 10.5625C2.95825 10.2917 2.97909 10.0208 3.12492 9.74999L6.12492 4.49999C6.43742 4.04165 6.85409 3.90624 7.37492 4.09374ZM19.0312 16.4687L15.4062 14.8125L19.5624 12.0312L20.7187 12.5312C20.9687 12.6771 21.052 12.8958 20.9687 13.1875L19.7187 16.1875C19.6562 16.3125 19.5624 16.4062 19.4374 16.4687C19.3124 16.5104 19.177 16.5104 19.0312 16.4687Z"/></svg>