<svg width="24" height="24" viewBox="0 0 24 24" xmlns="http://www.w3.org/2000/svg" fill="#cacaca"><path d="M16.2857 17.5195L18.3571 18.9609C18.7857 19.2891 18.9405 19.7109 18.8214 20.2266C18.631 20.7188 18.2619 20.9766 17.7143 21H6.28571C5.7381 20.9766 5.36905 20.7188 5.17857 20.2266C5.05952 19.7109 5.21429 19.2891 5.64286 18.9609L7.71429 17.5195C6.57143 16.8164 5.67857 15.8789 5.03571 14.707C4.36905 13.5586 4.02381 12.2812 4 10.875C4.02381 9.39844 4.39286 8.07422 5.10714 6.90234C5.79762 5.70703 6.75 4.76953 7.96429 4.08984C9.15476 3.38672 10.5 3.02344 12 3C13.5 3.02344 14.8452 3.38672 16.0357 4.08984C17.25 4.76953 18.2024 5.70703 18.8929 6.90234C19.6071 8.07422 19.9762 9.39844 20 10.875C19.9762 12.2812 19.6429 13.5586 19 14.707C18.3333 15.8789 17.4286 16.8164 16.2857 17.5195ZM12 15.375C11.1667 15.375 10.4048 15.1758 9.71429 14.7773C9.02381 14.3789 8.46429 13.8281 8.03571 13.125C7.63095 12.4219 7.42857 11.6719 7.42857 10.875C7.42857 10.0781 7.63095 9.32812 8.03571 8.625C8.46429 7.92188 9.02381 7.37109 9.71429 6.97266C10.4048 6.57422 11.1667 6.375 12 6.375C12.8333 6.375 13.5952 6.57422 14.2857 6.97266C14.9762 7.37109 15.5357 7.92188 15.9643 8.625C16.369 9.32812 16.5714 10.0781 16.5714 10.875C16.5714 11.6719 16.369 12.4219 15.9643 13.125C15.5357 13.8281 14.9762 14.3789 14.2857 14.7773C13.5952 15.1758 12.8333 15.375 12 15.375ZM12 5.25C10.9762 5.25 10.0238 5.49609 9.14286 5.98828C8.26191 6.50391 7.55952 7.19531 7.03571 8.0625C6.53571 8.95312 6.28571 9.89062 6.28571 10.875C6.28571 11.8594 6.53571 12.7969 7.03571 13.6875C7.55952 14.5547 8.26191 15.2461 9.14286 15.7617C10.0238 16.2539 10.9762 16.5 12 16.5C13.0238 16.5 13.9762 16.2539 14.8571 15.7617C15.7381 15.2461 16.4405 14.5547 16.9643 13.6875C17.4643 12.7969 17.7143 11.8594 17.7143 10.875C17.7143 9.89062 17.4643 8.95312 16.9643 8.0625C16.4405 7.19531 15.7381 6.50391 14.8571 5.98828C13.9762 5.49609 13.0238 5.25 12 5.25ZM10.2857 10.875C10.3095 10.4062 10.4762 10.0078 10.7857 9.67969C11.119 9.375 11.5238 9.21094 12 9.1875C12.3571 9.16406 12.5476 8.97656 12.5714 8.625C12.5476 8.27344 12.3571 8.08594 12 8.0625C11.1905 8.08594 10.5119 8.35547 9.96429 8.87109C9.44048 9.41016 9.16667 10.0781 9.14286 10.875C9.16667 11.2266 9.35714 11.4141 9.71429 11.4375C10.0714 11.4141 10.2619 11.2266 10.2857 10.875Z"/></svg>