<svg width="24" height="24" viewBox="0 0 24 24" xmlns="http://www.w3.org/2000/svg" fill="#cacaca"><path d="M7 5.99426C6.25 6.0151 5.67708 6.34843 5.28125 6.99426C4.90625 7.66093 4.90625 8.3276 5.28125 8.99426C5.67708 9.6401 6.25 9.97343 7 9.99426C7.75 9.97343 8.32292 9.6401 8.71875 8.99426C9.09375 8.3276 9.09375 7.66093 8.71875 6.99426C8.32292 6.34843 7.75 6.0151 7 5.99426ZM14 11.9943H7C5.875 11.9734 4.92708 11.588 4.15625 10.838C3.40625 10.0672 3.02083 9.11926 3 7.99426C3.02083 6.86926 3.40625 5.92135 4.15625 5.15051C4.92708 4.40051 5.875 4.0151 7 3.99426C7.77083 3.99426 8.45833 4.18176 9.0625 4.55676C9.66667 4.93176 10.1458 5.43176 10.5 6.05676C10.8542 5.43176 11.3333 4.93176 11.9375 4.55676C12.5417 4.18176 13.2292 3.99426 14 3.99426C15.125 4.0151 16.0729 4.40051 16.8438 5.15051C17.5938 5.92135 17.9792 6.86926 18 7.99426C17.9792 9.11926 17.5938 10.0672 16.8438 10.838C16.0729 11.588 15.125 11.9734 14 11.9943ZM14 5.99426C13.25 6.0151 12.6771 6.34843 12.2812 6.99426C11.9062 7.66093 11.9062 8.3276 12.2812 8.99426C12.6771 9.6401 13.25 9.97343 14 9.99426C14.75 9.97343 15.3229 9.6401 15.7188 8.99426C16.0938 8.3276 16.0938 7.66093 15.7188 6.99426C15.3229 6.34843 14.75 6.0151 14 5.99426ZM20.4375 12.088C20.7917 12.2963 20.9792 12.5984 21 12.9943V18.9943C20.9792 19.3901 20.7917 19.6922 20.4375 19.9005C20.0833 20.0672 19.7396 20.0359 19.4062 19.8068L17.4062 18.3068L17 17.9943V13.9943L17.4062 13.6818L19.4062 12.1818C19.7396 11.9526 20.0833 11.9213 20.4375 12.088ZM5 12.9943H14C14.5625 13.0151 15.0312 13.213 15.4062 13.588C15.7812 13.963 15.9792 14.4318 16 14.9943V17.9943C15.9792 18.5568 15.7812 19.0255 15.4062 19.4005C15.0312 19.7755 14.5625 19.9734 14 19.9943H7C6.4375 19.9734 5.96875 19.7755 5.59375 19.4005C5.21875 19.0255 5.02083 18.5568 5 17.9943V14.9943H4C3.70833 14.9943 3.46875 14.9005 3.28125 14.713C3.09375 14.5255 3 14.2859 3 13.9943C3 13.7026 3.09375 13.463 3.28125 13.2755C3.46875 13.088 3.70833 12.9943 4 12.9943H5Z"/></svg>