<svg width="24" height="24" viewBox="0 0 24 24" xmlns="http://www.w3.org/2000/svg" fill="#cacaca"><path d="M2 3.87486C2.0467 3.36121 2.32687 3.08103 2.84053 3.03433H4.45155C5.24539 3.08103 5.82909 3.4546 6.20266 4.15504H20.5968C21.0637 4.17839 21.4373 4.36518 21.7175 4.7154C21.9743 5.06562 22.056 5.46254 21.9626 5.90615L20.5267 11.2645C20.3633 11.8249 20.0598 12.2685 19.6162 12.5954C19.1725 12.9456 18.6589 13.1207 18.0752 13.1207H7.98879L8.1639 14.1364C8.28064 14.5566 8.56082 14.7784 9.00444 14.8018H19.0908C19.6045 14.8485 19.8847 15.1287 19.9314 15.6423C19.8847 16.156 19.6045 16.4362 19.0908 16.4829H9.00444C8.37404 16.4829 7.83703 16.2844 7.39342 15.8875C6.92645 15.5139 6.6346 15.0353 6.51786 14.4516L4.69671 4.96055C4.67336 4.79712 4.59164 4.7154 4.45155 4.7154H2.84053C2.32687 4.6687 2.0467 4.38852 2 3.87486ZM6.48284 19.2846C6.50619 18.6542 6.78636 18.1639 7.32337 17.8137C7.88373 17.5335 8.44408 17.5335 9.00444 17.8137C9.54144 18.1639 9.82162 18.6542 9.84497 19.2846C9.82162 19.915 9.54144 20.4053 9.00444 20.7556C8.44408 21.0357 7.88373 21.0357 7.32337 20.7556C6.78636 20.4053 6.50619 19.915 6.48284 19.2846ZM18.2503 17.6036C18.8807 17.6269 19.371 17.9071 19.7212 18.4441C20.0014 19.0044 20.0014 19.5648 19.7212 20.1252C19.371 20.6622 18.8807 20.9423 18.2503 20.9657C17.6199 20.9423 17.1296 20.6622 16.7794 20.1252C16.4992 19.5648 16.4992 19.0044 16.7794 18.4441C17.1296 17.9071 17.6199 17.6269 18.2503 17.6036Z"/></svg>