<svg width="24" height="24" viewBox="0 0 24 24" xmlns="http://www.w3.org/2000/svg" fill="#cacaca"><path d="M20.0514 10.9699C20.6053 10.9699 21.0608 10.5191 20.9918 9.96954C20.9026 9.25933 20.7186 8.56273 20.4436 7.89865C20.0404 6.92494 19.4494 6.04021 18.7043 5.29496C17.9593 4.54972 17.0748 3.95856 16.1013 3.55524C15.4375 3.2802 14.7411 3.09618 14.0312 3.00695C13.4816 2.93787 13.0308 3.39337 13.0308 3.94729V9.96694C13.0308 10.5209 13.4799 10.9699 14.0338 10.9699H20.0514Z"/><path d="M11.0249 21C15.1173 21 18.4941 17.9362 18.9868 13.9773C19.0552 13.4276 18.5996 12.9763 18.0457 12.9763H12.0279C11.474 12.9763 11.0249 12.5273 11.0249 11.9733V5.95557C11.0249 5.40165 10.5736 4.94603 10.0239 5.01444C6.06498 5.50711 3.00122 8.88392 3.00122 12.9763C3.00122 17.4077 6.59355 21 11.0249 21Z"/></svg>