<svg width="24" height="24" viewBox="0 0 24 24" xmlns="http://www.w3.org/2000/svg" fill="#cacaca"><path d="M3 5.71429C3.02344 5.2381 3.1875 4.83333 3.49219 4.5C3.82031 4.19048 4.21875 4.02381 4.6875 4H9.1875C9.65625 4.02381 10.0547 4.19048 10.3828 4.5C10.6875 4.83333 10.8516 5.2381 10.875 5.71429V9.71429C10.8516 10.1905 10.6875 10.5952 10.3828 10.9286C10.0547 11.2381 9.65625 11.4048 9.1875 11.4286H4.6875C4.21875 11.4048 3.82031 11.2381 3.49219 10.9286C3.1875 10.5952 3.02344 10.1905 3 9.71429V5.71429ZM3 14.2857C3.02344 13.8095 3.1875 13.4048 3.49219 13.0714C3.82031 12.7619 4.21875 12.5952 4.6875 12.5714H9.1875C9.65625 12.5952 10.0547 12.7619 10.3828 13.0714C10.6875 13.4048 10.8516 13.8095 10.875 14.2857V18.2857C10.8516 18.7619 10.6875 19.1667 10.3828 19.5C10.0547 19.8095 9.65625 19.9762 9.1875 20H4.6875C4.21875 19.9762 3.82031 19.8095 3.49219 19.5C3.1875 19.1667 3.02344 18.7619 3 18.2857V14.2857ZM13.6875 4H19.3125C19.7812 4.02381 20.1797 4.19048 20.5078 4.5C20.8125 4.83333 20.9766 5.2381 21 5.71429V6.85714C20.9766 7.33333 20.8125 7.7381 20.5078 8.07143C20.1797 8.38095 19.7812 8.54762 19.3125 8.57143H13.6875C13.2188 8.54762 12.8203 8.38095 12.4922 8.07143C12.1875 7.7381 12.0234 7.33333 12 6.85714V5.71429C12.0234 5.2381 12.1875 4.83333 12.4922 4.5C12.8203 4.19048 13.2188 4.02381 13.6875 4ZM12 11.4286C12.0234 10.9524 12.1875 10.5476 12.4922 10.2143C12.8203 9.90476 13.2188 9.7381 13.6875 9.71429H19.3125C19.7812 9.7381 20.1797 9.90476 20.5078 10.2143C20.8125 10.5476 20.9766 10.9524 21 11.4286V12.5714C20.9766 13.0476 20.8125 13.4524 20.5078 13.7857C20.1797 14.0952 19.7812 14.2619 19.3125 14.2857H13.6875C13.2188 14.2619 12.8203 14.0952 12.4922 13.7857C12.1875 13.4524 12.0234 13.0476 12 12.5714V11.4286ZM13.6875 15.4286H19.3125C19.7812 15.4524 20.1797 15.619 20.5078 15.9286C20.8125 16.2619 20.9766 16.6667 21 17.1429V18.2857C20.9766 18.7619 20.8125 19.1667 20.5078 19.5C20.1797 19.8095 19.7812 19.9762 19.3125 20H13.6875C13.2188 19.9762 12.8203 19.8095 12.4922 19.5C12.1875 19.1667 12.0234 18.7619 12 18.2857V17.1429C12.0234 16.6667 12.1875 16.2619 12.4922 15.9286C12.8203 15.619 13.2188 15.4524 13.6875 15.4286Z"/></svg>