<svg width="24" height="24" viewBox="0 0 24 24" fill="#cacaca" xmlns="http://www.w3.org/2000/svg">
   <path fill-rule="evenodd" clip-rule="evenodd" d="M18 20.88C19.6569 20.88 21 19.5369 21 17.88V5.88C21 4.22315 19.6569 2.88 18 2.88H6C4.34315 2.88 3 4.22315 3 5.88V17.88C3 19.5369 4.34315 20.88 6 20.88H18ZM16 10C15.4477 10 15 10.4477 15 11V16C15 16.5523 15.4477 17 16 17C16.5523 17 17 16.5523 17 16V11C17 10.4477 16.5523 10 16 10ZM11 8C11 7.44772 11.4477 7 12 7C12.5523 7 13 7.44771 13 8V16C13 16.5523 12.5523 17 12 17C11.4477 17 11 16.5523 11 16L11 8ZM8 12C7.44771 12 7 12.4477 7 13L7 16C7 16.5523 7.44772 17 8 17C8.55228 17 9 16.5523 9 16L9 13C9 12.4477 8.55228 12 8 12Z" /> 
</svg>
