<svg width="24" height="24" viewBox="0 0 24 24" xmlns="http://www.w3.org/2000/svg" fill="#cacaca"><path d="M5.25 5.25V17.0625C5.27344 17.4141 5.46094 17.6016 5.8125 17.625H19.875C20.2031 17.625 20.4727 17.7305 20.6836 17.9414C20.8945 18.1523 21 18.4219 21 18.75C21 19.0781 20.8945 19.3477 20.6836 19.5586C20.4727 19.7695 20.2031 19.875 19.875 19.875H5.8125C5.01562 19.8516 4.34766 19.582 3.80859 19.0664C3.29297 18.5273 3.02344 17.8594 3 17.0625V5.25C3 4.92188 3.10547 4.65234 3.31641 4.44141C3.52734 4.23047 3.79688 4.125 4.125 4.125C4.45312 4.125 4.72266 4.23047 4.93359 4.44141C5.14453 4.65234 5.25 4.92188 5.25 5.25ZM18.4336 12.8086L17.3086 11.6836L14.4961 14.4961C14.2617 14.707 13.9922 14.8125 13.6875 14.8125C13.3828 14.8125 13.1133 14.707 12.8789 14.4961L10.3125 11.8945L8.30859 13.9336C8.07422 14.1445 7.80469 14.25 7.5 14.25C7.19531 14.25 6.92578 14.1445 6.69141 13.9336C6.48047 13.6992 6.375 13.4297 6.375 13.125C6.375 12.8203 6.48047 12.5508 6.69141 12.3164L9.50391 9.50391C9.73828 9.29297 10.0078 9.1875 10.3125 9.1875C10.6172 9.1875 10.8867 9.29297 11.1211 9.50391L13.6875 12.1055L15.6914 10.0664L14.5664 8.94141C14.3086 8.66016 14.25 8.35547 14.3906 8.02734C14.5078 7.69922 14.7656 7.52344 15.1641 7.5H19.0312C19.5469 7.54688 19.8281 7.82812 19.875 8.34375V12.2109C19.8516 12.6094 19.6758 12.8672 19.3477 12.9844C19.0195 13.125 18.7148 13.0664 18.4336 12.8086Z"/></svg>