<svg width="24" height="24" viewBox="0 0 24 24" xmlns="http://www.w3.org/2000/svg" fill="#cacaca"><path d="M5.57143 3H18.4286C19.1518 3.02679 19.7545 3.28125 20.2366 3.76339C20.7188 4.24554 20.9732 4.84821 21 5.57143V18.4286C20.9732 19.1518 20.7188 19.7545 20.2366 20.2366C19.7545 20.7188 19.1518 20.9732 18.4286 21H5.57143C4.84821 20.9732 4.24554 20.7188 3.76339 20.2366C3.28125 19.7545 3.02679 19.1518 3 18.4286V5.57143C3.02679 4.84821 3.28125 4.24554 3.76339 3.76339C4.24554 3.28125 4.84821 3.02679 5.57143 3ZM16.5402 10.1116C16.9152 9.65625 16.9152 9.20089 16.5402 8.74554C16.0848 8.37054 15.6295 8.37054 15.1741 8.74554L10.7143 13.2054L8.82589 11.317C8.37054 10.942 7.91518 10.942 7.45982 11.317C7.08482 11.7723 7.08482 12.2277 7.45982 12.683L10.0312 15.2545C10.4866 15.6295 10.942 15.6295 11.3973 15.2545L16.5402 10.1116Z"/></svg>