<svg width="24" height="24" viewBox="0 0 24 24" xmlns="http://www.w3.org/2000/svg" fill="#cacaca"><path d="M17.707 18.7071C18.0731 18.341 18.0957 17.762 17.7753 17.3692L17.707 17.293L12.707 12.293C12.3164 11.9025 11.6834 11.9025 11.2929 12.293L6.2929 17.293C5.90237 17.6836 5.90237 18.3166 6.2929 18.7071C6.68342 19.0976 7.31644 19.0976 7.70696 18.7071L11.9999 14.4141L16.2929 18.7071L16.3691 18.7755C16.7618 19.0958 17.3408 19.0732 17.707 18.7071ZM17.707 11.7071C18.0731 11.341 18.0957 10.762 17.7753 10.3692L17.707 10.293L12.707 5.29304C12.3164 4.90252 11.6834 4.90252 11.2929 5.29304L6.2929 10.293C5.90237 10.6836 5.90237 11.3166 6.2929 11.7071C6.68342 12.0976 7.31644 12.0976 7.70696 11.7071L11.9999 7.41414L16.2929 11.7071L16.3691 11.7755C16.7618 12.0958 17.3408 12.0732 17.707 11.7071Z"/></svg>