<svg width="24" height="24" viewBox="0 0 24 24" xmlns="http://www.w3.org/2000/svg" fill="#cacaca"><path d="M18.707 6.29298C18.3409 5.92686 17.7619 5.90427 17.3691 6.22462L17.2929 6.29298L12.2929 11.293C11.9024 11.6835 11.9024 12.3165 12.2929 12.707L17.2929 17.707C17.6834 18.0976 18.3165 18.0976 18.707 17.707C19.0975 17.3165 19.0975 16.6835 18.707 16.293L14.414 12L18.707 7.70704L18.7753 7.63087C19.0957 7.2381 19.0731 6.65909 18.707 6.29298ZM11.707 6.29298C11.3409 5.92686 10.7619 5.90427 10.3691 6.22462L10.2929 6.29298L5.29292 11.293C4.9024 11.6835 4.9024 12.3165 5.29292 12.707L10.2929 17.707C10.6834 18.0976 11.3165 18.0976 11.707 17.707C12.0975 17.3165 12.0975 16.6835 11.707 16.293L7.41402 12L11.707 7.70704L11.7753 7.63087C12.0957 7.2381 12.0731 6.65909 11.707 6.29298Z"/></svg>