<svg width="24" height="24" viewBox="0 0 24 24" xmlns="http://www.w3.org/2000/svg" fill="#cacaca"><path d="M17.707 5.29302C18.0731 5.65913 18.0957 6.23813 17.7754 6.63091L17.707 6.70708L12.707 11.7071C12.3165 12.0976 11.6835 12.0976 11.293 11.7071L6.29296 6.70708C5.90244 6.31655 5.90244 5.68354 6.29296 5.29302C6.68348 4.90249 7.3165 4.90249 7.70702 5.29302L12 9.58598L16.293 5.29302L16.3691 5.22466C16.7619 4.90431 17.3409 4.9269 17.707 5.29302ZM17.707 12.293C18.0731 12.6591 18.0957 13.2381 17.7754 13.6309L17.707 13.7071L12.707 18.7071C12.3165 19.0976 11.6835 19.0976 11.293 18.7071L6.29296 13.7071C5.90244 13.3166 5.90244 12.6835 6.29296 12.293C6.68348 11.9025 7.3165 11.9025 7.70702 12.293L12 16.586L16.293 12.293L16.3691 12.2247C16.7619 11.9043 17.3409 11.9269 17.707 12.293Z"/></svg>