<svg width="24" height="24" viewBox="0 0 24 24" xmlns="http://www.w3.org/2000/svg" fill="#cacaca"><path d="M14.2501 5.25C14.2267 6.09375 13.8517 6.73828 13.1251 7.18359C12.3751 7.60547 11.6251 7.60547 10.8751 7.18359C10.1486 6.73828 9.77358 6.09375 9.75015 5.25C9.77358 4.40625 10.1486 3.76172 10.8751 3.31641C11.6251 2.89453 12.3751 2.89453 13.1251 3.31641C13.8517 3.76172 14.2267 4.40625 14.2501 5.25ZM10.6291 8.94141C10.6525 8.96484 10.6759 8.97656 10.6994 8.97656C10.6994 8.97656 10.7111 8.97656 10.7345 8.97656C11.133 9.11719 11.5548 9.1875 12.0001 9.1875C12.7267 9.1875 13.383 9.02344 13.9689 8.69531C14.5783 8.36719 15.0822 7.89844 15.4806 7.28906L16.1134 6.33984C16.3009 6.05859 16.5353 5.89453 16.8166 5.84766C17.1212 5.77734 17.4142 5.82422 17.6955 5.98828C17.9533 6.17578 18.1056 6.41016 18.1525 6.69141C18.2228 6.99609 18.1759 7.28906 18.0119 7.57031L17.3791 8.51953C16.6994 9.52734 15.8439 10.2891 14.8126 10.8047V19.875C14.8126 20.2031 14.7072 20.4727 14.4962 20.6836C14.2853 20.8945 14.0158 21 13.6876 21C13.3595 21 13.09 20.8945 12.8791 20.6836C12.6681 20.4727 12.5626 20.2031 12.5626 19.875V16.5H11.4376V19.875C11.4376 20.2031 11.3322 20.4727 11.1212 20.6836C10.9103 20.8945 10.6408 21 10.3126 21C9.98452 21 9.71499 20.8945 9.50405 20.6836C9.29312 20.4727 9.18765 20.2031 9.18765 19.875V10.7695C8.17983 10.2773 7.3478 9.55078 6.69155 8.58984L5.98843 7.57031C5.82437 7.28906 5.77749 7.00781 5.8478 6.72656C5.89468 6.42188 6.04702 6.17578 6.30483 5.98828C6.58608 5.82422 6.86733 5.77734 7.14858 5.84766C7.45327 5.89453 7.69937 6.04688 7.88687 6.30469L8.55483 7.35938C9.07046 8.10938 9.76187 8.63672 10.6291 8.94141Z"/></svg>