<svg width="24" height="24" viewBox="0 0 24 24" xmlns="http://www.w3.org/2000/svg" fill="#cacaca"><path d="M18.9609 4.125L14.4609 8.625H11.2266L15.7266 4.125H18.75C18.8203 4.125 18.8906 4.125 18.9609 4.125ZM16.8516 8.625L20.5078 4.96875C20.8359 5.36719 21 5.83594 21 6.375V8.625H16.8516ZM10.1016 4.125H13.3359L8.83594 8.625H5.60156L10.1016 4.125ZM7.71094 4.125L3.21094 8.625H3V6.375C3.02344 5.74219 3.24609 5.21484 3.66797 4.79297C4.08984 4.37109 4.61719 4.14844 5.25 4.125H7.71094ZM3 9.75H21V17.625C20.9766 18.2578 20.7539 18.7852 20.332 19.207C19.9102 19.6289 19.3828 19.8516 18.75 19.875H5.25C4.61719 19.8516 4.08984 19.6289 3.66797 19.207C3.24609 18.7852 3.02344 18.2578 3 17.625V9.75ZM10.6289 12.0703C10.418 12.1875 10.3125 12.3516 10.3125 12.5625V17.0625C10.3125 17.2734 10.418 17.4375 10.6289 17.5547C10.8164 17.6484 11.0039 17.6367 11.1914 17.5195L14.5664 15.2695C14.7305 15.1523 14.8125 15 14.8125 14.8125C14.8125 14.625 14.7305 14.4727 14.5664 14.3555L11.1914 12.1055C11.0039 11.9883 10.8164 11.9766 10.6289 12.0703Z"/></svg>