<svg width="24" height="24" viewBox="0 0 24 24" xmlns="http://www.w3.org/2000/svg" fill="#cacaca"><path d="M18.75 4.125C18.8203 4.125 18.8906 4.125 18.9609 4.125L14.4609 8.625H11.2266L15.7266 4.125H18.75ZM21 8.625H16.8516L20.5078 4.96875C20.8359 5.36719 21 5.83594 21 6.375V8.625ZM13.3359 4.125L8.83594 8.625H5.60156L10.1016 4.125H13.3359ZM5.25 4.125H7.71094L3.21094 8.625H3V6.375C3.02344 5.74219 3.24609 5.21484 3.66797 4.79297C4.08984 4.37109 4.61719 4.14844 5.25 4.125ZM21 9.75V17.625C20.9766 18.2578 20.7539 18.7852 20.332 19.207C19.9102 19.6289 19.3828 19.8516 18.75 19.875H5.25C4.61719 19.8516 4.08984 19.6289 3.66797 19.207C3.24609 18.7852 3.02344 18.2578 3 17.625V9.75H21Z"/></svg>