<svg width="24" height="24" viewBox="0 0 24 24" xmlns="http://www.w3.org/2000/svg" fill="#cacaca"><path d="M12 4C12.6667 4.02083 13.25 4.20833 13.75 4.5625C14.25 4.9375 14.6146 5.41667 14.8438 6H16C16.5625 6.02083 17.0312 6.21875 17.4062 6.59375C17.7812 6.96875 17.9792 7.4375 18 8V18C17.9792 18.5625 17.7812 19.0312 17.4062 19.4062C17.0312 19.7812 16.5625 19.9792 16 20H8C7.4375 19.9792 6.96875 19.7812 6.59375 19.4062C6.21875 19.0312 6.02083 18.5625 6 18V8C6.02083 7.4375 6.21875 6.96875 6.59375 6.59375C6.96875 6.21875 7.4375 6.02083 8 6H9.1875C9.39583 5.41667 9.75 4.9375 10.25 4.5625C10.75 4.20833 11.3333 4.02083 12 4ZM12 6C11.7083 6 11.4688 6.09375 11.2812 6.28125C11.0938 6.46875 11 6.70833 11 7C11 7.29167 11.0938 7.53125 11.2812 7.71875C11.4688 7.90625 11.7083 8 12 8C12.2917 8 12.5312 7.90625 12.7188 7.71875C12.9062 7.53125 13 7.29167 13 7C13 6.70833 12.9062 6.46875 12.7188 6.28125C12.5312 6.09375 12.2917 6 12 6ZM15.5312 12.5312C15.8229 12.1771 15.8229 11.8229 15.5312 11.4688C15.1771 11.1771 14.8229 11.1771 14.4688 11.4688L11 14.9375L9.53125 13.4688C9.17708 13.1771 8.82292 13.1771 8.46875 13.4688C8.17708 13.8229 8.17708 14.1771 8.46875 14.5312L10.4688 16.5312C10.8229 16.8229 11.1771 16.8229 11.5312 16.5312L15.5312 12.5312Z"/></svg>