<svg width="24" height="24" viewBox="0 0 24 24" xmlns="http://www.w3.org/2000/svg" fill="#cacaca"><path d="M12 3C12.7778 3.02344 13.4583 3.23438 14.0417 3.63281C14.625 4.05469 15.0503 4.59375 15.3177 5.25H16.6667C17.3229 5.27344 17.8698 5.49609 18.3073 5.91797C18.7448 6.33984 18.9757 6.86719 19 7.5V18.75C18.9757 19.3828 18.7448 19.9102 18.3073 20.332C17.8698 20.7539 17.3229 20.9766 16.6667 21H7.33333C6.67708 20.9766 6.13021 20.7539 5.69271 20.332C5.25521 19.9102 5.02431 19.3828 5 18.75V7.5C5.02431 6.86719 5.25521 6.33984 5.69271 5.91797C6.13021 5.49609 6.67708 5.27344 7.33333 5.25H8.71875C8.96181 4.59375 9.375 4.05469 9.95833 3.63281C10.5417 3.23438 11.2222 3.02344 12 3ZM12 5.25C11.6597 5.25 11.3802 5.35547 11.1615 5.56641C10.9427 5.77734 10.8333 6.04688 10.8333 6.375C10.8333 6.70312 10.9427 6.97266 11.1615 7.18359C11.3802 7.39453 11.6597 7.5 12 7.5C12.3403 7.5 12.6198 7.39453 12.8385 7.18359C13.0573 6.97266 13.1667 6.70312 13.1667 6.375C13.1667 6.04688 13.0573 5.77734 12.8385 5.56641C12.6198 5.35547 12.3403 5.25 12 5.25ZM9.08333 9.75C8.71875 9.77344 8.52431 9.96094 8.5 10.3125C8.52431 10.6641 8.71875 10.8516 9.08333 10.875H14.9167C15.2812 10.8516 15.4757 10.6641 15.5 10.3125C15.4757 9.96094 15.2812 9.77344 14.9167 9.75H9.08333Z"/></svg>