<svg width="24" height="24" viewBox="0 0 24 24" fill="#cacaca" xmlns="http://www.w3.org/2000/svg">
   <path d="M5.63672 5.63672C6.45703 4.81641 7.40625 4.17188 8.48438 3.70312C9.58594 3.23438 10.7578 3 12 3C13.6875 3.02344 15.1992 3.43359 16.5352 4.23047C17.8945 5.02734 18.9727 6.10547 19.7695 7.46484C20.5664 8.80078 20.9766 10.3125 21 12C20.9766 13.6875 20.5664 15.1992 19.7695 16.5352C18.9727 17.8945 17.8945 18.9727 16.5352 19.7695C15.1992 20.5664 13.6875 20.9766 12 21C10.0547 20.9766 8.34375 20.4375 6.86719 19.3828C6.60938 19.1953 6.44531 18.9492 6.375 18.6445C6.32812 18.3633 6.39844 18.0938 6.58594 17.8359C6.77344 17.5781 7.00781 17.4141 7.28906 17.3438C7.59375 17.2969 7.875 17.3672 8.13281 17.5547C9.25781 18.3281 10.5469 18.7266 12 18.75C13.9219 18.7031 15.5156 18.0469 16.7812 16.7812C18.0469 15.5156 18.7031 13.9219 18.75 12C18.7031 10.0781 18.0469 8.48438 16.7812 7.21875C15.5156 5.95312 13.9219 5.29688 12 5.25C10.0781 5.29688 8.48438 5.95312 7.21875 7.21875L8.30859 8.30859C8.56641 8.58984 8.625 8.89453 8.48438 9.22266C8.36719 9.55078 8.10938 9.72656 7.71094 9.75H3.84375C3.32812 9.70312 3.04688 9.42188 3 8.90625V5.03906C3.02344 4.64062 3.19922 4.38281 3.52734 4.26562C3.85547 4.125 4.16016 4.18359 4.44141 4.44141L5.63672 5.63672ZM12 7.5C12.5156 7.54688 12.7969 7.82812 12.8438 8.34375V11.6484L15.1289 13.9336C15.457 14.332 15.457 14.7305 15.1289 15.1289C14.7305 15.457 14.332 15.457 13.9336 15.1289L11.4023 12.5977C11.2383 12.4336 11.1562 12.2344 11.1562 12V8.34375C11.2031 7.82812 11.4844 7.54688 12 7.5Z" /> 
</svg>
