  <svg
    width="24"
    height="24"
    viewBox="0 0 24 24"
    fill="#cacaca"
    xmlns="http://www.w3.org/2000/svg"
  >
    <path d="M12 3C13.6406 3.02344 15.1406 3.42188 16.5 4.19531C17.8594 4.99219 18.9609 6.09375 19.8047 7.5C20.6016 8.92969 21 10.4297 21 12C21 13.5703 20.6016 15.0703 19.8047 16.5C18.9609 17.9062 17.8594 19.0078 16.5 19.8047C15.1406 20.5781 13.6406 20.9766 12 21C10.3594 20.9766 8.85938 20.5781 7.5 19.8047C6.14062 19.0078 5.03906 17.9062 4.19531 16.5C3.39844 15.0703 3 13.5703 3 12C3 10.4297 3.39844 8.92969 4.19531 7.5C5.03906 6.09375 6.14062 4.99219 7.5 4.19531C8.85938 3.42188 10.3594 3.02344 12 3ZM11.1562 7.21875V12C11.1562 12.3047 11.2852 12.5391 11.543 12.7031L14.918 14.9531C15.3633 15.2109 15.75 15.1289 16.0781 14.707C16.3359 14.2617 16.2539 13.875 15.832 13.5469L12.8438 11.543V7.21875C12.7969 6.70312 12.5156 6.42188 12 6.375C11.4844 6.42188 11.2031 6.70312 11.1562 7.21875Z" />
  </svg>