<svg width="24" height="24" viewBox="0 0 24 24" xmlns="http://www.w3.org/2000/svg" fill="#cacaca"><path d="M5.44643 2.875H18.3036C19.0268 2.90179 19.6295 3.15625 20.1116 3.63839C20.5938 4.12054 20.8482 4.72321 20.875 5.44643V18.3036C20.8482 19.0268 20.5938 19.6295 20.1116 20.1116C19.6295 20.5938 19.0268 20.8482 18.3036 20.875H5.44643C4.72321 20.8482 4.12054 20.5938 3.63839 20.1116C3.15625 19.6295 2.90179 19.0268 2.875 18.3036V5.44643C2.90179 4.72321 3.15625 4.12054 3.63839 3.63839C4.12054 3.15625 4.72321 2.90179 5.44643 2.875ZM8.62054 8.62054C8.24554 9.07589 8.24554 9.53125 8.62054 9.98661L10.5089 11.875L8.62054 13.7634C8.24554 14.2188 8.24554 14.6741 8.62054 15.1295C9.07589 15.5045 9.53125 15.5045 9.98661 15.1295L11.875 13.2411L13.7634 15.1295C14.2188 15.5045 14.6741 15.5045 15.1295 15.1295C15.5045 14.6741 15.5045 14.2188 15.1295 13.7634L13.2411 11.875L15.1295 9.98661C15.5045 9.53125 15.5045 9.07589 15.1295 8.62054C14.6741 8.24554 14.2188 8.24554 13.7634 8.62054L11.875 10.5089L9.98661 8.62054C9.53125 8.24554 9.07589 8.24554 8.62054 8.62054Z"/></svg>