<svg width="24" height="24" viewBox="0 0 24 24" xmlns="http://www.w3.org/2000/svg" fill="#cacaca"><path d="M3 7C3.02083 6.4375 3.21875 5.96875 3.59375 5.59375C3.96875 5.21875 4.4375 5.02083 5 5H19C19.5625 5.02083 20.0312 5.21875 20.4062 5.59375C20.7812 5.96875 20.9792 6.4375 21 7V17C20.9792 17.5625 20.7812 18.0312 20.4062 18.4062C20.0312 18.7812 19.5625 18.9792 19 19H5C4.4375 18.9792 3.96875 18.7812 3.59375 18.4062C3.21875 18.0312 3.02083 17.5625 3 17V7ZM9.25 10.5C9.70833 10.5208 10.0833 10.6875 10.375 11C10.7083 11.3125 11.0625 11.3333 11.4375 11.0625C11.75 10.7292 11.7708 10.375 11.5 10C10.9167 9.35417 10.1667 9.02083 9.25 9C8.39583 9.02083 7.6875 9.3125 7.125 9.875C6.5625 10.4375 6.27083 11.1458 6.25 12C6.27083 12.8542 6.5625 13.5625 7.125 14.125C7.6875 14.6875 8.39583 14.9792 9.25 15C10.1667 14.9792 10.9167 14.6458 11.5 14C11.7708 13.625 11.75 13.2708 11.4375 12.9375C11.0625 12.6667 10.7083 12.6875 10.375 13C10.0833 13.3125 9.70833 13.4792 9.25 13.5C8.83333 13.4792 8.47917 13.3333 8.1875 13.0625C7.91667 12.7708 7.77083 12.4167 7.75 12C7.77083 11.5833 7.91667 11.2292 8.1875 10.9375C8.47917 10.6667 8.83333 10.5208 9.25 10.5ZM13.75 12C13.7708 11.5833 13.9167 11.2292 14.1875 10.9375C14.4792 10.6667 14.8333 10.5208 15.25 10.5C15.7083 10.5208 16.0833 10.6875 16.375 11C16.7083 11.3125 17.0625 11.3333 17.4375 11.0625C17.75 10.7292 17.7708 10.375 17.5 10C16.9167 9.35417 16.1667 9.02083 15.25 9C14.3958 9.02083 13.6875 9.3125 13.125 9.875C12.5625 10.4375 12.2708 11.1458 12.25 12C12.2708 12.8542 12.5625 13.5625 13.125 14.125C13.6875 14.6875 14.3958 14.9792 15.25 15C16.1667 14.9792 16.9167 14.6458 17.5 14C17.7708 13.625 17.75 13.2708 17.4375 12.9375C17.0625 12.6667 16.7083 12.6875 16.375 13C16.0833 13.3125 15.7083 13.4792 15.25 13.5C14.8333 13.4792 14.4792 13.3333 14.1875 13.0625C13.9167 12.7708 13.7708 12.4167 13.75 12Z"/></svg>