<svg width="24" height="24" viewBox="0 0 24 24" xmlns="http://www.w3.org/2000/svg" fill="#cacaca"><path d="M7.50781 2.82031C8.05469 2.29948 8.71875 2.02604 9.5 2H14.5391C15.2943 2.02604 15.9453 2.29948 16.4922 2.82031L21.1797 7.50781C21.7005 8.05469 21.974 8.71875 22 9.5V14.5391C21.974 15.2943 21.7005 15.9453 21.1797 16.4922L16.4922 21.1797C15.9453 21.7005 15.2943 21.974 14.5391 22H9.5C8.71875 21.974 8.05469 21.7005 7.50781 21.1797L2.82031 16.4922C2.29948 15.9453 2.02604 15.2943 2 14.5391V9.5C2.02604 8.71875 2.29948 8.05469 2.82031 7.50781L7.50781 2.82031ZM8.83594 8.83594C8.47135 9.27865 8.47135 9.72135 8.83594 10.1641L10.6719 12L8.83594 13.8359C8.47135 14.2786 8.47135 14.7214 8.83594 15.1641C9.27865 15.5286 9.72135 15.5286 10.1641 15.1641L12 13.3281L13.8359 15.1641C14.2786 15.5286 14.7214 15.5286 15.1641 15.1641C15.5286 14.7214 15.5286 14.2786 15.1641 13.8359L13.3281 12L15.1641 10.1641C15.5286 9.72135 15.5286 9.27865 15.1641 8.83594C14.7214 8.47135 14.2786 8.47135 13.8359 8.83594L12 10.6719L10.1641 8.83594C9.72135 8.47135 9.27865 8.47135 8.83594 8.83594Z"/></svg>