<svg width="24" height="24" viewBox="0 0 24 24" xmlns="http://www.w3.org/2000/svg" fill="#cacaca"><path d="M2 14.5C2.02083 13.5 2.30208 12.625 2.84375 11.875C3.38542 11.125 4.10417 10.5833 5 10.25C5 10.1667 5 10.0833 5 10C5.04167 8.58333 5.53125 7.40625 6.46875 6.46875C7.40625 5.53125 8.58333 5.04167 10 5C10.9375 5.02083 11.7812 5.25 12.5312 5.6875C13.2812 6.14583 13.8854 6.75 14.3438 7.5C14.8229 7.16667 15.375 7 16 7C16.8542 7.02083 17.5625 7.3125 18.125 7.875C18.6875 8.4375 18.9792 9.14583 19 10C19 10.375 18.9375 10.7396 18.8125 11.0938C19.7292 11.2812 20.4896 11.7396 21.0938 12.4688C21.6771 13.1771 21.9792 14.0208 22 15C21.9792 16.125 21.5938 17.0729 20.8438 17.8438C20.0729 18.5938 19.125 18.9792 18 19H6.5C5.22917 18.9583 4.16667 18.5208 3.3125 17.6875C2.47917 16.8333 2.04167 15.7708 2 14.5Z"/></svg>