<svg width="24" height="24" viewBox="0 0 24 24" xmlns="http://www.w3.org/2000/svg" fill="#cacaca"><path d="M16.3594 8.625C16.4062 8.625 16.4531 8.625 16.5 8.625C17.7656 8.64844 18.832 9.08203 19.6992 9.92578C20.543 10.793 20.9766 11.8594 21 13.125C20.9766 14.3906 20.543 15.457 19.6992 16.3242C18.832 17.168 17.7656 17.6016 16.5 17.625C15.1172 17.5781 13.9922 17.0742 13.125 16.1133V18.75H14.25C14.5781 18.75 14.8477 18.8555 15.0586 19.0664C15.2695 19.2773 15.375 19.5469 15.375 19.875C15.375 20.2031 15.2695 20.4727 15.0586 20.6836C14.8477 20.8945 14.5781 21 14.25 21H9.75C9.42188 21 9.15234 20.8945 8.94141 20.6836C8.73047 20.4727 8.625 20.2031 8.625 19.875C8.625 19.5469 8.73047 19.2773 8.94141 19.0664C9.15234 18.8555 9.42188 18.75 9.75 18.75H10.875V16.1133C10.0078 17.0742 8.88281 17.5781 7.5 17.625C6.23438 17.6016 5.16797 17.168 4.30078 16.3242C3.45703 15.457 3.02344 14.3906 3 13.125C3.02344 11.8594 3.45703 10.793 4.30078 9.92578C5.16797 9.08203 6.23438 8.64844 7.5 8.625C7.54688 8.625 7.59375 8.625 7.64062 8.625C7.54688 8.27344 7.5 7.89844 7.5 7.5C7.52344 6.23438 7.95703 5.16797 8.80078 4.30078C9.66797 3.45703 10.7344 3.02344 12 3C13.2656 3.02344 14.332 3.45703 15.1992 4.30078C16.043 5.16797 16.4766 6.23438 16.5 7.5C16.5 7.89844 16.4531 8.27344 16.3594 8.625Z"/></svg>