<svg width="24" height="24" viewBox="0 0 24 24" xmlns="http://www.w3.org/2000/svg" fill="#cacaca"><path d="M14.2812 4.03125C14.5521 4.11458 14.75 4.27083 14.875 4.5C15 4.75 15.0312 5.01042 14.9688 5.28125L10.9688 19.2812C10.8854 19.5521 10.7292 19.75 10.5 19.875C10.25 20 9.98958 20.0312 9.71875 19.9688C9.44792 19.8854 9.25 19.7292 9.125 19.5C9 19.25 8.96875 18.9896 9.03125 18.7188L13.0312 4.71875C13.1146 4.44792 13.2708 4.25 13.5 4.125C13.75 4 14.0104 3.96875 14.2812 4.03125ZM16.7812 7.78125C16.9896 7.59375 17.2292 7.5 17.5 7.5C17.7708 7.5 18.0104 7.59375 18.2188 7.78125L21.7188 11.2812C21.9062 11.4896 22 11.7292 22 12C22 12.2708 21.9062 12.5104 21.7188 12.7188L18.2188 16.2188C18.0104 16.4062 17.7708 16.5 17.5 16.5C17.2292 16.5 16.9896 16.4062 16.7812 16.2188C16.5938 16.0104 16.5 15.7708 16.5 15.5C16.5 15.2292 16.5938 14.9896 16.7812 14.7812L19.5938 12L16.7812 9.21875C16.5938 9.01042 16.5 8.77083 16.5 8.5C16.5 8.22917 16.5938 7.98958 16.7812 7.78125ZM7.21875 7.78125C7.40625 7.98958 7.5 8.22917 7.5 8.5C7.5 8.77083 7.40625 9.01042 7.21875 9.21875L4.40625 12L7.21875 14.7812C7.40625 14.9896 7.5 15.2292 7.5 15.5C7.5 15.7708 7.40625 16.0104 7.21875 16.2188C7.01042 16.4062 6.77083 16.5 6.5 16.5C6.22917 16.5 5.98958 16.4062 5.78125 16.2188L2.28125 12.7188C2.09375 12.5104 2 12.2708 2 12C2 11.7292 2.09375 11.4896 2.28125 11.2812L5.78125 7.78125C5.98958 7.59375 6.22917 7.5 6.5 7.5C6.77083 7.5 7.01042 7.59375 7.21875 7.78125Z"/></svg>