<svg width="24" height="24" viewBox="0 0 24 24" xmlns="http://www.w3.org/2000/svg" fill="#cacaca"><path d="M3 5.57143C3.02679 4.84821 3.28125 4.24554 3.76339 3.76339C4.24554 3.28125 4.84821 3.02679 5.57143 3H18.4286C19.1518 3.02679 19.7545 3.28125 20.2366 3.76339C20.7188 4.24554 20.9732 4.84821 21 5.57143V18.4286C20.9732 19.1518 20.7188 19.7545 20.2366 20.2366C19.7545 20.7188 19.1518 20.9732 18.4286 21H5.57143C4.84821 20.9732 4.24554 20.7188 3.76339 20.2366C3.28125 19.7545 3.02679 19.1518 3 18.4286V5.57143ZM13.5268 8.46429C13.1786 8.94643 13.2054 9.40179 13.6071 9.83036L16.0179 12L13.6071 14.1696C13.2054 14.5982 13.1786 15.0536 13.5268 15.5357C13.9554 15.9375 14.4107 15.9643 14.8929 15.6161L18.1071 12.7232C18.3214 12.5357 18.4286 12.2946 18.4286 12C18.4286 11.7054 18.3214 11.4643 18.1071 11.2768L14.8929 8.38393C14.4107 8.03571 13.9554 8.0625 13.5268 8.46429ZM10.3929 9.83036C10.7946 9.40179 10.8214 8.94643 10.4732 8.46429C10.0446 8.0625 9.58929 8.03571 9.10714 8.38393L5.89286 11.2768C5.67857 11.4643 5.57143 11.7054 5.57143 12C5.57143 12.2946 5.67857 12.5357 5.89286 12.7232L9.10714 15.6161C9.58929 15.9643 10.0446 15.9375 10.4732 15.5357C10.8214 15.0536 10.7946 14.5982 10.3929 14.1696L7.98214 12L10.3929 9.83036Z"/></svg>