<svg width="24" height="24" viewBox="0 0 24 24" xmlns="http://www.w3.org/2000/svg" fill="#cacaca"><path d="M12 15C9.72917 14.9583 7.84375 14.5208 6.34375 13.6875C4.84375 12.8333 4.0625 11.7708 4 10.5C4.0625 9.22917 4.84375 8.16667 6.34375 7.3125C7.84375 6.47917 9.72917 6.04167 12 6C14.2708 6.04167 16.1562 6.47917 17.6562 7.3125C19.1562 8.16667 19.9375 9.22917 20 10.5C19.9375 11.7708 19.1562 12.8333 17.6562 13.6875C16.1562 14.5208 14.2708 14.9583 12 15ZM6.71875 11.75C7.09375 12.1042 7.55208 12.3854 8.09375 12.5938C9.17708 13.0312 10.4792 13.25 12 13.25C13.5208 13.25 14.8229 13.0312 15.9062 12.5938C16.4479 12.3854 16.9062 12.1042 17.2812 11.75C17.7188 11.3958 17.9583 10.8958 18 10.25C17.9583 9.60417 17.7188 9.10417 17.2812 8.75C16.9062 8.39583 16.4479 8.11458 15.9062 7.90625C14.8229 7.46875 13.5208 7.25 12 7.25C10.4792 7.25 9.17708 7.46875 8.09375 7.90625C7.55208 8.11458 7.09375 8.39583 6.71875 8.75C6.28125 9.10417 6.04167 9.60417 6 10.25C6.04167 10.8958 6.28125 11.3958 6.71875 11.75ZM7 10.25C7.04167 9.6875 7.53125 9.21875 8.46875 8.84375C9.40625 8.46875 10.5833 8.27083 12 8.25C13.4167 8.27083 14.5938 8.46875 15.5312 8.84375C16.4688 9.21875 16.9583 9.6875 17 10.25C16.9583 10.8125 16.4688 11.2812 15.5312 11.6562C14.5938 12.0312 13.4167 12.2292 12 12.25C10.5833 12.2292 9.40625 12.0312 8.46875 11.6562C7.53125 11.2812 7.04167 10.8125 7 10.25ZM4 13.0625C4.41667 13.5625 4.91667 13.9896 5.5 14.3438V16.3438C4.52083 15.6562 4.02083 14.875 4 14V13.0625ZM6.5 16.9062V14.875C7.39583 15.2917 8.39583 15.5938 9.5 15.7812V17.8125C8.35417 17.6042 7.35417 17.3021 6.5 16.9062ZM10.5 17.9375V15.9375C11 15.9792 11.5 16 12 16C12.5 16 13 15.9792 13.5 15.9375V17.9375C13.0208 17.9792 12.5208 18 12 18C11.4792 18 10.9792 17.9792 10.5 17.9375ZM14.5 17.8125V15.7812C15.6042 15.5938 16.6042 15.2917 17.5 14.875V16.9062C16.6458 17.3229 15.6458 17.625 14.5 17.8125ZM18.5 16.3438V14.3438C19.0833 13.9896 19.5833 13.5625 20 13.0625V14C19.9792 14.875 19.4792 15.6562 18.5 16.3438Z"/></svg>