<svg width="24" height="24" viewBox="0 0 24 24" xmlns="http://www.w3.org/2000/svg" fill="#cacaca"><path d="M15 12C14.9583 14.2708 14.5208 16.1562 13.6875 17.6562C12.8333 19.1562 11.7708 19.9375 10.5 20C9.22917 19.9375 8.16667 19.1562 7.3125 17.6562C6.47917 16.1562 6.04167 14.2708 6 12C6.04167 9.72917 6.47917 7.84375 7.3125 6.34375C8.16667 4.84375 9.22917 4.0625 10.5 4C11.7708 4.0625 12.8333 4.84375 13.6875 6.34375C14.5208 7.84375 14.9583 9.72917 15 12ZM11.75 17.2812C12.1042 16.9062 12.3854 16.4479 12.5938 15.9062C13.0312 14.8229 13.25 13.5208 13.25 12C13.25 10.4792 13.0312 9.17708 12.5938 8.09375C12.3854 7.55208 12.1042 7.09375 11.75 6.71875C11.3958 6.28125 10.8958 6.04167 10.25 6C9.60417 6.04167 9.10417 6.28125 8.75 6.71875C8.39583 7.09375 8.11458 7.55208 7.90625 8.09375C7.46875 9.17708 7.25 10.4792 7.25 12C7.25 13.5208 7.46875 14.8229 7.90625 15.9062C8.11458 16.4479 8.39583 16.9062 8.75 17.2812C9.10417 17.7188 9.60417 17.9583 10.25 18C10.8958 17.9583 11.3958 17.7188 11.75 17.2812ZM10.25 17C9.6875 16.9583 9.21875 16.4688 8.84375 15.5312C8.46875 14.5938 8.27083 13.4167 8.25 12C8.27083 10.5833 8.46875 9.40625 8.84375 8.46875C9.21875 7.53125 9.6875 7.04167 10.25 7C10.8125 7.04167 11.2812 7.53125 11.6562 8.46875C12.0312 9.40625 12.2292 10.5833 12.25 12C12.2292 13.4167 12.0312 14.5938 11.6562 15.5312C11.2812 16.4688 10.8125 16.9583 10.25 17ZM13.0625 20C13.5625 19.5833 13.9896 19.0833 14.3438 18.5H16.3438C15.6771 19.4792 14.8958 19.9792 14 20H13.0625ZM16.9062 17.5H14.875C15.2917 16.6042 15.5938 15.6042 15.7812 14.5H17.8125C17.6042 15.6458 17.3021 16.6458 16.9062 17.5ZM17.9375 13.5H15.9375C15.9792 13 16 12.5 16 12C16 11.5 15.9792 11 15.9375 10.5H17.9375C17.9792 10.9792 18 11.4792 18 12C18 12.5208 17.9792 13.0208 17.9375 13.5ZM17.8125 9.5H15.7812C15.5938 8.39583 15.2917 7.39583 14.875 6.5H16.9062C17.3021 7.35417 17.6042 8.35417 17.8125 9.5ZM16.3438 5.5H14.3438C13.9896 4.91667 13.5625 4.41667 13.0625 4H14C14.875 4.02083 15.6562 4.52083 16.3438 5.5Z"/></svg>