<svg width="24" height="24" viewBox="0 0 24 24" xmlns="http://www.w3.org/2000/svg" fill="#cacaca"><path d="M19.293 3.29295C19.6835 2.90243 20.3165 2.90243 20.707 3.29295C21.0975 3.68348 21.0975 4.31649 20.707 4.70702L16.1924 9.22264H19.1113L19.2129 9.22753C19.7173 9.27853 20.1113 9.70472 20.1113 10.2226C20.1111 10.7404 19.7172 11.1658 19.2129 11.2168L19.1113 11.2226H13.7773C13.2254 11.2224 12.7776 10.7746 12.7773 10.2226V4.88866C12.7774 4.33662 13.2253 3.88889 13.7773 3.88866C14.3295 3.88866 14.7772 4.33647 14.7773 4.88866V7.8076L19.293 3.29295ZM11.2226 19.1113C11.2225 19.6634 10.7747 20.1111 10.2226 20.1113C9.67043 20.1113 9.22276 19.6635 9.22264 19.1113V16.1914L4.70702 20.707C4.31649 21.0975 3.68348 21.0975 3.29295 20.707C2.90243 20.3165 2.90243 19.6835 3.29295 19.293L7.8076 14.7773H4.88866C4.33647 14.7772 3.88866 14.3295 3.88866 13.7773C3.88889 13.2253 4.33662 12.7774 4.88866 12.7773H10.2226C10.7746 12.7776 11.2224 13.2254 11.2226 13.7773V19.1113Z"/></svg>