<svg width="24" height="24" viewBox="0 0 24 24" xmlns="http://www.w3.org/2000/svg" fill="#cacaca"><path d="M9.99977 8.00024V17.5862L13.2927 14.2932C13.6833 13.9027 14.3163 13.9027 14.7068 14.2932C15.0973 14.6837 15.0973 15.3168 14.7068 15.7073L9.7068 20.7073L9.63062 20.7756C9.23785 21.096 8.65885 21.0734 8.29273 20.7073L3.29273 15.7073L3.22437 15.6311C2.90402 15.2383 2.92662 14.6593 3.29273 14.2932C3.65885 13.9271 4.23785 13.9045 4.63063 14.2249L4.7068 14.2932L7.99977 17.5862V8.00024L8.00562 7.7522C8.06696 6.51642 8.58556 5.34414 9.46461 4.46509C10.4023 3.52741 11.6737 3.00024 12.9998 3.00024H19.9998C20.552 3.00024 20.9998 3.44796 20.9998 4.00024C20.9998 4.55253 20.552 5.00024 19.9998 5.00024H12.9998C12.2041 5.00024 11.4413 5.31654 10.8787 5.87915C10.3865 6.37135 10.0827 7.01673 10.0144 7.70337L9.99977 8.00024Z"/></svg>