<svg width="24" height="24" viewBox="0 0 24 24" xmlns="http://www.w3.org/2000/svg" fill="#cacaca"><path d="M8 10L17.5859 10L14.293 13.293C13.9024 13.6835 13.9024 14.3165 14.293 14.707C14.6835 15.0976 15.3165 15.0976 15.707 14.707L20.707 9.70704L20.7754 9.63087C21.0957 9.2381 21.0731 8.65909 20.707 8.29298L15.707 3.29298L15.6309 3.22462C15.2381 2.90427 14.6591 2.92686 14.293 3.29298C13.9269 3.65909 13.9043 4.2381 14.2246 4.63087L14.293 4.70704L17.5859 8.00001L8 8.00001L7.75195 8.00587C6.51618 8.0672 5.3439 8.5858 4.46484 9.46485C3.52716 10.4025 3 11.6739 3 13L3 20C3 20.5523 3.44772 21 4 21C4.55228 21 5 20.5523 5 20L5 13C5 12.2044 5.3163 11.4415 5.87891 10.8789C6.3711 10.3867 7.01649 10.0829 7.70313 10.0147L8 10Z"/></svg>