<svg width="24" height="24" viewBox="0 0 24 24" xmlns="http://www.w3.org/2000/svg" fill="#cacaca"><path d="M14 16V6.41406L10.707 9.70703C10.3165 10.0975 9.68349 10.0975 9.29297 9.70703C8.90244 9.3165 8.90244 8.68349 9.29297 8.29296L14.293 3.29296L14.3691 3.2246C14.7619 2.90425 15.3409 2.92685 15.707 3.29296L20.707 8.29296L20.7754 8.36913C21.0957 8.76191 21.0731 9.34091 20.707 9.70703C20.3409 10.0731 19.7619 10.0957 19.3691 9.77538L19.293 9.70703L16 6.41406V16L15.9941 16.248C15.9328 17.4838 15.4142 18.6561 14.5352 19.5352C13.5975 20.4728 12.3261 21 11 21H4C3.44772 21 3 20.5523 3 20C3 19.4477 3.44772 19 4 19H11C11.7956 19 12.5585 18.6837 13.1211 18.1211C13.6133 17.6289 13.9171 16.9835 13.9854 16.2969L14 16Z"/></svg>