<svg width="24" height="24" viewBox="0 0 24 24" xmlns="http://www.w3.org/2000/svg" fill="#cacaca"><path d="M14 8.00023V17.5862L10.707 14.2932C10.3165 13.9027 9.68349 13.9027 9.29297 14.2932C8.90244 14.6837 8.90244 15.3167 9.29297 15.7073L14.293 20.7073L14.3691 20.7756C14.7619 21.096 15.3409 21.0734 15.707 20.7073L20.707 15.7073L20.7754 15.6311C21.0957 15.2383 21.0731 14.6593 20.707 14.2932C20.3409 13.9271 19.7619 13.9045 19.3691 14.2248L19.293 14.2932L16 17.5862V8.00023L15.9941 7.75219C15.9328 6.51641 15.4142 5.34413 14.5352 4.46508C13.5975 3.5274 12.3261 3.00023 11 3.00023H4C3.44772 3.00023 3 3.44795 3 4.00023C3 4.55252 3.44772 5.00023 4 5.00023H11C11.7956 5.00023 12.5585 5.31653 13.1211 5.87914C13.6133 6.37134 13.9171 7.01672 13.9854 7.70336L14 8.00023Z"/></svg>