<svg width="24" height="24" viewBox="0 0 24 24" xmlns="http://www.w3.org/2000/svg" fill="#cacaca"><path d="M15.9998 14.0002L6.41383 14.0002L9.7068 10.7073C10.0973 10.3168 10.0973 9.68374 9.7068 9.29321C9.31627 8.90269 8.68326 8.90269 8.29273 9.29321L3.29273 14.2932L3.22437 14.3694C2.90402 14.7622 2.92662 15.3412 3.29273 15.7073L8.29273 20.7073L8.36891 20.7756C8.76168 21.096 9.34068 21.0734 9.7068 20.7073C10.0729 20.3412 10.0955 19.7622 9.77516 19.3694L9.7068 19.2932L6.41383 16.0002L15.9998 16.0002L16.2478 15.9944C17.4836 15.9331 18.6559 15.4145 19.5349 14.5354C20.4726 13.5977 20.9998 12.3263 20.9998 11.0002V4.00024C20.9998 3.44796 20.552 3.00024 19.9998 3.00024C19.4475 3.00024 18.9998 3.44796 18.9998 4.00024V11.0002C18.9998 11.7959 18.6835 12.5587 18.1209 13.1213C17.6287 13.6135 16.9833 13.9173 16.2966 13.9856L15.9998 14.0002Z"/></svg>