<svg width="24" height="24" viewBox="0 0 24 24" xmlns="http://www.w3.org/2000/svg" fill="#cacaca"><path d="M22 17.8799C22 18.9845 21.1046 19.8799 20 19.8799H4C2.89543 19.8799 2 18.9845 2 17.8799V10.8799H22V17.8799ZM5 15.8799C4.44776 15.8799 4.00007 16.3277 4 16.8799C4 17.4322 4.44772 17.8799 5 17.8799H9C9.55228 17.8799 10 17.4322 10 16.8799C9.99993 16.3277 9.55224 15.8799 9 15.8799H5ZM13 15.8799C12.4478 15.8799 12.0001 16.3277 12 16.8799C12 17.4322 12.4477 17.8799 13 17.8799H15C15.5523 17.8799 16 17.4322 16 16.8799C15.9999 16.3277 15.5522 15.8799 15 15.8799H13ZM20 3.87988C21.1045 3.87988 21.9999 4.77537 22 5.87988V8.87988H2V5.87988C2.00007 4.77537 2.89547 3.87988 4 3.87988H20Z"/></svg>