<svg width="24" height="24" viewBox="0 0 24 24" xmlns="http://www.w3.org/2000/svg" fill="#cacaca"><path d="M18.75 6.83203V16.5H19.875C20.2031 16.5 20.4727 16.6055 20.6836 16.8164C20.8945 17.0273 21 17.2969 21 17.625C21 17.9531 20.8945 18.2227 20.6836 18.4336C20.4727 18.6445 20.2031 18.75 19.875 18.75H18.75V19.875C18.75 20.2031 18.6445 20.4727 18.4336 20.6836C18.2227 20.8945 17.9531 21 17.625 21C17.2969 21 17.0273 20.8945 16.8164 20.6836C16.6055 20.4727 16.5 20.2031 16.5 19.875V9.08203L9.08203 16.5H15.375V18.75H7.5C6.86719 18.7266 6.33984 18.5039 5.91797 18.082C5.49609 17.6602 5.27344 17.1328 5.25 16.5V7.5H4.125C3.79688 7.5 3.52734 7.39453 3.31641 7.18359C3.10547 6.97266 3 6.70312 3 6.375C3 6.04688 3.10547 5.77734 3.31641 5.56641C3.52734 5.35547 3.79688 5.25 4.125 5.25H5.25V4.125C5.25 3.79688 5.35547 3.52734 5.56641 3.31641C5.77734 3.10547 6.04688 3 6.375 3C6.70312 3 6.97266 3.10547 7.18359 3.31641C7.39453 3.52734 7.5 3.79688 7.5 4.125V14.918L14.918 7.5H8.625V5.25H17.168L19.0664 3.31641C19.3008 3.10547 19.5703 3 19.875 3C20.1797 3 20.4492 3.10547 20.6836 3.31641C20.8945 3.55078 21 3.82031 21 4.125C21 4.42969 20.8945 4.69922 20.6836 4.93359L18.75 6.83203Z"/></svg>