<svg width="24" height="24" viewBox="0 0 24 24" xmlns="http://www.w3.org/2000/svg" fill="#cacaca"><path d="M12.6562 7.3125L14.4375 10.9062C14.6042 11.1771 14.8333 11.3542 15.125 11.4375C15.4167 11.5 15.6979 11.4271 15.9688 11.2188L18.75 9C18.5833 8.79167 18.5 8.54167 18.5 8.25C18.5 7.89583 18.625 7.60417 18.875 7.375C19.1042 7.125 19.3958 7 19.75 7C20.1042 7 20.3958 7.125 20.625 7.375C20.875 7.60417 21 7.89583 21 8.25C21 8.60417 20.875 8.89583 20.625 9.125C20.3958 9.375 20.1042 9.5 19.75 9.5C19.7292 9.5 19.7188 9.5 19.7188 9.5L18.3125 17.3438C18.2083 17.8438 17.9792 18.2396 17.625 18.5312C17.25 18.8438 16.8229 19 16.3438 19H7.65625C7.17708 19 6.75 18.8438 6.375 18.5312C6.02083 18.2396 5.79167 17.8438 5.6875 17.3438L4.28125 9.5C4.28125 9.5 4.27083 9.5 4.25 9.5C3.89583 9.5 3.60417 9.375 3.375 9.125C3.125 8.89583 3 8.60417 3 8.25C3 7.89583 3.125 7.60417 3.375 7.375C3.60417 7.125 3.89583 7 4.25 7C4.60417 7 4.89583 7.125 5.125 7.375C5.375 7.60417 5.5 7.89583 5.5 8.25C5.5 8.54167 5.41667 8.79167 5.25 9L8.03125 11.2188C8.30208 11.4271 8.58333 11.5 8.875 11.4375C9.16667 11.3542 9.39583 11.1771 9.5625 10.9062L11.3438 7.3125C10.9688 7.08333 10.7708 6.72917 10.75 6.25C10.75 5.89583 10.875 5.60417 11.125 5.375C11.3542 5.125 11.6458 5 12 5C12.3542 5 12.6458 5.125 12.875 5.375C13.125 5.60417 13.25 5.89583 13.25 6.25C13.2292 6.70833 13.0312 7.0625 12.6562 7.3125Z"/></svg>