<svg width="24" height="24" viewBox="0 0 24 24" xmlns="http://www.w3.org/2000/svg" fill="#cacaca"><path d="M19 5.8125V7.5C18.9583 8.29688 18.2708 8.96484 16.9375 9.50391C15.625 10.0195 13.9792 10.2891 12 10.3125C10.0208 10.2891 8.375 10.0195 7.0625 9.50391C5.72917 8.96484 5.04167 8.29688 5 7.5V5.8125C5.04167 5.01562 5.72917 4.34766 7.0625 3.80859C8.375 3.29297 10.0208 3.02344 12 3C13.9792 3.02344 15.625 3.29297 16.9375 3.80859C18.2708 4.34766 18.9583 5.01562 19 5.8125ZM17.2812 10.5586C17.9479 10.3008 18.5208 9.96094 19 9.53906V13.125C18.9583 13.9219 18.2708 14.5898 16.9375 15.1289C15.625 15.6445 13.9792 15.9141 12 15.9375C10.0208 15.9141 8.375 15.6445 7.0625 15.1289C5.72917 14.5898 5.04167 13.9219 5 13.125V9.53906C5.47917 9.96094 6.05208 10.3008 6.71875 10.5586C8.17708 11.1211 9.9375 11.4141 12 11.4375C14.0625 11.4141 15.8229 11.1211 17.2812 10.5586ZM5 15.1641C5.47917 15.5859 6.05208 15.9258 6.71875 16.1836C8.17708 16.7461 9.9375 17.0391 12 17.0625C14.0625 17.0391 15.8229 16.7461 17.2812 16.1836C17.9479 15.9258 18.5208 15.5859 19 15.1641V18.1875C18.9583 18.9844 18.2708 19.6523 16.9375 20.1914C15.625 20.707 13.9792 20.9766 12 21C10.0208 20.9766 8.375 20.707 7.0625 20.1914C5.72917 19.6523 5.04167 18.9844 5 18.1875V15.1641Z"/></svg>