<svg width="24" height="24" viewBox="0 0 24 24" xmlns="http://www.w3.org/2000/svg" fill="#cacaca"><path d="M21 8V16C20.9792 16.5625 20.7812 17.0312 20.4062 17.4062C20.0312 17.7812 19.5625 17.9792 19 18H9.40625C8.86458 18 8.39583 17.8021 8 17.4062L3.28125 12.7188C3.09375 12.5104 3 12.2708 3 12C3 11.7292 3.09375 11.4896 3.28125 11.2812L8 6.59375C8.39583 6.19792 8.86458 6 9.40625 6H19C19.5625 6.02083 20.0312 6.21875 20.4062 6.59375C20.7812 6.96875 20.9792 7.4375 21 8ZM11.4688 9.46875C11.1771 9.82292 11.1771 10.1771 11.4688 10.5312L12.9375 12L11.4688 13.4688C11.1771 13.8229 11.1771 14.1771 11.4688 14.5312C11.8229 14.8229 12.1771 14.8229 12.5312 14.5312L14 13.0625L15.4688 14.5312C15.8229 14.8229 16.1771 14.8229 16.5312 14.5312C16.8229 14.1771 16.8229 13.8229 16.5312 13.4688L15.0625 12L16.5312 10.5312C16.8229 10.1771 16.8229 9.82292 16.5312 9.46875C16.1771 9.17708 15.8229 9.17708 15.4688 9.46875L14 10.9375L12.5312 9.46875C12.1771 9.17708 11.8229 9.17708 11.4688 9.46875Z"/></svg>