<svg width="24" height="24" viewBox="0 0 24 24" xmlns="http://www.w3.org/2000/svg" fill="#cacaca"><path d="M3 8C3.02083 7.4375 3.21875 6.96875 3.59375 6.59375C3.96875 6.21875 4.4375 6.02083 5 6H14.5938C15.1354 6 15.6042 6.19792 16 6.59375L20.7188 11.2812C20.9062 11.4896 21 11.7292 21 12C21 12.2708 20.9062 12.5104 20.7188 12.7188L16 17.4062C15.6042 17.8021 15.1354 18 14.5938 18H5C4.4375 17.9792 3.96875 17.7812 3.59375 17.4062C3.21875 17.0312 3.02083 16.5625 3 16V8ZM7.46875 9.46875C7.17708 9.82292 7.17708 10.1771 7.46875 10.5312L8.9375 12L7.46875 13.4688C7.17708 13.8229 7.17708 14.1771 7.46875 14.5312C7.82292 14.8229 8.17708 14.8229 8.53125 14.5312L10 13.0625L11.4688 14.5312C11.8229 14.8229 12.1771 14.8229 12.5312 14.5312C12.8229 14.1771 12.8229 13.8229 12.5312 13.4688L11.0625 12L12.5312 10.5312C12.8229 10.1771 12.8229 9.82292 12.5312 9.46875C12.1771 9.17708 11.8229 9.17708 11.4688 9.46875L10 10.9375L8.53125 9.46875C8.17708 9.17708 7.82292 9.17708 7.46875 9.46875Z"/></svg>