<svg width="24" height="24" viewBox="0 0 24 24" xmlns="http://www.w3.org/2000/svg" fill="#cacaca"><path d="M5 4H19C19.5625 4.02083 20.0312 4.21875 20.4062 4.59375C20.7812 4.96875 20.9792 5.4375 21 6V15C20.9792 15.5625 20.7812 16.0312 20.4062 16.4062C20.0312 16.7812 19.5625 16.9792 19 17H13.5L13.8438 18H16C16.2917 18 16.5312 18.0938 16.7188 18.2812C16.9062 18.4688 17 18.7083 17 19C17 19.2917 16.9062 19.5312 16.7188 19.7188C16.5312 19.9062 16.2917 20 16 20H8C7.70833 20 7.46875 19.9062 7.28125 19.7188C7.09375 19.5312 7 19.2917 7 19C7 18.7083 7.09375 18.4688 7.28125 18.2812C7.46875 18.0938 7.70833 18 8 18H10.1562L10.5 17H5C4.4375 16.9792 3.96875 16.7812 3.59375 16.4062C3.21875 16.0312 3.02083 15.5625 3 15V6C3.02083 5.4375 3.21875 4.96875 3.59375 4.59375C3.96875 4.21875 4.4375 4.02083 5 4ZM19 6H5V13H19V6Z"/></svg>