<svg width="24" height="24" viewBox="0 0 24 24" xmlns="http://www.w3.org/2000/svg" fill="#cacaca"><path d="M13.0938 2.96875L21.5312 11.4062C21.8438 11.7188 22 12.0833 22 12.5C22 12.9167 21.8438 13.2812 21.5312 13.5938L13.0938 22.0312C12.7812 22.3438 12.4167 22.5 12 22.5C11.5833 22.5 11.2188 22.3438 10.9062 22.0312L2.46875 13.5938C2.15625 13.2812 2 12.9167 2 12.5C2 12.0833 2.15625 11.7188 2.46875 11.4062L10.9062 2.96875C11.2188 2.65625 11.5833 2.5 12 2.5C12.4167 2.5 12.7812 2.65625 13.0938 2.96875Z"/></svg>