<svg width="24" height="24" viewBox="0 0 24 24" xmlns="http://www.w3.org/2000/svg" fill="#cacaca"><path d="M11.4375 5.875L12 6.53125L12.5625 5.875C13.0312 5.34375 13.7188 5 14.4688 5H14.5C15.875 5 17 6.125 17 7.5C17 7.875 16.9062 8.21875 16.7812 8.5H19V9.5C19 8.5 19 8.5 19 8.5C19.0312 8.5 19.0312 8.5 19.0625 8.53125C19.0938 8.53125 19.125 8.53125 19.1875 8.53125C19.2812 8.53125 19.4062 8.5625 19.5312 8.59375C19.8125 8.65625 20.1875 8.8125 20.5938 9.09375C21.375 9.6875 22 10.7812 22 12.5C22 14 21.5625 15.0625 21 15.7812C20.4375 16.4688 19.7812 16.7812 19.4688 16.9062C19.2188 17 19.0312 17 18.875 17H18.8438C18.6875 17 18.5625 17 18.4062 16.9688L14 15.9688V18.5C14 18.7188 13.875 18.875 13.6875 18.9688C13.5312 19.0625 13.3125 19.0312 13.1562 18.9062L12 17.9062L10.8125 18.9062C10.6562 19.0312 10.4375 19.0625 10.2812 18.9688C10.0938 18.875 10 18.7188 10 18.5V15.9688L5.5625 16.9688C5.40625 17 5.28125 17 5.125 17C4.96875 17 4.75 17 4.53125 16.9062C4.1875 16.7812 3.5625 16.4688 3 15.7812C2.40625 15.0625 2 14 2 12.5C2 10.7812 2.59375 9.6875 3.375 9.09375C3.75 8.8125 4.15625 8.65625 4.4375 8.59375C4.5625 8.5625 4.6875 8.53125 4.78125 8.53125C4.84375 8.53125 4.875 8.53125 4.90625 8.53125C4.9375 8.53125 4.9375 8.53125 4.96875 8.5C4.96875 8.5 4.96875 8.5 4.96875 9.5V8.5H7.1875C7.0625 8.21875 6.96875 7.875 6.96875 7.5C6.96875 6.125 8.09375 5 9.46875 5H9.5C10.25 5 10.9375 5.34375 11.4062 5.875H11.4375ZM9.5 8.5H11.1875C11.4062 8.5 11.5 8.25 11.375 8.09375L10.2812 6.875C10.0938 6.65625 9.8125 6.5 9.53125 6.5H9.5C8.9375 6.5 8.5 6.96875 8.5 7.5C8.5 8.0625 8.9375 8.5 9.5 8.5ZM12.7812 8.5H14.25H14.5C15.0312 8.5 15.5 8.0625 15.5 7.5C15.5 6.96875 15.0312 6.5 14.5 6.5H14.4688C14.4062 6.5 14.375 6.53125 14.3438 6.53125C14.0938 6.5625 13.8438 6.65625 13.6875 6.875L12.5938 8.09375C12.4688 8.25 12.5625 8.53125 12.7812 8.53125V8.5ZM10 10.5H5C5 10.5312 4.96875 10.5312 4.90625 10.5312C4.8125 10.5625 4.71875 10.5938 4.59375 10.6875C4.375 10.8438 4 11.25 4 12.5C4 13.5938 4.28125 14.1875 4.5625 14.5312C4.78125 14.8125 5.03125 14.9375 5.15625 15L10 13.9375V10.5ZM14 13.9375L18.8125 15C18.9688 14.9375 19.1875 14.8125 19.4375 14.5312C19.6875 14.1875 20 13.5938 20 12.5C20 11.25 19.5938 10.8438 19.375 10.6875C19.2812 10.5938 19.1562 10.5625 19.0625 10.5312C19 10.5312 18.9688 10.5 18.9688 10.5H14V13.9375Z"/></svg>