<svg width="24" height="24" viewBox="0 0 24 24" xmlns="http://www.w3.org/2000/svg" fill="#cacaca"><mask id="path-1-inside-1_14206_7896" fill="white"><path d="M19 6.55566C19 6.3102 18.8146 6.06911 18.5283 6.0127L18.4004 6H5.59961C5.24171 6.0002 5 6.27531 5 6.55566V14.333C5 14.6134 5.24171 14.8885 5.59961 14.8887H18.4004C18.7583 14.8885 19 14.6134 19 14.333V6.55566ZM21 14.333C21 15.7706 19.8094 16.8885 18.4004 16.8887H13V18H15.2002L15.3018 18.0049C15.8063 18.0559 16.2002 18.4821 16.2002 19C16.2002 19.5179 15.8063 19.9441 15.3018 19.9951L15.2002 20H8.7998C8.24761 19.9999 7.7998 19.5522 7.7998 19C7.7998 18.4478 8.24761 18.0001 8.7998 18H11V16.8887H5.59961C4.19058 16.8885 3 15.7706 3 14.333V6.55566C3 5.11803 4.19058 4.00021 5.59961 4H18.4004L18.6611 4.0127C19.9532 4.14062 21 5.20765 21 6.55566V14.333Z"/><path d="M6 7H18V14H6V7Z"/></mask><path d="M19 6.55566C19 6.3102 18.8146 6.06911 18.5283 6.0127L18.4004 6H5.59961C5.24171 6.0002 5 6.27531 5 6.55566V14.333C5 14.6134 5.24171 14.8885 5.59961 14.8887H18.4004C18.7583 14.8885 19 14.6134 19 14.333V6.55566ZM21 14.333C21 15.7706 19.8094 16.8885 18.4004 16.8887H13V18H15.2002L15.3018 18.0049C15.8063 18.0559 16.2002 18.4821 16.2002 19C16.2002 19.5179 15.8063 19.9441 15.3018 19.9951L15.2002 20H8.7998C8.24761 19.9999 7.7998 19.5522 7.7998 19C7.7998 18.4478 8.24761 18.0001 8.7998 18H11V16.8887H5.59961C4.19058 16.8885 3 15.7706 3 14.333V6.55566C3 5.11803 4.19058 4.00021 5.59961 4H18.4004L18.6611 4.0127C19.9532 4.14062 21 5.20765 21 6.55566V14.333Z"/><path d="M6 7H18V14H6V7Z"/><path d="M18.5283 6.0127L18.7216 5.03156C18.6904 5.0254 18.6588 5.02073 18.6271 5.01758L18.5283 6.0127ZM18.4004 6L18.4991 5.00489C18.4663 5.00163 18.4334 5 18.4004 5V6ZM5.59961 6V5L5.59905 5L5.59961 6ZM5.59961 14.8887L5.59905 15.8887H5.59961V14.8887ZM18.4004 14.8887V15.8887H18.4009L18.4004 14.8887ZM18.4004 16.8887V17.8887H18.4005L18.4004 16.8887ZM13 16.8887V15.8887C12.4477 15.8887 12 16.3364 12 16.8887H13ZM13 18H12C12 18.5523 12.4477 19 13 19V18ZM15.2002 18L15.2482 17.0012C15.2322 17.0004 15.2162 17 15.2002 17V18ZM15.3018 18.0049L15.4023 17.0099C15.3848 17.0082 15.3673 17.0069 15.3498 17.006L15.3018 18.0049ZM15.3018 19.9951L15.3498 20.994C15.3673 20.9931 15.3848 20.9918 15.4023 20.9901L15.3018 19.9951ZM15.2002 20V21C15.2162 21 15.2322 20.9996 15.2482 20.9988L15.2002 20ZM8.7998 20L8.79961 21H8.7998V20ZM8.7998 18V17H8.79961L8.7998 18ZM11 18V19C11.5523 19 12 18.5523 12 18H11ZM11 16.8887H12C12 16.3364 11.5523 15.8887 11 15.8887V16.8887ZM5.59961 16.8887L5.59946 17.8887H5.59961V16.8887ZM5.59961 4V3H5.59946L5.59961 4ZM18.4004 4L18.449 3.00118C18.4328 3.00039 18.4166 3 18.4004 3V4ZM18.6611 4.0127L18.7597 3.01756C18.7431 3.01592 18.7264 3.01469 18.7098 3.01388L18.6611 4.0127ZM6 7V6H5V7H6ZM18 7H19V6H18V7ZM18 14V15H19V14H18ZM6 14H5V15H6V14ZM19 6.55566H20C20 5.8164 19.4608 5.17719 18.7216 5.03156L18.5283 6.0127L18.335 6.99383C18.1685 6.96103 18 6.80401 18 6.55566H19ZM18.5283 6.0127L18.6271 5.01758L18.4991 5.00489L18.4004 6L18.3016 6.99511L18.4296 7.00781L18.5283 6.0127ZM18.4004 6V5H5.59961V6V7H18.4004V6ZM5.59961 6L5.59905 5C4.70154 5.0005 4 5.71087 4 6.55566H5H6C6 6.83975 5.78188 6.9999 5.60017 7L5.59961 6ZM5 6.55566H4V14.333H5H6V6.55566H5ZM5 14.333H4C4 15.1778 4.70154 15.8882 5.59905 15.8887L5.59961 14.8887L5.60017 13.8887C5.78188 13.8888 6 14.0489 6 14.333H5ZM5.59961 14.8887V15.8887H18.4004V14.8887V13.8887H5.59961V14.8887ZM18.4004 14.8887L18.4009 15.8887C19.2985 15.8882 20 15.1778 20 14.333H19H18C18 14.0489 18.2181 13.8888 18.3998 13.8887L18.4004 14.8887ZM19 14.333H20V6.55566H19H18V14.333H19ZM21 14.333H20C20 15.189 19.2869 15.8885 18.4002 15.8887L18.4004 16.8887L18.4005 17.8887C20.3319 17.8884 22 16.3522 22 14.333H21ZM18.4004 16.8887V15.8887H13V16.8887V17.8887H18.4004V16.8887ZM13 16.8887H12V18H13H14V16.8887H13ZM13 18V19H15.2002V18V17H13V18ZM15.2002 18L15.1522 18.9988L15.2537 19.0037L15.3018 18.0049L15.3498 17.006L15.2482 17.0012L15.2002 18ZM15.3018 18.0049L15.2012 18.9998C15.2013 18.9998 15.201 18.9998 15.2004 18.9996C15.1999 18.9995 15.1995 18.9993 15.1993 18.9992C15.1991 18.9991 15.1996 18.9993 15.2003 19.0001C15.2009 19.0008 15.2008 19.001 15.2005 19.0002C15.2 18.9988 15.2002 18.9982 15.2002 19H16.2002H17.2002C17.2002 17.9636 16.4124 17.112 15.4023 17.0099L15.3018 18.0049ZM16.2002 19H15.2002C15.2002 19.0018 15.2 19.0012 15.2005 18.9998C15.2008 18.999 15.2009 18.9992 15.2003 18.9999C15.1996 19.0007 15.1991 19.0009 15.1993 19.0008C15.1995 19.0007 15.1999 19.0005 15.2004 19.0004C15.201 19.0002 15.2013 19.0002 15.2012 19.0002L15.3018 19.9951L15.4023 20.9901C16.4124 20.888 17.2002 20.0364 17.2002 19H16.2002ZM15.3018 19.9951L15.2537 18.9963L15.1522 19.0012L15.2002 20L15.2482 20.9988L15.3498 20.994L15.3018 19.9951ZM15.2002 20V19H8.7998V20V21H15.2002V20ZM8.7998 20L8.8 19H8.7998H7.7998H6.7998C6.7998 20.1047 7.69547 20.9998 8.79961 21L8.7998 20ZM7.7998 19H8.7998H8.8L8.7998 18L8.79961 17C7.69547 17.0002 6.7998 17.8953 6.7998 19H7.7998ZM8.7998 18V19H11V18V17H8.7998V18ZM11 18H12V16.8887H11H10V18H11ZM11 16.8887V15.8887H5.59961V16.8887V17.8887H11V16.8887ZM5.59961 16.8887L5.59976 15.8887C4.71311 15.8885 4 15.189 4 14.333H3H2C2 16.3522 3.66806 17.8884 5.59946 17.8887L5.59961 16.8887ZM3 14.333H4V6.55566H3H2V14.333H3ZM3 6.55566H4C4 5.69964 4.71311 5.00013 5.59976 5L5.59961 4L5.59946 3C3.66806 3.00028 2 4.53642 2 6.55566H3ZM5.59961 4V5H18.4004V4V3H5.59961V4ZM18.4004 4L18.3518 4.99882L18.6125 5.01151L18.6611 4.0127L18.7098 3.01388L18.449 3.00118L18.4004 4ZM18.6611 4.0127L18.5626 5.00783C19.3743 5.0882 20 5.75257 20 6.55566H21H22C22 4.66274 20.5322 3.19305 18.7597 3.01756L18.6611 4.0127ZM21 6.55566H20V14.333H21H22V6.55566H21ZM6 7V8H18V7V6H6V7ZM18 7H17V14H18H19V7H18ZM18 14V13H6V14V15H18V14ZM6 14H7V7H6H5V14H6Z" fill-opacity="0.2" mask="url(#path-1-inside-1_14206_7896)"/></svg>