<svg width="24" height="24" viewBox="0 0 24 24" xmlns="http://www.w3.org/2000/svg" fill="#cacaca"><path d="M3 6C3.02083 5.4375 3.21875 4.96875 3.59375 4.59375C3.96875 4.21875 4.4375 4.02083 5 4H19C19.5625 4.02083 20.0312 4.21875 20.4062 4.59375C20.7812 4.96875 20.9792 5.4375 21 6V15C20.9792 15.5625 20.7812 16.0312 20.4062 16.4062C20.0312 16.7812 19.5625 16.9792 19 17H13.5L13.8438 18H16C16.2917 18 16.5312 18.0938 16.7188 18.2812C16.9062 18.4688 17 18.7083 17 19C17 19.2917 16.9062 19.5312 16.7188 19.7188C16.5312 19.9062 16.2917 20 16 20H8C7.70833 20 7.46875 19.9062 7.28125 19.7188C7.09375 19.5312 7 19.2917 7 19C7 18.7083 7.09375 18.4688 7.28125 18.2812C7.46875 18.0938 7.70833 18 8 18H10.1562L10.5 17H5C4.4375 16.9792 3.96875 16.7812 3.59375 16.4062C3.21875 16.0312 3.02083 15.5625 3 15V6ZM5 6V15H19V6H5ZM10.7812 9.53125L9.8125 10.5L10.7812 11.4688C11.0729 11.8229 11.0729 12.1771 10.7812 12.5312C10.4271 12.8229 10.0729 12.8229 9.71875 12.5312L8.21875 11.0312C7.92708 10.6771 7.92708 10.3229 8.21875 9.96875L9.71875 8.46875C10.0729 8.17708 10.4271 8.17708 10.7812 8.46875C11.0729 8.82292 11.0729 9.17708 10.7812 9.53125ZM14.2812 8.46875L15.7812 9.96875C16.0729 10.3229 16.0729 10.6771 15.7812 11.0312L14.2812 12.5312C13.9271 12.8229 13.5729 12.8229 13.2188 12.5312C12.9271 12.1771 12.9271 11.8229 13.2188 11.4688L14.1875 10.5L13.2188 9.53125C12.9271 9.17708 12.9271 8.82292 13.2188 8.46875C13.5729 8.17708 13.9271 8.17708 14.2812 8.46875Z"/></svg>