<svg width="24" height="24" viewBox="0 0 24 24" xmlns="http://www.w3.org/2000/svg" fill="#cacaca"><path d="M12 21C10.3594 20.9766 8.85938 20.5781 7.5 19.8047C6.14062 19.0078 5.03906 17.9062 4.19531 16.5C3.39844 15.0703 3 13.5703 3 12C3 10.4297 3.39844 8.92969 4.19531 7.5C5.03906 6.09375 6.14062 4.99219 7.5 4.19531C8.85938 3.42188 10.3594 3.02344 12 3C13.6406 3.02344 15.1406 3.42188 16.5 4.19531C17.8594 4.99219 18.9609 6.09375 19.8047 7.5C20.6016 8.92969 21 10.4297 21 12C21 13.5703 20.6016 15.0703 19.8047 16.5C18.9609 17.9062 17.8594 19.0078 16.5 19.8047C15.1406 20.5781 13.6406 20.9766 12 21ZM12.7383 7.71094C12.6914 7.24219 12.4336 6.98438 11.9648 6.9375C11.5195 6.98438 11.2734 7.24219 11.2266 7.71094V8.27344C10.9922 8.32031 10.7812 8.37891 10.5938 8.44922C9.89062 8.73047 9.43359 9.25781 9.22266 10.0312C9.10547 10.875 9.39844 11.5312 10.1016 12C10.6406 12.3047 11.2031 12.5156 11.7891 12.6328C11.7891 12.6328 11.8008 12.6445 11.8242 12.668C11.8945 12.6914 11.9648 12.7148 12.0352 12.7383C12.4805 12.8086 12.8906 12.9609 13.2656 13.1953C13.4531 13.3359 13.5234 13.5117 13.4766 13.7227C13.4062 13.9102 13.2656 14.0508 13.0547 14.1445C12.7266 14.2852 12.2578 14.3203 11.6484 14.25C11.25 14.1562 10.8516 14.0391 10.4531 13.8984C10.4062 13.875 10.3594 13.8633 10.3125 13.8633C10.2656 13.8398 10.2188 13.8281 10.1719 13.8281C9.72656 13.7109 9.41016 13.8633 9.22266 14.2852C9.12891 14.7539 9.29297 15.082 9.71484 15.2695C10.207 15.4336 10.7109 15.5742 11.2266 15.6914V16.3242C11.2734 16.7695 11.5195 17.0156 11.9648 17.0625C12.4336 17.0156 12.6914 16.7695 12.7383 16.3242V15.7617C13.043 15.7383 13.3359 15.668 13.6172 15.5508C14.3203 15.293 14.7656 14.7656 14.9531 13.9688C15.0938 13.125 14.8125 12.4453 14.1094 11.9297C13.5469 11.6016 12.9609 11.3672 12.3516 11.2266C12.3047 11.2266 12.2695 11.2148 12.2461 11.1914C12.1992 11.1914 12.1523 11.1797 12.1055 11.1562C12.1055 11.1562 12.0938 11.1562 12.0703 11.1562C11.6719 11.0625 11.2969 10.9219 10.9453 10.7344C10.7344 10.5703 10.6758 10.4062 10.7695 10.2422C10.8398 10.0781 10.9805 9.94922 11.1914 9.85547C11.6602 9.66797 12.1406 9.62109 12.6328 9.71484C12.8906 9.76172 13.1367 9.82031 13.3711 9.89062C13.3945 9.91406 13.4297 9.92578 13.4766 9.92578C13.5 9.92578 13.5234 9.9375 13.5469 9.96094C13.9922 10.0312 14.3086 9.85547 14.4961 9.43359C14.5664 8.96484 14.3789 8.64844 13.9336 8.48438C13.8867 8.46094 13.8281 8.4375 13.7578 8.41406C13.4062 8.32031 13.0664 8.25 12.7383 8.20312V7.71094Z"/></svg>