<svg width="24" height="24" viewBox="0 0 24 24" xmlns="http://www.w3.org/2000/svg" fill="#cacaca"><path d="M12.0256 3C12.3537 3 12.6232 3.10547 12.8342 3.31641C13.0451 3.52734 13.1506 3.79688 13.1506 4.125V5.39062C13.1975 5.39062 13.2561 5.39062 13.3264 5.39062C13.3498 5.41406 13.3615 5.42578 13.3615 5.42578L15.049 5.70703C15.3537 5.77734 15.5881 5.94141 15.7521 6.19922C15.9396 6.43359 16.01 6.71484 15.9631 7.04297C15.8928 7.34766 15.7287 7.58203 15.4709 7.74609C15.2365 7.91016 14.9553 7.96875 14.6271 7.92188L12.9748 7.64062C11.8498 7.47656 10.9357 7.54688 10.2326 7.85156C9.57637 8.13281 9.23652 8.46094 9.21309 8.83594C9.14277 9.1875 9.15449 9.42188 9.24824 9.53906C9.29512 9.67969 9.44746 9.83203 9.70527 9.99609C10.2678 10.3477 11.1232 10.6641 12.2717 10.9453L12.3771 10.9805C12.4006 10.9805 12.4123 10.9805 12.4123 10.9805C12.9279 11.0977 13.4553 11.25 13.9943 11.4375C14.5568 11.625 15.0725 11.8594 15.5412 12.1406C16.0568 12.4688 16.4787 12.9375 16.8068 13.5469C17.0881 14.1797 17.1584 14.8711 17.0178 15.6211C16.8771 16.3008 16.6076 16.8633 16.2092 17.3086C15.7873 17.7539 15.2834 18.0938 14.6975 18.3281C14.2287 18.5156 13.7131 18.6445 13.1506 18.7148V19.875C13.1506 20.2031 13.0451 20.4727 12.8342 20.6836C12.6232 20.8945 12.3537 21 12.0256 21C11.6975 21 11.4279 20.8945 11.217 20.6836C11.0061 20.4727 10.9006 20.2031 10.9006 19.875V18.6445C10.9006 18.6445 10.8889 18.6445 10.8654 18.6445H10.8303C10.385 18.5742 9.86934 18.457 9.2834 18.293C8.67402 18.1289 8.12324 17.9414 7.63105 17.7305C7.3498 17.5898 7.15059 17.3789 7.0334 17.0977C6.93965 16.8164 6.95137 16.5352 7.06855 16.2539C7.20918 15.9492 7.42012 15.75 7.70137 15.6562C7.95918 15.5391 8.24043 15.5391 8.54512 15.6562C8.94355 15.8438 9.38887 16.0078 9.88105 16.1484C10.3732 16.2656 10.8068 16.3594 11.1818 16.4297C12.3303 16.5703 13.2209 16.5117 13.8537 16.2539C14.4396 15.9961 14.7561 15.6562 14.8029 15.2344C14.8498 14.8594 14.8381 14.6133 14.7678 14.4961C14.6975 14.3555 14.5451 14.2031 14.3107 14.0391C13.7248 13.6875 12.8576 13.3828 11.7092 13.125L11.6037 13.0898C11.5803 13.0898 11.5568 13.0781 11.5334 13.0547C11.0178 12.9375 10.4904 12.7852 9.95137 12.5977C9.4123 12.4102 8.9084 12.1758 8.43965 11.8945C7.92402 11.5664 7.51387 11.0977 7.20918 10.4883C6.90449 9.85547 6.83418 9.16406 6.99824 8.41406C7.11543 7.75781 7.39668 7.20703 7.84199 6.76172C8.2873 6.31641 8.80293 5.97656 9.38887 5.74219C9.85762 5.55469 10.3615 5.42578 10.9006 5.35547V4.125C10.9006 3.79688 11.0061 3.52734 11.217 3.31641C11.4279 3.10547 11.6975 3 12.0256 3Z"/></svg>