<svg width="24" height="24" viewBox="0 0 24 24" xmlns="http://www.w3.org/2000/svg" fill="#cacaca"><path d="M10.9993 11.999C10.9993 11.4468 11.447 10.9991 11.9993 10.999C12.5515 10.999 12.9993 11.4468 12.9993 11.999V16.6641L14.5813 15.1602C14.9816 14.7797 15.6149 14.796 15.9954 15.1963C16.3755 15.5965 16.3592 16.229 15.9592 16.6094L12.6887 19.7188C12.3027 20.0857 11.6968 20.0856 11.3108 19.7188L8.0393 16.6094C7.63938 16.2288 7.62376 15.5965 8.00414 15.1963C8.38459 14.7962 9.01695 14.7799 9.41723 15.1602L10.9993 16.6631V11.999ZM9.26976 3.99904C10.4017 3.96036 11.5293 4.16625 12.5686 4.60256C13.608 5.03895 14.5346 5.69532 15.2756 6.52639C15.8418 7.1614 16.2876 7.8862 16.595 8.66701H16.9055C17.975 8.66635 19.0217 8.98927 19.8938 9.59572C20.7667 10.2027 21.4223 11.0651 21.7551 12.0635C22.0881 13.0627 22.0774 14.1382 21.7248 15.1309C21.3726 16.1227 20.7007 16.9725 19.8166 17.5635C19.3575 17.8704 18.7359 17.7473 18.4289 17.2881C18.1221 16.829 18.2462 16.2083 18.7053 15.9014C19.2427 15.5421 19.6364 15.0353 19.8401 14.4619C20.0434 13.8893 20.0496 13.2711 19.8577 12.6953C19.6654 12.1189 19.282 11.6058 18.7522 11.2373C18.2879 10.9144 17.7344 10.7192 17.1555 10.6758L16.9065 10.667H15.8752C15.4234 10.667 15.0272 10.364 14.9094 9.92775C14.7048 9.16978 14.3216 8.46113 13.7834 7.85744C13.2451 7.2536 12.5658 6.7699 11.7952 6.44631C11.0243 6.12268 10.1838 5.96917 9.33812 5.99806C8.49246 6.02697 7.6664 6.23744 6.92309 6.61232C6.18003 6.9871 5.54035 7.5147 5.05004 8.15236C4.55985 8.7899 4.23088 9.52181 4.08422 10.291C3.93765 11.06 3.97684 11.8508 4.19848 12.6045C4.42021 13.3583 4.82034 14.0585 5.3723 14.6514C5.74862 15.0556 5.72575 15.6891 5.32152 16.0654C4.91736 16.4416 4.28474 16.4187 3.90844 16.0147C3.14901 15.1989 2.59058 14.2257 2.27953 13.168C1.96853 12.1102 1.91313 10.9978 2.11937 9.91603C2.32563 8.83429 2.78754 7.81481 3.46508 6.93361C4.14243 6.05271 5.01776 5.33301 6.02269 4.82619C7.02752 4.31945 8.13777 4.03774 9.26976 3.99904Z"/></svg>