<svg width="24" height="24" viewBox="0 0 24 24" xmlns="http://www.w3.org/2000/svg" fill="#cacaca"><path d="M12 21C10.0069 20.9531 8.35417 20.2969 7.04167 19.0312C5.72917 17.7656 5.04861 16.1719 5 14.25C5.04861 13.1484 5.47396 11.8594 6.27604 10.3828C7.07812 8.90625 7.95312 7.52344 8.90104 6.23438C9.84896 4.94531 10.5781 4.00781 11.0885 3.42188C11.3073 3.14062 11.599 3 11.9635 3H12.0365C12.401 3 12.6927 3.14062 12.9115 3.42188C13.4219 4.00781 14.151 4.94531 15.099 6.23438C16.0469 7.52344 16.9219 8.90625 17.724 10.3828C18.526 11.8594 18.9514 13.1484 19 14.25C18.9514 16.1719 18.2708 17.7656 16.9583 19.0312C15.6458 20.2969 13.9931 20.9531 12 21ZM8.5 14.8125C8.47569 14.4609 8.28125 14.2734 7.91667 14.25C7.55208 14.2734 7.35764 14.4609 7.33333 14.8125C7.35764 15.9375 7.75868 16.8633 8.53646 17.5898C9.28993 18.3398 10.25 18.7266 11.4167 18.75C11.7812 18.7266 11.9757 18.5391 12 18.1875C11.9757 17.8359 11.7812 17.6484 11.4167 17.625C10.5903 17.6016 9.89757 17.332 9.33854 16.8164C8.80382 16.2773 8.52431 15.6094 8.5 14.8125Z"/></svg>