<svg width="24" height="24" viewBox="0 0 24 24" xmlns="http://www.w3.org/2000/svg" fill="#cacaca"><path d="M4.26562 9.53906L4.61719 10.1641C4.95573 10.763 5.45052 11.1536 6.10156 11.3359L8.36719 12C9.07031 12.2344 9.44792 12.7292 9.5 13.4844V15.0469C9.52604 15.5156 9.73438 15.8542 10.125 16.0625C10.5156 16.2708 10.724 16.6094 10.75 17.0781V18.6016C10.75 18.9141 10.8672 19.1615 11.1016 19.3438C11.3359 19.5 11.6094 19.5521 11.9219 19.5C12.5729 19.2656 13.0026 18.8229 13.2109 18.1719L13.2891 17.7422C13.4714 17.0391 13.875 16.5182 14.5 16.1797L14.8125 15.9844C15.4115 15.6198 15.724 15.0729 15.75 14.3438V14.0313C15.75 13.5104 15.5677 13.0677 15.2031 12.7031L15.0469 12.5469C14.6823 12.1823 14.2396 12 13.7188 12H12.0391C11.5964 12 11.1797 11.8958 10.7891 11.6875L9.46094 10.9062C9.27865 10.8021 9.16146 10.6589 9.10938 10.4766C8.97917 10.0599 9.10938 9.73438 9.5 9.5L9.73438 9.38281C9.99479 9.2526 10.2682 9.23958 10.5547 9.34375L11.4531 9.61719C11.8177 9.72135 12.1042 9.63021 12.3125 9.34375C12.4948 9.03125 12.4818 8.73177 12.2734 8.44531L11.7266 7.82031C11.3359 7.27344 11.3359 6.73958 11.7266 6.21875L12.3516 5.47656C12.7161 5.03385 12.7682 4.55208 12.5078 4.03125L12.3906 3.875C12.2604 3.875 12.1302 3.875 12 3.875C10.151 3.90104 8.53646 4.4349 7.15625 5.47656C5.77604 6.51823 4.8125 7.8724 4.26562 9.53906ZM20.125 12C20.099 10.5417 19.7604 9.22656 19.1094 8.05469L18.0938 8.44531C17.7813 8.57552 17.5599 8.78385 17.4297 9.07031C17.2995 9.35677 17.2865 9.66927 17.3906 10.0078L18.0156 11.9609C18.1719 12.4036 18.4714 12.6771 18.9141 12.7813L20.0469 13.0938C20.099 12.7292 20.125 12.3646 20.125 12ZM2 12C2.02604 10.1771 2.46875 8.51042 3.32813 7C4.21354 5.48958 5.4375 4.26562 7 3.32813C8.58854 2.44271 10.2552 2 12 2C13.7448 2 15.4115 2.44271 17 3.32813C18.5625 4.26562 19.7865 5.48958 20.6719 7C21.5312 8.51042 21.974 10.1771 22 12C21.974 13.8229 21.5312 15.4896 20.6719 17C19.7865 18.5104 18.5625 19.7344 17 20.6719C15.4115 21.5573 13.7448 22 12 22C10.2552 22 8.58854 21.5573 7 20.6719C5.4375 19.7344 4.21354 18.5104 3.32813 17C2.46875 15.4896 2.02604 13.8229 2 12Z"/></svg>