<svg width="24" height="24" viewBox="0 0 24 24" xmlns="http://www.w3.org/2000/svg" fill="#cacaca"><path d="M4.03125 13.5234L5.24219 13.7578C5.58073 13.8359 5.86719 13.7578 6.10156 13.5234L6.72656 12.8984C6.96094 12.6901 7.22135 12.612 7.50781 12.6641C7.82031 12.7161 8.05469 12.8854 8.21094 13.1719L8.5625 13.875C8.77083 14.2656 9.10938 14.474 9.57813 14.5C9.86458 14.474 10.099 14.3568 10.2812 14.1484C10.4375 13.9141 10.4766 13.6536 10.3984 13.3672L10.1641 12.5859C10.0859 12.2734 10.138 11.987 10.3203 11.7266C10.5026 11.4922 10.75 11.375 11.0625 11.375H11.1797C11.7266 11.349 12.1563 11.1146 12.4688 10.6719L12.8984 10.0469C13.1068 9.68229 13.0938 9.31771 12.8594 8.95313L12.2344 8.13281C12.026 7.84635 11.974 7.54688 12.0781 7.23438C12.1823 6.94792 12.4036 6.7526 12.7422 6.64844L13.4063 6.49219C13.7188 6.38802 13.9401 6.19271 14.0703 5.90625L14.6953 4.30469C13.8359 4.01823 12.9375 3.875 12 3.875C9.70833 3.92708 7.79427 4.72135 6.25781 6.25781C4.72135 7.79427 3.92708 9.70833 3.875 12C3.875 12.5208 3.92708 13.0286 4.03125 13.5234ZM19.9297 13.7188C19.8776 13.6927 19.8255 13.6927 19.7734 13.7188C19.7214 13.7188 19.6562 13.7318 19.5781 13.7578L18.9922 13.9141C18.7057 13.9661 18.4714 13.875 18.2891 13.6406L18.2109 13.5234C17.9505 13.1328 17.599 12.9375 17.1563 12.9375C16.6875 12.9375 16.3229 13.1328 16.0625 13.5234L15.8281 13.9141C15.776 13.9922 15.6979 14.0573 15.5938 14.1094L14.1875 14.8906C13.8229 15.099 13.5885 15.3854 13.4844 15.75C13.3542 16.1406 13.3672 16.5182 13.5234 16.8828L13.7578 17.3906C13.9141 17.7552 14.1875 18.0156 14.5781 18.1719C14.9427 18.3281 15.3203 18.3411 15.7109 18.2109L15.8281 18.1719C16.2448 18.0156 16.6354 18.0677 17 18.3281L17.0391 18.3672C18.5234 17.1693 19.487 15.6198 19.9297 13.7188ZM2 12C2.02604 10.1771 2.46875 8.51042 3.32813 7C4.21354 5.48958 5.4375 4.26562 7 3.32813C8.58854 2.44271 10.2552 2 12 2C13.7448 2 15.4115 2.44271 17 3.32813C18.5625 4.26562 19.7865 5.48958 20.6719 7C21.5312 8.51042 21.974 10.1771 22 12C21.974 13.8229 21.5312 15.4896 20.6719 17C19.7865 18.5104 18.5625 19.7344 17 20.6719C15.4115 21.5573 13.7448 22 12 22C10.2552 22 8.58854 21.5573 7 20.6719C5.4375 19.7344 4.21354 18.5104 3.32813 17C2.46875 15.4896 2.02604 13.8229 2 12ZM7.66406 15.5938C7.58594 15.9844 7.72917 16.2448 8.09375 16.375L9.34375 16.6875C9.73438 16.7396 9.99479 16.5833 10.125 16.2188C10.1771 15.8281 10.0208 15.5807 9.65625 15.4766L8.40625 15.1641C8.01563 15.0859 7.76823 15.2292 7.66406 15.5938ZM11.2578 14.8125C11.1797 15.2031 11.3229 15.4635 11.6875 15.5938C12.0781 15.6458 12.3385 15.4896 12.4688 15.125L12.7813 13.875C12.8333 13.4844 12.6771 13.237 12.3125 13.1328C11.9219 13.0547 11.6745 13.1979 11.5703 13.5625L11.2578 14.8125ZM15.3984 6.45312C15.0599 6.29688 14.7865 6.38802 14.5781 6.72656L13.9531 7.97656C13.7969 8.34115 13.888 8.61458 14.2266 8.79688C14.5911 8.95313 14.8646 8.86198 15.0469 8.52344L15.6719 7.27344C15.8281 6.9349 15.737 6.66146 15.3984 6.45312Z"/></svg>