<svg width="24" height="24" viewBox="0 0 24 24" xmlns="http://www.w3.org/2000/svg" fill="#cacaca"><path d="M10.5586 6.375H6.375V12.5977L3 10.1367C3.07031 9.45703 3.375 8.91797 3.91406 8.51953L4.6875 7.92188V6.375C4.71094 5.90625 4.875 5.50781 5.17969 5.17969C5.50781 4.875 5.90625 4.71094 6.375 4.6875H9.08203L10.8398 3.38672C11.168 3.12891 11.5547 3 12 3C12.4453 3 12.8438 3.12891 13.1953 3.38672L14.918 4.6875H17.625C18.0938 4.71094 18.4922 4.875 18.8203 5.17969C19.125 5.50781 19.2891 5.90625 19.3125 6.375V7.92188L20.0859 8.51953C20.625 8.91797 20.9297 9.45703 21 10.1367L17.625 12.5977V6.375H10.5586ZM3 18.75V11.5078L10.6641 17.168C11.0625 17.4727 11.5078 17.625 12 17.625C12.4922 17.625 12.9375 17.4727 13.3359 17.168L21 11.5078V18.75C20.9766 19.3828 20.7539 19.9102 20.332 20.332C19.9102 20.7539 19.3828 20.9766 18.75 21H5.25C4.61719 20.9766 4.08984 20.7539 3.66797 20.332C3.24609 19.9102 3.02344 19.3828 3 18.75ZM12.7031 7.78125V8.27344C12.9609 8.32031 13.207 8.37891 13.4414 8.44922C13.8398 8.58984 14.0039 8.87109 13.9336 9.29297C13.793 9.69141 13.5117 9.85547 13.0898 9.78516C12.6914 9.69141 12.3281 9.63281 12 9.60938C11.6953 9.60938 11.4375 9.66797 11.2266 9.78516C11.0625 9.87891 10.9922 9.98438 11.0156 10.1016C10.9922 10.1719 11.0508 10.2539 11.1914 10.3477C11.4023 10.4648 11.7422 10.5938 12.2109 10.7344C12.2344 10.7344 12.2461 10.7344 12.2461 10.7344C12.668 10.8516 13.0898 11.0273 13.5117 11.2617C14.0273 11.5195 14.3203 12 14.3906 12.7031C14.3438 13.4531 14.0508 13.9805 13.5117 14.2852C13.2539 14.4492 12.9844 14.5547 12.7031 14.6016V15.0938C12.6562 15.5156 12.4219 15.75 12 15.7969C11.5781 15.75 11.3438 15.5156 11.2969 15.0938V14.6016C10.9219 14.5078 10.5938 14.4023 10.3125 14.2852C10.2422 14.2617 10.1719 14.2383 10.1016 14.2148C9.70312 14.0508 9.55078 13.7578 9.64453 13.3359C9.80859 12.9375 10.1016 12.7852 10.5234 12.8789C10.5703 12.9023 10.6172 12.9141 10.6641 12.9141C10.7109 12.9375 10.7578 12.9609 10.8047 12.9844C11.25 13.1484 11.6602 13.2422 12.0352 13.2656C12.3398 13.2656 12.5859 13.207 12.7734 13.0898C12.9141 13.0195 12.9844 12.9023 12.9844 12.7383C13.0078 12.6445 12.9375 12.5508 12.7734 12.457C12.5625 12.3164 12.2344 12.1875 11.7891 12.0703L11.7188 12.0352C11.2969 11.9414 10.8867 11.7773 10.4883 11.543C9.97266 11.3086 9.67969 10.8398 9.60938 10.1367C9.65625 9.38672 9.96094 8.87109 10.5234 8.58984C10.7578 8.44922 11.0156 8.34375 11.2969 8.27344V7.78125C11.3438 7.35938 11.5781 7.125 12 7.07812C12.4219 7.125 12.6562 7.35938 12.7031 7.78125Z"/></svg>