<svg width="24" height="24" viewBox="0 0 24 24" xmlns="http://www.w3.org/2000/svg" fill="#cacaca"><path d="M7 5H17C17.5625 5.02083 18.0312 5.21875 18.4062 5.59375C18.7812 5.96875 18.9792 6.4375 19 7V17C18.9792 17.5625 18.7812 18.0312 18.4062 18.4062C18.0312 18.7812 17.5625 18.9792 17 19H7C6.4375 18.9792 5.96875 18.7812 5.59375 18.4062C5.21875 18.0312 5.02083 17.5625 5 17V7C5.02083 6.4375 5.21875 5.96875 5.59375 5.59375C5.96875 5.21875 6.4375 5.02083 7 5ZM12 8C11.5417 8.04167 11.2917 8.29167 11.25 8.75V12.25C11.2917 12.7083 11.5417 12.9583 12 13C12.4583 12.9583 12.7083 12.7083 12.75 12.25V8.75C12.7083 8.29167 12.4583 8.04167 12 8ZM11 15C11 15.2917 11.0938 15.5312 11.2812 15.7188C11.4688 15.9062 11.7083 16 12 16C12.2917 16 12.5312 15.9062 12.7188 15.7188C12.9062 15.5312 13 15.2917 13 15C13 14.7083 12.9062 14.4688 12.7188 14.2812C12.5312 14.0938 12.2917 14 12 14C11.7083 14 11.4688 14.0938 11.2812 14.2812C11.0938 14.4688 11 14.7083 11 15Z"/></svg>