<svg width="24" height="24" viewBox="0 0 24 24" xmlns="http://www.w3.org/2000/svg" fill="#cacaca"><path d="M13 6V14C13 14.2917 12.9062 14.5312 12.7188 14.7188C12.5312 14.9062 12.2917 15 12 15C11.7083 15 11.4688 14.9062 11.2812 14.7188C11.0938 14.5312 11 14.2917 11 14V6C11 5.70833 11.0938 5.46875 11.2812 5.28125C11.4688 5.09375 11.7083 5 12 5C12.2917 5 12.5312 5.09375 12.7188 5.28125C12.9062 5.46875 13 5.70833 13 6ZM12 19C11.5208 18.9792 11.1562 18.7708 10.9062 18.375C10.6979 17.9583 10.6979 17.5417 10.9062 17.125C11.1562 16.7292 11.5208 16.5208 12 16.5C12.4792 16.5208 12.8438 16.7292 13.0938 17.125C13.3021 17.5417 13.3021 17.9583 13.0938 18.375C12.8438 18.7708 12.4792 18.9792 12 19Z"/></svg>