<svg width="24" height="24" viewBox="0 0 24 24" xmlns="http://www.w3.org/2000/svg" fill="#cacaca"><path d="M7.44434 20V17.333C7.44425 17.1268 7.36258 16.929 7.2168 16.7832C7.08908 16.6555 6.92135 16.5772 6.74316 16.5596L6.66699 16.5557H4C3.44775 16.5557 3.00006 16.1079 3 15.5557C3 15.0034 3.44772 14.5557 4 14.5557H6.66699L6.94141 14.5693C7.57723 14.6325 8.17509 14.9134 8.63086 15.3691C9.15172 15.89 9.44425 16.5964 9.44434 17.333V20C9.44434 20.5523 8.99662 21 8.44434 21C7.8921 20.9999 7.44434 20.5522 7.44434 20ZM14.5557 20V17.333C14.5557 16.5964 14.8483 15.89 15.3691 15.3691C15.89 14.8483 16.5964 14.5557 17.333 14.5557H20L20.1025 14.5605C20.6067 14.6119 21 15.038 21 15.5557C20.9999 16.0733 20.6066 16.4995 20.1025 16.5508L20 16.5557H17.333C17.1268 16.5557 16.929 16.6374 16.7832 16.7832C16.6374 16.929 16.5557 17.1268 16.5557 17.333V20C16.5557 20.5522 16.1079 20.9999 15.5557 21C15.0034 21 14.5557 20.5523 14.5557 20ZM7.44434 6.66699V4C7.44434 3.44775 7.8921 3.00006 8.44434 3C8.99662 3 9.44434 3.44772 9.44434 4V6.66699L9.43066 6.94141C9.36749 7.57723 9.08663 8.17509 8.63086 8.63086C8.17509 9.08663 7.57723 9.36749 6.94141 9.43066L6.66699 9.44434H4C3.44772 9.44434 3 8.99662 3 8.44434C3.00006 7.8921 3.44775 7.44434 4 7.44434H6.66699L6.74316 7.44043C6.92135 7.42282 7.08908 7.34451 7.2168 7.2168C7.34451 7.08908 7.42282 6.92135 7.44043 6.74316L7.44434 6.66699ZM14.5557 6.66699V4C14.5557 3.44772 15.0034 3 15.5557 3C16.1079 3.00006 16.5557 3.44775 16.5557 4V6.66699L16.5596 6.74316C16.5772 6.92135 16.6555 7.08908 16.7832 7.2168C16.929 7.36258 17.1268 7.44425 17.333 7.44434H20C20.5522 7.44434 20.9999 7.8921 21 8.44434C21 8.99662 20.5523 9.44434 20 9.44434H17.333C16.5964 9.44425 15.89 9.15172 15.3691 8.63086C14.9134 8.17509 14.6325 7.57723 14.5693 6.94141L14.5557 6.66699Z"/></svg>