<svg width="24" height="24" viewBox="0 0 24 24" xmlns="http://www.w3.org/2000/svg" fill="#cacaca"><path d="M4.19352 12.5909C3.91744 12.2146 3.93742 11.6911 4.25309 11.336L7.80876 7.33597L7.88005 7.26273C8.25333 6.91982 8.83289 6.90896 9.21989 7.25296C9.60689 7.59701 9.66425 8.17409 9.36735 8.58499L9.3029 8.66409L7.22575 11H16.7736L14.6974 8.66409C14.3306 8.25133 14.3677 7.61987 14.7804 7.25296C15.1932 6.88606 15.8246 6.92324 16.1916 7.33597L19.7472 11.336C20.084 11.7149 20.084 12.2852 19.7472 12.6641L16.1916 16.6641C15.8246 17.0768 15.1932 17.114 14.7804 16.7471C14.3934 16.403 14.3361 15.826 14.633 15.4151L14.6974 15.336L16.7736 13H7.22575L9.3029 15.336C9.66975 15.7487 9.6326 16.3802 9.21989 16.7471C8.80713 17.114 8.17568 17.0768 7.80876 16.6641L4.25309 12.6641L4.19352 12.5909Z"/></svg>