<svg width="24" height="24" viewBox="0 0 24 24" xmlns="http://www.w3.org/2000/svg" fill="#cacaca"><path d="M19.3691 4.22462C19.7618 3.90427 20.3408 3.92686 20.707 4.29298C21.0731 4.65909 21.0957 5.2381 20.7753 5.63087L20.707 5.70704L5.70696 20.707C5.31643 21.0976 4.68342 21.0976 4.29289 20.707C3.90237 20.3165 3.90237 19.6835 4.29289 19.293L19.2929 4.29298L19.3691 4.22462ZM19.2929 11.293C19.6834 10.9025 20.3164 10.9025 20.707 11.293C21.0975 11.6835 21.0975 12.3165 20.707 12.707L12.707 20.707C12.3164 21.0976 11.6834 21.0976 11.2929 20.707C10.9024 20.3165 10.9024 19.6835 11.2929 19.293L19.2929 11.293ZM19.2929 17.293C19.6834 16.9025 20.3164 16.9025 20.707 17.293C21.0975 17.6835 21.0975 18.3165 20.707 18.707L18.707 20.707C18.3164 21.0976 17.6834 21.0976 17.2929 20.707C16.9024 20.3165 16.9024 19.6835 17.2929 19.293L19.2929 17.293Z"/></svg>