<svg width="24" height="24" viewBox="0 0 24 24" xmlns="http://www.w3.org/2000/svg" fill="#cacaca"><path d="M9.59082 13.002C9.9836 12.6815 10.5635 12.7042 10.9297 13.0703C11.3202 13.4608 11.3202 14.0948 10.9297 14.4854L6.41406 19H9.33301L9.43555 19.0049C9.93983 19.0561 10.333 19.4822 10.333 20C10.333 20.5178 9.93983 20.9439 9.43555 20.9951L9.33301 21H4C3.44772 21 3 20.5523 3 20V14.667C3 14.1147 3.44772 13.667 4 13.667C4.55228 13.667 5 14.1147 5 14.667V17.585L9.51465 13.0703L9.59082 13.002ZM21 9.33301C21 9.88529 20.5523 10.333 20 10.333C19.4477 10.333 19 9.88529 19 9.33301V6.41406L14.4854 10.9297L14.4092 10.998C14.0164 11.3185 13.4365 11.2958 13.0703 10.9297C12.6798 10.5392 12.6798 9.90517 13.0703 9.51465L17.5859 5H14.667C14.1147 5 13.667 4.55228 13.667 4C13.667 3.44772 14.1147 3 14.667 3H20L20.1025 3.00488C20.6067 3.05621 21 3.48232 21 4V9.33301Z"/></svg>