<svg width="24" height="24" viewBox="0 0 24 24" xmlns="http://www.w3.org/2000/svg" fill="#cacaca"><path d="M6.19322 6.59091C6.94913 5.99359 7.80812 5.50688 8.77019 5.13079C9.75517 4.77682 10.8318 4.58877 12 4.56665C13.3973 4.58877 14.6457 4.85425 15.7452 5.36308C16.8447 5.87191 17.8068 6.50242 18.6314 7.2546C19.4331 7.98466 20.0974 8.73685 20.6243 9.51115C21.1511 10.2855 21.552 10.9823 21.8269 11.6018C21.9185 11.8673 21.9185 12.1327 21.8269 12.3982C21.5749 12.9513 21.2198 13.5707 20.7617 14.2566C20.3036 14.9645 19.7424 15.6614 19.0781 16.3472L22.6859 19.0683C23.0524 19.4002 23.0982 19.7763 22.8233 20.1966C22.4797 20.5506 22.0903 20.5948 21.6551 20.3293L1.31415 4.93168C0.947642 4.59983 0.90183 4.22374 1.17671 3.8034C1.5203 3.44943 1.90971 3.40519 2.34494 3.67066L6.19322 6.59091ZM8.66711 8.48243L11.7595 10.8054C11.9198 10.5399 12 10.2191 12 9.843C11.9771 9.48903 11.8855 9.14612 11.7251 8.81428C11.748 8.81428 11.7824 8.81428 11.8282 8.81428C11.8969 8.79215 11.9542 8.78109 12 8.78109C12.9392 8.80322 13.718 9.11294 14.3365 9.71026C14.9549 10.3076 15.2756 11.0598 15.2985 11.9668C15.2985 12.4535 15.1954 12.896 14.9893 13.2942L16.3637 14.2897C16.7531 13.6039 16.9478 12.8296 16.9478 11.9668C16.902 10.6394 16.4209 9.52222 15.5047 8.61517C14.5655 7.70812 13.3973 7.23248 12 7.18823C10.6943 7.23248 9.58337 7.66388 8.66711 8.48243ZM12 19.4334C10.6027 19.4112 9.35431 19.1458 8.2548 18.6369C7.15529 18.1281 6.19322 17.4976 5.36859 16.7454C4.56686 15.9932 3.90257 15.241 3.37573 14.4888C2.84888 13.7145 2.44801 13.0177 2.17314 12.3982C2.08151 12.1327 2.08151 11.8673 2.17314 11.6018C2.51673 10.8054 3.07794 9.89831 3.85676 8.88065L7.08657 11.3363C7.06366 11.5575 7.05221 11.7677 7.05221 11.9668C7.09802 13.3384 7.57906 14.4778 8.49531 15.3848C9.43448 16.2698 10.6027 16.7343 12 16.7786C12.6414 16.7786 13.2484 16.668 13.8211 16.4467L16.3293 18.3714C15.0924 19.0351 13.6493 19.3891 12 19.4334Z"/></svg>