<svg width="24" height="24" viewBox="0 0 24 24" xmlns="http://www.w3.org/2000/svg" fill="#cacaca"><path d="M12 20C10.5417 19.9792 9.20833 19.625 8 18.9375C6.79167 18.2292 5.8125 17.25 5.0625 16C4.35417 14.7292 4 13.3958 4 12C4 10.6042 4.35417 9.27083 5.0625 8C5.8125 6.75 6.79167 5.77083 8 5.0625C9.20833 4.375 10.5417 4.02083 12 4C13.4583 4.02083 14.7917 4.375 16 5.0625C17.2083 5.77083 18.1875 6.75 18.9375 8C19.6458 9.27083 20 10.6042 20 12C20 13.3958 19.6458 14.7292 18.9375 16C18.1875 17.25 17.2083 18.2292 16 18.9375C14.7917 19.625 13.4583 19.9792 12 20ZM16.125 13.7812C14.875 14.1562 13.5 14.3542 12 14.375C10.5208 14.3542 9.14583 14.1562 7.875 13.7812C7.6875 13.7188 7.52083 13.75 7.375 13.875C7.25 14 7.21875 14.1667 7.28125 14.375C7.69792 15.3125 8.32292 16.0625 9.15625 16.625C9.98958 17.1875 10.9375 17.4792 12 17.5C13.0833 17.4792 14.0417 17.1875 14.875 16.625C15.7083 16.0625 16.3229 15.3125 16.7188 14.375C16.8021 14.1667 16.7708 14 16.625 13.875C16.5 13.75 16.3333 13.7188 16.125 13.7812ZM10.2188 8.03125C9.92708 7.96875 9.66667 8 9.4375 8.125C9.1875 8.27083 9.02083 8.48958 8.9375 8.78125L8.8125 9.28125L8.3125 9.125C8.02083 9.0625 7.76042 9.10417 7.53125 9.25C7.28125 9.375 7.11458 9.58333 7.03125 9.875C6.96875 10.1667 7.01042 10.4271 7.15625 10.6562C7.28125 10.9062 7.48958 11.0729 7.78125 11.1562L9.8125 11.6875C10.1042 11.75 10.3125 11.6354 10.4375 11.3438L10.9688 9.3125C11.0312 9.02083 11 8.76042 10.875 8.53125C10.7292 8.28125 10.5104 8.11458 10.2188 8.03125ZM15.0625 8.78125C14.9792 8.48958 14.8125 8.28125 14.5625 8.15625C14.3125 8.01042 14.0521 7.96875 13.7812 8.03125C13.4896 8.11458 13.2708 8.28125 13.125 8.53125C13 8.76042 12.9688 9.02083 13.0312 9.3125L13.5625 11.3438C13.6875 11.6354 13.8958 11.75 14.1875 11.6875L16.2188 11.1562C16.5104 11.0729 16.7188 10.9062 16.8438 10.6562C16.9896 10.4271 17.0312 10.1667 16.9688 9.875C16.8854 9.58333 16.7188 9.375 16.4688 9.25C16.2396 9.10417 15.9792 9.07292 15.6875 9.15625L15.1875 9.28125L15.0625 8.78125Z"/></svg>