<svg width="24" height="24" viewBox="0 0 24 24" xmlns="http://www.w3.org/2000/svg" fill="#cacaca"><path d="M4.96875 3H7.78125C8.29688 3.04688 8.57812 3.32812 8.625 3.84375C8.57812 4.35938 8.29688 4.64062 7.78125 4.6875H4.96875C4.80469 4.71094 4.71094 4.80469 4.6875 4.96875V7.78125C4.64062 8.29688 4.35938 8.57812 3.84375 8.625C3.32812 8.57812 3.04688 8.29688 3 7.78125V4.96875C3.02344 4.40625 3.21094 3.9375 3.5625 3.5625C3.9375 3.21094 4.40625 3.02344 4.96875 3ZM16.2188 3H19.0312C19.5938 3.02344 20.0625 3.21094 20.4375 3.5625C20.7891 3.9375 20.9766 4.40625 21 4.96875V7.78125C20.9531 8.29688 20.6719 8.57812 20.1562 8.625C19.6406 8.57812 19.3594 8.29688 19.3125 7.78125V4.96875C19.2891 4.80469 19.1953 4.71094 19.0312 4.6875H16.2188C15.7031 4.64062 15.4219 4.35938 15.375 3.84375C15.4219 3.32812 15.7031 3.04688 16.2188 3ZM4.6875 16.2188V19.0312C4.71094 19.1953 4.80469 19.2891 4.96875 19.3125H7.78125C8.29688 19.3594 8.57812 19.6406 8.625 20.1562C8.57812 20.6719 8.29688 20.9531 7.78125 21H4.96875C4.40625 20.9766 3.9375 20.7891 3.5625 20.4375C3.21094 20.0625 3.02344 19.5938 3 19.0312V16.2188C3.04688 15.7031 3.32812 15.4219 3.84375 15.375C4.35938 15.4219 4.64062 15.7031 4.6875 16.2188ZM21 16.2188V19.0312C20.9766 19.5938 20.7891 20.0625 20.4375 20.4375C20.0625 20.7891 19.5938 20.9766 19.0312 21H16.2188C15.7031 20.9531 15.4219 20.6719 15.375 20.1562C15.4219 19.6406 15.7031 19.3594 16.2188 19.3125H19.0312C19.1953 19.2891 19.2891 19.1953 19.3125 19.0312V16.2188C19.3594 15.7031 19.6406 15.4219 20.1562 15.375C20.6719 15.4219 20.9531 15.7031 21 16.2188ZM6.375 12C6.375 10.9922 6.62109 10.0547 7.11328 9.1875C7.62891 8.32031 8.32031 7.62891 9.1875 7.11328C10.0781 6.62109 11.0156 6.375 12 6.375C12.9844 6.375 13.9219 6.62109 14.8125 7.11328C15.6797 7.62891 16.3711 8.32031 16.8867 9.1875C17.3789 10.0547 17.625 10.9922 17.625 12C17.625 13.0078 17.3789 13.9453 16.8867 14.8125C16.3711 15.6797 15.6797 16.3711 14.8125 16.8867C13.9219 17.3789 12.9844 17.625 12 17.625C11.0156 17.625 10.0781 17.3789 9.1875 16.8867C8.32031 16.3711 7.62891 15.6797 7.11328 14.8125C6.62109 13.9453 6.375 13.0078 6.375 12ZM10.875 10.5938C10.8281 10.0781 10.5469 9.79688 10.0312 9.75C9.51562 9.79688 9.23438 10.0781 9.1875 10.5938C9.23438 11.1094 9.51562 11.3906 10.0312 11.4375C10.5469 11.3906 10.8281 11.1094 10.875 10.5938ZM13.9688 11.4375C14.4844 11.3906 14.7656 11.1094 14.8125 10.5938C14.7656 10.0781 14.4844 9.79688 13.9688 9.75C13.4531 9.79688 13.1719 10.0781 13.125 10.5938C13.1719 11.1094 13.4531 11.3906 13.9688 11.4375ZM8.97656 13.3008C8.74219 13.5586 8.73047 13.8164 8.94141 14.0742C9.76172 14.918 10.7812 15.3516 12 15.375C13.2188 15.3516 14.2383 14.918 15.0586 14.0742C15.2695 13.8164 15.2578 13.5586 15.0234 13.3008C14.7656 13.0664 14.5078 13.0664 14.25 13.3008C13.6641 13.9102 12.9141 14.2266 12 14.25C11.1094 14.2266 10.3711 13.9102 9.78516 13.3008C9.50391 13.0664 9.23438 13.0547 8.97656 13.2656V13.3008Z"/></svg>