<svg width="24" height="24" viewBox="0 0 24 24" xmlns="http://www.w3.org/2000/svg" fill="#cacaca"><path d="M16 5.0625C15.9583 5.70833 16.1771 6.28125 16.6562 6.78125L18.375 8.53125C18.6875 8.82292 19.0312 8.97917 19.4062 9C19.8021 9.9375 20 10.9375 20 12C20 13.1875 19.7708 14.2812 19.3125 15.2812C18.875 15.0521 18.4167 14.9688 17.9375 15.0312C17.4375 15.0938 17.0104 15.3021 16.6562 15.6562C16.2396 16.0729 16.0208 16.5625 16 17.125C15.9792 17.6667 16.1458 18.1667 16.5 18.625C15.1875 19.5208 13.6875 19.9792 12 20C10.0417 19.9583 8.35417 19.3542 6.9375 18.1875L7.34375 17.7812C7.78125 17.3229 8 16.8021 8 16.2188C8 15.6354 7.78125 15.1146 7.34375 14.6562C6.94792 14.2604 6.48958 14.0417 5.96875 14C5.44792 13.9583 4.95833 14.0938 4.5 14.4062C4.45833 14.3646 4.40625 14.3333 4.34375 14.3125C4.11458 13.5833 4 12.8125 4 12C4.02083 10.5 4.38542 9.15625 5.09375 7.96875C5.80208 6.76042 6.76042 5.80208 7.96875 5.09375C9.15625 4.38542 10.5 4.02083 12 4C13.4792 4.02083 14.8125 4.375 16 5.0625ZM8.4375 14.125C8.20833 14.3542 8.1875 14.5938 8.375 14.8438C8.72917 15.2604 9.20833 15.6354 9.8125 15.9688C10.4167 16.3021 11.1458 16.4792 12 16.5C12.8542 16.4792 13.5833 16.3021 14.1875 15.9688C14.7917 15.6354 15.2708 15.2604 15.625 14.8438C15.8125 14.5938 15.8021 14.3542 15.5938 14.125C15.3438 13.9375 15.1042 13.9583 14.875 14.1875C14.5833 14.5208 14.2083 14.8229 13.75 15.0938C13.2708 15.3438 12.6875 15.4792 12 15.5C11.3125 15.4792 10.7292 15.3438 10.25 15.0938C9.79167 14.8229 9.41667 14.5208 9.125 14.1875C8.89583 13.9583 8.66667 13.9375 8.4375 14.125ZM8.40625 11.3125C8.69792 10.9375 9.0625 10.75 9.5 10.75C9.9375 10.75 10.3021 10.9375 10.5938 11.3125C10.8021 11.5417 11.0417 11.5729 11.3125 11.4062C11.5417 11.1979 11.5729 10.9583 11.4062 10.6875C10.8854 10.0625 10.25 9.75 9.5 9.75C8.75 9.75 8.11458 10.0625 7.59375 10.6875C7.44792 10.9583 7.47917 11.1979 7.6875 11.4062C7.95833 11.5729 8.19792 11.5417 8.40625 11.3125ZM15.5938 11.3125C15.8021 11.5417 16.0417 11.5729 16.3125 11.4062C16.5417 11.1979 16.5729 10.9583 16.4062 10.6875C15.8854 10.0625 15.25 9.75 14.5 9.75C13.75 9.75 13.1146 10.0625 12.5938 10.6875C12.4479 10.9583 12.4792 11.1979 12.6875 11.4062C12.9583 11.5729 13.1979 11.5417 13.4062 11.3125C13.6979 10.9375 14.0625 10.75 14.5 10.75C14.9375 10.75 15.3021 10.9375 15.5938 11.3125ZM19.9375 4.375C20.1875 4.125 20.4688 4 20.7812 4C21.1146 4 21.4062 4.125 21.6562 4.375C21.8854 4.625 22 4.90625 22 5.21875C22 5.55208 21.8854 5.84375 21.6562 6.09375L19.9062 7.84375C19.6354 8.05208 19.3646 8.05208 19.0938 7.84375L17.3438 6.09375C17.1146 5.84375 17 5.55208 17 5.21875C17 4.88542 17.1146 4.59375 17.3438 4.34375C17.5938 4.11458 17.8854 4 18.2188 4C18.5312 4 18.8125 4.11458 19.0625 4.34375L19.5 4.78125L19.9375 4.34375V4.375ZM21.6562 16.375C21.8854 16.625 22 16.9062 22 17.2188C22 17.5521 21.8854 17.8438 21.6562 18.0938L19.9062 19.8438C19.6354 20.0521 19.3646 20.0521 19.0938 19.8438L17.3438 18.0938C17.1146 17.8438 17 17.5521 17 17.2188C17 16.8854 17.1146 16.6042 17.3438 16.375C17.5938 16.125 17.8854 16 18.2188 16C18.5312 16 18.8125 16.125 19.0625 16.375L19.5 16.7812L19.9375 16.375C20.1875 16.125 20.4688 16 20.7812 16C21.1146 16 21.4062 16.125 21.6562 16.375ZM4.9375 15.375C5.1875 15.125 5.46875 15 5.78125 15C6.11458 15 6.40625 15.125 6.65625 15.375C6.88542 15.625 7 15.9062 7 16.2188C7 16.5521 6.88542 16.8438 6.65625 17.0938L4.90625 18.8438C4.63542 19.0521 4.36458 19.0521 4.09375 18.8438L2.34375 17.0938C2.11458 16.8438 2 16.5521 2 16.2188C2 15.8854 2.11458 15.6042 2.34375 15.375C2.59375 15.125 2.88542 15 3.21875 15C3.53125 15 3.8125 15.125 4.0625 15.375L4.5 15.7812L4.9375 15.375Z"/></svg>