<svg width="24" height="24" viewBox="0 0 24 24" xmlns="http://www.w3.org/2000/svg" fill="#cacaca"><path d="M19.7071 7.70711C19.8946 7.89464 20 8.149 20 8.41421V20C20 20.5304 19.7891 21.039 19.4141 21.4141C19.039 21.7891 18.5304 22 18 22H6C5.46957 22 4.96101 21.7891 4.58594 21.4141C4.21086 21.039 4 20.5304 4 20V4C4 3.46957 4.21086 2.96101 4.58594 2.58594C4.96101 2.21086 5.46957 2 6 2H13.5858C13.851 2 14.1054 2.10536 14.2929 2.29289L19.7071 7.70711ZM8.5 15.5C7.94772 15.5 7.5 15.9477 7.5 16.5C7.5 17.0523 7.94772 17.5 8.5 17.5H15.5C16.0523 17.5 16.5 17.0523 16.5 16.5C16.5 15.9477 16.0523 15.5 15.5 15.5H8.5ZM8.5 11.9004C7.94772 11.9004 7.5 12.3481 7.5 12.9004C7.50021 13.4525 7.94785 13.9004 8.5 13.9004H15.5C16.0522 13.9004 16.4998 13.4525 16.5 12.9004C16.5 12.3481 16.0523 11.9004 15.5 11.9004H8.5ZM8.5 8.2998C7.94778 8.2998 7.50011 8.74761 7.5 9.2998C7.5 9.85209 7.94772 10.2998 8.5 10.2998H10.25C10.8023 10.2998 11.25 9.85209 11.25 9.2998C11.2499 8.74761 10.8022 8.2998 10.25 8.2998H8.5ZM14 8H17L14 5V8Z"/></svg>