<svg width="24" height="24" viewBox="0 0 24 24" xmlns="http://www.w3.org/2000/svg" fill="#cacaca"><path d="M7.4971 5.24863C7.52054 4.61569 7.74325 4.08824 8.16521 3.66628C8.58717 3.24431 9.11462 3.02161 9.74756 2.99817H15.3737V7.49909C15.3737 7.82729 15.4792 8.09687 15.6902 8.30785C15.9012 8.51884 16.1708 8.62433 16.499 8.62433H20.9999V18.7514C20.9764 19.3843 20.7537 19.9118 20.3318 20.3338C19.9098 20.7557 19.3824 20.9784 18.7494 21.0019H10.7673C10.8376 20.8143 10.8728 20.6268 10.8728 20.4393V17.6262C10.8962 17.6262 10.9197 17.6145 10.9431 17.591C10.9666 17.591 10.99 17.591 11.0134 17.591C11.2479 17.4738 11.4823 17.2863 11.7167 17.0284C11.9511 16.7471 12.0918 16.4306 12.1387 16.079C12.1621 15.9618 12.1738 15.8797 12.1738 15.8328C12.2207 15.786 12.2911 15.7273 12.3848 15.657C12.7365 15.3757 12.9592 15.0358 13.0529 14.6373C13.1701 14.2153 13.1467 13.7934 12.9826 13.3714C12.9592 13.2776 12.9357 13.2073 12.9123 13.1604C12.9123 13.1604 12.9006 13.1487 12.8771 13.1252C12.9006 13.0784 12.9357 12.9963 12.9826 12.8791C13.1467 12.4571 13.1701 12.0469 13.0529 11.6484C12.9592 11.2264 12.7365 10.8748 12.3848 10.5935C12.2911 10.5232 12.2207 10.4763 12.1738 10.4528C12.1738 10.4528 12.1738 10.4411 12.1738 10.4177C12.1738 10.3942 12.1621 10.3239 12.1387 10.2067C12.1387 10.2067 12.1387 10.195 12.1387 10.1715C12.0684 9.72611 11.8808 9.35104 11.5761 9.04629C11.2713 8.74154 10.8962 8.554 10.4508 8.48367C10.3336 8.48367 10.2516 8.47195 10.2047 8.44851C10.1578 8.40162 10.0992 8.34302 10.0289 8.27269C9.74756 7.92106 9.40765 7.68663 9.00913 7.56942C8.58717 7.45221 8.16521 7.47565 7.74325 7.63975C7.64948 7.68663 7.57915 7.7218 7.53226 7.74524C7.53226 7.74524 7.52054 7.74524 7.4971 7.74524V5.24863ZM20.9999 7.49909H16.499H20.9999H16.499V2.99817L20.9999 7.49909ZM6.829 8.69465L7.39161 8.90563L6.829 8.69465L7.39161 8.90563C7.46194 8.92908 7.53226 8.92908 7.60259 8.90563L8.16521 8.69465C8.56373 8.554 8.89192 8.63605 9.14978 8.9408L9.53658 9.43309C9.58347 9.47997 9.64207 9.51513 9.7124 9.53858L10.3102 9.6089C10.7087 9.67923 10.9431 9.91365 11.0134 10.3122L11.0838 10.91C11.1072 10.9803 11.1424 11.0389 11.1893 11.0858L11.6816 11.4726C11.9863 11.7304 12.0684 12.0586 11.9277 12.4571L11.7167 13.0198C11.6933 13.0901 11.6933 13.1604 11.7167 13.2307L11.9629 13.7934C12.0801 14.1684 11.9863 14.4966 11.6816 14.7779L11.2244 15.1647C11.1541 15.2116 11.1189 15.2702 11.1189 15.3405L11.0134 15.9383C10.9431 16.3368 10.7087 16.5713 10.3102 16.6416L9.74756 16.7119V20.4393C9.74756 20.6502 9.65379 20.8143 9.46626 20.9315C9.25528 21.0253 9.05602 21.0136 8.86848 20.8964L7.4971 19.9821L6.12573 20.8964C5.93819 21.0136 5.75065 21.0253 5.56311 20.9315C5.35213 20.8143 5.24664 20.6502 5.24664 20.4393V16.7119L4.71919 16.6416C4.29723 16.5713 4.05108 16.3251 3.98075 15.9032L3.91043 15.3405C3.88698 15.2468 3.85182 15.1765 3.80494 15.1296L3.31265 14.7779C3.0079 14.4966 2.92585 14.1684 3.0665 13.7934L3.27748 13.2307C3.30093 13.1604 3.30093 13.0901 3.27748 13.0198L3.0665 12.4571C2.92585 12.0821 3.0079 11.7539 3.31265 11.4726L3.80494 11.1209C3.85182 11.074 3.88698 11.0037 3.91043 10.91L3.98075 10.3473C4.05108 9.92537 4.2855 9.67923 4.68402 9.6089L5.2818 9.53858C5.37557 9.51513 5.4459 9.47997 5.49278 9.43309L5.84442 8.9408C6.10228 8.63605 6.43048 8.554 6.829 8.69465ZM9.74756 13.1252C9.72412 12.2813 9.34904 11.6367 8.62233 11.1913C7.87218 10.7693 7.12202 10.7693 6.37187 11.1913C5.64516 11.6367 5.27008 12.2813 5.24664 13.1252C5.27008 13.9692 5.64516 14.6138 6.37187 15.0592C7.12202 15.4812 7.87218 15.4812 8.62233 15.0592C9.34904 14.6138 9.72412 13.9692 9.74756 13.1252Z"/></svg>