<svg width="24" height="24" viewBox="0 0 24 24" xmlns="http://www.w3.org/2000/svg" fill="#cacaca"><path d="M7.96247 13.6797C8.47656 13.6193 8.94536 13.9604 9.05524 14.4551L9.07282 14.5566L9.16364 15.2061C9.37397 16.4999 9.75429 17.7605 10.2945 18.9561L10.5777 19.5488L10.6187 19.6426C10.8005 20.1156 10.5982 20.6589 10.1363 20.8926C9.67423 21.1261 9.11649 20.967 8.84333 20.54L8.79255 20.4512L8.62848 20.1172C7.87863 18.5503 7.37413 16.8783 7.13337 15.1592L7.08649 14.79L7.07965 14.6875C7.07176 14.1809 7.44836 13.7402 7.96247 13.6797ZM10.648 11.1221C10.648 10.5698 11.0958 10.1221 11.648 10.1221C12.2003 10.1221 12.648 10.5698 12.648 11.1221V12.8984C12.6456 15.086 13.2745 17.2256 14.4556 19.0645L14.6988 19.4277L14.7525 19.5147C14.9992 19.9575 14.8754 20.524 14.4507 20.8203C14.0263 21.1164 13.4522 21.0372 13.1216 20.6533L13.0582 20.5723L12.772 20.1445C11.3844 17.9838 10.6452 15.4688 10.648 12.8965V11.1221ZM11.6422 3C12.9822 2.9991 14.301 3.32771 15.481 3.95508L15.7154 4.08496L15.8013 4.13965C16.2131 4.43525 16.3415 5.00125 16.0836 5.4502C15.8255 5.89869 15.2726 6.07184 14.8101 5.86524L14.7183 5.81836L14.3629 5.62891C13.5191 5.21519 12.5888 4.9994 11.6441 5C10.5643 5.00073 9.50367 5.28509 8.56989 5.82324C7.63648 6.36127 6.8626 7.13402 6.32575 8.06348C5.78883 8.99325 5.50738 10.0475 5.51032 11.1191V12.043C5.44375 14.0359 5.70096 16.027 6.27204 17.9385C6.42982 18.4675 6.1282 19.0246 5.59919 19.1826C5.07016 19.3404 4.51311 19.0397 4.35505 18.5107C3.72528 16.4028 3.4405 14.2078 3.51032 12.0098V11.1221C3.50686 9.69783 3.88054 8.2978 4.59333 7.06348C5.30652 5.82853 6.33437 4.80302 7.57184 4.08985C8.80915 3.37685 10.213 3.00103 11.6422 3ZM14.2174 12.0098V11.1221C14.2174 10.447 13.9476 9.79817 13.4664 9.31934C13.0453 8.90036 12.492 8.64129 11.9029 8.58301L11.648 8.57031C10.9652 8.57035 10.311 8.84037 9.82966 9.31934C9.34845 9.79817 9.07966 10.447 9.07966 11.1221C9.07956 11.6742 8.63172 12.1219 8.07966 12.1221C7.52743 12.1221 7.07975 11.6743 7.07965 11.1221C7.07965 9.91344 7.56218 8.75548 8.4195 7.90235C9.27667 7.0494 10.4379 6.57035 11.648 6.57031L11.8746 6.57617C13.0024 6.63188 14.0739 7.10272 14.8775 7.90235C15.7346 8.75545 16.2174 9.91361 16.2174 11.1221V12.0098C16.2174 13.6067 16.705 15.1636 17.6129 16.4756L17.8004 16.7344L17.857 16.8193C18.1198 17.2529 18.0166 17.8231 17.6031 18.1348C17.1895 18.4465 16.6125 18.3888 16.2681 18.0166L16.2027 17.9385L15.9683 17.6133C14.8299 15.9681 14.2174 14.0146 14.2174 12.0098ZM17.2867 6.71485C17.7295 6.447 18.2972 6.56325 18.6021 6.96778L18.6597 7.05274L18.8267 7.34082C19.6172 8.77639 19.952 10.4193 19.7857 12.0527V12.8984C19.7849 13.6568 19.9843 14.4028 20.3648 15.0605C20.6413 15.5386 20.4785 16.1502 20.0006 16.4268C19.5225 16.7033 18.9109 16.5396 18.6343 16.0615C18.0776 15.0991 17.7845 14.0076 17.7857 12.8965V12.0098C17.7857 11.9733 17.7876 11.9367 17.7916 11.9004L17.814 11.6514C17.8938 10.489 17.6368 9.32799 17.0738 8.30567L16.9488 8.08887L16.9 7.99805C16.683 7.54027 16.8439 6.98292 17.2867 6.71485Z"/></svg>