<svg width="24" height="24" viewBox="0 0 24 24" xmlns="http://www.w3.org/2000/svg" fill="#cacaca"><path d="M10.6641 4.05469L11.2266 3.31641C11.3672 3.10547 11.5664 3 11.8242 3C12.2695 3.04688 12.5156 3.29297 12.5625 3.73828V4.54688C12.5625 5.01562 12.7383 5.41406 13.0898 5.74219L16.0781 8.58984C16.9219 9.41016 17.5781 10.3711 18.0469 11.4727C18.5156 12.5508 18.75 13.6875 18.75 14.8828C18.7031 16.6172 18.1055 18.0586 16.957 19.207C15.8086 20.3555 14.3672 20.9531 12.6328 21H12C10.0781 20.9531 8.48438 20.2969 7.21875 19.0312C5.95312 17.7656 5.29688 16.1719 5.25 14.25V14.1094C5.27344 12.3281 5.90625 10.8047 7.14844 9.53906L7.25391 9.43359C7.41797 9.26953 7.60547 9.1875 7.81641 9.1875C8.30859 9.23438 8.57812 9.50391 8.625 9.99609V13.125C8.64844 13.7578 8.87109 14.2852 9.29297 14.707C9.71484 15.1289 10.2422 15.3516 10.875 15.375C11.5078 15.3516 12.0352 15.1289 12.457 14.707C12.8789 14.2852 13.1016 13.7578 13.125 13.125V12.9844C13.125 12.3281 12.8906 11.7656 12.4219 11.2969L11.0859 9.96094C10.2188 9.07031 9.77344 8.00391 9.75 6.76172C9.75 5.75391 10.0547 4.85156 10.6641 4.05469Z"/></svg>