<svg width="24" height="24" viewBox="0 0 24 24" xmlns="http://www.w3.org/2000/svg" fill="#cacaca"><path d="M9.71603 3.18486C10.044 2.92718 10.3719 2.93889 10.6999 3.22C11.6603 4.11017 12.5739 5.09404 13.4407 6.17162C13.8155 5.63283 14.2489 5.12918 14.7408 4.66067C15.0688 4.37956 15.3967 4.37956 15.7247 4.66067C16.3337 5.24631 16.8842 5.90222 17.3762 6.62842C17.8915 7.33118 18.3249 8.05738 18.6763 8.80699C19.0511 9.53319 19.3439 10.236 19.5548 10.9153C19.7656 11.5946 19.871 12.2037 19.871 12.7425C19.8476 14.2417 19.4962 15.6121 18.8169 16.8537C18.1141 18.0952 17.1654 19.0908 15.9707 19.8404C14.7994 20.5901 13.4758 20.9766 12 21C10.5242 20.9766 9.18895 20.5901 7.99425 19.8404C6.82297 19.0908 5.88595 18.0952 5.18318 16.8537C4.50384 15.6121 4.15245 14.2417 4.12903 12.7425C4.17588 11.337 4.70295 9.79087 5.71025 8.10423C6.71755 6.39416 8.05281 4.75437 9.71603 3.18486ZM12.0703 17.6267C12.937 17.6267 13.7452 17.3807 14.4948 16.8888C15.221 16.35 15.6778 15.6355 15.8652 14.7454C16.0292 13.8786 15.9004 13.0236 15.4787 12.1803C15.2445 11.8523 14.9751 11.8289 14.6705 12.11L13.7921 13.129C13.4875 13.3867 13.1947 13.375 12.9136 13.0939C12.6091 12.7191 12.246 12.2623 11.8243 11.7235C11.4027 11.1847 11.0279 10.7162 10.6999 10.3179C10.4188 10.0368 10.1377 10.0251 9.85658 10.2828C9.24751 11.0324 8.80243 11.6766 8.52132 12.2154C8.21679 12.7542 8.06452 13.2813 8.06452 13.7966C8.08795 15.0148 8.47447 15.9518 9.22409 16.6077C9.97371 17.287 10.9224 17.6267 12.0703 17.6267Z"/></svg>