<svg width="24" height="24" viewBox="0 0 24 24" xmlns="http://www.w3.org/2000/svg" fill="#cacaca"><path d="M17.6562 12.0312C17.8854 12.6771 18 13.3542 18 14.0625C17.9583 15.7292 17.3646 17.125 16.2188 18.25C15.0938 19.375 13.6875 19.9583 12 20C10.3125 19.9583 8.90625 19.375 7.78125 18.25C6.63542 17.125 6.04167 15.7292 6 14.0625C6 13.3542 6.125 12.6771 6.375 12.0312V11.9688C7.45833 8.98958 9.15625 6.42708 11.4688 4.28125L11.5625 4.1875C11.6875 4.0625 11.8333 4 12 4C12.1667 4 12.3125 4.0625 12.4375 4.1875L12.5312 4.28125C14.8438 6.42708 16.5417 8.98958 17.625 11.9688L17.6562 12.0312ZM14.8125 13.5625L14.75 13.4375C14.25 12.3125 13.5625 11.3229 12.6875 10.4688L12.4062 10.1875C12.3021 10.0625 12.1667 10 12 10C11.8333 10 11.6875 10.0625 11.5625 10.1875L11.2812 10.4688C10.4271 11.3229 9.75 12.3125 9.25 13.4375L9.1875 13.5625C9.0625 13.8542 9 14.1667 9 14.5C9.02083 15.3333 9.3125 16.0417 9.875 16.625C10.4375 17.1875 11.1458 17.4792 12 17.5C12.8542 17.4792 13.5625 17.1875 14.125 16.625C14.6875 16.0417 14.9792 15.3333 15 14.5C15 14.1667 14.9375 13.8542 14.8125 13.5625Z"/></svg>