<svg width="24" height="24" viewBox="0 0 24 24" xmlns="http://www.w3.org/2000/svg" fill="#cacaca"><path d="M5.57143 3H15.3348C16.0312 3 16.6339 3.25446 17.1429 3.76339L20.2366 6.85714C20.7455 7.36607 21 7.96875 21 8.66518V18.4286C20.9732 19.1518 20.7188 19.7545 20.2366 20.2366C19.7545 20.7188 19.1518 20.9732 18.4286 21H5.57143C4.84821 20.9732 4.24554 20.7188 3.76339 20.2366C3.28125 19.7545 3.02679 19.1518 3 18.4286V5.57143C3.02679 4.84821 3.28125 4.24554 3.76339 3.76339C4.24554 3.28125 4.84821 3.02679 5.57143 3ZM5.57143 6.85714V9.42857C5.57143 9.80357 5.69196 10.1116 5.93304 10.3527C6.17411 10.5938 6.48214 10.7143 6.85714 10.7143H14.5714C14.9464 10.7143 15.2545 10.5938 15.4955 10.3527C15.7366 10.1116 15.8571 9.80357 15.8571 9.42857V6.85714C15.8571 6.48214 15.7366 6.17411 15.4955 5.93304C15.2545 5.69196 14.9464 5.57143 14.5714 5.57143H6.85714C6.48214 5.57143 6.17411 5.69196 5.93304 5.93304C5.69196 6.17411 5.57143 6.48214 5.57143 6.85714ZM12 13.2857C11.0357 13.3125 10.2991 13.7411 9.79018 14.5714C9.30804 15.4286 9.30804 16.2857 9.79018 17.1429C10.2991 17.9732 11.0357 18.4018 12 18.4286C12.9643 18.4018 13.7009 17.9732 14.2098 17.1429C14.692 16.2857 14.692 15.4286 14.2098 14.5714C13.7009 13.7411 12.9643 13.3125 12 13.2857Z"/></svg>