<svg width="24" height="24" viewBox="0 0 24 24" xmlns="http://www.w3.org/2000/svg" fill="#cacaca"><path d="M5.25 19.875C4.61719 19.8516 4.08984 19.6289 3.66797 19.207C3.24609 18.7852 3.02344 18.2578 3 17.625V6.375C3.02344 5.74219 3.24609 5.21484 3.66797 4.79297C4.08984 4.37109 4.61719 4.14844 5.25 4.125H9.75C10.5 4.14844 11.0977 4.45313 11.543 5.03906L12.2109 5.91797C12.4453 6.22266 12.75 6.375 13.125 6.375H18.75C19.3828 6.39844 19.9102 6.62109 20.332 7.04297C20.7539 7.46484 20.9766 7.99219 21 8.625V17.625C20.9766 18.2578 20.7539 18.7852 20.332 19.207C19.9102 19.6289 19.3828 19.8516 18.75 19.875H5.25Z"/></svg>