<svg width="24" height="24" viewBox="0 0 24 24" xmlns="http://www.w3.org/2000/svg" fill="#cacaca"><path d="M8.43739 5.65625L12.9374 17.6562C13.0207 17.9271 13.0103 18.1771 12.9061 18.4062C12.802 18.6562 12.6145 18.8333 12.3436 18.9375C12.0728 19.0208 11.8228 19.0104 11.5936 18.9062C11.3436 18.8021 11.1666 18.6146 11.0624 18.3438L9.99989 15.5H4.99989L3.93739 18.3438C3.83322 18.6146 3.65614 18.8021 3.40614 18.9062C3.17697 19.0104 2.92697 19.0208 2.65614 18.9375C2.38531 18.8333 2.19781 18.6562 2.09364 18.4062C1.98947 18.1771 1.97906 17.9271 2.06239 17.6562L6.56239 5.65625C6.74989 5.23958 7.06239 5.02083 7.49989 5C7.93739 5.02083 8.24989 5.23958 8.43739 5.65625ZM9.24989 13.5L7.49989 8.84375L5.74989 13.5H9.24989ZM20.9999 9C21.2916 9 21.5311 9.09375 21.7186 9.28125C21.9061 9.46875 21.9999 9.70833 21.9999 10V18C21.9999 18.2917 21.9061 18.5312 21.7186 18.7188C21.5311 18.9062 21.2916 19 20.9999 19C20.5624 18.9792 20.2603 18.7812 20.0936 18.4062C19.4686 18.8021 18.7707 19 17.9999 19C16.8749 18.9792 15.927 18.5938 15.1561 17.8438C14.4061 17.0729 14.0207 16.125 13.9999 15V13C14.0207 11.875 14.4061 10.9271 15.1561 10.1562C15.927 9.40625 16.8749 9.02083 17.9999 9C18.7707 9 19.4686 9.19792 20.0936 9.59375C20.2603 9.21875 20.5624 9.02083 20.9999 9ZM19.9999 13C19.9791 12.4375 19.7811 11.9688 19.4061 11.5938C19.0311 11.2188 18.5624 11.0208 17.9999 11C17.4374 11.0208 16.9686 11.2188 16.5936 11.5938C16.2186 11.9688 16.0207 12.4375 15.9999 13V15C16.0207 15.5625 16.2186 16.0312 16.5936 16.4062C16.9686 16.7812 17.4374 16.9792 17.9999 17C18.5624 16.9792 19.0311 16.7812 19.4061 16.4062C19.7811 16.0312 19.9791 15.5625 19.9999 15V13Z"/></svg>