<svg width="24" height="24" viewBox="0 0 24 24" xmlns="http://www.w3.org/2000/svg" fill="#cacaca"><path d="M3.63281 18.8835C3.23438 18.6649 3.02344 18.3129 3 17.8273V6.17274C3.02344 5.68713 3.23438 5.33507 3.63281 5.11655C4.07812 4.9223 4.48828 4.97086 4.86328 5.26223L10.875 10.4703V6.17274C10.8984 5.68713 11.1094 5.33507 11.5078 5.11655C11.9531 4.9223 12.3633 4.97086 12.7383 5.26223L18.75 10.4703V6.17274C18.75 5.83281 18.8555 5.55359 19.0664 5.33507C19.2773 5.11655 19.5469 5.00728 19.875 5.00728C20.2031 5.00728 20.4727 5.11655 20.6836 5.33507C20.8945 5.55359 21 5.83281 21 6.17274V17.8273C21 18.1672 20.8945 18.4464 20.6836 18.6649C20.4727 18.8835 20.2031 18.9927 19.875 18.9927C19.5469 18.9927 19.2773 18.8835 19.0664 18.6649C18.8555 18.4464 18.75 18.1672 18.75 17.8273V13.5297L12.7383 18.7378C12.3633 19.0291 11.9531 19.0777 11.5078 18.8835C11.1094 18.6649 10.8984 18.3129 10.875 17.8273V13.5297L4.86328 18.7378C4.48828 19.0291 4.07812 19.0777 3.63281 18.8835Z"/></svg>