<svg width="24" height="24" viewBox="0 0 24 24" xmlns="http://www.w3.org/2000/svg" fill="#cacaca"><path d="M8.65625 17.7813C8.32292 18.0313 7.95833 18.0729 7.5625 17.9063C7.20833 17.7188 7.02083 17.4167 7 17V7.00002C7.02083 6.58336 7.20833 6.28127 7.5625 6.09377C7.95833 5.92711 8.32292 5.96877 8.65625 6.21877L14.6562 11.2188L15 11.5313V7.00002C15 6.70836 15.0938 6.46877 15.2812 6.28127C15.4688 6.09377 15.7083 6.00002 16 6.00002C16.2917 6.00002 16.5312 6.09377 16.7188 6.28127C16.9062 6.46877 17 6.70836 17 7.00002V17C17 17.2917 16.9062 17.5313 16.7188 17.7188C16.5312 17.9063 16.2917 18 16 18C15.7083 18 15.4688 17.9063 15.2812 17.7188C15.0938 17.5313 15 17.2917 15 17V12.4688L14.6562 12.7813L8.65625 17.7813Z"/></svg>