<svg width="24" height="24" viewBox="0 0 24 24" xmlns="http://www.w3.org/2000/svg" fill="#cacaca"><path d="M4.28571 3H8.14286C8.51786 3 8.82589 3.12054 9.06696 3.36161C9.30804 3.60268 9.42857 3.91071 9.42857 4.28571C9.42857 4.66071 9.30804 4.96875 9.06696 5.20982C8.82589 5.45089 8.51786 5.57143 8.14286 5.57143H5.57143V8.14286C5.57143 8.51786 5.45089 8.82589 5.20982 9.06696C4.96875 9.30804 4.66071 9.42857 4.28571 9.42857C3.91071 9.42857 3.60268 9.30804 3.36161 9.06696C3.12054 8.82589 3 8.51786 3 8.14286V4.28571C3 3.91071 3.12054 3.60268 3.36161 3.36161C3.60268 3.12054 3.91071 3 4.28571 3ZM5.57143 15.8571V18.4286H8.14286C8.51786 18.4286 8.82589 18.5491 9.06696 18.7902C9.30804 19.0312 9.42857 19.3393 9.42857 19.7143C9.42857 20.0893 9.30804 20.3973 9.06696 20.6384C8.82589 20.8795 8.51786 21 8.14286 21H4.28571C3.91071 21 3.60268 20.8795 3.36161 20.6384C3.12054 20.3973 3 20.0893 3 19.7143V15.8571C3 15.4821 3.12054 15.1741 3.36161 14.933C3.60268 14.692 3.91071 14.5714 4.28571 14.5714C4.66071 14.5714 4.96875 14.692 5.20982 14.933C5.45089 15.1741 5.57143 15.4821 5.57143 15.8571ZM15.8571 3H19.7143C20.0893 3 20.3973 3.12054 20.6384 3.36161C20.8795 3.60268 21 3.91071 21 4.28571V8.14286C21 8.51786 20.8795 8.82589 20.6384 9.06696C20.3973 9.30804 20.0893 9.42857 19.7143 9.42857C19.3393 9.42857 19.0312 9.30804 18.7902 9.06696C18.5491 8.82589 18.4286 8.51786 18.4286 8.14286V5.57143H15.8571C15.4821 5.57143 15.1741 5.45089 14.933 5.20982C14.692 4.96875 14.5714 4.66071 14.5714 4.28571C14.5714 3.91071 14.692 3.60268 14.933 3.36161C15.1741 3.12054 15.4821 3 15.8571 3ZM21 15.8571V19.7143C21 20.0893 20.8795 20.3973 20.6384 20.6384C20.3973 20.8795 20.0893 21 19.7143 21H15.8571C15.4821 21 15.1741 20.8795 14.933 20.6384C14.692 20.3973 14.5714 20.0893 14.5714 19.7143C14.5714 19.3393 14.692 19.0312 14.933 18.7902C15.1741 18.5491 15.4821 18.4286 15.8571 18.4286H18.4286V15.8571C18.4286 15.4821 18.5491 15.1741 18.7902 14.933C19.0312 14.692 19.3393 14.5714 19.7143 14.5714C20.0893 14.5714 20.3973 14.692 20.6384 14.933C20.8795 15.1741 21 15.4821 21 15.8571Z"/></svg>