<svg width="24" height="24" viewBox="0 0 24 24" xmlns="http://www.w3.org/2000/svg" fill="#cacaca"><path d="M19 6H5V13H19V6ZM5 4H19C19.5625 4.02083 20.0312 4.21875 20.4062 4.59375C20.7812 4.96875 20.9792 5.4375 21 6V13C20.9792 13.5625 20.7812 14.0312 20.4062 14.4062C20.0312 14.7812 19.5625 14.9792 19 15H5C4.4375 14.9792 3.96875 14.7812 3.59375 14.4062C3.21875 14.0312 3.02083 13.5625 3 13V6C3.02083 5.4375 3.21875 4.96875 3.59375 4.59375C3.96875 4.21875 4.4375 4.02083 5 4ZM3 18C3 17.7083 3.09375 17.4688 3.28125 17.2812C3.46875 17.0938 3.70833 17 4 17H5C5.29167 17 5.53125 17.0938 5.71875 17.2812C5.90625 17.4688 6 17.7083 6 18V19C6 19.2917 5.90625 19.5312 5.71875 19.7188C5.53125 19.9062 5.29167 20 5 20H4C3.70833 20 3.46875 19.9062 3.28125 19.7188C3.09375 19.5312 3 19.2917 3 19V18ZM9 17H10C10.2917 17 10.5312 17.0938 10.7188 17.2812C10.9062 17.4688 11 17.7083 11 18V19C11 19.2917 10.9062 19.5312 10.7188 19.7188C10.5312 19.9062 10.2917 20 10 20H9C8.70833 20 8.46875 19.9062 8.28125 19.7188C8.09375 19.5312 8 19.2917 8 19V18C8 17.7083 8.09375 17.4688 8.28125 17.2812C8.46875 17.0938 8.70833 17 9 17ZM13 18C13 17.7083 13.0938 17.4688 13.2812 17.2812C13.4688 17.0938 13.7083 17 14 17H15C15.2917 17 15.5312 17.0938 15.7188 17.2812C15.9062 17.4688 16 17.7083 16 18V19C16 19.2917 15.9062 19.5312 15.7188 19.7188C15.5312 19.9062 15.2917 20 15 20H14C13.7083 20 13.4688 19.9062 13.2812 19.7188C13.0938 19.5312 13 19.2917 13 19V18ZM19 17H20C20.2917 17 20.5312 17.0938 20.7188 17.2812C20.9062 17.4688 21 17.7083 21 18V19C21 19.2917 20.9062 19.5312 20.7188 19.7188C20.5312 19.9062 20.2917 20 20 20H19C18.7083 20 18.4688 19.9062 18.2812 19.7188C18.0938 19.5312 18 19.2917 18 19V18C18 17.7083 18.0938 17.4688 18.2812 17.2812C18.4688 17.0938 18.7083 17 19 17Z"/></svg>