<svg width="24" height="24" viewBox="0 0 24 24" xmlns="http://www.w3.org/2000/svg" fill="#cacaca"><path d="M3 12C3.02344 10.3594 3.42188 8.85938 4.19531 7.5C4.99219 6.14062 6.09375 5.03906 7.5 4.19531C8.92969 3.39844 10.4297 3 12 3C13.5703 3 15.0703 3.39844 16.5 4.19531C17.9062 5.03906 19.0078 6.14062 19.8047 7.5C20.5781 8.85938 20.9766 10.3594 21 12C20.9766 13.6406 20.5781 15.1406 19.8047 16.5C19.0078 17.8594 17.9062 18.9609 16.5 19.8047C15.0703 20.6016 13.5703 21 12 21C10.4297 21 8.92969 20.6016 7.5 19.8047C6.09375 18.9609 4.99219 17.8594 4.19531 16.5C3.42188 15.1406 3.02344 13.6406 3 12ZM14.25 15.375C14.2266 14.8125 14.0508 14.3203 13.7227 13.8984L16.3945 8.73047C16.6055 8.26172 16.4883 7.88672 16.043 7.60547C15.5742 7.39453 15.1992 7.51172 14.918 7.95703L12.2109 13.125C12.1406 13.125 12.0703 13.125 12 13.125C11.3672 13.1484 10.8398 13.3711 10.418 13.793C9.99609 14.2148 9.77344 14.7422 9.75 15.375C9.77344 16.0078 9.99609 16.5352 10.418 16.957C10.8398 17.3789 11.3672 17.6016 12 17.625C12.6328 17.6016 13.1602 17.3789 13.582 16.957C14.0039 16.5352 14.2266 16.0078 14.25 15.375Z"/></svg>