<svg width="24" height="24" viewBox="0 0 24 24" xmlns="http://www.w3.org/2000/svg" fill="#cacaca"><path d="M3 12C3.02344 10.3594 3.42188 8.85938 4.19531 7.5C4.99219 6.14062 6.09375 5.03906 7.5 4.19531C8.92969 3.39844 10.4297 3 12 3C13.5703 3 15.0703 3.39844 16.5 4.19531C17.9062 5.03906 19.0078 6.14062 19.8047 7.5C20.5781 8.85938 20.9766 10.3594 21 12C20.9766 13.6406 20.5781 15.1406 19.8047 16.5C19.0078 17.8594 17.9062 18.9609 16.5 19.8047C15.0703 20.6016 13.5703 21 12 21C10.4297 21 8.92969 20.6016 7.5 19.8047C6.09375 18.9609 4.99219 17.8594 4.19531 16.5C3.42188 15.1406 3.02344 13.6406 3 12ZM13.125 6.375C13.125 6.04688 13.0195 5.77734 12.8086 5.56641C12.5977 5.35547 12.3281 5.25 12 5.25C11.6719 5.25 11.4023 5.35547 11.1914 5.56641C10.9805 5.77734 10.875 6.04688 10.875 6.375C10.875 6.70312 10.9805 6.97266 11.1914 7.18359C11.4023 7.39453 11.6719 7.5 12 7.5C12.3281 7.5 12.5977 7.39453 12.8086 7.18359C13.0195 6.97266 13.125 6.70312 13.125 6.375ZM12 17.625C12.6328 17.6016 13.1602 17.3789 13.582 16.957C14.0039 16.5352 14.2266 16.0078 14.25 15.375C14.2266 14.7422 14.0156 14.2148 13.6172 13.793L15.8672 8.69531C16.0312 8.20312 15.8906 7.82812 15.4453 7.57031C14.9531 7.40625 14.5781 7.54688 14.3203 7.99219L12.0703 13.125C12.0469 13.125 12.0352 13.125 12.0352 13.125C12.0117 13.125 12 13.125 12 13.125C11.3672 13.1484 10.8398 13.3711 10.418 13.793C9.99609 14.2148 9.77344 14.7422 9.75 15.375C9.77344 16.0078 9.99609 16.5352 10.418 16.957C10.8398 17.3789 11.3672 17.6016 12 17.625ZM9.1875 8.0625C9.1875 7.73438 9.08203 7.46484 8.87109 7.25391C8.66016 7.04297 8.39062 6.9375 8.0625 6.9375C7.73438 6.9375 7.46484 7.04297 7.25391 7.25391C7.04297 7.46484 6.9375 7.73438 6.9375 8.0625C6.9375 8.39062 7.04297 8.66016 7.25391 8.87109C7.46484 9.08203 7.73438 9.1875 8.0625 9.1875C8.39062 9.1875 8.66016 9.08203 8.87109 8.87109C9.08203 8.66016 9.1875 8.39062 9.1875 8.0625ZM6.375 13.125C6.70312 13.125 6.97266 13.0195 7.18359 12.8086C7.39453 12.5977 7.5 12.3281 7.5 12C7.5 11.6719 7.39453 11.4023 7.18359 11.1914C6.97266 10.9805 6.70312 10.875 6.375 10.875C6.04688 10.875 5.77734 10.9805 5.56641 11.1914C5.35547 11.4023 5.25 11.6719 5.25 12C5.25 12.3281 5.35547 12.5977 5.56641 12.8086C5.77734 13.0195 6.04688 13.125 6.375 13.125ZM18.75 12C18.75 11.6719 18.6445 11.4023 18.4336 11.1914C18.2227 10.9805 17.9531 10.875 17.625 10.875C17.2969 10.875 17.0273 10.9805 16.8164 11.1914C16.6055 11.4023 16.5 11.6719 16.5 12C16.5 12.3281 16.6055 12.5977 16.8164 12.8086C17.0273 13.0195 17.2969 13.125 17.625 13.125C17.9531 13.125 18.2227 13.0195 18.4336 12.8086C18.6445 12.5977 18.75 12.3281 18.75 12Z"/></svg>