<svg width="24" height="24" viewBox="0 0 24 24" xmlns="http://www.w3.org/2000/svg" fill="#cacaca"><path d="M20.9597 8.87109C21.0537 9.19922 20.9832 9.48047 20.7482 9.71484L19.1973 11.1211C19.2443 11.4023 19.2678 11.6953 19.2678 12C19.2678 12.3047 19.2443 12.5977 19.1973 12.8789L20.7482 14.2852C20.9832 14.5195 21.0537 14.8008 20.9597 15.1289C20.7952 15.5508 20.6072 15.9609 20.3957 16.3594L20.2195 16.6406C19.9845 17.0156 19.726 17.3789 19.444 17.7305C19.209 17.9883 18.927 18.0703 18.598 17.9766L16.6241 17.3438C16.1541 17.7188 15.6371 18.0117 15.0732 18.2227L14.6502 20.2617C14.5562 20.5898 14.3329 20.7891 13.9805 20.8594C13.5105 20.9531 13.017 21 12.5 21C11.983 21 11.4778 20.9531 10.9843 20.8594C10.6553 20.7891 10.4438 20.5898 10.3498 20.2617L9.92684 18.2227C9.36286 18.0117 8.84587 17.7188 8.37589 17.3438L6.40196 17.9766C6.07297 18.0703 5.79098 17.9883 5.55598 17.7305C5.25049 17.3789 4.992 17.0156 4.78051 16.6406L4.60427 16.3594C4.39277 15.9609 4.20478 15.5625 4.04028 15.1641C3.94629 14.8125 4.01679 14.5195 4.25178 14.2852L5.80273 12.9141C5.75573 12.6094 5.73223 12.3047 5.73223 12C5.73223 11.6953 5.75573 11.4023 5.80273 11.1211L4.25178 9.71484C4.01679 9.48047 3.94629 9.19922 4.04028 8.87109C4.20478 8.44922 4.39277 8.03906 4.60427 7.64062L4.78051 7.35938C4.992 6.98438 5.25049 6.62109 5.55598 6.26953C5.79098 6.01172 6.07297 5.92969 6.40196 6.02344L8.37589 6.65625C8.84587 6.28125 9.36286 5.97656 9.92684 5.74219L10.3498 3.73828C10.4438 3.41016 10.6671 3.21094 11.0195 3.14062C11.4895 3.04687 11.983 3 12.5 3C13.017 3 13.5222 3.04687 14.0157 3.14062C14.3447 3.21094 14.5562 3.41016 14.6502 3.73828L15.0732 5.74219C15.6371 5.97656 16.1541 6.28125 16.6241 6.65625L18.598 6.02344C18.927 5.92969 19.209 6.01172 19.444 6.26953C19.7495 6.62109 20.0197 6.98438 20.2547 7.35938L20.3957 7.64062C20.6072 8.03906 20.7952 8.44922 20.9597 8.87109ZM13.628 8.73047C13.6515 8.37891 13.4987 8.15625 13.1697 8.0625C12.8172 8.03906 12.594 8.20312 12.5 8.55469L11.372 15.3047C11.3485 15.6328 11.5013 15.8438 11.8303 15.9375C12.1828 15.9609 12.406 15.8086 12.5 15.4805L13.628 8.73047ZM10.0678 10.9805C10.3028 10.7227 10.3028 10.4648 10.0678 10.207C9.80934 9.97266 9.55085 9.97266 9.29236 10.207L7.88241 11.6133C7.64741 11.8711 7.64741 12.1289 7.88241 12.3867L9.29236 13.793C9.55085 14.0273 9.80934 14.0273 10.0678 13.793C10.3028 13.5352 10.3028 13.2773 10.0678 13.0195L9.08086 12L10.0678 10.9805ZM15.7076 10.207C15.4492 9.97266 15.1907 9.97266 14.9322 10.207C14.6972 10.4648 14.6972 10.7227 14.9322 10.9805L15.9191 12L14.9322 13.0195C14.6972 13.2773 14.6972 13.5352 14.9322 13.793C15.1907 14.0273 15.4492 14.0273 15.7076 13.793L17.1176 12.3867C17.3526 12.1289 17.3526 11.8711 17.1176 11.6133L15.7076 10.207Z"/></svg>