<svg width="24" height="24" viewBox="0 0 24 24" xmlns="http://www.w3.org/2000/svg" fill="#cacaca"><path d="M12 2C12.4822 2 12.9452 2.19223 13.2861 2.5332C13.6267 2.87407 13.8183 3.3365 13.8184 3.81836V3.90039C13.8196 4.19274 13.906 4.4789 14.0674 4.72266C14.2288 4.9662 14.4581 5.15724 14.7266 5.27246C14.9664 5.37831 15.2298 5.4188 15.4893 5.3916L15.6006 5.37695C15.8586 5.33013 16.0992 5.21588 16.2988 5.04785L16.3818 4.97266L16.4365 4.91797C16.6052 4.74926 16.806 4.61485 17.0264 4.52344C17.2469 4.43206 17.4839 4.38478 17.7227 4.38477C17.9614 4.38477 18.1983 4.43206 18.4189 4.52344C18.6395 4.61493 18.841 4.74901 19.0098 4.91797L19.1289 5.0498C19.2423 5.18774 19.3347 5.34231 19.4033 5.50781C19.4948 5.72854 19.542 5.96614 19.542 6.20508L19.5332 6.38281C19.5157 6.56059 19.472 6.73575 19.4033 6.90137L19.3271 7.06152C19.243 7.21887 19.1364 7.36362 19.0098 7.49023L18.9541 7.54492C18.7448 7.7591 18.6042 8.03247 18.5508 8.32715C18.4974 8.62177 18.5335 8.92624 18.6543 9.2002V9.27344C18.7696 9.5421 18.9613 9.7712 19.2051 9.93262C19.3879 10.0536 19.5945 10.1326 19.8096 10.165L20.0273 10.1816H20.1816C20.6635 10.1817 21.1259 10.3733 21.4668 10.7139C21.8078 11.0548 22 11.5178 22 12L21.9912 12.1797C21.9498 12.5958 21.7651 12.9879 21.4668 13.2861L21.334 13.4062C21.0567 13.6334 20.718 13.7732 20.3613 13.8086L20.1816 13.8184H20.0996C19.8073 13.8196 19.5211 13.906 19.2773 14.0674C19.0338 14.2288 18.8428 14.4581 18.7275 14.7266L18.6865 14.8311C18.5992 15.077 18.5763 15.3425 18.623 15.6006C18.6765 15.8952 18.818 16.1677 19.0273 16.3818L19.082 16.4365C19.2507 16.6052 19.3852 16.806 19.4766 17.0264C19.5679 17.2469 19.6152 17.4839 19.6152 17.7227C19.6152 17.9614 19.5679 18.1983 19.4766 18.4189L19.4004 18.5811C19.3162 18.7384 19.2088 18.8832 19.082 19.0098C18.9134 19.1786 18.7126 19.3119 18.4922 19.4033L18.3242 19.4639C18.1533 19.5158 17.9742 19.542 17.7949 19.542C17.5562 19.5419 17.3192 19.4948 17.0986 19.4033C16.8785 19.3119 16.6783 19.1783 16.5098 19.0098L16.4541 18.9541C16.2399 18.7448 15.9676 18.6042 15.6729 18.5508C15.3782 18.4974 15.0738 18.5335 14.7998 18.6543L14.6064 18.7549C14.4209 18.8688 14.2608 19.0221 14.1396 19.2051C13.9806 19.4453 13.8952 19.7268 13.8916 20.0146V20.1816L13.8818 20.3613C13.8405 20.7774 13.6565 21.1685 13.3584 21.4668L13.2246 21.5889C12.9012 21.8537 12.494 22 12.0723 22L11.8926 21.9912C11.4765 21.9498 11.0854 21.765 10.7871 21.4668C10.4464 21.1259 10.254 20.6636 10.2539 20.1816V20.0996C10.2468 19.799 10.1504 19.5073 9.97559 19.2627C9.82226 19.0483 9.61468 18.8782 9.37598 18.7695L9.27344 18.7275C8.99934 18.6066 8.69422 18.5697 8.39941 18.623C8.10477 18.6765 7.8323 18.818 7.61816 19.0273L7.56348 19.0811C7.39484 19.2498 7.19396 19.3852 6.97363 19.4766L6.80469 19.5371C6.63403 19.5888 6.45632 19.6152 6.27734 19.6152L6.09863 19.6064C5.92124 19.5889 5.74634 19.545 5.58105 19.4766C5.36048 19.3851 5.159 19.251 4.99023 19.082C4.8636 18.9555 4.75703 18.8106 4.67285 18.6533L4.59668 18.4922C4.50518 18.2715 4.45801 18.0339 4.45801 17.7949C4.45808 17.5562 4.50525 17.3192 4.59668 17.0986C4.66526 16.9334 4.75796 16.7794 4.87109 16.6416L4.99023 16.5098L5.0459 16.4541C5.23577 16.2598 5.36669 16.0171 5.42969 15.7539L5.44922 15.6729C5.50255 15.3782 5.46651 15.0738 5.3457 14.7998C5.23044 14.5311 5.03867 14.3011 4.79492 14.1396C4.55439 13.9804 4.27264 13.895 3.98438 13.8916H3.81836L3.63867 13.8818C3.28198 13.8464 2.9433 13.7057 2.66602 13.4785L2.5332 13.3584C2.19223 13.0174 2 12.5545 2 12.0723C2.00012 11.5902 2.19234 11.128 2.5332 10.7871C2.8315 10.489 3.22262 10.305 3.63867 10.2637L3.81836 10.2539H3.90039C4.1634 10.2477 4.41978 10.173 4.64355 10.0371L4.7373 9.97559C4.95168 9.82226 5.12184 9.61468 5.23047 9.37598L5.27246 9.27344C5.39343 8.99934 5.43034 8.69422 5.37695 8.39941C5.32347 8.10477 5.18199 7.8323 4.97266 7.61816L4.91797 7.56348C4.79147 7.43703 4.68372 7.29286 4.59961 7.13574L4.52344 6.97363C4.43207 6.75305 4.38477 6.5161 4.38477 6.27734C4.38477 6.03856 4.43206 5.80166 4.52344 5.58105C4.61493 5.36048 4.74901 5.159 4.91797 4.99023C5.08664 4.82144 5.28741 4.68813 5.50781 4.59668C5.72854 4.50518 5.96614 4.45801 6.20508 4.45801C6.44383 4.45808 6.68081 4.50525 6.90137 4.59668C7.12155 4.68805 7.32168 4.82167 7.49023 4.99023L7.5459 5.0459L7.5752 5.07227C7.76401 5.24735 7.99426 5.36961 8.24414 5.42969C8.27145 5.43624 8.29941 5.44419 8.32715 5.44922C8.62177 5.50255 8.92624 5.46651 9.2002 5.3457H9.27344L9.4668 5.24512C9.59047 5.16918 9.70298 5.07589 9.7998 4.96777L9.93262 4.79492C10.0941 4.55105 10.1805 4.26515 10.1816 3.97266V3.81836C10.1817 3.3365 10.3733 2.87407 10.7139 2.5332C11.0548 2.19223 11.5178 2 12 2ZM12 6.87988C9.23862 6.87988 7.00007 9.11852 7 11.8799C7 14.6413 9.23858 16.8799 12 16.8799C14.7614 16.8799 17 14.6413 17 11.8799C16.9999 9.11852 14.7614 6.87988 12 6.87988ZM12 8.87988C13.6568 8.87988 14.9999 10.2231 15 11.8799C15 13.5367 13.6569 14.8799 12 14.8799C10.3431 14.8799 9 13.5367 9 11.8799C9.00007 10.2231 10.3432 8.87988 12 8.87988Z"/></svg>