<svg width="24" height="24" viewBox="0 0 24 24" xmlns="http://www.w3.org/2000/svg" fill="#cacaca"><path d="M11.749 8.46913H11.7203L11.0902 9.04195C11.1284 9.23289 11.1475 9.43337 11.1475 9.64341C11.1475 9.85344 11.1284 10.0539 11.0902 10.2449L11.7203 10.8177C11.9495 11.0086 12.0163 11.2473 11.9208 11.5337C11.8444 11.6865 11.7681 11.8297 11.6917 11.9633L11.6058 12.1352C11.5103 12.2688 11.4148 12.4025 11.3194 12.5361C11.1284 12.7653 10.8897 12.8321 10.6033 12.7366L9.80139 12.4789C9.49588 12.7271 9.15219 12.9276 8.77031 13.0803L8.59846 13.9109C8.52209 14.1973 8.3407 14.3692 8.05429 14.4264C7.86335 14.4455 7.67241 14.4551 7.48147 14.4551C7.29053 14.4551 7.09959 14.4455 6.90865 14.4264C6.62224 14.3692 6.44085 14.1973 6.36447 13.9109L6.19262 13.0803C5.81075 12.9276 5.46705 12.7271 5.16155 12.4789L4.3596 12.7366C4.07319 12.8321 3.83452 12.7653 3.64358 12.5361C3.52902 12.4025 3.43355 12.2688 3.35717 12.1352L3.27125 11.9633C3.19487 11.8297 3.11849 11.6865 3.04212 11.5337C2.94665 11.2473 3.01348 11.0086 3.24261 10.8177L3.87271 10.2449C3.83452 10.0539 3.81542 9.85344 3.81542 9.64341C3.81542 9.43337 3.83452 9.23289 3.87271 9.04195L3.24261 8.46913C3.01348 8.27819 2.94665 8.03951 3.04212 7.7531C3.11849 7.60035 3.19487 7.45715 3.27125 7.32349L3.35717 7.18028C3.45264 7.02753 3.54811 6.88433 3.64358 6.75067C3.83452 6.52154 4.07319 6.45471 4.3596 6.55018L5.16155 6.80795C5.46705 6.55973 5.81075 6.35924 6.19262 6.20649L6.36447 5.3759C6.44085 5.08949 6.62224 4.91765 6.90865 4.86037C7.09959 4.84127 7.29053 4.83173 7.48147 4.83173C7.6915 4.83173 7.89199 4.84127 8.08293 4.86037C8.35024 4.91765 8.52209 5.08949 8.59846 5.3759L8.77031 6.20649C9.15219 6.35924 9.49588 6.55973 9.80139 6.80795L10.632 6.55018C10.8993 6.45471 11.1284 6.52154 11.3194 6.75067C11.4148 6.88433 11.5103 7.01799 11.6058 7.15164L11.6917 7.32349C11.7681 7.45715 11.8444 7.60035 11.9208 7.7531C12.0163 8.03951 11.959 8.27819 11.749 8.46913ZM6.1067 9.64341C6.1258 10.1589 6.35492 10.5599 6.79408 10.8463C7.25234 11.0755 7.7106 11.0755 8.16885 10.8463C8.60801 10.5599 8.83714 10.1589 8.85623 9.64341C8.83714 9.12787 8.60801 8.7269 8.16885 8.44049C7.7106 8.21136 7.25234 8.21136 6.79408 8.44049C6.35492 8.7269 6.1258 9.12787 6.1067 9.64341ZM17.3626 18.9517V18.9231L16.7898 18.293C16.5988 18.3312 16.3984 18.3503 16.1883 18.3503C15.9783 18.3503 15.7778 18.3312 15.5869 18.293L15.014 18.9231C14.8231 19.1522 14.5844 19.219 14.298 19.1236C14.1453 19.0472 14.0021 18.9708 13.8684 18.8944L13.7252 18.8085C13.5724 18.713 13.4292 18.6176 13.2956 18.5221C13.0665 18.3312 12.9996 18.0925 13.0951 17.8061L13.3529 17.0041C13.1046 16.6986 12.9042 16.3549 12.7514 15.9731L11.9208 15.8012C11.6344 15.7248 11.4626 15.5434 11.4053 15.257C11.3862 15.0661 11.3766 14.8752 11.3766 14.6842C11.3766 14.4933 11.3862 14.3023 11.4053 14.1114C11.4626 13.825 11.6344 13.6436 11.9208 13.5672L12.7514 13.3954C12.9042 13.0135 13.1046 12.6698 13.3529 12.3643L13.0951 11.5624C12.9996 11.2759 13.0665 11.0373 13.2956 10.8463C13.4292 10.7509 13.5724 10.6554 13.7252 10.5599L13.8684 10.474C14.0021 10.3976 14.1453 10.3212 14.298 10.2449C14.5844 10.1494 14.8231 10.2162 15.014 10.4454L15.5869 11.0755C15.7778 11.0373 15.9783 11.0182 16.1883 11.0182C16.3984 11.0182 16.5988 11.0373 16.7898 11.0755L17.3626 10.4454C17.5535 10.2162 17.7922 10.1494 18.0786 10.2449C18.2314 10.3212 18.3746 10.3976 18.5082 10.474L18.6801 10.5599C18.8137 10.6554 18.9474 10.7509 19.0811 10.8463C19.3102 11.0373 19.377 11.2759 19.2815 11.5624L19.0238 12.3643C19.272 12.6698 19.4725 13.0135 19.6252 13.3954L20.4558 13.5672C20.7422 13.6436 20.9141 13.825 20.9714 14.1114C20.9905 14.3023 21 14.4933 21 14.6842C21 14.8752 20.9905 15.0661 20.9714 15.257C20.9141 15.5434 20.7422 15.7248 20.4558 15.8012L19.6252 15.9731C19.4725 16.3549 19.272 16.6986 19.0238 17.0041L19.2815 17.8347C19.377 18.102 19.3102 18.3312 19.0811 18.5221C18.9474 18.6176 18.8137 18.713 18.6801 18.8085L18.5082 18.8944C18.3746 18.9708 18.2314 19.0472 18.0786 19.1236C17.7922 19.219 17.5535 19.1618 17.3626 18.9517ZM16.1883 13.3095C15.6728 13.3285 15.2718 13.5577 14.9854 13.9968C14.7563 14.4551 14.7563 14.9133 14.9854 15.3716C15.2718 15.8108 15.6728 16.0399 16.1883 16.059C16.7039 16.0399 17.1048 15.8108 17.3912 15.3716C17.6204 14.9133 17.6204 14.4551 17.3912 13.9968C17.1048 13.5577 16.7039 13.3285 16.1883 13.3095Z"/></svg>