<svg width="24" height="24" viewBox="0 0 24 24" xmlns="http://www.w3.org/2000/svg" fill="#cacaca"><path fill-rule="evenodd" clip-rule="evenodd" d="M13.6723 4.87502L15.8395 8.71507H8.16188L10.3292 4.87502H13.6723ZM4.16304 10.2151L11.4807 18.8792L11.5621 18.9617L8.07474 10.2151H4.16304ZM15.9538 10.2151L12.4436 18.9572L12.5193 18.8792L19.837 10.2151H15.9538ZM19.2369 4.06651C19.0234 3.73808 18.7368 3.46928 18.4019 3.28344C18.0671 3.09759 17.6941 3.0003 17.3154 3H6.68464C5.91602 3 5.19883 3.39901 4.76594 4.06651L2.51436 7.54206C2.14254 8.11613 1.96369 8.80401 2.00613 9.49681C2.04857 10.1896 2.30986 10.8478 2.74866 11.3671L10.1434 20.1242C10.3763 20.3996 10.6621 20.62 10.9819 20.771C11.3018 20.9219 11.6486 21 11.9993 21C12.35 21 12.6967 20.9219 13.0166 20.771C13.3365 20.62 13.6223 20.3996 13.8551 20.1242L21.2513 11.3671C21.6901 10.8478 21.9514 10.1896 21.9939 9.49681C22.0363 8.80401 21.8575 8.11613 21.4856 7.54206L19.2369 4.06651Z"/></svg>