<svg width="24" height="24" viewBox="0 0 24 24" xmlns="http://www.w3.org/2000/svg" fill="#cacaca"><path d="M14.0625 6.15625L12.9688 8H15.25C15.6042 8 15.8958 7.875 16.125 7.625C16.375 7.39583 16.5 7.10417 16.5 6.75C16.5 6.39583 16.375 6.10417 16.125 5.875C15.8958 5.625 15.6042 5.5 15.25 5.5H15.1875C14.6875 5.52083 14.3125 5.73958 14.0625 6.15625ZM9.96875 6.15625H9.9375C9.6875 5.73958 9.3125 5.52083 8.8125 5.5H8.75C8.39583 5.5 8.10417 5.625 7.875 5.875C7.625 6.10417 7.5 6.39583 7.5 6.75C7.5 7.10417 7.625 7.39583 7.875 7.625C8.10417 7.875 8.39583 8 8.75 8H11.0312L9.96875 6.15625ZM12.75 5.40625V5.375C13.3125 4.5 14.125 4.04167 15.1875 4H15.25C16.0208 4.02083 16.6667 4.29167 17.1875 4.8125C17.7083 5.33333 17.9792 5.97917 18 6.75C18 7.20833 17.8958 7.625 17.6875 8H19C19.5625 8.02083 20.0312 8.21875 20.4062 8.59375C20.7812 8.96875 20.9792 9.4375 21 10V18C20.9792 18.5625 20.7812 19.0312 20.4062 19.4062C20.0312 19.7812 19.5625 19.9792 19 20H5C4.4375 19.9792 3.96875 19.7812 3.59375 19.4062C3.21875 19.0312 3.02083 18.5625 3 18V10C3.02083 9.4375 3.21875 8.96875 3.59375 8.59375C3.96875 8.21875 4.4375 8.02083 5 8H6.3125C6.10417 7.625 6 7.20833 6 6.75C6.02083 5.97917 6.29167 5.33333 6.8125 4.8125C7.33333 4.29167 7.97917 4.02083 8.75 4H8.8125C9.875 4.04167 10.6875 4.51042 11.25 5.40625L12 6.6875L12.75 5.40625ZM19 16H5V18H19V16ZM19 14V10H13.8125L15.0938 11.5312C15.3438 11.9062 15.3021 12.2604 14.9688 12.5938C14.5938 12.8438 14.25 12.8021 13.9375 12.4688L12 10.1875L10.0938 12.4688C9.76042 12.8021 9.40625 12.8333 9.03125 12.5625C8.69792 12.25 8.66667 11.9062 8.9375 11.5312L10.1875 10H5V14H19Z"/></svg>