<svg width="24" height="24" viewBox="0 0 24 24" xmlns="http://www.w3.org/2000/svg" fill="#cacaca"><path d="M19.5 9.5C19.474 10.8281 19.1615 12.026 18.5625 13.0938C17.9635 14.1875 17.1562 15.0729 16.1406 15.75H7.85938C6.84375 15.0729 6.03646 14.1875 5.4375 13.0938C4.83854 12.026 4.52604 10.8281 4.5 9.5C4.55208 7.36458 5.28125 5.59375 6.6875 4.1875C8.09375 2.78125 9.86458 2.05208 12 2C14.1354 2.05208 15.9062 2.78125 17.3125 4.1875C18.7188 5.59375 19.4479 7.36458 19.5 9.5ZM13.9531 12.0391C13.9531 12.4036 13.8229 12.7031 13.5625 12.9375C13.3281 13.1979 13.0286 13.3281 12.6641 13.3281C12.4036 13.3802 12.3255 13.4974 12.4297 13.6797C12.6641 13.888 12.9505 13.9922 13.2891 13.9922C13.6797 13.9922 13.9922 13.862 14.2266 13.6016C14.4609 13.3672 14.5911 13.0547 14.6172 12.6641C14.6172 12.3255 14.5 12.0391 14.2656 11.8047C14.1094 11.7266 14.0052 11.8047 13.9531 12.0391ZM11.9219 10.0859C11.6875 10.138 11.6094 10.2552 11.6875 10.4375C11.9479 10.6458 12.2474 10.75 12.5859 10.75C12.9505 10.75 13.25 10.6198 13.4844 10.3594C13.7448 10.125 13.875 9.82552 13.875 9.46094C13.875 9.1224 13.7708 8.82292 13.5625 8.5625C13.3802 8.48438 13.263 8.5625 13.2109 8.79688C13.2109 9.16146 13.0807 9.47396 12.8203 9.73438C12.5859 9.96875 12.2865 10.0859 11.9219 10.0859ZM16.3359 9.42188C16.3359 9.78646 16.2057 10.0859 15.9453 10.3203C15.7109 10.5807 15.4115 10.7109 15.0469 10.7109C14.8125 10.763 14.7344 10.8802 14.8125 11.0625C15.0729 11.2708 15.3724 11.375 15.7109 11.375C16.0755 11.375 16.375 11.2448 16.6094 10.9844C16.8698 10.75 17 10.4505 17 10.0859C17 9.7474 16.8958 9.44792 16.6875 9.1875C16.5052 9.10938 16.388 9.1875 16.3359 9.42188ZM8.25 18.25C8.25 17.8854 8.36719 17.5859 8.60156 17.3516C8.83594 17.1172 9.13542 17 9.5 17H14.5C14.8646 17 15.1641 17.1172 15.3984 17.3516C15.6328 17.5859 15.75 17.8854 15.75 18.25C15.75 18.6146 15.6328 18.9141 15.3984 19.1484C15.1641 19.3828 14.8646 19.5 14.5 19.5H13.875C13.4844 19.526 13.276 19.7344 13.25 20.125V20.75C13.25 21.1146 13.1328 21.4141 12.8984 21.6484C12.6641 21.8828 12.3646 22 12 22C11.6354 22 11.3359 21.8828 11.1016 21.6484C10.8672 21.4141 10.75 21.1146 10.75 20.75V20.125C10.724 19.7344 10.5156 19.526 10.125 19.5H9.5C9.13542 19.5 8.83594 19.3828 8.60156 19.1484C8.36719 18.9141 8.25 18.6146 8.25 18.25Z"/></svg>