<svg width="24" height="24" viewBox="0 0 24 24" xmlns="http://www.w3.org/2000/svg" fill="#cacaca"><path d="M20.9023 4.61007L13.0239 20.3669C12.7894 20.789 12.4377 21 11.9687 21H4.12549C3.79722 21 3.52757 20.8945 3.31654 20.6835C3.10551 20.4724 3 20.2028 3 19.8745V19.5931H4.68823C5.03995 19.5697 5.22753 19.3821 5.25098 19.0304C5.22753 18.6787 5.03995 18.4911 4.68823 18.4677H3V17.3422H4.68823C5.03995 17.3187 5.22753 17.1311 5.25098 16.7794C5.22753 16.4277 5.03995 16.2401 4.68823 16.2167H3V15.2319C3.02345 14.8567 3.17586 14.5519 3.45723 14.3174C3.76205 14.1064 4.10204 14.0595 4.4772 14.1767L12.2853 16.7794V16.8146L18.8624 3.62527C19.0265 3.3439 19.2492 3.15632 19.5306 3.06253C19.812 2.96874 20.0934 2.98046 20.3747 3.0977C20.6561 3.26183 20.8437 3.48459 20.9375 3.76596C21.0313 4.04733 21.0195 4.3287 20.9023 4.61007Z"/></svg>