<svg width="24" height="24" viewBox="0 0 24 24" xmlns="http://www.w3.org/2000/svg" fill="#cacaca"><path d="M8.73047 3.10138L16.043 6.75763C16.3477 6.9217 16.5 7.16779 16.5 7.49592C16.4766 7.84748 16.3242 8.10529 16.043 8.26935L9.1875 11.6795V14.4217C10.0781 14.3045 11.0156 14.2459 12 14.2459C14.5547 14.2694 16.6758 14.5975 18.3633 15.2303C20.0508 15.8631 20.9297 16.66 21 17.6209C20.9297 18.5819 20.0508 19.3787 18.3633 20.0115C16.6758 20.6444 14.5547 20.9725 12 20.9959C9.44531 20.9725 7.32422 20.6444 5.63672 20.0115C3.94922 19.3787 3.07031 18.5819 3 17.6209C3.02344 16.9881 3.43359 16.4139 4.23047 15.8983C5.05078 15.4061 6.14062 15.0076 7.5 14.7029V11.4334C7.5 11.3865 7.5 11.3397 7.5 11.2928C7.5 11.2459 7.5 11.199 7.5 11.1522V3.83967C7.5 3.53498 7.62891 3.3006 7.88672 3.13654C8.16797 2.97248 8.44922 2.96076 8.73047 3.10138ZM13.125 17.6209C13.1016 17.2928 12.8789 17.0233 12.457 16.8123C12.0352 16.6014 11.5078 16.4959 10.875 16.4959C10.2422 16.4959 9.71484 16.6014 9.29297 16.8123C8.87109 17.0233 8.64844 17.2928 8.625 17.6209C8.64844 17.949 8.87109 18.2186 9.29297 18.4295C9.71484 18.6404 10.2422 18.7459 10.875 18.7459C11.5078 18.7459 12.0352 18.6404 12.457 18.4295C12.8789 18.2186 13.1016 17.949 13.125 17.6209Z"/></svg>