<svg width="24" height="24" viewBox="0 0 24 24" xmlns="http://www.w3.org/2000/svg" fill="#cacaca"><path d="M12 5C12.25 5 12.5 5.04167 12.75 5.125L21.5 8.28125C21.8125 8.42708 21.9792 8.66667 22 9C21.9792 9.33333 21.8125 9.57292 21.5 9.71875L12.75 12.875C12.5 12.9583 12.25 13 12 13C11.75 13 11.5 12.9583 11.25 12.875L6.28125 11.0625C6.55208 10.7708 6.88542 10.5417 7.28125 10.375L12.1875 8.46875C12.4583 8.32292 12.5521 8.10417 12.4688 7.8125C12.3229 7.54167 12.1042 7.44792 11.8125 7.53125L6.90625 9.46875C6.28125 9.71875 5.77083 10.0833 5.375 10.5625C4.8125 11.3125 4.52083 12.1667 4.5 13.125V13.9062C4.6875 14.3229 4.83333 14.7604 4.9375 15.2188C5.1875 16.0938 5.20833 17.2188 5 18.5938C4.95833 18.7396 4.88542 18.8542 4.78125 18.9375C4.65625 19 4.52083 19.0208 4.375 19L2.375 18.5C2.20833 18.4375 2.09375 18.3229 2.03125 18.1562C1.96875 17.9896 1.98958 17.8333 2.09375 17.6875C2.36458 17.3125 2.60417 16.9271 2.8125 16.5312C3.20833 15.7604 3.4375 14.9167 3.5 14V13.125C3.52083 12.1042 3.79167 11.1875 4.3125 10.375L2.5 9.71875C2.1875 9.57292 2.02083 9.33333 2 9C2.02083 8.66667 2.1875 8.42708 2.5 8.28125L11.25 5.125C11.5 5.04167 11.75 5 12 5ZM6 16.75L6.46875 12.2188L10.9375 13.8125C11.2708 13.9375 11.625 14 12 14C12.375 14 12.7396 13.9375 13.0938 13.8125L17.5312 12.2188L18 16.75C17.9583 17.3333 17.375 17.8438 16.25 18.2812C15.125 18.7396 13.7083 18.9792 12 19C10.2917 18.9792 8.875 18.7396 7.75 18.2812C6.625 17.8438 6.04167 17.3333 6 16.75Z"/></svg>