<svg width="24" height="24" viewBox="0 0 24 24" xmlns="http://www.w3.org/2000/svg" fill="#cacaca"><path d="M2.5 8C2.5 6.89543 3.39543 6 4.5 6H5.5C6.60457 6 7.5 6.89543 7.5 8V9C7.5 10.1046 6.60457 11 5.5 11H4.5C3.39543 11 2.5 10.1046 2.5 9V8Z"/><path d="M9.5 8C9.5 6.89543 10.3954 6 11.5 6H12.5C13.6046 6 14.5 6.89543 14.5 8V9C14.5 10.1046 13.6046 11 12.5 11H11.5C10.3954 11 9.5 10.1046 9.5 9V8Z"/><path d="M16.5 8C16.5 6.89543 17.3954 6 18.5 6H19.5C20.6046 6 21.5 6.89543 21.5 8V9C21.5 10.1046 20.6046 11 19.5 11H18.5C17.3954 11 16.5 10.1046 16.5 9V8Z"/><path d="M2.5 15C2.5 13.8954 3.39543 13 4.5 13H5.5C6.60457 13 7.5 13.8954 7.5 15V16C7.5 17.1046 6.60457 18 5.5 18H4.5C3.39543 18 2.5 17.1046 2.5 16V15Z"/><path d="M9.5 15C9.5 13.8954 10.3954 13 11.5 13H12.5C13.6046 13 14.5 13.8954 14.5 15V16C14.5 17.1046 13.6046 18 12.5 18H11.5C10.3954 18 9.5 17.1046 9.5 16V15Z"/><path d="M16.5 15C16.5 13.8954 17.3954 13 18.5 13H19.5C20.6046 13 21.5 13.8954 21.5 15V16C21.5 17.1046 20.6046 18 19.5 18H18.5C17.3954 18 16.5 17.1046 16.5 16V15Z"/></svg>