<svg width="24" height="24" viewBox="0 0 24 24" xmlns="http://www.w3.org/2000/svg" fill="#cacaca"><path d="M7.05 4.79999H8.56875C9.225 4.81874 9.7125 5.11874 10.0312 5.69999H11.1C11.1 5.43749 11.1844 5.22186 11.3531 5.05311C11.5219 4.88436 11.7375 4.79999 12 4.79999C12.2625 4.79999 12.4781 4.88436 12.6469 5.05311C12.8156 5.22186 12.9 5.43749 12.9 5.69999V8.39999C12.9 8.66249 12.8156 8.87811 12.6469 9.04686C12.4781 9.21561 12.2625 9.29999 12 9.29999C11.7375 9.29999 11.5219 9.21561 11.3531 9.04686C11.1844 8.87811 11.1 8.66249 11.1 8.39999H10.0312C9.7125 8.98124 9.225 9.28124 8.56875 9.29999H6.7125C6.05625 9.28124 5.52187 9.02811 5.10938 8.54061L3.64687 9.24374C3.49687 9.31874 3.35625 9.31874 3.225 9.24374C3.075 9.14999 3 9.01874 3 8.84999C3.0375 7.70624 3.43125 6.74999 4.18125 5.98124C4.95 5.23124 5.90625 4.83749 7.05 4.79999ZM6.15 10.2H8.85L9.21562 17.4C9.21562 17.9062 9.05625 18.3281 8.7375 18.6656C8.41875 19.0031 8.00625 19.1812 7.5 19.2C6.99375 19.1812 6.58125 19.0031 6.2625 18.6656C5.94375 18.3281 5.78437 17.9062 5.78437 17.4L6.15 10.2ZM14.7562 19.0031C14.7188 19.1344 14.6344 19.2 14.5031 19.2H14.25C13.875 19.1812 13.5562 19.05 13.2937 18.8062C13.05 18.5437 12.9187 18.225 12.9 17.85V13.8H21V17.85C20.9812 18.225 20.85 18.5437 20.6062 18.8062C20.3438 19.05 20.025 19.1812 19.65 19.2H16.6969C16.5656 19.2 16.4812 19.1344 16.4437 19.0031L15.8531 17.2594C15.7969 17.1469 15.7125 17.0906 15.6 17.0906C15.4875 17.0906 15.4031 17.1469 15.3469 17.2594L14.7562 19.0031ZM13.7156 11.4656L15.5437 10.2562C15.5625 10.2375 15.5812 10.2281 15.6 10.2281V6.14999C15.6187 5.77499 15.75 5.45624 15.9937 5.19374C16.2562 4.94999 16.575 4.81874 16.95 4.79999C17.325 4.81874 17.6437 4.94999 17.9062 5.19374C18.15 5.45624 18.2812 5.77499 18.3 6.14999V10.2C18.3187 10.2187 18.3375 10.2375 18.3562 10.2562L20.2125 11.4656C20.7 11.8219 20.9625 12.3 21 12.9H12.9C12.9375 12.3 13.2094 11.8219 13.7156 11.4656ZM16.95 6.59999C17.2312 6.58124 17.3812 6.43124 17.4 6.14999C17.3812 5.86874 17.2312 5.71874 16.95 5.69999C16.6687 5.71874 16.5187 5.86874 16.5 6.14999C16.5187 6.43124 16.6687 6.58124 16.95 6.59999Z"/></svg>