<svg width="24" height="24" viewBox="0 0 24 24" xmlns="http://www.w3.org/2000/svg" fill="#cacaca"><path d="M8.125 8.11881C7.66667 7.61188 7.4375 7.04158 7.4375 6.40792C7.4375 5.75314 7.66667 5.18284 8.125 4.69703C8.60417 4.23234 9.15625 4 9.78125 4C10.4062 4 10.9583 4.23234 11.4375 4.69703L12 5.26733L12.5625 4.69703C13.0417 4.23234 13.5938 4 14.2188 4C14.8438 4 15.3958 4.23234 15.875 4.69703C16.3333 5.18284 16.5625 5.75314 16.5625 6.40792C16.5625 7.04158 16.3333 7.61188 15.875 8.11881L12.7188 11.3822C12.5104 11.5934 12.2708 11.699 12 11.699C11.7292 11.699 11.5 11.5934 11.3125 11.3822L8.125 8.11881ZM3.25 5.80594C3.60417 5.80594 3.89583 5.93267 4.125 6.18614C4.375 6.41848 4.5 6.71419 4.5 7.07327V12.1426C4.5 12.7129 4.69792 13.1987 5.09375 13.6L6.6875 15.2158C6.97917 15.4693 7.30208 15.501 7.65625 15.3109C7.86458 15.163 7.97917 14.9729 8 14.7406C8.02083 14.5083 7.9375 14.297 7.75 14.1069L6.28125 12.6178C6.09375 12.4066 6 12.1637 6 11.8891C6 11.6145 6.09375 11.3716 6.28125 11.1604C6.48958 10.9703 6.72917 10.8752 7 10.8752C7.27083 10.8752 7.51042 10.9703 7.71875 11.1604L8.71875 12.1743L9.1875 12.6812L9.96875 13.4733C10.6354 14.1703 10.9792 15.0046 11 15.9762V18.4792C10.9792 18.9017 10.8333 19.2607 10.5625 19.5564C10.2708 19.831 9.91667 19.9789 9.5 20H7.40625C6.86458 20 6.39583 19.7993 6 19.398L2.875 16.2297C2.3125 15.6383 2.02083 14.9307 2 14.1069V7.07327C2 6.71419 2.125 6.41848 2.375 6.18614C2.60417 5.93267 2.89583 5.80594 3.25 5.80594ZM20.75 5.80594C21.1042 5.80594 21.3958 5.93267 21.625 6.18614C21.875 6.41848 22 6.71419 22 7.07327V14.1069C21.9792 14.9307 21.6875 15.6383 21.125 16.2297L18 19.398C17.6042 19.7993 17.1354 20 16.5938 20H14.5C14.0833 19.9789 13.7292 19.831 13.4375 19.5564C13.1667 19.2607 13.0208 18.9017 13 18.4792V15.9762C13.0208 15.0046 13.3646 14.1703 14.0312 13.4733L14.8125 12.6812L15.2812 12.1743L16.2812 11.1604C16.4896 10.9703 16.7292 10.8752 17 10.8752C17.2708 10.8752 17.5104 10.9703 17.7188 11.1604C17.9062 11.3716 18 11.6145 18 11.8891C18 12.1637 17.9062 12.4066 17.7188 12.6178L16.7188 13.6317L16.2188 14.1069C16.0521 14.297 15.9792 14.5083 16 14.7406C16.0208 14.9729 16.1354 15.163 16.3438 15.3109C16.6979 15.501 17.0208 15.4693 17.3125 15.2158L18.9062 13.6C19.3021 13.1987 19.5 12.7129 19.5 12.1426V7.07327C19.5 6.71419 19.625 6.41848 19.875 6.18614C20.1042 5.93267 20.3958 5.80594 20.75 5.80594Z"/></svg>