<svg width="24" height="24" viewBox="0 0 24 24" xmlns="http://www.w3.org/2000/svg" fill="#cacaca"><path d="M8.125 8.28125C7.66667 7.78125 7.4375 7.21875 7.4375 6.59375C7.4375 5.94792 7.66667 5.38542 8.125 4.90625C8.60417 4.44792 9.15625 4.21875 9.78125 4.21875C10.4062 4.21875 10.9583 4.44792 11.4375 4.90625L12 5.46875L12.5625 4.90625C13.0417 4.44792 13.5938 4.21875 14.2188 4.21875C14.8438 4.21875 15.3958 4.44792 15.875 4.90625C16.3333 5.38542 16.5625 5.94792 16.5625 6.59375C16.5625 7.21875 16.3333 7.78125 15.875 8.28125L12.7188 11.5C12.5104 11.7083 12.2708 11.8125 12 11.8125C11.7292 11.8125 11.5 11.7083 11.3125 11.5L8.125 8.28125ZM20.75 14.5C20.9583 14.7917 21.0417 15.1042 21 15.4375C20.9375 15.7708 20.7708 16.0417 20.5 16.25L16.5312 19.1875C15.7812 19.7292 14.9375 20 14 20H4C3.70833 20 3.46875 19.9062 3.28125 19.7188C3.09375 19.5312 3 19.2917 3 19V17C3 16.7083 3.09375 16.4688 3.28125 16.2812C3.46875 16.0938 3.70833 16 4 16H5.15625L6.5625 14.875C7.29167 14.2917 8.125 14 9.0625 14H14C14.2917 14 14.5312 14.0938 14.7188 14.2812C14.9062 14.4688 15 14.7083 15 15C15 15.2917 14.9062 15.5312 14.7188 15.7188C14.5312 15.9062 14.2917 16 14 16H11.5C11.1875 16.0208 11.0208 16.1875 11 16.5C11.0208 16.8125 11.1875 16.9792 11.5 17H15.2812L19 14.25C19.2917 14.0417 19.6042 13.9583 19.9375 14C20.2708 14.0625 20.5417 14.2292 20.75 14.5ZM9.0625 16H9.03125C9.03125 16 9.04167 16 9.0625 16Z"/></svg>