<svg width="24" height="24" viewBox="0 0 24 24" xmlns="http://www.w3.org/2000/svg" fill="#cacaca"><path d="M7.44043 15.4785C7.42272 15.3006 7.34425 15.1334 7.2168 15.0059C7.07101 14.8601 6.87315 14.7774 6.66699 14.7773H5V18.2227C5.00011 18.4288 5.08178 18.6267 5.22754 18.7725C5.3733 18.9182 5.57122 18.9999 5.77734 19H6.66699C6.87313 18.9999 7.07102 18.9182 7.2168 18.7725C7.34448 18.6448 7.4228 18.477 7.44043 18.2988L7.44434 18.2227V15.5557L7.44043 15.4785ZM19 12C19 10.1435 18.2629 8.36256 16.9502 7.0498C15.6374 5.73705 13.8565 5 12 5C10.1435 5 8.36256 5.73705 7.0498 7.0498C5.73705 8.36256 5 10.1435 5 12V12.7773H6.66699C7.40359 12.7774 8.11 13.0709 8.63086 13.5918C9.15166 14.1127 9.44434 14.8191 9.44434 15.5557V18.2227L9.43066 18.4971C9.36746 19.1329 9.0866 19.7308 8.63086 20.1865C8.11001 20.7073 7.40356 20.9999 6.66699 21H5.77734C5.04079 20.9999 4.33431 20.7074 3.81348 20.1865C3.29264 19.6657 3.00011 18.9592 3 18.2227V12C3 9.61305 3.94791 7.32357 5.63574 5.63574C7.32357 3.94791 9.61305 3 12 3C14.3869 3 16.6764 3.94791 18.3643 5.63574C20.0521 7.32357 21 9.61305 21 12V18.2227C20.9999 18.9592 20.7074 19.6657 20.1865 20.1865C19.6657 20.7074 18.9592 20.9999 18.2227 21H17.333C16.5964 20.9999 15.89 20.7073 15.3691 20.1865C14.9134 19.7308 14.6325 19.1329 14.5693 18.4971L14.5557 18.2227V15.5557C14.5557 14.8191 14.8483 14.1127 15.3691 13.5918C15.89 13.0709 16.5964 12.7774 17.333 12.7773H19V12ZM16.5557 18.2227L16.5596 18.2988C16.5772 18.477 16.6555 18.6448 16.7832 18.7725C16.929 18.9182 17.1269 18.9999 17.333 19H18.2227C18.4288 18.9999 18.6267 18.9182 18.7725 18.7725C18.9182 18.6267 18.9999 18.4288 19 18.2227V14.7773H17.333C17.1268 14.7774 16.929 14.8601 16.7832 15.0059C16.6375 15.1517 16.5557 15.3495 16.5557 15.5557V18.2227Z"/><path d="M7.44043 15.4785C7.42272 15.3006 7.34425 15.1334 7.2168 15.0059C7.07101 14.8601 6.87315 14.7774 6.66699 14.7773H5V18.2227C5.00011 18.4288 5.08178 18.6267 5.22754 18.7725C5.3733 18.9182 5.57122 18.9999 5.77734 19H6.66699C6.87313 18.9999 7.07102 18.9182 7.2168 18.7725C7.34448 18.6448 7.4228 18.477 7.44043 18.2988L7.44434 18.2227V15.5557L7.44043 15.4785Z"/><path d="M16.5557 18.2227L16.5596 18.2988C16.5772 18.477 16.6555 18.6448 16.7832 18.7725C16.929 18.9182 17.1269 18.9999 17.333 19H18.2227C18.4288 18.9999 18.6267 18.9182 18.7725 18.7725C18.9182 18.6267 18.9999 18.4288 19 18.2227V14.7773H17.333C17.1268 14.7774 16.929 14.8601 16.7832 15.0059C16.6375 15.1517 16.5557 15.3495 16.5557 15.5557V18.2227Z"/></svg>