<svg width="24" height="24" viewBox="0 0 24 24" xmlns="http://www.w3.org/2000/svg" fill="#cacaca"><path d="M4.6875 13.3652C3.58594 12.334 3.02344 11.0566 3 9.5332V9.32227C3.02344 8.05664 3.42188 6.97852 4.19531 6.08789C4.96875 5.17383 5.96484 4.59961 7.18359 4.36523C8.00391 4.24805 8.80078 4.30664 9.57422 4.54102C10.3242 4.77539 10.9922 5.18555 11.5781 5.77148L12 6.19336L12.4219 5.77148C13.0078 5.18555 13.6758 4.77539 14.4258 4.54102C15.1992 4.30664 15.9961 4.24805 16.8164 4.36523C18.0352 4.59961 19.0312 5.17383 19.8047 6.08789C20.5781 6.97852 20.9766 8.05664 21 9.32227V9.5332C20.9766 11.0566 20.4141 12.334 19.3125 13.3652L12.9844 19.3066C12.7031 19.5645 12.375 19.6934 12 19.6934C11.625 19.6934 11.2969 19.5645 11.0156 19.3066L4.6875 13.3652Z"/></svg>