<svg width="24" height="24" viewBox="0 0 24 24" xmlns="http://www.w3.org/2000/svg" fill="#cacaca"><path d="M12 21C10.3594 20.9766 8.85938 20.5781 7.5 19.8047C6.14062 19.0078 5.03906 17.9062 4.19531 16.5C3.39844 15.0703 3 13.5703 3 12C3 10.4297 3.39844 8.92969 4.19531 7.5C5.03906 6.09375 6.14062 4.99219 7.5 4.19531C8.85938 3.42188 10.3594 3.02344 12 3C13.6406 3.02344 15.1406 3.42188 16.5 4.19531C17.8594 4.99219 18.9609 6.09375 19.8047 7.5C20.6016 8.92969 21 10.4297 21 12C21 13.5703 20.6016 15.0703 19.8047 16.5C18.9609 17.9062 17.8594 19.0078 16.5 19.8047C15.1406 20.5781 13.6406 20.9766 12 21ZM7.64062 12.8789L11.2266 16.5C11.4375 16.7344 11.6953 16.8516 12 16.8516C12.3047 16.8516 12.5742 16.7344 12.8086 16.5L16.3594 12.8789C16.875 12.3164 17.1328 11.6836 17.1328 10.9805C17.1328 10.2539 16.875 9.62109 16.3594 9.08203C15.8203 8.56641 15.1992 8.30859 14.4961 8.30859C13.793 8.30859 13.1719 8.56641 12.6328 9.08203L12 9.71484L11.3672 9.08203C10.8281 8.56641 10.207 8.30859 9.50391 8.30859C8.80078 8.30859 8.17969 8.56641 7.64062 9.08203C7.125 9.62109 6.86719 10.2539 6.86719 10.9805C6.86719 11.6836 7.125 12.3164 7.64062 12.8789Z"/></svg>