<svg width="24" height="24" viewBox="0 0 24 24" xmlns="http://www.w3.org/2000/svg" fill="#cacaca"><path d="M7 5H17C17.5625 5.02083 18.0312 5.21875 18.4062 5.59375C18.7812 5.96875 18.9792 6.4375 19 7V17C18.9792 17.5625 18.7812 18.0312 18.4062 18.4062C18.0312 18.7812 17.5625 18.9792 17 19H7C6.4375 18.9792 5.96875 18.7812 5.59375 18.4062C5.21875 18.0312 5.02083 17.5625 5 17V7C5.02083 6.4375 5.21875 5.96875 5.59375 5.59375C5.96875 5.21875 6.4375 5.02083 7 5ZM8.125 12.7812L11.3125 16C11.5 16.2083 11.7292 16.3125 12 16.3125C12.2708 16.3125 12.5104 16.2083 12.7188 16L15.875 12.7812C16.3333 12.2812 16.5625 11.7188 16.5625 11.0938C16.5625 10.4479 16.3333 9.88542 15.875 9.40625C15.3958 8.94792 14.8438 8.71875 14.2188 8.71875C13.5938 8.71875 13.0417 8.94792 12.5625 9.40625L12 9.96875L11.4375 9.40625C10.9583 8.94792 10.4062 8.71875 9.78125 8.71875C9.15625 8.71875 8.60417 8.94792 8.125 9.40625C7.66667 9.88542 7.4375 10.4479 7.4375 11.0938C7.4375 11.7188 7.66667 12.2812 8.125 12.7812Z"/></svg>