<svg width="24" height="24" viewBox="0 0 24 24" xmlns="http://www.w3.org/2000/svg" fill="#cacaca"><path d="M12 9.45009V17.4927L17.8008 11.8994C18.4102 11.2658 18.7266 10.4981 18.75 9.59632V9.37698C18.7266 8.6702 18.5039 8.04872 18.082 7.51254C17.6602 7.00074 17.1094 6.67172 16.4297 6.52549C15.4922 6.40363 14.6836 6.67172 14.0039 7.32975L13.582 7.76844L12 9.45009ZM7.18359 4.22237C8.00391 4.10051 8.80078 4.16144 9.57422 4.40515C10.3242 4.64887 10.9922 5.07538 11.5781 5.68467L12 6.12336L12.4219 5.68467C13.0078 5.07538 13.6758 4.64887 14.4258 4.40515C15.1992 4.16144 15.9961 4.10051 16.8164 4.22237C18.0352 4.46608 19.0312 5.06319 19.8047 6.01368C20.5781 6.93981 20.9766 8.06091 21 9.37698V9.59632C20.9766 11.1805 20.4141 12.5087 19.3125 13.5811L12.9844 19.7593C12.7031 20.0274 12.375 20.1614 12 20.1614C11.625 20.1614 11.2969 20.0274 11.0156 19.7593L4.6875 13.5811C3.58594 12.5087 3.02344 11.1805 3 9.59632V9.37698C3.02344 8.06091 3.42188 6.93981 4.19531 6.01368C4.96875 5.06319 5.96484 4.46608 7.18359 4.22237Z"/></svg>