<svg width="24" height="24" viewBox="0 0 24 24" xmlns="http://www.w3.org/2000/svg" fill="#cacaca"><path d="M7.71875 5.37501C8.46875 5.25001 9.1875 5.3021 9.875 5.53126L11.4375 7.96876L9.0625 10.3125C9.02083 10.375 9 10.4375 9 10.5C9 10.5625 9.03125 10.625 9.09375 10.6875L12.5938 13.9375C12.6979 14.0208 12.8021 14.0208 12.9062 13.9375C13.0104 13.8542 13.0312 13.75 12.9688 13.625L11.0938 10.5625L13.9062 8.18751C13.9896 8.10418 14.0208 8.01043 14 7.90626L13.2812 5.93751C14.1979 5.39585 15.1979 5.20835 16.2812 5.37501C17.3646 5.58335 18.25 6.09376 18.9375 6.90626C19.625 7.69793 19.9792 8.65626 20 9.78126V9.96876C19.9792 11.3229 19.4792 12.4583 18.5 13.375L12.875 18.6563C12.625 18.8854 12.3333 19 12 19C11.6667 19 11.375 18.8854 11.125 18.6563L5.5 13.375C4.52083 12.4583 4.02083 11.3229 4 9.96876V9.78126C4.02083 8.65626 4.375 7.69793 5.0625 6.90626C5.75 6.09376 6.63542 5.58335 7.71875 5.37501Z"/></svg>