<svg width="24" height="24" viewBox="0 0 24 24" xmlns="http://www.w3.org/2000/svg" fill="#cacaca"><path d="M10.0714 3C10.4464 3 10.7545 3.12054 10.9955 3.36161C11.2366 3.60268 11.3571 3.91071 11.3571 4.28571V7.5C11.3571 8.91964 11.7857 10.2054 12.6429 11.3571L13.4062 12.4018C14.5848 14.0089 15.1875 15.8036 15.2143 17.7857V19.7143C15.2143 20.0893 15.0938 20.3973 14.8527 20.6384C14.6116 20.8795 14.3036 21 13.9286 21C13.5536 21 13.2455 20.8795 13.0045 20.6384C12.7634 20.3973 12.6429 20.0893 12.6429 19.7143V17.7857C12.6429 16.3661 12.2143 15.0804 11.3571 13.9286L10.5938 12.8839C9.41518 11.2768 8.8125 9.48214 8.78571 7.5V4.28571C8.78571 3.91071 8.90625 3.60268 9.14732 3.36161C9.38839 3.12054 9.69643 3 10.0714 3ZM4.28571 5.57143C4.66071 5.57143 4.96875 5.69196 5.20982 5.93304C5.45089 6.17411 5.57143 6.48214 5.57143 6.85714V8.14286C5.57143 9.5625 6 10.8482 6.85714 12L7.62054 13.0446C8.79911 14.6518 9.40179 16.4464 9.42857 18.4286V19.7143C9.42857 20.0893 9.30804 20.3973 9.06696 20.6384C8.82589 20.8795 8.51786 21 8.14286 21C7.76786 21 7.45982 20.8795 7.21875 20.6384C6.97768 20.3973 6.85714 20.0893 6.85714 19.7143V18.4286C6.85714 17.0089 6.42857 15.7232 5.57143 14.5714L4.80804 13.5268C3.62946 11.9196 3.02679 10.125 3 8.14286V6.85714C3 6.48214 3.12054 6.17411 3.36161 5.93304C3.60268 5.69196 3.91071 5.57143 4.28571 5.57143ZM17.1429 6.85714V8.14286C17.1429 9.5625 17.5714 10.8482 18.4286 12L19.192 13.0446C20.3705 14.6518 20.9732 16.4464 21 18.4286V19.7143C21 20.0893 20.8795 20.3973 20.6384 20.6384C20.3973 20.8795 20.0893 21 19.7143 21C19.3393 21 19.0312 20.8795 18.7902 20.6384C18.5491 20.3973 18.4286 20.0893 18.4286 19.7143V18.4286C18.4286 17.0089 18 15.7232 17.1429 14.5714L16.3795 13.5268C15.2009 11.9196 14.5982 10.125 14.5714 8.14286V6.85714C14.5714 6.48214 14.692 6.17411 14.933 5.93304C15.1741 5.69196 15.4821 5.57143 15.8571 5.57143C16.2321 5.57143 16.5402 5.69196 16.7812 5.93304C17.0223 6.17411 17.1429 6.48214 17.1429 6.85714Z"/></svg>