<svg width="24" height="24" viewBox="0 0 24 24" xmlns="http://www.w3.org/2000/svg" fill="#cacaca"><path d="M20.4179 10.4625L13.4179 3.42543C12.636 2.6394 11.364 2.6394 10.5821 3.42543L3.58206 10.4625C3.20927 10.8372 3 11.3443 3 11.8729V19C3 20.1046 3.89543 21 5 21H7.3C8.40457 21 9.3 20.1046 9.3 19V14.8571C9.3 13.7526 10.1954 12.8571 11.3 12.8571H12.7C13.8046 12.8571 14.7 13.7526 14.7 14.8571V19C14.7 20.1046 15.5954 21 16.7 21H19C20.1046 21 21 20.1046 21 19V11.8729C21 11.3443 20.7907 10.8372 20.4179 10.4625Z"/></svg>