<svg width="24" height="24" viewBox="0 0 24 24" xmlns="http://www.w3.org/2000/svg" fill="#cacaca"><path d="M3 7C3.02083 6.4375 3.21875 5.96875 3.59375 5.59375C3.96875 5.21875 4.4375 5.02083 5 5H19C19.5625 5.02083 20.0312 5.21875 20.4062 5.59375C20.7812 5.96875 20.9792 6.4375 21 7H3ZM3 8H21V17C20.9792 17.5625 20.7812 18.0312 20.4062 18.4062C20.0312 18.7812 19.5625 18.9792 19 19H5C4.4375 18.9792 3.96875 18.7812 3.59375 18.4062C3.21875 18.0312 3.02083 17.5625 3 17V8ZM5 16.6562C5.02083 16.8646 5.13542 16.9792 5.34375 17H11.6562C11.8646 16.9792 11.9792 16.8646 12 16.6562C11.9792 16.1979 11.8125 15.8125 11.5 15.5C11.1875 15.1875 10.8021 15.0208 10.3438 15H6.65625C6.19792 15.0208 5.8125 15.1875 5.5 15.5C5.1875 15.8125 5.02083 16.1979 5 16.6562ZM8.5 10C7.75 10.0208 7.17708 10.3542 6.78125 11C6.40625 11.6667 6.40625 12.3333 6.78125 13C7.17708 13.6458 7.75 13.9792 8.5 14C9.25 13.9792 9.82292 13.6458 10.2188 13C10.5938 12.3333 10.5938 11.6667 10.2188 11C9.82292 10.3542 9.25 10.0208 8.5 10ZM14 10.5C14.0208 10.8125 14.1875 10.9792 14.5 11H18.5C18.8125 10.9792 18.9792 10.8125 19 10.5C18.9792 10.1875 18.8125 10.0208 18.5 10H14.5C14.1875 10.0208 14.0208 10.1875 14 10.5ZM14 12.5C14.0208 12.8125 14.1875 12.9792 14.5 13H18.5C18.8125 12.9792 18.9792 12.8125 19 12.5C18.9792 12.1875 18.8125 12.0208 18.5 12H14.5C14.1875 12.0208 14.0208 12.1875 14 12.5ZM14 14.5C14.0208 14.8125 14.1875 14.9792 14.5 15H18.5C18.8125 14.9792 18.9792 14.8125 19 14.5C18.9792 14.1875 18.8125 14.0208 18.5 14H14.5C14.1875 14.0208 14.0208 14.1875 14 14.5Z"/></svg>