<svg width="24" height="24" viewBox="0 0 24 24" xmlns="http://www.w3.org/2000/svg" fill="#cacaca"><path d="M5.57143 3H18.4286C19.1518 3.02679 19.7545 3.28125 20.2366 3.76339C20.7188 4.24554 20.9732 4.84821 21 5.57143V18.4286C20.9732 19.1518 20.7188 19.7545 20.2366 20.2366C19.7545 20.7188 19.1518 20.9732 18.4286 21H5.57143C4.84821 20.9732 4.24554 20.7188 3.76339 20.2366C3.28125 19.7545 3.02679 19.1518 3 18.4286V5.57143C3.02679 4.84821 3.28125 4.24554 3.76339 3.76339C4.24554 3.28125 4.84821 3.02679 5.57143 3ZM6.85714 5.57143C6.48214 5.57143 6.17411 5.69196 5.93304 5.93304C5.69196 6.17411 5.57143 6.48214 5.57143 6.85714V14.5714C5.57143 14.9464 5.69196 15.2545 5.93304 15.4955C6.17411 15.7366 6.48214 15.8571 6.85714 15.8571H17.1429C17.5179 15.8571 17.8259 15.7366 18.067 15.4955C18.308 15.2545 18.4286 14.9464 18.4286 14.5714V6.85714C18.4286 6.48214 18.308 6.17411 18.067 5.93304C17.8259 5.69196 17.5179 5.57143 17.1429 5.57143H6.85714ZM12.9643 8.14286C13.1786 8.14286 13.3527 8.23661 13.4866 8.42411L17.0223 13.567C17.1562 13.7812 17.1696 13.9955 17.0625 14.2098C16.9286 14.4509 16.7411 14.5714 16.5 14.5714H7.5C7.23214 14.5714 7.04464 14.4509 6.9375 14.2098C6.83036 13.9688 6.84375 13.7411 6.97768 13.5268L8.90625 10.9554C9.04018 10.7946 9.21429 10.7143 9.42857 10.7143C9.64286 10.7143 9.81696 10.7946 9.95089 10.9554L10.3125 11.4777L12.442 8.42411C12.5759 8.23661 12.75 8.14286 12.9643 8.14286ZM8.14286 9.42857C7.76786 9.42857 7.45982 9.30804 7.21875 9.06696C6.97768 8.82589 6.85714 8.51786 6.85714 8.14286C6.85714 7.76786 6.97768 7.45982 7.21875 7.21875C7.45982 6.97768 7.76786 6.85714 8.14286 6.85714C8.51786 6.85714 8.82589 6.97768 9.06696 7.21875C9.30804 7.45982 9.42857 7.76786 9.42857 8.14286C9.42857 8.51786 9.30804 8.82589 9.06696 9.06696C8.82589 9.30804 8.51786 9.42857 8.14286 9.42857Z"/></svg>