<svg width="24" height="24" viewBox="0 0 24 24" xmlns="http://www.w3.org/2000/svg" fill="#cacaca"><path d="M3 6.375C3.02344 5.74219 3.24609 5.21484 3.66797 4.79297C4.08984 4.37109 4.61719 4.14844 5.25 4.125H18.75C19.3828 4.14844 19.9102 4.37109 20.332 4.79297C20.7539 5.21484 20.9766 5.74219 21 6.375V17.625C20.9766 18.2578 20.7539 18.7852 20.332 19.207C19.9102 19.6289 19.3828 19.8516 18.75 19.875H5.25C4.61719 19.8516 4.08984 19.6289 3.66797 19.207C3.24609 18.7852 3.02344 18.2578 3 17.625V6.375ZM14.3906 10.1367C14.2031 9.87891 13.9688 9.75 13.6875 9.75C13.3828 9.75 13.1484 9.87891 12.9844 10.1367L9.92578 14.6016L9.01172 13.4414C8.82422 13.2305 8.60156 13.125 8.34375 13.125C8.08594 13.125 7.86328 13.2305 7.67578 13.4414L5.42578 16.2539C5.23828 16.5352 5.20312 16.8281 5.32031 17.1328C5.48438 17.4375 5.74219 17.6016 6.09375 17.625H17.9062C18.2344 17.625 18.4805 17.4727 18.6445 17.168C18.7852 16.8633 18.7734 16.582 18.6094 16.3242L14.3906 10.1367ZM6.9375 9.75C7.57031 9.72656 8.0625 9.44531 8.41406 8.90625C8.69531 8.34375 8.69531 7.78125 8.41406 7.21875C8.0625 6.67969 7.57031 6.39844 6.9375 6.375C6.30469 6.39844 5.8125 6.67969 5.46094 7.21875C5.17969 7.78125 5.17969 8.34375 5.46094 8.90625C5.8125 9.44531 6.30469 9.72656 6.9375 9.75Z"/></svg>