<svg width="24" height="24" viewBox="0 0 24 24" xmlns="http://www.w3.org/2000/svg" fill="#cacaca"><path d="M5.84375 6.53125C5.96875 6.07292 6.20833 5.70833 6.5625 5.4375C6.89583 5.14583 7.30208 5 7.78125 5H16.2188C16.6979 5 17.1042 5.14583 17.4375 5.4375C17.7917 5.70833 18.0312 6.07292 18.1562 6.53125L19.9375 13.625C19.9792 13.7917 20 13.9583 20 14.125V17C19.9792 17.5625 19.7812 18.0312 19.4062 18.4062C19.0312 18.7812 18.5625 18.9792 18 19H6C5.4375 18.9792 4.96875 18.7812 4.59375 18.4062C4.21875 18.0312 4.02083 17.5625 4 17V14.125C4 13.9583 4.02083 13.7917 4.0625 13.625L5.84375 6.53125ZM16.2188 7H7.78125L6.28125 13H7.875C8.29167 13.0208 8.59375 13.2083 8.78125 13.5625L9.21875 14.4375C9.40625 14.7917 9.70833 14.9792 10.125 15H13.875C14.2708 14.9792 14.5729 14.7917 14.7812 14.4375L15.2188 13.5625C15.4062 13.2083 15.7083 13.0208 16.125 13H17.7188L16.2188 7ZM9.5 8.5H14.5C14.8125 8.52083 14.9792 8.6875 15 9C14.9792 9.3125 14.8125 9.47917 14.5 9.5H9.5C9.1875 9.47917 9.02083 9.3125 9 9C9.02083 8.6875 9.1875 8.52083 9.5 8.5ZM8.5 11H15.5C15.8125 11.0208 15.9792 11.1875 16 11.5C15.9792 11.8125 15.8125 11.9792 15.5 12H8.5C8.1875 11.9792 8.02083 11.8125 8 11.5C8.02083 11.1875 8.1875 11.0208 8.5 11Z"/></svg>