<svg width="24" height="24" viewBox="0 0 24 24" xmlns="http://www.w3.org/2000/svg" fill="#cacaca"><path d="M20.5781 3.49608C20.8594 3.73045 21 4.02342 21 4.37499V9.43749C20.9766 9.90624 20.7539 10.3047 20.332 10.6328C19.9102 10.9375 19.3828 11.1015 18.75 11.125C18.1172 11.1015 17.5899 10.9375 17.168 10.6328C16.7461 10.3047 16.5234 9.90624 16.5 9.43749C16.5234 8.96874 16.7461 8.5703 17.168 8.24217C17.5899 7.93749 18.1172 7.77342 18.75 7.74999V5.74608L15.375 6.41405V10.5625C15.3516 11.0312 15.1289 11.4297 14.707 11.7578C14.2852 12.0625 13.7578 12.2265 13.125 12.25C12.4922 12.2265 11.9649 12.0625 11.543 11.7578C11.1211 11.4297 10.8984 11.0312 10.875 10.5625C10.8984 10.0937 11.1211 9.6953 11.543 9.36717C11.9649 9.06249 12.4922 8.89842 13.125 8.87499V5.49999C13.1719 4.91405 13.4766 4.55077 14.0391 4.41014L19.6641 3.28514C19.9922 3.21483 20.2969 3.28514 20.5781 3.49608ZM5.63673 13.9375L6.0586 13.3047C6.26954 12.9765 6.57423 12.8125 6.97267 12.8125H9.15235C9.55079 12.8125 9.85548 12.9765 10.0664 13.3047L10.4883 13.9375H11.4375C11.9063 13.9609 12.3047 14.125 12.6328 14.4297C12.9375 14.7578 13.1016 15.1562 13.125 15.625V19.5625C13.1016 20.0312 12.9375 20.4297 12.6328 20.7578C12.3047 21.0625 11.9063 21.2265 11.4375 21.25H4.68751C4.21876 21.2265 3.82032 21.0625 3.4922 20.7578C3.18751 20.4297 3.02345 20.0312 3.00001 19.5625V15.625C3.02345 15.1562 3.18751 14.7578 3.4922 14.4297C3.82032 14.125 4.21876 13.9609 4.68751 13.9375H5.63673ZM9.75001 17.5937C9.72657 16.9609 9.44532 16.4687 8.90626 16.1172C8.34376 15.8359 7.78126 15.8359 7.21876 16.1172C6.6797 16.4687 6.39845 16.9609 6.37501 17.5937C6.39845 18.2265 6.6797 18.7187 7.21876 19.0703C7.78126 19.3515 8.34376 19.3515 8.90626 19.0703C9.44532 18.7187 9.72657 18.2265 9.75001 17.5937ZM19.8399 13.0234L18.4688 16.1875H20.4375C20.6953 16.1875 20.8711 16.3047 20.9649 16.539C21.0352 16.7969 20.9883 17.0078 20.8242 17.1719L16.3242 21.1094C16.0899 21.2969 15.8555 21.3086 15.6211 21.1445C15.3867 20.957 15.3164 20.7344 15.4102 20.4765L16.7813 17.3125H14.8125C14.5547 17.3125 14.3789 17.1953 14.2852 16.9609C14.2149 16.7031 14.2617 16.4922 14.4258 16.3281L18.9258 12.3906C19.1602 12.2031 19.3945 12.1914 19.6289 12.3555C19.8633 12.543 19.9336 12.7656 19.8399 13.0234ZM7.92189 10.9492C7.64064 11.1836 7.3711 11.1836 7.11329 10.9492L3.70314 7.43358C3.21095 6.89452 2.97657 6.27342 3.00001 5.5703C3.02345 4.89061 3.31642 4.29295 3.87892 3.77733C4.3711 3.37889 4.92189 3.20311 5.53126 3.24999C6.16407 3.29686 6.70314 3.55467 7.14845 4.02342L7.50001 4.37499L7.85157 4.02342C8.29689 3.55467 8.83595 3.29686 9.46876 3.24999C10.0781 3.20311 10.6406 3.37889 11.1563 3.77733C11.6953 4.29295 11.9766 4.89061 12 5.5703C12.0234 6.27342 11.7891 6.89452 11.2969 7.43358L7.92189 10.9492Z"/></svg>