<svg width="24" height="24" viewBox="0 0 24 24" xmlns="http://www.w3.org/2000/svg" fill="#cacaca"><path d="M5 6H19C19.5625 6.02083 20.0312 6.21875 20.4062 6.59375C20.7812 6.96875 20.9792 7.4375 21 8V16C20.9792 16.5625 20.7812 17.0312 20.4062 17.4062C20.0312 17.7812 19.5625 17.9792 19 18H5C4.4375 17.9792 3.96875 17.7812 3.59375 17.4062C3.21875 17.0312 3.02083 16.5625 3 16V8C3.02083 7.4375 3.21875 6.96875 3.59375 6.59375C3.96875 6.21875 4.4375 6.02083 5 6ZM5.5 8C5.1875 8.02083 5.02083 8.1875 5 8.5V9.5C5.02083 9.8125 5.1875 9.97917 5.5 10H6.5C6.8125 9.97917 6.97917 9.8125 7 9.5V8.5C6.97917 8.1875 6.8125 8.02083 6.5 8H5.5ZM5 11.5V12.5C5.02083 12.8125 5.1875 12.9792 5.5 13H6.5C6.8125 12.9792 6.97917 12.8125 7 12.5V11.5C6.97917 11.1875 6.8125 11.0208 6.5 11H5.5C5.1875 11.0208 5.02083 11.1875 5 11.5ZM5.5 14C5.1875 14.0208 5.02083 14.1875 5 14.5V15.5C5.02083 15.8125 5.1875 15.9792 5.5 16H6.5C6.8125 15.9792 6.97917 15.8125 7 15.5V14.5C6.97917 14.1875 6.8125 14.0208 6.5 14H5.5ZM8 8.5V9.5C8.02083 9.8125 8.1875 9.97917 8.5 10H9.5C9.8125 9.97917 9.97917 9.8125 10 9.5V8.5C9.97917 8.1875 9.8125 8.02083 9.5 8H8.5C8.1875 8.02083 8.02083 8.1875 8 8.5ZM8.5 11C8.1875 11.0208 8.02083 11.1875 8 11.5V12.5C8.02083 12.8125 8.1875 12.9792 8.5 13H9.5C9.8125 12.9792 9.97917 12.8125 10 12.5V11.5C9.97917 11.1875 9.8125 11.0208 9.5 11H8.5ZM8 14.5V15.5C8.02083 15.8125 8.1875 15.9792 8.5 16H15.5C15.8125 15.9792 15.9792 15.8125 16 15.5V14.5C15.9792 14.1875 15.8125 14.0208 15.5 14H8.5C8.1875 14.0208 8.02083 14.1875 8 14.5ZM11.5 8C11.1875 8.02083 11.0208 8.1875 11 8.5V9.5C11.0208 9.8125 11.1875 9.97917 11.5 10H12.5C12.8125 9.97917 12.9792 9.8125 13 9.5V8.5C12.9792 8.1875 12.8125 8.02083 12.5 8H11.5ZM11 11.5V12.5C11.0208 12.8125 11.1875 12.9792 11.5 13H12.5C12.8125 12.9792 12.9792 12.8125 13 12.5V11.5C12.9792 11.1875 12.8125 11.0208 12.5 11H11.5C11.1875 11.0208 11.0208 11.1875 11 11.5ZM14.5 8C14.1875 8.02083 14.0208 8.1875 14 8.5V9.5C14.0208 9.8125 14.1875 9.97917 14.5 10H15.5C15.8125 9.97917 15.9792 9.8125 16 9.5V8.5C15.9792 8.1875 15.8125 8.02083 15.5 8H14.5ZM14 11.5V12.5C14.0208 12.8125 14.1875 12.9792 14.5 13H15.5C15.8125 12.9792 15.9792 12.8125 16 12.5V11.5C15.9792 11.1875 15.8125 11.0208 15.5 11H14.5C14.1875 11.0208 14.0208 11.1875 14 11.5ZM17.5 8C17.1875 8.02083 17.0208 8.1875 17 8.5V9.5C17.0208 9.8125 17.1875 9.97917 17.5 10H18.5C18.8125 9.97917 18.9792 9.8125 19 9.5V8.5C18.9792 8.1875 18.8125 8.02083 18.5 8H17.5ZM17 11.5V12.5C17.0208 12.8125 17.1875 12.9792 17.5 13H18.5C18.8125 12.9792 18.9792 12.8125 19 12.5V11.5C18.9792 11.1875 18.8125 11.0208 18.5 11H17.5C17.1875 11.0208 17.0208 11.1875 17 11.5ZM17.5 14C17.1875 14.0208 17.0208 14.1875 17 14.5V15.5C17.0208 15.8125 17.1875 15.9792 17.5 16H18.5C18.8125 15.9792 18.9792 15.8125 19 15.5V14.5C18.9792 14.1875 18.8125 14.0208 18.5 14H17.5Z"/></svg>