<svg width="24" height="24" viewBox="0 0 24 24" xmlns="http://www.w3.org/2000/svg" fill="#cacaca"><path d="M14.8125 15.375C14.1562 15.375 13.5234 15.2812 12.9141 15.0938L11.7539 16.2539C11.5898 16.418 11.3906 16.5 11.1562 16.5H9.75V17.9062C9.70312 18.4219 9.42188 18.7031 8.90625 18.75H7.5V20.1562C7.45312 20.6719 7.17188 20.9531 6.65625 21H3.84375C3.32812 20.9531 3.04688 20.6719 3 20.1562V17.3438C3 17.1094 3.08203 16.9102 3.24609 16.7461L8.90625 11.0859C8.71875 10.4766 8.625 9.84375 8.625 9.1875C8.67188 7.42969 9.28125 5.97656 10.4531 4.82812C11.6016 3.65625 13.0547 3.04688 14.8125 3C16.5703 3.04688 18.0234 3.65625 19.1719 4.82812C20.3438 5.97656 20.9531 7.42969 21 9.1875C20.9531 10.9453 20.3438 12.3984 19.1719 13.5469C18.0234 14.7188 16.5703 15.3281 14.8125 15.375ZM16.2188 6.375C15.6797 6.39844 15.2695 6.63281 14.9883 7.07812C14.7539 7.54688 14.7539 8.01562 14.9883 8.48438C15.2695 8.92969 15.6797 9.16406 16.2188 9.1875C16.7578 9.16406 17.168 8.92969 17.4492 8.48438C17.6836 8.01562 17.6836 7.54688 17.4492 7.07812C17.168 6.63281 16.7578 6.39844 16.2188 6.375Z"/></svg>