<svg width="24" height="24" viewBox="0 0 24 24" xmlns="http://www.w3.org/2000/svg" fill="#cacaca"><path d="M2 8C2.02083 7.4375 2.21875 6.96875 2.59375 6.59375C2.96875 6.21875 3.4375 6.02083 4 6H20C20.5625 6.02083 21.0312 6.21875 21.4062 6.59375C21.7812 6.96875 21.9792 7.4375 22 8V16C21.9792 16.5625 21.7812 17.0312 21.4062 17.4062C21.0312 17.7812 20.5625 17.9792 20 18H4C3.4375 17.9792 2.96875 17.7812 2.59375 17.4062C2.21875 17.0312 2.02083 16.5625 2 16V8ZM12 8V16H20V8H12ZM7.5625 9.5C7.45833 9.27083 7.27083 9.14583 7 9.125C6.72917 9.14583 6.54167 9.27083 6.4375 9.5L4.4375 14C4.3125 14.3542 4.41667 14.625 4.75 14.8125C5.10417 14.9375 5.375 14.8333 5.5625 14.5L5.84375 13.875H8.15625L8.4375 14.5C8.625 14.8333 8.89583 14.9375 9.25 14.8125C9.58333 14.625 9.6875 14.3542 9.5625 14L7.5625 9.5ZM7 11.2812L7.59375 12.625H6.40625L7 11.2812ZM16 9.125C16.375 9.16667 16.5833 9.375 16.625 9.75V9.875H18.5C18.875 9.91667 19.0833 10.125 19.125 10.5C19.0833 10.875 18.875 11.0833 18.5 11.125H18.4375L18.375 11.2812C18.1042 12.0312 17.6979 12.7083 17.1562 13.3125C17.1771 13.3333 17.2083 13.3542 17.25 13.375L17.8125 13.7188C18.125 13.9479 18.1979 14.2292 18.0312 14.5625C17.8021 14.875 17.5208 14.9479 17.1875 14.7812L16.5938 14.4375C16.4479 14.3542 16.3125 14.2604 16.1875 14.1562C15.8542 14.4062 15.5 14.6146 15.125 14.7812L15 14.8125C14.6458 14.9375 14.375 14.8333 14.1875 14.5C14.0625 14.1458 14.1667 13.875 14.5 13.6875L14.625 13.625C14.8125 13.5417 15 13.4375 15.1875 13.3125L14.8125 12.9375C14.5625 12.6458 14.5625 12.3542 14.8125 12.0625C15.1042 11.8125 15.3958 11.8125 15.6875 12.0625L16.1562 12.5V12.5312C16.5521 12.1146 16.8646 11.6458 17.0938 11.125H13.75C13.375 11.0833 13.1667 10.875 13.125 10.5C13.1667 10.125 13.375 9.91667 13.75 9.875H15.375V9.75C15.4167 9.375 15.625 9.16667 16 9.125Z"/></svg>