<svg width="24" height="24" viewBox="0 0 24 24" fill="#cacaca" xmlns="http://www.w3.org/2000/svg">
   <path d="M11 18C11.5523 18 12 18.4477 12 19C12 19.5523 11.5523 20 11 20H3C2.70833 20 2.46875 19.9062 2.28125 19.7188C2.09375 19.5312 2 19.2917 2 19C2 18.7083 2.09375 18.4688 2.28125 18.2812C2.46875 18.0938 2.70833 18 3 18H11Z" /> <path d="M21 4C21.5523 4 22 4.44772 22 5C22 5.55228 21.5523 6 21 6H4V15H11C11.5523 15 12 15.4477 12 16C12 16.5523 11.5523 17 11 17H4C3.4375 16.9792 2.96875 16.7812 2.59375 16.4062C2.21875 16.0312 2.02083 15.5625 2 15V6C2.02083 5.4375 2.21875 4.96875 2.59375 4.59375C2.96875 4.21875 3.4375 4.02083 4 4H21Z" /> <path d="M21 7C21.5523 7 22 7.44772 22 8C22 8.55228 21.5523 9 21 9H16.5C14.567 9 13 10.567 13 12.5V14H5V7H21Z" /> <path d="M19.2861 10C20.8303 10.0002 21.9999 11.3002 22 12.7998V19.2002C21.9999 20.6998 20.8303 21.9998 19.2861 22H16.7139C15.2661 21.9998 14.1478 20.8571 14.0137 19.4785L14 19.2002V12.7998C14.0001 11.3002 15.1697 10.0002 16.7139 10H19.2861ZM18 18C17.4477 18 17 18.4477 17 19C17 19.5523 17.4477 20 18 20C18.5523 20 19 19.5523 19 19C19 18.4477 18.5523 18 18 18Z" /> 
</svg>
