<svg width="24" height="24" viewBox="0 0 24 24" xmlns="http://www.w3.org/2000/svg" fill="#cacaca"><path d="M6.6 5.70001H17.4C17.9062 5.71876 18.3281 5.89689 18.6656 6.23439C19.0031 6.57189 19.1812 6.99376 19.2 7.50001V14.7H17.4V7.50001H6.6V14.7H4.8V7.50001C4.81875 6.99376 4.99687 6.57189 5.33437 6.23439C5.67188 5.89689 6.09375 5.71876 6.6 5.70001ZM3.53438 15.6H20.4656C20.7844 15.6375 20.9625 15.8156 21 16.1344C20.9812 16.7531 20.775 17.2688 20.3813 17.6813C19.9688 18.075 19.4531 18.2813 18.8344 18.3H5.16562C4.54688 18.2813 4.04062 18.075 3.64687 17.6813C3.23437 17.2688 3.01875 16.7531 3 16.1344C3.0375 15.8156 3.21563 15.6375 3.53438 15.6Z"/></svg>