<svg width="24" height="24" viewBox="0 0 24 24" xmlns="http://www.w3.org/2000/svg" fill="#cacaca"><path d="M19.5527 15.1055C20.0467 14.8585 20.6475 15.0588 20.8945 15.5527C21.1415 16.0467 20.9412 16.6476 20.4473 16.8945L12.4473 20.8945C12.1657 21.0353 11.8343 21.0353 11.5527 20.8945L3.55274 16.8945L3.46387 16.8438C3.03575 16.5724 2.87392 16.0159 3.10547 15.5527C3.33704 15.0896 3.87959 14.8847 4.35352 15.0645L4.44727 15.1055L12 18.8818L19.5527 15.1055ZM19.5527 11.1055C20.0467 10.8585 20.6475 11.0588 20.8945 11.5527C21.1415 12.0467 20.9412 12.6476 20.4473 12.8945L12.4473 16.8945C12.1657 17.0353 11.8343 17.0353 11.5527 16.8945L3.55274 12.8945L3.46387 12.8438C3.03575 12.5724 2.87392 12.0159 3.10547 11.5527C3.33704 11.0896 3.87959 10.8847 4.35352 11.0645L4.44727 11.1055L12 14.8818L19.5527 11.1055ZM11.6602 3.05958C11.9161 2.96706 12.2008 2.98225 12.4473 3.10548L20.4473 7.10548C20.7861 7.27487 21 7.62124 21 8.00001C21 8.37878 20.7861 8.72515 20.4473 8.89454L12.4473 12.8945C12.1657 13.0353 11.8343 13.0353 11.5527 12.8945L3.55274 8.89454C3.21396 8.72515 3.00001 8.37878 3.00001 8.00001C3.00001 7.62124 3.21396 7.27487 3.55274 7.10548L11.5527 3.10548L11.6602 3.05958Z"/></svg>