<svg width="24" height="24" viewBox="0 0 24 24" xmlns="http://www.w3.org/2000/svg" fill="#cacaca"><path d="M10.747 8.59278C11.4653 8.64432 12.164 8.84982 12.7958 9.19532C13.3491 9.49788 13.8401 9.90175 14.2431 10.3848L14.4101 10.5957L14.4667 10.6807C14.7279 11.1153 14.6228 11.6861 14.208 11.9961C13.7931 12.3061 13.2158 12.2455 12.873 11.8721L12.8076 11.793L12.707 11.666C12.4644 11.3754 12.1696 11.1322 11.8369 10.9502C11.4565 10.7422 11.0356 10.6189 10.6035 10.5879C10.1714 10.5569 9.73785 10.619 9.33197 10.7705C8.97671 10.9032 8.64956 11.1014 8.36811 11.3545L8.24994 11.4668L5.84174 13.877C5.2953 14.447 4.99308 15.2093 4.99994 16C5.00695 16.7938 5.32525 17.5533 5.88569 18.1143C6.44609 18.6751 7.20405 18.993 7.99604 19C8.68916 19.006 9.36047 18.7732 9.89936 18.3457L10.122 18.1504L11.4853 16.7861L11.5615 16.7168C11.954 16.3964 12.5331 16.4194 12.8994 16.7852C13.2901 17.1755 13.2907 17.8085 12.9003 18.1992L11.5244 19.5762C11.5203 19.5802 11.5168 19.5849 11.5126 19.5889C10.5655 20.5046 9.29654 21.0113 7.97943 21C6.66218 20.9885 5.40182 20.4595 4.47065 19.5273C3.53952 18.5953 3.01138 17.3343 2.99994 16.0166C2.98859 14.6991 3.49451 13.4295 4.40912 12.4814L6.8349 10.0527L7.03119 9.86719C7.49872 9.44685 8.04138 9.11696 8.63178 8.89649C9.30668 8.64448 10.0285 8.54126 10.747 8.59278ZM16.0205 3C17.3377 3.01146 18.5981 3.54055 19.5292 4.47266C20.4604 5.40474 20.9885 6.66573 20.9999 7.9834C21.0106 9.21864 20.5661 10.4114 19.7568 11.3369L19.5908 11.5186L17.165 13.9473C16.6559 14.4571 16.043 14.8515 15.3681 15.1035C14.6932 15.3555 13.9714 15.4587 13.2529 15.4072C12.5346 15.3557 11.8359 15.1502 11.204 14.8047C10.6508 14.5021 10.1598 14.0983 9.75678 13.6152L9.58979 13.4043L9.53315 13.3193C9.27198 12.8847 9.37704 12.3139 9.79193 12.0039C10.2067 11.6939 10.784 11.7545 11.1269 12.1279L11.1923 12.207L11.2929 12.334C11.5355 12.6246 11.8303 12.8678 12.163 13.0498C12.5434 13.2578 12.9642 13.3811 13.3964 13.4121C13.8284 13.4431 14.262 13.381 14.6679 13.2295C15.0739 13.0779 15.4435 12.8401 15.7499 12.5332L18.1572 10.1221C18.7036 9.55205 19.0068 8.79065 18.9999 8C18.9929 7.20624 18.6746 6.44675 18.1142 5.88575C17.5538 5.3249 16.7958 5.00699 16.0038 5C15.2116 4.99311 14.448 5.29838 13.8779 5.84961L13.8769 5.84864L12.5038 7.2168C12.1124 7.60597 11.4792 7.60422 11.0898 7.21289C10.7003 6.82142 10.7023 6.18838 11.0937 5.79883L12.4775 4.42188L12.4872 4.41114C13.4344 3.49545 14.7033 2.98866 16.0205 3Z"/></svg>