<svg width="24" height="24" viewBox="0 0 24 24" xmlns="http://www.w3.org/2000/svg" fill="#cacaca"><path d="M2 12C2 10.6667 2.54206 9.39287 3.49902 8.45703C4.45537 7.52194 5.74782 7.00002 7.09082 7H9.5459L9.64746 7.00488C10.1518 7.05597 10.5459 7.48214 10.5459 8C10.5459 8.51786 10.1518 8.94403 9.64746 8.99512L9.5459 9H7.09082C6.26393 9.00002 5.47546 9.32157 4.89746 9.88672C4.3202 10.4511 4 11.2117 4 12C4 12.7883 4.3202 13.5489 4.89746 14.1133L5.12207 14.3125C5.35608 14.5002 5.61814 14.6542 5.90039 14.7686C6.27704 14.9211 6.68187 15 7.09082 15H9.5459L9.64746 15.0049C10.1518 15.056 10.5459 15.4821 10.5459 16C10.5459 16.5179 10.1518 16.944 9.64746 16.9951L9.5459 17H7.09082C6.42547 17 5.76629 16.8715 5.15039 16.6221C4.61142 16.4038 4.11383 16.0967 3.68066 15.7129L3.49902 15.543C2.54206 14.6071 2 13.3333 2 12ZM20 12C20 11.6092 19.9211 11.2217 19.7676 10.8594C19.6141 10.497 19.3885 10.1663 19.1025 9.88672C18.8166 9.60713 18.4761 9.38398 18.0996 9.23145C17.8172 9.11705 17.5187 9.04397 17.2148 9.01465L16.9092 9H14.4541C13.902 8.99976 13.4541 8.55214 13.4541 8C13.4541 7.44786 13.902 7.00024 14.4541 7H16.9092L17.1582 7.00586C17.7386 7.03378 18.3107 7.15968 18.8496 7.37793C19.4656 7.62742 20.0273 7.99384 20.501 8.45703C20.9746 8.92019 21.3518 9.47102 21.6094 10.0791C21.8671 10.6874 22 11.3402 22 12C22 12.6598 21.8671 13.3126 21.6094 13.9209C21.3518 14.529 20.9746 15.0798 20.501 15.543C20.0273 16.0062 19.4656 16.3726 18.8496 16.6221C18.3107 16.8403 17.7386 16.9662 17.1582 16.9941L16.9092 17H14.4541C13.902 16.9998 13.4541 16.5521 13.4541 16C13.4541 15.4479 13.902 15.0002 14.4541 15H16.9092L17.2148 14.9854C17.5187 14.956 17.8172 14.8829 18.0996 14.7686C18.4761 14.616 18.8166 14.3929 19.1025 14.1133C19.3885 13.8337 19.6141 13.503 19.7676 13.1406C19.9211 12.7783 20 12.3908 20 12ZM15.2725 11C15.8247 11 16.2725 11.4477 16.2725 12C16.2725 12.5523 15.8247 13 15.2725 13H8.72754C8.17525 13 7.72754 12.5523 7.72754 12C7.72754 11.4477 8.17525 11 8.72754 11H15.2725Z"/></svg>