<svg width="24" height="24" viewBox="0 0 24 24" xmlns="http://www.w3.org/2000/svg" fill="#cacaca"><path d="M19.8039 16.1181C19.4806 16.3315 19.0575 16.2514 18.7881 15.9731C18.3161 15.4854 18.5518 14.6347 19.048 14.1716C19.1606 14.0665 19.2663 13.9518 19.3649 13.8275C19.7816 13.3025 19.9899 12.69 19.9899 11.99C19.9899 11.1566 19.6983 10.4483 19.1149 9.86496C18.5316 9.28163 17.8233 8.98996 16.9899 8.98996H13.9899C13.4377 8.98996 12.9899 8.54225 12.9899 7.98996C12.9899 7.43768 13.4377 6.98996 13.9899 6.98996H16.9899C18.3733 6.98996 19.5524 7.47746 20.5274 8.45246C21.5024 9.42746 21.9899 10.6066 21.9899 11.99C21.9899 12.94 21.7441 13.815 21.2524 14.615C20.8751 15.2289 20.3923 15.73 19.8039 16.1181ZM15.8399 12.99L13.8399 10.99H13.9899C15.0945 10.99 15.9899 11.8854 15.9899 12.99H15.8399ZM20.4899 21.89C20.1033 22.2766 19.4765 22.2766 19.0899 21.89L2.08994 4.88996C1.70334 4.50336 1.70334 3.87656 2.08994 3.48996C2.47654 3.10336 3.10334 3.10336 3.48994 3.48996L20.4899 20.49C20.8765 20.8766 20.8765 21.5034 20.4899 21.89ZM10.9899 15.99C10.9899 16.5422 10.5422 16.99 9.98994 16.99H6.98994C5.6066 16.99 4.42744 16.5025 3.45244 15.5275C2.47744 14.5525 1.98994 13.3733 1.98994 11.99C1.98994 10.84 2.33994 9.81496 3.03994 8.91496C3.73994 8.01496 4.63994 7.4233 5.73994 7.13996L7.58994 8.98996H6.98994C6.1566 8.98996 5.44827 9.28163 4.86494 9.86496C4.2816 10.4483 3.98994 11.1566 3.98994 11.99C3.98994 12.8233 4.2816 13.5316 4.86494 14.115C5.44827 14.6983 6.1566 14.99 6.98994 14.99H9.98994C10.5422 14.99 10.9899 15.4377 10.9899 15.99ZM8.98994 12.99C8.43765 12.99 7.98994 12.5422 7.98994 11.99C7.98994 11.4377 8.43765 10.99 8.98994 10.99H9.61494L11.5899 12.99H8.98994Z"/></svg>