<svg width="24" height="24" viewBox="0 0 24 24" xmlns="http://www.w3.org/2000/svg" fill="#cacaca"><path d="M20.543 3.20719C20.8477 3.44156 21 3.74625 21 4.12125V6.37125C20.9766 6.88688 20.7188 7.23844 20.2266 7.42594L17.625 8.30484V18.1838C17.6016 18.9806 17.2148 19.6486 16.4648 20.1877C15.7383 20.7033 14.8125 20.9728 13.6875 20.9963C12.5625 20.9728 11.6367 20.7033 10.9102 20.1877C10.1602 19.6486 9.77344 18.9806 9.75 18.1838C9.77344 17.3869 10.1602 16.7189 10.9102 16.1798C11.6367 15.6642 12.5625 15.3947 13.6875 15.3713C14.2969 15.3713 14.8594 15.465 15.375 15.6525V5.24625C15.3984 4.73063 15.6562 4.37906 16.1484 4.19156L19.5234 3.06656C19.875 2.94938 20.2148 2.99625 20.543 3.20719ZM4.125 5.24625H12C12.3281 5.24625 12.5977 5.35172 12.8086 5.56266C13.0195 5.77359 13.125 6.04313 13.125 6.37125C13.125 6.69938 13.0195 6.96891 12.8086 7.17984C12.5977 7.39078 12.3281 7.49625 12 7.49625H4.125C3.79688 7.49625 3.52734 7.39078 3.31641 7.17984C3.10547 6.96891 3 6.69938 3 6.37125C3 6.04313 3.10547 5.77359 3.31641 5.56266C3.52734 5.35172 3.79688 5.24625 4.125 5.24625ZM4.125 9.74625H12C12.3281 9.74625 12.5977 9.85172 12.8086 10.0627C13.0195 10.2736 13.125 10.5431 13.125 10.8713C13.125 11.1994 13.0195 11.4689 12.8086 11.6798C12.5977 11.8908 12.3281 11.9963 12 11.9963H4.125C3.79688 11.9963 3.52734 11.8908 3.31641 11.6798C3.10547 11.4689 3 11.1994 3 10.8713C3 10.5431 3.10547 10.2736 3.31641 10.0627C3.52734 9.85172 3.79688 9.74625 4.125 9.74625ZM4.125 14.2463H7.5C7.82812 14.2463 8.09766 14.3517 8.30859 14.5627C8.51953 14.7736 8.625 15.0431 8.625 15.3713C8.625 15.6994 8.51953 15.9689 8.30859 16.1798C8.09766 16.3908 7.82812 16.4963 7.5 16.4963H4.125C3.79688 16.4963 3.52734 16.3908 3.31641 16.1798C3.10547 15.9689 3 15.6994 3 15.3713C3 15.0431 3.10547 14.7736 3.31641 14.5627C3.52734 14.3517 3.79688 14.2463 4.125 14.2463Z"/></svg>