<svg width="24" height="24" viewBox="0 0 24 24" xmlns="http://www.w3.org/2000/svg" fill="#cacaca"><path d="M3.22267 4.16062L7.78313 7.75237C8.65774 6.87786 9.73018 6.32608 11.0004 6.09704V5.0039C11.0004 4.7124 11.0942 4.47295 11.2816 4.28555C11.469 4.09816 11.7085 4.00446 12 4.00446C12.2915 4.00446 12.531 4.09816 12.7184 4.28555C12.9058 4.47295 12.9996 4.7124 12.9996 5.0039V6.09704C14.2698 6.32608 15.3527 6.87786 16.2481 7.75237C17.1227 8.6477 17.6746 9.73043 17.9036 11.0006H18.9969C19.2884 11.0006 19.5279 11.0943 19.7153 11.2817C19.9027 11.469 19.9964 11.7085 19.9964 12C19.9964 12.2915 19.9027 12.531 19.7153 12.7183C19.5279 12.9057 19.2884 12.9994 18.9969 12.9994H17.9036C17.7787 13.749 17.5288 14.4466 17.1539 15.092L21.7144 18.6525C22.0476 18.9649 22.0892 19.3188 21.8394 19.7144C21.527 20.0476 21.173 20.0892 20.7773 19.8394L2.28559 5.34746C1.9524 5.03514 1.91075 4.68117 2.16064 4.28555C2.473 3.95241 2.82701 3.91076 3.22267 4.16062ZM9.37617 9.00167L10.5944 9.93865C10.99 9.64715 11.4586 9.50139 12 9.50139C12.708 9.52222 13.3015 9.76167 13.7805 10.2197C14.2386 10.6986 14.4781 11.2921 14.4989 12C14.4989 12.3123 14.4468 12.6038 14.3427 12.8745L15.5609 13.8427C15.8524 13.2805 15.9982 12.6663 15.9982 12C15.9774 10.8756 15.5921 9.92824 14.8425 9.15784C14.072 8.40825 13.1245 8.02305 12 8.00223C10.9796 8.02305 10.105 8.3562 9.37617 9.00167ZM14.9674 17.2158C14.3635 17.549 13.7076 17.778 12.9996 17.903V18.9961C12.9996 19.2876 12.9058 19.5271 12.7184 19.7144C12.531 19.9018 12.2915 19.9955 12 19.9955C11.7085 19.9955 11.469 19.9018 11.2816 19.7144C11.0942 19.5271 11.0004 19.2876 11.0004 18.9961V17.903C9.73018 17.6739 8.64733 17.1221 7.7519 16.2476C6.87729 15.3523 6.32545 14.2696 6.09639 12.9994H5.00312C4.71159 12.9994 4.47211 12.9057 4.28469 12.7183C4.09728 12.531 4.00357 12.2915 4.00357 12C4.00357 11.7085 4.09728 11.469 4.28469 11.2817C4.47211 11.0943 4.71159 11.0006 5.00312 11.0006H6.09639C6.11721 10.7715 6.16927 10.5529 6.25257 10.3447L8.00178 11.7501C8.00178 11.8334 8.00178 11.9167 8.00178 12C8.02261 13.1244 8.40785 14.0718 9.15752 14.8422C9.92801 15.5917 10.8755 15.9769 12 15.9978C12.4165 15.9978 12.8121 15.9353 13.187 15.8104L14.9674 17.2158Z"/></svg>