<svg width="24" height="24" viewBox="0 0 24 24" xmlns="http://www.w3.org/2000/svg" fill="#cacaca"><path d="M6.12499 17.5L10.9687 5.6875C11.1771 5.25 11.5208 5.02083 12 5C12.4792 5.02083 12.8229 5.25 13.0312 5.6875L17.875 17.5C18.0208 17.875 17.9896 18.2188 17.7812 18.5312C17.5729 18.8229 17.2708 18.9792 16.875 19C16.625 19 16.4062 18.9271 16.2187 18.7812L12 15.5L7.78124 18.7812C7.59374 18.9271 7.37499 19 7.12499 19C6.72915 18.9792 6.42707 18.8229 6.21874 18.5312C6.0104 18.2188 5.97915 17.875 6.12499 17.5Z"/></svg>