<svg width="24" height="24" viewBox="0 0 24 24" xmlns="http://www.w3.org/2000/svg" fill="#cacaca"><path d="M12.8454 20.5773C12.6106 20.8591 12.3288 21 12 21C11.6713 21 11.3895 20.8591 11.1546 20.5773C10.5206 19.8023 9.74562 18.7573 8.82977 17.4423C7.91392 16.1507 7.092 14.8121 6.36402 13.4266C5.65952 12.0411 5.28378 10.82 5.23682 9.76321C5.28378 7.83757 5.94132 6.2407 7.20942 4.9726C8.47752 3.7045 10.0744 3.04697 12 3C13.9257 3.04697 15.5225 3.7045 16.7906 4.9726C18.0587 6.2407 18.7163 7.83757 18.7632 9.76321C18.7163 10.82 18.3405 12.0411 17.636 13.4266C16.908 14.8121 16.0861 16.1507 15.1703 17.4423C14.2544 18.7573 13.4795 19.8023 12.8454 20.5773ZM12 7.50881C11.1546 7.53229 10.5088 7.90802 10.0626 8.63601C9.63995 9.38748 9.63995 10.1389 10.0626 10.8904C10.5088 11.6184 11.1546 11.9941 12 12.0176C12.8454 11.9941 13.4912 11.6184 13.9374 10.8904C14.3601 10.1389 14.3601 9.38748 13.9374 8.63601C13.4912 7.90802 12.8454 7.53229 12 7.50881Z"/></svg>