<svg width="24" height="24" viewBox="0 0 24 24" xmlns="http://www.w3.org/2000/svg" fill="#cacaca"><path d="M12 3C12.3281 3 12.5977 3.10547 12.8086 3.31641C13.0195 3.52734 13.125 3.79688 13.125 4.125V5.35547C14.5547 5.61328 15.7734 6.23438 16.7812 7.21875C17.7656 8.22656 18.3867 9.44531 18.6445 10.875H19.875C20.2031 10.875 20.4727 10.9805 20.6836 11.1914C20.8945 11.4023 21 11.6719 21 12C21 12.3281 20.8945 12.5977 20.6836 12.8086C20.4727 13.0195 20.2031 13.125 19.875 13.125H18.6445C18.3867 14.5547 17.7656 15.7734 16.7812 16.7812C15.7734 17.7656 14.5547 18.3867 13.125 18.6445V19.875C13.125 20.2031 13.0195 20.4727 12.8086 20.6836C12.5977 20.8945 12.3281 21 12 21C11.6719 21 11.4023 20.8945 11.1914 20.6836C10.9805 20.4727 10.875 20.2031 10.875 19.875V18.6445C9.44531 18.3867 8.22656 17.7656 7.21875 16.7812C6.23438 15.7734 5.61328 14.5547 5.35547 13.125H4.125C3.79688 13.125 3.52734 13.0195 3.31641 12.8086C3.10547 12.5977 3 12.3281 3 12C3 11.6719 3.10547 11.4023 3.31641 11.1914C3.52734 10.9805 3.79688 10.875 4.125 10.875H5.35547C5.61328 9.44531 6.23438 8.22656 7.21875 7.21875C8.22656 6.23438 9.44531 5.61328 10.875 5.35547V4.125C10.875 3.79688 10.9805 3.52734 11.1914 3.31641C11.4023 3.10547 11.6719 3 12 3ZM7.5 12C7.5 12.8203 7.69922 13.5703 8.09766 14.25C8.49609 14.9297 9.04688 15.4805 9.75 15.9023C10.4531 16.3008 11.2031 16.5 12 16.5C12.7969 16.5 13.5469 16.3008 14.25 15.9023C14.9531 15.4805 15.5039 14.9297 15.9023 14.25C16.3008 13.5703 16.5 12.8203 16.5 12C16.5 11.1797 16.3008 10.4297 15.9023 9.75C15.5039 9.07031 14.9531 8.51953 14.25 8.09766C13.5469 7.69922 12.7969 7.5 12 7.5C11.2031 7.5 10.4531 7.69922 9.75 8.09766C9.04688 8.51953 8.49609 9.07031 8.09766 9.75C7.69922 10.4297 7.5 11.1797 7.5 12ZM12 9.1875C13.0547 9.21094 13.8633 9.67969 14.4258 10.5938C14.9414 11.5312 14.9414 12.4688 14.4258 13.4062C13.8633 14.3203 13.0547 14.7891 12 14.8125C10.9453 14.7891 10.1367 14.3203 9.57422 13.4062C9.05859 12.4688 9.05859 11.5312 9.57422 10.5938C10.1367 9.67969 10.9453 9.21094 12 9.1875Z"/></svg>