<svg width="24" height="24" viewBox="0 0 24 24" xmlns="http://www.w3.org/2000/svg" fill="#cacaca"><path d="M19 18.2227V5.77734C18.9999 5.57122 18.9182 5.3733 18.7725 5.22754C18.6267 5.08178 18.4288 5.00011 18.2227 5H14.667C14.1147 5 13.667 4.55228 13.667 4C13.667 3.44772 14.1147 3 14.667 3H18.2227C18.9592 3.00011 19.6657 3.29264 20.1865 3.81348C20.7074 4.33431 20.9999 5.04079 21 5.77734V18.2227C20.9999 18.9592 20.7074 19.6657 20.1865 20.1865C19.6657 20.7074 18.9592 20.9999 18.2227 21H14.667C14.1147 21 13.667 20.5523 13.667 20C13.667 19.4477 14.1147 19 14.667 19H18.2227C18.4288 18.9999 18.6267 18.9182 18.7725 18.7725C18.9182 18.6267 18.9999 18.4288 19 18.2227Z"/><path d="M15.374 11.293C15.7643 11.6835 15.7643 12.3165 15.374 12.707L10.9297 17.1514C10.5392 17.5419 9.90517 17.5419 9.51465 17.1514C9.12452 16.7609 9.12445 16.1277 9.51465 15.7373L12.2529 13H4C3.44772 13 3 12.5523 3 12C3 11.4477 3.44772 11 4 11H12.2529L9.51465 8.2627C9.12445 7.87226 9.12452 7.23911 9.51465 6.84863C9.90517 6.45811 10.5392 6.45811 10.9297 6.84863L15.374 11.293Z"/></svg>