<svg width="24" height="24" viewBox="0 0 24 24" xmlns="http://www.w3.org/2000/svg" fill="#cacaca"><path d="M15 18.9856L9 17.2377V5.00265L15 6.75051V18.9856ZM16 18.9538V6.65517L19.9688 5.06621C20.2396 4.96028 20.4688 4.98146 20.6562 5.12977C20.8646 5.27807 20.9792 5.48993 21 5.76535V16.4114C20.9792 16.7292 20.8229 16.9623 20.5312 17.1106L16 18.9538ZM3.46875 6.87763L8 5.03443V17.333L4.03125 18.9538C3.76042 19.0385 3.53125 19.0067 3.34375 18.8584C3.13542 18.7101 3.02083 18.4983 3 18.2229V7.57677C3.02083 7.25898 3.17708 7.02593 3.46875 6.87763Z"/></svg>