<svg width="24" height="24" viewBox="0 0 24 24" xmlns="http://www.w3.org/2000/svg" fill="#cacaca"><path d="M7.5 8.5C7.5 7.6875 7.69792 6.9375 8.09375 6.25C8.48958 5.5625 9.04167 5.01042 9.75 4.59375C10.4583 4.19792 11.2083 4 12 4C12.7917 4 13.5417 4.19792 14.25 4.59375C14.9583 5.01042 15.5104 5.5625 15.9062 6.25C16.3021 6.9375 16.5 7.6875 16.5 8.5C16.5 9.3125 16.3021 10.0625 15.9062 10.75C15.5104 11.4375 14.9583 11.9896 14.25 12.4062C13.5417 12.8021 12.7917 13 12 13C11.2083 13 10.4583 12.8021 9.75 12.4062C9.04167 11.9896 8.48958 11.4375 8.09375 10.75C7.69792 10.0625 7.5 9.3125 7.5 8.5ZM12 6.5C12.3125 6.47917 12.4792 6.3125 12.5 6C12.4792 5.6875 12.3125 5.52083 12 5.5C11.1458 5.52083 10.4375 5.8125 9.875 6.375C9.3125 6.9375 9.02083 7.64583 9 8.5C9.02083 8.8125 9.1875 8.97917 9.5 9C9.8125 8.97917 9.97917 8.8125 10 8.5C10.0208 7.9375 10.2188 7.46875 10.5938 7.09375C10.9688 6.71875 11.4375 6.52083 12 6.5ZM11 19V13.9062C11.3333 13.9688 11.6667 14 12 14C12.3333 14 12.6667 13.9688 13 13.9062V19C13 19.2917 12.9062 19.5312 12.7188 19.7188C12.5312 19.9062 12.2917 20 12 20C11.7083 20 11.4688 19.9062 11.2812 19.7188C11.0938 19.5312 11 19.2917 11 19Z"/></svg>