<svg width="24" height="24" viewBox="0 0 24 24" xmlns="http://www.w3.org/2000/svg" fill="#cacaca"><path d="M14.6518 3.60268C14.8125 3.22768 15.1071 3.02679 15.5357 3H20.0357C20.625 3.05357 20.9464 3.375 21 3.96429V8.46429C20.9732 8.89286 20.7723 9.1875 20.3973 9.34821C20.0223 9.50893 19.6741 9.44196 19.3527 9.14732L18.0268 7.82143L15.8973 9.91071C16.7009 11.0893 17.1161 12.4286 17.1429 13.9286C17.0893 15.9375 16.3929 17.5982 15.0536 18.9107C13.7411 20.25 12.0804 20.9464 10.0714 21C8.0625 20.9464 6.40179 20.25 5.08929 18.9107C3.75 17.5982 3.05357 15.9375 3 13.9286C3.05357 11.9196 3.75 10.2589 5.08929 8.94643C6.40179 7.60714 8.0625 6.91071 10.0714 6.85714C11.5714 6.88393 12.9107 7.29911 14.0893 8.10268L16.1786 5.97321L14.8527 4.64732C14.558 4.32589 14.4911 3.97768 14.6518 3.60268ZM10.0714 18.4286C10.875 18.4286 11.625 18.2277 12.3214 17.8259C13.0179 17.4241 13.567 16.875 13.9688 16.1786C14.3705 15.4821 14.5714 14.7321 14.5714 13.9286C14.5714 13.125 14.3705 12.375 13.9688 11.6786C13.567 10.9821 13.0179 10.433 12.3214 10.0312C11.625 9.62946 10.875 9.42857 10.0714 9.42857C9.26786 9.42857 8.51786 9.62946 7.82143 10.0312C7.125 10.433 6.57589 10.9821 6.17411 11.6786C5.77232 12.375 5.57143 13.125 5.57143 13.9286C5.57143 14.7321 5.77232 15.4821 6.17411 16.1786C6.57589 16.875 7.125 17.4241 7.82143 17.8259C8.51786 18.2277 9.26786 18.4286 10.0714 18.4286Z"/></svg>