<svg width="24" height="24" viewBox="0 0 24 24" xmlns="http://www.w3.org/2000/svg" fill="#cacaca"><path d="M3.14062 4.33594C3.04687 4.19531 3 4.04297 3 3.87891C3.04688 3.33984 3.33984 3.04688 3.87891 3H7.71094C8.13281 3.02344 8.44922 3.21094 8.66016 3.5625L11.0859 7.57031C9.35156 7.80469 7.89844 8.53125 6.72656 9.75L3.14062 4.33594ZM20.8594 4.33594L17.2734 9.75L20.8594 4.33594L17.2734 9.75C16.1016 8.53125 14.6484 7.80469 12.9141 7.57031L15.3398 3.5625C15.5508 3.21094 15.8672 3.02344 16.2891 3H20.1211C20.6602 3.04688 20.9531 3.33984 21 3.87891C21 4.04297 20.9531 4.19531 20.8594 4.33594ZM5.8125 14.8125C5.8125 13.6875 6.09375 12.6562 6.65625 11.7188C7.19531 10.7812 7.94531 10.0312 8.90625 9.46875C9.89062 8.90625 10.9219 8.625 12 8.625C13.0781 8.625 14.1094 8.90625 15.0938 9.46875C16.0547 10.0312 16.8047 10.7812 17.3438 11.7188C17.9062 12.6562 18.1875 13.6875 18.1875 14.8125C18.1875 15.9375 17.9062 16.9688 17.3438 17.9062C16.8047 18.8438 16.0547 19.5938 15.0938 20.1562C14.1094 20.7188 13.0781 21 12 21C10.9219 21 9.89062 20.7188 8.90625 20.1562C7.94531 19.5938 7.19531 18.8438 6.65625 17.9062C6.09375 16.9688 5.8125 15.9375 5.8125 14.8125ZM12.2812 11.4727C12.0938 11.2383 11.9062 11.2383 11.7188 11.4727L10.9102 13.0898C10.8633 13.1836 10.7812 13.2422 10.6641 13.2656L8.90625 13.5117C8.625 13.6289 8.56641 13.8164 8.73047 14.0742L9.99609 15.3047C10.0664 15.3984 10.1016 15.5039 10.1016 15.6211L9.78516 17.3438C9.78516 17.4844 9.83203 17.6016 9.92578 17.6953C10.0195 17.7656 10.1367 17.7656 10.2773 17.6953L11.8594 16.8867C11.9531 16.8398 12.0469 16.8398 12.1406 16.8867L13.7227 17.6953C14.0273 17.7891 14.1914 17.6719 14.2148 17.3438L13.8984 15.6211C13.875 15.5039 13.9102 15.3984 14.0039 15.3047L15.2695 14.0742C15.4336 13.8164 15.375 13.6289 15.0938 13.5117L13.3359 13.2656C13.2188 13.2422 13.1367 13.1836 13.0898 13.0898L12.2812 11.4727Z"/></svg>