<svg width="24" height="24" viewBox="0 0 24 24" xmlns="http://www.w3.org/2000/svg" fill="#cacaca"><path d="M4 5.25C4.02381 4.61719 4.25 4.08984 4.67857 3.66797C5.10714 3.24609 5.64286 3.02344 6.28571 3H17.7143C18.3571 3.02344 18.8929 3.24609 19.3214 3.66797C19.75 4.08984 19.9762 4.61719 20 5.25V6.375H4V5.25ZM4 7.5H20V18.75C19.9762 19.3828 19.75 19.9102 19.3214 20.332C18.8929 20.7539 18.3571 20.9766 17.7143 21H6.28571C5.64286 20.9766 5.10714 20.7539 4.67857 20.332C4.25 19.9102 4.02381 19.3828 4 18.75V7.5ZM7.42857 10.875C7.45238 11.2266 7.64286 11.4141 8 11.4375H16C16.3571 11.4141 16.5476 11.2266 16.5714 10.875C16.5476 10.5234 16.3571 10.3359 16 10.3125H8C7.64286 10.3359 7.45238 10.5234 7.42857 10.875ZM7.42857 14.25C7.45238 14.6016 7.64286 14.7891 8 14.8125H16C16.3571 14.7891 16.5476 14.6016 16.5714 14.25C16.5476 13.8984 16.3571 13.7109 16 13.6875H8C7.64286 13.7109 7.45238 13.8984 7.42857 14.25ZM7.42857 17.625C7.45238 17.9766 7.64286 18.1641 8 18.1875H11.4286C11.7857 18.1641 11.9762 17.9766 12 17.625C11.9762 17.2734 11.7857 17.0859 11.4286 17.0625H8C7.64286 17.0859 7.45238 17.2734 7.42857 17.625Z"/></svg>