<svg width="24" height="24" viewBox="0 0 24 24" xmlns="http://www.w3.org/2000/svg" fill="#cacaca"><path d="M4 4.5C4.02778 3.79688 4.29167 3.21094 4.79167 2.74219C5.29167 2.27344 5.91667 2.02604 6.66667 2H17.3333C18.0833 2.02604 18.7083 2.27344 19.2083 2.74219C19.7083 3.21094 19.9722 3.79688 20 4.5V19.5C19.9722 20.2031 19.7083 20.7891 19.2083 21.2578C18.7083 21.7266 18.0833 21.974 17.3333 22H6.66667C5.91667 21.974 5.29167 21.7266 4.79167 21.2578C4.29167 20.7891 4.02778 20.2031 4 19.5V4.5ZM6.66667 7.625C6.69444 8.01562 6.91667 8.22396 7.33333 8.25H16.6667C17.0833 8.22396 17.3056 8.01562 17.3333 7.625C17.3056 7.23438 17.0833 7.02604 16.6667 7H7.33333C6.91667 7.02604 6.69444 7.23438 6.66667 7.625ZM7.33333 10.75C6.91667 10.776 6.69444 10.9844 6.66667 11.375C6.69444 11.7656 6.91667 11.974 7.33333 12H16.6667C17.0833 11.974 17.3056 11.7656 17.3333 11.375C17.3056 10.9844 17.0833 10.776 16.6667 10.75H7.33333ZM7.33333 14.5C6.91667 14.526 6.69444 14.7344 6.66667 15.125C6.69444 15.5156 6.91667 15.724 7.33333 15.75H12.6667C13.0833 15.724 13.3056 15.5156 13.3333 15.125C13.3056 14.7344 13.0833 14.526 12.6667 14.5H7.33333Z"/></svg>