<svg width="24" height="24" viewBox="0 0 24 24" xmlns="http://www.w3.org/2000/svg" fill="#cacaca"><path d="M3 5.25391C3.02344 4.62109 3.24609 4.09375 3.66797 3.67188C4.08984 3.25 4.61719 3.02734 5.25 3.00391H18.75C19.3828 3.02734 19.9102 3.25 20.332 3.67188C20.7539 4.09375 20.9766 4.62109 21 5.25391V15.3789C20.9766 16.0117 20.7539 16.5391 20.332 16.9609C19.9102 17.3828 19.3828 17.6055 18.75 17.6289H13.8633L9.53906 20.8984C9.35156 21.0156 9.15234 21.0273 8.94141 20.9336C8.73047 20.8398 8.625 20.6758 8.625 20.4414V17.6289H5.25C4.61719 17.6055 4.08984 17.3828 3.66797 16.9609C3.24609 16.5391 3.02344 16.0117 3 15.3789V5.25391ZM7.21875 9.75391C6.70312 9.80078 6.42188 10.082 6.375 10.5977C6.42188 11.1133 6.70312 11.3945 7.21875 11.4414H12.2812C12.7969 11.3945 13.0781 11.1133 13.125 10.5977C13.0781 10.082 12.7969 9.80078 12.2812 9.75391H7.21875ZM15.0938 9.75391C14.5781 9.80078 14.2969 10.082 14.25 10.5977C14.2969 11.1133 14.5781 11.3945 15.0938 11.4414H16.7812C17.2969 11.3945 17.5781 11.1133 17.625 10.5977C17.5781 10.082 17.2969 9.80078 16.7812 9.75391H15.0938ZM7.21875 12.5664C6.70312 12.6133 6.42188 12.8945 6.375 13.4102C6.42188 13.9258 6.70312 14.207 7.21875 14.2539H8.90625C9.42188 14.207 9.70312 13.9258 9.75 13.4102C9.70312 12.8945 9.42188 12.6133 8.90625 12.5664H7.21875ZM11.7188 12.5664C11.2031 12.6133 10.9219 12.8945 10.875 13.4102C10.9219 13.9258 11.2031 14.207 11.7188 14.2539H16.7812C17.2969 14.207 17.5781 13.9258 17.625 13.4102C17.5781 12.8945 17.2969 12.6133 16.7812 12.5664H11.7188Z"/></svg>