<svg width="24" height="24" viewBox="0 0 24 24" xmlns="http://www.w3.org/2000/svg" fill="#cacaca"><path d="M3 5.25391C3.02344 4.62109 3.24609 4.09375 3.66797 3.67188C4.08984 3.25 4.61719 3.02734 5.25 3.00391H18.75C19.3828 3.02734 19.9102 3.25 20.332 3.67188C20.7539 4.09375 20.9766 4.62109 21 5.25391V15.3789C20.9766 16.0117 20.7539 16.5391 20.332 16.9609C19.9102 17.3828 19.3828 17.6055 18.75 17.6289H13.8633L9.53906 20.8984C9.35156 21.0156 9.15234 21.0273 8.94141 20.9336C8.73047 20.8398 8.625 20.6758 8.625 20.4414V17.6289H5.25C4.61719 17.6055 4.08984 17.3828 3.66797 16.9609C3.24609 16.5391 3.02344 16.0117 3 15.3789V5.25391ZM7.5 11.4414C7.82812 11.4414 8.09766 11.3359 8.30859 11.125C8.51953 10.9141 8.625 10.6445 8.625 10.3164C8.625 9.98828 8.51953 9.71875 8.30859 9.50781C8.09766 9.29688 7.82812 9.19141 7.5 9.19141C7.17188 9.19141 6.90234 9.29688 6.69141 9.50781C6.48047 9.71875 6.375 9.98828 6.375 10.3164C6.375 10.6445 6.48047 10.9141 6.69141 11.125C6.90234 11.3359 7.17188 11.4414 7.5 11.4414ZM12 11.4414C12.3281 11.4414 12.5977 11.3359 12.8086 11.125C13.0195 10.9141 13.125 10.6445 13.125 10.3164C13.125 9.98828 13.0195 9.71875 12.8086 9.50781C12.5977 9.29688 12.3281 9.19141 12 9.19141C11.6719 9.19141 11.4023 9.29688 11.1914 9.50781C10.9805 9.71875 10.875 9.98828 10.875 10.3164C10.875 10.6445 10.9805 10.9141 11.1914 11.125C11.4023 11.3359 11.6719 11.4414 12 11.4414ZM17.625 10.3164C17.625 9.98828 17.5195 9.71875 17.3086 9.50781C17.0977 9.29688 16.8281 9.19141 16.5 9.19141C16.1719 9.19141 15.9023 9.29688 15.6914 9.50781C15.4805 9.71875 15.375 9.98828 15.375 10.3164C15.375 10.6445 15.4805 10.9141 15.6914 11.125C15.9023 11.3359 16.1719 11.4414 16.5 11.4414C16.8281 11.4414 17.0977 11.3359 17.3086 11.125C17.5195 10.9141 17.625 10.6445 17.625 10.3164Z"/></svg>