<svg width="24" height="24" viewBox="0 0 24 24" xmlns="http://www.w3.org/2000/svg" fill="#cacaca"><path d="M4.8 4.8031H12.9C13.4062 4.82185 13.8281 4.99998 14.1656 5.33748C14.5031 5.67498 14.6812 6.09685 14.7 6.6031V12.0031C14.6812 12.5094 14.5031 12.9312 14.1656 13.2687C13.8281 13.6062 13.4062 13.7844 12.9 13.8031H8.70937L6.43125 15.5187C6.28125 15.6125 6.12187 15.6219 5.95312 15.5469C5.78437 15.4719 5.7 15.3406 5.7 15.1531V13.8031H4.8C4.29375 13.7844 3.87187 13.6062 3.53438 13.2687C3.19687 12.9312 3.01875 12.5094 3 12.0031V6.6031C3.01875 6.09685 3.19687 5.67498 3.53438 5.33748C3.87187 4.99998 4.29375 4.82185 4.8 4.8031ZM12.9 14.7031C13.6687 14.6844 14.3062 14.4219 14.8125 13.9156C15.3187 13.4094 15.5812 12.7719 15.6 12.0031V8.4031H19.2C19.7062 8.42185 20.1281 8.59998 20.4656 8.93748C20.8031 9.27498 20.9812 9.69685 21 10.2031V15.6031C20.9812 16.1094 20.8031 16.5312 20.4656 16.8687C20.1281 17.2062 19.7062 17.3844 19.2 17.4031H18.3V18.7531C18.3 18.9406 18.2156 19.0719 18.0469 19.1469C17.8781 19.2219 17.7188 19.2125 17.5687 19.1187L15.2906 17.4031H12C11.4937 17.3844 11.0719 17.2062 10.7344 16.8687C10.3969 16.5312 10.2188 16.1094 10.2 15.6031V14.7031H12.9Z"/></svg>