<svg width="24" height="24" viewBox="0 0 24 24" xmlns="http://www.w3.org/2000/svg" fill="#cacaca"><path d="M5.25 3.00391H18.75C19.3828 3.02734 19.9102 3.25 20.332 3.67188C20.7539 4.09375 20.9766 4.62109 21 5.25391V15.3789C20.9766 16.0117 20.7539 16.5391 20.332 16.9609C19.9102 17.3828 19.3828 17.6055 18.75 17.6289H13.8633L9.53906 20.8984C9.35156 21.0156 9.15234 21.0273 8.94141 20.9336C8.73047 20.8398 8.625 20.6758 8.625 20.4414V17.6289H5.25C4.61719 17.6055 4.08984 17.3828 3.66797 16.9609C3.24609 16.5391 3.02344 16.0117 3 15.3789V5.25391C3.02344 4.62109 3.24609 4.09375 3.66797 3.67188C4.08984 3.25 4.61719 3.02734 5.25 3.00391Z"/></svg>