<svg width="24" height="24" viewBox="0 0 24 24" xmlns="http://www.w3.org/2000/svg" fill="#cacaca"><path d="M8.625 6.375C8.64844 5.41406 8.97656 4.61719 9.60938 3.98438C10.2422 3.35156 11.0391 3.02344 12 3C12.9609 3.02344 13.7578 3.35156 14.3906 3.98438C15.0234 4.61719 15.3516 5.41406 15.375 6.375H12.5625C12.2109 6.39844 12.0234 6.58594 12 6.9375C12.0234 7.28906 12.2109 7.47656 12.5625 7.5H15.375V8.625H12.5625C12.2109 8.64844 12.0234 8.83594 12 9.1875C12.0234 9.53906 12.2109 9.72656 12.5625 9.75H15.375V10.875H12.5625C12.2109 10.8984 12.0234 11.0859 12 11.4375C12.0234 11.7891 12.2109 11.9766 12.5625 12H15.375C15.3516 12.9609 15.0234 13.7578 14.3906 14.3906C13.7578 15.0234 12.9609 15.3516 12 15.375C11.0391 15.3516 10.2422 15.0234 9.60938 14.3906C8.97656 13.7578 8.64844 12.9609 8.625 12V6.375ZM16.5 10.5938C16.5469 10.0781 16.8281 9.79688 17.3438 9.75C17.8594 9.79688 18.1406 10.0781 18.1875 10.5938V12C18.1641 13.5938 17.6484 14.9531 16.6406 16.0781C15.6562 17.2031 14.3906 17.8828 12.8438 18.1172V19.3125H14.5312C15.0469 19.3594 15.3281 19.6406 15.375 20.1562C15.3281 20.6719 15.0469 20.9531 14.5312 21H9.46875C8.95312 20.9531 8.67188 20.6719 8.625 20.1562C8.67188 19.6406 8.95312 19.3594 9.46875 19.3125H11.1562V18.1172C9.60938 17.8828 8.34375 17.2031 7.35938 16.0781C6.35156 14.9531 5.83594 13.5938 5.8125 12V10.5938C5.85938 10.0781 6.14062 9.79688 6.65625 9.75C7.17188 9.79688 7.45312 10.0781 7.5 10.5938V12C7.52344 13.2656 7.95703 14.332 8.80078 15.1992C9.66797 16.043 10.7344 16.4766 12 16.5C13.2656 16.4766 14.332 16.043 15.1992 15.1992C16.043 14.332 16.4766 13.2656 16.5 12V10.5938Z"/></svg>