<svg width="24" height="24" viewBox="0 0 24 24" xmlns="http://www.w3.org/2000/svg" fill="#cacaca"><path d="M3.22267 4.16062L9.00134 8.68935V7.00279C9.02216 6.1491 9.3137 5.44116 9.87595 4.87897C10.4382 4.31679 11.1462 4.02528 12 4.00446C12.8538 4.02528 13.5618 4.31679 14.1241 4.87897C14.6863 5.44116 14.9778 6.1491 14.9987 7.00279V13.4055L15.5609 13.8427C15.8524 13.2805 15.9982 12.6663 15.9982 12V10.7507C16.0399 10.2926 16.2898 10.0428 16.7479 10.0011C17.206 10.0428 17.4559 10.2926 17.4975 10.7507V12C17.4767 13.0203 17.2268 13.9468 16.7479 14.7797L21.7144 18.6525C22.0476 18.9649 22.0892 19.3188 21.8394 19.7144C21.527 20.0476 21.173 20.0892 20.7773 19.8394L2.28559 5.34746C1.9524 5.03514 1.91075 4.68117 2.16064 4.28555C2.473 3.95241 2.82701 3.91076 3.22267 4.16062ZM12.7497 17.4345V18.4964H14.249C14.7071 18.538 14.957 18.7879 14.9987 19.246C14.957 19.704 14.7071 19.9539 14.249 19.9955H9.751C9.29288 19.9539 9.04299 19.704 9.00134 19.246C9.04299 18.7879 9.29288 18.538 9.751 18.4964H11.2503V17.4345C9.87595 17.2262 8.75145 16.6224 7.87684 15.623C6.98141 14.6235 6.52328 13.4159 6.50245 12V10.7507C6.50245 10.6882 6.51287 10.6258 6.53369 10.5633L8.00178 11.7189V12C8.02261 13.1244 8.40785 14.0718 9.15752 14.8422C9.92801 15.5917 10.8755 15.9769 12 15.9978C12.4165 15.9978 12.8121 15.9353 13.187 15.8104L14.5301 16.8723C13.9887 17.1638 13.3952 17.3512 12.7497 17.4345Z"/></svg>