<svg width="24" height="24" viewBox="0 0 24 24" xmlns="http://www.w3.org/2000/svg" fill="#cacaca"><path d="M18.9688 5.03125C19.6562 5.73958 20 6.5625 20 7.5C20 8.4375 19.6562 9.26042 18.9688 9.96875L18.8438 10.125L13.875 5.1875L14.0312 5.03125C14.7396 4.34375 15.5625 4 16.5 4C17.4375 4 18.2604 4.34375 18.9688 5.03125ZM13.1875 5.875L18.125 10.8438L17.9688 10.9688C17.1562 11.7396 16.2292 12.0833 15.1875 12L12 8.8125C11.9167 7.77083 12.2604 6.84375 13.0312 6.03125L13.1875 5.875ZM11.1562 9.375L14.625 12.8438L14.1562 13.25L13 14.25V19C13 19.2917 12.9062 19.5312 12.7188 19.7188C12.5312 19.9062 12.2917 20 12 20C11.7083 20 11.4688 19.9062 11.2812 19.7188C11.0938 19.5312 11 19.2917 11 19V16L6.65625 19.75C6.44792 19.9167 6.21875 20 5.96875 20C5.71875 20 5.48958 19.9062 5.28125 19.7188L4.28125 18.7188C4.09375 18.5104 4 18.2812 4 18.0312C4 17.7812 4.08333 17.5521 4.25 17.3438L11.1562 9.375Z"/></svg>