<svg width="24" height="24" viewBox="0 0 24 24" xmlns="http://www.w3.org/2000/svg" fill="#cacaca"><path d="M12 3C12.9318 3.02344 13.7045 3.35156 14.3182 3.98438C14.9318 4.61719 15.25 5.41406 15.2727 6.375V12C15.25 12.9609 14.9318 13.7578 14.3182 14.3906C13.7045 15.0234 12.9318 15.3516 12 15.375C11.0682 15.3516 10.2955 15.0234 9.68182 14.3906C9.06818 13.7578 8.75 12.9609 8.72727 12V6.375C8.75 5.41406 9.06818 4.61719 9.68182 3.98438C10.2955 3.35156 11.0682 3.02344 12 3ZM7.63636 10.5938V12C7.65909 13.2656 8.07955 14.332 8.89773 15.1992C9.73864 16.043 10.7727 16.4766 12 16.5C13.2273 16.4766 14.2614 16.043 15.1023 15.1992C15.9205 14.332 16.3409 13.2656 16.3636 12V10.5938C16.4091 10.0781 16.6818 9.79688 17.1818 9.75C17.6818 9.79688 17.9545 10.0781 18 10.5938V12C17.9773 13.5938 17.4773 14.9531 16.5 16.0781C15.5455 17.2031 14.3182 17.8828 12.8182 18.1172V19.3125H14.4545C14.9545 19.3594 15.2273 19.6406 15.2727 20.1562C15.2273 20.6719 14.9545 20.9531 14.4545 21H9.54545C9.04545 20.9531 8.77273 20.6719 8.72727 20.1562C8.77273 19.6406 9.04545 19.3594 9.54545 19.3125H11.1818V18.1172C9.68182 17.8828 8.45455 17.2031 7.5 16.0781C6.52273 14.9531 6.02273 13.5938 6 12V10.5938C6.04545 10.0781 6.31818 9.79688 6.81818 9.75C7.31818 9.79688 7.59091 10.0781 7.63636 10.5938Z"/></svg>