<svg width="24" height="24" viewBox="0 0 24 24" xmlns="http://www.w3.org/2000/svg" fill="#cacaca"><path d="M5.57143 3H18.4286C19.1518 3.02679 19.7545 3.28125 20.2366 3.76339C20.7188 4.24554 20.9732 4.84821 21 5.57143V18.4286C20.9732 19.1518 20.7188 19.7545 20.2366 20.2366C19.7545 20.7188 19.1518 20.9732 18.4286 21H5.57143C4.84821 20.9732 4.24554 20.7188 3.76339 20.2366C3.28125 19.7545 3.02679 19.1518 3 18.4286V5.57143C3.02679 4.84821 3.28125 4.24554 3.76339 3.76339C4.24554 3.28125 4.84821 3.02679 5.57143 3ZM9.10714 11.0357C8.51786 11.0893 8.19643 11.4107 8.14286 12C8.19643 12.5893 8.51786 12.9107 9.10714 12.9643H14.8929C15.4821 12.9107 15.8036 12.5893 15.8571 12C15.8036 11.4107 15.4821 11.0893 14.8929 11.0357H9.10714Z"/></svg>