<svg width="24" height="24" viewBox="0 0 24 24" xmlns="http://www.w3.org/2000/svg" fill="#cacaca"><path fill-rule="evenodd" clip-rule="evenodd" d="M17 4.7998C16.9999 4.31175 16.635 4.00025 16.2861 4H7.71387C7.36497 4.00025 7.0001 4.31175 7 4.7998V19.2002L7.00391 19.2891C7.04511 19.7258 7.38663 19.9998 7.71387 20H16.2861C16.635 19.9998 16.9999 19.6883 17 19.2002V4.7998ZM12.1104 16.4053L12.0088 16.4004H12C11.4477 16.4004 11 16.8481 11 17.4004C11.0002 17.9525 11.4478 18.4004 12 18.4004H12.0088L12.1104 18.3945C12.6147 18.3435 13.0086 17.9181 13.0088 17.4004C13.0088 16.8825 12.6148 16.4563 12.1104 16.4053Z"/><path fill-rule="evenodd" clip-rule="evenodd" d="M16.2861 4C16.635 4.00025 16.9999 4.31175 17 4.7998V19.2002C16.9999 19.6883 16.635 19.9998 16.2861 20H7.71387C7.38663 19.9998 7.04511 19.7258 7.00391 19.2891L7 19.2002V4.7998C7.0001 4.31175 7.36497 4.00025 7.71387 4H16.2861ZM16.2861 22C17.8303 21.9998 18.9999 20.6998 19 19.2002V4.7998C18.9999 3.30016 17.8303 2.00023 16.2861 2H7.71387C6.16967 2.00023 5.0001 3.30016 5 4.7998V19.2002L5.01367 19.4785C5.1478 20.8571 6.2661 21.9998 7.71387 22H16.2861Z"/></svg>