<svg width="24" height="24" viewBox="0 0 24 24" xmlns="http://www.w3.org/2000/svg" fill="#cacaca"><path d="M4.22222 5H19.7778C20.4028 5.02431 20.9236 5.25521 21.3403 5.69271C21.7569 6.13021 21.9769 6.67708 22 7.33333V16.6667C21.9769 17.3229 21.7569 17.8698 21.3403 18.3073C20.9236 18.7448 20.4028 18.9757 19.7778 19H4.22222C3.59722 18.9757 3.07639 18.7448 2.65972 18.3073C2.24306 17.8698 2.02315 17.3229 2 16.6667V7.33333C2.02315 6.67708 2.24306 6.13021 2.65972 5.69271C3.07639 5.25521 3.59722 5.02431 4.22222 5ZM6.44444 16.6667C6.4213 16.0104 6.20139 15.4635 5.78472 15.026C5.36806 14.5885 4.84722 14.3576 4.22222 14.3333V16.6667H6.44444ZM4.22222 9.66667C4.84722 9.64236 5.36806 9.41146 5.78472 8.97396C6.20139 8.53646 6.4213 7.98958 6.44444 7.33333H4.22222V9.66667ZM17.5556 16.6667H19.7778V14.3333C19.1528 14.3576 18.6319 14.5885 18.2153 15.026C17.7986 15.4635 17.5787 16.0104 17.5556 16.6667ZM19.7778 9.66667V7.33333H17.5556C17.5787 7.98958 17.7986 8.53646 18.2153 8.97396C18.6319 9.41146 19.1528 9.64236 19.7778 9.66667ZM12 8.5C11.3981 8.5 10.8426 8.65799 10.3333 8.97396C9.82407 9.28993 9.41898 9.71528 9.11806 10.25C8.81713 10.809 8.66667 11.3924 8.66667 12C8.66667 12.6076 8.81713 13.191 9.11806 13.75C9.41898 14.2847 9.82407 14.7101 10.3333 15.026C10.8426 15.342 11.3981 15.5 12 15.5C12.6019 15.5 13.1574 15.342 13.6667 15.026C14.1759 14.7101 14.581 14.2847 14.8819 13.75C15.1829 13.191 15.3333 12.6076 15.3333 12C15.3333 11.3924 15.1829 10.809 14.8819 10.25C14.581 9.71528 14.1759 9.28993 13.6667 8.97396C13.1574 8.65799 12.6019 8.5 12 8.5Z"/></svg>