<svg width="24" height="24" viewBox="0 0 24 24" xmlns="http://www.w3.org/2000/svg" fill="#cacaca"><path d="M11.3691 3.22462C11.7619 2.90427 12.3409 2.92686 12.707 3.29298L15.1074 5.69337L15.1758 5.76856C15.4963 6.16134 15.4736 6.74127 15.1074 7.10743C14.7412 7.4736 14.1613 7.49628 13.7685 7.17579L13.6933 7.10743L13 6.41407V11H17.5859L16.8926 10.3067L16.8242 10.2315C16.5037 9.83868 16.5264 9.25875 16.8926 8.89259C17.2587 8.52642 17.8387 8.50374 18.2314 8.82423L18.3066 8.89259L20.707 11.293C21.0975 11.6835 21.0975 12.3165 20.707 12.707L18.3066 15.1074C17.9161 15.4976 17.283 15.4978 16.8926 15.1074C16.5022 14.717 16.5024 14.0839 16.8926 13.6934L17.5859 13H13V17.5859L13.6933 16.8926C14.0839 16.5025 14.717 16.5022 15.1074 16.8926C15.4978 17.283 15.4975 17.9161 15.1074 18.3067L12.707 20.707C12.3165 21.0976 11.6835 21.0976 11.293 20.707L8.89256 18.3067L8.8242 18.2315C8.50372 17.8387 8.5264 17.2588 8.89256 16.8926C9.25873 16.5264 9.83865 16.5037 10.2314 16.8242L10.3066 16.8926L11 17.5859V13H6.41405L7.10741 13.6934L7.17577 13.7686C7.49625 14.1613 7.47357 14.7413 7.10741 15.1074C6.74124 15.4736 6.16132 15.4963 5.76854 15.1758L5.69334 15.1074L3.29295 12.707C2.90243 12.3165 2.90243 11.6835 3.29295 11.293L5.69334 8.89259C6.0839 8.50245 6.71701 8.50219 7.10741 8.89259C7.4978 9.28298 7.49754 9.91609 7.10741 10.3067L6.41405 11H11V6.41407L10.3066 7.10743C9.91607 7.49757 9.28296 7.49783 8.89256 7.10743C8.50217 6.71704 8.50243 6.08393 8.89256 5.69337L11.293 3.29298L11.3691 3.22462Z"/></svg>