<svg width="24" height="24" viewBox="0 0 24 24" xmlns="http://www.w3.org/2000/svg" fill="#cacaca"><path d="M18.0001 5.00007V7.00007C17.9792 7.50007 17.7292 7.82299 17.2501 7.96882L14.0001 8.78132V12.6251L21.7188 18.6563C22.0522 18.9688 22.0938 19.323 21.8438 19.7188C21.5313 20.0522 21.1772 20.0938 20.7813 19.8438L2.28132 5.34382C1.94799 5.03132 1.90632 4.67715 2.15632 4.28132C2.46882 3.94799 2.82299 3.90632 3.21882 4.15632L12.0001 11.0626V6.00007C12.0209 5.50007 12.2709 5.17715 12.7501 5.03132L16.7501 4.03132C17.0626 3.96882 17.3542 4.03132 17.6251 4.21882C17.8751 4.40632 18.0001 4.66674 18.0001 5.00007ZM10.5001 15.0001C11.0209 15.0001 11.5001 15.073 11.9376 15.2188L14.0001 16.8438V17.5001C13.9792 18.2084 13.6355 18.8022 12.9688 19.2813C12.323 19.7397 11.5001 19.9792 10.5001 20.0001C9.50007 19.9792 8.67715 19.7397 8.03132 19.2813C7.36465 18.8022 7.0209 18.2084 7.00007 17.5001C7.0209 16.7917 7.36465 16.198 8.03132 15.7188C8.67715 15.2605 9.50007 15.0209 10.5001 15.0001Z"/></svg>