<svg width="24" height="24" viewBox="0 0 24 24" xmlns="http://www.w3.org/2000/svg" fill="#cacaca"><path d="M3.21882 4.15614L8.00007 7.90614C8.06257 7.46864 8.30215 7.17697 8.71882 7.03114L18.7188 4.03114C19.0313 3.9478 19.323 3.99989 19.5938 4.18739C19.8647 4.39572 20.0001 4.66655 20.0001 4.99989V15.4999C20.0001 16.0207 19.823 16.4895 19.4688 16.9061L21.7188 18.6561C22.0522 18.9686 22.0938 19.3228 21.8438 19.7186C21.5313 20.052 21.1772 20.0936 20.7813 19.8436L2.28132 5.34364C1.94799 5.03114 1.90632 4.67697 2.15632 4.28114C2.46882 3.9478 2.82299 3.90614 3.21882 4.15614ZM11.4063 10.5624L15.1563 13.5311C15.6772 13.177 16.2917 12.9999 17.0001 12.9999C17.3542 12.9999 17.6876 13.052 18.0001 13.1561V8.59364L11.4063 10.5624ZM8.00007 11.7186L10.0001 13.3124V17.4999C9.97924 18.2082 9.68757 18.802 9.12507 19.2811C8.56257 19.7395 7.85424 19.9791 7.00007 19.9999C6.1459 19.9791 5.43757 19.7395 4.87507 19.2811C4.31257 18.802 4.0209 18.2082 4.00007 17.4999C4.0209 16.7916 4.31257 16.1978 4.87507 15.7186C5.43757 15.2603 6.1459 15.0207 7.00007 14.9999C7.35424 14.9999 7.68757 15.052 8.00007 15.1561V11.7186Z"/></svg>