<svg width="24" height="24" viewBox="0 0 24 24" xmlns="http://www.w3.org/2000/svg" fill="#cacaca"><path d="M19.5938 4.18739C19.8646 4.39572 20 4.66655 20 4.99989V15.4999C19.9792 16.2082 19.6875 16.802 19.125 17.2811C18.5625 17.7395 17.8542 17.9791 17 17.9999C16.1458 17.9791 15.4375 17.7395 14.875 17.2811C14.3125 16.802 14.0208 16.2082 14 15.4999C14.0208 14.7916 14.3125 14.1978 14.875 13.7186C15.4375 13.2603 16.1458 13.0207 17 12.9999C17.3542 12.9999 17.6875 13.052 18 13.1561V8.59364L10 10.9999V17.4999C9.97917 18.2082 9.6875 18.802 9.125 19.2811C8.5625 19.7395 7.85417 19.9791 7 19.9999C6.14583 19.9791 5.4375 19.7395 4.875 19.2811C4.3125 18.802 4.02083 18.2082 4 17.4999C4.02083 16.7916 4.3125 16.1978 4.875 15.7186C5.4375 15.2603 6.14583 15.0207 7 14.9999C7.35417 14.9999 7.6875 15.052 8 15.1561V7.99989C8.02083 7.52072 8.26042 7.1978 8.71875 7.03114L18.7188 4.03114C19.0312 3.9478 19.3229 3.99989 19.5938 4.18739Z"/></svg>