<svg width="24" height="24" viewBox="0 0 24 24" fill="#cacaca" xmlns="http://www.w3.org/2000/svg">
   <path d="M6.375 6.375C6.39844 5.74219 6.62109 5.21484 7.04297 4.79297C7.46484 4.37109 7.99219 4.14844 8.625 4.125H18.75C19.3828 4.14844 19.9102 4.37109 20.332 4.79297C20.7539 5.21484 20.9766 5.74219 21 6.375V17.625C20.9766 18.2578 20.7539 18.7852 20.332 19.207C19.9102 19.6289 19.3828 19.8516 18.75 19.875H5.8125C5.01562 19.8516 4.34766 19.582 3.80859 19.0664C3.29297 18.5273 3.02344 17.8594 3 17.0625V7.5C3 7.17188 3.10547 6.90234 3.31641 6.69141C3.52734 6.48047 3.79688 6.375 4.125 6.375C4.45312 6.375 4.72266 6.48047 4.93359 6.69141C5.14453 6.90234 5.25 7.17188 5.25 7.5V17.0625C5.27344 17.4141 5.46094 17.6016 5.8125 17.625C6.16406 17.6016 6.35156 17.4141 6.375 17.0625V6.375ZM8.625 7.21875V10.0312C8.67188 10.5469 8.95312 10.8281 9.46875 10.875H13.4062C13.9219 10.8281 14.2031 10.5469 14.25 10.0312V7.21875C14.2031 6.70312 13.9219 6.42188 13.4062 6.375H9.46875C8.95312 6.42188 8.67188 6.70312 8.625 7.21875ZM15.9375 6.9375C15.9609 7.28906 16.1484 7.47656 16.5 7.5H18.1875C18.5391 7.47656 18.7266 7.28906 18.75 6.9375C18.7266 6.58594 18.5391 6.39844 18.1875 6.375H16.5C16.1484 6.39844 15.9609 6.58594 15.9375 6.9375ZM15.9375 10.3125C15.9609 10.6641 16.1484 10.8516 16.5 10.875H18.1875C18.5391 10.8516 18.7266 10.6641 18.75 10.3125C18.7266 9.96094 18.5391 9.77344 18.1875 9.75H16.5C16.1484 9.77344 15.9609 9.96094 15.9375 10.3125ZM8.625 13.6875C8.64844 14.0391 8.83594 14.2266 9.1875 14.25H18.1875C18.5391 14.2266 18.7266 14.0391 18.75 13.6875C18.7266 13.3359 18.5391 13.1484 18.1875 13.125H9.1875C8.83594 13.1484 8.64844 13.3359 8.625 13.6875ZM8.625 17.0625C8.64844 17.4141 8.83594 17.6016 9.1875 17.625H18.1875C18.5391 17.6016 18.7266 17.4141 18.75 17.0625C18.7266 16.7109 18.5391 16.5234 18.1875 16.5H9.1875C8.83594 16.5234 8.64844 16.7109 8.625 17.0625Z" /> 
</svg>
