<svg width="24" height="24" viewBox="0 0 24 24" xmlns="http://www.w3.org/2000/svg" fill="#cacaca"><path d="M5.57143 3H18.4286C19.1518 3.02679 19.7545 3.28125 20.2366 3.76339C20.7188 4.24554 20.9732 4.84821 21 5.57143V14.5714H16.5C15.9643 14.5982 15.5089 14.7857 15.1339 15.1339C14.7857 15.5089 14.5982 15.9643 14.5714 16.5V21H5.57143C4.84821 20.9732 4.24554 20.7188 3.76339 20.2366C3.28125 19.7545 3.02679 19.1518 3 18.4286V5.57143C3.02679 4.84821 3.28125 4.24554 3.76339 3.76339C4.24554 3.28125 4.84821 3.02679 5.57143 3ZM21 15.8571L15.8571 21V16.5C15.8839 16.0982 16.0982 15.8839 16.5 15.8571H21Z"/></svg>