<svg width="24" height="24" viewBox="0 0 24 24" xmlns="http://www.w3.org/2000/svg" fill="#cacaca"><path d="M20.4839 6.98233L12.5708 14.8954L10.0999 12.4246L18.013 4.51143C18.7011 3.82334 19.7958 3.82334 20.4839 4.51143C21.172 5.19953 21.172 6.29423 20.4839 6.98233ZM9.41182 13.1127L11.8827 15.5835C11.9453 15.8963 12.0078 16.1778 12.0078 16.4906C12.0078 18.4298 10.4127 19.9936 8.50478 19.9936H4.00087C3.43788 19.9936 3 19.5557 3 18.9928C3 18.461 3.43788 17.9919 4.00087 17.9919H4.12598C4.68897 17.9919 5.06429 17.4289 5.00174 16.8659C5.00174 16.7408 5.00174 16.6157 5.00174 16.4906C5.00174 14.5827 6.5656 12.9875 8.50478 12.9875C8.81755 12.9875 9.09904 13.0501 9.41182 13.1127ZM12.3206 8.7964L9.06777 12.0492C8.8801 12.018 8.69244 11.9867 8.50478 11.9867C8.4735 11.9867 8.44222 11.9867 8.41095 11.9867L4.56386 8.17086C3.78193 7.38893 3.78193 6.10657 4.56386 5.32464L5.31451 4.60527C6.09644 3.82334 7.34752 3.82334 8.12945 4.60527L12.3206 8.7964ZM13.0087 16.5844C13.0087 16.5531 13.0087 16.5219 13.0087 16.4906C13.0087 16.3029 12.9774 16.1153 12.9461 15.9276L16.2302 12.6748L18.576 15.0518C18.795 15.2395 18.9513 15.521 19.0139 15.8025L19.9522 19.0553C20.0148 19.3055 19.9522 19.587 19.7646 19.7747C19.5769 19.9936 19.2954 20.0562 19.0139 19.9623L15.7611 19.0553C15.4796 18.9615 15.2294 18.8051 15.0104 18.6174L13.0087 16.5844Z"/></svg>