<svg width="24" height="24" viewBox="0 0 24 24" xmlns="http://www.w3.org/2000/svg" fill="#cacaca"><path d="M3.4375 5C3.58333 5 3.72917 5.02083 3.875 5.0625C4.14583 5.1875 5 5.40625 6.4375 5.71875C7.89583 6.03125 9.75 6.20833 12 6.25C14.25 6.20833 16.1042 6.03125 17.5625 5.71875C19 5.40625 19.8542 5.1875 20.125 5.0625C20.2708 5.02083 20.4167 5 20.5625 5C20.9792 5 21.3229 5.13542 21.5938 5.40625C21.8438 5.67708 21.9792 6.02083 22 6.4375V17.5625C21.9792 17.9792 21.8438 18.3229 21.5938 18.5938C21.3229 18.8646 20.9792 19 20.5625 19C20.4167 19 20.2708 18.9792 20.125 18.9375C19.8542 18.8125 19 18.5938 17.5625 18.2812C16.1042 17.9688 14.25 17.7917 12 17.75C9.75 17.7917 7.89583 17.9688 6.4375 18.2812C5 18.5938 4.14583 18.8125 3.875 18.9375C3.72917 18.9792 3.58333 19 3.4375 19C3.02083 19 2.67708 18.8646 2.40625 18.5938C2.13542 18.3229 2 17.9792 2 17.5625V6.4375C2 6.02083 2.13542 5.67708 2.40625 5.40625C2.67708 5.13542 3.02083 5 3.4375 5ZM5 9C5 9.29167 5.09375 9.53125 5.28125 9.71875C5.46875 9.90625 5.70833 10 6 10C6.29167 10 6.53125 9.90625 6.71875 9.71875C6.90625 9.53125 7 9.29167 7 9C7 8.70833 6.90625 8.46875 6.71875 8.28125C6.53125 8.09375 6.29167 8 6 8C5.70833 8 5.46875 8.09375 5.28125 8.28125C5.09375 8.46875 5 8.70833 5 9ZM13.5 9C13.2292 9 13.0208 9.11458 12.875 9.34375L10.1562 13.3125L9.34375 12.2812C9.17708 12.0938 8.97917 12 8.75 12C8.52083 12 8.32292 12.0938 8.15625 12.2812L6 15C5.8125 15.2708 5.79167 15.5521 5.9375 15.8438C6.125 16.1146 6.38542 16.2292 6.71875 16.1875C8.17708 15.9167 9.9375 15.7708 12 15.75C14.0625 15.7708 15.8229 15.9167 17.2812 16.1875C17.5938 16.2292 17.8438 16.125 18.0312 15.875C18.1771 15.5833 18.1667 15.3021 18 15.0312L14.125 9.34375C13.9792 9.11458 13.7708 9 13.5 9Z"/></svg>