<svg width="24" height="24" viewBox="0 0 24 24" xmlns="http://www.w3.org/2000/svg" fill="#cacaca"><path d="M20.5002 3.21163C20.8751 3.46933 21.039 3.83245 20.9922 4.301L18.7432 18.9197C18.6729 19.2711 18.4855 19.5405 18.1809 19.7279C17.8529 19.8919 17.5249 19.9036 17.197 19.763L12.98 18.0411L10.5905 20.6416C10.2156 20.993 9.79393 21.0867 9.32538 20.9227C8.88026 20.7118 8.64599 20.3604 8.62256 19.8685V16.9166C8.62256 16.776 8.66941 16.6589 8.76312 16.5652L14.6668 10.1344C14.8542 9.8767 14.8425 9.619 14.6317 9.3613C14.3974 9.15045 14.1397 9.13874 13.8586 9.32616L6.72495 15.6867L3.63254 14.1405C3.23427 13.9296 3.02343 13.6016 3 13.1565C3 12.7114 3.18742 12.3717 3.56226 12.1374L19.3054 3.14134C19.7271 2.9305 20.1254 2.95393 20.5002 3.21163Z"/></svg>