<svg width="24" height="24" viewBox="0 0 24 24" xmlns="http://www.w3.org/2000/svg" fill="#cacaca"><path d="M17.7273 4.86133C17.2091 4.34315 16.6091 4.0977 15.9273 4.12497C15.2455 4.12497 14.6455 4.37042 14.1273 4.86133L6.6 12.3886C5.72727 13.2886 5.29091 14.325 5.29091 15.4977C5.29091 16.6704 5.72727 17.7068 6.6 18.6068C7.5 19.4795 8.53636 19.9159 9.70909 19.9159C10.8818 19.9159 11.9182 19.4795 12.8182 18.6068L19.0364 12.3886C19.2818 12.1704 19.5545 12.0613 19.8545 12.0613C20.1545 12.0613 20.4273 12.1704 20.6727 12.3886C20.8909 12.6341 21 12.9068 21 13.2068C21 13.5068 20.8909 13.7795 20.6727 14.025L14.4545 20.2432C13.0636 21.5522 11.4818 22.2068 9.70909 22.2068C7.93636 22.2068 6.35455 21.5522 4.96364 20.2432C3.65455 18.8522 3 17.2704 3 15.4977C3 13.725 3.65455 12.1432 4.96364 10.7522L12.4909 3.22497C13.5 2.27042 14.6455 1.79315 15.9273 1.79315C17.2091 1.79315 18.3545 2.27042 19.3636 3.22497C20.3182 4.23406 20.7955 5.37952 20.7955 6.66133C20.7955 7.94315 20.3182 9.08861 19.3636 10.0977L12.1636 17.2977C11.5364 17.8704 10.8273 18.1568 10.0364 18.1568C9.24545 18.1568 8.53636 17.8704 7.90909 17.2977C7.33636 16.6704 7.05 15.9613 7.05 15.1704C7.05 14.3795 7.33636 13.6704 7.90909 13.0432L13.8 7.15224C14.0455 6.93406 14.3182 6.82497 14.6182 6.82497C14.9182 6.82497 15.1909 6.93406 15.4364 7.15224C15.6545 7.3977 15.7636 7.67042 15.7636 7.97042C15.7636 8.27042 15.6545 8.54315 15.4364 8.78861L9.54545 14.6795C9.27273 15.0068 9.27273 15.3341 9.54545 15.6613C9.87273 15.9341 10.2 15.9341 10.5273 15.6613L17.7273 8.46133C18.2455 7.94315 18.5045 7.34315 18.5045 6.66133C18.5045 5.97952 18.2455 5.37952 17.7273 4.86133Z"/></svg>