<svg width="24" height="24" viewBox="0 0 24 24" xmlns="http://www.w3.org/2000/svg" fill="#cacaca"><path d="M4.98681 4.24022L20.3301 10.9771C20.7769 11.2123 21.0002 11.5533 21.0002 12C21.0002 12.4468 20.7769 12.7878 20.3301 13.0229L4.98681 19.7598C4.3284 19.995 3.78756 19.8892 3.3643 19.4424C2.96455 18.9956 2.89401 18.4548 3.15267 17.8199L5.3748 13.552C5.5394 13.2463 5.79806 13.0699 6.15078 13.0229L12.3234 12.2469C12.4644 12.2234 12.535 12.1411 12.535 12C12.535 11.8589 12.4644 11.7766 12.3234 11.7531L6.15078 10.9771C5.79806 10.9301 5.5394 10.7538 5.3748 10.4481L3.15267 6.18017C2.89401 5.54528 2.96455 5.00444 3.3643 4.55767C3.78756 4.11089 4.3284 4.00507 4.98681 4.24022Z"/></svg>