<svg width="24" height="24" viewBox="0 0 24 24" xmlns="http://www.w3.org/2000/svg" fill="#cacaca"><path d="M4.13834 4.1241C4.13834 3.52692 4.63013 3 5.26244 3C5.85962 3 6.38654 3.52692 6.38654 4.1241C6.38654 4.75641 5.85962 5.24821 5.26244 5.24821C4.63013 5.24821 4.13834 4.75641 4.13834 4.1241ZM18.7517 8.62051C18.7517 8.02333 19.2435 7.49641 19.8758 7.49641C20.473 7.49641 20.9999 8.02333 20.9999 8.62051C20.9999 9.25282 20.473 9.74462 19.8758 9.74462C19.2435 9.74462 18.7517 9.25282 18.7517 8.62051ZM19.8758 17.6133C20.473 17.6133 20.9999 18.1403 20.9999 18.7374C20.9999 19.3697 20.473 19.8615 19.8758 19.8615C19.2435 19.8615 18.7517 19.3697 18.7517 18.7374C18.7517 18.1403 19.2435 17.6133 19.8758 17.6133ZM8.88064 8.37462C8.52936 8.05846 8.52936 7.53154 8.88064 7.21538L9.16167 6.89923C9.75885 6.33718 10.1101 5.56436 10.2155 4.72128L10.3209 3.77282C10.356 3.31615 10.7776 2.96487 11.2342 3.03513C11.6909 3.07026 12.0422 3.49179 11.9719 3.94846L11.8665 4.89692C11.7612 6.12641 11.1991 7.25051 10.356 8.09359L10.075 8.37462C9.72372 8.7259 9.1968 8.7259 8.88064 8.37462ZM15.6253 13.9249L15.9063 13.6438C16.7494 12.8008 17.8735 12.2387 19.0678 12.1333L20.0514 12.028C20.5081 11.9577 20.9296 12.309 20.9647 12.7656C21.035 13.2223 20.6837 13.6438 20.2271 13.679L19.2786 13.7844C18.4355 13.8897 17.6627 14.241 17.1006 14.8382L16.8196 15.1192C16.4683 15.4705 15.9414 15.4705 15.6253 15.1192C15.274 14.8031 15.274 14.2762 15.6253 13.96V13.9249ZM20.7891 3.31615C21.0701 3.66744 21.035 4.19436 20.6837 4.51051L20.3324 4.79154C19.8055 5.24821 19.1381 5.45897 18.4706 5.45897C17.8735 5.42385 17.3817 5.88051 17.3465 6.47769L17.3114 7.53154C17.206 9.00692 15.9414 10.1662 14.466 10.131C14.185 10.131 13.9391 10.2013 13.7283 10.3769L13.3771 10.6931C13.0258 10.9741 12.4988 10.939 12.1827 10.5877C11.9017 10.2364 11.9368 9.70949 12.2881 9.39333L12.6394 9.11231C13.1663 8.65564 13.8337 8.44487 14.5012 8.44487C15.0983 8.48 15.5901 8.02333 15.6253 7.42615L15.6955 6.37231C15.7658 4.89692 17.0304 3.73769 18.5058 3.77282C18.7868 3.77282 19.0327 3.70256 19.2435 3.52692L19.5947 3.21077C19.946 2.92974 20.473 2.96487 20.7891 3.31615ZM8.28347 10.0959L13.904 15.7164C14.185 15.9974 14.2904 16.3838 14.2201 16.7351C14.1147 17.1215 13.8689 17.4377 13.5176 17.5431L12.1124 18.07L5.92988 11.8874L6.4568 10.4823C6.56218 10.131 6.87834 9.88513 7.26475 9.77974C7.61603 9.70949 8.00244 9.81487 8.28347 10.0959ZM4.70039 15.1544L5.47321 13.0467L10.9532 18.5267L8.84552 19.2995L4.70039 15.1544ZM4.24372 16.3136L7.68629 19.7562L4.52475 20.9154C4.10321 21.091 3.64654 20.9856 3.33039 20.6695C3.01423 20.3533 2.90885 19.8967 3.08449 19.4751L4.24372 16.3136Z"/></svg>