  <svg
    width="24"
    height="24"
    viewBox="0 0 24 24"
    fill="#cacaca"
    xmlns="http://www.w3.org/2000/svg"
  >
    <path d="M7.1 3H8.5C9.08333 3.03125 9.57917 3.25 9.9875 3.65625C10.3667 4.09375 10.5708 4.625 10.6 5.25V18.75C10.5708 19.375 10.3667 19.9062 9.9875 20.3438C9.57917 20.75 9.08333 20.9688 8.5 21H7.1C6.51667 20.9688 6.02083 20.75 5.6125 20.3438C5.23333 19.9062 5.02917 19.375 5 18.75V5.25C5.02917 4.625 5.23333 4.09375 5.6125 3.65625C6.02083 3.25 6.51667 3.03125 7.1 3ZM15.5 3H16.9C17.4833 3.03125 17.9792 3.25 18.3875 3.65625C18.7667 4.09375 18.9708 4.625 19 5.25V18.75C18.9708 19.375 18.7667 19.9062 18.3875 20.3438C17.9792 20.75 17.4833 20.9688 16.9 21H15.5C14.9167 20.9688 14.4208 20.75 14.0125 20.3438C13.6333 19.9062 13.4292 19.375 13.4 18.75V5.25C13.4292 4.625 13.6333 4.09375 14.0125 3.65625C14.4208 3.25 14.9167 3.03125 15.5 3Z" />
  </svg>