<svg width="24" height="24" viewBox="0 0 24 24" xmlns="http://www.w3.org/2000/svg" fill="#cacaca"><path d="M11.8928 7.47253C12.2856 7.15187 12.8654 7.17466 13.2317 7.54089L16.4592 10.7684C16.6467 10.9559 16.7521 11.2103 16.7522 11.4755C16.7522 11.7406 16.6466 11.995 16.4592 12.1825L9.0598 19.5829C8.93677 19.7059 8.78331 19.7939 8.61546 19.8397L4.17699 21.0507C3.83089 21.1449 3.46091 21.0465 3.20726 20.7928C2.95361 20.5392 2.85522 20.1692 2.94945 19.8231L4.16038 15.3846L4.20238 15.2616C4.25244 15.142 4.32498 15.0326 4.41722 14.9403L11.8176 7.54089L11.8928 7.47253ZM20.9143 6.36804C20.9143 6.799 20.8292 7.22573 20.6643 7.6239C20.4994 8.02209 20.2581 8.38456 19.9534 8.68933L19.1457 9.49597C18.7552 9.88638 18.1222 9.88646 17.7317 9.49597L14.5041 6.26843C14.1136 5.87795 14.1137 5.2449 14.5041 4.85437L15.3108 4.04675C15.6155 3.74201 15.978 3.50075 16.3762 3.33582C16.7744 3.17092 17.2011 3.08582 17.6321 3.08582C18.063 3.08583 18.4897 3.17089 18.8879 3.33582C19.2862 3.50077 19.6486 3.74196 19.9534 4.04675C20.2581 4.35154 20.4993 4.71395 20.6643 5.11218C20.8292 5.51037 20.9143 5.93706 20.9143 6.36804Z"/></svg>