<svg width="24" height="24" viewBox="0 0 24 24" xmlns="http://www.w3.org/2000/svg" fill="#cacaca"><path d="M19.9843 5.20062L20.605 5.82131C20.8683 6.10344 21 6.42319 21 6.78056C21 7.13792 20.8683 7.45767 20.605 7.7398L19.4765 8.84012L16.9373 6.32914L18.0658 5.20062C18.348 4.93729 18.6677 4.80563 19.0251 4.80563C19.3824 4.80563 19.7022 4.93729 19.9843 5.20062ZM12.2821 11.0125L16.3166 6.94983L18.8276 9.48902L14.7367 13.4953C14.5298 13.6834 14.2947 13.8244 14.0313 13.9185L12.0282 14.5956C11.7649 14.6708 11.5298 14.6144 11.3229 14.4263C11.1348 14.2194 11.0784 13.9843 11.1536 13.721L11.8307 11.7179C11.9248 11.4545 12.0752 11.2194 12.2821 11.0125ZM5.25705 8.36049H10.674C10.9373 8.36049 11.1536 8.44513 11.3229 8.61441C11.4922 8.78369 11.5768 8.99999 11.5768 9.26331C11.5768 9.52664 11.4922 9.74294 11.3229 9.91222C11.1536 10.0815 10.9373 10.1661 10.674 10.1661H5.25705C4.97492 10.1849 4.82445 10.3354 4.80564 10.6175V16.9373C4.82445 17.2194 4.97492 17.3699 5.25705 17.3887H16.9937C17.2759 17.3699 17.4263 17.2194 17.4451 16.9373V13.326C17.4451 13.0627 17.5298 12.8464 17.6991 12.6771C17.8683 12.5078 18.0846 12.4232 18.348 12.4232C18.6113 12.4232 18.8276 12.5078 18.9969 12.6771C19.1661 12.8464 19.2508 13.0627 19.2508 13.326V16.9373C19.232 17.5768 19.0157 18.1128 18.6019 18.5454C18.1693 18.9592 17.6332 19.1755 16.9937 19.1943H5.25705C4.61755 19.1755 4.0815 18.9592 3.6489 18.5454C3.23511 18.1128 3.01881 17.5768 3 16.9373V10.6175C3.01881 9.97805 3.23511 9.442 3.6489 9.0094C4.0815 8.5956 4.61755 8.3793 5.25705 8.36049ZM7.51411 13.7774C7.51411 14.0407 7.42947 14.257 7.26019 14.4263C7.09091 14.5956 6.87461 14.6802 6.61129 14.6802C6.34796 14.6802 6.13166 14.5956 5.96238 14.4263C5.7931 14.257 5.70846 14.0407 5.70846 13.7774C5.70846 13.5141 5.7931 13.2978 5.96238 13.1285C6.13166 12.9592 6.34796 12.8746 6.61129 12.8746C6.87461 12.8746 7.09091 12.9592 7.26019 13.1285C7.42947 13.2978 7.51411 13.5141 7.51411 13.7774ZM9.31975 14.6802C9.05643 14.6802 8.84013 14.5956 8.67085 14.4263C8.50157 14.257 8.41693 14.0407 8.41693 13.7774C8.41693 13.5141 8.50157 13.2978 8.67085 13.1285C8.84013 12.9592 9.05643 12.8746 9.31975 12.8746C9.58307 12.8746 9.79937 12.9592 9.96865 13.1285C10.1379 13.2978 10.2226 13.5141 10.2226 13.7774C10.2226 14.0407 10.1379 14.257 9.96865 14.4263C9.79937 14.5956 9.58307 14.6802 9.31975 14.6802Z"/></svg>