<svg width="24" height="24" viewBox="0 0 24 24" xmlns="http://www.w3.org/2000/svg" fill="#cacaca"><path d="M4.25 6.75C4.27083 6.08333 4.5625 5.58333 5.125 5.25C5.70833 4.91667 6.29167 4.91667 6.875 5.25C7.4375 5.58333 7.72917 6.08333 7.75 6.75C7.72917 7.41667 7.4375 7.91667 6.875 8.25C6.29167 8.58333 5.70833 8.58333 5.125 8.25C4.5625 7.91667 4.27083 7.41667 4.25 6.75ZM4 11.6875C3.6875 12.0417 3.52083 12.4792 3.5 13C3.52083 13.5208 3.6875 13.9583 4 14.3125V11.6875ZM8.5 10.125C7.54167 11 7.04167 12.125 7 13.5C7.02083 14.5833 7.35417 15.5312 8 16.3438V17C8 17.2917 7.90625 17.5312 7.71875 17.7188C7.53125 17.9062 7.29167 18 7 18H5C4.70833 18 4.46875 17.9062 4.28125 17.7188C4.09375 17.5312 4 17.2917 4 17V16.1562C3.39583 15.8646 2.91667 15.4479 2.5625 14.9062C2.1875 14.3438 2 13.7083 2 13C2.02083 12 2.36458 11.1771 3.03125 10.5312C3.67708 9.86458 4.5 9.52083 5.5 9.5H6.5C7.27083 9.52083 7.9375 9.72917 8.5 10.125ZM16 17V16.3438C16.6458 15.5312 16.9792 14.5833 17 13.5C16.9583 12.125 16.4583 11 15.5 10.125C16.0625 9.72917 16.7292 9.52083 17.5 9.5H18.5C19.5 9.52083 20.3229 9.86458 20.9688 10.5312C21.6354 11.1771 21.9792 12 22 13C22 13.7083 21.8125 14.3438 21.4375 14.9062C21.0833 15.4479 20.6042 15.8646 20 16.1562V17C20 17.2917 19.9062 17.5312 19.7188 17.7188C19.5312 17.9062 19.2917 18 19 18H17C16.7083 18 16.4688 17.9062 16.2812 17.7188C16.0938 17.5312 16 17.2917 16 17ZM16.25 6.75C16.2708 6.08333 16.5625 5.58333 17.125 5.25C17.7083 4.91667 18.2917 4.91667 18.875 5.25C19.4375 5.58333 19.7292 6.08333 19.75 6.75C19.7292 7.41667 19.4375 7.91667 18.875 8.25C18.2917 8.58333 17.7083 8.58333 17.125 8.25C16.5625 7.91667 16.2708 7.41667 16.25 6.75ZM20 11.6875V14.3125C20.3333 13.9583 20.5 13.5208 20.5 13C20.5 12.4792 20.3333 12.0417 20 11.6875ZM12 5C12.75 5.02083 13.3229 5.35417 13.7188 6C14.0938 6.66667 14.0938 7.33333 13.7188 8C13.3229 8.64583 12.75 8.97917 12 9C11.25 8.97917 10.6771 8.64583 10.2812 8C9.90625 7.33333 9.90625 6.66667 10.2812 6C10.6771 5.35417 11.25 5.02083 12 5ZM9.5 13.5C9.52083 14.0208 9.6875 14.4583 10 14.8125V12.1875C9.6875 12.5417 9.52083 12.9792 9.5 13.5ZM14 12.1875V14.8125C14.3333 14.4583 14.5 14.0208 14.5 13.5C14.5 12.9792 14.3333 12.5417 14 12.1875ZM16 13.5C16 14.2083 15.8125 14.8438 15.4375 15.4062C15.0833 15.9479 14.6042 16.3646 14 16.6562V18C14 18.2917 13.9062 18.5312 13.7188 18.7188C13.5312 18.9062 13.2917 19 13 19H11C10.7083 19 10.4688 18.9062 10.2812 18.7188C10.0938 18.5312 10 18.2917 10 18V16.6562C9.39583 16.3646 8.91667 15.9479 8.5625 15.4062C8.1875 14.8438 8 14.2083 8 13.5C8.02083 12.5 8.36458 11.6771 9.03125 11.0312C9.67708 10.3646 10.5 10.0208 11.5 10H12.5C13.5 10.0208 14.3229 10.3646 14.9688 11.0312C15.6354 11.6771 15.9792 12.5 16 13.5Z"/></svg>