<svg width="24" height="24" viewBox="0 0 24 24" xmlns="http://www.w3.org/2000/svg" fill="#cacaca"><path d="M6 13.5C6 13.8958 6.14583 14.2292 6.4375 14.5L8 16V19C8 19.2917 7.90625 19.5312 7.71875 19.7188C7.53125 19.9062 7.29167 20 7 20H5C4.70833 20 4.46875 19.9062 4.28125 19.7188C4.09375 19.5312 4 19.2917 4 19L3.96875 15C3.69792 15 3.46875 14.9062 3.28125 14.7188C3.09375 14.5312 3 14.2917 3 14V11C3.02083 10.4375 3.21875 9.96875 3.59375 9.59375C3.96875 9.21875 4.4375 9.02083 5 9H7C7.875 9.04167 8.48958 9.45833 8.84375 10.25C8.82292 10.2708 8.80208 10.2917 8.78125 10.3125C8.73958 10.3333 8.70833 10.3542 8.6875 10.375L6.4375 12.5C6.14583 12.7708 6 13.1042 6 13.5ZM18 8C17.4375 7.97917 16.9688 7.78125 16.5938 7.40625C16.2188 7.03125 16.0208 6.5625 16 6C16.0208 5.4375 16.2188 4.96875 16.5938 4.59375C16.9688 4.21875 17.4375 4.02083 18 4C18.5625 4.02083 19.0312 4.21875 19.4062 4.59375C19.7812 4.96875 19.9792 5.4375 20 6C19.9792 6.5625 19.7812 7.03125 19.4062 7.40625C19.0312 7.78125 18.5625 7.97917 18 8ZM6 8C5.4375 7.97917 4.96875 7.78125 4.59375 7.40625C4.21875 7.03125 4.02083 6.5625 4 6C4.02083 5.4375 4.21875 4.96875 4.59375 4.59375C4.96875 4.21875 5.4375 4.02083 6 4C6.5625 4.02083 7.03125 4.21875 7.40625 4.59375C7.78125 4.96875 7.97917 5.4375 8 6C7.97917 6.5625 7.78125 7.03125 7.40625 7.40625C7.03125 7.78125 6.5625 7.97917 6 8ZM16.875 13.2188C17.0417 13.4062 17.0417 13.5938 16.875 13.7812L14.625 15.9062C14.5 16.0104 14.3646 16.0312 14.2188 15.9688C14.0729 15.9062 14 15.7917 14 15.625V14.5H10V15.625C10 15.7917 9.92708 15.9062 9.78125 15.9688C9.63542 16.0312 9.5 16.0104 9.375 15.9062L7.125 13.7812C6.95833 13.5938 6.95833 13.4062 7.125 13.2188L9.375 11.0938C9.5 10.9896 9.63542 10.9688 9.78125 11.0312C9.92708 11.0938 10 11.2083 10 11.375V12.5H14V11.375C14 11.2083 14.0729 11.0938 14.2188 11.0312C14.3646 10.9688 14.5 10.9896 14.625 11.0938L16.875 13.2188ZM19 9C19.5625 9.02083 20.0312 9.21875 20.4062 9.59375C20.7812 9.96875 20.9792 10.4375 21 11V14C21 14.2917 20.9062 14.5312 20.7188 14.7188C20.5312 14.9062 20.2917 15 20 15V19C20 19.2917 19.9062 19.5312 19.7188 19.7188C19.5312 19.9062 19.2917 20 19 20H17C16.7083 20 16.4688 19.9062 16.2812 19.7188C16.0938 19.5312 16 19.2917 16 19V16L17.5625 14.5C17.8542 14.2292 18 13.8958 18 13.5C18 13.1042 17.8542 12.7708 17.5625 12.5L15.3125 10.375C15.2917 10.3542 15.2604 10.3333 15.2188 10.3125C15.1979 10.2917 15.1771 10.2708 15.1562 10.25C15.3021 9.875 15.5417 9.57292 15.875 9.34375C16.2083 9.11458 16.5833 9 17 9H19Z"/></svg>