<svg width="24" height="24" viewBox="0 0 24 24" xmlns="http://www.w3.org/2000/svg" fill="#cacaca"><path d="M9.5914 4.5C9.61649 3.5625 10.0179 2.84635 10.7957 2.35156C11.5986 1.88281 12.4014 1.88281 13.2043 2.35156C13.9821 2.84635 14.3835 3.5625 14.4086 4.5C14.3835 5.4375 13.9821 6.15365 13.2043 6.64844C12.4014 7.11719 11.5986 7.11719 10.7957 6.64844C10.0179 6.15365 9.61649 5.4375 9.5914 4.5ZM8.16129 11.1016C8.23656 10.2943 8.55018 9.61719 9.10215 9.07031C9.67921 8.54948 10.3692 8.27604 11.172 8.25H12.828C13.6308 8.27604 14.3208 8.54948 14.8979 9.07031C15.4498 9.61719 15.7634 10.2943 15.8387 11.1016L15.9892 13.0547C16.0394 13.6276 15.914 14.1484 15.6129 14.6172C15.3118 15.0859 14.9104 15.4115 14.4086 15.5938V20.125C14.3835 20.6458 14.2079 21.0885 13.8817 21.4531C13.5305 21.7917 13.1039 21.974 12.6022 22H11.3978C10.8961 21.974 10.4695 21.7917 10.1183 21.4531C9.79211 21.0885 9.61649 20.6458 9.5914 20.125V15.5938C9.08961 15.4115 8.68817 15.0859 8.3871 14.6172C8.08602 14.1484 7.96057 13.6276 8.01075 13.0547L8.16129 11.1016Z"/></svg>