<svg width="24" height="24" viewBox="0 0 24 24" xmlns="http://www.w3.org/2000/svg" fill="#cacaca"><path d="M7.9998 7C7.4373 6.97917 6.9998 6.72917 6.6873 6.25C6.4373 5.75 6.4373 5.25 6.6873 4.75C6.9998 4.27083 7.4373 4.02083 7.9998 4C8.5623 4.02083 8.9998 4.27083 9.3123 4.75C9.5623 5.25 9.5623 5.75 9.3123 6.25C8.9998 6.72917 8.5623 6.97917 7.9998 7ZM7.7498 19C7.7498 19.2917 7.65605 19.5312 7.46855 19.7188C7.28105 19.9062 7.04147 20 6.7498 20C6.45814 20 6.21855 19.9062 6.03105 19.7188C5.84355 19.5312 5.7498 19.2917 5.7498 19V12.0312L4.84355 13.5312C4.69772 13.7604 4.4998 13.9062 4.2498 13.9688C3.97897 14.0312 3.72897 14 3.4998 13.875C3.2498 13.7083 3.09355 13.5 3.03105 13.25C2.96855 12.9792 3.01022 12.7292 3.15605 12.5L4.96855 9.46875C5.23939 9.01042 5.60397 8.64583 6.0623 8.375C6.52064 8.125 7.01022 8 7.53105 8H11.9998V5.5C12.0206 5.08333 12.1665 4.72917 12.4373 4.4375C12.729 4.16667 13.0831 4.02083 13.4998 4H20.4998C20.9165 4.02083 21.2706 4.16667 21.5623 4.4375C21.8331 4.72917 21.979 5.08333 21.9998 5.5V12.5C21.979 12.9167 21.8331 13.2708 21.5623 13.5625C21.2706 13.8333 20.9165 13.9792 20.4998 14H13.4998C13.0831 13.9792 12.729 13.8333 12.4373 13.5625C12.1665 13.2708 12.0206 12.9167 11.9998 12.5V11H13.9998V12H19.9998V6H13.9998V8H14.4998C14.7915 8 15.0311 8.09375 15.2186 8.28125C15.4061 8.46875 15.4998 8.70833 15.4998 9C15.4998 9.29167 15.4061 9.53125 15.2186 9.71875C15.0311 9.90625 14.7915 10 14.4998 10H10.2498V19C10.2498 19.2917 10.1561 19.5312 9.96855 19.7188C9.78105 19.9062 9.54147 20 9.2498 20C8.95814 20 8.71855 19.9062 8.53105 19.7188C8.34355 19.5312 8.2498 19.2917 8.2498 19V15H7.7498V19Z"/></svg>