<svg width="24" height="24" viewBox="0 0 24 24" xmlns="http://www.w3.org/2000/svg" fill="#cacaca"><path d="M5.57143 3H18.4286C19.1518 3.02679 19.7545 3.28125 20.2366 3.76339C20.7188 4.24554 20.9732 4.84821 21 5.57143V18.4286C20.9732 19.1518 20.7188 19.7545 20.2366 20.2366C19.7545 20.7188 19.1518 20.9732 18.4286 21H5.57143C4.84821 20.9732 4.24554 20.7188 3.76339 20.2366C3.28125 19.7545 3.02679 19.1518 3 18.4286V5.57143C3.02679 4.84821 3.28125 4.24554 3.76339 3.76339C4.24554 3.28125 4.84821 3.02679 5.57143 3ZM9.22768 6.89732L7.45982 7.37946C7.08482 7.48661 6.88393 7.74107 6.85714 8.14286C6.88393 9.83036 7.29911 11.3438 8.10268 12.683C8.87946 14.0491 9.95089 15.1205 11.317 15.8973C12.6562 16.7009 14.1696 17.1161 15.8571 17.1429C16.2589 17.1161 16.5134 16.9152 16.6205 16.5402L17.1027 14.7723C17.183 14.3438 17.0357 14.0357 16.6607 13.8482L14.7321 13.0446C14.3571 12.9107 14.0491 12.9777 13.808 13.2455L12.9643 14.25C11.5179 13.5536 10.4464 12.4821 9.75 11.0357L10.7545 10.2321C11.0223 9.96429 11.0893 9.64286 10.9554 9.26786L10.1518 7.33929C9.96429 6.96429 9.65625 6.81696 9.22768 6.89732Z"/></svg>