<svg width="24" height="24" viewBox="0 0 24 24" xmlns="http://www.w3.org/2000/svg" fill="#cacaca"><path d="M12.8438 3C14.3672 3.02344 15.7383 3.39844 16.957 4.125C18.1758 4.85156 19.1484 5.82422 19.875 7.04297C20.6016 8.26172 20.9766 9.63281 21 11.1562C20.9531 11.6719 20.6719 11.9531 20.1562 12C19.6406 11.9531 19.3594 11.6719 19.3125 11.1562C19.2656 9.32812 18.6328 7.80469 17.4141 6.58594C16.1953 5.36719 14.6719 4.73438 12.8438 4.6875C12.3281 4.64062 12.0469 4.35938 12 3.84375C12.0469 3.32812 12.3281 3.04688 12.8438 3ZM13.125 9.75C13.4531 9.75 13.7227 9.85547 13.9336 10.0664C14.1445 10.2773 14.25 10.5469 14.25 10.875C14.25 11.2031 14.1445 11.4727 13.9336 11.6836C13.7227 11.8945 13.4531 12 13.125 12C12.7969 12 12.5273 11.8945 12.3164 11.6836C12.1055 11.4727 12 11.2031 12 10.875C12 10.5469 12.1055 10.2773 12.3164 10.0664C12.5273 9.85547 12.7969 9.75 13.125 9.75ZM12 7.21875C12.0469 6.70312 12.3281 6.42188 12.8438 6.375C14.2031 6.39844 15.3281 6.86719 16.2188 7.78125C17.1328 8.67188 17.6016 9.79688 17.625 11.1562C17.5781 11.6719 17.2969 11.9531 16.7812 12C16.2656 11.9531 15.9844 11.6719 15.9375 11.1562C15.9141 10.2891 15.6094 9.5625 15.0234 8.97656C14.4375 8.39062 13.7109 8.08594 12.8438 8.0625C12.3281 8.01562 12.0469 7.73438 12 7.21875ZM7.14844 3.03516C7.47656 2.96484 7.80469 3 8.13281 3.14062C8.4375 3.28125 8.66016 3.52734 8.80078 3.87891L10.207 7.25391C10.418 7.88672 10.2773 8.42578 9.78516 8.87109L8.0625 10.2773C8.64844 11.5195 9.42188 12.6328 10.3828 13.6172C11.3672 14.5781 12.4805 15.3516 13.7227 15.9375L15.1289 14.2148C15.5742 13.7227 16.1133 13.582 16.7461 13.793L20.1211 15.1992C20.4492 15.3398 20.6953 15.5625 20.8594 15.8672C21 16.1953 21.0352 16.5352 20.9648 16.8867L20.1211 19.9805C19.8867 20.6133 19.4297 20.9531 18.75 21C15.8203 20.9766 13.1719 20.2617 10.8047 18.8555C8.4375 17.4492 6.55078 15.5625 5.14453 13.1953C3.73828 10.8281 3.02344 8.17969 3 5.25C3.04688 4.57031 3.39844 4.11328 4.05469 3.87891L7.14844 3.03516Z"/></svg>