<svg width="24" height="24" viewBox="0 0 24 24" xmlns="http://www.w3.org/2000/svg" fill="#cacaca"><path d="M7 4H9C9.29167 4 9.53125 4.09375 9.71875 4.28125C9.90625 4.46875 10 4.70833 10 5V16C10 16.2917 9.90625 16.5312 9.71875 16.7188C9.53125 16.9062 9.29167 17 9 17H7C6.70833 17 6.46875 16.9062 6.28125 16.7188C6.09375 16.5312 6 16.2917 6 16V5C6 4.70833 6.09375 4.46875 6.28125 4.28125C6.46875 4.09375 6.70833 4 7 4ZM5 5V16C5.02083 16.5625 5.21875 17.0312 5.59375 17.4062C5.96875 17.7812 6.4375 17.9792 7 18H9C9.5625 17.9792 10.0312 17.7812 10.4062 17.4062C10.7812 17.0312 10.9792 16.5625 11 16V5H19C19.5625 5.02083 20.0312 5.21875 20.4062 5.59375C20.7812 5.96875 20.9792 6.4375 21 7V18C20.9792 18.5625 20.7812 19.0312 20.4062 19.4062C20.0312 19.7812 19.5625 19.9792 19 20H5C4.4375 19.9792 3.96875 19.7812 3.59375 19.4062C3.21875 19.0312 3.02083 18.5625 3 18V7C3.02083 6.4375 3.21875 5.96875 3.59375 5.59375C3.96875 5.21875 4.4375 5.02083 5 5ZM13 8V9C13 9.29167 13.0938 9.53125 13.2812 9.71875C13.4688 9.90625 13.7083 10 14 10H18C18.2917 10 18.5312 9.90625 18.7188 9.71875C18.9062 9.53125 19 9.29167 19 9V8C19 7.70833 18.9062 7.46875 18.7188 7.28125C18.5312 7.09375 18.2917 7 18 7H14C13.7083 7 13.4688 7.09375 13.2812 7.28125C13.0938 7.46875 13 7.70833 13 8ZM14 14C14.2917 14 14.5312 13.9062 14.7188 13.7188C14.9062 13.5312 15 13.2917 15 13C15 12.7083 14.9062 12.4688 14.7188 12.2812C14.5312 12.0938 14.2917 12 14 12C13.7083 12 13.4688 12.0938 13.2812 12.2812C13.0938 12.4688 13 12.7083 13 13C13 13.2917 13.0938 13.5312 13.2812 13.7188C13.4688 13.9062 13.7083 14 14 14ZM19 13C19 12.7083 18.9062 12.4688 18.7188 12.2812C18.5312 12.0938 18.2917 12 18 12C17.7083 12 17.4688 12.0938 17.2812 12.2812C17.0938 12.4688 17 12.7083 17 13C17 13.2917 17.0938 13.5312 17.2812 13.7188C17.4688 13.9062 17.7083 14 18 14C18.2917 14 18.5312 13.9062 18.7188 13.7188C18.9062 13.5312 19 13.2917 19 13ZM18 18C18.2917 18 18.5312 17.9062 18.7188 17.7188C18.9062 17.5312 19 17.2917 19 17C19 16.7083 18.9062 16.4688 18.7188 16.2812C18.5312 16.0938 18.2917 16 18 16C17.7083 16 17.4688 16.0938 17.2812 16.2812C17.0938 16.4688 17 16.7083 17 17C17 17.2917 17.0938 17.5312 17.2812 17.7188C17.4688 17.9062 17.7083 18 18 18ZM15 17C15 16.7083 14.9062 16.4688 14.7188 16.2812C14.5312 16.0938 14.2917 16 14 16C13.7083 16 13.4688 16.0938 13.2812 16.2812C13.0938 16.4688 13 16.7083 13 17C13 17.2917 13.0938 17.5312 13.2812 17.7188C13.4688 17.9062 13.7083 18 14 18C14.2917 18 14.5312 17.9062 14.7188 17.7188C14.9062 17.5312 15 17.2917 15 17Z"/></svg>