<svg width="24" height="24" viewBox="0 0 24 24" xmlns="http://www.w3.org/2000/svg" fill="#cacaca"><path d="M8.80078 3.87891L10.207 7.25391C10.418 7.88672 10.2773 8.42578 9.78516 8.87109L8.0625 10.2773C8.64844 11.5195 9.42188 12.6328 10.3828 13.6172C11.3672 14.5781 12.4805 15.3516 13.7227 15.9375L15.1289 14.2148C15.5742 13.7227 16.1133 13.582 16.7461 13.793L20.1211 15.1992C20.4727 15.3398 20.7188 15.5625 20.8594 15.8672C21 16.1953 21.0352 16.5352 20.9648 16.8867L20.1211 19.9805C19.8867 20.6133 19.4297 20.9531 18.75 21C15.8203 20.9766 13.1719 20.2617 10.8047 18.8555C8.4375 17.4492 6.55078 15.5625 5.14453 13.1953C3.73828 10.8281 3.02344 8.17969 3 5.25C3.04688 4.57031 3.38672 4.11328 4.01953 3.87891L7.11328 3.03516C7.46484 2.96484 7.80469 3 8.13281 3.14062C8.4375 3.28125 8.66016 3.52734 8.80078 3.87891Z"/></svg>