<svg width="24" height="24" viewBox="0 0 24 24" xmlns="http://www.w3.org/2000/svg" fill="#cacaca"><path d="M10.6685 3.97559C11.9692 2.6748 14.1138 2.6748 15.4497 3.97559L19.4224 7.9834C20.4771 9.00293 20.688 10.5146 20.1255 11.7803C19.2466 11.2178 18.1919 10.9014 17.1021 10.9014C14.5708 10.9014 12.4263 12.5537 11.688 14.8389L7.32861 10.4795C7.11768 10.2686 6.76611 10.2686 6.55518 10.4795C6.30908 10.6904 6.30908 11.0771 6.55518 11.2881L11.4771 16.1748C11.4419 16.2803 11.4419 16.3857 11.4419 16.4912C11.4419 17.4756 11.688 18.3896 12.145 19.1982C11.8286 19.2334 11.4771 19.1631 11.1606 19.0225L9.19189 18.2139C8.34814 17.8623 7.36377 18.0732 6.73096 18.7061L4.83252 20.6045C4.27002 21.1318 3.39111 21.1318 2.82861 20.6045C2.30127 20.042 2.30127 19.1631 2.82861 18.6006L4.72705 16.7373C5.35986 16.1045 5.5708 15.1201 5.21924 14.2764L4.37549 12.2373C4.02393 11.3936 4.19971 10.4443 4.86768 9.81152L10.6685 3.97559ZM12.5669 16.4912C12.5669 14.9092 13.4106 13.4326 14.8169 12.624C16.188 11.8154 17.9106 11.8154 19.3169 12.624C20.688 13.4326 21.5669 14.9092 21.5669 16.4912C21.5669 18.1084 20.688 19.585 19.3169 20.3936C17.9106 21.2021 16.188 21.2021 14.8169 20.3936C13.4106 19.585 12.5669 18.1084 12.5669 16.4912ZM13.6919 15.9287C13.6919 16.2451 13.938 16.4912 14.2544 16.4912C14.5356 16.4912 14.8169 16.2451 14.8169 15.9287C14.8169 15.6475 14.5356 15.3662 14.2544 15.3662C13.938 15.3662 13.6919 15.6475 13.6919 15.9287ZM16.5044 18.7412C16.188 18.7412 15.9419 19.0225 15.9419 19.3037C15.9419 19.6201 16.188 19.8662 16.5044 19.8662C16.7856 19.8662 17.0669 19.6201 17.0669 19.3037C17.0669 19.0225 16.7856 18.7412 16.5044 18.7412ZM16.5044 16.4912C16.5044 16.8076 16.7505 17.0537 17.0669 17.0537C17.3481 17.0537 17.6294 16.8076 17.6294 16.4912C17.6294 16.21 17.3481 15.9287 17.0669 15.9287C16.7505 15.9287 16.5044 16.21 16.5044 16.4912ZM19.8794 16.4912C19.563 16.4912 19.3169 16.7725 19.3169 17.0537C19.3169 17.3701 19.563 17.6162 19.8794 17.6162C20.1606 17.6162 20.4419 17.3701 20.4419 17.0537C20.4419 16.7725 20.1606 16.4912 19.8794 16.4912ZM17.0669 13.6787C17.0669 13.9951 17.313 14.2412 17.6294 14.2412C17.9106 14.2412 18.1919 13.9951 18.1919 13.6787C18.1919 13.3975 17.9106 13.1162 17.6294 13.1162C17.313 13.1162 17.0669 13.3975 17.0669 13.6787Z"/></svg>