<svg width="24" height="24" viewBox="0 0 24 24" xmlns="http://www.w3.org/2000/svg" fill="#cacaca"><path d="M2 12C2.02604 10.1771 2.46875 8.51042 3.32812 7C4.21354 5.48958 5.4375 4.26562 7 3.32812C8.58854 2.44271 10.2552 2 12 2C13.7448 2 15.4115 2.44271 17 3.32812C18.5625 4.26562 19.7865 5.48958 20.6719 7C21.5312 8.51042 21.974 10.1771 22 12C21.974 13.8229 21.5312 15.4896 20.6719 17C19.7865 18.5104 18.5625 19.7344 17 20.6719C15.4115 21.5573 13.7448 22 12 22C10.2552 22 8.58854 21.5573 7 20.6719C5.4375 19.7344 4.21354 18.5104 3.32812 17C2.46875 15.4896 2.02604 13.8229 2 12ZM9.34375 7.74219C9.03125 7.92448 8.875 8.19792 8.875 8.5625V15.4375C8.875 15.8021 9.03125 16.0755 9.34375 16.2578C9.68229 16.4141 10.0078 16.401 10.3203 16.2188L15.9453 12.7812C16.2318 12.599 16.375 12.3385 16.375 12C16.375 11.6615 16.2318 11.388 15.9453 11.1797L10.3203 7.74219C10.0078 7.58594 9.68229 7.58594 9.34375 7.74219Z"/></svg>