<svg width="24" height="24" viewBox="0 0 24 24" xmlns="http://www.w3.org/2000/svg" fill="#cacaca"><path d="M12 21C10.3594 20.9766 8.85938 20.5781 7.5 19.8047C6.14062 19.0078 5.03906 17.9062 4.19531 16.5C3.39844 15.0703 3 13.5703 3 12C3 10.4297 3.39844 8.92969 4.19531 7.5C5.03906 6.09375 6.14062 4.99219 7.5 4.19531C8.85938 3.42188 10.3594 3.02344 12 3C13.6406 3.02344 15.1406 3.42188 16.5 4.19531C17.8594 4.99219 18.9609 6.09375 19.8047 7.5C20.6016 8.92969 21 10.4297 21 12C21 13.5703 20.6016 15.0703 19.8047 16.5C18.9609 17.9062 17.8594 19.0078 16.5 19.8047C15.1406 20.5781 13.6406 20.9766 12 21ZM11.1562 15.0938C11.2031 15.6094 11.4844 15.8906 12 15.9375C12.5156 15.8906 12.7969 15.6094 12.8438 15.0938V12.8438H15.0938C15.6094 12.7969 15.8906 12.5156 15.9375 12C15.8906 11.4844 15.6094 11.2031 15.0938 11.1562H12.8438V8.90625C12.7969 8.39062 12.5156 8.10938 12 8.0625C11.4844 8.10938 11.2031 8.39062 11.1562 8.90625V11.1562H8.90625C8.39062 11.2031 8.10938 11.4844 8.0625 12C8.10938 12.5156 8.39062 12.7969 8.90625 12.8438H11.1562V15.0938Z"/></svg>