<svg width="24" height="24" viewBox="0 0 24 24" xmlns="http://www.w3.org/2000/svg" fill="#cacaca"><path d="M5.57143 3H18.4286C19.1518 3.02679 19.7545 3.28125 20.2366 3.76339C20.7188 4.24554 20.9732 4.84821 21 5.57143V18.4286C20.9732 19.1518 20.7188 19.7545 20.2366 20.2366C19.7545 20.7188 19.1518 20.9732 18.4286 21H5.57143C4.84821 20.9732 4.24554 20.7188 3.76339 20.2366C3.28125 19.7545 3.02679 19.1518 3 18.4286V5.57143C3.02679 4.84821 3.28125 4.24554 3.76339 3.76339C4.24554 3.28125 4.84821 3.02679 5.57143 3ZM11.0357 15.5357C11.0893 16.125 11.4107 16.4464 12 16.5C12.5893 16.4464 12.9107 16.125 12.9643 15.5357V12.9643H15.5357C16.125 12.9107 16.4464 12.5893 16.5 12C16.4464 11.4107 16.125 11.0893 15.5357 11.0357H12.9643V8.46429C12.9107 7.875 12.5893 7.55357 12 7.5C11.4107 7.55357 11.0893 7.875 11.0357 8.46429V11.0357H8.46429C7.875 11.0893 7.55357 11.4107 7.5 12C7.55357 12.5893 7.875 12.9107 8.46429 12.9643H11.0357V15.5357Z"/></svg>