<svg width="24" height="24" viewBox="0 0 24 24" xmlns="http://www.w3.org/2000/svg" fill="#cacaca"><path d="M4 4H20C20.2917 4 20.5312 4.09375 20.7188 4.28125C20.9062 4.46875 21 4.70833 21 5C21 5.29167 20.9062 5.53125 20.7188 5.71875C20.5312 5.90625 20.2917 6 20 6V13C19.9792 13.5625 19.7812 14.0312 19.4062 14.4062C19.0312 14.7812 18.5625 14.9792 18 15H13V16.0938L15.2188 18.2812C15.4062 18.4896 15.5 18.7292 15.5 19C15.5 19.2708 15.4062 19.5104 15.2188 19.7188C15.0104 19.9062 14.7708 20 14.5 20C14.2292 20 13.9896 19.9062 13.7812 19.7188L12 17.9062L10.2188 19.7188C10.0104 19.9062 9.77083 20 9.5 20C9.22917 20 8.98958 19.9062 8.78125 19.7188C8.59375 19.5104 8.5 19.2708 8.5 19C8.5 18.7292 8.59375 18.4896 8.78125 18.2812L11 16.0938V15H6C5.4375 14.9792 4.96875 14.7812 4.59375 14.4062C4.21875 14.0312 4.02083 13.5625 4 13V6C3.70833 6 3.46875 5.90625 3.28125 5.71875C3.09375 5.53125 3 5.29167 3 5C3 4.70833 3.09375 4.46875 3.28125 4.28125C3.46875 4.09375 3.70833 4 4 4ZM6 6V13H18V6H6Z"/></svg>