<svg width="24" height="24" viewBox="0 0 24 24" xmlns="http://www.w3.org/2000/svg" fill="#cacaca"><path d="M8 4H15.0938C15.6354 4 16.1042 4.19792 16.5 4.59375L17.4062 5.5C17.8021 5.89583 18 6.36458 18 6.90625V9H16V6.90625L15.0938 6H8V9H6V6C6.02083 5.4375 6.21875 4.96875 6.59375 4.59375C6.96875 4.21875 7.4375 4.02083 8 4ZM16 15H8V18H16V15ZM18 16V18C17.9792 18.5625 17.7812 19.0312 17.4062 19.4062C17.0312 19.7812 16.5625 19.9792 16 20H8C7.4375 19.9792 6.96875 19.7812 6.59375 19.4062C6.21875 19.0312 6.02083 18.5625 6 18V16H5C4.70833 16 4.46875 15.9062 4.28125 15.7188C4.09375 15.5312 4 15.2917 4 15V12C4.02083 11.4375 4.21875 10.9688 4.59375 10.5938C4.96875 10.2188 5.4375 10.0208 6 10H18C18.5625 10.0208 19.0312 10.2188 19.4062 10.5938C19.7812 10.9688 19.9792 11.4375 20 12V15C20 15.2917 19.9062 15.5312 19.7188 15.7188C19.5312 15.9062 19.2917 16 19 16H18ZM17.5 11.75C17.0417 11.7917 16.7917 12.0417 16.75 12.5C16.7917 12.9583 17.0417 13.2083 17.5 13.25C17.9583 13.2083 18.2083 12.9583 18.25 12.5C18.2083 12.0417 17.9583 11.7917 17.5 11.75Z"/></svg>