<svg width="24" height="24" viewBox="0 0 24 24" xmlns="http://www.w3.org/2000/svg" fill="#cacaca"><path d="M9.75 6.69141C9.72656 6.36328 9.57422 6.09375 9.29297 5.88281C8.87109 5.55469 8.64844 5.15625 8.625 4.6875C8.64844 4.21875 8.87109 3.82031 9.29297 3.49219C9.71484 3.1875 10.2422 3.02344 10.875 3C11.5078 3.02344 12.0352 3.1875 12.457 3.49219C12.8789 3.82031 13.1016 4.21875 13.125 4.6875C13.1016 5.15625 12.8789 5.55469 12.457 5.88281C12.1758 6.09375 12.0234 6.36328 12 6.69141C12.0469 7.18359 12.3164 7.45312 12.8086 7.5H14.8125C15.2812 7.52344 15.6797 7.6875 16.0078 7.99219C16.3125 8.32031 16.4766 8.71875 16.5 9.1875V11.1914C16.5469 11.6836 16.8164 11.9531 17.3086 12C17.6367 11.9766 17.9062 11.8242 18.1172 11.543C18.4453 11.1211 18.8438 10.8984 19.3125 10.875C19.7812 10.8984 20.1797 11.1211 20.5078 11.543C20.8125 11.9648 20.9766 12.4922 21 13.125C20.9766 13.7578 20.8125 14.2852 20.5078 14.707C20.1797 15.1289 19.7812 15.3516 19.3125 15.375C18.8438 15.3516 18.4453 15.1289 18.1172 14.707C17.9062 14.4258 17.6367 14.2734 17.3086 14.25C16.8164 14.2969 16.5469 14.5664 16.5 15.0586V19.3125C16.4766 19.7812 16.3125 20.1797 16.0078 20.5078C15.6797 20.8125 15.2812 20.9766 14.8125 21H12.8086C12.3164 20.9531 12.0469 20.6836 12 20.1914C12.0234 19.8633 12.1758 19.5938 12.457 19.3828C12.8789 19.0547 13.1016 18.6562 13.125 18.1875C13.1016 17.7188 12.8789 17.3203 12.457 16.9922C12.0352 16.6875 11.5078 16.5234 10.875 16.5C10.2422 16.5234 9.71484 16.6875 9.29297 16.9922C8.87109 17.3203 8.64844 17.7188 8.625 18.1875C8.64844 18.6562 8.87109 19.0547 9.29297 19.3828C9.57422 19.5938 9.72656 19.8633 9.75 20.1914C9.70312 20.6836 9.43359 20.9531 8.94141 21H4.6875C4.21875 20.9766 3.82031 20.8125 3.49219 20.5078C3.1875 20.1797 3.02344 19.7812 3 19.3125V15.0586C3.04688 14.5664 3.31641 14.2969 3.80859 14.25C4.13672 14.2734 4.40625 14.4258 4.61719 14.707C4.94531 15.1289 5.34375 15.3516 5.8125 15.375C6.28125 15.3516 6.67969 15.1289 7.00781 14.707C7.3125 14.2852 7.47656 13.7578 7.5 13.125C7.47656 12.4922 7.3125 11.9648 7.00781 11.543C6.67969 11.1211 6.28125 10.8984 5.8125 10.875C5.34375 10.8984 4.94531 11.1211 4.61719 11.543C4.40625 11.8242 4.13672 11.9766 3.80859 12C3.31641 11.9531 3.04688 11.6836 3 11.1914V9.1875C3.02344 8.71875 3.1875 8.32031 3.49219 7.99219C3.82031 7.6875 4.21875 7.52344 4.6875 7.5H8.94141C9.43359 7.45312 9.70312 7.18359 9.75 6.69141Z"/></svg>