<svg width="24" height="24" viewBox="0 0 24 24" xmlns="http://www.w3.org/2000/svg" fill="#cacaca"><path d="M14.25 3H18.75C19.3828 3.02344 19.9102 3.24609 20.332 3.66797C20.7539 4.08984 20.9766 4.61719 21 5.25V9.75C20.9766 10.1016 20.7891 10.2891 20.4375 10.3125H18.6094C18.3516 10.3359 18.2109 10.4766 18.1875 10.7344V10.875C18.1875 11.2031 18.082 11.4727 17.8711 11.6836C17.6602 11.8945 17.3906 12 17.0625 12C16.7344 12 16.4648 11.8945 16.2539 11.6836C16.043 11.4727 15.9375 11.2031 15.9375 10.875V10.7344C15.9141 10.4766 15.7734 10.3359 15.5156 10.3125H14.25C13.8984 10.2891 13.7109 10.1016 13.6875 9.75V8.625C13.7109 8.27344 13.8984 8.08594 14.25 8.0625H14.8125C15.1406 8.0625 15.4102 7.95703 15.6211 7.74609C15.832 7.53516 15.9375 7.26562 15.9375 6.9375C15.9375 6.60938 15.832 6.33984 15.6211 6.12891C15.4102 5.91797 15.1406 5.8125 14.8125 5.8125H14.25C13.8984 5.78906 13.7109 5.60156 13.6875 5.25V3.5625C13.7109 3.21094 13.8984 3.02344 14.25 3ZM3 12V7.5C3.02344 6.86719 3.24609 6.33984 3.66797 5.91797C4.08984 5.49609 4.61719 5.27344 5.25 5.25H9.75C10.1016 5.27344 10.2891 5.46094 10.3125 5.8125V7.07812C10.3359 7.33594 10.4766 7.47656 10.7344 7.5H10.875C11.2031 7.5 11.4727 7.60547 11.6836 7.81641C11.8945 8.02734 12 8.29688 12 8.625C12 8.95312 11.8945 9.22266 11.6836 9.43359C11.4727 9.64453 11.2031 9.75 10.875 9.75H10.7344C10.4766 9.77344 10.3359 9.91406 10.3125 10.1719V12C10.2891 12.3516 10.1016 12.5391 9.75 12.5625H8.625C8.27344 12.5391 8.08594 12.3516 8.0625 12V11.4375C8.0625 11.1094 7.95703 10.8398 7.74609 10.6289C7.53516 10.418 7.26562 10.3125 6.9375 10.3125C6.60938 10.3125 6.33984 10.418 6.12891 10.6289C5.91797 10.8398 5.8125 11.1094 5.8125 11.4375V12C5.78906 12.3516 5.60156 12.5391 5.25 12.5625H3.5625C3.21094 12.5391 3.02344 12.3516 3 12ZM3 18.75V14.25C3.02344 13.8984 3.21094 13.7109 3.5625 13.6875H9.75C10.1016 13.7109 10.2891 13.8984 10.3125 14.25V15.375C10.2891 15.7266 10.1016 15.9141 9.75 15.9375H9.1875C8.85938 15.9375 8.58984 16.043 8.37891 16.2539C8.16797 16.4648 8.0625 16.7344 8.0625 17.0625C8.0625 17.3906 8.16797 17.6602 8.37891 17.8711C8.58984 18.082 8.85938 18.1875 9.1875 18.1875H9.75C10.1016 18.2109 10.2891 18.3984 10.3125 18.75V20.4375C10.2891 20.7891 10.1016 20.9766 9.75 21H5.25C4.61719 20.9766 4.08984 20.7539 3.66797 20.332C3.24609 19.9102 3.02344 19.3828 3 18.75ZM11.4375 14.25C11.4609 13.8984 11.6484 13.7109 12 13.6875H13.125C13.4766 13.7109 13.6641 13.8984 13.6875 14.25V14.8125C13.6875 15.1406 13.793 15.4102 14.0039 15.6211C14.2148 15.832 14.4844 15.9375 14.8125 15.9375C15.1406 15.9375 15.4102 15.832 15.6211 15.6211C15.832 15.4102 15.9375 15.1406 15.9375 14.8125V14.25C15.9609 13.8984 16.1484 13.7109 16.5 13.6875H18.1875C18.5391 13.7109 18.7266 13.8984 18.75 14.25V18.75C18.7266 19.3828 18.5039 19.9102 18.082 20.332C17.6602 20.7539 17.1328 20.9766 16.5 21H12C11.6484 20.9766 11.4609 20.7891 11.4375 20.4375V14.25Z"/></svg>