<svg width="24" height="24" viewBox="0 0 24 24" xmlns="http://www.w3.org/2000/svg" fill="#cacaca"><path fill-rule="evenodd" clip-rule="evenodd" d="M20 12C20 9.87827 19.1575 7.84306 17.6572 6.34277C16.1569 4.84248 14.1217 4 12 4C9.87827 4 7.84306 4.84248 6.34277 6.34277C4.84248 7.84306 4 9.87827 4 12C4 14.1217 4.84248 16.1569 6.34277 17.6572C7.84306 19.1575 9.87827 20 12 20L12.3965 19.9902C14.3739 19.8922 16.2507 19.0638 17.6572 17.6572C19.1575 16.1569 20 14.1217 20 12ZM12.1113 15.5049L12.0088 15.5H12C11.4477 15.5 11 15.9477 11 16.5C11 17.0523 11.4477 17.5 12 17.5H12.0088L12.1113 17.4951C12.6156 17.4439 13.0088 17.0177 13.0088 16.5C13.0088 15.9823 12.6156 15.5561 12.1113 15.5049ZM12.5537 6.54883C11.6927 6.40113 10.8069 6.56331 10.0537 7.00586C9.30048 7.44854 8.72749 8.14362 8.4375 8.96777C8.25427 9.48865 8.52806 10.0598 9.04883 10.2432C9.56981 10.4264 10.1409 10.1528 10.3242 9.63184C10.4574 9.2532 10.7204 8.93389 11.0664 8.73047C11.4125 8.52705 11.8201 8.45264 12.2158 8.52051C12.6113 8.58845 12.9701 8.79453 13.2285 9.10156C13.4547 9.37031 13.5919 9.7013 13.6221 10.0488L13.6279 10.1982V10.2002C13.6278 10.5692 13.3378 10.983 12.7236 11.3926C12.4468 11.5772 12.1621 11.7202 11.9434 11.8174C11.8359 11.8651 11.7476 11.9003 11.6885 11.9229C11.6589 11.9341 11.6362 11.9426 11.623 11.9473C11.6176 11.9492 11.6126 11.9504 11.6104 11.9512C11.0873 12.1263 10.8052 12.6924 10.9795 13.2158C11.1541 13.7397 11.7212 14.0232 12.2451 13.8486L12.2471 13.8477L12.251 13.8467C12.2537 13.8458 12.2568 13.8441 12.2607 13.8428C12.2689 13.84 12.28 13.8366 12.293 13.832C12.3193 13.8227 12.3561 13.8089 12.4004 13.792C12.4887 13.7583 12.611 13.7099 12.7559 13.6455C13.0434 13.5177 13.4349 13.3221 13.833 13.0566C14.5224 12.597 15.4969 11.7461 15.6162 10.4629L15.6279 10.2002C15.6289 9.32698 15.3211 8.48158 14.7588 7.81348C14.1961 7.14504 13.4149 6.69657 12.5537 6.54883Z"/><path fill-rule="evenodd" clip-rule="evenodd" d="M17.6572 6.34277C19.1575 7.84306 20 9.87827 20 12C20 14.1217 19.1575 16.1569 17.6572 17.6572C16.2507 19.0638 14.3739 19.8922 12.3965 19.9902L12 20C9.87827 20 7.84306 19.1575 6.34277 17.6572C4.84248 16.1569 4 14.1217 4 12C4 9.87827 4.84248 7.84306 6.34277 6.34277C7.84306 4.84248 9.87827 4 12 4C14.1217 4 16.1569 4.84248 17.6572 6.34277ZM19.0713 19.0713C20.9467 17.1959 22 14.6522 22 12C22 9.34784 20.9467 6.80407 19.0713 4.92871C17.1959 3.05335 14.6522 2 12 2C9.34784 2 6.80407 3.05335 4.92871 4.92871C3.05335 6.80407 2 9.34784 2 12C2 14.6522 3.05335 17.1959 4.92871 19.0713C6.80407 20.9467 9.34784 22 12 22L12.4961 21.9873C14.9676 21.8646 17.3132 20.8294 19.0713 19.0713Z"/></svg>