<svg width="24" height="24" viewBox="0 0 24 24" xmlns="http://www.w3.org/2000/svg" fill="#cacaca"><path d="M8.66667 8.14286C8.66667 8.51786 8.54167 8.82589 8.29167 9.06696C8.04167 9.30804 7.72222 9.42857 7.33333 9.42857C6.94444 9.42857 6.625 9.30804 6.375 9.06696C6.125 8.82589 6 8.51786 6 8.14286C6.02778 6.69643 6.54167 5.47768 7.54167 4.48661C8.56944 3.52232 9.83333 3.02679 11.3333 3H12.6667C14.1667 3.02679 15.4306 3.52232 16.4583 4.48661C17.4583 5.47768 17.9722 6.69643 18 8.14286V8.26339C18 9.17411 17.7778 10.0045 17.3333 10.7545C16.9167 11.5045 16.3194 12.1205 15.5417 12.6027L13.7917 13.6875C13.4861 13.9018 13.3333 14.183 13.3333 14.5312V14.5714C13.3333 14.9464 13.2083 15.2545 12.9583 15.4955C12.7083 15.7366 12.3889 15.8571 12 15.8571C11.6111 15.8571 11.2917 15.7366 11.0417 15.4955C10.7917 15.2545 10.6667 14.9464 10.6667 14.5714V14.5312C10.6944 13.2455 11.25 12.2545 12.3333 11.558L14.125 10.433C14.9028 9.92411 15.3056 9.21429 15.3333 8.30357V8.14286C15.3056 7.41964 15.0417 6.81696 14.5417 6.33482C14.0417 5.85268 13.4167 5.59821 12.6667 5.57143H11.3333C10.5833 5.59821 9.95833 5.85268 9.45833 6.33482C8.95833 6.81696 8.69444 7.41964 8.66667 8.14286ZM12 21C11.3611 20.9732 10.875 20.7054 10.5417 20.1964C10.2639 19.6607 10.2639 19.125 10.5417 18.5893C10.875 18.0804 11.3611 17.8125 12 17.7857C12.6389 17.8125 13.125 18.0804 13.4583 18.5893C13.7361 19.125 13.7361 19.6607 13.4583 20.1964C13.125 20.7054 12.6389 20.9732 12 21Z"/></svg>