<svg width="24" height="24" viewBox="0 0 24 24" xmlns="http://www.w3.org/2000/svg" fill="#cacaca"><path d="M19 13.25C18.9792 14.3125 18.6146 15.1979 17.9062 15.9062C17.1979 16.6146 16.3125 16.9792 15.25 17H15C14.7083 17 14.4688 16.9062 14.2812 16.7188C14.0938 16.5312 14 16.2917 14 16C14 15.7083 14.0938 15.4688 14.2812 15.2812C14.4688 15.0938 14.7083 15 15 15H15.25C15.75 14.9792 16.1667 14.8125 16.5 14.5C16.8125 14.1667 16.9792 13.75 17 13.25V13H15C14.4375 12.9792 13.9688 12.7812 13.5938 12.4062C13.2188 12.0312 13.0208 11.5625 13 11V9C13.0208 8.4375 13.2188 7.96875 13.5938 7.59375C13.9688 7.21875 14.4375 7.02083 15 7H17C17.5625 7.02083 18.0312 7.21875 18.4062 7.59375C18.7812 7.96875 18.9792 8.4375 19 9V13.25ZM11 13.25C10.9792 14.3125 10.6146 15.1979 9.90625 15.9062C9.19792 16.6146 8.3125 16.9792 7.25 17H7C6.70833 17 6.46875 16.9062 6.28125 16.7188C6.09375 16.5312 6 16.2917 6 16C6 15.7083 6.09375 15.4688 6.28125 15.2812C6.46875 15.0938 6.70833 15 7 15H7.25C7.75 14.9792 8.16667 14.8125 8.5 14.5C8.8125 14.1667 8.97917 13.75 9 13.25V13H7C6.4375 12.9792 5.96875 12.7812 5.59375 12.4062C5.21875 12.0312 5.02083 11.5625 5 11V9C5.02083 8.4375 5.21875 7.96875 5.59375 7.59375C5.96875 7.21875 6.4375 7.02083 7 7H9C9.5625 7.02083 10.0312 7.21875 10.4062 7.59375C10.7812 7.96875 10.9792 8.4375 11 9V13.25Z"/></svg>