<svg width="24" height="24" viewBox="0 0 24 24" xmlns="http://www.w3.org/2000/svg" fill="#cacaca"><path d="M5 10.75C5.02083 9.6875 5.38542 8.80208 6.09375 8.09375C6.80208 7.38542 7.6875 7.02083 8.75 7H9C9.29167 7 9.53125 7.09375 9.71875 7.28125C9.90625 7.46875 10 7.70833 10 8C10 8.29167 9.90625 8.53125 9.71875 8.71875C9.53125 8.90625 9.29167 9 9 9H8.75C8.25 9.02083 7.83333 9.1875 7.5 9.5C7.1875 9.83333 7.02083 10.25 7 10.75V11H9C9.5625 11.0208 10.0312 11.2188 10.4062 11.5938C10.7812 11.9688 10.9792 12.4375 11 13V15C10.9792 15.5625 10.7812 16.0312 10.4062 16.4062C10.0312 16.7812 9.5625 16.9792 9 17H7C6.4375 16.9792 5.96875 16.7812 5.59375 16.4062C5.21875 16.0312 5.02083 15.5625 5 15V10.75ZM13 10.75C13.0208 9.6875 13.3854 8.80208 14.0938 8.09375C14.8021 7.38542 15.6875 7.02083 16.75 7H17C17.2917 7 17.5312 7.09375 17.7188 7.28125C17.9062 7.46875 18 7.70833 18 8C18 8.29167 17.9062 8.53125 17.7188 8.71875C17.5312 8.90625 17.2917 9 17 9H16.75C16.25 9.02083 15.8333 9.1875 15.5 9.5C15.1875 9.83333 15.0208 10.25 15 10.75V11H17C17.5625 11.0208 18.0312 11.2188 18.4062 11.5938C18.7812 11.9688 18.9792 12.4375 19 13V15C18.9792 15.5625 18.7812 16.0312 18.4062 16.4062C18.0312 16.7812 17.5625 16.9792 17 17H15C14.4375 16.9792 13.9688 16.7812 13.5938 16.4062C13.2188 16.0312 13.0208 15.5625 13 15V10.75Z"/></svg>