<svg width="24" height="24" viewBox="0 0 24 24" xmlns="http://www.w3.org/2000/svg" fill="#cacaca"><path d="M20.4023 4.64648L10.6992 7.49414H18.75C19.3828 7.51758 19.9102 7.74023 20.332 8.16211C20.7539 8.58398 20.9766 9.11133 21 9.74414V18.7441C20.9766 19.377 20.7539 19.9043 20.332 20.3262C19.9102 20.748 19.3828 20.9707 18.75 20.9941H5.25C4.61719 20.9707 4.08984 20.748 3.66797 20.3262C3.24609 19.9043 3.02344 19.377 3 18.7441V9.74414C3.02344 8.9707 3.33984 8.36133 3.94922 7.91602C4.20703 7.70508 4.5 7.55273 4.82812 7.45898L19.9102 3.0293C20.4258 2.93555 20.7773 3.12305 20.9648 3.5918C21.0586 4.10742 20.8711 4.45898 20.4023 4.64648ZM15.9375 11.4316C14.8828 11.4551 14.0742 11.9238 13.5117 12.8379C12.9961 13.7754 12.9961 14.7129 13.5117 15.6504C14.0742 16.5645 14.8828 17.0332 15.9375 17.0566C16.9922 17.0332 17.8008 16.5645 18.3633 15.6504C18.8789 14.7129 18.8789 13.7754 18.3633 12.8379C17.8008 11.9238 16.9922 11.4551 15.9375 11.4316ZM5.8125 11.9941C5.83594 12.3457 6.02344 12.5332 6.375 12.5566H9.75C10.1016 12.5332 10.2891 12.3457 10.3125 11.9941C10.2891 11.6426 10.1016 11.4551 9.75 11.4316H6.375C6.02344 11.4551 5.83594 11.6426 5.8125 11.9941ZM5.25 14.2441C5.27344 14.5957 5.46094 14.7832 5.8125 14.8066H10.3125C10.6641 14.7832 10.8516 14.5957 10.875 14.2441C10.8516 13.8926 10.6641 13.7051 10.3125 13.6816H5.8125C5.46094 13.7051 5.27344 13.8926 5.25 14.2441ZM5.8125 16.4941C5.83594 16.8457 6.02344 17.0332 6.375 17.0566H9.75C10.1016 17.0332 10.2891 16.8457 10.3125 16.4941C10.2891 16.1426 10.1016 15.9551 9.75 15.9316H6.375C6.02344 15.9551 5.83594 16.1426 5.8125 16.4941Z"/></svg>