<svg width="24" height="24" viewBox="0 0 24 24" xmlns="http://www.w3.org/2000/svg" fill="#cacaca"><path d="M8.1875 8.1875L9.65625 5.21875C9.71875 5.07292 9.83333 5 10 5C10.1667 5 10.2917 5.07292 10.375 5.21875L11.8125 8.1875C11.9375 8.45833 12 8.73958 12 9.03125C11.9792 9.59375 11.7917 10.0625 11.4375 10.4375C11.0625 10.7917 10.5938 10.9792 10.0312 11H9.96875C9.40625 10.9792 8.9375 10.7917 8.5625 10.4375C8.20833 10.0625 8.02083 9.59375 8 9.03125C8 8.73958 8.0625 8.45833 8.1875 8.1875ZM5.1875 14.1875L6.65625 11.2188C6.71875 11.0729 6.83333 11 7 11C7.16667 11 7.29167 11.0729 7.375 11.2188L8.8125 14.1875C8.9375 14.4583 9 14.7396 9 15.0312C8.97917 15.5938 8.79167 16.0625 8.4375 16.4375C8.0625 16.7917 7.59375 16.9792 7.03125 17H6.96875C6.40625 16.9792 5.9375 16.7917 5.5625 16.4375C5.20833 16.0625 5.02083 15.5938 5 15.0312C5 14.7396 5.0625 14.4583 5.1875 14.1875ZM14.625 8.21875C14.7083 8.07292 14.8333 8 15 8C15.1667 8 15.2917 8.07292 15.375 8.21875L18.4375 13.1875C18.8125 13.8125 19 14.4792 19 15.1875C18.9792 16.2708 18.6042 17.1667 17.875 17.875C17.1667 18.6042 16.2708 18.9792 15.1875 19H14.8125C13.7292 18.9792 12.8333 18.6042 12.125 17.875C11.3958 17.1667 11.0208 16.2708 11 15.1875C11 14.4792 11.1875 13.8125 11.5625 13.1875L14.625 8.21875Z"/></svg>