<svg width="24" height="24" viewBox="0 0 24 24" xmlns="http://www.w3.org/2000/svg" fill="#cacaca"><path d="M11 4H19C19.5625 4.02083 20.0312 4.21875 20.4062 4.59375C20.7812 4.96875 20.9792 5.4375 21 6V18C20.9792 18.5625 20.7812 19.0312 20.4062 19.4062C20.0312 19.7812 19.5625 19.9792 19 20H11C10.4375 19.9792 9.96875 19.7812 9.59375 19.4062C9.21875 19.0312 9.02083 18.5625 9 18V6C9.02083 5.4375 9.21875 4.96875 9.59375 4.59375C9.96875 4.21875 10.4375 4.02083 11 4ZM6 6.25C6.04167 5.79167 6.29167 5.54167 6.75 5.5C7.20833 5.54167 7.45833 5.79167 7.5 6.25V17.75C7.45833 18.2083 7.20833 18.4583 6.75 18.5C6.29167 18.4583 6.04167 18.2083 6 17.75V6.25ZM3 7.75C3.04167 7.29167 3.29167 7.04167 3.75 7C4.20833 7.04167 4.45833 7.29167 4.5 7.75V16.25C4.45833 16.7083 4.20833 16.9583 3.75 17C3.29167 16.9583 3.04167 16.7083 3 16.25V7.75Z"/></svg>