<svg width="24" height="24" viewBox="0 0 24 24" xmlns="http://www.w3.org/2000/svg" fill="#cacaca"><path d="M5 5H19C20.0938 5 21 5.90625 21 7V17C21 18.125 20.0938 19 19 19H5C3.875 19 3 18.125 3 17V7C3 5.90625 3.875 5 5 5ZM10.1562 9.4375C10.0313 9.15625 9.78125 9 9.5 9C9.1875 9 8.9375 9.1875 8.8125 9.4375L6.5625 13.9375C6.375 14.3125 6.53125 14.75 6.90625 14.9375C7.28125 15.125 7.71875 14.9687 7.90625 14.5938L8.0625 14.25H10.9062L11.0625 14.5938C11.25 14.9687 11.7188 15.125 12.0625 14.9375C12.4375 14.75 12.5938 14.3125 12.4062 13.9375L10.1562 9.4375ZM9.5 11.4375L10.1562 12.75H8.8125L9.5 11.4375ZM15.25 12C15.6563 12 16 12.3438 16 12.75C16 13.1875 15.6563 13.5 15.25 13.5C14.8125 13.5 14.5 13.1875 14.5 12.75C14.5 12.3438 14.8125 12 15.25 12ZM16 10.6562C15.75 10.5625 15.5 10.5 15.25 10.5C14 10.5 13 11.5313 13 12.75C13 14 14 15 15.25 15C15.5938 15 15.9062 14.9375 16.2188 14.7812C16.3437 14.9375 16.5313 15 16.75 15C17.1563 15 17.5 14.6875 17.5 14.25V12.75V9.75C17.5 9.34375 17.1563 9 16.75 9C16.3125 9 16 9.34375 16 9.75V10.6562Z"/></svg>