<svg width="24" height="24" viewBox="0 0 24 24" xmlns="http://www.w3.org/2000/svg" fill="#cacaca"><path d="M21 10.875V18.75C20.9766 19.3828 20.7539 19.9102 20.332 20.332C19.9102 20.7539 19.3828 20.9766 18.75 21H5.25C4.61719 20.9766 4.08984 20.7539 3.66797 20.332C3.24609 19.9102 3.02344 19.3828 3 18.75V10.875C3.02344 10.2422 3.24609 9.71484 3.66797 9.29297C4.08984 8.87109 4.61719 8.64844 5.25 8.625H18.75C19.3828 8.64844 19.9102 8.87109 20.332 9.29297C20.7539 9.71484 20.9766 10.2422 21 10.875ZM18.4688 5.8125C18.9844 5.85938 19.2656 6.14062 19.3125 6.65625C19.2656 7.17188 18.9844 7.45312 18.4688 7.5H5.53125C5.01562 7.45312 4.73438 7.17188 4.6875 6.65625C4.73438 6.14062 5.01562 5.85938 5.53125 5.8125H18.4688ZM16.7812 3C17.2969 3.04688 17.5781 3.32812 17.625 3.84375C17.5781 4.35938 17.2969 4.64062 16.7812 4.6875H7.21875C6.70312 4.64062 6.42188 4.35938 6.375 3.84375C6.42188 3.32812 6.70312 3.04688 7.21875 3H16.7812Z"/></svg>