<svg width="24" height="24" viewBox="0 0 24 24" xmlns="http://www.w3.org/2000/svg" fill="#cacaca"><path d="M5 5H19C19.5625 5.02083 20.0312 5.21875 20.4062 5.59375C20.7812 5.96875 20.9792 6.4375 21 7V17C20.9792 17.5625 20.7812 18.0312 20.4062 18.4062C20.0312 18.7812 19.5625 18.9792 19 19H5C4.4375 18.9792 3.96875 18.7812 3.59375 18.4062C3.21875 18.0312 3.02083 17.5625 3 17V7C3.02083 6.4375 3.21875 5.96875 3.59375 5.59375C3.96875 5.21875 4.4375 5.02083 5 5ZM6.75 8C6.29167 8.04167 6.04167 8.29167 6 8.75V15.25C6.04167 15.7083 6.29167 15.9583 6.75 16C7.20833 15.9583 7.45833 15.7083 7.5 15.25V8.75C7.45833 8.29167 7.20833 8.04167 6.75 8ZM8.5 8.5V15.5C8.52083 15.8125 8.6875 15.9792 9 16C9.3125 15.9792 9.47917 15.8125 9.5 15.5V8.5C9.47917 8.1875 9.3125 8.02083 9 8C8.6875 8.02083 8.52083 8.1875 8.5 8.5ZM11.25 8C10.7917 8.04167 10.5417 8.29167 10.5 8.75V15.25C10.5417 15.7083 10.7917 15.9583 11.25 16C11.7083 15.9583 11.9583 15.7083 12 15.25V8.75C11.9583 8.29167 11.7083 8.04167 11.25 8ZM14 8.75V15.25C14.0417 15.7083 14.2917 15.9583 14.75 16C15.2083 15.9583 15.4583 15.7083 15.5 15.25V8.75C15.4583 8.29167 15.2083 8.04167 14.75 8C14.2917 8.04167 14.0417 8.29167 14 8.75ZM17.5 8C17.1875 8.02083 17.0208 8.1875 17 8.5V15.5C17.0208 15.8125 17.1875 15.9792 17.5 16C17.8125 15.9792 17.9792 15.8125 18 15.5V8.5C17.9792 8.1875 17.8125 8.02083 17.5 8Z"/></svg>