<svg width="24" height="24" viewBox="0 0 24 24" xmlns="http://www.w3.org/2000/svg" fill="#cacaca"><mask id="path-1-outside-1_14206_6105" maskUnits="userSpaceOnUse" x="1.21832" y="0.88002" width="21" height="22" fill="black"><rect fill="white" x="1.21832" y="0.88002" width="21" height="22"/><path d="M8.75861 17.4994C7.92932 17.4994 7.26573 16.8112 7.26573 16.0372V12.0763C7.26558 11.8713 7.3044 11.6682 7.37996 11.4788C7.45551 11.2893 7.56633 11.1172 7.70608 10.9722C7.84583 10.8272 8.01176 10.7121 8.19439 10.6337C8.37702 10.5552 8.57278 10.5148 8.77046 10.5149H9.64248C9.64555 10.5149 9.6485 10.5136 9.65067 10.5114C9.65284 10.5091 9.65406 10.5061 9.65406 10.5029V9.03637C9.65406 7.74629 10.4172 6.95457 11.6611 6.95457C12.905 6.95457 13.6684 7.74601 13.6684 9.03637V10.5037C13.6684 10.5069 13.6697 10.51 13.6718 10.5122C13.674 10.5145 13.6769 10.5157 13.68 10.5157H14.4693C14.667 10.5155 14.8628 10.5558 15.0456 10.6341C15.2283 10.7125 15.3943 10.8274 15.5341 10.9723C15.674 11.1173 15.7849 11.2894 15.8606 11.4788C15.9363 11.6682 15.9752 11.8713 15.9752 12.0763V16.0252C15.9752 16.4162 15.8254 16.7911 15.5588 17.0676C15.2923 17.3441 14.9307 17.4994 14.5537 17.4994H8.75861ZM8.77019 11.4621C8.69242 11.4621 8.61541 11.478 8.54357 11.5089C8.47172 11.5398 8.40644 11.585 8.35145 11.642C8.29646 11.6991 8.25283 11.7668 8.22307 11.8413C8.19331 11.9158 8.178 11.9956 8.178 12.0763V16.0252C8.178 16.1881 8.24039 16.3443 8.35145 16.4595C8.4625 16.5746 8.61313 16.6393 8.77019 16.6393H14.3866C14.5437 16.6393 14.6943 16.5746 14.8054 16.4595C14.9164 16.3443 14.9788 16.1881 14.9788 16.0252V12.0763C14.9788 11.9956 14.9635 11.9158 14.9337 11.8413C14.904 11.7668 14.8604 11.6991 14.8054 11.642C14.7504 11.585 14.6851 11.5398 14.6132 11.5089C14.5414 11.478 14.4644 11.4621 14.3866 11.4621H8.77019ZM12.6619 10.5149C12.665 10.5149 12.6679 10.5136 12.6701 10.5114C12.6722 10.5091 12.6735 10.5061 12.6735 10.5029V9.03637C12.6735 8.26238 12.325 7.90097 11.5787 7.90097C10.9151 7.90097 10.5666 8.26238 10.5666 9.03637V10.5037C10.5666 10.5069 10.5678 10.51 10.57 10.5122C10.5722 10.5145 10.5751 10.5157 10.5782 10.5157L12.6619 10.5149Z"/><path d="M14.5526 17.6424H8.75861C7.87473 17.6424 7.12788 16.9072 7.12788 16.0372V12.0763C7.1281 11.6245 7.3012 11.1912 7.60917 10.8717C7.91715 10.5521 8.33481 10.3724 8.77046 10.3719H9.51649V9.03637C9.51649 7.66395 10.3383 6.81161 11.6614 6.81161C12.9844 6.81161 13.8066 7.66395 13.8066 9.03637V10.3719H14.4696C14.9054 10.3721 15.3233 10.5518 15.6314 10.8714C15.9396 11.191 16.1128 11.6243 16.113 12.0763V16.0252C16.1125 16.4541 15.9479 16.8653 15.6553 17.1685C15.3628 17.4717 14.9662 17.6421 14.5526 17.6424ZM8.77046 10.6578C8.40815 10.6583 8.0608 10.8078 7.8046 11.0735C7.54841 11.3392 7.40429 11.6994 7.40385 12.0752V16.0372C7.40385 16.752 8.02444 17.3564 8.75888 17.3564H14.5526C14.8931 17.3563 15.2196 17.216 15.4605 16.9664C15.7014 16.7168 15.8369 16.3783 15.8373 16.0252V12.0763C15.8373 11.7001 15.6931 11.3394 15.4366 11.0734C15.1802 10.8074 14.8323 10.6579 14.4696 10.6578H13.6803C13.6407 10.6578 13.6027 10.6414 13.5747 10.6124C13.5467 10.5833 13.5309 10.5439 13.5309 10.5029V9.03637C13.5309 7.82235 12.832 7.09753 11.6614 7.09753C10.4908 7.09753 9.79219 7.82235 9.79219 9.03637V10.5037C9.79189 10.5447 9.77599 10.5839 9.74795 10.6128C9.71991 10.6416 9.682 10.6578 9.64248 10.6578H8.77046ZM14.3866 16.7823H8.77046C8.57691 16.7821 8.39135 16.7022 8.25449 16.5603C8.11763 16.4184 8.04065 16.2259 8.04043 16.0252V12.0763C8.04065 11.8756 8.11763 11.6831 8.25449 11.5412C8.39135 11.3992 8.57691 11.3194 8.77046 11.3192H14.3866C14.5802 11.3194 14.7657 11.3992 14.9026 11.5412C15.0395 11.6831 15.1164 11.8756 15.1167 12.0763V16.0252C15.1164 16.2259 15.0395 16.4184 14.9026 16.5603C14.7657 16.7022 14.5802 16.7821 14.3866 16.7823ZM8.77046 11.6051C8.65001 11.6053 8.53453 11.6549 8.44936 11.7433C8.36418 11.8316 8.31627 11.9514 8.31612 12.0763V16.0252C8.31627 16.1501 8.36418 16.2699 8.44936 16.3582C8.53453 16.4465 8.65001 16.4962 8.77046 16.4964H14.3866C14.5071 16.4962 14.6226 16.4465 14.7077 16.3582C14.7929 16.2699 14.8408 16.1501 14.841 16.0252V12.0763C14.8408 11.9514 14.7929 11.8316 14.7077 11.7433C14.6226 11.6549 14.5071 11.6053 14.3866 11.6051H8.77046ZM12.6619 10.6578H10.5782C10.5386 10.6578 10.5006 10.6414 10.4726 10.6124C10.4446 10.5833 10.4288 10.5439 10.4288 10.5029V9.03637C10.4288 8.20005 10.8263 7.75801 11.5787 7.75801C12.3967 7.75801 12.8113 8.1869 12.8113 9.03637V10.5037C12.811 10.5447 12.7952 10.5838 12.7672 10.6127C12.7392 10.6415 12.7013 10.6578 12.6619 10.6578ZM10.7045 10.3719H12.5356V9.03637C12.5356 8.34072 12.2494 8.04394 11.5787 8.04394C10.9824 8.04394 10.7045 8.35845 10.7045 9.03637V10.3719Z"/><path d="M11.6705 21.737C6.53789 21.737 2.35589 17.3999 2.35589 12.0772C2.35589 6.75443 6.53789 2.41727 11.6705 2.41727C13.8377 2.41727 15.8183 3.1924 17.5193 4.55054C17.5226 4.55323 17.5267 4.55479 17.5309 4.55502C17.5351 4.55525 17.5392 4.55414 17.5428 4.55182C17.5463 4.54951 17.5491 4.54611 17.5507 4.54209C17.5524 4.53807 17.5528 4.53363 17.5519 4.52938L17.1835 2.7152V2.71091C17.1835 2.61227 17.1835 2.41927 17.2764 2.32091L17.2798 2.31605C17.374 2.12067 17.4685 2.02298 17.5632 2.02298H17.6569C17.8469 2.02298 18.1322 2.21998 18.1322 2.41727L18.7972 5.96271V6.06335C18.7972 6.359 18.6069 6.556 18.417 6.556L14.9984 7.24564H14.9013C14.7114 7.24564 14.426 7.04835 14.426 6.85135C14.426 6.75271 14.426 6.55571 14.5212 6.45707C14.6163 6.35842 14.7111 6.26007 14.8062 6.26007L17.2376 5.774C17.2414 5.77327 17.2449 5.77146 17.2477 5.76878C17.2505 5.76611 17.2526 5.76266 17.2537 5.75883C17.2547 5.755 17.2547 5.75094 17.2537 5.7471C17.2527 5.74327 17.2506 5.73981 17.2478 5.73711C15.461 4.01729 13.0266 3.2433 10.5539 3.57325C6.77472 4.08162 3.83527 7.2425 3.44626 11.1742C2.95636 16.1284 6.55278 20.3455 11.161 20.6365C15.9305 20.9379 19.9405 16.9633 19.9394 12.0091C19.9394 11.5087 19.9363 11.0779 19.871 10.6547C19.8545 10.5475 19.823 10.4045 19.8018 10.2967C19.7856 10.2216 19.7771 10.1449 19.7764 10.068C19.7801 10.0363 19.7895 10.0055 19.804 9.97734C19.8288 9.92702 19.9217 9.74861 20.2233 9.71286H20.3185C20.6032 9.71286 20.7711 9.92673 20.888 10.3004V10.3039C20.9815 10.5555 21.0772 11.3223 21.0777 12.0766C21.083 17.4002 16.8009 21.7365 11.6683 21.7365L11.6705 21.737Z"/><path d="M11.6705 21.88C6.45987 21.88 2.21832 17.4825 2.21832 12.0772C2.21832 6.67179 6.45849 2.27431 11.6705 2.27431C12.743 2.2733 13.8076 2.46463 14.8173 2.83986C15.7226 3.1802 16.5767 3.65252 17.3536 4.2426L17.0504 2.74436C17.0481 2.73327 17.047 2.72196 17.0471 2.71062C17.0471 2.6014 17.0471 2.37838 17.1653 2.23628C17.2158 2.13249 17.3479 1.88002 17.5632 1.88002H17.6569C17.8948 1.88002 18.2571 2.11219 18.2698 2.40154L18.9314 5.9364C18.9334 5.94676 18.9344 5.95729 18.9345 5.96785V6.0645C18.9345 6.40903 18.7098 6.69066 18.4311 6.7001L15.0232 7.38632C15.0132 7.38838 15.0031 7.38943 14.9929 7.38946H14.8997C14.6576 7.38946 14.2865 7.14871 14.2865 6.85221C14.2865 6.73784 14.2865 6.4971 14.4222 6.35671C14.5325 6.24234 14.6447 6.12597 14.7894 6.11825L16.9806 5.68279C15.2542 4.11765 12.9323 3.40284 10.5716 3.71793C8.76654 3.9628 7.0945 4.83387 5.82743 6.18944C4.56171 7.54902 3.77154 9.30908 3.58301 11.1888C3.35335 13.5105 4.02412 15.7618 5.46958 17.5286C6.1677 18.3839 7.02321 19.0862 7.98611 19.5946C9.47318 20.3822 11.1589 20.6727 12.8117 20.4262C14.4644 20.1797 16.0029 19.4084 17.2158 18.2182C18.0336 17.4219 18.685 16.46 19.1298 15.392C19.5746 14.324 19.8034 13.1727 19.8018 12.0094C19.8018 11.481 19.7968 11.0761 19.7354 10.6776C19.7241 10.6044 19.7045 10.5092 19.6874 10.4254C19.6802 10.3905 19.6733 10.3568 19.6673 10.3259C19.6518 10.2561 19.6431 10.185 19.6413 10.1134L19.6394 10.0777C19.6394 10.0608 19.6356 10.0102 19.6827 9.91387C19.777 9.7223 19.9642 9.60107 20.2096 9.57219H20.3201C20.8062 9.57219 20.9677 10.0889 21.0209 10.2584L21.0229 10.2644C21.1306 10.5692 21.2175 11.3755 21.2183 12.0783C21.2208 14.6565 20.2385 17.0974 18.4523 18.9519C17.5763 19.8636 16.5386 20.591 15.3962 21.094C14.2183 21.6145 12.9509 21.8819 11.6705 21.88ZM11.6705 2.56023C6.6104 2.56023 2.49374 6.82962 2.49374 12.0772C2.49374 17.3247 6.6104 21.5941 11.6705 21.5941C12.9131 21.5952 14.143 21.3351 15.2859 20.8295C16.3962 20.3414 17.405 19.635 18.2565 18.7494C19.9907 16.9481 20.9446 14.5798 20.9421 12.0783C20.9421 11.3378 20.8481 10.5915 20.7615 10.3568L20.756 10.3388C20.6217 9.91444 20.4599 9.85726 20.3196 9.85726H20.2327C20.0819 9.8767 19.9793 9.93932 19.9281 10.0437C19.9232 10.0537 19.9188 10.064 19.9151 10.0746V10.0969C19.9161 10.1546 19.923 10.2122 19.9358 10.2684C19.9419 10.2987 19.9485 10.3316 19.9556 10.3656C19.9736 10.4528 19.9937 10.5518 20.0064 10.6324C20.0712 11.0518 20.0761 11.4676 20.0764 12.0094C20.0776 13.8012 19.5513 15.5507 18.568 17.024C17.5846 18.4973 16.191 19.6242 14.5735 20.254C13.4885 20.6712 12.3318 20.8506 11.1765 20.781C10.0213 20.7115 8.89242 20.3943 7.86122 19.8497C6.86583 19.3241 5.98145 18.598 5.25978 17.7138C3.76441 15.8871 3.0727 13.5594 3.30924 11.1596C3.50414 9.21608 4.3211 7.39623 5.62976 5.99044C6.93821 4.58519 8.66891 3.6837 10.5371 3.43429C13.0592 3.09776 15.5396 3.90006 17.3423 5.6359C17.3638 5.65656 17.3793 5.68297 17.3872 5.71222C17.3951 5.74147 17.395 5.77241 17.3869 5.80161C17.3789 5.83081 17.3632 5.85712 17.3416 5.87763C17.32 5.89814 17.2933 5.91205 17.2646 5.91782L14.8203 6.40389H14.8071C14.769 6.40389 14.6717 6.50482 14.6196 6.55914C14.5675 6.61347 14.5644 6.78788 14.5644 6.85221C14.5644 6.95086 14.7693 7.10354 14.9019 7.10354H14.9846L18.4062 6.41332H18.4195C18.5366 6.41332 18.6618 6.27265 18.6618 6.06364V5.97786L17.9957 2.43099V2.41727C17.9957 2.31863 17.7909 2.16594 17.6583 2.16594H17.5632C17.5632 2.16594 17.502 2.17509 17.4024 2.3801L17.3977 2.38982L17.3837 2.41012L17.3749 2.42013C17.3241 2.47417 17.3197 2.62656 17.3197 2.69776L17.6853 4.49907C17.692 4.53191 17.6888 4.56608 17.6761 4.59698C17.6635 4.62787 17.642 4.65401 17.6146 4.67186C17.5872 4.68972 17.5552 4.69843 17.5229 4.69683C17.4906 4.69523 17.4595 4.68339 17.4339 4.6629C16.5834 3.98384 15.6711 3.46203 14.7219 3.10834C13.7428 2.74472 12.7105 2.55929 11.6705 2.56023Z"/></mask><path d="M8.75861 17.4994C7.92932 17.4994 7.26573 16.8112 7.26573 16.0372V12.0763C7.26558 11.8713 7.3044 11.6682 7.37996 11.4788C7.45551 11.2893 7.56633 11.1172 7.70608 10.9722C7.84583 10.8272 8.01176 10.7121 8.19439 10.6337C8.37702 10.5552 8.57278 10.5148 8.77046 10.5149H9.64248C9.64555 10.5149 9.6485 10.5136 9.65067 10.5114C9.65284 10.5091 9.65406 10.5061 9.65406 10.5029V9.03637C9.65406 7.74629 10.4172 6.95457 11.6611 6.95457C12.905 6.95457 13.6684 7.74601 13.6684 9.03637V10.5037C13.6684 10.5069 13.6697 10.51 13.6718 10.5122C13.674 10.5145 13.6769 10.5157 13.68 10.5157H14.4693C14.667 10.5155 14.8628 10.5558 15.0456 10.6341C15.2283 10.7125 15.3943 10.8274 15.5341 10.9723C15.674 11.1173 15.7849 11.2894 15.8606 11.4788C15.9363 11.6682 15.9752 11.8713 15.9752 12.0763V16.0252C15.9752 16.4162 15.8254 16.7911 15.5588 17.0676C15.2923 17.3441 14.9307 17.4994 14.5537 17.4994H8.75861ZM8.77019 11.4621C8.69242 11.4621 8.61541 11.478 8.54357 11.5089C8.47172 11.5398 8.40644 11.585 8.35145 11.642C8.29646 11.6991 8.25283 11.7668 8.22307 11.8413C8.19331 11.9158 8.178 11.9956 8.178 12.0763V16.0252C8.178 16.1881 8.24039 16.3443 8.35145 16.4595C8.4625 16.5746 8.61313 16.6393 8.77019 16.6393H14.3866C14.5437 16.6393 14.6943 16.5746 14.8054 16.4595C14.9164 16.3443 14.9788 16.1881 14.9788 16.0252V12.0763C14.9788 11.9956 14.9635 11.9158 14.9337 11.8413C14.904 11.7668 14.8604 11.6991 14.8054 11.642C14.7504 11.585 14.6851 11.5398 14.6132 11.5089C14.5414 11.478 14.4644 11.4621 14.3866 11.4621H8.77019ZM12.6619 10.5149C12.665 10.5149 12.6679 10.5136 12.6701 10.5114C12.6722 10.5091 12.6735 10.5061 12.6735 10.5029V9.03637C12.6735 8.26238 12.325 7.90097 11.5787 7.90097C10.9151 7.90097 10.5666 8.26238 10.5666 9.03637V10.5037C10.5666 10.5069 10.5678 10.51 10.57 10.5122C10.5722 10.5145 10.5751 10.5157 10.5782 10.5157L12.6619 10.5149Z"/><path d="M14.5526 17.6424H8.75861C7.87473 17.6424 7.12788 16.9072 7.12788 16.0372V12.0763C7.1281 11.6245 7.3012 11.1912 7.60917 10.8717C7.91715 10.5521 8.33481 10.3724 8.77046 10.3719H9.51649V9.03637C9.51649 7.66395 10.3383 6.81161 11.6614 6.81161C12.9844 6.81161 13.8066 7.66395 13.8066 9.03637V10.3719H14.4696C14.9054 10.3721 15.3233 10.5518 15.6314 10.8714C15.9396 11.191 16.1128 11.6243 16.113 12.0763V16.0252C16.1125 16.4541 15.9479 16.8653 15.6553 17.1685C15.3628 17.4717 14.9662 17.6421 14.5526 17.6424ZM8.77046 10.6578C8.40815 10.6583 8.0608 10.8078 7.8046 11.0735C7.54841 11.3392 7.40429 11.6994 7.40385 12.0752V16.0372C7.40385 16.752 8.02444 17.3564 8.75888 17.3564H14.5526C14.8931 17.3563 15.2196 17.216 15.4605 16.9664C15.7014 16.7168 15.8369 16.3783 15.8373 16.0252V12.0763C15.8373 11.7001 15.6931 11.3394 15.4366 11.0734C15.1802 10.8074 14.8323 10.6579 14.4696 10.6578H13.6803C13.6407 10.6578 13.6027 10.6414 13.5747 10.6124C13.5467 10.5833 13.5309 10.5439 13.5309 10.5029V9.03637C13.5309 7.82235 12.832 7.09753 11.6614 7.09753C10.4908 7.09753 9.79219 7.82235 9.79219 9.03637V10.5037C9.79189 10.5447 9.77599 10.5839 9.74795 10.6128C9.71991 10.6416 9.682 10.6578 9.64248 10.6578H8.77046ZM14.3866 16.7823H8.77046C8.57691 16.7821 8.39135 16.7022 8.25449 16.5603C8.11763 16.4184 8.04065 16.2259 8.04043 16.0252V12.0763C8.04065 11.8756 8.11763 11.6831 8.25449 11.5412C8.39135 11.3992 8.57691 11.3194 8.77046 11.3192H14.3866C14.5802 11.3194 14.7657 11.3992 14.9026 11.5412C15.0395 11.6831 15.1164 11.8756 15.1167 12.0763V16.0252C15.1164 16.2259 15.0395 16.4184 14.9026 16.5603C14.7657 16.7022 14.5802 16.7821 14.3866 16.7823ZM8.77046 11.6051C8.65001 11.6053 8.53453 11.6549 8.44936 11.7433C8.36418 11.8316 8.31627 11.9514 8.31612 12.0763V16.0252C8.31627 16.1501 8.36418 16.2699 8.44936 16.3582C8.53453 16.4465 8.65001 16.4962 8.77046 16.4964H14.3866C14.5071 16.4962 14.6226 16.4465 14.7077 16.3582C14.7929 16.2699 14.8408 16.1501 14.841 16.0252V12.0763C14.8408 11.9514 14.7929 11.8316 14.7077 11.7433C14.6226 11.6549 14.5071 11.6053 14.3866 11.6051H8.77046ZM12.6619 10.6578H10.5782C10.5386 10.6578 10.5006 10.6414 10.4726 10.6124C10.4446 10.5833 10.4288 10.5439 10.4288 10.5029V9.03637C10.4288 8.20005 10.8263 7.75801 11.5787 7.75801C12.3967 7.75801 12.8113 8.1869 12.8113 9.03637V10.5037C12.811 10.5447 12.7952 10.5838 12.7672 10.6127C12.7392 10.6415 12.7013 10.6578 12.6619 10.6578ZM10.7045 10.3719H12.5356V9.03637C12.5356 8.34072 12.2494 8.04394 11.5787 8.04394C10.9824 8.04394 10.7045 8.35845 10.7045 9.03637V10.3719Z"/><path d="M11.6705 21.737C6.53789 21.737 2.35589 17.3999 2.35589 12.0772C2.35589 6.75443 6.53789 2.41727 11.6705 2.41727C13.8377 2.41727 15.8183 3.1924 17.5193 4.55054C17.5226 4.55323 17.5267 4.55479 17.5309 4.55502C17.5351 4.55525 17.5392 4.55414 17.5428 4.55182C17.5463 4.54951 17.5491 4.54611 17.5507 4.54209C17.5524 4.53807 17.5528 4.53363 17.5519 4.52938L17.1835 2.7152V2.71091C17.1835 2.61227 17.1835 2.41927 17.2764 2.32091L17.2798 2.31605C17.374 2.12067 17.4685 2.02298 17.5632 2.02298H17.6569C17.8469 2.02298 18.1322 2.21998 18.1322 2.41727L18.7972 5.96271V6.06335C18.7972 6.359 18.6069 6.556 18.417 6.556L14.9984 7.24564H14.9013C14.7114 7.24564 14.426 7.04835 14.426 6.85135C14.426 6.75271 14.426 6.55571 14.5212 6.45707C14.6163 6.35842 14.7111 6.26007 14.8062 6.26007L17.2376 5.774C17.2414 5.77327 17.2449 5.77146 17.2477 5.76878C17.2505 5.76611 17.2526 5.76266 17.2537 5.75883C17.2547 5.755 17.2547 5.75094 17.2537 5.7471C17.2527 5.74327 17.2506 5.73981 17.2478 5.73711C15.461 4.01729 13.0266 3.2433 10.5539 3.57325C6.77472 4.08162 3.83527 7.2425 3.44626 11.1742C2.95636 16.1284 6.55278 20.3455 11.161 20.6365C15.9305 20.9379 19.9405 16.9633 19.9394 12.0091C19.9394 11.5087 19.9363 11.0779 19.871 10.6547C19.8545 10.5475 19.823 10.4045 19.8018 10.2967C19.7856 10.2216 19.7771 10.1449 19.7764 10.068C19.7801 10.0363 19.7895 10.0055 19.804 9.97734C19.8288 9.92702 19.9217 9.74861 20.2233 9.71286H20.3185C20.6032 9.71286 20.7711 9.92673 20.888 10.3004V10.3039C20.9815 10.5555 21.0772 11.3223 21.0777 12.0766C21.083 17.4002 16.8009 21.7365 11.6683 21.7365L11.6705 21.737Z"/><path d="M11.6705 21.88C6.45987 21.88 2.21832 17.4825 2.21832 12.0772C2.21832 6.67179 6.45849 2.27431 11.6705 2.27431C12.743 2.2733 13.8076 2.46463 14.8173 2.83986C15.7226 3.1802 16.5767 3.65252 17.3536 4.2426L17.0504 2.74436C17.0481 2.73327 17.047 2.72196 17.0471 2.71062C17.0471 2.6014 17.0471 2.37838 17.1653 2.23628C17.2158 2.13249 17.3479 1.88002 17.5632 1.88002H17.6569C17.8948 1.88002 18.2571 2.11219 18.2698 2.40154L18.9314 5.9364C18.9334 5.94676 18.9344 5.95729 18.9345 5.96785V6.0645C18.9345 6.40903 18.7098 6.69066 18.4311 6.7001L15.0232 7.38632C15.0132 7.38838 15.0031 7.38943 14.9929 7.38946H14.8997C14.6576 7.38946 14.2865 7.14871 14.2865 6.85221C14.2865 6.73784 14.2865 6.4971 14.4222 6.35671C14.5325 6.24234 14.6447 6.12597 14.7894 6.11825L16.9806 5.68279C15.2542 4.11765 12.9323 3.40284 10.5716 3.71793C8.76654 3.9628 7.0945 4.83387 5.82743 6.18944C4.56171 7.54902 3.77154 9.30908 3.58301 11.1888C3.35335 13.5105 4.02412 15.7618 5.46958 17.5286C6.1677 18.3839 7.02321 19.0862 7.98611 19.5946C9.47318 20.3822 11.1589 20.6727 12.8117 20.4262C14.4644 20.1797 16.0029 19.4084 17.2158 18.2182C18.0336 17.4219 18.685 16.46 19.1298 15.392C19.5746 14.324 19.8034 13.1727 19.8018 12.0094C19.8018 11.481 19.7968 11.0761 19.7354 10.6776C19.7241 10.6044 19.7045 10.5092 19.6874 10.4254C19.6802 10.3905 19.6733 10.3568 19.6673 10.3259C19.6518 10.2561 19.6431 10.185 19.6413 10.1134L19.6394 10.0777C19.6394 10.0608 19.6356 10.0102 19.6827 9.91387C19.777 9.7223 19.9642 9.60107 20.2096 9.57219H20.3201C20.8062 9.57219 20.9677 10.0889 21.0209 10.2584L21.0229 10.2644C21.1306 10.5692 21.2175 11.3755 21.2183 12.0783C21.2208 14.6565 20.2385 17.0974 18.4523 18.9519C17.5763 19.8636 16.5386 20.591 15.3962 21.094C14.2183 21.6145 12.9509 21.8819 11.6705 21.88ZM11.6705 2.56023C6.6104 2.56023 2.49374 6.82962 2.49374 12.0772C2.49374 17.3247 6.6104 21.5941 11.6705 21.5941C12.9131 21.5952 14.143 21.3351 15.2859 20.8295C16.3962 20.3414 17.405 19.635 18.2565 18.7494C19.9907 16.9481 20.9446 14.5798 20.9421 12.0783C20.9421 11.3378 20.8481 10.5915 20.7615 10.3568L20.756 10.3388C20.6217 9.91444 20.4599 9.85726 20.3196 9.85726H20.2327C20.0819 9.8767 19.9793 9.93932 19.9281 10.0437C19.9232 10.0537 19.9188 10.064 19.9151 10.0746V10.0969C19.9161 10.1546 19.923 10.2122 19.9358 10.2684C19.9419 10.2987 19.9485 10.3316 19.9556 10.3656C19.9736 10.4528 19.9937 10.5518 20.0064 10.6324C20.0712 11.0518 20.0761 11.4676 20.0764 12.0094C20.0776 13.8012 19.5513 15.5507 18.568 17.024C17.5846 18.4973 16.191 19.6242 14.5735 20.254C13.4885 20.6712 12.3318 20.8506 11.1765 20.781C10.0213 20.7115 8.89242 20.3943 7.86122 19.8497C6.86583 19.3241 5.98145 18.598 5.25978 17.7138C3.76441 15.8871 3.0727 13.5594 3.30924 11.1596C3.50414 9.21608 4.3211 7.39623 5.62976 5.99044C6.93821 4.58519 8.66891 3.6837 10.5371 3.43429C13.0592 3.09776 15.5396 3.90006 17.3423 5.6359C17.3638 5.65656 17.3793 5.68297 17.3872 5.71222C17.3951 5.74147 17.395 5.77241 17.3869 5.80161C17.3789 5.83081 17.3632 5.85712 17.3416 5.87763C17.32 5.89814 17.2933 5.91205 17.2646 5.91782L14.8203 6.40389H14.8071C14.769 6.40389 14.6717 6.50482 14.6196 6.55914C14.5675 6.61347 14.5644 6.78788 14.5644 6.85221C14.5644 6.95086 14.7693 7.10354 14.9019 7.10354H14.9846L18.4062 6.41332H18.4195C18.5366 6.41332 18.6618 6.27265 18.6618 6.06364V5.97786L17.9957 2.43099V2.41727C17.9957 2.31863 17.7909 2.16594 17.6583 2.16594H17.5632C17.5632 2.16594 17.502 2.17509 17.4024 2.3801L17.3977 2.38982L17.3837 2.41012L17.3749 2.42013C17.3241 2.47417 17.3197 2.62656 17.3197 2.69776L17.6853 4.49907C17.692 4.53191 17.6888 4.56608 17.6761 4.59698C17.6635 4.62787 17.642 4.65401 17.6146 4.67186C17.5872 4.68972 17.5552 4.69843 17.5229 4.69683C17.4906 4.69523 17.4595 4.68339 17.4339 4.6629C16.5834 3.98384 15.6711 3.46203 14.7219 3.10834C13.7428 2.74472 12.7105 2.55929 11.6705 2.56023Z"/><path d="M21.0179 10.2515L20.9246 10.2875L20.9262 10.2918L21.0195 10.2558L21.1128 10.2199L21.1112 10.2156L21.0179 10.2515ZM7.26573 12.0763H7.46573L7.46573 12.0762L7.26573 12.0763ZM8.77046 10.5149L8.77042 10.7149H8.77046V10.5149ZM9.65406 10.5029H9.45406H9.65406ZM13.6684 10.5037H13.4684V10.5037H13.6684ZM13.68 10.5157V10.7157V10.7157V10.5157ZM14.4693 10.5157V10.7157H14.4695L14.4693 10.5157ZM15.9752 12.0763L15.7752 12.0763V12.0763H15.9752ZM8.77019 11.4621V11.2621V11.4621ZM8.178 12.0763H8.378V12.0763H8.178ZM8.178 16.0252H8.378H8.178ZM8.77019 16.6393V16.8393V16.6393ZM14.9788 16.0252H15.1788H14.9788ZM14.9788 12.0763H14.7788V12.0763H14.9788ZM14.3866 11.4621V11.2621V11.4621ZM12.6619 10.5149V10.3149H12.6618L12.6619 10.5149ZM10.5666 10.5037H10.3666V10.5037H10.5666ZM10.5782 10.5157V10.7157H10.5783L10.5782 10.5157ZM14.5526 17.6424V17.8424H14.5527L14.5526 17.6424ZM7.12788 16.0372H6.92788H7.12788ZM7.12788 12.0763L6.92788 12.0762V12.0763H7.12788ZM8.77046 10.3719V10.1719H8.77026L8.77046 10.3719ZM9.51649 10.3719V10.5719H9.71649V10.3719H9.51649ZM13.8066 10.3719H13.6066V10.5719H13.8066V10.3719ZM14.4696 10.3719L14.4697 10.1719H14.4696V10.3719ZM16.113 12.0763H16.313V12.0762L16.113 12.0763ZM16.113 16.0252L16.313 16.0254V16.0252H16.113ZM8.77046 10.6578V10.4578H8.77021L8.77046 10.6578ZM7.40385 12.0752L7.20385 12.0749V12.0752H7.40385ZM14.5526 17.3564V17.5564H14.5527L14.5526 17.3564ZM15.8373 16.0252L16.0373 16.0254V16.0252H15.8373ZM15.8373 12.0763H16.0373V12.0763L15.8373 12.0763ZM14.4696 10.6578L14.4696 10.4578H14.4696V10.6578ZM13.6803 10.6578L13.6799 10.8578H13.6803V10.6578ZM13.5309 10.5029H13.3309L13.3309 10.5032L13.5309 10.5029ZM9.79219 10.5037L9.99219 10.5051V10.5037H9.79219ZM9.64248 10.6578L9.64249 10.4578H9.64248V10.6578ZM14.3866 16.7823V16.9823H14.3869L14.3866 16.7823ZM8.77046 16.7823L8.77023 16.9823H8.77046V16.7823ZM8.04043 16.0252H7.84043L7.84043 16.0254L8.04043 16.0252ZM8.04043 12.0763L7.84043 12.0761V12.0763H8.04043ZM8.77046 11.3192V11.1192H8.77023L8.77046 11.3192ZM14.3866 11.3192L14.3869 11.1192H14.3866V11.3192ZM15.1167 12.0763H15.3167V12.0761L15.1167 12.0763ZM15.1167 16.0252L15.3167 16.0254V16.0252H15.1167ZM8.77046 11.6051V11.4051H8.77021L8.77046 11.6051ZM8.31612 12.0763L8.11612 12.0761V12.0763H8.31612ZM8.31612 16.0252H8.11612L8.11612 16.0254L8.31612 16.0252ZM8.77046 16.4964L8.77021 16.6964H8.77046V16.4964ZM14.3866 16.4964V16.6964H14.3869L14.3866 16.4964ZM14.841 16.0252L15.041 16.0254V16.0252H14.841ZM14.841 12.0763H15.041V12.0761L14.841 12.0763ZM14.3866 11.6051L14.3869 11.4051H14.3866V11.6051ZM12.6619 10.6578V10.8578L12.6623 10.8578L12.6619 10.6578ZM10.5782 10.6578L10.5778 10.8578H10.5782V10.6578ZM10.4288 10.5029H10.2288L10.2288 10.5032L10.4288 10.5029ZM11.5787 7.75801V7.95801V7.95801V7.75801ZM12.8113 10.5037L13.0113 10.5051V10.5037H12.8113ZM10.7045 10.3719H10.5045V10.5719H10.7045V10.3719ZM12.5356 10.3719V10.5719H12.7356V10.3719H12.5356ZM10.7045 9.03637H10.9045H10.7045ZM11.6705 21.737V21.937L11.7209 21.5435L11.6705 21.737ZM17.5193 4.55054L17.6456 4.39546L17.6441 4.39424L17.5193 4.55054ZM17.5519 4.52938L17.3559 4.56917L17.3562 4.57063L17.5519 4.52938ZM17.1835 2.7152H16.9835V2.7353L16.9875 2.75499L17.1835 2.7152ZM17.1835 2.71091H16.9835H17.1835ZM17.2764 2.32091L17.4218 2.45825L17.4328 2.44664L17.4418 2.43344L17.2764 2.32091ZM17.2798 2.31605L17.4451 2.42858L17.4534 2.41633L17.4599 2.40298L17.2798 2.31605ZM18.1322 2.41727H17.9322V2.43586L17.9356 2.45414L18.1322 2.41727ZM18.7972 5.96271H18.9972V5.94411L18.9937 5.92584L18.7972 5.96271ZM18.417 6.556V6.356H18.397L18.3774 6.35994L18.417 6.556ZM14.9984 7.24564V7.44564H15.0184L15.0379 7.44169L14.9984 7.24564ZM14.8062 6.26007V6.46007H14.826L14.8454 6.45619L14.8062 6.26007ZM17.2376 5.774L17.1997 5.57761L17.1984 5.57788L17.2376 5.774ZM17.2478 5.73711L17.1091 5.88121L17.1099 5.882L17.2478 5.73711ZM10.5539 3.57325L10.5275 3.37501L10.5273 3.37504L10.5539 3.57325ZM3.44626 11.1742L3.24724 11.1545L3.24723 11.1545L3.44626 11.1742ZM11.161 20.6365L11.1736 20.4369H11.1736L11.161 20.6365ZM19.9394 12.0091H19.7394V12.0092L19.9394 12.0091ZM19.871 10.6547L19.6733 10.6852L19.6733 10.6852L19.871 10.6547ZM19.8018 10.2967L19.9981 10.2581L19.9973 10.2545L19.8018 10.2967ZM19.7764 10.068L19.5778 10.0449L19.5763 10.0573L19.5764 10.0697L19.7764 10.068ZM19.804 9.97734L19.9818 10.0691L19.9834 10.0658L19.804 9.97734ZM20.2233 9.71286V9.51287H20.2115L20.1998 9.51425L20.2233 9.71286ZM20.888 10.3004H21.088V10.2699L21.0789 10.2407L20.888 10.3004ZM20.888 10.3039H20.688V10.3398L20.7006 10.3735L20.888 10.3039ZM21.0777 12.0766L20.8777 12.0767V12.0768L21.0777 12.0766ZM11.6683 21.7365V21.5365L11.6179 21.93L11.6683 21.7365ZM11.6705 21.88L11.6708 21.68H11.6705V21.88ZM11.6705 2.27431V2.47431L11.6707 2.47431L11.6705 2.27431ZM14.8173 2.83986L14.8876 2.65265L14.8869 2.65239L14.8173 2.83986ZM17.3536 4.2426L17.2327 4.40187L17.6548 4.72248L17.5497 4.20292L17.3536 4.2426ZM17.0504 2.74436L16.8543 2.78375L16.8544 2.78404L17.0504 2.74436ZM17.0471 2.71062L17.2471 2.71115V2.71062H17.0471ZM17.1653 2.23628L17.3191 2.36422L17.3346 2.34556L17.3452 2.32372L17.1653 2.23628ZM18.2698 2.40154L18.07 2.4103L18.0706 2.42443L18.0732 2.43834L18.2698 2.40154ZM18.9314 5.9364L18.7348 5.9732L18.7349 5.97365L18.9314 5.9364ZM18.9345 5.96785H19.1345L19.1345 5.96685L18.9345 5.96785ZM18.4311 6.7001L18.4243 6.50021L18.4078 6.50077L18.3916 6.50404L18.4311 6.7001ZM15.0232 7.38632L14.9837 7.19025L14.9827 7.19045L15.0232 7.38632ZM14.9929 7.38946V7.58946L14.9934 7.58946L14.9929 7.38946ZM14.2865 6.85221H14.4865V6.85221H14.2865ZM14.4222 6.35671L14.566 6.49568L14.5662 6.49553L14.4222 6.35671ZM14.7894 6.11825L14.8001 6.31797L14.8144 6.3172L14.8284 6.31441L14.7894 6.11825ZM16.9806 5.68279L17.0196 5.87895L17.4093 5.8015L17.115 5.53462L16.9806 5.68279ZM10.5716 3.71793L10.5451 3.51969L10.5447 3.51974L10.5716 3.71793ZM5.82743 6.18944L5.68132 6.05287L5.68105 6.05316L5.82743 6.18944ZM3.58301 11.1888L3.38401 11.1688L3.38398 11.1691L3.58301 11.1888ZM5.46958 17.5286L5.62452 17.4021L5.62437 17.4019L5.46958 17.5286ZM7.98611 19.5946L8.07972 19.4179L8.0795 19.4178L7.98611 19.5946ZM17.2158 18.2182L17.0763 18.0749L17.0757 18.0755L17.2158 18.2182ZM19.8018 12.0094H19.6018V12.0097L19.8018 12.0094ZM19.7354 10.6776L19.933 10.6471L19.933 10.647L19.7354 10.6776ZM19.6874 10.4254L19.8834 10.3854L19.8833 10.3851L19.6874 10.4254ZM19.6673 10.3259L19.8636 10.2873L19.8625 10.2827L19.6673 10.3259ZM19.6413 10.1134L19.8414 10.1084L19.8411 10.1027L19.6413 10.1134ZM19.6394 10.0777H19.4391L19.4397 10.0885L19.6394 10.0777ZM19.6827 9.91387L19.5033 9.82555L19.5031 9.82597L19.6827 9.91387ZM20.2096 9.57219V9.37219H20.1978L20.1862 9.37356L20.2096 9.57219ZM21.0209 10.2584L20.8301 10.3183L20.8305 10.3196L21.0209 10.2584ZM21.0229 10.2644L20.8324 10.3256L20.8343 10.3311L21.0229 10.2644ZM21.2183 12.0783L21.4183 12.0781V12.0781L21.2183 12.0783ZM18.4523 18.9519L18.3082 18.8131L18.3081 18.8133L18.4523 18.9519ZM15.3962 21.094L15.3156 20.911L15.3154 20.9111L15.3962 21.094ZM11.6705 2.56023V2.76023L11.6707 2.76023L11.6705 2.56023ZM11.6705 21.5941L11.6707 21.3941H11.6705V21.5941ZM15.2859 20.8295L15.2054 20.6464L15.205 20.6466L15.2859 20.8295ZM18.2565 18.7494L18.1125 18.6107L18.1124 18.6108L18.2565 18.7494ZM20.9421 12.0783H20.7421V12.0785L20.9421 12.0783ZM20.7615 10.3568L20.5699 10.4154L20.5738 10.426L20.7615 10.3568ZM20.756 10.3388L20.9472 10.2802L20.9467 10.2784L20.756 10.3388ZM20.2327 9.85726V9.65726H20.2199L20.2071 9.6589L20.2327 9.85726ZM19.9281 10.0437L19.7486 9.95548L19.7483 9.95594L19.9281 10.0437ZM19.9151 10.0746L19.7266 10.0077L19.7151 10.0402V10.0746H19.9151ZM19.9151 10.0969H19.7151L19.7151 10.1002L19.9151 10.0969ZM19.9358 10.2684L20.132 10.2292L20.1308 10.2241L19.9358 10.2684ZM19.9556 10.3656L20.1515 10.3254L20.1513 10.3244L19.9556 10.3656ZM20.0064 10.6324L20.204 10.6019L20.2039 10.6013L20.0064 10.6324ZM20.0764 12.0094L19.8764 12.0095V12.0095L20.0764 12.0094ZM14.5735 20.254L14.6453 20.4406L14.6461 20.4403L14.5735 20.254ZM7.86122 19.8497L7.95463 19.6728L7.95461 19.6728L7.86122 19.8497ZM5.25978 17.7138L5.41472 17.5874L5.41454 17.5871L5.25978 17.7138ZM3.30924 11.1596L3.11024 11.1397L3.11021 11.14L3.30924 11.1596ZM5.62976 5.99044L5.48339 5.85415L5.48337 5.85417L5.62976 5.99044ZM10.5371 3.43429L10.5107 3.23605L10.5106 3.23605L10.5371 3.43429ZM17.3423 5.6359L17.2036 5.77997L17.2036 5.77999L17.3423 5.6359ZM17.2646 5.91782L17.3036 6.11398L17.3039 6.11391L17.2646 5.91782ZM14.8203 6.40389V6.60389H14.84L14.8593 6.60004L14.8203 6.40389ZM14.9846 7.10354V7.30354H15.0046L15.0241 7.29959L14.9846 7.10354ZM18.4062 6.41332V6.21332H18.3863L18.3667 6.21727L18.4062 6.41332ZM18.6618 5.97786H18.8618V5.95924L18.8584 5.94095L18.6618 5.97786ZM17.9957 2.43099H17.7957V2.44961L17.7992 2.46791L17.9957 2.43099ZM17.6583 2.16594V2.36594V2.36594V2.16594ZM17.5632 2.16594V1.96594H17.5483L17.5336 1.96814L17.5632 2.16594ZM17.4024 2.3801L17.2225 2.29275L17.2223 2.29321L17.4024 2.3801ZM17.3977 2.38982L17.5622 2.5037L17.5711 2.49082L17.5779 2.47671L17.3977 2.38982ZM17.3837 2.41012L17.5337 2.54236L17.5415 2.5336L17.5481 2.524L17.3837 2.41012ZM17.3749 2.42013L17.5208 2.55708L17.5249 2.55237L17.3749 2.42013ZM17.3197 2.69776H17.1197V2.71785L17.1237 2.73754L17.3197 2.69776ZM17.6853 4.49907L17.4893 4.53885L17.4893 4.53888L17.6853 4.49907ZM17.4339 4.6629L17.5587 4.50666L17.5587 4.50661L17.4339 4.6629ZM14.7219 3.10834L14.7917 2.92093L14.7915 2.92086L14.7219 3.10834ZM8.75861 17.4994V17.2994C8.03925 17.2994 7.46573 16.7002 7.46573 16.0372H7.26573H7.06573C7.06573 16.9222 7.8194 17.6994 8.75861 17.6994V17.4994ZM7.26573 16.0372H7.46573V12.0763H7.26573H7.06573V16.0372H7.26573ZM7.26573 12.0763L7.46573 12.0762C7.4656 11.8964 7.49964 11.7186 7.56573 11.5529L7.37996 11.4788L7.19419 11.4047C7.10916 11.6179 7.06556 11.8461 7.06573 12.0764L7.26573 12.0763ZM7.37996 11.4788L7.56573 11.5529C7.63181 11.3872 7.72856 11.2371 7.85009 11.111L7.70608 10.9722L7.56207 10.8334C7.40411 10.9973 7.27922 11.1915 7.19419 11.4047L7.37996 11.4788ZM7.70608 10.9722L7.85009 11.111C7.97161 10.9849 8.1155 10.8852 8.27334 10.8174L8.19439 10.6337L8.11544 10.4499C7.90802 10.539 7.72004 10.6695 7.56207 10.8334L7.70608 10.9722ZM8.19439 10.6337L8.27334 10.8174C8.43116 10.7496 8.60005 10.7148 8.77042 10.7149L8.77046 10.5149L8.7705 10.3149C8.5455 10.3148 8.32289 10.3608 8.11544 10.4499L8.19439 10.6337ZM8.77046 10.5149V10.7149H9.64248V10.5149V10.3149H8.77046V10.5149ZM9.64248 10.5149V10.7149C9.70098 10.7149 9.75556 10.6907 9.79464 10.6502L9.65067 10.5114L9.5067 10.3725C9.54144 10.3365 9.59013 10.3149 9.64248 10.3149V10.5149ZM9.65067 10.5114L9.79464 10.6502C9.83348 10.6099 9.85406 10.5568 9.85406 10.5029H9.65406H9.45406C9.45406 10.4553 9.4722 10.4083 9.5067 10.3725L9.65067 10.5114ZM9.65406 10.5029H9.85406V9.03637H9.65406H9.45406V10.5029H9.65406ZM9.65406 9.03637H9.85406C9.85406 8.43052 10.0326 7.96424 10.3351 7.6505C10.6367 7.33763 11.0825 7.15457 11.6611 7.15457V6.95457V6.75457C10.9958 6.75457 10.4381 6.96737 10.0471 7.37288C9.65704 7.77752 9.45406 8.35214 9.45406 9.03637H9.65406ZM11.6611 6.95457V7.15457C12.2397 7.15457 12.6856 7.33757 12.9873 7.65041C13.2898 7.96412 13.4684 8.43039 13.4684 9.03637H13.6684H13.8684C13.8684 8.35199 13.6654 7.77736 13.2752 7.37276C12.8842 6.96729 12.3265 6.75457 11.6611 6.75457V6.95457ZM13.6684 9.03637H13.4684V10.5037H13.6684H13.8684V9.03637H13.6684ZM13.6684 10.5037H13.4684C13.4684 10.5577 13.489 10.6108 13.5279 10.651L13.6718 10.5122L13.8158 10.3734C13.8503 10.4091 13.8684 10.4561 13.8684 10.5037H13.6684ZM13.6718 10.5122L13.5279 10.651C13.5669 10.6915 13.6215 10.7157 13.68 10.7157V10.5157V10.3157C13.7324 10.3157 13.7811 10.3374 13.8158 10.3734L13.6718 10.5122ZM13.68 10.5157V10.7157H14.4693V10.5157V10.3157H13.68V10.5157ZM14.4693 10.5157L14.4695 10.7157C14.6399 10.7156 14.8088 10.7502 14.9667 10.8179L15.0456 10.6341L15.1244 10.4503C14.9168 10.3613 14.6942 10.3155 14.4691 10.3157L14.4693 10.5157ZM15.0456 10.6341L14.9667 10.8179C15.1246 10.8856 15.2686 10.9852 15.3902 11.1112L15.5341 10.9723L15.6781 10.8335C15.52 10.6696 15.3319 10.5393 15.1244 10.4503L15.0456 10.6341ZM15.5341 10.9723L15.3902 11.1112C15.5118 11.2372 15.6087 11.3873 15.6749 11.553L15.8606 11.4788L16.0463 11.4046C15.9612 11.1914 15.8361 10.9973 15.6781 10.8335L15.5341 10.9723ZM15.8606 11.4788L15.6749 11.553C15.7411 11.7187 15.7752 11.8965 15.7752 12.0763L15.9752 12.0763L16.1752 12.0763C16.1752 11.846 16.1315 11.6178 16.0463 11.4046L15.8606 11.4788ZM15.9752 12.0763H15.7752V16.0252H15.9752H16.1752V12.0763H15.9752ZM15.9752 16.0252H15.7752C15.7752 16.3654 15.6448 16.6903 15.4149 16.9288L15.5588 17.0676L15.7028 17.2064C16.006 16.8919 16.1752 16.4669 16.1752 16.0252H15.9752ZM15.5588 17.0676L15.4149 16.9288C15.1852 17.167 14.8753 17.2994 14.5537 17.2994V17.4994V17.6994C14.9861 17.6994 15.3993 17.5212 15.7028 17.2064L15.5588 17.0676ZM14.5537 17.4994V17.2994H8.75861V17.4994V17.6994H14.5537V17.4994ZM8.77019 11.4621V11.2621C8.66513 11.2621 8.56127 11.2836 8.46463 11.3251L8.54357 11.5089L8.62251 11.6927C8.66956 11.6724 8.71971 11.6621 8.77019 11.6621V11.4621ZM8.54357 11.5089L8.46463 11.3251C8.368 11.3666 8.28068 11.4273 8.20747 11.5032L8.35145 11.642L8.49542 11.7808C8.53219 11.7427 8.57544 11.7129 8.62251 11.6927L8.54357 11.5089ZM8.35145 11.642L8.20747 11.5032C8.13427 11.5791 8.07658 11.6688 8.03734 11.7671L8.22307 11.8413L8.40881 11.9155C8.42909 11.8647 8.45864 11.819 8.49542 11.7808L8.35145 11.642ZM8.22307 11.8413L8.03734 11.7671C7.99811 11.8653 7.978 11.9704 7.978 12.0763H8.178H8.378C8.378 12.0209 8.38852 11.9662 8.40881 11.9155L8.22307 11.8413ZM8.178 12.0763H7.978V16.0252H8.178H8.378V12.0763H8.178ZM8.178 16.0252H7.978C7.978 16.2388 8.05975 16.4451 8.20747 16.5983L8.35145 16.4595L8.49542 16.3206C8.42102 16.2435 8.378 16.1373 8.378 16.0252H8.178ZM8.35145 16.4595L8.20747 16.5983C8.35543 16.7517 8.55769 16.8393 8.77019 16.8393V16.6393V16.4393C8.66857 16.4393 8.56958 16.3975 8.49542 16.3206L8.35145 16.4595ZM8.77019 16.6393V16.8393H14.3866V16.6393V16.4393H8.77019V16.6393ZM14.3866 16.6393V16.8393C14.5991 16.8393 14.8014 16.7517 14.9493 16.5983L14.8054 16.4595L14.6614 16.3206C14.5872 16.3975 14.4882 16.4393 14.3866 16.4393V16.6393ZM14.8054 16.4595L14.9493 16.5983C15.0971 16.4451 15.1788 16.2388 15.1788 16.0252H14.9788H14.7788C14.7788 16.1373 14.7358 16.2435 14.6614 16.3206L14.8054 16.4595ZM14.9788 16.0252H15.1788V12.0763H14.9788H14.7788V16.0252H14.9788ZM14.9788 12.0763H15.1788C15.1788 11.9704 15.1587 11.8653 15.1195 11.7671L14.9337 11.8413L14.748 11.9155C14.7683 11.9662 14.7788 12.0209 14.7788 12.0763H14.9788ZM14.9337 11.8413L15.1195 11.7671C15.0802 11.6688 15.0225 11.5791 14.9493 11.5032L14.8054 11.642L14.6614 11.7808C14.6982 11.819 14.7277 11.8647 14.748 11.9155L14.9337 11.8413ZM14.8054 11.642L14.9493 11.5032C14.8761 11.4273 14.7888 11.3666 14.6922 11.3251L14.6132 11.5089L14.5343 11.6927C14.5814 11.7129 14.6246 11.7427 14.6614 11.7808L14.8054 11.642ZM14.6132 11.5089L14.6922 11.3251C14.5955 11.2836 14.4917 11.2621 14.3866 11.2621V11.4621V11.6621C14.4371 11.6621 14.4873 11.6724 14.5343 11.6927L14.6132 11.5089ZM14.3866 11.4621V11.2621H8.77019V11.4621V11.6621H14.3866V11.4621ZM12.6619 10.5149V10.7149C12.7204 10.7149 12.775 10.6907 12.814 10.6502L12.6701 10.5114L12.5261 10.3725C12.5608 10.3365 12.6095 10.3149 12.6619 10.3149V10.5149ZM12.6701 10.5114L12.814 10.6502C12.8529 10.6099 12.8735 10.5568 12.8735 10.5029H12.6735H12.4735C12.4735 10.4553 12.4916 10.4083 12.5261 10.3725L12.6701 10.5114ZM12.6735 10.5029H12.8735V9.03637H12.6735H12.4735V10.5029H12.6735ZM12.6735 9.03637H12.8735C12.8735 8.62369 12.781 8.27929 12.5499 8.0396C12.3173 7.79842 11.981 7.70097 11.5787 7.70097V7.90097V8.10097C11.9227 8.10097 12.1337 8.18424 12.262 8.31725C12.3917 8.45177 12.4735 8.67506 12.4735 9.03637H12.6735ZM11.5787 7.90097V7.70097C11.2114 7.70097 10.8958 7.80182 10.6758 8.0439C10.4591 8.2823 10.3666 8.62347 10.3666 9.03637H10.5666H10.7666C10.7666 8.67528 10.8484 8.44876 10.9718 8.31295C11.0919 8.18083 11.2824 8.10097 11.5787 8.10097V7.90097ZM10.5666 9.03637H10.3666V10.5037H10.5666H10.7666V9.03637H10.5666ZM10.5666 10.5037H10.3666C10.3666 10.5576 10.3872 10.6108 10.426 10.651L10.57 10.5122L10.714 10.3734C10.7485 10.4092 10.7666 10.4562 10.7666 10.5037H10.5666ZM10.57 10.5122L10.426 10.651C10.4651 10.6915 10.5196 10.7157 10.5782 10.7157V10.5157V10.3157C10.6306 10.3157 10.6793 10.3374 10.714 10.3734L10.57 10.5122ZM10.5782 10.5157L10.5783 10.7157L12.662 10.7149L12.6619 10.5149L12.6618 10.3149L10.5781 10.3157L10.5782 10.5157ZM14.5526 17.6424V17.4424H8.75861V17.6424V17.8424H14.5526V17.6424ZM8.75861 17.6424V17.4424C7.9822 17.4424 7.32788 16.7938 7.32788 16.0372H7.12788H6.92788C6.92788 17.0207 7.76727 17.8424 8.75861 17.8424V17.6424ZM7.12788 16.0372H7.32788V12.0763H7.12788H6.92788V16.0372H7.12788ZM7.12788 12.0763L7.32788 12.0764C7.32807 11.6753 7.48182 11.292 7.75318 11.0105L7.60917 10.8717L7.46516 10.7329C7.12058 11.0904 6.92812 11.5737 6.92788 12.0762L7.12788 12.0763ZM7.60917 10.8717L7.75318 11.0105C8.0243 10.7291 8.39041 10.5723 8.77067 10.5719L8.77046 10.3719L8.77026 10.1719C8.27922 10.1724 7.80999 10.3751 7.46516 10.7329L7.60917 10.8717ZM8.77046 10.3719V10.5719H9.51649V10.3719V10.1719H8.77046V10.3719ZM9.51649 10.3719H9.71649V9.03637H9.51649H9.31649V10.3719H9.51649ZM9.51649 9.03637H9.71649C9.71649 8.38996 9.90941 7.88769 10.2368 7.54815C10.5633 7.20944 11.0439 7.01161 11.6614 7.01161V6.81161V6.61161C10.9558 6.61161 10.3639 6.83995 9.94881 7.27052C9.5345 7.70024 9.31649 8.31036 9.31649 9.03637H9.51649ZM11.6614 6.81161V7.01161C12.2789 7.01161 12.7595 7.20944 13.0862 7.54816C13.4136 7.88771 13.6066 8.38998 13.6066 9.03637H13.8066H14.0066C14.0066 8.31034 13.7885 7.70022 13.3741 7.2705C12.9589 6.83995 12.3669 6.61161 11.6614 6.61161V6.81161ZM13.8066 9.03637H13.6066V10.3719H13.8066H14.0066V9.03637H13.8066ZM13.8066 10.3719V10.5719H14.4696V10.3719V10.1719H13.8066V10.3719ZM14.4696 10.3719L14.4695 10.5719C14.8499 10.5721 15.2162 10.7289 15.4875 11.0102L15.6314 10.8714L15.7754 10.7325C15.4304 10.3747 14.9609 10.1722 14.4697 10.1719L14.4696 10.3719ZM15.6314 10.8714L15.4875 11.0102C15.759 11.2918 15.9128 11.6751 15.913 12.0764L16.113 12.0763L16.313 12.0762C16.3128 11.5735 16.1202 11.0901 15.7754 10.7325L15.6314 10.8714ZM16.113 12.0763H15.913V16.0252H16.113H16.313V12.0763H16.113ZM16.113 16.0252L15.913 16.0249C15.9126 16.4032 15.7674 16.7644 15.5114 17.0296L15.6553 17.1685L15.7993 17.3074C16.1285 16.9662 16.3124 16.505 16.313 16.0254L16.113 16.0252ZM15.6553 17.1685L15.5114 17.0296C15.2557 17.2946 14.9107 17.4422 14.5525 17.4424L14.5526 17.6424L14.5527 17.8424C15.0217 17.8421 15.4698 17.6488 15.7993 17.3074L15.6553 17.1685ZM8.77046 10.6578L8.77021 10.4578C8.35255 10.4584 7.95367 10.6307 7.66063 10.9346L7.8046 11.0735L7.94858 11.2123C8.16793 10.9848 8.46375 10.8582 8.77071 10.8578L8.77046 10.6578ZM7.8046 11.0735L7.66063 10.9346C7.36783 11.2383 7.20435 11.6485 7.20385 12.0749L7.40385 12.0752L7.60385 12.0754C7.60423 11.7503 7.72899 11.44 7.94858 11.2123L7.8046 11.0735ZM7.40385 12.0752H7.20385V16.0372H7.40385H7.60385V12.0752H7.40385ZM7.40385 16.0372H7.20385C7.20385 16.8674 7.91903 17.5564 8.75888 17.5564V17.3564V17.1564C8.12984 17.1564 7.60385 16.6365 7.60385 16.0372H7.40385ZM8.75888 17.3564V17.5564H14.5526V17.3564V17.1564H8.75888V17.3564ZM14.5526 17.3564L14.5527 17.5564C14.9486 17.5563 15.3267 17.3931 15.6044 17.1053L15.4605 16.9664L15.3166 16.8275C15.1126 17.0389 14.8376 17.1563 14.5525 17.1564L14.5526 17.3564ZM15.4605 16.9664L15.6044 17.1053C15.8819 16.8177 16.0368 16.4292 16.0373 16.0254L15.8373 16.0252L15.6373 16.0249C15.6369 16.3274 15.5208 16.6159 15.3166 16.8275L15.4605 16.9664ZM15.8373 16.0252H16.0373V12.0763H15.8373H15.6373V16.0252H15.8373ZM15.8373 12.0763L16.0373 12.0763C16.0372 11.6494 15.8738 11.2386 15.5806 10.9346L15.4366 11.0734L15.2927 11.2122C15.5125 11.4402 15.6373 11.7509 15.6373 12.0763L15.8373 12.0763ZM15.4366 11.0734L15.5806 10.9346C15.2873 10.6303 14.8878 10.4579 14.4696 10.4578L14.4696 10.6578L14.4696 10.8578C14.7769 10.8579 15.0731 10.9845 15.2927 11.2122L15.4366 11.0734ZM14.4696 10.6578V10.4578H13.6803V10.6578V10.8578H14.4696V10.6578ZM13.6803 10.6578L13.6807 10.4578C13.6964 10.4579 13.7099 10.4644 13.7187 10.4735L13.5747 10.6124L13.4307 10.7512C13.4956 10.8184 13.585 10.8577 13.6799 10.8578L13.6803 10.6578ZM13.5747 10.6124L13.7187 10.4735C13.7273 10.4824 13.7309 10.493 13.7309 10.5025L13.5309 10.5029L13.3309 10.5032C13.331 10.5949 13.3662 10.6842 13.4307 10.7512L13.5747 10.6124ZM13.5309 10.5029H13.7309V9.03637H13.5309H13.3309V10.5029H13.5309ZM13.5309 9.03637H13.7309C13.7309 8.39152 13.5447 7.85206 13.1791 7.47287C12.8125 7.09274 12.2886 6.89753 11.6614 6.89753V7.09753V7.29753C12.2047 7.29753 12.6156 7.46473 12.8911 7.75052C13.1676 8.03724 13.3309 8.4672 13.3309 9.03637H13.5309ZM11.6614 7.09753V6.89753C11.0341 6.89753 10.5103 7.09275 10.1438 7.47289C9.77827 7.85208 9.59219 8.39154 9.59219 9.03637H9.79219H9.99219C9.99219 8.46718 10.1554 8.03722 10.4318 7.7505C10.7073 7.46473 11.1181 7.29753 11.6614 7.29753V7.09753ZM9.79219 9.03637H9.59219V10.5037H9.79219H9.99219V9.03637H9.79219ZM9.79219 10.5037L9.59219 10.5023C9.59226 10.4928 9.5959 10.4823 9.60449 10.4734L9.74795 10.6128L9.89141 10.7521C9.95609 10.6855 9.99153 10.5966 9.99218 10.5051L9.79219 10.5037ZM9.74795 10.6128L9.60449 10.4734C9.61332 10.4643 9.62683 10.4578 9.64249 10.4578L9.64248 10.6578L9.64248 10.8578C9.73716 10.8578 9.82649 10.819 9.89141 10.7521L9.74795 10.6128ZM9.64248 10.6578V10.4578H8.77046V10.6578V10.8578H9.64248V10.6578ZM14.3866 16.7823V16.5823H8.77046V16.7823V16.9823H14.3866V16.7823ZM8.77046 16.7823L8.7707 16.5823C8.63251 16.5821 8.49848 16.5252 8.39846 16.4215L8.25449 16.5603L8.11052 16.6991C8.28422 16.8793 8.52132 16.982 8.77023 16.9823L8.77046 16.7823ZM8.25449 16.5603L8.39846 16.4215C8.29821 16.3175 8.24059 16.175 8.24043 16.025L8.04043 16.0252L7.84043 16.0254C7.8407 16.2768 7.93705 16.5192 8.11052 16.6991L8.25449 16.5603ZM8.04043 16.0252H8.24043V12.0763H8.04043H7.84043V16.0252H8.04043ZM8.04043 12.0763L8.24043 12.0765C8.24059 11.9265 8.29821 11.784 8.39846 11.68L8.25449 11.5412L8.11052 11.4024C7.93705 11.5823 7.8407 11.8247 7.84043 12.0761L8.04043 12.0763ZM8.25449 11.5412L8.39846 11.68C8.49848 11.5763 8.63251 11.5193 8.7707 11.5192L8.77046 11.3192L8.77023 11.1192C8.52132 11.1195 8.28422 11.2222 8.11052 11.4024L8.25449 11.5412ZM8.77046 11.3192V11.5192H14.3866V11.3192V11.1192H8.77046V11.3192ZM14.3866 11.3192L14.3864 11.5192C14.5246 11.5193 14.6586 11.5763 14.7586 11.68L14.9026 11.5412L15.0466 11.4024C14.8729 11.2222 14.6358 11.1195 14.3869 11.1192L14.3866 11.3192ZM14.9026 11.5412L14.7586 11.68C14.8589 11.784 14.9165 11.9265 14.9167 12.0765L15.1167 12.0763L15.3167 12.0761C15.3164 11.8247 15.22 11.5823 15.0466 11.4024L14.9026 11.5412ZM15.1167 12.0763H14.9167V16.0252H15.1167H15.3167V12.0763H15.1167ZM15.1167 16.0252L14.9167 16.025C14.9165 16.175 14.8589 16.3175 14.7586 16.4215L14.9026 16.5603L15.0466 16.6991C15.22 16.5192 15.3164 16.2768 15.3167 16.0254L15.1167 16.0252ZM14.9026 16.5603L14.7586 16.4215C14.6586 16.5252 14.5246 16.5821 14.3864 16.5823L14.3866 16.7823L14.3869 16.9823C14.6358 16.982 14.8729 16.8793 15.0466 16.6991L14.9026 16.5603ZM8.77046 11.6051L8.77021 11.4051C8.5944 11.4053 8.4274 11.4779 8.30538 11.6045L8.44936 11.7433L8.59333 11.8821C8.64166 11.832 8.70561 11.8052 8.77072 11.8051L8.77046 11.6051ZM8.44936 11.7433L8.30538 11.6045C8.18361 11.7308 8.11633 11.9005 8.11612 12.0761L8.31612 12.0763L8.51612 12.0765C8.51621 12.0023 8.54476 11.9325 8.59333 11.8821L8.44936 11.7433ZM8.31612 12.0763H8.11612V16.0252H8.31612H8.51612V12.0763H8.31612ZM8.31612 16.0252L8.11612 16.0254C8.11633 16.201 8.18361 16.3707 8.30538 16.497L8.44936 16.3582L8.59333 16.2194C8.54476 16.169 8.51621 16.0992 8.51612 16.0249L8.31612 16.0252ZM8.44936 16.3582L8.30538 16.497C8.4274 16.6236 8.59441 16.6962 8.77021 16.6964L8.77046 16.4964L8.77072 16.2964C8.70561 16.2963 8.64166 16.2695 8.59333 16.2194L8.44936 16.3582ZM8.77046 16.4964V16.6964H14.3866V16.4964V16.2964H8.77046V16.4964ZM14.3866 16.4964L14.3869 16.6964C14.5627 16.6962 14.7297 16.6236 14.8517 16.497L14.7077 16.3582L14.5638 16.2194C14.5154 16.2695 14.4515 16.2963 14.3864 16.2964L14.3866 16.4964ZM14.7077 16.3582L14.8517 16.497C14.9735 16.3707 15.0408 16.201 15.041 16.0254L14.841 16.0252L14.641 16.0249C14.6409 16.0992 14.6123 16.169 14.5638 16.2194L14.7077 16.3582ZM14.841 16.0252H15.041V12.0763H14.841H14.641V16.0252H14.841ZM14.841 12.0763L15.041 12.0761C15.0408 11.9005 14.9735 11.7308 14.8517 11.6045L14.7077 11.7433L14.5638 11.8821C14.6123 11.9325 14.6409 12.0023 14.641 12.0765L14.841 12.0763ZM14.7077 11.7433L14.8517 11.6045C14.7297 11.4779 14.5627 11.4053 14.3869 11.4051L14.3866 11.6051L14.3864 11.8051C14.4515 11.8052 14.5154 11.832 14.5638 11.8821L14.7077 11.7433ZM14.3866 11.6051V11.4051H8.77046V11.6051V11.8051H14.3866V11.6051ZM12.6619 10.6578V10.4578H10.5782V10.6578V10.8578H12.6619V10.6578ZM10.5782 10.6578L10.5786 10.4578C10.5943 10.4579 10.6078 10.4644 10.6166 10.4735L10.4726 10.6124L10.3286 10.7512C10.3935 10.8184 10.4829 10.8577 10.5778 10.8578L10.5782 10.6578ZM10.4726 10.6124L10.6166 10.4735C10.6251 10.4824 10.6287 10.493 10.6288 10.5025L10.4288 10.5029L10.2288 10.5032C10.2289 10.5949 10.2641 10.6842 10.3286 10.7512L10.4726 10.6124ZM10.4288 10.5029H10.6288V9.03637H10.4288H10.2288V10.5029H10.4288ZM10.4288 9.03637H10.6288C10.6288 8.64672 10.7216 8.38263 10.8703 8.21732C11.0157 8.05566 11.2421 7.95801 11.5787 7.95801V7.75801V7.55801C11.1629 7.55801 10.8143 7.68139 10.5729 7.94982C10.3347 8.21461 10.2288 8.5897 10.2288 9.03637H10.4288ZM11.5787 7.75801V7.95801C11.9544 7.95801 12.202 8.05606 12.3578 8.21751C12.5149 8.38027 12.6113 8.64129 12.6113 9.03637H12.8113H13.0113C13.0113 8.58198 12.9004 8.20382 12.6457 7.93977C12.3896 7.67441 12.021 7.55801 11.5787 7.55801V7.75801ZM12.8113 9.03637H12.6113V10.5037H12.8113H13.0113V9.03637H12.8113ZM12.8113 10.5037L12.6113 10.5023C12.6114 10.4928 12.615 10.4823 12.6236 10.4734L12.7672 10.6127L12.9108 10.7519C12.9753 10.6853 13.0107 10.5965 13.0113 10.5051L12.8113 10.5037ZM12.7672 10.6127L12.6236 10.4734C12.6324 10.4644 12.6459 10.4579 12.6615 10.4578L12.6619 10.6578L12.6623 10.8578C12.7568 10.8577 12.846 10.8187 12.9108 10.7519L12.7672 10.6127ZM10.7045 10.3719V10.5719H12.5356V10.3719V10.1719H10.7045V10.3719ZM12.5356 10.3719H12.7356V9.03637H12.5356H12.3356V10.3719H12.5356ZM12.5356 9.03637H12.7356C12.7356 8.66724 12.6607 8.35621 12.4527 8.14046C12.243 7.92302 11.9386 7.84394 11.5787 7.84394V8.04394V8.24394C11.8895 8.24394 12.0636 8.31325 12.1647 8.41811C12.2675 8.52467 12.3356 8.70986 12.3356 9.03637H12.5356ZM11.5787 8.04394V7.84394C11.2467 7.84394 10.9631 7.93226 10.7679 8.15368C10.5775 8.36971 10.5045 8.67568 10.5045 9.03637H10.7045H10.9045C10.9045 8.71914 10.9704 8.5289 11.068 8.41819C11.1608 8.31288 11.3144 8.24394 11.5787 8.24394V8.04394ZM10.7045 9.03637H10.5045V10.3719H10.7045H10.9045V9.03637H10.7045ZM11.6705 21.737V21.537C6.65515 21.537 2.55589 17.2964 2.55589 12.0772H2.35589H2.15589C2.15589 17.5034 6.42064 21.937 11.6705 21.937V21.737ZM2.35589 12.0772H2.55589C2.55589 6.85796 6.65515 2.61727 11.6705 2.61727V2.41727V2.21727C6.42064 2.21727 2.15589 6.6509 2.15589 12.0772H2.35589ZM11.6705 2.41727V2.61727C13.7872 2.61727 15.7247 3.37359 17.3945 4.70683L17.5193 4.55054L17.6441 4.39424C15.9119 3.01122 13.8882 2.21727 11.6705 2.21727V2.41727ZM17.5193 4.55054L17.393 4.7056C17.4286 4.73457 17.4729 4.75214 17.5199 4.75472L17.5309 4.55502L17.5418 4.35532C17.5805 4.35744 17.6167 4.37188 17.6456 4.39547L17.5193 4.55054ZM17.5309 4.55502L17.5199 4.75472C17.567 4.75731 17.6131 4.74467 17.6518 4.71948L17.5428 4.55182L17.4337 4.38416C17.4653 4.3636 17.5031 4.3532 17.5418 4.35532L17.5309 4.55502ZM17.5428 4.55182L17.6518 4.71948C17.6904 4.69436 17.7195 4.65831 17.7361 4.61718L17.5507 4.54209L17.3654 4.467C17.3788 4.43391 17.4022 4.40465 17.4337 4.38416L17.5428 4.55182ZM17.5507 4.54209L17.7361 4.61718C17.7527 4.57618 17.7566 4.53122 17.7476 4.48813L17.5519 4.52938L17.3562 4.57063C17.3489 4.53604 17.352 4.49997 17.3654 4.467L17.5507 4.54209ZM17.5519 4.52938L17.7479 4.48958L17.3795 2.67541L17.1835 2.7152L16.9875 2.75499L17.3559 4.56917L17.5519 4.52938ZM17.1835 2.7152H17.3835V2.71091H17.1835H16.9835V2.7152H17.1835ZM17.1835 2.71091H17.3835C17.3835 2.66042 17.3839 2.60244 17.3927 2.54728C17.4022 2.48741 17.4171 2.46329 17.4218 2.45825L17.2764 2.32091L17.1311 2.18358C17.0429 2.27689 17.0113 2.39845 16.9976 2.48433C16.9832 2.57492 16.9835 2.66275 16.9835 2.71091H17.1835ZM17.2764 2.32091L17.4418 2.43344L17.4451 2.42858L17.2798 2.31605L17.1144 2.20352L17.1111 2.20838L17.2764 2.32091ZM17.2798 2.31605L17.4599 2.40298C17.5026 2.31447 17.5388 2.26246 17.5651 2.23528C17.5912 2.20825 17.59 2.22298 17.5632 2.22298V2.02298V1.82298C17.4417 1.82298 17.3459 1.88656 17.2776 1.95722C17.2094 2.02773 17.1512 2.12226 17.0996 2.22913L17.2798 2.31605ZM17.5632 2.02298V2.22298H17.6569V2.02298V1.82298H17.5632V2.02298ZM17.6569 2.02298V2.22298C17.6937 2.22298 17.7704 2.24759 17.843 2.30405C17.9199 2.36377 17.9322 2.41076 17.9322 2.41727H18.1322H18.3322C18.3322 2.22649 18.2019 2.07634 18.0885 1.98824C17.971 1.89688 17.8101 1.82298 17.6569 1.82298V2.02298ZM18.1322 2.41727L17.9356 2.45414L18.6006 5.99958L18.7972 5.96271L18.9937 5.92584L18.3288 2.3804L18.1322 2.41727ZM18.7972 6.06335H18.5972C18.5972 6.28574 18.4626 6.356 18.417 6.356V6.556V6.756C18.7513 6.756 18.9972 6.43225 18.9972 6.06335H18.7972ZM18.417 6.556L18.3774 6.35994L14.9588 7.04959L14.9984 7.24564L15.0379 7.44169L18.4565 6.75205L18.417 6.556ZM14.9984 7.24564V7.04564H14.9013V7.24564V7.44564H14.9984V7.24564ZM14.9013 7.24564V7.04564C14.8646 7.04564 14.7879 7.02103 14.7152 6.9645C14.6383 6.90468 14.626 6.85769 14.626 6.85135H14.426H14.226C14.226 7.04202 14.3564 7.19217 14.4697 7.28025C14.5872 7.37161 14.7481 7.44564 14.9013 7.44564V7.24564ZM14.426 6.85135H14.626C14.626 6.80091 14.6264 6.74203 14.6354 6.68597C14.6452 6.62495 14.6605 6.60072 14.6651 6.59589L14.5212 6.45707L14.3772 6.31824C14.2867 6.41206 14.2544 6.53565 14.2405 6.62245C14.2257 6.71421 14.226 6.80316 14.226 6.85135H14.426ZM14.5212 6.45707L14.6651 6.59589C14.7153 6.54385 14.7525 6.50589 14.7865 6.47947C14.8229 6.45115 14.8262 6.46007 14.8062 6.46007V6.26007V6.06007C14.6912 6.06007 14.5995 6.11816 14.5409 6.16368C14.4799 6.2111 14.4221 6.27164 14.3772 6.31824L14.5212 6.45707ZM14.8062 6.26007L14.8454 6.45619L17.2768 5.97012L17.2376 5.774L17.1984 5.57788L14.767 6.06395L14.8062 6.26007ZM17.2376 5.774L17.2754 5.97038C17.3171 5.96235 17.3549 5.9426 17.3849 5.91433L17.2477 5.76878L17.1105 5.62324C17.1348 5.60033 17.1656 5.58419 17.1997 5.57761L17.2376 5.774ZM17.2477 5.76878L17.3849 5.91433C17.4148 5.88615 17.4358 5.85063 17.4464 5.81214L17.2537 5.75883L17.0609 5.70552C17.0694 5.67469 17.0863 5.64606 17.1105 5.62324L17.2477 5.76878ZM17.2537 5.75883L17.4464 5.81214C17.4571 5.77371 17.4571 5.73313 17.4467 5.69469L17.2537 5.7471L17.0607 5.79952C17.0523 5.76874 17.0524 5.73628 17.0609 5.70552L17.2537 5.75883ZM17.2537 5.7471L17.4467 5.69469C17.4362 5.65617 17.4154 5.62056 17.3856 5.59223L17.2478 5.73711L17.1099 5.882C17.0858 5.85906 17.0691 5.83036 17.0607 5.79952L17.2537 5.7471ZM17.2478 5.73711L17.3865 5.59302C15.5546 3.82981 13.059 3.03721 10.5275 3.37501L10.5539 3.57325L10.5804 3.7715C12.9943 3.44939 15.3674 4.20477 17.1091 5.88121L17.2478 5.73711ZM10.5539 3.57325L10.5273 3.37504C6.65057 3.89652 3.6448 7.13628 3.24724 11.1545L3.44626 11.1742L3.64529 11.1939C4.02573 7.34871 6.89886 4.26672 10.5806 3.77147L10.5539 3.57325ZM3.44626 11.1742L3.24723 11.1545C2.7467 16.2161 6.42196 20.5376 11.1484 20.8361L11.161 20.6365L11.1736 20.4369C6.6836 20.1533 3.16601 16.0406 3.64529 11.1939L3.44626 11.1742ZM11.161 20.6365L11.1484 20.8361C16.0424 21.1454 20.1405 17.0692 20.1394 12.0091L19.9394 12.0091L19.7394 12.0092C19.7405 16.8574 15.8186 20.7304 11.1736 20.4369L11.161 20.6365ZM19.9394 12.0091H20.1394C20.1394 11.5107 20.1367 11.0648 20.0687 10.6242L19.871 10.6547L19.6733 10.6852C19.736 11.0909 19.7394 11.5068 19.7394 12.0091H19.9394ZM19.871 10.6547L20.0687 10.6242C20.0513 10.5116 20.0178 10.3584 19.998 10.2581L19.8018 10.2967L19.6056 10.3354C19.6283 10.4506 19.6576 10.5833 19.6733 10.6852L19.871 10.6547ZM19.8018 10.2967L19.9973 10.2545C19.984 10.1928 19.977 10.1296 19.9764 10.0663L19.7764 10.068L19.5764 10.0697C19.5772 10.1602 19.5872 10.2505 19.6063 10.3389L19.8018 10.2967ZM19.7764 10.068L19.9751 10.091C19.976 10.0831 19.9784 10.0756 19.9817 10.069L19.804 9.97734L19.6263 9.88564C19.6006 9.93541 19.5842 9.98942 19.5778 10.0449L19.7764 10.068ZM19.804 9.97734L19.9834 10.0658C19.9909 10.0506 20.0061 10.0208 20.0407 9.99093C20.0739 9.96224 20.1349 9.92474 20.2469 9.91148L20.2233 9.71286L20.1998 9.51425C20.0101 9.53673 19.8739 9.60631 19.7791 9.68835C19.6856 9.76915 19.6419 9.8538 19.6246 9.8889L19.804 9.97734ZM20.2233 9.71286V9.91286H20.3185V9.71286V9.51287H20.2233V9.71286ZM20.3185 9.71286V9.91286C20.4024 9.91286 20.463 9.941 20.519 10.0019C20.5821 10.0705 20.6424 10.1849 20.6972 10.3601L20.888 10.3004L21.0789 10.2407C21.0168 10.0422 20.9346 9.86286 20.8134 9.73109C20.6851 9.59166 20.5193 9.51287 20.3185 9.51287V9.71286ZM20.888 10.3004H20.688V10.3039H20.888H21.088V10.3004H20.888ZM20.888 10.3039L20.7006 10.3735C20.7379 10.474 20.7833 10.7067 20.819 11.0241C20.8538 11.3345 20.8774 11.7074 20.8777 12.0767L21.0777 12.0766L21.2777 12.0764C21.2774 11.6915 21.2529 11.3038 21.2165 10.9794C21.1808 10.6619 21.1316 10.3853 21.0755 10.2342L20.888 10.3039ZM21.0777 12.0766L20.8777 12.0768C20.8828 17.2938 16.6864 21.5365 11.6683 21.5365V21.7365V21.9365C16.9154 21.9365 21.2831 17.5065 21.2777 12.0764L21.0777 12.0766ZM11.6683 21.7365L11.6179 21.93L11.6201 21.9306L11.6705 21.737L11.7209 21.5435L11.7187 21.5429L11.6683 21.7365ZM11.6705 21.88V21.68C6.57712 21.68 2.41832 17.379 2.41832 12.0772H2.21832H2.01832C2.01832 17.5861 6.34263 22.08 11.6705 22.08V21.88ZM2.21832 12.0772H2.41832C2.41832 6.77532 6.57576 2.47431 11.6705 2.47431V2.27431V2.07431C6.34123 2.07431 2.01832 6.56827 2.01832 12.0772H2.21832ZM11.6705 2.27431L11.6707 2.47431C12.7192 2.47332 13.7602 2.66038 14.7476 3.02733L14.8173 2.83986L14.8869 2.65239C13.855 2.26889 12.7668 2.07327 11.6703 2.07431L11.6705 2.27431ZM14.8173 2.83986L14.7469 3.02707C15.634 3.36054 16.471 3.8234 17.2327 4.40187L17.3536 4.2426L17.4746 4.08332C16.6824 3.48164 15.8113 2.99986 14.8876 2.65265L14.8173 2.83986ZM17.3536 4.2426L17.5497 4.20292L17.2464 2.70469L17.0504 2.74436L16.8544 2.78404L17.1576 4.28228L17.3536 4.2426ZM17.0504 2.74436L17.2465 2.70497C17.2469 2.70703 17.2471 2.70909 17.2471 2.71115L17.0471 2.71062L16.8471 2.7101C16.847 2.73483 16.8494 2.75951 16.8543 2.78375L17.0504 2.74436ZM17.0471 2.71062H17.2471C17.2471 2.65552 17.2474 2.58788 17.259 2.51923C17.2709 2.44908 17.2917 2.39704 17.3191 2.36422L17.1653 2.23628L17.0116 2.10834C16.9207 2.21762 16.8823 2.34814 16.8647 2.45234C16.8467 2.55803 16.8471 2.65651 16.8471 2.71062H17.0471ZM17.1653 2.23628L17.3452 2.32372C17.3691 2.27453 17.4054 2.20561 17.4533 2.15054C17.5028 2.09363 17.5394 2.08002 17.5632 2.08002V1.88002V1.68002C17.3716 1.68002 17.2345 1.79265 17.1516 1.88791C17.067 1.98503 17.012 2.09424 16.9855 2.14884L17.1653 2.23628ZM17.5632 1.88002V2.08002H17.6569V1.88002V1.68002H17.5632V1.88002ZM17.6569 1.88002V2.08002C17.7205 2.08002 17.8287 2.11574 17.9255 2.19052C18.0224 2.26544 18.0672 2.34713 18.07 2.4103L18.2698 2.40154L18.4696 2.39279C18.4597 2.1666 18.317 1.98753 18.1701 1.87403C18.0231 1.76039 17.8312 1.68002 17.6569 1.68002V1.88002ZM18.2698 2.40154L18.0732 2.43834L18.7348 5.9732L18.9314 5.9364L19.128 5.8996L18.4664 2.36475L18.2698 2.40154ZM18.9314 5.9364L18.7349 5.97365C18.7346 5.97207 18.7345 5.97047 18.7345 5.96886L18.9345 5.96785L19.1345 5.96685C19.1344 5.94412 19.1322 5.92145 19.1279 5.89915L18.9314 5.9364ZM18.9345 5.96785H18.7345V6.0645H18.9345H19.1345V5.96785H18.9345ZM18.9345 6.0645H18.7345C18.7345 6.33915 18.561 6.49559 18.4243 6.50021L18.4311 6.7001L18.4378 6.89999C18.8586 6.88574 19.1345 6.47892 19.1345 6.0645H18.9345ZM18.4311 6.7001L18.3916 6.50404L14.9837 7.19025L15.0232 7.38632L15.0627 7.58238L18.4705 6.89616L18.4311 6.7001ZM15.0232 7.38632L14.9827 7.19045C14.9859 7.1898 14.9891 7.18947 14.9923 7.18946L14.9929 7.38946L14.9934 7.58946C15.017 7.58939 15.0406 7.58695 15.0637 7.58218L15.0232 7.38632ZM14.9929 7.38946V7.18946H14.8997V7.38946V7.58946H14.9929V7.38946ZM14.8997 7.38946V7.18946C14.8348 7.18946 14.7239 7.15224 14.6264 7.07512C14.5286 6.99784 14.4865 6.91524 14.4865 6.85221H14.2865H14.0865C14.0865 7.08569 14.23 7.27171 14.3783 7.38893C14.5268 7.50631 14.7225 7.58946 14.8997 7.58946V7.38946ZM14.2865 6.85221H14.4865C14.4865 6.79441 14.4869 6.72242 14.5002 6.65045C14.5138 6.57676 14.5371 6.52566 14.566 6.49568L14.4222 6.35671L14.2784 6.21774C14.1717 6.32815 14.1271 6.46761 14.1068 6.57798C14.0862 6.69008 14.0865 6.79564 14.0865 6.85221H14.2865ZM14.4222 6.35671L14.5662 6.49553C14.6239 6.43569 14.6678 6.39085 14.7119 6.35825C14.7537 6.32731 14.7807 6.319 14.8001 6.31797L14.7894 6.11825L14.7788 5.91853C14.6534 5.92522 14.552 5.97895 14.4739 6.03673C14.3981 6.09283 14.3308 6.16336 14.2782 6.21789L14.4222 6.35671ZM14.7894 6.11825L14.8284 6.31441L17.0196 5.87895L16.9806 5.68279L16.9416 5.48663L14.7504 5.92208L14.7894 6.11825ZM16.9806 5.68279L17.115 5.53462C15.3441 3.92913 12.963 3.19697 10.5451 3.51969L10.5716 3.71793L10.598 3.91617C12.9016 3.60871 15.1644 4.30617 16.8463 5.83096L16.9806 5.68279ZM10.5716 3.71793L10.5447 3.51974C8.69308 3.77094 6.9792 4.66433 5.68132 6.05287L5.82743 6.18944L5.97354 6.32601C7.20979 5.00342 8.83999 4.15467 10.5985 3.91611L10.5716 3.71793ZM5.82743 6.18944L5.68105 6.05316C4.38501 7.4453 3.57682 9.24644 3.38401 11.1688L3.58301 11.1888L3.78201 11.2088C3.96626 9.37172 4.73841 7.65273 5.97381 6.32572L5.82743 6.18944ZM3.58301 11.1888L3.38398 11.1691C3.14923 13.5423 3.83501 15.8465 5.31479 17.6552L5.46958 17.5286L5.62437 17.4019C4.21322 15.6771 3.55748 13.4787 3.78204 11.2085L3.58301 11.1888ZM5.46958 17.5286L5.31464 17.655C6.02945 18.5308 6.90581 19.2504 7.89273 19.7715L7.98611 19.5946L8.0795 19.4178C7.14062 18.9221 6.30594 18.2369 5.62452 17.4021L5.46958 17.5286ZM7.98611 19.5946L7.89251 19.7714C9.41702 20.5788 11.1459 20.8768 12.8412 20.624L12.8117 20.4262L12.7822 20.2284C11.172 20.4685 9.52933 20.1856 8.07972 19.4179L7.98611 19.5946ZM12.8117 20.4262L12.8412 20.624C14.5364 20.3712 16.1134 19.5802 17.3559 18.3609L17.2158 18.2182L17.0757 18.0755C15.8924 19.2366 14.3924 19.9883 12.7822 20.2284L12.8117 20.4262ZM17.2158 18.2182L17.3553 18.3615C18.1927 17.5461 18.8594 16.5615 19.3145 15.4689L19.1298 15.392L18.9452 15.3151C18.5106 16.3585 17.8744 17.2977 17.0763 18.0749L17.2158 18.2182ZM19.1298 15.392L19.3145 15.4689C19.7695 14.3763 20.0034 13.1988 20.0018 12.0091L19.8018 12.0094L19.6018 12.0097C19.6033 13.1467 19.3798 14.2717 18.9452 15.3151L19.1298 15.392ZM19.8018 12.0094H20.0018C20.0018 11.4825 19.9972 11.0629 19.933 10.6471L19.7354 10.6776L19.5377 10.7081C19.5965 11.0893 19.6018 11.4796 19.6018 12.0094H19.8018ZM19.7354 10.6776L19.933 10.647C19.9208 10.568 19.9001 10.4673 19.8834 10.3854L19.6874 10.4254L19.4914 10.4654C19.5089 10.5511 19.5273 10.6408 19.5377 10.7081L19.7354 10.6776ZM19.6874 10.4254L19.8833 10.3851C19.8761 10.3503 19.8694 10.3173 19.8635 10.2873L19.6673 10.3259L19.471 10.3644C19.4773 10.3962 19.4843 10.4307 19.4915 10.4656L19.6874 10.4254ZM19.6673 10.3259L19.8625 10.2827C19.8499 10.2255 19.8428 10.1671 19.8413 10.1084L19.6413 10.1134L19.4414 10.1185C19.4435 10.2028 19.4538 10.2868 19.472 10.3691L19.6673 10.3259ZM19.6413 10.1134L19.8411 10.1027L19.8391 10.0669L19.6394 10.0777L19.4397 10.0885L19.4416 10.1242L19.6413 10.1134ZM19.6394 10.0777H19.8394C19.8394 10.0653 19.8392 10.0702 19.8394 10.0672C19.8394 10.067 19.8394 10.0653 19.8401 10.0618C19.8414 10.0548 19.8459 10.0354 19.8624 10.0018L19.6827 9.91387L19.5031 9.82597C19.4723 9.88873 19.4552 9.94281 19.4467 9.98943C19.4424 10.0127 19.4405 10.0329 19.4397 10.0499C19.4391 10.0642 19.4394 10.0816 19.4394 10.0777H19.6394ZM19.6827 9.91387L19.8621 10.0022C19.9213 9.88199 20.0424 9.79325 20.2329 9.77082L20.2096 9.57219L20.1862 9.37356C19.886 9.40889 19.6327 9.56261 19.5033 9.82555L19.6827 9.91387ZM20.2096 9.57219V9.77219H20.3201V9.57219V9.37219H20.2096V9.57219ZM20.3201 9.57219V9.77219C20.4791 9.77219 20.5869 9.852 20.6703 9.96825C20.7574 10.0897 20.8033 10.2329 20.8301 10.3183L21.0209 10.2584L21.2117 10.1985C21.1853 10.1143 21.1239 9.91443 20.9954 9.73519C20.8631 9.55071 20.6472 9.37219 20.3201 9.37219V9.57219ZM21.0209 10.2584L20.8305 10.3196L20.8324 10.3256L21.0229 10.2644L21.2133 10.2032L21.2113 10.1972L21.0209 10.2584ZM21.0229 10.2644L20.8343 10.3311C20.8797 10.4596 20.9267 10.717 20.9618 11.0435C20.9964 11.3643 21.0179 11.7345 21.0183 12.0785L21.2183 12.0783L21.4183 12.0781C21.4179 11.7193 21.3956 11.3349 21.3595 11.0007C21.3242 10.6722 21.2738 10.374 21.2114 10.1977L21.0229 10.2644ZM21.2183 12.0783L21.0183 12.0785C21.0207 14.6049 20.0585 16.996 18.3082 18.8131L18.4523 18.9519L18.5963 19.0906C20.4185 17.1988 21.4208 14.708 21.4183 12.0781L21.2183 12.0783ZM18.4523 18.9519L18.3081 18.8133C17.4499 19.7065 16.4337 20.4186 15.3156 20.911L15.3962 21.094L15.4768 21.2771C16.6434 20.7634 17.7027 20.0208 18.5965 19.0904L18.4523 18.9519ZM15.3962 21.094L15.3154 20.9111C14.1629 21.4204 12.9231 21.6819 11.6708 21.68L11.6705 21.88L11.6702 22.08C12.9787 22.082 14.2738 21.8087 15.4771 21.2769L15.3962 21.094ZM11.6705 2.56023V2.36023C6.49314 2.36023 2.29374 6.72609 2.29374 12.0772H2.49374H2.69374C2.69374 6.93315 6.72766 2.76023 11.6705 2.76023V2.56023ZM2.49374 12.0772H2.29374C2.29374 17.4282 6.49314 21.7941 11.6705 21.7941V21.5941V21.3941C6.72766 21.3941 2.69374 17.2212 2.69374 12.0772H2.49374ZM11.6705 21.5941L11.6703 21.7941C12.941 21.7952 14.1985 21.5292 15.3668 21.0124L15.2859 20.8295L15.205 20.6466C14.0875 21.141 12.8852 21.3952 11.6707 21.3941L11.6705 21.5941ZM15.2859 20.8295L15.3664 21.0126C16.501 20.5138 17.5313 19.7922 18.4007 18.8881L18.2565 18.7494L18.1124 18.6108C17.2787 19.4778 16.2915 20.1689 15.2054 20.6464L15.2859 20.8295ZM18.2565 18.7494L18.4006 18.8882C20.1706 17.0495 21.1446 14.6315 21.1421 12.0781L20.9421 12.0783L20.7421 12.0785C20.7445 14.5282 19.8107 16.8467 18.1125 18.6107L18.2565 18.7494ZM20.9421 12.0783H21.1421C21.1421 11.7002 21.1181 11.3211 21.083 11.0057C21.0487 10.6976 21.0018 10.4303 20.9491 10.2876L20.7615 10.3568L20.5738 10.426C20.6078 10.518 20.6511 10.7412 20.6855 11.05C20.719 11.3516 20.7421 11.7159 20.7421 12.0783H20.9421ZM20.7615 10.3568L20.9527 10.2982L20.9472 10.2802L20.756 10.3388L20.5647 10.3973L20.5702 10.4153L20.7615 10.3568ZM20.756 10.3388L20.9467 10.2784C20.8747 10.051 20.7867 9.89182 20.6739 9.79026C20.5519 9.6804 20.4229 9.65726 20.3196 9.65726V9.85726V10.0573C20.3565 10.0573 20.3787 10.0627 20.4062 10.0875C20.443 10.1206 20.503 10.2022 20.5653 10.3991L20.756 10.3388ZM20.3196 9.85726V9.65726H20.2327V9.85726V10.0573H20.3196V9.85726ZM20.2327 9.85726L20.2071 9.6589C20.0129 9.68394 19.8384 9.77261 19.7486 9.95548L19.9281 10.0437L20.1076 10.1319C20.1203 10.106 20.1509 10.0695 20.2583 10.0556L20.2327 9.85726ZM19.9281 10.0437L19.7483 9.95594C19.7401 9.97278 19.7329 9.99008 19.7266 10.0077L19.9151 10.0746L20.1036 10.1414C20.1048 10.1379 20.1062 10.1346 20.1078 10.1314L19.9281 10.0437ZM19.9151 10.0746H19.7151V10.0969H19.9151H20.1151V10.0746H19.9151ZM19.9151 10.0969L19.7151 10.1002C19.7163 10.1718 19.7249 10.243 19.7408 10.3127L19.9358 10.2684L20.1308 10.2241C20.1211 10.1813 20.1158 10.1375 20.1151 10.0935L19.9151 10.0969ZM19.9358 10.2684L19.7397 10.3077C19.7458 10.338 19.7525 10.3718 19.7599 10.4069L19.9556 10.3656L20.1513 10.3244C20.1444 10.2914 20.1379 10.2594 20.1319 10.2292L19.9358 10.2684ZM19.9556 10.3656L19.7597 10.4059C19.7778 10.494 19.797 10.5883 19.8088 10.6635L20.0064 10.6324L20.2039 10.6013C20.1904 10.5153 20.1693 10.4117 20.1515 10.3254L19.9556 10.3656ZM20.0064 10.6324L19.8087 10.6629C19.8708 11.0652 19.8761 11.4663 19.8764 12.0095L20.0764 12.0094L20.2764 12.0093C20.2761 11.4688 20.2715 11.0385 20.204 10.6019L20.0064 10.6324ZM20.0764 12.0094L19.8764 12.0095C19.8776 13.7623 19.3628 15.473 18.4016 16.913L18.568 17.024L18.7343 17.1351C19.7399 15.6285 20.2776 13.8402 20.2764 12.0093L20.0764 12.0094ZM18.568 17.024L18.4016 16.913C17.4406 18.3529 16.0794 19.453 14.501 20.0676L14.5735 20.254L14.6461 20.4403C16.3027 19.7954 17.7287 18.6418 18.7343 17.1351L18.568 17.024ZM14.5735 20.254L14.5018 20.0673C13.4433 20.4743 12.3152 20.6493 11.1886 20.5814L11.1765 20.781L11.1645 20.9807C12.3485 21.052 13.5337 20.8681 14.6453 20.4406L14.5735 20.254ZM11.1765 20.781L11.1886 20.5814C10.062 20.5136 8.96083 20.2043 7.95463 19.6728L7.86122 19.8497L7.76782 20.0265C8.82401 20.5844 9.98058 20.9094 11.1645 20.9807L11.1765 20.781ZM7.86122 19.8497L7.95461 19.6728C6.98324 19.1599 6.1197 18.4511 5.41472 17.5874L5.25978 17.7138L5.10484 17.8403C5.8432 18.7449 6.74843 19.4883 7.76784 20.0265L7.86122 19.8497ZM5.25978 17.7138L5.41454 17.5871C3.95358 15.8024 3.27679 13.5277 3.50828 11.1793L3.30924 11.1596L3.11021 11.14C2.8686 13.5911 3.57525 15.9717 5.10502 17.8405L5.25978 17.7138ZM3.30924 11.1596L3.50825 11.1796C3.69887 9.27872 4.4978 7.49993 5.77615 6.12672L5.62976 5.99044L5.48337 5.85417C4.14439 7.29252 3.30942 9.15344 3.11024 11.1397L3.30924 11.1596ZM5.62976 5.99044L5.77613 6.12673C7.05364 4.75471 8.74224 3.87569 10.5636 3.63254L10.5371 3.43429L10.5106 3.23605C8.59557 3.49172 6.82277 4.41567 5.48339 5.85415L5.62976 5.99044ZM10.5371 3.43429L10.5636 3.63254C13.0264 3.30391 15.4456 4.08725 17.2036 5.77997L17.3423 5.6359L17.4811 5.49183C15.6335 3.71287 13.0919 2.89162 10.5107 3.23605L10.5371 3.43429ZM17.3423 5.6359L17.2036 5.77999C17.1985 5.77501 17.1955 5.76939 17.1941 5.76418L17.3872 5.71222L17.5803 5.66027C17.5632 5.59656 17.5291 5.53811 17.481 5.4918L17.3423 5.6359ZM17.3872 5.71222L17.1941 5.76418C17.1927 5.75899 17.1927 5.75364 17.1941 5.74844L17.3869 5.80161L17.5797 5.85478C17.5973 5.79119 17.5975 5.72396 17.5803 5.66027L17.3872 5.71222ZM17.3869 5.80161L17.1941 5.74844C17.1955 5.74321 17.1986 5.7376 17.2038 5.73263L17.3416 5.87763L17.4793 6.02263C17.5277 5.97664 17.5622 5.9184 17.5797 5.85478L17.3869 5.80161ZM17.3416 5.87763L17.2038 5.73263C17.2091 5.72761 17.2164 5.72349 17.2253 5.72172L17.2646 5.91782L17.3039 6.11391C17.3702 6.10061 17.4309 6.06868 17.4793 6.02263L17.3416 5.87763ZM17.2646 5.91782L17.2256 5.72166L14.7813 6.20773L14.8203 6.40389L14.8593 6.60004L17.3036 6.11398L17.2646 5.91782ZM14.8203 6.40389V6.20389H14.8071V6.40389V6.60389H14.8203V6.40389ZM14.8071 6.40389V6.20389C14.7619 6.20389 14.7265 6.21773 14.7085 6.22578C14.688 6.23496 14.6704 6.24577 14.6572 6.25469C14.6307 6.27255 14.6055 6.29388 14.5848 6.31245C14.5429 6.35015 14.5007 6.3942 14.4752 6.4207L14.6196 6.55914L14.7639 6.69758C14.7906 6.66976 14.8231 6.63618 14.8523 6.60983C14.8673 6.59638 14.8768 6.58909 14.8809 6.58632C14.8829 6.58493 14.8796 6.58743 14.8719 6.59088C14.8678 6.59272 14.8606 6.59564 14.8509 6.59825C14.8414 6.60079 14.8262 6.60389 14.8071 6.60389V6.40389ZM14.6196 6.55914L14.4752 6.4207C14.4299 6.468 14.4086 6.52473 14.3977 6.56054C14.3855 6.60057 14.3784 6.64182 14.374 6.67723C14.3652 6.74832 14.3644 6.81802 14.3644 6.85221H14.5644H14.7644C14.7644 6.82207 14.7652 6.7724 14.7709 6.72662C14.7738 6.70359 14.7773 6.68703 14.7803 6.67707C14.7846 6.66289 14.7832 6.67745 14.7639 6.69758L14.6196 6.55914ZM14.5644 6.85221H14.3644C14.3644 6.94081 14.4072 7.01165 14.4389 7.05359C14.4742 7.10038 14.5188 7.1416 14.564 7.17525C14.6471 7.23716 14.7735 7.30354 14.9019 7.30354V7.10354V6.90354C14.9042 6.90354 14.8937 6.9034 14.8705 6.89367C14.849 6.88467 14.825 6.87094 14.8029 6.85448C14.7803 6.83763 14.7654 6.82219 14.7582 6.8126C14.7547 6.80801 14.7553 6.80779 14.7572 6.81226C14.759 6.81641 14.7644 6.83046 14.7644 6.85221H14.5644ZM14.9019 7.10354V7.30354H14.9846V7.10354V6.90354H14.9019V7.10354ZM14.9846 7.10354L15.0241 7.29959L18.4458 6.60937L18.4062 6.41332L18.3667 6.21727L14.9451 6.90749L14.9846 7.10354ZM18.4062 6.41332V6.61332H18.4195V6.41332V6.21332H18.4062V6.41332ZM18.4195 6.41332V6.61332C18.5589 6.61332 18.6731 6.53221 18.7446 6.4368C18.8187 6.338 18.8618 6.20762 18.8618 6.06364H18.6618H18.4618C18.4618 6.12867 18.4424 6.17313 18.4245 6.19691C18.4042 6.2241 18.3972 6.21332 18.4195 6.21332V6.41332ZM18.6618 6.06364H18.8618V5.97786H18.6618H18.4618V6.06364H18.6618ZM18.6618 5.97786L18.8584 5.94095L18.1923 2.39408L17.9957 2.43099L17.7992 2.46791L18.4652 6.01477L18.6618 5.97786ZM17.9957 2.43099H18.1957V2.41727H17.9957H17.7957V2.43099H17.9957ZM17.9957 2.41727H18.1957C18.1957 2.32867 18.1529 2.25783 18.1213 2.21589C18.086 2.1691 18.0414 2.12788 17.9962 2.09423C17.9131 2.03232 17.7866 1.96594 17.6583 1.96594V2.16594V2.36594C17.656 2.36594 17.6664 2.36608 17.6897 2.37581C17.7112 2.38481 17.7352 2.39854 17.7572 2.415C17.7799 2.43185 17.7948 2.44729 17.802 2.45688C17.8055 2.46147 17.8049 2.46169 17.803 2.45722C17.8012 2.45307 17.7957 2.43902 17.7957 2.41727H17.9957ZM17.6583 2.16594V1.96594H17.5632V2.16594V2.36594H17.6583V2.16594ZM17.5632 2.16594C17.5336 1.96814 17.5333 1.96818 17.533 1.96823C17.5329 1.96824 17.5326 1.96829 17.5324 1.96832C17.532 1.96838 17.5316 1.96844 17.5312 1.96851C17.5305 1.96863 17.5297 1.96877 17.5289 1.96891C17.5273 1.96918 17.5257 1.96948 17.5241 1.9698C17.5209 1.97043 17.5176 1.97115 17.5144 1.97196C17.5078 1.97358 17.5012 1.97555 17.4946 1.97786C17.4812 1.98251 17.4679 1.9885 17.4547 1.99584C17.4285 2.01046 17.4031 2.03022 17.3783 2.05516C17.3297 2.10404 17.278 2.17848 17.2225 2.29275L17.4024 2.3801L17.5824 2.46744C17.6264 2.37671 17.6551 2.34407 17.662 2.33713C17.6649 2.33415 17.661 2.33881 17.6494 2.34531C17.6435 2.34859 17.6357 2.35226 17.6261 2.35561C17.6213 2.35728 17.6161 2.35884 17.6105 2.36023C17.6078 2.36092 17.6049 2.36156 17.6019 2.36215C17.6004 2.36245 17.5989 2.36273 17.5974 2.36299C17.5966 2.36313 17.5958 2.36326 17.5951 2.36338C17.5947 2.36344 17.5943 2.36351 17.5939 2.36357C17.5937 2.3636 17.5934 2.36364 17.5933 2.36366C17.593 2.3637 17.5927 2.36374 17.5632 2.16594ZM17.4024 2.3801L17.2223 2.29321L17.2176 2.30293L17.3977 2.38982L17.5779 2.47671L17.5826 2.46699L17.4024 2.3801ZM17.3977 2.38982L17.2333 2.27594L17.2193 2.29624L17.3837 2.41012L17.5481 2.524L17.5622 2.5037L17.3977 2.38982ZM17.3837 2.41012L17.2336 2.27788L17.2248 2.28789L17.3749 2.42013L17.5249 2.55237L17.5337 2.54236L17.3837 2.41012ZM17.3749 2.42013L17.2291 2.28324C17.1878 2.32721 17.1665 2.37824 17.1548 2.41393C17.1423 2.45225 17.1348 2.49131 17.1302 2.52507C17.1208 2.59261 17.1197 2.6594 17.1197 2.69776H17.3197H17.5197C17.5197 2.66492 17.5208 2.61992 17.5264 2.57995C17.5292 2.55996 17.5324 2.54634 17.5349 2.53865C17.5383 2.52835 17.5366 2.54007 17.5207 2.55701L17.3749 2.42013ZM17.3197 2.69776L17.1237 2.73754L17.4893 4.53885L17.6853 4.49907L17.8813 4.45929L17.5157 2.65798L17.3197 2.69776ZM17.6853 4.49907L17.4893 4.53888C17.4881 4.53315 17.4886 4.52712 17.491 4.52127L17.6761 4.59698L17.8613 4.67268C17.8889 4.60504 17.8958 4.53066 17.8813 4.45926L17.6853 4.49907ZM17.6761 4.59698L17.491 4.52127C17.4934 4.51537 17.4981 4.50912 17.5055 4.5043L17.6146 4.67186L17.7238 4.83943C17.786 4.7989 17.8336 4.74038 17.8613 4.67268L17.6761 4.59698ZM17.6146 4.67186L17.5055 4.5043C17.513 4.4994 17.5225 4.49656 17.5328 4.49707L17.5229 4.69683L17.513 4.89658C17.5879 4.90029 17.6615 4.88003 17.7238 4.83943L17.6146 4.67186ZM17.5229 4.69683L17.5328 4.49707C17.543 4.49758 17.552 4.50132 17.5587 4.50666L17.4339 4.6629L17.309 4.81915C17.367 4.86545 17.4381 4.89287 17.513 4.89658L17.5229 4.69683ZM17.4339 4.6629L17.5587 4.50661C16.6927 3.81519 15.762 3.28248 14.7917 2.92093L14.7219 3.10834L14.652 3.29576C15.5801 3.64158 16.474 4.15249 17.3091 4.8192L17.4339 4.6629ZM14.7219 3.10834L14.7915 2.92086C13.7902 2.54897 12.7342 2.35927 11.6703 2.36023L11.6705 2.56023L11.6707 2.76023C12.6867 2.75931 13.6954 2.94047 14.6522 3.29583L14.7219 3.10834ZM18.7972 5.96271H18.5972V6.06335H18.7972H18.9972V5.96271H18.7972Z" mask="url(#path-1-outside-1_14206_6105)"/></svg>