<svg width="24" height="24" viewBox="0 0 24 24" xmlns="http://www.w3.org/2000/svg" fill="#cacaca"><path d="M7.14906 7.49797H10.2784C11.2395 5.97431 12.3061 4.8843 13.4781 4.22795C14.6502 3.54816 15.8105 3.16138 16.9591 3.06762C18.1077 2.95041 19.1274 2.98557 20.0182 3.1731C20.4401 3.29031 20.7097 3.55988 20.8269 3.98182C21.0144 4.87258 21.0496 5.89226 20.9324 7.04087C20.8386 8.18948 20.4518 9.34981 19.7721 10.5219C19.1157 11.6939 18.0257 12.7605 16.502 13.7216V16.8509C16.4786 17.812 16.0684 18.5387 15.2714 19.031L12.142 20.8945C11.8607 21.0352 11.5794 21.0352 11.2981 20.8945C11.0168 20.7304 10.8762 20.4843 10.8762 20.1561V16.1125C10.8762 15.2921 10.5832 14.5889 9.99715 14.0029C9.41112 13.4403 8.70789 13.1473 7.88745 13.1238H3.84388C3.5157 13.1238 3.26957 12.9832 3.10548 12.7019C2.96484 12.4206 2.96484 12.1393 3.10548 11.858L4.96905 8.72863C5.46131 7.93163 6.18798 7.52141 7.14906 7.49797ZM17.9085 7.49797C17.885 6.95883 17.6506 6.54861 17.2053 6.26732C16.7364 6.03291 16.2676 6.03291 15.7988 6.26732C15.3534 6.54861 15.119 6.95883 15.0956 7.49797C15.119 8.03712 15.3534 8.44733 15.7988 8.72863C16.2676 8.96304 16.7364 8.96304 17.2053 8.72863C17.6506 8.44733 17.885 8.03712 17.9085 7.49797ZM8.87198 19.5232C8.21563 20.1092 7.41863 20.496 6.48099 20.6835C5.51991 20.8945 4.68775 21 3.98452 21C3.70323 21 3.46882 20.9062 3.28129 20.7187C3.09376 20.5312 3 20.2968 3 20.0155C3 19.3122 3.10548 18.4801 3.31645 17.519C3.50398 16.5814 3.89076 15.7961 4.47678 15.1632C5.10969 14.5537 5.83636 14.249 6.6568 14.249C7.47724 14.249 8.21563 14.5537 8.87198 15.1632C9.458 15.7961 9.75101 16.5228 9.75101 17.3432C9.75101 18.1636 9.458 18.8903 8.87198 19.5232ZM7.21938 18.2574C7.40691 18.0464 7.50068 17.8003 7.50068 17.519C7.50068 17.2377 7.40691 16.9916 7.21938 16.7806C7.00841 16.5931 6.76228 16.4993 6.48099 16.4993C6.1997 16.4993 5.95357 16.5931 5.7426 16.7806C5.57851 16.9681 5.46131 17.2026 5.39098 17.4838C5.32066 17.7417 5.2855 17.9995 5.2855 18.2574C5.2855 18.5621 5.44959 18.7145 5.77776 18.7145C6.01217 18.7145 6.2583 18.6793 6.51615 18.609C6.79745 18.5387 7.03186 18.4215 7.21938 18.2574Z"/></svg>