<svg width="24" height="24" viewBox="0 0 24 24" xmlns="http://www.w3.org/2000/svg" fill="#cacaca"><path d="M3.93103 10.7586C3.36207 10.7069 3.05172 10.3966 3 9.82761V4.86209C3.02586 4.44829 3.21983 4.16381 3.5819 4.00864C3.94397 3.85347 4.28017 3.91812 4.59052 4.20261L6.21983 5.83192C7.35776 4.69398 8.66379 3.94398 10.1379 3.58192C11.6121 3.21985 13.0733 3.21985 14.5216 3.58192C15.9957 3.96985 17.3017 4.73278 18.4397 5.87071C19.5776 7.00864 20.3405 8.31467 20.7284 9.78881C21.0905 11.263 21.0905 12.7371 20.7284 14.2112C20.3405 15.6854 19.5776 16.9914 18.4397 18.1293C17.3017 19.2673 15.9957 20.0302 14.5216 20.4181C13.0474 20.7802 11.5733 20.7802 10.0991 20.4181C8.625 20.0302 7.31897 19.2673 6.18103 18.1293C5.92241 17.8966 5.7931 17.6121 5.7931 17.2759C5.7931 16.9397 5.92241 16.6423 6.18103 16.3836C6.41379 16.1509 6.69828 16.0345 7.03448 16.0345C7.37069 16.0345 7.6681 16.1509 7.92672 16.3836C9.19397 17.5992 10.6552 18.2069 12.3103 18.2069C13.9655 18.2069 15.4267 17.5992 16.694 16.3836C17.9095 15.1164 18.5172 13.6552 18.5172 12C18.5172 10.3448 17.9095 8.88364 16.694 7.6164C15.4267 6.40088 13.9784 5.79312 12.3491 5.79312C10.694 5.79312 9.23276 6.38795 7.96552 7.57761L9.55603 9.16812C9.84052 9.47847 9.90517 9.81467 9.75 10.1767C9.59483 10.5388 9.31034 10.7328 8.89655 10.7586H3.93103Z"/></svg>