<svg width="24" height="24" viewBox="0 0 24 24" xmlns="http://www.w3.org/2000/svg" fill="#cacaca"><path d="M15.1034 10.7586C14.6897 10.7327 14.4052 10.5388 14.25 10.1767C14.0948 9.81464 14.1595 9.47844 14.444 9.16809L16.0345 7.57757C14.7672 6.38792 13.306 5.79309 11.6509 5.79309C10.0216 5.79309 8.57328 6.40085 7.30603 7.61637C6.09052 8.88361 5.48276 10.3448 5.48276 12C5.48276 13.6552 6.09052 15.1164 7.30603 16.3836C8.57328 17.5991 10.0345 18.2069 11.6897 18.2069C13.3448 18.2069 14.806 17.5991 16.0733 16.3836C16.3319 16.1509 16.6293 16.0345 16.9655 16.0345C17.3017 16.0345 17.5862 16.1509 17.819 16.3836C18.0776 16.6422 18.2069 16.9396 18.2069 17.2759C18.2069 17.6121 18.0776 17.8965 17.819 18.1293C16.681 19.2672 15.375 20.0302 13.9009 20.4181C12.4267 20.7802 10.9526 20.7802 9.47845 20.4181C8.00431 20.0302 6.69828 19.2672 5.56034 18.1293C4.42241 16.9914 3.65948 15.6853 3.27155 14.2112C2.90948 12.7371 2.90948 11.2629 3.27155 9.78878C3.65948 8.31464 4.42241 7.00861 5.56034 5.87068C6.69828 4.73275 8.00431 3.96982 9.47845 3.58188C10.9267 3.21982 12.3879 3.21982 13.8621 3.58188C15.3362 3.94395 16.6422 4.69395 17.7802 5.83189L19.4095 4.20257C19.7198 3.91809 20.056 3.85344 20.4181 4.00861C20.7802 4.16378 20.9741 4.44826 21 4.86206V9.82758C20.9483 10.3965 20.6379 10.7069 20.069 10.7586H15.1034Z"/></svg>