<svg width="24" height="24" viewBox="0 0 24 24" xmlns="http://www.w3.org/2000/svg" fill="#cacaca"><path d="M12.5625 4.15625L16.8125 7H20.5C20.9167 7.02083 21.2708 7.16667 21.5625 7.4375C21.8333 7.72917 21.9792 8.08333 22 8.5V18.5C21.9792 18.9167 21.8333 19.2708 21.5625 19.5625C21.2708 19.8333 20.9167 19.9792 20.5 20H14V17C13.9792 16.4375 13.7812 15.9688 13.4062 15.5938C13.0312 15.2188 12.5625 15.0208 12 15C11.4375 15.0208 10.9688 15.2188 10.5938 15.5938C10.2188 15.9688 10.0208 16.4375 10 17V20H3.5C3.08333 19.9792 2.72917 19.8333 2.4375 19.5625C2.16667 19.2708 2.02083 18.9167 2 18.5V8.5C2.02083 8.08333 2.16667 7.72917 2.4375 7.4375C2.72917 7.16667 3.08333 7.02083 3.5 7H7.1875L11.4375 4.15625C11.8125 3.94792 12.1875 3.94792 12.5625 4.15625ZM5 10C4.6875 10.0208 4.52083 10.1875 4.5 10.5V12.5C4.52083 12.8125 4.6875 12.9792 5 13H6C6.3125 12.9792 6.47917 12.8125 6.5 12.5V10.5C6.47917 10.1875 6.3125 10.0208 6 10H5ZM17.5 10.5V12.5C17.5208 12.8125 17.6875 12.9792 18 13H19C19.3125 12.9792 19.4792 12.8125 19.5 12.5V10.5C19.4792 10.1875 19.3125 10.0208 19 10H18C17.6875 10.0208 17.5208 10.1875 17.5 10.5ZM5 14C4.6875 14.0208 4.52083 14.1875 4.5 14.5V16.5C4.52083 16.8125 4.6875 16.9792 5 17H6C6.3125 16.9792 6.47917 16.8125 6.5 16.5V14.5C6.47917 14.1875 6.3125 14.0208 6 14H5ZM17.5 14.5V16.5C17.5208 16.8125 17.6875 16.9792 18 17H19C19.3125 16.9792 19.4792 16.8125 19.5 16.5V14.5C19.4792 14.1875 19.3125 14.0208 19 14H18C17.6875 14.0208 17.5208 14.1875 17.5 14.5ZM9.25 9.5C9.29167 10.5417 9.75 11.3333 10.625 11.875C11.5417 12.375 12.4583 12.375 13.375 11.875C14.25 11.3333 14.7083 10.5417 14.75 9.5C14.7083 8.45833 14.25 7.66667 13.375 7.125C12.4583 6.625 11.5417 6.625 10.625 7.125C9.75 7.66667 9.29167 8.45833 9.25 9.5ZM12 8C12.3125 8.02083 12.4792 8.1875 12.5 8.5V9H13C13.3125 9.02083 13.4792 9.1875 13.5 9.5C13.4792 9.8125 13.3125 9.97917 13 10H12C11.6875 9.97917 11.5208 9.8125 11.5 9.5V8.5C11.5208 8.1875 11.6875 8.02083 12 8Z"/></svg>