<svg width="24" height="24" viewBox="0 0 24 24" xmlns="http://www.w3.org/2000/svg" fill="#cacaca"><path d="M12.1338 9.71656L17.1645 4.68583C17.6878 4.18633 18.2944 3.93658 18.9841 3.93658C19.6739 3.93658 20.2805 4.18633 20.8038 4.68583C21.0654 4.99505 21.0654 5.30427 20.8038 5.61349L10.7423 15.7106C10.9088 16.1388 10.9921 16.6145 10.9921 17.1378C10.9683 18.2795 10.5758 19.219 9.81467 19.9564C9.0773 20.7175 8.13776 21.11 6.99604 21.1338C5.85431 21.11 4.91477 20.7175 4.1774 19.9564C3.41625 19.219 3.02379 18.2795 3 17.1378C3.02379 15.996 3.41625 15.0565 4.1774 14.3191C4.91477 13.558 5.85431 13.1655 6.99604 13.1417C7.51933 13.1417 8.00694 13.2369 8.45887 13.4272L9.85035 12L8.45887 10.6085C8.00694 10.775 7.51933 10.8583 6.99604 10.8583C5.85431 10.8345 4.91477 10.442 4.1774 9.68088C3.41625 8.94352 3.02379 8.00397 3 6.86225C3.02379 5.72052 3.41625 4.78098 4.1774 4.04361C4.91477 3.28246 5.85431 2.89 6.99604 2.86621C8.13776 2.89 9.0773 3.28246 9.81467 4.04361C10.5758 4.78098 10.9683 5.72052 10.9921 6.86225C10.9921 7.38554 10.9088 7.87315 10.7423 8.32508L12.1338 9.71656ZM12.9544 15.1041L15.2379 12.8206L20.8038 18.3865C21.0654 18.6957 21.0654 19.005 20.8038 19.3142C20.2805 19.8137 19.6739 20.0634 18.9841 20.0634C18.2944 20.0634 17.6878 19.8137 17.1645 19.3142L12.9544 15.1041ZM5.28345 6.86225C5.30723 7.50447 5.59267 8.00397 6.13974 8.36076C6.7106 8.64619 7.28147 8.64619 7.85233 8.36076C8.39941 8.00397 8.68484 7.50447 8.70862 6.86225C8.68484 6.22003 8.39941 5.72052 7.85233 5.36373C7.28147 5.0783 6.7106 5.0783 6.13974 5.36373C5.59267 5.72052 5.30723 6.22003 5.28345 6.86225ZM6.99604 15.4252C6.35382 15.449 5.85431 15.7344 5.49752 16.2815C5.21209 16.8523 5.21209 17.4232 5.49752 17.9941C5.85431 18.5411 6.35382 18.8266 6.99604 18.8504C7.63826 18.8266 8.13776 18.5411 8.49455 17.9941C8.77998 17.4232 8.77998 16.8523 8.49455 16.2815C8.13776 15.7344 7.63826 15.449 6.99604 15.4252Z"/></svg>