<svg width="24" height="24" viewBox="0 0 24 24" xmlns="http://www.w3.org/2000/svg" fill="#cacaca"><path d="M5.77883 3.17723L9.43478 5.9895C9.6457 6.15355 9.75116 6.37619 9.75116 6.65742V8.5557L13.5829 12.3874C14.0985 12.1296 14.6492 12.0476 15.2351 12.1413C15.7975 12.2117 16.3014 12.4577 16.7467 12.8796L20.6839 16.8167C20.8948 17.0511 21.0002 17.3206 21.0002 17.6253C21.0002 17.9299 20.8948 18.1994 20.6839 18.4338L18.434 20.6836C18.1997 20.8945 17.9302 21 17.6255 21C17.3209 21 17.0513 20.8945 16.817 20.6836L12.8798 16.7464C12.458 16.3012 12.2119 15.7973 12.1416 15.2348C12.0478 14.649 12.1299 14.0982 12.3877 13.5826L8.55594 9.75092H6.65766C6.37643 9.75092 6.1538 9.64546 5.98975 9.43454L3.17748 5.77858C2.91968 5.38018 2.94312 5.00521 3.24778 4.65367L4.65392 3.24754C5.00545 2.94288 5.38042 2.91944 5.77883 3.17723ZM3.70478 16.9222L8.90748 11.6844L11.087 13.8639C10.8995 14.6372 10.9464 15.3989 11.2276 16.1488L7.0795 20.2969C6.61079 20.7656 6.04834 21 5.39214 21C4.71251 20.9766 4.15005 20.7422 3.70478 20.2969C3.2595 19.8517 3.02514 19.2892 3.00171 18.6096C3.00171 17.9534 3.23606 17.3909 3.70478 16.9222ZM21.0002 8.06355C20.9768 9.09472 20.7073 10.0087 20.1917 10.8055C19.6527 11.6258 18.9496 12.2468 18.0825 12.6686L17.5201 12.1062C17.0279 11.614 16.4537 11.2742 15.7975 11.0867C15.1648 10.9227 14.5203 10.9227 13.8641 11.0867L10.8761 8.09871V8.06355C10.9229 6.63398 11.4151 5.43877 12.3525 4.47791C13.3134 3.54048 14.5086 3.04834 15.9382 3.00146C16.3131 3.00146 16.6764 3.03662 17.0279 3.10692C17.2154 3.17723 17.3326 3.29441 17.3794 3.45846C17.4263 3.64594 17.3794 3.80999 17.2388 3.95061L14.989 6.20042C14.8718 6.3176 14.8132 6.45821 14.8132 6.62226V8.62601C14.8367 8.97754 15.0242 9.16503 15.3757 9.18846H17.3794C17.5435 9.18846 17.6841 9.12987 17.8013 9.01269L20.0511 6.79803C20.1917 6.65742 20.3558 6.59883 20.5432 6.62226C20.7073 6.66913 20.8245 6.79803 20.8948 7.00895C20.9651 7.33705 21.0002 7.68858 21.0002 8.06355ZM4.9703 18.1877C5.01717 18.7033 5.2984 18.9845 5.81398 19.0314C6.32956 18.9845 6.61079 18.7033 6.65766 18.1877C6.61079 17.6721 6.32956 17.3909 5.81398 17.344C5.2984 17.3909 5.01717 17.6721 4.9703 18.1877Z"/></svg>