<svg width="24" height="24" viewBox="0 0 24 24" xmlns="http://www.w3.org/2000/svg" fill="#cacaca"><path d="M9.3125 4.75C9.8125 4.28125 10.5 4 11.1875 4H11.2188C12.75 4 14 5.25 14 6.78125C14 7.53125 13.6875 8.21875 13.1875 8.75L7.21875 14.7188C7.0625 14.8438 7 15.0312 7 15.25C7 15.6562 7.34375 16 7.75 16C7.96875 16 8.15625 15.9375 8.3125 15.7812L15.25 8.8125C15.7812 8.3125 16.4688 8 17.2188 8C18.75 8 20 9.25 20 10.7812C20 11.5312 19.6875 12.2188 19.1875 12.75L16.4062 15.5C16.1562 15.7812 16 16.1562 16 16.5312C16 17.3438 16.6562 18 17.4688 18C17.6562 18 17.8438 17.9688 18.0312 17.875L18.5312 17.625C19.0312 17.375 19.625 17.5625 19.875 18.0625C20.125 18.5625 19.9375 19.1562 19.4375 19.4062L18.9062 19.6562C18.4688 19.9062 17.9688 20 17.4688 20C15.5312 20 14 18.4688 14 16.5312C14 15.625 14.3438 14.75 15 14.0938L17.75 11.3125C17.9062 11.1875 18 11 18 10.7812C18 10.3438 17.6562 10 17.2188 10C17 10 16.8125 10.0938 16.6875 10.25L9.71875 17.2188C9.1875 17.7188 8.5 18 7.75 18C6.21875 18 5 16.7812 5 15.25C5 14.5 5.28125 13.8125 5.78125 13.2812L11.75 7.3125C11.9062 7.1875 12 6.96875 12 6.78125C12 6.34375 11.6562 6 11.2188 6H11.1875C10.9688 6 10.7812 6.09375 10.6562 6.21875L5.65625 10.75C5.25 11.125 4.625 11.0938 4.25 10.6875C3.875 10.2812 3.90625 9.65625 4.3125 9.28125L9.3125 4.75Z"/></svg>