<svg width="24" height="24" viewBox="0 0 24 24" xmlns="http://www.w3.org/2000/svg" fill="#cacaca"><path d="M20 5C19.9583 6.8125 19.375 8.35417 18.25 9.625C17.125 10.8958 15.6875 11.6667 13.9375 11.9375C13.6875 10.25 13 8.80208 11.875 7.59375C12.5 6.51042 13.3438 5.64583 14.4062 5C15.4688 4.35417 16.6667 4.02083 18 4H19C19.2917 4 19.5312 4.09375 19.7188 4.28125C19.9062 4.46875 20 4.70833 20 5ZM4 7C4 6.70833 4.09375 6.46875 4.28125 6.28125C4.46875 6.09375 4.70833 6 5 6H6C7.3125 6.02083 8.48958 6.34375 9.53125 6.96875C10.5938 7.57292 11.4271 8.40625 12.0312 9.46875C12.6562 10.5104 12.9792 11.6875 13 13V19C13 19.2917 12.9062 19.5312 12.7188 19.7188C12.5312 19.9062 12.2917 20 12 20C11.7083 20 11.4688 19.9062 11.2812 19.7188C11.0938 19.5312 11 19.2917 11 19V14C9.6875 13.9792 8.51042 13.6562 7.46875 13.0312C6.40625 12.4271 5.57292 11.5938 4.96875 10.5312C4.34375 9.48958 4.02083 8.3125 4 7Z"/></svg>