<svg width="24" height="24" viewBox="0 0 24 24" xmlns="http://www.w3.org/2000/svg" fill="#cacaca"><path d="M5.25 4H18.75C19.3828 4.02381 19.9102 4.25 20.332 4.67857C20.7539 5.10714 20.9766 5.64286 21 6.28571V8.57143C20.9766 9.21429 20.7539 9.75 20.332 10.1786C19.9102 10.6071 19.3828 10.8333 18.75 10.8571H5.25C4.61719 10.8333 4.08984 10.6071 3.66797 10.1786C3.24609 9.75 3.02344 9.21429 3 8.57143V6.28571C3.02344 5.64286 3.24609 5.10714 3.66797 4.67857C4.08984 4.25 4.61719 4.02381 5.25 4ZM15.0938 6.57143C14.5781 6.61905 14.2969 6.90476 14.25 7.42857C14.2969 7.95238 14.5781 8.2381 15.0938 8.28571C15.6094 8.2381 15.8906 7.95238 15.9375 7.42857C15.8906 6.90476 15.6094 6.61905 15.0938 6.57143ZM16.7812 7.42857C16.8281 7.95238 17.1094 8.2381 17.625 8.28571C18.1406 8.2381 18.4219 7.95238 18.4688 7.42857C18.4219 6.90476 18.1406 6.61905 17.625 6.57143C17.1094 6.61905 16.8281 6.90476 16.7812 7.42857ZM5.25 13.1429H18.75C19.3828 13.1667 19.9102 13.3929 20.332 13.8214C20.7539 14.25 20.9766 14.7857 21 15.4286V17.7143C20.9766 18.3571 20.7539 18.8929 20.332 19.3214C19.9102 19.75 19.3828 19.9762 18.75 20H5.25C4.61719 19.9762 4.08984 19.75 3.66797 19.3214C3.24609 18.8929 3.02344 18.3571 3 17.7143V15.4286C3.02344 14.7857 3.24609 14.25 3.66797 13.8214C4.08984 13.3929 4.61719 13.1667 5.25 13.1429ZM15.0938 15.7143C14.5781 15.7619 14.2969 16.0476 14.25 16.5714C14.2969 17.0952 14.5781 17.381 15.0938 17.4286C15.6094 17.381 15.8906 17.0952 15.9375 16.5714C15.8906 16.0476 15.6094 15.7619 15.0938 15.7143ZM17.0625 16.5714C17.1094 17.0952 17.3906 17.381 17.9062 17.4286C18.4219 17.381 18.7031 17.0952 18.75 16.5714C18.7031 16.0476 18.4219 15.7619 17.9062 15.7143C17.3906 15.7619 17.1094 16.0476 17.0625 16.5714Z"/></svg>