<svg width="24" height="24" viewBox="0 0 24 24" xmlns="http://www.w3.org/2000/svg" fill="#cacaca"><path d="M14.0786 3.5625L17.4536 9.1875C17.6646 9.53906 17.6646 9.96094 17.4536 10.3125C17.2778 10.6641 16.8911 10.875 16.5044 10.875H9.75439C9.33252 10.875 8.9458 10.6641 8.77002 10.3125C8.55908 9.96094 8.55908 9.53906 8.77002 9.1875L12.145 3.5625C12.356 3.21094 12.7075 3 13.1294 3C13.5161 3 13.8677 3.21094 14.0786 3.5625ZM13.1294 13.9688C13.1294 13.1953 13.7271 12.5625 14.5356 12.5625H19.5981C20.3716 12.5625 21.0044 13.1953 21.0044 13.9688V19.0312C21.0044 19.8398 20.3716 20.4375 19.5981 20.4375H14.5356C13.7271 20.4375 13.1294 19.8398 13.1294 19.0312V13.9688ZM7.50439 21C5.88721 21 4.41064 20.1562 3.60205 18.75C2.79346 17.3789 2.79346 15.6562 3.60205 14.25C4.41064 12.8789 5.88721 12 7.50439 12C9.08643 12 10.563 12.8789 11.3716 14.25C12.1802 15.6562 12.1802 17.3789 11.3716 18.75C10.563 20.1562 9.08643 21 7.50439 21Z"/></svg>