<svg width="24" height="24" viewBox="0 0 24 24" xmlns="http://www.w3.org/2000/svg" fill="#cacaca"><path d="M14.3143 10.9714H12.8357C12.0857 10.9929 11.4643 11.25 10.9714 11.7429C10.4786 12.2357 10.2214 12.8571 10.2 13.6071C10.2643 14.2929 10.4679 14.7214 10.8107 14.8929C11.0679 15.0429 11.2071 15.2571 11.2286 15.5357C11.1857 15.9 10.9929 16.0929 10.65 16.1143H10.5857C10.5 16.1143 10.425 16.1036 10.3607 16.0821C10.125 15.9964 9.76071 15.7821 9.26786 15.4393C8.75357 15.0964 8.27143 14.6036 7.82143 13.9607C7.37143 13.3179 7.13571 12.4929 7.11429 11.4857C7.15714 10.1786 7.60714 9.08571 8.46429 8.20714C9.34286 7.34999 10.4357 6.89999 11.7429 6.85714H14.3143V4.89642C14.3143 4.57499 14.4214 4.30714 14.6357 4.09285C14.85 3.87857 15.1179 3.77142 15.4393 3.77142C15.7179 3.77142 15.9643 3.86785 16.1786 4.06071L20.6143 8.04642C20.8714 8.28214 21 8.57142 21 8.91428C21 9.25714 20.8714 9.54642 20.6143 9.78214L16.1464 13.8C15.9536 13.9714 15.7286 14.0571 15.4714 14.0571H15.3429C15.0429 14.0571 14.7964 13.9607 14.6036 13.7679C14.4107 13.575 14.3143 13.3286 14.3143 13.0286V10.9714ZM5.57143 6.85714C5.25 6.87857 5.07857 7.04999 5.05714 7.37142V17.6571C5.07857 17.9786 5.25 18.15 5.57143 18.1714H15.8571C16.1786 18.15 16.35 17.9786 16.3714 17.6571V16.1143C16.3714 15.8143 16.4679 15.5679 16.6607 15.375C16.8536 15.1821 17.1 15.0857 17.4 15.0857C17.7 15.0857 17.9464 15.1821 18.1393 15.375C18.3321 15.5679 18.4286 15.8143 18.4286 16.1143V17.6571C18.4071 18.3857 18.1607 18.9964 17.6893 19.4893C17.1964 19.9607 16.5857 20.2071 15.8571 20.2286H5.57143C4.84286 20.2071 4.23214 19.9607 3.73929 19.4893C3.26786 18.9964 3.02143 18.3857 3 17.6571V7.37142C3.02143 6.64285 3.26786 6.03214 3.73929 5.53928C4.23214 5.06785 4.84286 4.82142 5.57143 4.79999H7.11429C7.41429 4.79999 7.66071 4.89642 7.85357 5.08928C8.04643 5.28214 8.14286 5.52857 8.14286 5.82857C8.14286 6.12857 8.04643 6.37499 7.85357 6.56785C7.66071 6.76071 7.41429 6.85714 7.11429 6.85714H5.57143Z"/></svg>