<svg width="24" height="24" viewBox="0 0 24 24" xmlns="http://www.w3.org/2000/svg" fill="#cacaca"><path d="M13.793 4.2313C14.2383 4.0438 14.6367 4.1024 14.9883 4.40708L20.6133 9.46958C20.8711 9.70396 21 9.98521 21 10.3133C21 10.6415 20.8711 10.9227 20.6133 11.1571L14.9883 16.2196C14.6367 16.5243 14.2383 16.5829 13.793 16.3954C13.3711 16.1844 13.1484 15.8446 13.125 15.3758V13.1258H9.75C8.78906 13.1493 7.99219 13.4774 7.35938 14.1102C6.72656 14.743 6.39844 15.5399 6.375 16.5008C6.39844 17.0399 6.49219 17.4618 6.65625 17.7665C6.82031 18.0946 6.98438 18.3407 7.14844 18.5047C7.35938 18.6922 7.47656 18.9149 7.5 19.1727C7.45312 19.5946 7.21875 19.829 6.79688 19.8758C6.70312 19.8758 6.60938 19.8524 6.51562 19.8055C6.28125 19.6883 5.88281 19.4071 5.32031 18.9618C4.75781 18.493 4.24219 17.8251 3.77344 16.9579C3.28125 16.0907 3.02344 15.0008 3 13.6883C3.04688 11.9305 3.65625 10.4774 4.82812 9.32896C5.97656 8.15708 7.42969 7.54771 9.1875 7.50083H13.125V5.25083C13.1484 4.78208 13.3711 4.44224 13.793 4.2313Z"/></svg>