<svg width="24" height="24" viewBox="0 0 24 24" xmlns="http://www.w3.org/2000/svg" fill="#cacaca"><path d="M12.4874 2.11788L19.5733 5.2613C19.9982 5.44466 20.3357 5.73281 20.5856 6.12574C20.8606 6.51866 20.998 6.97708 20.998 7.50098C21.023 8.83694 20.8106 10.4086 20.3607 12.2161C19.9108 14.0236 19.0984 15.7787 17.9237 17.4813C16.774 19.2102 15.1243 20.6379 12.9748 21.7642C12.3249 22.0786 11.6751 22.0786 11.0252 21.7642C8.87569 20.6379 7.22605 19.2102 6.0763 17.4813C4.90156 15.7787 4.08923 14.0236 3.63933 12.2161C3.18943 10.4086 2.97698 8.83694 3.00197 7.50098C3.00197 6.97708 3.13944 6.51866 3.41438 6.12574C3.66433 5.73281 4.00175 5.44466 4.42666 5.2613L11.5126 2.11788C11.6626 2.03929 11.825 2 12 2C12.175 2 12.3374 2.03929 12.4874 2.11788ZM11.1002 15.5167C11.1502 16.093 11.4501 16.4073 12 16.4597C12.5499 16.4073 12.8498 16.093 12.8998 15.5167V13.002H15.2993C15.8492 12.9496 16.1491 12.6352 16.1991 12.0589C16.1491 11.4826 15.8492 11.1683 15.2993 11.1159H12.8998V8.60118C12.8498 8.02489 12.5499 7.71054 12 7.65815C11.4501 7.71054 11.1502 8.02489 11.1002 8.60118V11.1159H8.70072C8.15084 11.1683 7.85091 11.4826 7.80092 12.0589C7.85091 12.6352 8.15084 12.9496 8.70072 13.002H11.1002V15.5167Z"/></svg>