<svg width="24" height="24" viewBox="0 0 24 24" xmlns="http://www.w3.org/2000/svg" fill="#cacaca"><path fill-rule="evenodd" clip-rule="evenodd" d="M18 6.56838L12 4.31838L6 6.56838V12C6 14.1784 7.4681 16.1119 9.1582 17.5908C9.98232 18.3119 10.8117 18.883 11.4365 19.2735C11.6528 19.4086 11.8442 19.5201 12 19.6094C12.1558 19.5201 12.3472 19.4086 12.5635 19.2735C13.1883 18.883 14.0177 18.3119 14.8418 17.5908C16.5319 16.1119 18 14.1784 18 12V6.56838ZM16.6934 8.1592C16.2954 7.77643 15.6622 7.7887 15.2793 8.18654L11.1865 12.4375L9.7207 10.9141L9.64551 10.8438C9.25896 10.5162 8.67963 10.5278 8.30664 10.8867C7.93363 11.2458 7.89923 11.8248 8.21191 12.2237L8.2793 12.3008L10.4668 14.5733C10.6553 14.7691 10.9157 14.8799 11.1875 14.8799C11.4593 14.8799 11.7197 14.7691 11.9082 14.5733L16.7207 9.57326C17.1035 9.17533 17.0912 8.54212 16.6934 8.1592Z"/><path fill-rule="evenodd" clip-rule="evenodd" d="M11.5527 21.6446C11.8343 21.7853 12.1657 21.7853 12.4473 21.6446L12 20.75C12.4472 21.6444 12.4479 21.6437 12.4482 21.6436L12.4756 21.6299C12.4917 21.6217 12.5144 21.6097 12.543 21.5947C12.6004 21.5646 12.6826 21.5206 12.7852 21.4639C12.9901 21.3505 13.2792 21.1843 13.624 20.9688C14.3116 20.539 15.2326 19.9066 16.1582 19.0967C17.968 17.5132 20 15.0715 20 12V5.87502C20 5.45829 19.7417 5.08494 19.3516 4.9385L12.3516 2.3135C12.1533 2.23916 11.937 2.2303 11.7344 2.28615L11.6484 2.3135L4.64844 4.9385C4.25831 5.08494 4 5.45829 4 5.87502V12C4 15.0715 6.03205 17.5132 7.8418 19.0967C8.76741 19.9066 9.68839 20.539 10.376 20.9688C10.7208 21.1843 11.0099 21.3505 11.2148 21.4639C11.3174 21.5206 11.3996 21.5646 11.457 21.5947C11.4856 21.6097 11.5083 21.6217 11.5244 21.6299L11.5518 21.6436L11.5527 21.6446ZM12 4.31838L18 6.56838V12C18 14.1784 16.5319 16.1119 14.8418 17.5908C14.0177 18.3119 13.1883 18.883 12.5635 19.2735C12.3472 19.4086 12.1558 19.5201 12 19.6094C11.8442 19.5201 11.6528 19.4086 11.4365 19.2735C10.8117 18.883 9.98232 18.3119 9.1582 17.5908C7.4681 16.1119 6 14.1784 6 12V6.56838L12 4.31838Z"/></svg>