<svg width="24" height="24" viewBox="0 0 24 24" xmlns="http://www.w3.org/2000/svg" fill="#cacaca"><path fill-rule="evenodd" clip-rule="evenodd" d="M12.459 21.8886C12.1722 22.036 11.8288 22.036 11.542 21.8886L11.5332 21.8847L11.5256 21.8805L11.5137 21.874C11.4975 21.8655 11.4749 21.8533 11.4463 21.8379C11.3888 21.8068 11.3066 21.7625 11.2041 21.7041C10.9991 21.5873 10.7101 21.416 10.3652 21.1943C9.67737 20.7521 8.75643 20.1014 7.83105 19.2685C6.01797 17.6368 4 15.1348 4 12V11.5264L6.00054 12.0751L17.0815 15.1143L19.0654 15.6585C18.3103 17.117 17.2061 18.3351 16.1689 19.2685C15.2436 20.1014 14.3226 20.7521 13.6348 21.1943C13.2899 21.416 13.0009 21.5873 12.7959 21.7041C12.6934 21.7625 12.6112 21.8068 12.5537 21.8379L12.5245 21.8536L12.4863 21.874L12.4744 21.8805L12.4668 21.8847L12.459 21.8886ZM19.7964 13.7178L19.7984 13.7095L20.728 13.9645C21.2669 14.1123 21.8209 13.7849 21.9653 13.2333C22.1097 12.6816 21.7899 12.1145 21.251 11.9667L20 11.6236V5.70017C20 5.28685 19.7459 4.91543 19.3604 4.76658L12.3604 2.06736C12.1578 1.98924 11.9358 1.97954 11.7285 2.03806L11.6396 2.06736L4.63965 4.76658C4.25408 4.91543 4 5.28685 4 5.70017V7.23515L3.272 7.03548C2.73305 6.88766 2.17908 7.21504 2.03467 7.76672C1.89027 8.31839 2.2101 8.88544 2.74904 9.03326L4 9.37637V9.38515L6 9.93371L17.8652 13.1881L19.7964 13.7178ZM6 9.92493L17.867 13.1798C17.9533 12.7957 18 12.4021 18 12V11.075L6 7.78371L4 7.23515V9.37637L6 9.92493Z"/><path d="M18 11.075L6 7.78371V9.92493L17.867 13.1798C17.9533 12.7957 18 12.4021 18 12V11.075Z"/><path d="M6 9.92493V7.78371L4 7.23515V9.37637L6 9.92493Z"/></svg>