<svg width="24" height="24" viewBox="0 0 24 24" xmlns="http://www.w3.org/2000/svg" fill="#cacaca"><path fill-rule="evenodd" clip-rule="evenodd" d="M11.7285 2.03764C11.9358 1.97912 12.1578 1.98881 12.3604 2.06693L19.3604 4.76615C19.7458 4.91504 20 5.28648 20 5.69975V11.9996C19.9998 15.1342 17.9819 17.6364 16.1689 19.2681C15.2436 20.1008 14.3226 20.7517 13.6348 21.1939C13.2899 21.4155 13.0009 21.5869 12.7959 21.7037C12.6935 21.762 12.6112 21.8064 12.5537 21.8374C12.5252 21.8528 12.5025 21.8651 12.4863 21.8736C12.4783 21.8778 12.4716 21.8818 12.4668 21.8843L12.459 21.8882C12.1723 22.0354 11.8287 22.0354 11.542 21.8882L11.5332 21.8843C11.5284 21.8818 11.5217 21.8778 11.5137 21.8736C11.4975 21.8651 11.4748 21.8528 11.4463 21.8374C11.3888 21.8064 11.3065 21.762 11.2041 21.7037C10.9991 21.5869 10.7101 21.4155 10.3652 21.1939C9.67743 20.7517 8.75635 20.1008 7.83105 19.2681C6.01806 17.6364 4.0002 15.1342 4 11.9996V5.69975C4 5.28648 4.25417 4.91504 4.63965 4.76615L11.6396 2.06693L11.7285 2.03764ZM12 19.8511C12.1538 19.7603 12.3413 19.6472 12.5527 19.5113C13.1773 19.1098 14.0066 18.5228 14.8311 17.7808C16.5178 16.2627 17.9998 14.2644 18 11.9996V6.38529L12 4.07084V19.8511ZM6 6.38529V11.9996C6.00021 14.2644 7.48225 16.2627 9.16895 17.7808C9.4478 18.0318 9.72817 18.2638 10 18.4781V4.84232L6 6.38529Z"/><path d="M6 6.38529V11.9996C6.00021 14.2644 7.48225 16.2627 9.16895 17.7808C9.4478 18.0318 9.72817 18.2638 10 18.4781V4.84232L6 6.38529Z"/></svg>