<svg width="24" height="24" viewBox="0 0 24 24" xmlns="http://www.w3.org/2000/svg" fill="#cacaca"><path d="M12.4876 2.56511L19.5736 5.55136C19.9985 5.72555 20.3359 5.99929 20.5859 6.37257C20.8608 6.74586 20.9983 7.18135 20.9983 7.67906C21.0233 8.94821 20.8108 10.4413 20.3609 12.1584C19.911 13.8755 19.0987 15.5428 17.9239 17.1604C16.7742 18.8028 15.1246 20.1591 12.975 21.2292C12.3252 21.5278 11.6753 21.5278 11.0255 21.2292C8.87593 20.1591 7.22629 18.8028 6.07654 17.1604C4.9018 15.5428 4.08948 13.8755 3.63958 12.1584C3.18968 10.4413 2.97722 8.94821 3.00222 7.67906C3.00222 7.18135 3.13969 6.74586 3.41463 6.37257C3.66457 5.99929 4.002 5.72555 4.42691 5.55136L11.5129 2.56511C11.6628 2.49045 11.8253 2.45312 12.0002 2.45312C12.1752 2.45312 12.3377 2.49045 12.4876 2.56511ZM5.40169 7.71639C5.40169 8.63715 5.52666 9.66989 5.77661 10.8146H12.0002V4.95411L5.40169 7.71639ZM12.0002 19.0641C13.8748 18.1185 15.2995 16.8867 16.2743 15.3686C17.2491 13.8755 17.899 12.3575 18.2239 10.8146H12.0002V19.0641Z"/></svg>