<svg width="24" height="24" viewBox="0 0 24 24" xmlns="http://www.w3.org/2000/svg" fill="#cacaca"><path d="M12.4871 2.57079L19.5731 5.57013C19.998 5.74509 20.3354 6.02003 20.5854 6.39495C20.8603 6.76987 20.9978 7.20727 20.9978 7.70716C21.0228 8.98188 20.8103 10.4816 20.3604 12.2062C19.9105 13.9308 19.0982 15.6054 17.9235 17.2301C16.7737 18.8797 15.1241 20.2419 12.9745 21.3167C12.3247 21.6166 11.6748 21.6166 11.025 21.3167C8.87544 20.2419 7.2258 18.8797 6.07606 17.2301C4.90131 15.6054 4.08899 13.9308 3.63909 12.2062C3.18919 10.4816 2.97673 8.98188 3.00173 7.70716C3.00173 7.20727 3.1392 6.76987 3.41414 6.39495C3.66408 6.02003 4.00151 5.74509 4.42642 5.57013L11.5124 2.57079C11.6623 2.4958 11.8248 2.45831 11.9998 2.45831C12.1747 2.45831 12.3372 2.4958 12.4871 2.57079ZM11.9998 7.25726C11.4499 7.30725 11.1499 7.60718 11.1 8.15706V12.3561C11.1499 12.906 11.4499 13.206 11.9998 13.2559C12.5496 13.206 12.8496 12.906 12.8996 12.3561V8.15706C12.8496 7.60718 12.5496 7.30725 11.9998 7.25726ZM10.8 15.6554C10.8 16.0053 10.9125 16.2928 11.1374 16.5177C11.3624 16.7427 11.6498 16.8552 11.9998 16.8552C12.3497 16.8552 12.6371 16.7427 12.8621 16.5177C13.087 16.2928 13.1995 16.0053 13.1995 15.6554C13.1995 15.3055 13.087 15.0181 12.8621 14.7931C12.6371 14.5682 12.3497 14.4557 11.9998 14.4557C11.6498 14.4557 11.3624 14.5682 11.1374 14.7931C10.9125 15.0181 10.8 15.3055 10.8 15.6554Z"/></svg>