<svg width="24" height="24" viewBox="0 0 24 24" xmlns="http://www.w3.org/2000/svg" fill="#cacaca"><path d="M18 6.38572L12 4.07127L6 6.38572V12C6 14.265 7.48213 16.263 9.16895 17.7812C9.99344 18.5233 10.8227 19.1102 11.4473 19.5117C11.6588 19.6477 11.8462 19.7607 12 19.8515C12.1538 19.7607 12.3412 19.6477 12.5527 19.5117C13.1773 19.1102 14.0066 18.5233 14.8311 17.7812C16.5179 16.263 18 14.265 18 12V6.38572Z"/><path fill-rule="evenodd" clip-rule="evenodd" d="M12.459 21.8886C12.1722 22.036 11.8288 22.036 11.542 21.8886L11.5332 21.8847C11.5284 21.8822 11.5218 21.8783 11.5137 21.874C11.4975 21.8655 11.4749 21.8533 11.4463 21.8379C11.3888 21.8068 11.3066 21.7625 11.2041 21.7041C10.9991 21.5873 10.7101 21.416 10.3652 21.1943C9.67737 20.7521 8.75643 20.1014 7.83105 19.2685C6.01797 17.6368 4 15.1348 4 12V5.70017C4 5.28685 4.25408 4.91543 4.63965 4.76658L11.6396 2.06736L11.7285 2.03806C11.9358 1.97954 12.1578 1.98924 12.3604 2.06736L19.3604 4.76658C19.7459 4.91543 20 5.28685 20 5.70017V12C20 15.1348 17.982 17.6368 16.1689 19.2685C15.2436 20.1014 14.3226 20.7521 13.6348 21.1943C13.2899 21.416 13.0009 21.5873 12.7959 21.7041C12.6934 21.7625 12.6112 21.8068 12.5537 21.8379C12.5251 21.8533 12.5025 21.8655 12.4863 21.874C12.4782 21.8783 12.4716 21.8822 12.4668 21.8847L12.459 21.8886ZM12 4.07127L18 6.38572V12C18 14.265 16.5179 16.263 14.8311 17.7812C14.0066 18.5233 13.1773 19.1102 12.5527 19.5117C12.3412 19.6477 12.1538 19.7607 12 19.8515C11.8462 19.7607 11.6588 19.6477 11.4473 19.5117C10.8227 19.1102 9.99344 18.5233 9.16895 17.7812C7.48213 16.263 6 14.265 6 12V6.38572L12 4.07127Z"/></svg>