<svg width="24" height="24" viewBox="0 0 24 24" xmlns="http://www.w3.org/2000/svg" fill="#cacaca"><path d="M18.2031 5.07159C18.6484 4.90753 19.0586 4.98956 19.4336 5.31769L21.6836 7.56769C21.8945 7.80206 22 8.07159 22 8.37628C22 8.68097 21.8945 8.9505 21.6836 9.18488L19.4336 11.4349C19.0586 11.763 18.6484 11.8333 18.2031 11.6458C17.7578 11.4583 17.5234 11.1185 17.5 10.6263V9.50128H16.375C16 9.50128 15.6953 9.65363 15.4609 9.95831L13.9844 11.9271L12.5781 10.0638L13.668 8.58722C14.3711 7.72003 15.2734 7.27472 16.375 7.25128H17.5V6.12628C17.5234 5.63409 17.7578 5.28253 18.2031 5.07159ZM9.76562 13.8255L11.1719 15.6888L10.082 17.1653C9.37891 18.0325 8.47656 18.4778 7.375 18.5013H5.125C4.79688 18.5013 4.52734 18.3958 4.31641 18.1849C4.10547 17.9739 4 17.7044 4 17.3763C4 17.0482 4.10547 16.7786 4.31641 16.5677C4.52734 16.3568 4.79688 16.2513 5.125 16.2513H7.375C7.75 16.2513 8.05469 16.0989 8.28906 15.7943L9.76562 13.8255ZM19.4336 20.4349C19.0586 20.763 18.6484 20.845 18.2031 20.681C17.7578 20.47 17.5234 20.1185 17.5 19.6263V18.5013H16.375C15.25 18.4778 14.3477 18.0325 13.668 17.1653L8.28906 9.95831C8.05469 9.65363 7.75 9.50128 7.375 9.50128H5.125C4.79688 9.50128 4.52734 9.39581 4.31641 9.18488C4.10547 8.97394 4 8.70441 4 8.37628C4 8.04816 4.10547 7.77863 4.31641 7.56769C4.52734 7.35675 4.79688 7.25128 5.125 7.25128H7.375C8.47656 7.27472 9.37891 7.72003 10.082 8.58722L15.4609 15.7943C15.6953 16.0989 16 16.2513 16.375 16.2513H17.5V15.1263C17.5234 14.6341 17.7578 14.2825 18.2031 14.0716C18.6484 13.9075 19.0586 13.9896 19.4336 14.3177L21.6836 16.5677C21.8945 16.8021 22 17.0716 22 17.3763C22 17.681 21.8945 17.9505 21.6836 18.1849L19.4336 20.4349Z"/></svg>