<svg width="24" height="24" viewBox="0 0 24 24" fill="#cacaca" xmlns="http://www.w3.org/2000/svg">
<path d="M18.2031 5.07166C18.6484 4.90759 19.0586 4.98962 19.4336 5.31775L21.6836 7.56775C21.8945 7.80212 22 8.07166 22 8.37634C22 8.68103 21.8945 8.95056 21.6836 9.18494L19.4336 11.4349C19.0586 11.7631 18.6484 11.8334 18.2031 11.6459C17.7578 11.4584 17.5234 11.1185 17.5 10.6263V9.50134H16.375C16 9.50134 15.6953 9.65369 15.4609 9.95837L13.9844 11.9271L12.5781 10.0638L13.668 8.58728C14.3711 7.72009 15.2734 7.27478 16.375 7.25134H17.5V6.12634C17.5234 5.63416 17.7578 5.28259 18.2031 5.07166ZM9.76562 13.8256L11.1719 15.6888L10.082 17.1654C9.37891 18.0326 8.47656 18.4779 7.375 18.5013H5.125C4.79688 18.5013 4.52734 18.3959 4.31641 18.1849C4.10547 17.974 4 17.7045 4 17.3763C4 17.0482 4.10547 16.7787 4.31641 16.5677C4.52734 16.3568 4.79688 16.2513 5.125 16.2513H7.375C7.75 16.2513 8.05469 16.099 8.28906 15.7943L9.76562 13.8256ZM19.4336 20.4349C19.0586 20.7631 18.6484 20.8451 18.2031 20.681C17.7578 20.4701 17.5234 20.1185 17.5 19.6263V18.5013H16.375C15.25 18.4779 14.3477 18.0326 13.668 17.1654L8.28906 9.95837C8.05469 9.65369 7.75 9.50134 7.375 9.50134H5.125C4.79688 9.50134 4.52734 9.39587 4.31641 9.18494C4.10547 8.974 4 8.70447 4 8.37634C4 8.04822 4.10547 7.77869 4.31641 7.56775C4.52734 7.35681 4.79688 7.25134 5.125 7.25134H7.375C8.47656 7.27478 9.37891 7.72009 10.082 8.58728L15.4609 15.7943C15.6953 16.099 16 16.2513 16.375 16.2513H17.5V15.1263C17.5234 14.6342 17.7578 14.2826 18.2031 14.0717C18.6484 13.9076 19.0586 13.9896 19.4336 14.3177L21.6836 16.5677C21.8945 16.8021 22 17.0717 22 17.3763C22 17.681 21.8945 17.9506 21.6836 18.1849L19.4336 20.4349Z"/>
</svg>
