<svg width="24" height="24" viewBox="0 0 24 24" xmlns="http://www.w3.org/2000/svg" fill="#cacaca"><path d="M15.181 10.8571C14.7902 10.8333 14.5216 10.6548 14.375 10.3214C14.2284 9.9881 14.2895 9.67857 14.5582 9.39286L16.0603 7.92857C14.8635 6.83333 13.4835 6.28571 11.9203 6.28571C10.3815 6.28571 9.01365 6.84524 7.81681 7.96429C6.66882 9.13095 6.09483 10.4762 6.09483 12C6.09483 13.5238 6.66882 14.869 7.81681 16.0357C9.01365 17.1548 10.3937 17.7143 11.9569 17.7143C13.5201 17.7143 14.9001 17.1548 16.097 16.0357C16.3412 15.8214 16.6221 15.7143 16.9397 15.7143C17.2572 15.7143 17.5259 15.8214 17.7457 16.0357C17.9899 16.2738 18.1121 16.5476 18.1121 16.8571C18.1121 17.1667 17.9899 17.4286 17.7457 17.6429C16.671 18.6905 15.4375 19.3929 14.0453 19.75C12.653 20.0833 11.2608 20.0833 9.86853 19.75C8.47629 19.3929 7.24282 18.6905 6.1681 17.6429C5.09339 16.5952 4.37284 15.3929 4.00647 14.0357C3.66451 12.6786 3.66451 11.3214 4.00647 9.96429C4.37284 8.60714 5.09339 7.40476 6.1681 6.35714C7.24282 5.30952 8.47629 4.60714 9.86853 4.25C11.2364 3.91667 12.6164 3.91667 14.0086 4.25C15.4009 4.58333 16.6343 5.27381 17.7091 6.32143L19.2478 4.82143C19.5409 4.55952 19.8585 4.5 20.2004 4.64286C20.5424 4.78571 20.7256 5.04762 20.75 5.42857V10C20.7011 10.5238 20.408 10.8095 19.8707 10.8571H15.181Z"/><path d="M8.75 10.5C8.75 10.2239 8.99873 10 9.30556 10C9.61238 10 9.86111 10.2239 9.86111 10.5V14.5C9.86111 14.7761 9.61238 15 9.30556 15C8.99873 15 8.75 14.7761 8.75 14.5V10.5Z"/><path fill-rule="evenodd" clip-rule="evenodd" d="M12.6389 13.5V11.5C12.6389 11.2239 12.3902 11 12.0833 11C11.7765 11 11.5278 11.2239 11.5278 11.5V13.5C11.5278 13.7761 11.7765 14 12.0833 14C12.3902 14 12.6389 13.7761 12.6389 13.5ZM12.0833 10C11.1629 10 10.4167 10.6716 10.4167 11.5V13.5C10.4167 14.3284 11.1629 15 12.0833 15C13.0038 15 13.75 14.3284 13.75 13.5V11.5C13.75 10.6716 13.0038 10 12.0833 10Z"/></svg>