<svg width="24" height="24" viewBox="0 0 24 24" xmlns="http://www.w3.org/2000/svg" fill="#cacaca"><path d="M5.25 11C4.79167 10.9583 4.54167 10.7083 4.5 10.25V6.25C4.52083 5.91667 4.67708 5.6875 4.96875 5.5625C5.26042 5.4375 5.53125 5.48958 5.78125 5.71875L7.09375 7.03125C8.01042 6.11458 9.0625 5.51042 10.25 5.21875C11.4375 4.92708 12.6146 4.92708 13.7812 5.21875C14.9688 5.53125 16.0208 6.14583 16.9375 7.0625C17.8542 7.97917 18.4688 9.03125 18.7812 10.2188C19.0729 11.4062 19.0729 12.5938 18.7812 13.7812C18.4688 14.9688 17.8542 16.0208 16.9375 16.9375C16.0208 17.8542 14.9688 18.4688 13.7812 18.7812C12.5938 19.0729 11.4062 19.0729 10.2188 18.7812C9.03125 18.4688 7.97917 17.8542 7.0625 16.9375C6.85417 16.75 6.75 16.5208 6.75 16.25C6.75 15.9792 6.85417 15.7396 7.0625 15.5312C7.25 15.3438 7.47917 15.25 7.75 15.25C8.02083 15.25 8.26042 15.3438 8.46875 15.5312C9.48958 16.5104 10.6667 17 12 17C13.3333 17 14.5104 16.5104 15.5312 15.5312C16.5104 14.5104 17 13.3333 17 12C17 10.6667 16.5104 9.48958 15.5312 8.46875C14.5104 7.48958 13.3438 7 12.0312 7C10.6979 7 9.52083 7.47917 8.5 8.4375L9.78125 9.71875C10.0104 9.96875 10.0625 10.2396 9.9375 10.5312C9.8125 10.8229 9.58333 10.9792 9.25 11H5.25Z"/><path d="M10.5 10.5C10.5 10.2239 10.7239 10 11 10C11.2761 10 11.5 10.2239 11.5 10.5V14.5C11.5 14.7761 11.2761 15 11 15C10.7239 15 10.5 14.7761 10.5 14.5V10.5Z"/><path fill-rule="evenodd" clip-rule="evenodd" d="M14 13.5V11.5C14 11.2239 13.7761 11 13.5 11C13.2239 11 13 11.2239 13 11.5V13.5C13 13.7761 13.2239 14 13.5 14C13.7761 14 14 13.7761 14 13.5ZM13.5 10C12.6716 10 12 10.6716 12 11.5V13.5C12 14.3284 12.6716 15 13.5 15C14.3284 15 15 14.3284 15 13.5V11.5C15 10.6716 14.3284 10 13.5 10Z"/></svg>