<svg width="24" height="24" viewBox="0 0 24 24" xmlns="http://www.w3.org/2000/svg" fill="#cacaca"><path d="M6 3.88C7.86384 3.88 9.42998 5.15477 9.87402 6.88H21C21.5523 6.88 22 7.32772 22 7.88C22 8.43229 21.5523 8.88 21 8.88H9.87402C9.42998 10.6052 7.86384 11.88 6 11.88C3.79086 11.88 2 10.0891 2 7.88C2 5.67087 3.79086 3.88 6 3.88ZM22 15.88C22 18.0891 20.2091 19.88 18 19.88C16.1362 19.88 14.57 18.6052 14.126 16.88H3C2.44772 16.88 2 16.4323 2 15.88C2 15.3277 2.44772 14.88 3 14.88H14.126C14.57 13.1548 16.1362 11.88 18 11.88C20.2091 11.88 22 13.6709 22 15.88Z"/></svg>