<svg width="24" height="24" viewBox="0 0 24 24" xmlns="http://www.w3.org/2000/svg" fill="#cacaca"><path d="M6.375 3C6.70312 3 6.97266 3.10547 7.18359 3.31641C7.39453 3.52734 7.5 3.79688 7.5 4.125V6.05859C8.01562 6.26953 8.42578 6.60938 8.73047 7.07812C9.03516 7.52344 9.1875 8.03906 9.1875 8.625C9.1875 9.21094 9.03516 9.72656 8.73047 10.1719C8.42578 10.6406 8.01562 10.9805 7.5 11.1914V19.875C7.5 20.2031 7.39453 20.4727 7.18359 20.6836C6.97266 20.8945 6.70312 21 6.375 21C6.04688 21 5.77734 20.8945 5.56641 20.6836C5.35547 20.4727 5.25 20.2031 5.25 19.875V11.1914C4.73438 10.9805 4.32422 10.6406 4.01953 10.1719C3.71484 9.72656 3.5625 9.21094 3.5625 8.625C3.5625 8.03906 3.71484 7.52344 4.01953 7.07812C4.32422 6.60938 4.73438 6.26953 5.25 6.05859V4.125C5.25 3.79688 5.35547 3.52734 5.56641 3.31641C5.77734 3.10547 6.04688 3 6.375 3ZM6.375 9.75C6.70312 9.75 6.97266 9.64453 7.18359 9.43359C7.39453 9.22266 7.5 8.95312 7.5 8.625C7.5 8.29688 7.39453 8.02734 7.18359 7.81641C6.97266 7.60547 6.70312 7.5 6.375 7.5C6.04688 7.5 5.77734 7.60547 5.56641 7.81641C5.35547 8.02734 5.25 8.29688 5.25 8.625C5.25 8.95312 5.35547 9.22266 5.56641 9.43359C5.77734 9.64453 6.04688 9.75 6.375 9.75ZM12 16.5C12.3281 16.5 12.5977 16.3945 12.8086 16.1836C13.0195 15.9727 13.125 15.7031 13.125 15.375C13.125 15.0469 13.0195 14.7773 12.8086 14.5664C12.5977 14.3555 12.3281 14.25 12 14.25C11.6719 14.25 11.4023 14.3555 11.1914 14.5664C10.9805 14.7773 10.875 15.0469 10.875 15.375C10.875 15.7031 10.9805 15.9727 11.1914 16.1836C11.4023 16.3945 11.6719 16.5 12 16.5ZM14.8125 15.375C14.8125 15.9609 14.6602 16.4766 14.3555 16.9219C14.0508 17.3906 13.6406 17.7305 13.125 17.9414V19.875C13.125 20.2031 13.0195 20.4727 12.8086 20.6836C12.5977 20.8945 12.3281 21 12 21C11.6719 21 11.4023 20.8945 11.1914 20.6836C10.9805 20.4727 10.875 20.2031 10.875 19.875V17.9414C10.3594 17.7305 9.94922 17.3906 9.64453 16.9219C9.33984 16.4766 9.1875 15.9609 9.1875 15.375C9.1875 14.7891 9.33984 14.2734 9.64453 13.8281C9.94922 13.3594 10.3594 13.0195 10.875 12.8086V4.125C10.875 3.79688 10.9805 3.52734 11.1914 3.31641C11.4023 3.10547 11.6719 3 12 3C12.3281 3 12.5977 3.10547 12.8086 3.31641C13.0195 3.52734 13.125 3.79688 13.125 4.125V12.8086C13.6406 13.0195 14.0508 13.3594 14.3555 13.8281C14.6602 14.2734 14.8125 14.7891 14.8125 15.375ZM18.75 9.75C18.75 9.42188 18.6445 9.15234 18.4336 8.94141C18.2227 8.73047 17.9531 8.625 17.625 8.625C17.2969 8.625 17.0273 8.73047 16.8164 8.94141C16.6055 9.15234 16.5 9.42188 16.5 9.75C16.5 10.0781 16.6055 10.3477 16.8164 10.5586C17.0273 10.7695 17.2969 10.875 17.625 10.875C17.9531 10.875 18.2227 10.7695 18.4336 10.5586C18.6445 10.3477 18.75 10.0781 18.75 9.75ZM18.75 12.3164V19.875C18.75 20.2031 18.6445 20.4727 18.4336 20.6836C18.2227 20.8945 17.9531 21 17.625 21C17.2969 21 17.0273 20.8945 16.8164 20.6836C16.6055 20.4727 16.5 20.2031 16.5 19.875V12.3164C15.9844 12.1055 15.5742 11.7656 15.2695 11.2969C14.9648 10.8516 14.8125 10.3359 14.8125 9.75C14.8125 9.16406 14.9648 8.64844 15.2695 8.20312C15.5742 7.73438 15.9844 7.39453 16.5 7.18359V4.125C16.5 3.79688 16.6055 3.52734 16.8164 3.31641C17.0273 3.10547 17.2969 3 17.625 3C17.9531 3 18.2227 3.10547 18.4336 3.31641C18.6445 3.52734 18.75 3.79688 18.75 4.125V7.18359C19.2656 7.39453 19.6758 7.73438 19.9805 8.20312C20.2852 8.64844 20.4375 9.16406 20.4375 9.75C20.4375 10.3359 20.2852 10.8516 19.9805 11.2969C19.6758 11.7656 19.2656 12.1055 18.75 12.3164Z"/></svg>