<svg width="24" height="24" viewBox="0 0 24 24" xmlns="http://www.w3.org/2000/svg" fill="#cacaca"><path d="M7.375 10.0625C7.08333 10.0208 6.79167 10 6.5 10C5.58333 10 4.73958 10.2083 3.96875 10.625C3.34375 9.89583 3.02083 9.02083 3 8C3.02083 6.875 3.40625 5.92708 4.15625 5.15625C4.92708 4.40625 5.875 4.02083 7 4C8.29167 4.04167 9.32292 4.53125 10.0938 5.46875C10.6771 5.15625 11.3125 5 12 5C12.7083 5 13.3438 5.16667 13.9062 5.5C14.4896 5.8125 14.9583 6.23958 15.3125 6.78125C14.9583 7.01042 14.6354 7.28125 14.3438 7.59375C13.6354 7.19792 12.8542 7 12 7C10.9375 7.02083 10 7.3125 9.1875 7.875C8.375 8.41667 7.77083 9.14583 7.375 10.0625ZM16.0312 12.0312C15.5521 11.4062 14.9688 10.9167 14.2812 10.5625C13.5938 10.1875 12.8333 10 12 10C11 10.0208 10.1042 10.2812 9.3125 10.7812C9.02083 10.5938 8.70833 10.4375 8.375 10.3125C8.6875 9.625 9.16667 9.07292 9.8125 8.65625C10.4583 8.23958 11.1875 8.02083 12 8C13 8.02083 13.8542 8.33333 14.5625 8.9375C14.9167 8.35417 15.3958 7.88542 16 7.53125C16.6042 7.17708 17.2708 7 18 7C19.125 7.02083 20.0729 7.40625 20.8438 8.15625C21.5938 8.92708 21.9792 9.875 22 11C22 11.6667 21.8542 12.2812 21.5625 12.8438C21.2708 13.3854 20.875 13.8438 20.375 14.2188C19.9792 13.5521 19.4479 13.0208 18.7812 12.625C18.0938 12.2083 17.3333 12 16.5 12C16.3333 12 16.1771 12.0104 16.0312 12.0312ZM6.5 20C5.22917 19.9583 4.16667 19.5208 3.3125 18.6875C2.47917 17.8333 2.04167 16.7708 2 15.5C2.04167 14.2292 2.47917 13.1667 3.3125 12.3125C4.16667 11.4792 5.22917 11.0417 6.5 11C7.60417 11.0208 8.55208 11.3542 9.34375 12C10.0729 11.3542 10.9583 11.0208 12 11C12.7708 11 13.4688 11.1979 14.0938 11.5938C14.7188 11.9688 15.1979 12.4792 15.5312 13.125C15.8438 13.0417 16.1667 13 16.5 13C17.5 13.0208 18.3229 13.3646 18.9688 14.0312C19.6354 14.6771 19.9792 15.5 20 16.5C19.9792 17.5 19.6354 18.3229 18.9688 18.9688C18.3229 19.6354 17.5 19.9792 16.5 20H6.5Z"/></svg>