<svg width="24" height="24" viewBox="0 0 24 24" xmlns="http://www.w3.org/2000/svg" fill="#cacaca"><path d="M12 4C12.2917 4 12.5312 4.09375 12.7188 4.28125C12.9062 4.46875 13 4.70833 13 5V5.9375L13.4688 5.46875C13.8229 5.17708 14.1771 5.17708 14.5312 5.46875C14.8229 5.82292 14.8229 6.17708 14.5312 6.53125L13 8.0625V10.25L14.9062 9.15625L15.4688 7.0625C15.6354 6.64583 15.9375 6.46875 16.375 6.53125C16.8125 6.69792 16.9896 7.01042 16.9062 7.46875L16.75 8.0625L17.5 7.625C17.75 7.5 18 7.46875 18.25 7.53125C18.5 7.59375 18.7083 7.75 18.875 8C19 8.25 19.0312 8.5 18.9688 8.75C18.9062 9 18.75 9.20833 18.5 9.375L17.7188 9.8125L18.4062 10C18.8229 10.1667 19 10.4792 18.9375 10.9375C18.7708 11.3542 18.4583 11.5312 18 11.4688L15.875 10.9062L14 12L15.875 13.125L18 12.5312C18.4583 12.4688 18.7604 12.6458 18.9062 13.0625C18.9896 13.5208 18.8125 13.8333 18.375 14L17.7188 14.1875L18.5 14.625C18.75 14.7917 18.9062 15 18.9688 15.25C19.0312 15.5 19 15.75 18.875 16C18.7083 16.25 18.5 16.4062 18.25 16.4688C18 16.5312 17.75 16.5 17.5 16.375L16.75 15.9375L16.9062 16.5312C16.9896 16.9896 16.8125 17.3021 16.375 17.4688C15.9375 17.5312 15.6354 17.3542 15.4688 16.9375L14.9062 14.8438L13 13.75V15.9375L14.5312 17.4688C14.8229 17.8229 14.8229 18.1771 14.5312 18.5312C14.1771 18.8229 13.8229 18.8229 13.4688 18.5312L13 18.0625V19C13 19.2917 12.9062 19.5312 12.7188 19.7188C12.5312 19.9062 12.2917 20 12 20C11.7083 20 11.4688 19.9062 11.2812 19.7188C11.0938 19.5312 11 19.2917 11 19V18.0625L10.5312 18.5312C10.1771 18.8229 9.82292 18.8229 9.46875 18.5312C9.17708 18.1771 9.17708 17.8229 9.46875 17.4688L11 15.9375V13.75L9.09375 14.875L8.53125 16.9375C8.36458 17.3542 8.0625 17.5312 7.625 17.4688C7.1875 17.3021 7.01042 16.9896 7.09375 16.5312L7.25 15.9375L6.5 16.375C6.25 16.5 6 16.5312 5.75 16.4688C5.47917 16.4062 5.27083 16.25 5.125 16C5 15.75 4.96875 15.5 5.03125 15.25C5.09375 14.9792 5.25 14.7708 5.5 14.625L6.28125 14.1875L5.59375 14C5.17708 13.8333 5 13.5208 5.0625 13.0625C5.22917 12.6458 5.54167 12.4688 6 12.5312L8.09375 13.0938L10.0312 12L8.125 10.9062L6 11.4688C5.54167 11.5312 5.23958 11.3542 5.09375 10.9375C5.01042 10.4792 5.1875 10.1667 5.625 10L6.28125 9.8125L5.5 9.375C5.25 9.20833 5.09375 9 5.03125 8.75C4.96875 8.5 5 8.25 5.125 8C5.29167 7.75 5.5 7.59375 5.75 7.53125C6 7.46875 6.25 7.5 6.5 7.625L7.25 8.0625L7.09375 7.46875C7.01042 7.01042 7.1875 6.69792 7.625 6.53125C8.0625 6.46875 8.36458 6.64583 8.53125 7.0625L9.09375 9.15625L11 10.25V8.0625L9.46875 6.53125C9.17708 6.17708 9.17708 5.82292 9.46875 5.46875C9.82292 5.17708 10.1771 5.17708 10.5312 5.46875L11 5.9375V5C11 4.70833 11.0938 4.46875 11.2812 4.28125C11.4688 4.09375 11.7083 4 12 4Z"/></svg>