<svg width="24" height="24" viewBox="0 0 24 24" xmlns="http://www.w3.org/2000/svg" fill="#cacaca"><path d="M5 5.25C5.02431 4.61719 5.25521 4.08984 5.69271 3.66797C6.13021 3.24609 6.67708 3.02344 7.33333 3H16.6667C17.3229 3.02344 17.8698 3.24609 18.3073 3.66797C18.7448 4.08984 18.9757 4.61719 19 5.25V18.75C18.9757 19.3828 18.7448 19.9102 18.3073 20.332C17.8698 20.7539 17.3229 20.9766 16.6667 21H7.33333C6.67708 20.9766 6.13021 20.7539 5.69271 20.332C5.25521 19.9102 5.02431 19.3828 5 18.75V5.25ZM16.0833 14.8125C16.0833 14.1094 15.901 13.4531 15.5365 12.8438C15.1719 12.2344 14.6736 11.7539 14.0417 11.4023C13.4097 11.0508 12.7292 10.875 12 10.875C11.2708 10.875 10.5903 11.0508 9.95833 11.4023C9.32639 11.7539 8.82812 12.2344 8.46354 12.8438C8.09896 13.4531 7.91667 14.1094 7.91667 14.8125C7.91667 15.5156 8.09896 16.1719 8.46354 16.7812C8.82812 17.3906 9.32639 17.8711 9.95833 18.2227C10.5903 18.5742 11.2708 18.75 12 18.75C12.7292 18.75 13.4097 18.5742 14.0417 18.2227C14.6736 17.8711 15.1719 17.3906 15.5365 16.7812C15.901 16.1719 16.0833 15.5156 16.0833 14.8125ZM12 12.5625C12.875 12.5859 13.5434 12.9609 14.0052 13.6875C14.4427 14.4375 14.4427 15.1875 14.0052 15.9375C13.5434 16.6641 12.875 17.0391 12 17.0625C11.125 17.0391 10.4566 16.6641 9.99479 15.9375C9.55729 15.1875 9.55729 14.4375 9.99479 13.6875C10.4566 12.9609 11.125 12.5859 12 12.5625ZM12 8.625C12.6562 8.60156 13.1667 8.32031 13.5312 7.78125C13.8229 7.21875 13.8229 6.65625 13.5312 6.09375C13.1667 5.55469 12.6562 5.27344 12 5.25C11.3438 5.27344 10.8333 5.55469 10.4688 6.09375C10.1771 6.65625 10.1771 7.21875 10.4688 7.78125C10.8333 8.32031 11.3438 8.60156 12 8.625Z"/></svg>