<svg width="24" height="24" viewBox="0 0 24 24" xmlns="http://www.w3.org/2000/svg" fill="#cacaca"><path d="M13.875 4.375C13.849 5.07812 13.5365 5.625 12.9375 6.01562C12.3125 6.32812 11.6875 6.32812 11.0625 6.01562C10.4635 5.625 10.151 5.07812 10.125 4.375C10.151 3.67188 10.4635 3.125 11.0625 2.73438C11.6875 2.42188 12.3125 2.42188 12.9375 2.73438C13.5365 3.125 13.849 3.67188 13.875 4.375ZM13.875 20.625C13.849 21.3281 13.5365 21.875 12.9375 22.2656C12.3125 22.5781 11.6875 22.5781 11.0625 22.2656C10.4635 21.875 10.151 21.3281 10.125 20.625C10.151 19.9219 10.4635 19.375 11.0625 18.9844C11.6875 18.6719 12.3125 18.6719 12.9375 18.9844C13.5365 19.375 13.849 19.9219 13.875 20.625ZM3.875 14.375C3.17188 14.349 2.625 14.0365 2.23438 13.4375C1.92188 12.8125 1.92188 12.1875 2.23438 11.5625C2.625 10.9635 3.17188 10.651 3.875 10.625C4.57812 10.651 5.125 10.9635 5.51562 11.5625C5.82812 12.1875 5.82812 12.8125 5.51562 13.4375C5.125 14.0365 4.57812 14.349 3.875 14.375ZM22 12.5C21.974 13.2031 21.6615 13.75 21.0625 14.1406C20.4375 14.4531 19.8125 14.4531 19.1875 14.1406C18.5885 13.75 18.276 13.2031 18.25 12.5C18.276 11.7969 18.5885 11.25 19.1875 10.8594C19.8125 10.5469 20.4375 10.5469 21.0625 10.8594C21.6615 11.25 21.974 11.7969 22 12.5ZM7.58594 19.5703C7.0651 20.0651 6.46615 20.2214 5.78906 20.0391C5.08594 19.8568 4.64323 19.4141 4.46094 18.7109C4.27865 18.0339 4.4349 17.4349 4.92969 16.9141C5.45052 16.4193 6.04948 16.263 6.72656 16.4453C7.40365 16.6536 7.84635 17.0964 8.05469 17.7734C8.23698 18.4505 8.08073 19.0495 7.58594 19.5703ZM7.58594 8.08594C7.0651 8.58073 6.46615 8.73698 5.78906 8.55469C5.08594 8.34635 4.64323 7.90365 4.46094 7.22656C4.27865 6.54948 4.4349 5.95052 4.92969 5.42969C5.45052 4.90885 6.0625 4.72656 6.76562 4.88281C7.46875 5.09115 7.91146 5.54688 8.09375 6.25C8.27604 6.95312 8.10677 7.5651 7.58594 8.08594ZM16.4141 19.5703C15.9193 19.0495 15.763 18.4505 15.9453 17.7734C16.1536 17.0964 16.5964 16.6536 17.2734 16.4453C17.9505 16.263 18.5495 16.4193 19.0703 16.9141C19.5651 17.4349 19.7214 18.0339 19.5391 18.7109C19.3568 19.4141 18.9141 19.8568 18.2109 20.0391C17.5339 20.2214 16.9349 20.0651 16.4141 19.5703Z"/></svg>