  <svg
    width="24"
    height="24"
    viewBox="0 0 24 24"
    fill="#cacaca"
    xmlns="http://www.w3.org/2000/svg"
  >
    <path d="M3 5.82143C3 4.41518 4.12501 3.25 5.57143 3.25H18.4286C19.8349 3.25 21 4.41518 21 5.82143V18.6786C21 20.125 19.8349 21.25 18.4286 21.25H5.57143C4.12501 21.25 3 20.125 3 18.6786V5.82143ZM6.85714 13.5357C7.54018 13.5357 8.14286 12.9732 8.14286 12.25C8.14286 11.5669 7.54018 10.9643 6.85714 10.9643C6.13393 10.9643 5.57143 11.5669 5.57143 12.25C5.57143 12.9732 6.13393 13.5357 6.85714 13.5357ZM8.14286 8.39286C8.14286 7.70982 7.54018 7.10714 6.85714 7.10714C6.13393 7.10714 5.57143 7.70982 5.57143 8.39286C5.57143 9.11607 6.13393 9.67857 6.85714 9.67857C7.54018 9.67857 8.14286 9.11607 8.14286 8.39286ZM6.85714 17.3929C7.54018 17.3929 8.14286 16.8303 8.14286 16.1071C8.14286 15.4241 7.54018 14.8214 6.85714 14.8214C6.13393 14.8214 5.57143 15.4241 5.57143 16.1071C5.57143 16.8303 6.13393 17.3929 6.85714 17.3929ZM10.7143 7.42857C10.1518 7.42857 9.74994 7.87054 9.74994 8.39286C9.74994 8.95536 10.1518 9.35714 10.7143 9.35714H17.1429C17.6651 9.35714 18.1072 8.95536 18.1072 8.39286C18.1072 7.87054 17.6651 7.42857 17.1429 7.42857H10.7143ZM10.7143 11.2857C10.1518 11.2857 9.74994 11.7277 9.74994 12.25C9.74994 12.8125 10.1518 13.2143 10.7143 13.2143H17.1429C17.6651 13.2143 18.1072 12.8125 18.1072 12.25C18.1072 11.7277 17.6651 11.2857 17.1429 11.2857H10.7143ZM10.7143 15.1428C10.1518 15.1428 9.74994 15.5849 9.74994 16.1071C9.74994 16.6697 10.1518 17.0715 10.7143 17.0715H17.1429C17.6651 17.0715 18.1072 16.6697 18.1072 16.1071C18.1072 15.5849 17.6651 15.1428 17.1429 15.1428H10.7143Z" />
  </svg>