<svg width="24" height="24" viewBox="0 0 24 24" xmlns="http://www.w3.org/2000/svg" fill="#cacaca"><path d="M10.1538 3.38458C10.1538 3.0256 10.2692 2.73073 10.5 2.49996C10.7308 2.26919 11.0256 2.15381 11.3846 2.15381H12.6154C12.9744 2.15381 13.2692 2.26919 13.5 2.49996C13.7308 2.73073 13.8462 3.0256 13.8462 3.38458V8.80765L18.5385 6.07689C18.8462 5.92304 19.1538 5.88458 19.4615 5.9615C19.7949 6.06407 20.0513 6.25637 20.2308 6.53842L20.8462 7.61535C21 7.92304 21.0385 8.23073 20.9615 8.53842C20.8846 8.87176 20.6923 9.12817 20.3846 9.30765L15.6923 12L20.3846 14.6923C20.6923 14.8718 20.8846 15.1282 20.9615 15.4615C21.0385 15.7692 21 16.0769 20.8462 16.3846L20.2308 17.4615C20.0513 17.7436 19.7949 17.9359 19.4615 18.0384C19.1538 18.1153 18.8462 18.0769 18.5385 17.923L13.8462 15.1923V20.6153C13.8462 20.9743 13.7308 21.2692 13.5 21.5C13.2692 21.7307 12.9744 21.8461 12.6154 21.8461H11.3846C11.0256 21.8461 10.7308 21.7307 10.5 21.5C10.2692 21.2692 10.1538 20.9743 10.1538 20.6153V15.1923L5.46154 17.923C5.15385 18.0769 4.84615 18.1153 4.53846 18.0384C4.20513 17.9359 3.94872 17.7436 3.76923 17.4615L3.15385 16.3846C3 16.0769 2.96154 15.7692 3.03846 15.4615C3.11538 15.1538 3.30769 14.8974 3.61538 14.6923L8.30769 12L3.61538 9.30765C3.30769 9.12817 3.11538 8.87176 3.03846 8.53842C2.96154 8.23073 3 7.92304 3.15385 7.61535L3.76923 6.53842C3.94872 6.25637 4.20513 6.06407 4.53846 5.9615C4.84615 5.88458 5.15385 5.92304 5.46154 6.07689L10.1538 8.80765V3.38458Z"/></svg>