<svg width="24" height="24" viewBox="0 0 24 24" xmlns="http://www.w3.org/2000/svg" fill="#cacaca"><path d="M14.4626 8.34372L13.9706 6.65669L12.2836 6.16464C12.0961 6.11778 12.0024 6.00063 12.0024 5.81318C12.0024 5.62573 12.0961 5.50858 12.2836 5.46172L13.9706 4.96967L14.4626 3.28264C14.5095 3.09519 14.6267 3.00146 14.8141 3.00146C15.0016 3.00146 15.1187 3.09519 15.1656 3.28264L15.6576 4.96967L17.3446 5.46172C17.5321 5.50858 17.6258 5.62573 17.6258 5.81318C17.6258 6.00063 17.5321 6.11778 17.3446 6.16464L15.6576 6.65669L15.1656 8.34372C15.1187 8.53117 15.0016 8.6249 14.8141 8.6249C14.6267 8.6249 14.5095 8.53117 14.4626 8.34372ZM10.4911 8.51946L12.143 11.8232L15.7631 12.3856C16.1145 12.4559 16.3488 12.6433 16.466 12.9479C16.5597 13.2525 16.4894 13.5337 16.2551 13.7914L13.6191 16.3923L14.2166 20.0123C14.2635 20.3638 14.158 20.6333 13.9003 20.8207C13.6426 21.0316 13.3497 21.055 13.0216 20.891L9.75302 19.1688L6.4844 20.891C6.15636 21.055 5.86348 21.0316 5.60574 20.8207C5.348 20.6333 5.24256 20.3638 5.28942 20.0123L5.88691 16.3923L3.25092 13.7914C3.01661 13.5337 2.94632 13.2525 3.04005 12.9479C3.13377 12.6433 3.36808 12.4559 3.74297 12.3856L7.36306 11.8232L8.97979 8.51946C9.16724 8.21485 9.42498 8.06255 9.75302 8.06255C10.081 8.06255 10.3271 8.21485 10.4911 8.51946ZM18.0827 11.5421L16.712 11.1554C16.5714 11.1086 16.5011 11.0149 16.5011 10.8743C16.5011 10.7337 16.5714 10.64 16.712 10.5931L18.0827 10.2065L18.4693 8.83577C18.5162 8.69519 18.6099 8.6249 18.7505 8.6249C18.8911 8.6249 18.9848 8.69519 19.0317 8.83577L19.4183 10.2065L20.789 10.5931C20.9296 10.64 20.9999 10.7337 20.9999 10.8743C20.9999 11.0149 20.9296 11.1086 20.789 11.1554L19.4183 11.5421L19.0317 12.9128C18.9848 13.0533 18.8911 13.1236 18.7505 13.1236C18.6099 13.1236 18.5162 13.0533 18.4693 12.9128L18.0827 11.5421Z"/></svg>