<svg width="24" height="24" viewBox="0 0 24 24" xmlns="http://www.w3.org/2000/svg" fill="#cacaca"><path d="M11.9898 16.0885L12.91 16.5656L15.8067 18.1332L15.2273 14.7935L15.0569 13.8393L15.7726 13.1237L18.1581 10.7722L14.8865 10.2951L13.8983 10.1247L13.4552 9.23868L11.9898 6.23975V16.0885ZM17.9536 19.4623C18.0218 19.894 17.8741 20.2461 17.5106 20.5187C17.1471 20.7686 16.7609 20.7914 16.3519 20.5869L11.9898 18.2695L7.62777 20.5869C7.21882 20.7914 6.8326 20.7686 6.46909 20.5187C6.1283 20.2461 5.98063 19.894 6.02607 19.4623L6.87804 14.4868L3.33385 10.9767C3.01578 10.6586 2.9249 10.2838 3.06122 9.85209C3.19753 9.44315 3.48152 9.2046 3.91319 9.13644L8.82052 8.38671L11.0016 3.88832C11.2288 3.50209 11.5582 3.29762 11.9898 3.2749C12.4442 3.29762 12.7737 3.50209 12.9781 3.88832L15.1592 8.38671L20.0665 9.13644C20.4982 9.2046 20.7935 9.44315 20.9525 9.85209C21.0661 10.2838 20.9753 10.6586 20.6799 10.9767L17.1357 14.4868L17.9536 19.4623Z"/></svg>