<svg width="24" height="24" viewBox="0 0 24 24" xmlns="http://www.w3.org/2000/svg" fill="#cacaca"><path d="M3.5625 12.7031C3.21094 12.5859 3.02344 12.3516 3 12C3.02344 11.6484 3.21094 11.4141 3.5625 11.2969L9.75 9.75L11.2969 3.5625C11.4141 3.21094 11.6484 3.02344 12 3C12.3516 3.02344 12.5859 3.21094 12.7031 3.5625L14.25 9.75L20.4727 11.2969C20.8008 11.4141 20.9766 11.6484 21 12C20.9766 12.3516 20.8008 12.5859 20.4727 12.7031L14.25 14.25L12.7031 20.4727C12.5859 20.8008 12.3516 20.9766 12 21C11.6484 20.9766 11.4141 20.8008 11.2969 20.4727L9.75 14.25L3.5625 12.7031ZM5.49609 5.49609C5.89453 5.16797 6.29297 5.16797 6.69141 5.49609L8.37891 7.18359C8.70703 7.58203 8.70703 7.98047 8.37891 8.37891C7.98047 8.70703 7.58203 8.70703 7.18359 8.37891L5.49609 6.69141C5.16797 6.29297 5.16797 5.89453 5.49609 5.49609ZM18.5039 5.49609C18.832 5.89453 18.832 6.29297 18.5039 6.69141L16.8164 8.37891C16.418 8.70703 16.0195 8.70703 15.6211 8.37891C15.293 7.98047 15.293 7.58203 15.6211 7.18359L17.3086 5.49609C17.707 5.16797 18.1055 5.16797 18.5039 5.49609ZM18.5039 17.3086C18.832 17.707 18.832 18.1055 18.5039 18.5039C18.1055 18.832 17.707 18.832 17.3086 18.5039L15.6211 16.8164C15.293 16.418 15.293 16.0195 15.6211 15.6211C16.0195 15.293 16.418 15.293 16.8164 15.6211L18.5039 17.3086ZM5.49609 18.5039C5.16797 18.1055 5.16797 17.707 5.49609 17.3086L7.18359 15.6211C7.58203 15.293 7.98047 15.293 8.37891 15.6211C8.70703 16.0195 8.70703 16.418 8.37891 16.8164L6.69141 18.5039C6.29297 18.832 5.89453 18.832 5.49609 18.5039Z"/></svg>