<svg width="24" height="24" fill="#cacaca" xmlns="http://www.w3.org/2000/svg"><path d="M12 3.763c.418 0 .772.354.772.772v2.06c0 .45-.354.771-.772.771a.744.744 0 01-.772-.772v-2.06c0-.417.322-.771.772-.771zm0 12.87c.418 0 .772.355.772.773v2.06c0 .45-.354.771-.772.771a.744.744 0 01-.772-.772v-2.06c0-.418.322-.771.772-.771zm7.465-3.86h-2.06a.744.744 0 01-.771-.773c0-.418.321-.772.772-.772h2.06c.417 0 .771.354.771.772 0 .45-.354.772-.772.772zM7.366 12c0 .45-.354.772-.772.772h-2.06A.743.743 0 013.764 12c0-.418.321-.772.772-.772h2.06c.417 0 .771.354.771.772zm10.458-4.73l-1.48 1.48c-.29.29-.772.29-1.094 0-.29-.322-.29-.804 0-1.094l1.48-1.48c.29-.29.772-.29 1.094 0 .29.322.29.804 0 1.094zm-9.106 8.012c.29.322.29.805 0 1.094l-1.48 1.448a.705.705 0 01-1.062 0 .705.705 0 010-1.062l1.448-1.48c.29-.29.772-.29 1.094 0zm8.012 2.542l-1.48-1.448c-.29-.29-.29-.772 0-1.094.322-.29.804-.29 1.094 0l1.48 1.48c.29.29.29.773 0 1.062-.322.322-.804.322-1.094 0zM8.718 8.75c-.322.29-.805.29-1.094 0L6.176 7.27c-.322-.29-.322-.772 0-1.094a.757.757 0 011.062 0l1.48 1.48c.29.29.29.772 0 1.094zM12 15.604a3.543 3.543 0 01-3.121-1.802c-.676-1.094-.676-2.478 0-3.604A3.61 3.61 0 0112 8.396c1.287 0 2.445.708 3.089 1.802.676 1.126.676 2.51 0 3.604A3.53 3.53 0 0112 15.604z"/></svg>