<svg width="24" height="24" viewBox="0 0 24 24" xmlns="http://www.w3.org/2000/svg" fill="#cacaca"><path d="M20.5656 3.28084C20.8113 3.49147 20.9869 3.80741 20.9869 4.12335V9.17845C20.9869 10.1263 19.9688 10.8635 18.7401 10.8635C17.4764 10.8635 16.4934 10.1263 16.4934 9.17845C16.4934 8.26572 17.4764 7.49342 18.7401 7.49342V5.49244L15.3701 6.19454V10.3018C15.3701 11.2496 14.352 11.9868 13.1234 11.9868C11.8596 11.9868 10.8767 11.2496 10.8767 10.3018C10.8767 9.38908 11.8596 8.61677 13.1234 8.61677V5.24671C13.1234 4.72014 13.4744 4.26377 14.001 4.15846L19.6178 3.0351C19.9688 2.9649 20.2848 3.07021 20.5656 3.28084ZM4.13654 3H9.75331C10.3501 3 10.8767 3.52657 10.8767 4.12335C10.8767 4.75524 10.3501 5.24671 9.75331 5.24671H4.13654C3.50465 5.24671 3.01318 4.75524 3.01318 4.12335C3.01318 3.52657 3.50465 3 4.13654 3ZM20.6358 15.041L15.019 20.6577C14.5978 21.1141 13.8606 21.1141 13.4393 20.6577C12.983 20.2365 12.983 19.4993 13.4393 19.078L19.0561 13.4612C19.4773 13.0049 20.2145 13.0049 20.6358 13.4612C21.0922 13.8825 21.0922 14.6197 20.6358 15.041ZM3.01318 7.49342C3.01318 6.89664 3.50465 6.37006 4.13654 6.37006H9.75331C10.3501 6.37006 10.8767 6.89664 10.8767 7.49342C10.8767 8.1253 10.3501 8.61677 9.75331 8.61677H8.06828V9.74013C8.06828 10.372 7.54171 10.8635 6.94492 10.8635C6.31304 10.8635 5.82157 10.372 5.82157 9.74013V8.61677H4.13654C3.50465 8.61677 3.01318 8.1253 3.01318 7.49342ZM13.1234 14.5144C13.1234 14.0229 13.3691 13.5666 13.8255 13.3208C14.2467 13.0751 14.7733 13.0751 15.2297 13.3208C15.6509 13.5666 15.9318 14.0229 15.9318 14.5144C15.9318 15.041 15.6509 15.4973 15.2297 15.7431C14.7733 15.9888 14.2467 15.9888 13.8255 15.7431C13.3691 15.4973 13.1234 15.041 13.1234 14.5144ZM19.5827 18.1653C20.0741 18.1653 20.5305 18.4461 20.7762 18.8674C21.022 19.3237 21.022 19.8503 20.7762 20.2716C20.5305 20.7279 20.0741 20.9737 19.5827 20.9737C19.0561 20.9737 18.5997 20.7279 18.354 20.2716C18.1083 19.8503 18.1083 19.3237 18.354 18.8674C18.5997 18.4461 19.0561 18.1653 19.5827 18.1653ZM7.75234 16.1292L8.10338 16.5154L8.9459 15.7079C9.36716 15.2516 10.1044 15.2516 10.5256 15.7079C10.982 16.1292 10.982 16.8664 10.5256 17.2877L9.6831 18.1653L10.5607 19.078C10.982 19.5344 10.9469 20.2716 10.5256 20.6928C10.0693 21.1141 9.33205 21.079 8.91079 20.6226L8.06828 19.745L7.61192 20.2014C7.12045 20.6928 6.41835 20.9737 5.71626 20.9737C4.20675 20.9737 3.01318 19.7801 3.01318 18.2706V18.2355C3.01318 17.5685 3.25892 16.9015 3.71528 16.41L4.17164 15.8835C3.78549 15.4622 3.57486 14.8654 3.57486 14.2335C3.57486 12.8645 4.69822 11.706 6.10241 11.706C7.4715 11.706 8.62996 12.8645 8.62996 14.2335C8.62996 15.0059 8.27891 15.6728 7.75234 16.1292ZM5.36521 17.9196C5.295 17.9898 5.22479 18.1302 5.22479 18.2355V18.2706C5.22479 18.5163 5.43542 18.727 5.71626 18.727C5.82157 18.727 5.96199 18.6919 6.0322 18.6216L6.52367 18.1302L5.85667 17.393L5.36521 17.9196ZM6.66409 14.2335C6.66409 13.9527 6.38325 13.6719 6.10241 13.6719C5.78646 13.6719 5.54073 13.9527 5.54073 14.2335C5.54073 14.5495 5.78646 14.7952 6.10241 14.7952C6.38325 14.7952 6.66409 14.5495 6.66409 14.2335Z"/></svg>