<svg width="24" height="24" viewBox="0 0 24 24" xmlns="http://www.w3.org/2000/svg" fill="#cacaca"><path d="M17.6388 13.1104C15.8437 13.1104 14.3302 14.1311 13.5911 15.6094L5.39014 7.44366L5.42534 7.40846L7.53717 5.29662C10.6345 2.23446 15.5973 2.23446 18.6947 5.29662C21.0529 7.65484 21.6161 11.1394 20.349 14.0255C19.5746 13.4624 18.6595 13.1104 17.6388 13.1104ZM4.72139 8.32359L13.2039 16.8061C13.1335 17.0877 13.1335 17.3341 13.1335 17.6157C13.1335 18.4604 13.3447 19.1995 13.6967 19.8683C13.5911 19.8683 13.4855 19.8683 13.3799 19.8683H13.3095C12.1128 19.8683 10.9513 19.4107 10.1066 18.566L9.7546 18.214C9.29704 17.7565 8.55789 17.7917 8.10033 18.2844L6.09408 20.6074C5.8829 20.8538 5.60132 20.9946 5.28455 20.9946C4.96777 21.0298 4.651 20.889 4.43981 20.6778L3.3135 19.5515C3.10232 19.3403 2.96153 19.0236 2.99672 18.7068C2.99672 18.39 3.13751 18.1084 3.38389 17.8972L5.70691 15.891C6.19968 15.4334 6.23487 14.6943 5.77731 14.2367L5.42534 13.8848C4.5806 13.04 4.12304 11.8785 4.12304 10.6818V10.6114C4.12304 9.80187 4.33422 9.02753 4.72139 8.32359ZM17.6388 14.2367C18.8355 14.2367 19.9266 14.9055 20.5602 15.9262C21.1585 16.9821 21.1585 18.2844 20.5602 19.3051C19.9266 20.3611 18.8355 20.9946 17.6388 20.9946C16.4069 20.9946 15.3158 20.3611 14.6822 19.3051C14.0839 18.2844 14.0839 16.9821 14.6822 15.9262C15.3158 14.9055 16.4069 14.2367 17.6388 14.2367Z"/></svg>