<svg width="24" height="24" viewBox="0 0 24 24" xmlns="http://www.w3.org/2000/svg" fill="#cacaca"><path d="M11.2129 4C11.8719 4.00002 12.4337 4.23164 12.8975 4.69434L19.3408 11.123C19.7802 11.6101 20 12.1588 20 12.7676C19.9999 13.4006 19.7801 13.9485 19.3408 14.4111L14.4346 19.3057C13.9464 19.7684 13.3973 20 12.7871 20C12.1525 20 11.6034 19.7684 11.1396 19.3057L4.69531 12.877C4.23158 12.4143 4 11.8656 4 11.2324V5.75391C4.02441 5.2669 4.19544 4.85264 4.5127 4.51172C4.85442 4.19513 5.26964 4.02435 5.75781 4H11.2129ZM7 6C6.44772 6 6 6.44772 6 7C6 7.55228 6.44772 8 7 8C7.55228 8 8 7.55228 8 7C8 6.44772 7.55228 6 7 6Z"/></svg>