<svg width="24" height="24" viewBox="0 0 24 24" xmlns="http://www.w3.org/2000/svg" fill="#cacaca"><path d="M2 11.6094C2.97656 11.9219 3.99219 12.0781 5.04688 12C6.6875 11.8828 8.28906 11.1797 9.53906 10.0469C10.7891 8.91406 11.6094 7.42969 11.8828 5.75C12.0781 4.5 11.9609 3.21094 11.5703 2.03906C11.6875 2.03906 11.8438 2 12 2C17.5078 2 22 6.49219 22 12C22 12.1562 22 12.3125 21.9609 12.4297C21.1406 12.1562 20.2422 12 19.3438 12C18.2891 12.0391 17.2344 12.2734 16.2578 12.7422C15.2812 13.2109 14.4219 13.875 13.7188 14.6953C13.0547 15.5156 12.5469 16.4922 12.2344 17.5469C11.9609 18.5625 11.9219 19.6562 12.0781 20.7109C12.1562 21.1406 12.2734 21.6094 12.3906 22C12.2734 22 12.1172 22 12 22C6.45312 22 2 17.5469 2 12C2 11.8828 2 11.7266 2 11.6094ZM10.0469 2.19531C10.4766 3.25 10.6328 4.38281 10.4375 5.51562C10.2031 6.84375 9.53906 8.05469 8.5625 8.99219C7.54688 9.89062 6.25781 10.4375 4.92969 10.5547C3.99219 10.5938 3.01562 10.4375 2.15625 10.0859C2.9375 6.10156 6.0625 2.97656 10.0469 2.19531ZM19.3828 13.4844C20.2031 13.4844 21.0234 13.6406 21.8047 13.9531C21.0234 17.9375 17.8984 21.0625 13.9141 21.8438C13.7188 21.4141 13.6016 20.9453 13.5234 20.4766C13.3672 19.6172 13.4453 18.7578 13.6406 17.9375C13.875 17.0781 14.3047 16.2969 14.8516 15.6328C15.3984 14.9688 16.1016 14.4609 16.8828 14.0703C17.6641 13.6797 18.5234 13.4844 19.3828 13.4844Z"/></svg>