<svg width="24" height="24" viewBox="0 0 24 24" xmlns="http://www.w3.org/2000/svg" fill="#cacaca"><path d="M7 7V8C7 8.29167 6.90625 8.53125 6.71875 8.71875C6.53125 8.90625 6.29167 9 6 9C5.70833 9 5.46875 8.90625 5.28125 8.71875C5.09375 8.53125 5 8.29167 5 8V6.5C5.02083 6.08333 5.16667 5.72917 5.4375 5.4375C5.72917 5.16667 6.08333 5.02083 6.5 5H17.5C17.9167 5.02083 18.2708 5.16667 18.5625 5.4375C18.8333 5.72917 18.9792 6.08333 19 6.5V8C19 8.29167 18.9062 8.53125 18.7188 8.71875C18.5312 8.90625 18.2917 9 18 9C17.7083 9 17.4688 8.90625 17.2812 8.71875C17.0938 8.53125 17 8.29167 17 8V7H13V17H14.5C14.7917 17 15.0312 17.0938 15.2188 17.2812C15.4062 17.4688 15.5 17.7083 15.5 18C15.5 18.2917 15.4062 18.5312 15.2188 18.7188C15.0312 18.9062 14.7917 19 14.5 19H9.5C9.20833 19 8.96875 18.9062 8.78125 18.7188C8.59375 18.5312 8.5 18.2917 8.5 18C8.5 17.7083 8.59375 17.4688 8.78125 17.2812C8.96875 17.0938 9.20833 17 9.5 17H11V7H7Z"/></svg>