<svg width="24" height="24" viewBox="0 0 24 24" xmlns="http://www.w3.org/2000/svg" fill="#cacaca"><path d="M14.0039 4.16128C14.4727 4.25503 14.8359 4.4894 15.0938 4.8644C15.3516 5.2394 15.4336 5.66128 15.3398 6.13003L15.2695 6.5519C15.082 7.4894 14.7422 8.36831 14.25 9.18862H19.3125C19.7812 9.21206 20.1797 9.37612 20.5078 9.68081C20.8125 10.0089 20.9766 10.4074 21 10.8761C20.9766 11.5558 20.6719 12.0597 20.0859 12.3878C20.4844 12.716 20.6953 13.1496 20.7188 13.6886C20.7188 14.1105 20.5898 14.4738 20.332 14.7785C20.0742 15.0832 19.7461 15.2707 19.3477 15.341C19.5117 15.5988 19.5938 15.8917 19.5938 16.2199C19.5469 17.0167 19.1602 17.5558 18.4336 17.8371C18.457 17.9542 18.4688 18.0714 18.4688 18.1886C18.4453 18.6574 18.2812 19.0558 17.9766 19.3839C17.6484 19.6886 17.25 19.8527 16.7812 19.8761H13.3711C12.668 19.8761 12.0352 19.6886 11.4727 19.3136L10.1367 18.3996C9.15234 17.7199 8.64844 16.7824 8.625 15.5871V11.6847C8.64844 10.6066 9.07031 9.72769 9.89062 9.048L10.1367 8.83706C11.0977 8.06362 11.707 7.07925 11.9648 5.88394L12.0352 5.49722C12.1289 5.02847 12.3633 4.66519 12.7383 4.40737C13.1133 4.14956 13.5352 4.06753 14.0039 4.16128ZM4.125 9.75112H6.375C6.70312 9.75112 6.97266 9.85659 7.18359 10.0675C7.39453 10.2785 7.5 10.548 7.5 10.8761V18.7511C7.5 19.0792 7.39453 19.3488 7.18359 19.5597C6.97266 19.7707 6.70312 19.8761 6.375 19.8761H4.125C3.79688 19.8761 3.52734 19.7707 3.31641 19.5597C3.10547 19.3488 3 19.0792 3 18.7511V10.8761C3 10.548 3.10547 10.2785 3.31641 10.0675C3.52734 9.85659 3.79688 9.75112 4.125 9.75112Z"/></svg>