<svg width="24" height="24" viewBox="0 0 24 24" xmlns="http://www.w3.org/2000/svg" fill="#cacaca"><path d="M2 8C2.02083 7.4375 2.21875 6.96875 2.59375 6.59375C2.96875 6.21875 3.4375 6.02083 4 6H20C20.5625 6.02083 21.0312 6.21875 21.4062 6.59375C21.7812 6.96875 21.9792 7.4375 22 8V9.5C21.9583 9.79167 21.7917 9.97917 21.5 10.0625C21.0625 10.1875 20.7083 10.4167 20.4375 10.75C20.1458 11.1042 20 11.5208 20 12C20 12.4792 20.1458 12.8958 20.4375 13.25C20.7083 13.5833 21.0625 13.8125 21.5 13.9375C21.8125 14.0208 21.9792 14.2083 22 14.5V16C21.9792 16.5625 21.7812 17.0312 21.4062 17.4062C21.0312 17.7812 20.5625 17.9792 20 18H4C3.4375 17.9792 2.96875 17.7812 2.59375 17.4062C2.21875 17.0312 2.02083 16.5625 2 16V8ZM15.5 8.5C15.8125 8.47917 15.9792 8.3125 16 8C15.9792 7.6875 15.8125 7.52083 15.5 7.5C15.1875 7.52083 15.0208 7.6875 15 8C15.0208 8.3125 15.1875 8.47917 15.5 8.5ZM15.5 10.5C15.8125 10.4792 15.9792 10.3125 16 10C15.9792 9.6875 15.8125 9.52083 15.5 9.5C15.1875 9.52083 15.0208 9.6875 15 10C15.0208 10.3125 15.1875 10.4792 15.5 10.5ZM16 12C15.9792 11.6875 15.8125 11.5208 15.5 11.5C15.1875 11.5208 15.0208 11.6875 15 12C15.0208 12.3125 15.1875 12.4792 15.5 12.5C15.8125 12.4792 15.9792 12.3125 16 12ZM15.5 14.5C15.8125 14.4792 15.9792 14.3125 16 14C15.9792 13.6875 15.8125 13.5208 15.5 13.5C15.1875 13.5208 15.0208 13.6875 15 14C15.0208 14.3125 15.1875 14.4792 15.5 14.5ZM16 16C15.9792 15.6875 15.8125 15.5208 15.5 15.5C15.1875 15.5208 15.0208 15.6875 15 16C15.0208 16.3125 15.1875 16.4792 15.5 16.5C15.8125 16.4792 15.9792 16.3125 16 16Z"/></svg>