<svg width="24" height="24" viewBox="0 0 24 24" xmlns="http://www.w3.org/2000/svg" fill="#cacaca"><path d="M5 6H19C19.5625 6.02083 20.0312 6.21875 20.4062 6.59375C20.7812 6.96875 20.9792 7.4375 21 8V10C20.9583 10.2917 20.7917 10.4896 20.5 10.5938C19.875 10.8229 19.5417 11.2917 19.5 12C19.5417 12.7083 19.875 13.1771 20.5 13.4062C20.7917 13.5104 20.9583 13.7083 21 14V16C20.9792 16.5625 20.7812 17.0312 20.4062 17.4062C20.0312 17.7812 19.5625 17.9792 19 18H5C4.4375 17.9792 3.96875 17.7812 3.59375 17.4062C3.21875 17.0312 3.02083 16.5625 3 16V14C3.04167 13.7083 3.20833 13.5104 3.5 13.4062C4.125 13.1771 4.45833 12.7083 4.5 12C4.45833 11.2917 4.125 10.8229 3.5 10.5938C3.20833 10.4896 3.04167 10.2917 3 10V8C3.02083 7.4375 3.21875 6.96875 3.59375 6.59375C3.96875 6.21875 4.4375 6.02083 5 6ZM7 9.5C7.02083 9.1875 7.1875 9.02083 7.5 9H16.5C16.8125 9.02083 16.9792 9.1875 17 9.5V14.5C16.9792 14.8125 16.8125 14.9792 16.5 15H7.5C7.1875 14.9792 7.02083 14.8125 7 14.5V9.5ZM6 9V15C6 15.2917 6.09375 15.5312 6.28125 15.7188C6.46875 15.9062 6.70833 16 7 16H17C17.2917 16 17.5312 15.9062 17.7188 15.7188C17.9062 15.5312 18 15.2917 18 15V9C18 8.70833 17.9062 8.46875 17.7188 8.28125C17.5312 8.09375 17.2917 8 17 8H7C6.70833 8 6.46875 8.09375 6.28125 8.28125C6.09375 8.46875 6 8.70833 6 9Z"/></svg>