<svg width="24" height="24" viewBox="0 0 24 24" xmlns="http://www.w3.org/2000/svg" fill="#cacaca"><path d="M4 6H20C20.5625 6.02083 21.0312 6.21875 21.4062 6.59375C21.7812 6.96875 21.9792 7.4375 22 8V9.5C21.9792 9.79167 21.8125 9.97917 21.5 10.0625C21.0625 10.1875 20.7083 10.4167 20.4375 10.75C20.1458 11.1042 20 11.5208 20 12C20 12.4792 20.1458 12.8958 20.4375 13.25C20.7083 13.5833 21.0625 13.8125 21.5 13.9375C21.7917 14.0208 21.9583 14.2083 22 14.5V16C21.9792 16.5625 21.7812 17.0312 21.4062 17.4062C21.0312 17.7812 20.5625 17.9792 20 18H4C3.4375 17.9792 2.96875 17.7812 2.59375 17.4062C2.21875 17.0312 2.02083 16.5625 2 16V8C2.02083 7.4375 2.21875 6.96875 2.59375 6.59375C2.96875 6.21875 3.4375 6.02083 4 6ZM15 8C15.0208 8.3125 15.1875 8.47917 15.5 8.5C15.8125 8.47917 15.9792 8.3125 16 8C15.9792 7.6875 15.8125 7.52083 15.5 7.5C15.1875 7.52083 15.0208 7.6875 15 8ZM15 10C15.0208 10.3125 15.1875 10.4792 15.5 10.5C15.8125 10.4792 15.9792 10.3125 16 10C15.9792 9.6875 15.8125 9.52083 15.5 9.5C15.1875 9.52083 15.0208 9.6875 15 10ZM15.5 11.5C15.1875 11.5208 15.0208 11.6875 15 12C15.0208 12.3125 15.1875 12.4792 15.5 12.5C15.8125 12.4792 15.9792 12.3125 16 12C15.9792 11.6875 15.8125 11.5208 15.5 11.5ZM15 14C15.0208 14.3125 15.1875 14.4792 15.5 14.5C15.8125 14.4792 15.9792 14.3125 16 14C15.9792 13.6875 15.8125 13.5208 15.5 13.5C15.1875 13.5208 15.0208 13.6875 15 14ZM15.5 15.5C15.1875 15.5208 15.0208 15.6875 15 16C15.0208 16.3125 15.1875 16.4792 15.5 16.5C15.8125 16.4792 15.9792 16.3125 16 16C15.9792 15.6875 15.8125 15.5208 15.5 15.5ZM7.5 11H5.75L5.15625 10.1875C5.05208 10.0625 4.91667 10 4.75 10H4.3125C4.14583 10.0208 4.07292 10.125 4.09375 10.3125L4.46875 11.875C4.48958 11.9583 4.48958 12.0417 4.46875 12.125L4.0625 13.6875C4.04167 13.875 4.125 13.9792 4.3125 14H4.75C4.91667 14 5.05208 13.9375 5.15625 13.8125L5.75 13H7.5L6.59375 15.6875C6.57292 15.875 6.65625 15.9792 6.84375 16H7.8125C8.10417 16 8.32292 15.875 8.46875 15.625L10 13H11.4688C11.9896 13 12.4375 12.8125 12.8125 12.4375C13.0625 12.1458 13.0625 11.8542 12.8125 11.5625C12.4375 11.1875 11.9896 11 11.4688 11H10L8.46875 8.375C8.32292 8.125 8.10417 8 7.8125 8H6.84375C6.65625 8.02083 6.58333 8.13542 6.625 8.34375L7.5 11Z"/></svg>