<svg width="24" height="24" viewBox="0 0 24 24" xmlns="http://www.w3.org/2000/svg" fill="#cacaca"><path d="M3 9C3.02083 7.875 3.40625 6.92708 4.15625 6.15625C4.92708 5.40625 5.875 5.02083 7 5V12H3V9ZM3 17.5V13H7V19H4.5C4.08333 18.9792 3.72917 18.8333 3.4375 18.5625C3.16667 18.2708 3.02083 17.9167 3 17.5ZM16 13V19H8V13H10V14C10 14.2917 10.0938 14.5312 10.2812 14.7188C10.4688 14.9062 10.7083 15 11 15H13C13.2917 15 13.5312 14.9062 13.7188 14.7188C13.9062 14.5312 14 14.2917 14 14V13H16ZM19.5 19H17V13H21V17.5C20.9792 17.9167 20.8333 18.2708 20.5625 18.5625C20.2708 18.8333 19.9167 18.9792 19.5 19ZM21 9V12H17V5C18.125 5.02083 19.0729 5.40625 19.8438 6.15625C20.5938 6.92708 20.9792 7.875 21 9ZM16 12H14V11C14 10.7083 13.9062 10.4688 13.7188 10.2812C13.5312 10.0938 13.2917 10 13 10H11C10.7083 10 10.4688 10.0938 10.2812 10.2812C10.0938 10.4688 10 10.7083 10 11V12H8V5H16V12ZM12.5 11.5V13.5C12.4792 13.8125 12.3125 13.9792 12 14C11.6875 13.9792 11.5208 13.8125 11.5 13.5V11.5C11.5208 11.1875 11.6875 11.0208 12 11C12.3125 11.0208 12.4792 11.1875 12.5 11.5Z"/></svg>