<svg width="24" height="24" viewBox="0 0 24 24" xmlns="http://www.w3.org/2000/svg" fill="#cacaca"><path d="M4 6V15H20V6H4ZM2 6C2.02083 5.4375 2.21875 4.96875 2.59375 4.59375C2.96875 4.21875 3.4375 4.02083 4 4H20C20.5625 4.02083 21.0312 4.21875 21.4062 4.59375C21.7812 4.96875 21.9792 5.4375 22 6V15C21.9792 15.5625 21.7812 16.0312 21.4062 16.4062C21.0312 16.7812 20.5625 16.9792 20 17H4C3.4375 16.9792 2.96875 16.7812 2.59375 16.4062C2.21875 16.0312 2.02083 15.5625 2 15V6ZM6 18H18C18.2917 18 18.5312 18.0938 18.7188 18.2812C18.9062 18.4688 19 18.7083 19 19C19 19.2917 18.9062 19.5312 18.7188 19.7188C18.5312 19.9062 18.2917 20 18 20H6C5.70833 20 5.46875 19.9062 5.28125 19.7188C5.09375 19.5312 5 19.2917 5 19C5 18.7083 5.09375 18.4688 5.28125 18.2812C5.46875 18.0938 5.70833 18 6 18Z"/><path d="M5 7H19V14H5V7Z"/></svg>