<svg width="24" height="24" viewBox="0 0 24 24" xmlns="http://www.w3.org/2000/svg" fill="#cacaca"><mask id="path-1-inside-1_14206_7889" fill="white"><path d="M19 9.59962C18.9998 9.26856 18.7315 9.00022 18.4004 9.00001H5.59961C5.26855 9.00022 5.00021 9.26856 5 9.59962V18.4004C5.00021 18.7315 5.26855 18.9998 5.59961 19H18.4004C18.7315 18.9998 18.9998 18.7315 19 18.4004V9.59962ZM21 18.4004C20.9998 19.836 19.836 20.9998 18.4004 21H5.59961C4.16398 20.9998 3.00021 19.836 3 18.4004V9.59962C3.00021 8.16399 4.16398 7.00022 5.59961 7.00001H9.58594L7.29297 4.70704L7.22461 4.63087C6.90426 4.2381 6.92685 3.65909 7.29297 3.29298C7.65908 2.92686 8.23809 2.90427 8.63086 3.22462L8.70703 3.29298L12 6.58595L15.293 3.29298L15.3691 3.22462C15.7619 2.90427 16.3409 2.92686 16.707 3.29298C17.0731 3.65909 17.0957 4.2381 16.7754 4.63087L16.707 4.70704L14.4141 7.00001H18.4004C19.836 7.00022 20.9998 8.16399 21 9.59962V18.4004Z"/><path d="M6 10H18V18H6V10Z"/></mask><path d="M19 9.59962C18.9998 9.26856 18.7315 9.00022 18.4004 9.00001H5.59961C5.26855 9.00022 5.00021 9.26856 5 9.59962V18.4004C5.00021 18.7315 5.26855 18.9998 5.59961 19H18.4004C18.7315 18.9998 18.9998 18.7315 19 18.4004V9.59962ZM21 18.4004C20.9998 19.836 19.836 20.9998 18.4004 21H5.59961C4.16398 20.9998 3.00021 19.836 3 18.4004V9.59962C3.00021 8.16399 4.16398 7.00022 5.59961 7.00001H9.58594L7.29297 4.70704L7.22461 4.63087C6.90426 4.2381 6.92685 3.65909 7.29297 3.29298C7.65908 2.92686 8.23809 2.90427 8.63086 3.22462L8.70703 3.29298L12 6.58595L15.293 3.29298L15.3691 3.22462C15.7619 2.90427 16.3409 2.92686 16.707 3.29298C17.0731 3.65909 17.0957 4.2381 16.7754 4.63087L16.707 4.70704L14.4141 7.00001H18.4004C19.836 7.00022 20.9998 8.16399 21 9.59962V18.4004Z"/><path d="M6 10H18V18H6V10Z"/><path d="M19 9.59962H20V9.59898L19 9.59962ZM18.4004 9.00001L18.401 8.00001H18.4004V9.00001ZM5.59961 9.00001V8.00001H5.59897L5.59961 9.00001ZM5 9.59962L4 9.59898V9.59962H5ZM5 18.4004H4L4 18.401L5 18.4004ZM5.59961 19L5.59897 20H5.59961V19ZM18.4004 19V20H18.401L18.4004 19ZM19 18.4004L20 18.401V18.4004H19ZM21 18.4004L22 18.4005V18.4004H21ZM18.4004 21V22H18.4005L18.4004 21ZM5.59961 21L5.59946 22H5.59961V21ZM3 18.4004H2V18.4005L3 18.4004ZM3 9.59962L2 9.59947V9.59962H3ZM5.59961 7.00001V6.00001H5.59946L5.59961 7.00001ZM9.58594 7.00001V8.00001C9.9904 8.00001 10.355 7.75637 10.5098 7.38269C10.6646 7.00902 10.579 6.5789 10.293 6.2929L9.58594 7.00001ZM7.29297 4.70704L6.54873 5.37495C6.56075 5.38835 6.57313 5.40142 6.58586 5.41415L7.29297 4.70704ZM7.22461 4.63087L6.44968 5.26291C6.45962 5.27511 6.46986 5.28707 6.48037 5.29878L7.22461 4.63087ZM8.63086 3.22462L9.29877 2.48038C9.28706 2.46987 9.2751 2.45963 9.2629 2.44969L8.63086 3.22462ZM8.70703 3.29298L9.41414 2.58587C9.40141 2.57314 9.38834 2.56076 9.37494 2.54874L8.70703 3.29298ZM12 6.58595L11.2929 7.29305C11.4804 7.48059 11.7348 7.58595 12 7.58595C12.2652 7.58595 12.5196 7.48059 12.7071 7.29305L12 6.58595ZM15.293 3.29298L14.6251 2.54874C14.6117 2.56076 14.5986 2.57314 14.5859 2.58587L15.293 3.29298ZM15.3691 3.22462L14.7371 2.44969C14.7249 2.45963 14.7129 2.46987 14.7012 2.48038L15.3691 3.22462ZM16.7754 4.63087L17.5196 5.29878C17.5301 5.28707 17.5404 5.27511 17.5503 5.26291L16.7754 4.63087ZM16.707 4.70704L17.4141 5.41415C17.4269 5.40142 17.4392 5.38835 17.4513 5.37495L16.707 4.70704ZM14.4141 7.00001L13.707 6.2929C13.421 6.5789 13.3354 7.00902 13.4902 7.38269C13.645 7.75637 14.0096 8.00001 14.4141 8.00001V7.00001ZM18.4004 7.00001L18.4005 6.00001H18.4004V7.00001ZM21 9.59962H22V9.59947L21 9.59962ZM6 10V9H5V10H6ZM18 10H19V9H18V10ZM18 18V19H19V18H18ZM6 18H5V19H6V18ZM19 9.59962L20 9.59898C19.9994 8.71613 19.2839 8.00057 18.401 8.00001L18.4004 9.00001L18.3998 10C18.179 9.99987 18.0001 9.82098 18 9.60026L19 9.59962ZM18.4004 9.00001V8.00001H5.59961V9.00001V10H18.4004V9.00001ZM5.59961 9.00001L5.59897 8.00001C4.71612 8.00057 4.00056 8.71613 4 9.59898L5 9.59962L6 9.60026C5.99986 9.82098 5.82097 9.99987 5.60025 10L5.59961 9.00001ZM5 9.59962H4V18.4004H5H6V9.59962H5ZM5 18.4004L4 18.401C4.00056 19.2839 4.71612 19.9994 5.59897 20L5.59961 19L5.60025 18C5.82097 18.0002 5.99986 18.179 6 18.3998L5 18.4004ZM5.59961 19V20H18.4004V19V18H5.59961V19ZM18.4004 19L18.401 20C19.2839 19.9994 19.9994 19.2839 20 18.401L19 18.4004L18 18.3998C18.0001 18.179 18.179 18.0001 18.3998 18L18.4004 19ZM19 18.4004H20V9.59962H19H18V18.4004H19ZM21 18.4004L20 18.4003C19.9999 19.2837 19.2837 19.9999 18.4002 20L18.4004 21L18.4005 22C20.3883 21.9997 21.9997 20.3883 22 18.4005L21 18.4004ZM18.4004 21V20H5.59961V21V22H18.4004V21ZM5.59961 21L5.59976 20C4.7163 19.9999 4.00013 19.2837 4 18.4003L3 18.4004L2 18.4005C2.00029 20.3883 3.61166 21.9997 5.59946 22L5.59961 21ZM3 18.4004H4V9.59962H3H2V18.4004H3ZM3 9.59962L4 9.59977C4.00013 8.71631 4.7163 8.00014 5.59976 8.00001L5.59961 7.00001L5.59946 6.00001C3.61166 6.0003 2.00029 7.61167 2 9.59947L3 9.59962ZM5.59961 7.00001V8.00001H9.58594V7.00001V6.00001H5.59961V7.00001ZM9.58594 7.00001L10.293 6.2929L8.00008 3.99993L7.29297 4.70704L6.58586 5.41415L8.87883 7.70712L9.58594 7.00001ZM7.29297 4.70704L8.03721 4.03913L7.96885 3.96296L7.22461 4.63087L6.48037 5.29878L6.54873 5.37495L7.29297 4.70704ZM7.22461 4.63087L7.99954 3.99883C7.99941 3.99867 7.99958 3.99886 7.99984 3.99933C8.00007 3.99976 8.00021 4.00012 8.00028 4.00032C8.00036 4.00059 8.0002 4.00016 8.00024 3.99932C8.00028 3.99856 8.00042 3.99867 8.00002 3.99959C7.99939 4.00104 7.99877 4.00139 8.00008 4.00009L7.29297 3.29298L6.58586 2.58587C5.85284 3.3189 5.80862 4.47693 6.44968 5.26291L7.22461 4.63087ZM7.29297 3.29298L8.00008 4.00009C8.00138 3.99878 8.00103 3.9994 7.99958 4.00003C7.99866 4.00043 7.99855 4.00029 7.99931 4.00025C8.00015 4.00021 8.00058 4.00037 8.00031 4.00028C8.00011 4.00022 7.99975 4.00008 7.99932 3.99985C7.99885 3.99959 7.99866 3.99942 7.99882 3.99955L8.63086 3.22462L9.2629 2.44969C8.47692 1.80863 7.31889 1.85285 6.58586 2.58587L7.29297 3.29298ZM8.63086 3.22462L7.96295 3.96886L8.03912 4.03722L8.70703 3.29298L9.37494 2.54874L9.29877 2.48038L8.63086 3.22462ZM8.70703 3.29298L7.99992 4.00009L11.2929 7.29305L12 6.58595L12.7071 5.87884L9.41414 2.58587L8.70703 3.29298ZM12 6.58595L12.7071 7.29305L16.0001 4.00009L15.293 3.29298L14.5859 2.58587L11.2929 5.87884L12 6.58595ZM15.293 3.29298L15.9609 4.03722L16.0371 3.96886L15.3691 3.22462L14.7012 2.48038L14.6251 2.54874L15.293 3.29298ZM15.3691 3.22462L16.0012 3.99955C16.0013 3.99942 16.0011 3.99959 16.0007 3.99985C16.0003 4.00008 15.9999 4.00022 15.9997 4.00028C15.9994 4.00037 15.9999 4.00021 16.0007 4.00025C16.0014 4.00029 16.0013 4.00043 16.0004 4.00003C15.999 3.9994 15.9986 3.99878 15.9999 4.00009L16.707 3.29298L17.4141 2.58587C16.6811 1.85285 15.5231 1.80863 14.7371 2.44969L15.3691 3.22462ZM16.707 3.29298L15.9999 4.00009C16.0012 4.00139 16.0006 4.00104 16 3.99959C15.9996 3.99867 15.9997 3.99856 15.9998 3.99932C15.9998 4.00016 15.9996 4.00059 15.9997 4.00032C15.9998 4.00012 15.9999 3.99976 16.0002 3.99933C16.0004 3.99886 16.0006 3.99867 16.0005 3.99883L16.7754 4.63087L17.5503 5.26291C18.1914 4.47693 18.1472 3.3189 17.4141 2.58587L16.707 3.29298ZM16.7754 4.63087L16.0311 3.96296L15.9628 4.03913L16.707 4.70704L17.4513 5.37495L17.5196 5.29878L16.7754 4.63087ZM16.707 4.70704L15.9999 3.99993L13.707 6.2929L14.4141 7.00001L15.1212 7.70712L17.4141 5.41415L16.707 4.70704ZM14.4141 7.00001V8.00001H18.4004V7.00001V6.00001H14.4141V7.00001ZM18.4004 7.00001L18.4002 8.00001C19.2837 8.00014 19.9999 8.7163 20 9.59977L21 9.59962L22 9.59947C21.9997 7.61167 20.3883 6.0003 18.4005 6.00001L18.4004 7.00001ZM21 9.59962H20V18.4004H21H22V9.59962H21ZM6 10V11H18V10V9H6V10ZM18 10H17V18H18H19V10H18ZM18 18V17H6V18V19H18V18ZM6 18H7V10H6H5V18H6Z" fill-opacity="0.2" mask="url(#path-1-inside-1_14206_7889)"/></svg>