<svg width="24" height="24" viewBox="0 0 24 24" xmlns="http://www.w3.org/2000/svg" fill="#cacaca"><path d="M3 12.25C3.02344 10.6094 3.42188 9.10938 4.19531 7.75C4.99219 6.39062 6.09375 5.28906 7.5 4.44531C8.92969 3.64844 10.4297 3.25 12 3.25C13.5703 3.25 15.0703 3.64844 16.5 4.44531C17.9062 5.28906 19.0078 6.39062 19.8047 7.75C20.5781 9.10938 20.9766 10.6094 21 12.25C20.9766 13.8906 20.5781 15.3906 19.8047 16.75C19.0078 18.1094 17.9062 19.2109 16.5 20.0547C15.0703 20.8516 13.5703 21.25 12 21.25C10.4297 21.25 8.92969 20.8516 7.5 20.0547C6.09375 19.2109 4.99219 18.1094 4.19531 16.75C3.42188 15.3906 3.02344 13.8906 3 12.25ZM8.69531 9.22656C8.20312 9.0625 7.82812 9.21484 7.57031 9.68359C7.40625 10.1758 7.55859 10.5391 8.02734 10.7734L8.44922 10.9492C9.03516 11.207 9.65625 11.3945 10.3125 11.5117V13.3047C10.3125 13.4453 10.2891 13.5859 10.2422 13.7266L9.22266 16.75C9.10547 17.2656 9.29297 17.6289 9.78516 17.8398C10.2773 17.957 10.6289 17.7695 10.8398 17.2773L11.6836 14.7109C11.7539 14.5703 11.8594 14.5 12 14.5C12.1641 14.5 12.2695 14.5703 12.3164 14.7109L13.1602 17.2773C13.3711 17.7695 13.7344 17.957 14.25 17.8398C14.7188 17.6289 14.8945 17.2656 14.7773 16.75L13.7578 13.7266C13.7109 13.5859 13.6875 13.4453 13.6875 13.3047V11.5117C14.3438 11.3945 14.9766 11.207 15.5859 10.9492L16.0078 10.7734C16.4531 10.5391 16.5938 10.1758 16.4297 9.68359C16.1953 9.21484 15.832 9.0625 15.3398 9.22656L14.918 9.40234C13.9805 9.80078 13.0078 10 12 10C10.9922 10 10.0195 9.80078 9.08203 9.40234L8.66016 9.22656H8.69531ZM12 8.875C12.5391 8.85156 12.9492 8.61719 13.2305 8.17188C13.4648 7.70312 13.4648 7.23438 13.2305 6.76562C12.9492 6.32031 12.5391 6.08594 12 6.0625C11.4609 6.08594 11.0508 6.32031 10.7695 6.76562C10.5352 7.23438 10.5352 7.70312 10.7695 8.17188C11.0508 8.61719 11.4609 8.85156 12 8.875Z"/></svg>