<svg width="21" height="18" viewBox="0 0 21 18" xmlns="http://www.w3.org/2000/svg" fill="#cacaca"><path d="M15.1875 2.25C13.6055 2.25 12.375 3.51562 12.375 5.0625V6.75H13.5C14.7305 6.75 15.75 7.76953 15.75 9V15.75C15.75 17.0156 14.7305 18 13.5 18H2.25C0.984375 18 0 17.0156 0 15.75V9C0 7.76953 0.984375 6.75 2.25 6.75H10.125V5.0625C10.125 2.28516 12.375 0 15.1875 0C17.9648 0 20.25 2.28516 20.25 5.0625V6.75C20.25 7.38281 19.7227 7.875 19.125 7.875C18.4922 7.875 18 7.38281 18 6.75V5.0625C18 3.51562 16.7344 2.25 15.1875 2.25ZM9 13.5C9.59766 13.5 10.125 13.0078 10.125 12.375C10.125 11.7773 9.59766 11.25 9 11.25H6.75C6.11719 11.25 5.625 11.7773 5.625 12.375C5.625 13.0078 6.11719 13.5 6.75 13.5H9Z"/></svg>