<svg width="24" height="24" viewBox="0 0 24 24" xmlns="http://www.w3.org/2000/svg" fill="#cacaca"><path d="M3 18.2227V14.667C3 14.1147 3.44772 13.667 4 13.667C4.55228 13.667 5 14.1147 5 14.667V18.2227C5.00011 18.4288 5.08178 18.6267 5.22754 18.7725C5.3733 18.9182 5.57122 18.9999 5.77734 19H18.2227C18.4288 18.9999 18.6267 18.9182 18.7725 18.7725C18.9182 18.6267 18.9999 18.4288 19 18.2227V14.667C19 14.1147 19.4477 13.667 20 13.667C20.5523 13.667 21 14.1147 21 14.667V18.2227C20.9999 18.9592 20.7074 19.6657 20.1865 20.1865C19.6657 20.7074 18.9592 20.9999 18.2227 21H5.77734C5.04079 20.9999 4.33431 20.7074 3.81348 20.1865C3.29264 19.6657 3.00011 18.9592 3 18.2227ZM11 14.667V6.41406L8.2627 9.15137C7.87217 9.54189 7.23916 9.54189 6.84863 9.15137C6.45811 8.76084 6.45811 8.12783 6.84863 7.7373L11.293 3.29297L11.3662 3.22656C11.5442 3.08073 11.7679 3 12 3C12.2652 3 12.5195 3.10543 12.707 3.29297L17.1514 7.7373L17.2197 7.81348C17.5402 8.20625 17.5175 8.78521 17.1514 9.15137C16.7852 9.51752 16.2063 9.54018 15.8135 9.21973L15.7373 9.15137L13 6.41406V14.667C12.9998 15.2191 12.5522 15.667 12 15.667C11.4478 15.667 11.0002 15.2191 11 14.667Z"/></svg>