<svg width="24" height="24" viewBox="0 0 24 24" xmlns="http://www.w3.org/2000/svg" fill="#cacaca"><path d="M17.5859 17C17.1432 16.2448 16.5443 15.6458 15.7891 15.2031C15.0339 14.7344 14.1875 14.5 13.25 14.5H10.75C9.8125 14.5 8.96615 14.7344 8.21094 15.2031C7.45573 15.6458 6.85677 16.2448 6.41406 17C7.11719 17.7813 7.9375 18.3932 8.875 18.8359C9.83854 19.2786 10.8802 19.5 12 19.5C13.1198 19.5 14.1615 19.2786 15.125 18.8359C16.0625 18.3932 16.8828 17.7813 17.5859 17ZM2 12C2.02604 10.1771 2.46875 8.51042 3.32813 7C4.21354 5.48958 5.4375 4.26562 7 3.32813C8.58854 2.44271 10.2552 2 12 2C13.7448 2 15.4115 2.44271 17 3.32813C18.5625 4.26562 19.7865 5.48958 20.6719 7C21.5312 8.51042 21.974 10.1771 22 12C21.974 13.8229 21.5312 15.4896 20.6719 17C19.7865 18.5104 18.5625 19.7344 17 20.6719C15.4115 21.5573 13.7448 22 12 22C10.2552 22 8.58854 21.5573 7 20.6719C5.4375 19.7344 4.21354 18.5104 3.32813 17C2.46875 15.4896 2.02604 13.8229 2 12ZM12 12.625C13.0677 12.599 13.875 12.1302 14.4219 11.2188C14.9427 10.2812 14.9427 9.34375 14.4219 8.40625C13.875 7.49479 13.0677 7.02604 12 7C10.9323 7.02604 10.125 7.49479 9.57813 8.40625C9.05729 9.34375 9.05729 10.2812 9.57813 11.2188C10.125 12.1302 10.9323 12.599 12 12.625Z"/></svg>