<svg width="24" height="24" viewBox="0 0 24 24" xmlns="http://www.w3.org/2000/svg" fill="#cacaca"><path d="M9 12C8.27083 12 7.60417 11.8229 7 11.4688C6.39583 11.1146 5.90625 10.625 5.53125 10C5.17708 9.375 5 8.70833 5 8C5 7.29167 5.17708 6.625 5.53125 6C5.90625 5.375 6.39583 4.88542 7 4.53125C7.60417 4.17708 8.27083 4 9 4C9.72917 4 10.3958 4.17708 11 4.53125C11.6042 4.88542 12.0938 5.375 12.4688 6C12.8229 6.625 13 7.29167 13 8C13 8.70833 12.8229 9.375 12.4688 10C12.0938 10.625 11.6042 11.1146 11 11.4688C10.3958 11.8229 9.72917 12 9 12ZM7.5625 13.5H10.4375C11.9792 13.5417 13.2708 14.0625 14.3125 15.0625L13.0312 16.3125C12.7812 16.5833 12.6042 16.8958 12.5 17.25L12.0312 19.125C11.9688 19.4375 11.9896 19.7292 12.0938 20H2.9375C2.66667 20 2.44792 19.9062 2.28125 19.7188C2.09375 19.5521 2 19.3333 2 19.0625C2.04167 17.5 2.58333 16.1875 3.625 15.125C4.6875 14.0833 6 13.5417 7.5625 13.5ZM21.1875 11.375L21.625 11.8125C21.875 12.0625 22 12.3542 22 12.6875C22 13.0208 21.875 13.3229 21.625 13.5938L20.7188 14.5L18.5 12.2812L19.4062 11.375C19.6771 11.125 19.9792 11 20.3125 11C20.625 11 20.9167 11.125 21.1875 11.375ZM13.75 17.0312L17.7812 13L20 15.2188L15.9688 19.25C15.8438 19.375 15.6875 19.4583 15.5 19.5L13.625 19.9688C13.4375 20.0104 13.2812 19.9688 13.1562 19.8438C13.0312 19.7188 12.9896 19.5625 13.0312 19.375L13.5 17.5C13.5417 17.3125 13.625 17.1562 13.75 17.0312Z"/></svg>