<svg width="24" height="24" viewBox="0 0 24 24" xmlns="http://www.w3.org/2000/svg" fill="#cacaca"><path fill-rule="evenodd" clip-rule="evenodd" d="M13 14C15.7614 14 18 16.2386 18 19V20C18 20.5523 17.5523 21 17 21H3C2.44772 21 2 20.5523 2 20V19C2 16.2386 4.23858 14 7 14H13Z"/><path d="M20 20V19C20 17.9602 19.4711 17.0432 18.6641 16.5039L18.499 16.4004L18.4131 16.3447C18.0025 16.0478 17.8756 15.4822 18.1348 15.0342C18.3941 14.5864 18.9472 14.4151 19.4092 14.623L19.501 14.6699L19.7744 14.8398C21.1145 15.7352 22 17.2637 22 19V20C22 20.5523 21.5523 21 21 21C20.4477 21 20 20.5523 20 20Z"/><path d="M17 8.25C17 7.56217 16.5617 6.88019 15.7793 6.49707L15.6182 6.42383L15.5254 6.38086C15.0789 6.14101 14.8785 5.59668 15.0762 5.11816C15.2739 4.63984 15.7997 4.39602 16.2852 4.54102L16.3818 4.57617L16.6553 4.69922C18.0011 5.36001 19 6.66192 19 8.25C19 9.94384 17.8635 11.3118 16.3818 11.9238C15.8715 12.1346 15.2871 11.8921 15.0762 11.3818C14.8654 10.8715 15.1079 10.2871 15.6182 10.0762C16.5013 9.71145 17 8.98371 17 8.25Z"/><path d="M14 8C14 10.2091 12.2091 12 10 12C7.79086 12 6 10.2091 6 8C6 5.79086 7.79086 4 10 4C12.2091 4 14 5.79086 14 8Z"/></svg>