<svg width="24" height="24" viewBox="0 0 24 24" xmlns="http://www.w3.org/2000/svg" fill="#cacaca"><path d="M6.5 4C7.4375 4.02083 8.15625 4.4375 8.65625 5.25C9.11458 6.08333 9.11458 6.91667 8.65625 7.75C8.15625 8.5625 7.4375 8.97917 6.5 9C5.5625 8.97917 4.84375 8.5625 4.34375 7.75C3.88542 6.91667 3.88542 6.08333 4.34375 5.25C4.84375 4.4375 5.5625 4.02083 6.5 4ZM18 4C18.9375 4.02083 19.6562 4.4375 20.1562 5.25C20.6146 6.08333 20.6146 6.91667 20.1562 7.75C19.6562 8.5625 18.9375 8.97917 18 9C17.0625 8.97917 16.3438 8.5625 15.8438 7.75C15.3854 6.91667 15.3854 6.08333 15.8438 5.25C16.3438 4.4375 17.0625 4.02083 18 4ZM2 13.3438C2.02083 12.3854 2.34375 11.5938 2.96875 10.9688C3.59375 10.3438 4.38542 10.0208 5.34375 10H6.65625C7.15625 10 7.625 10.1042 8.0625 10.3125C8.02083 10.5417 8 10.7708 8 11C8.04167 12.2292 8.48958 13.2292 9.34375 14H2.65625C2.26042 13.9583 2.04167 13.7396 2 13.3438ZM14.6562 14C15.5104 13.2292 15.9583 12.2292 16 11C16 10.7708 15.9792 10.5417 15.9375 10.3125C16.375 10.1042 16.8438 10 17.3438 10H18.6562C19.6146 10.0208 20.4062 10.3438 21.0312 10.9688C21.6562 11.5938 21.9792 12.3854 22 13.3438C21.9583 13.7396 21.7396 13.9583 21.3438 14H14.6562ZM9 11C9 10.4583 9.13542 9.95833 9.40625 9.5C9.67708 9.04167 10.0417 8.67708 10.5 8.40625C10.9792 8.13542 11.4792 8 12 8C12.5208 8 13.0208 8.13542 13.5 8.40625C13.9583 8.67708 14.3229 9.04167 14.5938 9.5C14.8646 9.95833 15 10.4583 15 11C15 11.5417 14.8646 12.0417 14.5938 12.5C14.3229 12.9583 13.9583 13.3229 13.5 13.5938C13.0208 13.8646 12.5208 14 12 14C11.4792 14 10.9792 13.8646 10.5 13.5938C10.0417 13.3229 9.67708 12.9583 9.40625 12.5C9.13542 12.0417 9 11.5417 9 11ZM6 19.1562C6.02083 17.9896 6.42708 17.0104 7.21875 16.2188C8.01042 15.4271 8.98958 15.0208 10.1562 15H13.8438C15.0104 15.0208 15.9896 15.4271 16.7812 16.2188C17.5729 17.0104 17.9792 17.9896 18 19.1562C17.9583 19.6771 17.6771 19.9583 17.1562 20H6.84375C6.32292 19.9583 6.04167 19.6771 6 19.1562Z"/></svg>