<svg width="24" height="24" viewBox="0 0 24 24" xmlns="http://www.w3.org/2000/svg" fill="#cacaca"><path d="M11.8436 4.03125C11.9478 4.01042 12.0519 4.01042 12.1561 4.03125L18.4061 5.28125C18.7811 5.36458 18.979 5.60417 18.9998 6C18.979 6.39583 18.7811 6.64583 18.4061 6.75L15.9998 7.21875V9C15.979 10.125 15.5936 11.0729 14.8436 11.8438C14.0728 12.5938 13.1248 12.9792 11.9998 13C10.8748 12.9792 9.92692 12.5938 9.15609 11.8438C8.40609 11.0729 8.02067 10.125 7.99984 9V7.21875L6.49984 6.90625V8.9375L6.99984 11.4062C7.02067 11.5521 6.979 11.6875 6.87484 11.8125C6.7915 11.9375 6.6665 12 6.49984 12H5.49984C5.354 12 5.229 11.9375 5.12484 11.8125C5.02067 11.6875 4.979 11.5521 4.99984 11.4062L5.49984 8.9375V6.71875C5.18734 6.59375 5.02067 6.35417 4.99984 6C5.02067 5.60417 5.21859 5.36458 5.59359 5.28125L11.8436 4.03125ZM8.49984 14.25C8.854 14.1458 9.15609 14.2292 9.40609 14.5L11.6248 16.875C11.8748 17.0833 12.1248 17.0833 12.3748 16.875L14.5936 14.5C14.8436 14.2292 15.1457 14.1458 15.4998 14.25C16.5415 14.5833 17.3748 15.1771 17.9998 16.0312C18.6457 16.8854 18.979 17.8854 18.9998 19.0312C18.9998 19.3021 18.9061 19.5312 18.7186 19.7188C18.5311 19.9062 18.3019 20 18.0311 20H5.96859C5.69775 20 5.46859 19.9062 5.28109 19.7188C5.09359 19.5312 4.99984 19.3021 4.99984 19.0312C5.02067 17.8854 5.354 16.8854 5.99984 16.0312C6.62484 15.1771 7.45817 14.5833 8.49984 14.25Z"/></svg>