<svg width="24" height="24" viewBox="0 0 24 24" xmlns="http://www.w3.org/2000/svg" fill="#cacaca"><path d="M7.5 7.5C7.5 6.67969 7.69922 5.92969 8.09766 5.25C8.49609 4.57031 9.04688 4.01953 9.75 3.59766C10.4531 3.19922 11.2031 3 12 3C12.7969 3 13.5469 3.19922 14.25 3.59766C14.9531 4.01953 15.5039 4.57031 15.9023 5.25C16.3008 5.92969 16.5 6.67969 16.5 7.5C16.5 8.32031 16.3008 9.07031 15.9023 9.75C15.5039 10.4297 14.9531 10.9805 14.25 11.4023C13.5469 11.8008 12.7969 12 12 12C11.2031 12 10.4531 11.8008 9.75 11.4023C9.04688 10.9805 8.49609 10.4297 8.09766 9.75C7.69922 9.07031 7.5 8.32031 7.5 7.5ZM10.8398 14.5312C10.7227 14.3438 10.7109 14.1562 10.8047 13.9688C10.9219 13.8047 11.0859 13.7109 11.2969 13.6875H12.7031C12.9141 13.7109 13.0781 13.8047 13.1953 13.9688C13.2891 14.1562 13.2891 14.3438 13.1953 14.5312L12.5273 15.6211L13.6875 19.9805L14.9531 14.8125C15.0703 14.5078 15.2812 14.3789 15.5859 14.4258C16.8516 14.7539 17.8711 15.4102 18.6445 16.3945C19.4414 17.4023 19.8516 18.5742 19.875 19.9102C19.875 20.2148 19.7695 20.4727 19.5586 20.6836C19.3477 20.8945 19.0898 21 18.7852 21H14.1797C14.1562 21 14.1562 21 14.1797 21H9.85547C9.83203 21 9.82031 21 9.82031 21H5.21484C4.91016 21 4.65234 20.8945 4.44141 20.6836C4.23047 20.4727 4.125 20.2148 4.125 19.9102C4.14844 18.5742 4.55859 17.4023 5.35547 16.3945C6.12891 15.4102 7.14844 14.7539 8.41406 14.4258C8.71875 14.3789 8.92969 14.5078 9.04688 14.8125L10.3125 19.9805L11.4727 15.6211L10.8398 14.5312Z"/></svg>