<svg width="24" height="24" viewBox="0 0 24 24" xmlns="http://www.w3.org/2000/svg" fill="#cacaca"><path d="M6.25446 18.4286H17.7455C17.558 17.3036 17.0625 16.3929 16.2589 15.6964C15.4286 14.9732 14.4375 14.5982 13.2857 14.5714H10.7143C9.5625 14.5982 8.57143 14.9732 7.74107 15.6964C6.9375 16.3929 6.44196 17.3036 6.25446 18.4286ZM3 5.57143C3.02679 4.84821 3.28125 4.24554 3.76339 3.76339C4.24554 3.28125 4.84821 3.02679 5.57143 3H18.4286C19.1518 3.02679 19.7545 3.28125 20.2366 3.76339C20.7188 4.24554 20.9732 4.84821 21 5.57143V18.4286C20.9732 19.1518 20.7188 19.7545 20.2366 20.2366C19.7545 20.7188 19.1518 20.9732 18.4286 21H5.57143C4.84821 20.9732 4.24554 20.7188 3.76339 20.2366C3.28125 19.7545 3.02679 19.1518 3 18.4286V5.57143ZM12 12.6429C13.0982 12.6161 13.9286 12.1339 14.4911 11.1964C15.0268 10.2321 15.0268 9.26786 14.4911 8.30357C13.9286 7.36607 13.0982 6.88393 12 6.85714C10.9018 6.88393 10.0714 7.36607 9.50893 8.30357C8.97321 9.26786 8.97321 10.2321 9.50893 11.1964C10.0714 12.1339 10.9018 12.6161 12 12.6429Z"/></svg>