<svg width="24" height="24" viewBox="0 0 24 24" xmlns="http://www.w3.org/2000/svg" fill="#cacaca"><path d="M8.0625 9.1875C8.0625 9.89062 8.23828 10.5469 8.58984 11.1562C8.94141 11.7656 9.42188 12.2461 10.0312 12.5977C10.6406 12.9492 11.2969 13.125 12 13.125C12.7031 13.125 13.3594 12.9492 13.9688 12.5977C14.5781 12.2461 15.0586 11.7656 15.4102 11.1562C15.7617 10.5469 15.9375 9.89062 15.9375 9.1875C15.9375 8.48438 15.7617 7.82812 15.4102 7.21875C15.0586 6.60938 14.5781 6.12891 13.9688 5.77734C13.3594 5.42578 12.7031 5.25 12 5.25C11.2969 5.25 10.6406 5.42578 10.0312 5.77734C9.42188 6.12891 8.94141 6.60938 8.58984 7.21875C8.23828 7.82812 8.0625 8.48438 8.0625 9.1875ZM13.125 15.2695V16.5H14.25C14.5781 16.5 14.8477 16.6055 15.0586 16.8164C15.2695 17.0273 15.375 17.2969 15.375 17.625C15.375 17.9531 15.2695 18.2227 15.0586 18.4336C14.8477 18.6445 14.5781 18.75 14.25 18.75H13.125V19.875C13.125 20.2031 13.0195 20.4727 12.8086 20.6836C12.5977 20.8945 12.3281 21 12 21C11.6719 21 11.4023 20.8945 11.1914 20.6836C10.9805 20.4727 10.875 20.2031 10.875 19.875V18.75H9.75C9.42188 18.75 9.15234 18.6445 8.94141 18.4336C8.73047 18.2227 8.625 17.9531 8.625 17.625C8.625 17.2969 8.73047 17.0273 8.94141 16.8164C9.15234 16.6055 9.42188 16.5 9.75 16.5H10.875V15.2695C9.39844 14.9883 8.19141 14.2852 7.25391 13.1602C6.31641 12.0586 5.83594 10.7344 5.8125 9.1875C5.85938 7.42969 6.46875 5.97656 7.64062 4.82812C8.78906 3.65625 10.2422 3.04688 12 3C13.7578 3.04688 15.2109 3.65625 16.3594 4.82812C17.5312 5.97656 18.1406 7.42969 18.1875 9.1875C18.1641 10.7344 17.6836 12.0586 16.7461 13.1602C15.8086 14.2852 14.6016 14.9883 13.125 15.2695Z"/></svg>