<svg width="24" height="24" viewBox="0 0 24 24" xmlns="http://www.w3.org/2000/svg" fill="#cacaca"><path d="M12 22C10.1771 21.974 8.51042 21.5312 7 20.6719C5.48958 19.7865 4.26562 18.5625 3.32812 17C2.44271 15.4115 2 13.7448 2 12C2 10.2552 2.44271 8.58854 3.32812 7C4.26562 5.4375 5.48958 4.21354 7 3.32812C8.51042 2.46875 10.1771 2.02604 12 2C13.8229 2.02604 15.4896 2.46875 17 3.32812C18.5104 4.21354 19.7344 5.4375 20.6719 7C21.5573 8.58854 22 10.2552 22 12C22 13.7448 21.5573 15.4115 20.6719 17C19.7344 18.5625 18.5104 19.7865 17 20.6719C15.4896 21.5312 13.8229 21.974 12 22ZM7 9.5V14.5C7 14.8646 7.11719 15.1641 7.35156 15.3984C7.58594 15.6328 7.88542 15.75 8.25 15.75H13.25C13.6146 15.75 13.9141 15.6328 14.1484 15.3984C14.3828 15.1641 14.5 14.8646 14.5 14.5V9.5C14.5 9.13542 14.3828 8.83594 14.1484 8.60156C13.9141 8.36719 13.6146 8.25 13.25 8.25H8.25C7.88542 8.25 7.58594 8.36719 7.35156 8.60156C7.11719 8.83594 7 9.13542 7 9.5ZM17.5078 14.4219C17.5859 14.474 17.6771 14.5 17.7812 14.5C18.0677 14.474 18.224 14.3177 18.25 14.0312V9.96875C18.224 9.68229 18.0677 9.52604 17.7812 9.5C17.6771 9.5 17.5859 9.52604 17.5078 9.57812L15.75 10.75V13.25L17.5078 14.4219Z"/></svg>