<svg width="24" height="24" viewBox="0 0 24 24" xmlns="http://www.w3.org/2000/svg" fill="#cacaca"><path d="M3.22267 4.16062L5.56537 6.00335H12.9996C13.5618 6.02417 14.0303 6.22197 14.4052 6.59677C14.78 6.97156 14.9778 7.44004 14.9987 8.00223V13.4055L15.9982 14.1863V9.47016L16.4355 9.15784L19.4342 7.15895C19.7674 6.95073 20.111 6.94032 20.465 7.12772C20.7982 7.31511 20.9752 7.60662 20.996 8.00223V15.9978C20.9752 16.3934 20.7982 16.6849 20.465 16.8723C20.111 17.0389 19.7674 17.0284 19.4342 16.841L18.9969 16.5287L21.7144 18.6525C22.0476 18.9649 22.0892 19.3188 21.8394 19.7144C21.527 20.0476 21.173 20.0892 20.7773 19.8394L2.28559 5.34746C1.9524 5.03514 1.91075 4.68117 2.16064 4.28555C2.473 3.95241 2.82701 3.91076 3.22267 4.16062ZM14.7175 17.0284C14.3427 17.6323 13.77 17.955 12.9996 17.9967H5.00312C4.44087 17.9758 3.97233 17.778 3.5975 17.4032C3.22267 17.0284 3.02484 16.56 3.00402 15.9978V8.00223C3.00402 7.93977 3.00402 7.8773 3.00402 7.81484L14.7175 17.0284Z"/></svg>