<svg width="24" height="24" viewBox="0 0 24 24" xmlns="http://www.w3.org/2000/svg" fill="#cacaca"><path d="M21.9609 12.4688C20.9453 12.8203 19.8906 13.0156 18.7969 13.0547C19.1875 8.95312 17.5859 5.08594 14.7734 2.42969C18.9531 3.64062 22 7.46875 22 12C22 12.1562 21.9609 12.3125 21.9609 12.4688ZM21.8047 13.8359C21.6094 15.0859 21.1406 16.2578 20.4766 17.2734C16.6875 19.1875 12 18.9531 8.28906 16.3359C9.22656 14.9297 10.4766 13.6797 12 12.7422C15.125 14.4219 18.6406 14.7344 21.8047 13.8359ZM12.5859 11.6484C12.5078 8.09375 10.9844 4.89062 8.64062 2.58594C9.65625 2.23438 10.7891 2 12 2C12.0781 2 12.1953 2 12.2734 2.03906C15.8281 4.38281 17.9766 8.5625 17.5469 13.0547C15.8672 12.9375 14.1875 12.5078 12.5859 11.6484ZM7.39062 3.13281C8.17188 3.875 8.875 4.69531 9.46094 5.59375C5.71094 7.35156 3.17188 10.6328 2.27344 14.3828C2.07812 13.6406 2 12.8203 2 12C2 8.17188 4.1875 4.8125 7.39062 3.13281ZM10.0859 6.6875C10.8672 8.17188 11.2969 9.89062 11.3359 11.6484C8.32812 13.5234 6.29688 16.4141 5.51562 19.6172C4.57812 18.8359 3.75781 17.8594 3.17188 16.7656C3.44531 12.5078 5.98438 8.5625 10.0859 6.6875ZM12 22C10.0078 22 8.17188 21.4531 6.60938 20.4375C6.80469 19.3828 7.19531 18.3672 7.66406 17.4297C11.0625 19.7734 15.2031 20.3203 18.9141 19.2266C17.1172 20.9453 14.6562 22 12 22Z"/></svg>