<svg width="24" height="24" viewBox="0 0 24 24" xmlns="http://www.w3.org/2000/svg" fill="#cacaca"><path d="M3.22267 4.16062L8.1892 8.0647L11.344 5.25376C11.6564 4.98308 12.0104 4.93103 12.4061 5.0976C12.7809 5.285 12.9787 5.58691 12.9996 6.00335V11.8438L14.8425 13.2805C14.8633 13.2389 14.8945 13.1972 14.9362 13.1556C15.2902 12.8641 15.4776 12.4789 15.4984 12C15.4776 11.5211 15.2902 11.1359 14.9362 10.8444C14.6238 10.5112 14.5926 10.1573 14.8425 9.78249C15.1548 9.44934 15.5089 9.41811 15.9045 9.68879C16.5917 10.251 16.9561 11.0214 16.9978 12C16.9769 12.8953 16.6542 13.6345 16.0295 14.2175L17.2164 15.1545C18.0494 14.3008 18.4763 13.2493 18.4971 12C18.4555 10.5425 17.9036 9.37646 16.8416 8.50195C16.5084 8.18963 16.4668 7.84607 16.7166 7.47128C17.0498 7.13813 17.4038 7.09649 17.7787 7.34635C18.4659 7.90853 19.0073 8.58524 19.4029 9.37646C19.7986 10.1885 19.9964 11.063 19.9964 12C19.9548 13.6033 19.4238 14.9567 18.4034 16.0602L21.7144 18.6525C22.0476 18.9649 22.0892 19.3188 21.8394 19.7144C21.527 20.0476 21.173 20.0892 20.7773 19.8394L2.28559 5.34746C1.9524 5.03514 1.91075 4.68117 2.16064 4.28555C2.473 3.95241 2.82701 3.91076 3.22267 4.16062ZM12.9996 15.6542V17.9967C12.9787 18.4131 12.7809 18.715 12.4061 18.9024C12.0104 19.069 11.6564 19.0169 11.344 18.7462L7.12718 14.9983H5.00312C4.44087 14.9775 3.97233 14.7797 3.5975 14.4049C3.22267 14.0301 3.02484 13.5616 3.00402 12.9994V11.0006C3.00402 10.5008 3.1602 10.074 3.47256 9.72002C3.76409 9.36605 4.13893 9.13701 4.59705 9.03291L12.9996 15.6542Z"/></svg>