<svg width="24" height="24" viewBox="0 0 24 24" xmlns="http://www.w3.org/2000/svg" fill="#cacaca"><path d="M5.25 4.125H18.75C19.0781 4.125 19.3477 4.23047 19.5586 4.44141C19.7695 4.65234 19.875 4.92188 19.875 5.25C19.875 5.57812 19.7695 5.84766 19.5586 6.05859C19.3477 6.26953 19.0781 6.375 18.75 6.375H5.8125C5.46094 6.39844 5.27344 6.58594 5.25 6.9375C5.27344 7.28906 5.46094 7.47656 5.8125 7.5H18.75C19.3828 7.52344 19.9102 7.74609 20.332 8.16797C20.7539 8.58984 20.9766 9.11719 21 9.75V17.625C20.9766 18.2578 20.7539 18.7852 20.332 19.207C19.9102 19.6289 19.3828 19.8516 18.75 19.875H5.25C4.61719 19.8516 4.08984 19.6289 3.66797 19.207C3.24609 18.7852 3.02344 18.2578 3 17.625V6.375C3.02344 5.74219 3.24609 5.21484 3.66797 4.79297C4.08984 4.37109 4.61719 4.14844 5.25 4.125ZM17.625 12.5625C17.2969 12.5625 17.0273 12.668 16.8164 12.8789C16.6055 13.0898 16.5 13.3594 16.5 13.6875C16.5 14.0156 16.6055 14.2852 16.8164 14.4961C17.0273 14.707 17.2969 14.8125 17.625 14.8125C17.9531 14.8125 18.2227 14.707 18.4336 14.4961C18.6445 14.2852 18.75 14.0156 18.75 13.6875C18.75 13.3594 18.6445 13.0898 18.4336 12.8789C18.2227 12.668 17.9531 12.5625 17.625 12.5625Z"/></svg>