<svg width="24" height="24" viewBox="0 0 24 24" xmlns="http://www.w3.org/2000/svg" fill="#cacaca"><path d="M10.7757 4.95221L11.239 3.69486C11.2831 3.58457 11.3603 3.52942 11.4706 3.52942C11.5809 3.52942 11.6581 3.58457 11.7022 3.69486L12.1654 4.95221L13.4228 5.41545C13.5331 5.45957 13.5882 5.53677 13.5882 5.64707C13.5882 5.75736 13.5331 5.83457 13.4228 5.87868L12.1654 6.34192L11.7022 7.59927C11.6581 7.70957 11.5809 7.76471 11.4706 7.76471C11.3603 7.76471 11.2831 7.70957 11.239 7.59927L10.7757 6.34192L9.51838 5.87868C9.40809 5.83457 9.35294 5.75736 9.35294 5.64707C9.35294 5.53677 9.40809 5.45957 9.51838 5.41545L10.7757 4.95221ZM4.52206 16.5993L17.1287 3.99265C17.4596 3.68383 17.8346 3.52942 18.2537 3.52942C18.6949 3.52942 19.0699 3.68383 19.3787 3.99265L20.5368 5.15074C20.8456 5.45957 21 5.83457 21 6.27574C21 6.69486 20.8456 7.06986 20.5368 7.40074L7.93015 20.0074C7.59927 20.3162 7.22427 20.4706 6.80515 20.4706C6.36397 20.4706 5.98897 20.3162 5.68015 20.0074L4.52206 18.8493C4.21324 18.5184 4.05882 18.1434 4.05882 17.7243C4.05882 17.3052 4.21324 16.9302 4.52206 16.5993ZM19.0478 6.27574L18.2537 5.48162L14.7794 8.95589L15.5735 9.75001L19.0478 6.27574ZM3.26471 7.40074L5.11765 6.70589L5.8125 4.85295C5.87868 4.67648 6 4.58824 6.17647 4.58824C6.35294 4.58824 6.47426 4.67648 6.54044 4.85295L7.23529 6.70589L9.12132 7.40074C9.27574 7.46692 9.35294 7.58824 9.35294 7.76471C9.35294 7.94118 9.27574 8.06251 9.12132 8.12868L7.23529 8.82354L6.54044 10.7096C6.47426 10.864 6.35294 10.9412 6.17647 10.9412C6 10.9412 5.87868 10.864 5.8125 10.7096L5.11765 8.82354L3.26471 8.12868C3.08824 8.06251 3 7.94118 3 7.76471C3 7.58824 3.08824 7.46692 3.26471 7.40074ZM14.9118 15.8713L16.7647 15.1765L17.4596 13.3235C17.5257 13.1471 17.6471 13.0588 17.8235 13.0588C18 13.0588 18.1213 13.1471 18.1875 13.3235L18.8824 15.1765L20.7684 15.8713C20.9228 15.9375 21 16.0588 21 16.2353C21 16.4118 20.9228 16.5331 20.7684 16.5993L18.8824 17.2941L18.1875 19.1802C18.1213 19.3346 18 19.4118 17.8235 19.4118C17.6471 19.4118 17.5257 19.3346 17.4596 19.1802L16.7647 17.2941L14.9118 16.5993C14.7353 16.5331 14.6471 16.4118 14.6471 16.2353C14.6471 16.0588 14.7353 15.9375 14.9118 15.8713Z"/></svg>