<svg width="24" height="24" viewBox="0 0 24 24" xmlns="http://www.w3.org/2000/svg" fill="#cacaca"><path d="M11.4375 6.18752C11.8125 5.93752 12.198 5.93752 12.5938 6.18752C13.323 6.70835 14.125 6.97918 15 7.00002C15.875 6.95835 16.6771 6.68752 17.4063 6.18752C17.8438 5.91668 18.2605 5.93752 18.6563 6.25002C19.1146 6.62502 19.6355 6.88543 20.2188 7.03127C20.4896 7.09377 20.698 7.2396 20.8438 7.46877C20.9896 7.69793 21.0313 7.94793 20.9688 8.21877C20.9063 8.4896 20.7605 8.69793 20.5313 8.84377C20.3021 8.9896 20.0521 9.03127 19.7813 8.96877C18.9896 8.76043 18.3855 8.50002 17.9688 8.18752C17.0313 8.70835 16.0417 8.97918 15 9.00002C13.9792 8.93752 13.1459 8.7396 12.5 8.40627C12.3125 8.32293 12.1459 8.2396 12 8.15627C11.8542 8.2396 11.6875 8.32293 11.5 8.40627C10.8542 8.7396 10.0209 8.93752 9.00005 9.00002C7.95838 8.97918 6.97922 8.70835 6.06255 8.18752C5.62505 8.50002 5.01047 8.76043 4.2188 8.96877C3.94797 9.03127 3.69797 8.9896 3.4688 8.84377C3.23963 8.69793 3.0938 8.4896 3.0313 8.21877C2.9688 7.94793 3.01047 7.69793 3.1563 7.46877C3.30213 7.2396 3.51047 7.09377 3.7813 7.03127C4.36463 6.88543 4.88547 6.62502 5.3438 6.25002C5.73963 5.93752 6.1563 5.91668 6.5938 6.18752C7.32297 6.68752 8.12505 6.95835 9.00005 7.00002C9.89588 6.97918 10.7084 6.70835 11.4375 6.18752ZM12.5938 15.1875C13.323 15.7084 14.125 15.9792 15 16C15.875 15.9584 16.6771 15.6875 17.4063 15.1875C17.8438 14.9167 18.2605 14.9375 18.6563 15.25C19.1146 15.625 19.6355 15.8854 20.2188 16.0313C20.4896 16.0938 20.698 16.2396 20.8438 16.4688C20.9896 16.6979 21.0313 16.9479 20.9688 17.2188C20.9063 17.4896 20.7605 17.6979 20.5313 17.8438C20.3021 17.9896 20.0521 18.0313 19.7813 17.9688C18.9896 17.7604 18.3855 17.5 17.9688 17.1875C17.0313 17.7084 16.0417 17.9792 15 18C13.9792 17.9375 13.1459 17.7396 12.5 17.4063C12.3125 17.3229 12.1459 17.2396 12 17.1563C11.8542 17.2396 11.6875 17.3229 11.5 17.4063C10.8542 17.7396 10.0209 17.9375 9.00005 18C7.95838 17.9792 6.97922 17.7084 6.06255 17.1875C5.62505 17.5 5.01047 17.7604 4.2188 17.9688C3.94797 18.0313 3.69797 17.9896 3.4688 17.8438C3.23963 17.6979 3.0938 17.4896 3.0313 17.2188C2.9688 16.9479 3.01047 16.6979 3.1563 16.4688C3.30213 16.2396 3.51047 16.0938 3.7813 16.0313C4.36463 15.8854 4.88547 15.625 5.3438 15.25C5.73963 14.9584 6.1563 14.9375 6.5938 15.1875C7.32297 15.6875 8.12505 15.9584 9.00005 16C9.89588 15.9792 10.7084 15.7084 11.4375 15.1875C11.8125 14.9375 12.198 14.9375 12.5938 15.1875ZM12.5938 10.6875C13.323 11.2084 14.125 11.4792 15 11.5C15.875 11.4584 16.6771 11.1875 17.4063 10.6875C17.8438 10.4167 18.2605 10.4375 18.6563 10.75C19.1146 11.125 19.6355 11.3854 20.2188 11.5313C20.4896 11.5938 20.698 11.7396 20.8438 11.9688C20.9896 12.1979 21.0313 12.4479 20.9688 12.7188C20.9063 12.9896 20.7605 13.1979 20.5313 13.3438C20.3021 13.4896 20.0521 13.5313 19.7813 13.4688C18.9896 13.2604 18.3855 13 17.9688 12.6875C17.0313 13.2084 16.0417 13.4792 15 13.5C13.9792 13.4375 13.1459 13.2396 12.5 12.9063C12.3125 12.8229 12.1459 12.7396 12 12.6563C11.8542 12.7396 11.6875 12.8229 11.5 12.9063C10.8542 13.2396 10.0209 13.4375 9.00005 13.5C7.95838 13.4792 6.97922 13.2084 6.06255 12.6875C5.62505 13 5.01047 13.2604 4.2188 13.4688C3.94797 13.5313 3.69797 13.4896 3.4688 13.3438C3.23963 13.1979 3.0938 12.9896 3.0313 12.7188C2.9688 12.4479 3.01047 12.1979 3.1563 11.9688C3.30213 11.7396 3.51047 11.5938 3.7813 11.5313C4.36463 11.3854 4.88547 11.125 5.3438 10.75C5.73963 10.4375 6.1563 10.4167 6.5938 10.6875C7.32297 11.1875 8.12505 11.4584 9.00005 11.5C9.89588 11.4792 10.7084 11.2084 11.4375 10.6875C11.8125 10.4375 12.198 10.4375 12.5938 10.6875Z"/></svg>