<svg width="24" height="24" viewBox="0 0 24 24" xmlns="http://www.w3.org/2000/svg" fill="#cacaca"><path d="M13 5V19C13 19.2917 12.9062 19.5312 12.7188 19.7188C12.5312 19.9062 12.2917 20 12 20C11.7083 20 11.4688 19.9062 11.2812 19.7188C11.0938 19.5312 11 19.2917 11 19V5C11 4.70833 11.0938 4.46875 11.2812 4.28125C11.4688 4.09375 11.7083 4 12 4C12.2917 4 12.5312 4.09375 12.7188 4.28125C12.9062 4.46875 13 4.70833 13 5ZM19 7V17C19 17.2917 18.9062 17.5312 18.7188 17.7188C18.5312 17.9062 18.2917 18 18 18C17.7083 18 17.4688 17.9062 17.2812 17.7188C17.0938 17.5312 17 17.2917 17 17V7C17 6.70833 17.0938 6.46875 17.2812 6.28125C17.4688 6.09375 17.7083 6 18 6C18.2917 6 18.5312 6.09375 18.7188 6.28125C18.9062 6.46875 19 6.70833 19 7ZM10 8V16C10 16.2917 9.90625 16.5312 9.71875 16.7188C9.53125 16.9062 9.29167 17 9 17C8.70833 17 8.46875 16.9062 8.28125 16.7188C8.09375 16.5312 8 16.2917 8 16V8C8 7.70833 8.09375 7.46875 8.28125 7.28125C8.46875 7.09375 8.70833 7 9 7C9.29167 7 9.53125 7.09375 9.71875 7.28125C9.90625 7.46875 10 7.70833 10 8ZM16 9V15C16 15.2917 15.9062 15.5312 15.7188 15.7188C15.5312 15.9062 15.2917 16 15 16C14.7083 16 14.4688 15.9062 14.2812 15.7188C14.0938 15.5312 14 15.2917 14 15V9C14 8.70833 14.0938 8.46875 14.2812 8.28125C14.4688 8.09375 14.7083 8 15 8C15.2917 8 15.5312 8.09375 15.7188 8.28125C15.9062 8.46875 16 8.70833 16 9ZM7 11V13C7 13.2917 6.90625 13.5312 6.71875 13.7188C6.53125 13.9062 6.29167 14 6 14C5.70833 14 5.46875 13.9062 5.28125 13.7188C5.09375 13.5312 5 13.2917 5 13V11C5 10.7083 5.09375 10.4688 5.28125 10.2812C5.46875 10.0938 5.70833 10 6 10C6.29167 10 6.53125 10.0938 6.71875 10.2812C6.90625 10.4688 7 10.7083 7 11ZM2 12C2 11.7083 2.09375 11.4688 2.28125 11.2812C2.46875 11.0938 2.70833 11 3 11C3.29167 11 3.53125 11.0938 3.71875 11.2812C3.90625 11.4688 4 11.7083 4 12C4 12.2917 3.90625 12.5312 3.71875 12.7188C3.53125 12.9062 3.29167 13 3 13C2.70833 13 2.46875 12.9062 2.28125 12.7188C2.09375 12.5312 2 12.2917 2 12ZM20 12C20 11.7083 20.0938 11.4688 20.2812 11.2812C20.4688 11.0938 20.7083 11 21 11C21.2917 11 21.5312 11.0938 21.7188 11.2812C21.9062 11.4688 22 11.7083 22 12C22 12.2917 21.9062 12.5312 21.7188 12.7188C21.5312 12.9062 21.2917 13 21 13C20.7083 13 20.4688 12.9062 20.2812 12.7188C20.0938 12.5312 20 12.2917 20 12Z"/></svg>