<svg width="24" height="24" viewBox="0 0 24 24" xmlns="http://www.w3.org/2000/svg" fill="#cacaca"><path d="M11.9719 4.80005C12.4219 4.8188 12.7219 5.0438 12.8719 5.47505L14.9531 13.0969L15.4594 12.0844C15.7969 11.4469 16.3312 11.1188 17.0625 11.1H20.1C20.3625 11.1 20.5781 11.1844 20.7469 11.3532C20.9156 11.5219 21 11.7375 21 12C21 12.2625 20.9156 12.4782 20.7469 12.6469C20.5781 12.8157 20.3625 12.9 20.1 12.9H17.0625L15.5156 15.9938C15.3094 16.35 15.0094 16.5188 14.6156 16.5C14.2219 16.4438 13.9594 16.2188 13.8281 15.825L12.1125 9.49692L10.1719 18.4969C10.0594 18.9282 9.77812 19.1625 9.32812 19.2C8.87812 19.1813 8.57812 18.9657 8.42812 18.5532L6.825 12.9H3.9C3.6375 12.9 3.42188 12.8157 3.25312 12.6469C3.08437 12.4782 3 12.2625 3 12C3 11.7375 3.08437 11.5219 3.25312 11.3532C3.42188 11.1844 3.6375 11.1 3.9 11.1H6.825C7.2375 11.1 7.59375 11.2219 7.89375 11.4657C8.2125 11.6907 8.42812 12 8.54062 12.3938L9.1875 14.5875L11.1281 5.50317C11.2406 5.07192 11.5219 4.83755 11.9719 4.80005Z"/></svg>