<svg width="24" height="24" viewBox="0 0 24 24" xmlns="http://www.w3.org/2000/svg" fill="#cacaca"><path d="M19.7812 5.28125L17.0312 8.03125C16.6771 8.32292 16.3229 8.32292 15.9688 8.03125C15.6771 7.67708 15.6771 7.32292 15.9688 6.96875L18.7188 4.21875C19.0729 3.92708 19.4271 3.92708 19.7812 4.21875C20.0729 4.57292 20.0729 4.92708 19.7812 5.28125ZM13.5625 4.84375L13.9062 5.21875C14.0521 5.34375 14.1771 5.48958 14.2812 5.65625L15.7188 4.21875C16.0729 3.92708 16.4271 3.92708 16.7812 4.21875C17.0729 4.57292 17.0729 4.92708 16.7812 5.28125L14.9688 7.09375C15.1354 7.78125 15.1146 8.46875 14.9062 9.15625C15.5521 8.96875 16.2083 8.94792 16.875 9.09375L18.7188 7.21875C19.0729 6.92708 19.4271 6.92708 19.7812 7.21875C20.0729 7.57292 20.0729 7.92708 19.7812 8.28125L18.3438 9.71875C18.5104 9.84375 18.6771 9.98958 18.8438 10.1562L19.2188 10.5C19.4062 10.75 19.4062 10.9896 19.2188 11.2188L18.8438 11.5625C18.2396 12.1667 17.5312 12.4688 16.7188 12.4688C15.9271 12.4688 15.2188 12.1667 14.5938 11.5625L14.2188 11.1875L13.2188 12.1875C14.1354 12.2708 14.9479 12.6562 15.6562 13.3438L16.0312 13.6875C16.2188 13.9375 16.2188 14.1771 16.0312 14.4062L15.6562 14.75C15.0521 15.3333 14.3438 15.625 13.5312 15.625C12.7396 15.625 12.0417 15.3333 11.4375 14.75L11.0312 14.375L10.0625 15.375C10.9792 15.4583 11.7917 15.8438 12.5 16.5312L12.8438 16.875C13.0312 17.1042 13.0312 17.3438 12.8438 17.5938L12.5 17.9375C11.875 18.5208 11.1667 18.8125 10.375 18.8125C9.5625 18.8125 8.85417 18.5208 8.25 17.9375L7.875 17.5625L5.71875 19.7188C5.51042 19.9062 5.27083 20 5 20C4.72917 20 4.48958 19.9062 4.28125 19.7188C4.09375 19.5104 4 19.2708 4 19C4 18.7292 4.09375 18.4896 4.28125 18.2812L6.4375 16.1562L6.125 15.8125C5.54167 15.2083 5.25 14.5 5.25 13.6875C5.25 12.8958 5.54167 12.1875 6.125 11.5625L6.46875 11.2188C6.71875 11.0312 6.95833 11.0312 7.1875 11.2188L7.53125 11.5625C8.19792 12.25 8.58333 13.0312 8.6875 13.9062L9.625 12.9688L9.3125 12.625C8.72917 12.0208 8.4375 11.3125 8.4375 10.5C8.4375 9.70833 8.72917 9 9.3125 8.375L9.65625 8.03125C9.88542 7.84375 10.125 7.84375 10.375 8.03125L10.7188 8.375C11.3646 9.0625 11.7396 9.84375 11.8438 10.7188L12.8125 9.78125L12.5 9.4375C11.8958 8.83333 11.5938 8.13542 11.5938 7.34375C11.5938 6.53125 11.8958 5.82292 12.5 5.21875L12.8438 4.84375C13.0729 4.65625 13.3125 4.65625 13.5625 4.84375Z"/></svg>