<svg width="24" height="24" fill="#cacaca" xmlns="http://www.w3.org/2000/svg"><path d="M3.219 4.156L6 6.344C7.833 5.469 9.833 5.02 12 5c1.896.02 3.667.365 5.313 1.031a13.994 13.994 0 014.375 2.875.89.89 0 01.312.688c0 .27-.094.51-.281.719-.209.208-.438.312-.688.312-.27 0-.51-.094-.718-.281a11.887 11.887 0 00-3.75-2.438C15.146 7.302 13.624 7 12 7c-1.48 0-2.875.25-4.187.75l2.968 2.344A7.802 7.802 0 0112 10a8.91 8.91 0 013.25.594c1 .396 1.906.948 2.719 1.656a.89.89 0 01.312.688c.021.27-.062.51-.25.718a1 1 0 01-.687.344c-.25.02-.49-.062-.719-.25a7.058 7.058 0 00-3.219-1.625l8.313 6.531c.333.313.375.667.125 1.063-.313.333-.667.375-1.063.125l-18.5-14.5c-.333-.313-.375-.667-.125-1.063.313-.333.667-.375 1.063-.125zm10.687 12.22c.063.187.094.395.094.624-.02.563-.219 1.031-.594 1.406S12.562 18.98 12 19c-.563-.02-1.031-.219-1.406-.594S10.02 17.563 10 17c.02-.562.219-1.031.594-1.406S11.438 15.02 12 15h.156l1.75 1.375zm-4.781-3.75a6.978 6.978 0 00-1.75 1.124c-.23.188-.469.27-.719.25a1 1 0 01-.687-.344.929.929 0 01-.25-.718c.02-.271.135-.5.344-.688a8.993 8.993 0 011.343-1l1.719 1.375zM4.938 9.312a11.73 11.73 0 00-1.25 1.03 1.043 1.043 0 01-.72.282c-.25 0-.478-.104-.687-.312A1.043 1.043 0 012 9.593c0-.27.104-.5.313-.687a10.02 10.02 0 011-.875l1.625 1.282z"/></svg>