<svg width="24" height="24" viewBox="0 0 24 24" xmlns="http://www.w3.org/2000/svg" fill="#cacaca"><path d="M3.6875 10.3438C3.47917 10.5312 3.23958 10.625 2.96875 10.625C2.71875 10.625 2.48958 10.5208 2.28125 10.3125C2.09375 10.1042 2 9.86458 2 9.59375C2 9.32292 2.10417 9.09375 2.3125 8.90625C3.58333 7.67708 5.04167 6.71875 6.6875 6.03125C8.33333 5.36458 10.1042 5.02083 12 5C13.8958 5.02083 15.6667 5.36458 17.3125 6.03125C18.9583 6.71875 20.4167 7.67708 21.6875 8.90625C21.8958 9.09375 22 9.32292 22 9.59375C22 9.86458 21.9062 10.1042 21.7188 10.3125C21.5104 10.5208 21.2812 10.625 21.0312 10.625C20.7604 10.625 20.5208 10.5312 20.3125 10.3438C19.2292 9.30208 17.9792 8.48958 16.5625 7.90625C15.1458 7.30208 13.625 7 12 7C10.375 7 8.85417 7.30208 7.4375 7.90625C6.02083 8.48958 4.77083 9.30208 3.6875 10.3438ZM12 12C10.1875 12.0417 8.64583 12.625 7.375 13.75C7.14583 13.9375 6.90625 14.0208 6.65625 14C6.38542 13.9792 6.15625 13.8646 5.96875 13.6562C5.78125 13.4479 5.69792 13.2083 5.71875 12.9375C5.73958 12.6667 5.85417 12.4375 6.0625 12.25C6.85417 11.5417 7.75 10.9896 8.75 10.5938C9.77083 10.1979 10.8542 10 12 10C13.1458 10 14.2292 10.1979 15.25 10.5938C16.25 10.9896 17.1562 11.5417 17.9688 12.25C18.1771 12.4375 18.2812 12.6667 18.2812 12.9375C18.3021 13.2083 18.2188 13.4479 18.0312 13.6562C17.8438 13.8646 17.6146 13.9792 17.3438 14C17.0938 14.0208 16.8542 13.9375 16.625 13.75C15.3542 12.625 13.8125 12.0417 12 12ZM14 17C13.9792 17.75 13.6458 18.3229 13 18.7188C12.3333 19.0938 11.6667 19.0938 11 18.7188C10.3542 18.3229 10.0208 17.75 10 17C10.0208 16.25 10.3542 15.6771 11 15.2812C11.6667 14.9062 12.3333 14.9062 13 15.2812C13.6458 15.6771 13.9792 16.25 14 17Z"/></svg>