<svg width="24" height="24" viewBox="0 0 24 24" xmlns="http://www.w3.org/2000/svg" fill="#cacaca"><path d="M13.125 4.125C13.125 3.79688 13.2305 3.52734 13.4414 3.31641C13.6523 3.10547 13.9219 3 14.25 3H15.375C16.3359 3.02344 17.1328 3.35156 17.7656 3.98438C18.3984 4.61719 18.7266 5.41406 18.75 6.375C18.7266 7.33594 18.3984 8.13281 17.7656 8.76562C17.1328 9.39844 16.3359 9.72656 15.375 9.75H4.125C3.79688 9.75 3.52734 9.64453 3.31641 9.43359C3.10547 9.22266 3 8.95312 3 8.625C3 8.29688 3.10547 8.02734 3.31641 7.81641C3.52734 7.60547 3.79688 7.5 4.125 7.5H15.375C15.7031 7.5 15.9727 7.39453 16.1836 7.18359C16.3945 6.97266 16.5 6.70312 16.5 6.375C16.5 6.04688 16.3945 5.77734 16.1836 5.56641C15.9727 5.35547 15.7031 5.25 15.375 5.25H14.25C13.9219 5.25 13.6523 5.14453 13.4414 4.93359C13.2305 4.72266 13.125 4.45312 13.125 4.125ZM15.375 16.5C15.375 16.1719 15.4805 15.9023 15.6914 15.6914C15.9023 15.4805 16.1719 15.375 16.5 15.375H17.625C17.9531 15.375 18.2227 15.2695 18.4336 15.0586C18.6445 14.8477 18.75 14.5781 18.75 14.25C18.75 13.9219 18.6445 13.6523 18.4336 13.4414C18.2227 13.2305 17.9531 13.125 17.625 13.125H4.125C3.79688 13.125 3.52734 13.0195 3.31641 12.8086C3.10547 12.5977 3 12.3281 3 12C3 11.6719 3.10547 11.4023 3.31641 11.1914C3.52734 10.9805 3.79688 10.875 4.125 10.875H17.625C18.5859 10.8984 19.3828 11.2266 20.0156 11.8594C20.6484 12.4922 20.9766 13.2891 21 14.25C20.9766 15.2109 20.6484 16.0078 20.0156 16.6406C19.3828 17.2734 18.5859 17.6016 17.625 17.625H16.5C16.1719 17.625 15.9023 17.5195 15.6914 17.3086C15.4805 17.0977 15.375 16.8281 15.375 16.5ZM7.5 21C7.17188 21 6.90234 20.8945 6.69141 20.6836C6.48047 20.4727 6.375 20.2031 6.375 19.875C6.375 19.5469 6.48047 19.2773 6.69141 19.0664C6.90234 18.8555 7.17188 18.75 7.5 18.75H8.625C8.95312 18.75 9.22266 18.6445 9.43359 18.4336C9.64453 18.2227 9.75 17.9531 9.75 17.625C9.75 17.2969 9.64453 17.0273 9.43359 16.8164C9.22266 16.6055 8.95312 16.5 8.625 16.5H4.125C3.79688 16.5 3.52734 16.3945 3.31641 16.1836C3.10547 15.9727 3 15.7031 3 15.375C3 15.0469 3.10547 14.7773 3.31641 14.5664C3.52734 14.3555 3.79688 14.25 4.125 14.25H8.625C9.58594 14.2734 10.3828 14.6016 11.0156 15.2344C11.6484 15.8672 11.9766 16.6641 12 17.625C11.9766 18.5859 11.6484 19.3828 11.0156 20.0156C10.3828 20.6484 9.58594 20.9766 8.625 21H7.5Z"/></svg>