<svg width="24" height="24" viewBox="0 0 24 24" xmlns="http://www.w3.org/2000/svg" fill="#cacaca"><path d="M6.5 7.5C6.52083 6.5 6.86458 5.67708 7.53125 5.03125C8.17708 4.36458 9 4.02083 10 4H10.5C10.8125 4.02083 10.9792 4.1875 11 4.5V5C10.9792 5.95833 10.6562 6.77083 10.0312 7.4375C9.40625 8.08333 8.61458 8.4375 7.65625 8.5C6.90625 9.54167 6.52083 10.7083 6.5 12C6.54167 13.5625 7.08333 14.8542 8.125 15.875C9.14583 16.9167 10.4375 17.4583 12 17.5H12.375C13.75 17.5 15.0521 17.8125 16.2812 18.4375L16.5938 18.5938C16.9688 18.8229 17.0729 19.1562 16.9062 19.5938C16.6771 19.9896 16.3438 20.1042 15.9062 19.9375L15.5938 19.7812C14.5729 19.2604 13.5 19 12.375 19H12H11.625C10.5 19 9.42708 19.2604 8.40625 19.7812L8.09375 19.9375C7.65625 20.0833 7.32292 19.9688 7.09375 19.5938C6.92708 19.1562 7.03125 18.8229 7.40625 18.5938L7.71875 18.4375C7.98958 18.2917 8.25 18.1667 8.5 18.0625C8.33333 17.9792 8.16667 17.875 8 17.75C7.04167 18.1875 6.08333 18.2604 5.125 17.9688C4.16667 17.6562 3.40625 17.0417 2.84375 16.125L2.59375 15.6875C2.46875 15.4167 2.53125 15.1979 2.78125 15.0312C3.21875 14.7812 3.66667 14.6146 4.125 14.5312C3.47917 14.1771 2.96875 13.6979 2.59375 13.0938C2.19792 12.4688 2 11.7708 2 11V10.5C2.02083 10.1875 2.1875 10.0208 2.5 10C3 10 3.46875 10.0833 3.90625 10.25C3.53125 9.625 3.33333 8.95833 3.3125 8.25C3.29167 7.52083 3.46875 6.8125 3.84375 6.125L4.09375 5.6875C4.26042 5.4375 4.48958 5.38542 4.78125 5.53125C5.59375 6.03125 6.16667 6.69792 6.5 7.53125V7.5ZM16.3438 8.5C15.3854 8.4375 14.5938 8.08333 13.9688 7.4375C13.3438 6.77083 13.0208 5.95833 13 5V4.5C13.0208 4.1875 13.1875 4.02083 13.5 4H14C15 4.02083 15.8229 4.36458 16.4688 5.03125C17.1354 5.67708 17.4792 6.5 17.5 7.5V7.53125C17.8333 6.69792 18.4062 6.03125 19.2188 5.53125C19.5104 5.38542 19.7396 5.44792 19.9062 5.71875L20.1562 6.125C20.5312 6.8125 20.7083 7.52083 20.6875 8.25C20.6667 8.97917 20.4688 9.64583 20.0938 10.25C20.5312 10.0833 21 10 21.5 10C21.8125 10.0417 21.9792 10.2083 22 10.5V11C22 11.7708 21.8021 12.4688 21.4062 13.0938C21.0312 13.7188 20.5208 14.1979 19.875 14.5312C20.3542 14.6146 20.8021 14.7812 21.2188 15.0312C21.4688 15.1979 21.5312 15.4271 21.4062 15.7188L21.1562 16.125C20.7812 16.7917 20.2708 17.3021 19.625 17.6562C19 17.9896 18.3229 18.1458 17.5938 18.125C17.4479 17.9583 17.2604 17.8125 17.0312 17.6875L16.7188 17.5312C16.6354 17.4896 16.5521 17.4479 16.4688 17.4062C16.1354 17.2604 15.8021 17.125 15.4688 17C15.2188 16.9167 14.9688 16.8438 14.7188 16.7812C15.5521 16.3021 16.2188 15.6458 16.7188 14.8125C17.2188 13.9792 17.4792 13.0417 17.5 12C17.4792 10.7083 17.0938 9.54167 16.3438 8.5Z"/></svg>