<svg width="24" height="24" viewBox="0 0 24 24" xmlns="http://www.w3.org/2000/svg" fill="#cacaca"><path d="M2.29273 2.29298C2.65885 1.92686 3.23785 1.90427 3.63063 2.22462L3.7068 2.29298L21.7068 20.293L21.7752 20.3692C22.0955 20.7619 22.0729 21.3409 21.7068 21.707C21.3407 22.0732 20.7617 22.0958 20.3689 21.7754L20.2927 21.707L15.3396 16.7539L11.95 20.8223C11.6658 21.1632 11.1902 21.2754 10.783 21.0986C10.3761 20.9217 10.1342 20.4979 10.1892 20.0576L10.867 14.6367H4.63648C4.24847 14.6367 3.89481 14.4119 3.73023 14.0606C3.56571 13.7092 3.61955 13.2942 3.86793 12.9961L7.37379 8.7881L2.29273 3.70704L2.22437 3.63087C1.90402 3.2381 1.92662 2.65909 2.29273 2.29298Z"/><path d="M13.3279 7.82813C13.2597 8.37606 12.7597 8.76534 12.2117 8.69728C11.8273 8.64944 10.4936 7.22807 10.1902 6.9756C9.76578 6.6223 9.70804 5.99187 10.0613 5.56739L12.0496 3.17872L12.1638 3.06153C12.4505 2.81348 12.859 2.74594 13.2156 2.9004C13.5719 3.05479 13.8018 3.39875 13.8171 3.77735L13.8103 3.94142L13.3279 7.82813Z"/><path d="M18.1423 13.3858C17.7883 13.8094 17.1579 13.8656 16.7341 13.5117C15.6757 12.6273 16.7322 12.1609 14.9939 11.3633C14.4418 11.3631 13.9939 10.9154 13.9939 10.3633C13.9941 9.8113 14.4419 9.3635 14.9939 9.36329H19.363C19.7511 9.36329 20.1047 9.58803 20.2693 9.93946C20.4338 10.2911 20.3794 10.7069 20.1306 11.0049L18.1423 13.3858Z"/></svg>