<svg xmlns="http://www.w3.org/2000/svg" width="24" height="24" fill="none" viewBox="0 0 24 24">
  <g clip-path="url(#a)">
    <path fill="#D80027" d="M17.217 1.19A11.952 11.952 0 0 0 12 0c-1.87 0-3.64.428-5.218 1.19L5.74 12l1.043 10.81A11.953 11.953 0 0 0 12 24c1.87 0 3.64-.428 5.217-1.19L18.261 12 17.217 1.19Z"/>
    <path fill="#000" d="M6.782 1.19A12 12 0 0 0 0 12a12 12 0 0 0 6.782 10.81V1.19Z"/>
    <path fill="#496E2D" d="M17.217 1.19v21.62A12 12 0 0 0 24 12c0-4.757-2.769-8.868-6.783-10.81Z"/>
    <path fill="#FFDA44" d="M12 7.827a4.174 4.174 0 1 0 0 8.347 4.174 4.174 0 0 0 0-8.347Zm0 6.782a2.609 2.609 0 1 1 0-5.217 2.609 2.609 0 0 1 0 5.217Z"/>
    <path fill="#FFDA44" d="M12 10.436c-.576 0-1.043.467-1.043 1.044v1.565h2.086V11.48c0-.577-.467-1.044-1.043-1.044Z"/>
  </g>
  <defs>
    <clipPath id="a">
      <path fill="#fff" d="M0 0h24v24H0z"/>
    </clipPath>
  </defs>
</svg>
