<svg xmlns="http://www.w3.org/2000/svg" width="24" height="24" fill="none" viewBox="0 0 24 24"><g clip-path="url(#a)"><path fill="#0052B4" d="M0 12c0 .821.083 1.624.24 2.4l11.76.73 11.76-.73a12.049 12.049 0 0 0 0-4.8L12 8.868l-11.76.73C.083 10.375 0 11.177 0 12Z"/><path fill="#F0F0F0" d="M23.76 14.4H.24C1.352 19.876 6.194 24 12 24c5.805 0 10.648-4.123 11.76-9.6Z"/><path fill="#000" d="M.24 9.6h23.52C22.648 4.121 17.805 0 12 0 6.194 0 1.352 4.122.24 9.6Z"/><path fill="#FFDA44" d="M17.218 9.6H6.783l2.132-1.003-1.136-2.065 2.315.443.294-2.339L12 6.356l1.613-1.72.293 2.339 2.315-.443-1.135 2.065 2.132 1.002Z"/><path fill="#A2001D" d="M0 12c0 6.628 5.373 12 12 12L2.4 4.8A11.947 11.947 0 0 0 0 12Zm12 12c6.627 0 12-5.373 12-12 0-2.702-.893-5.195-2.4-7.2L12 24Z"/></g><defs><clipPath id="a"><path fill="#fff" d="M0 0h24v24H0z"/></clipPath></defs></svg>