<svg xmlns="http://www.w3.org/2000/svg" width="24" height="24" fill="none" viewBox="0 0 24 24"><g clip-path="url(#a)"><path fill="#0052B4" d="M24 12c0 6.627-5.373 12-12 12S0 18.627 0 12C0 12.003 12 .001 12 0c6.627 0 12 5.373 12 12Z"/><path fill="#F0F0F0" d="M11.967 12H12v-.032l-.033.033Z"/><path fill="#F0F0F0" d="M12 6.26V0h-.002C5.372.001 0 5.373 0 12h6.26V8.474L9.787 12h2.181l.033-.032V9.786L8.474 6.261H12Z"/><path fill="#D80027" d="M6.07 1.565a12.057 12.057 0 0 0-4.505 4.506V12h3.13V4.696H12v-3.13H6.07Z"/><path fill="#D80027" d="M12 10.525 7.735 6.26H6.26L12 12v-1.476Z"/><path fill="#F3F3F3" d="M20.294 13.757a2.926 2.926 0 0 0 .576-1.756V6.783a2.605 2.605 0 0 1-3.652-.522 2.605 2.605 0 0 1-3.653.522v5.218c0 .702.23 1.282.576 1.756h6.153Z"/><path fill="#FF9811" d="M19.208 11.032c.167-.405.296-.998.296-1.292 0-.474-.618-.858-.618-.858s-.617.384-.617.858c0 .295.129.887.295 1.292l-.357.805a1.796 1.796 0 0 0 1.358 0l-.357-.805Zm-2.413-2.605c-.434.058-1.011.243-1.267.39-.41.237-.434.964-.434.964s.642.343 1.052.106c.255-.148.704-.556.971-.902l.876-.094a1.8 1.8 0 0 0-.679-1.175l-.519.71Zm-1.05 3.393c.267.347.716.755.971.902.41.237 1.052-.106 1.052-.106s-.024-.726-.434-.963c-.256-.148-.833-.332-1.267-.39l-.519-.712a1.803 1.803 0 0 0-.679 1.176l.876.094Z"/><path fill="#338AF3" d="M14.011 13.566c.975 1.563 3.206 2.086 3.206 2.086s2.231-.523 3.206-2.086H14.01Z"/></g><defs><clipPath id="a"><path fill="#fff" d="M0 0h24v24H0z"/></clipPath></defs></svg>