<svg xmlns="http://www.w3.org/2000/svg" width="24" height="24" fill="none" viewBox="0 0 24 24">
  <g clip-path="url(#a)">
    <path fill="#FFDA44" d="M23.587 15.13A12.01 12.01 0 0 0 24 12c0-1.084-.144-2.133-.413-3.131L10.957.045A11.939 11.939 0 0 0 4.696 2.48L.413 8.869A12.013 12.013 0 0 0 0 11.999c0 1.077.143 2.12.409 3.114l4.287 6.407a11.94 11.94 0 0 0 6.26 2.434l12.63-8.824Z"/>
    <path fill="#0052B4" d="M.413 15.13a12.01 12.01 0 0 0 4.283 6.39v-6.39H.412Zm10.544 8.824c.343.03.691.046 1.043.046 5.544 0 10.21-3.76 11.587-8.87h-12.63v8.824Zm12.63-15.085C22.21 3.759 17.544 0 12 0c-.352 0-.7.015-1.043.045V8.87l12.63-.001ZM4.696 2.479a12.01 12.01 0 0 0-4.283 6.39h4.282V2.48Z"/>
    <path fill="#D80027" d="M23.899 10.434H9.392V.284c-1.11.247-2.16.645-3.13 1.175v8.975H.101a12.102 12.102 0 0 0 0 3.13h6.16v8.976c.97.53 2.02.928 3.13 1.174v-10.15h14.507a12.121 12.121 0 0 0 0-3.13Z"/>
  </g>
  <defs>
    <clipPath id="a">
      <path fill="#fff" d="M0 0h24v24H0z"/>
    </clipPath>
  </defs>
</svg>
