<svg xmlns="http://www.w3.org/2000/svg" width="24" height="24" fill="none" viewBox="0 0 24 24">
  <g clip-path="url(#a)">
    <path fill="#F0F0F0" d="M12 24c6.627 0 12-5.373 12-12S18.627 0 12 0 0 5.373 0 12s5.373 12 12 12Z"/>
    <path fill="#FFDA44" d="M12 0A11.99 11.99 0 0 0 1.877 5.553L18.15 22.305A11.993 11.993 0 0 0 24 12c0-6.627-5.373-12-12-12Z"/>
    <path fill="#0052B4" d="M24 12a11.96 11.96 0 0 0-3.13-8.083v16.165A11.954 11.954 0 0 0 24 12Zm-9.01 10.587h1.257l.388-1.197.39 1.196h.63c.386-.208.76-.435 1.12-.682L2.095 5.224c-.275.401-.525.82-.75 1.254l.147.455H2.75l-1.016.74.39 1.194-1.018-.738-.607.442A12.002 12.002 0 0 0 0 12c0 6.627 5.373 12 12 12 1.401 0 2.746-.241 3.996-.683l-1.005-.73ZM2.678 11.477l.388-1.195-1.018-.739h1.257l.388-1.196.39 1.195h1.256l-1.016.739.389 1.195-1.018-.738-1.016.74Zm2.589 2.61.387-1.197-1.017-.738h1.257l.388-1.196.389 1.195h1.257l-1.017.739.39 1.195-1.018-.738-1.016.74Zm2.588 2.608.388-1.196-1.017-.738 1.257-.001.387-1.196.39 1.196 1.256-.001-1.016.74.389 1.194-1.017-.738-1.017.74Zm3.605 1.869-1.016.74.388-1.196-1.018-.739h1.257l.388-1.196.389 1.195h1.257l-1.016.739.389 1.195-1.018-.738Zm1.572 3.348.388-1.195-1.017-.739h1.257l.387-1.196.39 1.195h1.257l-1.017.739.39 1.195-1.018-.738-1.017.74Z"/>
  </g>
  <defs>
    <clipPath id="a">
      <path fill="#fff" d="M0 0h24v24H0z"/>
    </clipPath>
  </defs>
</svg>
