<svg xmlns="http://www.w3.org/2000/svg" width="24" height="24" fill="none" viewBox="0 0 24 24"><g clip-path="url(#a)"><path fill="#496E2D" d="M24 12a11.98 11.98 0 0 0-.746-4.173L12 7.305.746 7.827A11.975 11.975 0 0 0 0 12c0 1.468.264 2.874.746 4.173L12 16.696l11.254-.521c.482-1.3.746-2.707.746-4.174Z"/><path fill="#D80027" d="M12 24c5.16 0 9.558-3.256 11.254-7.825H.746C2.442 20.744 6.84 24 12 24Z"/><path fill="#F0F0F0" d="M.746 7.825h22.508C21.557 3.255 17.159 0 12 0 6.84 0 2.442 3.256.746 7.825Z"/></g><defs><clipPath id="a"><path fill="#fff" d="M0 0h24v24H0z"/></clipPath></defs></svg>