<svg xmlns="http://www.w3.org/2000/svg" width="24" height="24" fill="none" viewBox="0 0 24 24">
  <g clip-path="url(#a)">
    <path fill="#F0F0F0" d="M12 24c6.627 0 12-5.373 12-12S18.627 0 12 0 0 5.373 0 12s5.373 12 12 12Z"/>
    <path fill="#D80027" d="M19.307 2.48a12.006 12.006 0 0 0-14.613 0L12 9.787l7.307-7.307ZM12 14.214 4.695 21.52a12.006 12.006 0 0 0 14.613 0l-7.306-7.306Z"/>
    <path fill="#6DA544" d="M9.787 12 2.48 4.694a12.006 12.006 0 0 0 0 14.613L9.787 12Zm4.427 0 7.307 7.307a12.006 12.006 0 0 0 0-14.613L14.214 12Z"/>
    <path fill="#F0F0F0" d="M12 17.218a5.217 5.217 0 1 0 0-10.435 5.217 5.217 0 0 0 0 10.435Z"/>
    <path fill="#D80027" d="m12 8.348.452.783h.903l-.452.782.452.783h-.903L12 11.48l-.452-.783h-.904l.452-.783-.452-.782h.904L12 8.348Zm-2.296 3.653.451.783h.904l-.452.782.452.783h-.904l-.451.782-.452-.782h-.904l.452-.783-.452-.782h.904L9.704 12Zm4.593 0 .452.783h.903l-.451.782.451.783h-.903l-.452.782-.452-.782h-.904l.452-.783-.452-.782h.904l.452-.783Z"/>
  </g>
  <defs>
    <clipPath id="a">
      <path fill="#fff" d="M0 0h24v24H0z"/>
    </clipPath>
  </defs>
</svg>
