<svg xmlns="http://www.w3.org/2000/svg" width="24" height="24" fill="none" viewBox="0 0 24 24">
  <g clip-path="url(#a)">
    <path fill="#F0F0F0" d="M12 23.998c6.628 0 12-5.372 12-11.999C23.999 5.373 18.627.002 12 .002 5.374.001.002 5.373.002 12c0 6.627 5.372 11.999 11.998 11.999Z"/>
    <path fill="#000" d="M1.61 6.001A12.006 12.006 0 0 0 .403 8.92l20.065 11.584A12.006 12.006 0 0 0 22.391 18L1.61 6Z"/>
    <path fill="#FFDA44" d="M17.999 1.61C13.198-1.163 7.279-.24 3.532 3.496l20.066 11.585c1.361-5.113-.798-10.701-5.6-13.473ZM6 22.39c4.802 2.772 10.721 1.848 14.468-1.888L.402 8.917C-.96 14.03 1.2 19.618 6.001 22.39Z"/>
    <path fill="#D80027" d="M15.391 10.696a3.39 3.39 0 1 1-6.374-1.613 4.173 4.173 0 1 0 5.966 0c.26.48.408 1.03.408 1.613Z"/>
    <path fill="#D80027" d="M12.783 6.784h-1.565v7.824h1.565V6.784Z"/>
    <path fill="#D80027" d="M14.608 8.348H9.392c0 .36.313.652.673.652h-.021c0 .36.292.652.652.652 0 .36.292.653.652.653h1.304c.36 0 .652-.292.652-.653.36 0 .652-.291.652-.652h-.021c.36 0 .673-.291.673-.652Zm1.044 6.782H8.35v1.565h7.303V15.13Z"/>
    <path fill="#D80027" d="M16.695 15.651h-3.13v1.565h3.13v-1.565Zm-6.26 0h-3.13v1.565h3.13v-1.565Z"/>
  </g>
  <defs>
    <clipPath id="a">
      <path fill="#fff" d="M0 0h24v24H0z"/>
    </clipPath>
  </defs>
</svg>
