<svg xmlns="http://www.w3.org/2000/svg" width="24" height="24" fill="none" viewBox="0 0 24 24"><g clip-path="url(#a)"><path fill="#0052B4" d="M24 12c0-4.118-2.076-7.752-5.237-9.913l-6.764-.522-6.763.522A11.987 11.987 0 0 0 0 12c0 4.119 2.075 7.752 5.236 9.913l6.763.522 6.764-.522A11.987 11.987 0 0 0 23.999 12Z"/><path fill="#A2001D" d="M18.763 2.087A11.94 11.94 0 0 0 12 0C9.492 0 7.162.77 5.236 2.087h13.527ZM5.236 21.913A11.944 11.944 0 0 0 12 24c2.509 0 4.837-.77 6.763-2.087H5.236Z"/><path fill="#F0F0F0" d="M12 17.738A5.74 5.74 0 1 0 12 6.26a5.74 5.74 0 0 0 0 11.478Z"/><path fill="#6DA544" d="M12 16.695a4.696 4.696 0 1 0 0-9.391 4.696 4.696 0 0 0 0 9.391Z"/><path fill="#F0F0F0" d="M12 15.13a3.13 3.13 0 1 0 0-6.261 3.13 3.13 0 0 0 0 6.26Z"/><path fill="#0052B4" d="M12 11.217 10.303 12v1.304l1.695 1.044 1.696-1.044V12L12 11.217Z"/><path fill="#FFDA44" d="M13.695 10.436h-3.391V12h3.391v-1.565Z"/></g><defs><clipPath id="a"><path fill="#fff" d="M0 0h24v24H0z"/></clipPath></defs></svg>