<svg xmlns="http://www.w3.org/2000/svg" width="24" height="24" fill="none" viewBox="0 0 24 24">
  <g clip-path="url(#a)">
    <path fill="#6DA544" d="M12 24c6.627 0 12-5.373 12-12S18.627 0 12 0 0 5.373 0 12s5.373 12 12 12Z"/>
    <path fill="#FFDA44" d="m18.421 17.218.33.688.743-.171-.333.686.598.474-.744.168.002.764-.596-.478-.595.477.002-.763-.745-.168.598-.474-.333-.686.744.171.33-.688Zm-3.063-7.306.33.689.743-.172-.333.687.598.474-.745.168.002.763-.595-.478-.596.478.002-.763-.744-.168.598-.474-.333-.687.744.172.329-.689Zm3.063-4.174.33.689.743-.172-.333.687.598.474-.744.168.002.763-.596-.478-.595.478.002-.763-.744-.168.597-.474-.333-.687.744.172.33-.689Zm2.676 3.132.33.689.743-.172-.333.687.598.474-.744.168.002.763-.596-.478-.595.478.002-.763-.745-.168.598-.474-.333-.687.744.172.33-.689Zm-1.913 3.651.26.797h.837l-.678.493.26.797-.679-.492-.678.492.26-.797-.679-.493h.838l.26-.797Z"/>
    <path fill="#FFDA44" d="M13.305 15.391a3.391 3.391 0 1 1 1.613-6.375 4.174 4.174 0 1 0 0 5.967c-.48.26-1.03.408-1.613.408ZM7.547 4.696a2.086 2.086 0 0 0-3.614 0h3.614Zm.006.011L5.74 6.521 3.925 4.707a2.087 2.087 0 1 0 3.628 0Z"/>
    <path fill="#A2001D" d="M5.217 6v1.76a2.093 2.093 0 0 0 1.044 0V6H5.217Z"/>
  </g>
  <defs>
    <clipPath id="a">
      <path fill="#fff" d="M0 0h24v24H0z"/>
    </clipPath>
  </defs>
</svg>
