<svg xmlns="http://www.w3.org/2000/svg" width="24" height="24" fill="none" viewBox="0 0 24 24">
  <g clip-path="url(#a)">
    <path fill="#F0F0F0" d="M12 24c6.627 0 12-5.373 12-12S18.627 0 12 0 0 5.373 0 12s5.373 12 12 12Z"/>
    <path fill="#0052B4" d="M22.54 6.26A12.027 12.027 0 0 0 15.13.412l-.522 5.848h7.933Zm-21.081 0h7.932L8.87.413a12.027 12.027 0 0 0-7.41 5.849Z"/>
    <path fill="#6DA544" d="M14.608 12.002v5.739h7.933A11.964 11.964 0 0 0 24 12h-9.392ZM9.391 12H0c0 2.079.529 4.035 1.459 5.74h7.932V12Z"/>
    <path fill="#FFDA44" d="M1.459 17.74a12.027 12.027 0 0 0 7.41 5.848l.522-5.115-7.932-.733Zm13.671 5.848a12.026 12.026 0 0 0 7.41-5.847l-7.932.733.522 5.114Z"/>
    <path fill="#FFDA44" d="m14.608 18.474 7.933-.733h-7.933v.733Zm-5.217-.734H1.46l7.932.733v-.733Z"/>
    <path fill="#D80027" d="M12 0a12.01 12.01 0 0 0-3.13.414v23.174A12.01 12.01 0 0 0 12 24a12.01 12.01 0 0 0 3.13-.413V.414A12.014 12.014 0 0 0 12 0Z"/>
    <path fill="#FFDA44" d="m6.454 2.61.324.996h1.048l-.848.615.324.997-.848-.616-.847.616.323-.997-.847-.615H6.13l.323-.997Z"/>
  </g>
  <defs>
    <clipPath id="a">
      <path fill="#fff" d="M0 0h24v24H0z"/>
    </clipPath>
  </defs>
</svg>
