<svg xmlns="http://www.w3.org/2000/svg" width="24" height="24" fill="none" viewBox="0 0 24 24">
  <g clip-path="url(#a)">
    <path fill="#0052B4" d="M24 12c0 6.627-5.373 12-12 12-6.628 0-12-5.373-12-12C0 12.003 12 .001 12 0c6.627 0 12 5.373 12 12Z"/>
    <path fill="#F0F0F0" d="M11.968 12.001H12v-.032l-.032.032ZM12 6.262V0h-.002C5.37 0 0 5.373 0 12h6.26V8.476L9.786 12h2.182l.032-.032V9.787L8.474 6.262h3.525Z"/>
    <path fill="#D80027" d="M6.071 1.565A12.057 12.057 0 0 0 1.565 6.07V12h3.13V4.694H12v-3.13H6.071Z"/>
    <path fill="#D80027" d="M12 10.524 7.736 6.26H6.261L12 12v-1.476Z"/>
    <path fill="#F0F0F0" d="m16.174 12 .222.683h.718l-.581.422.222.684-.581-.422-.582.422.222-.684-.58-.422h.718l.222-.683Zm-2.952 1.223.64.326.508-.508-.112.71.64.326-.71.112-.112.71-.326-.64-.71.112.509-.508-.327-.64ZM12 16.173l.682-.222v-.718l.423.58.683-.221-.422.581.422.581-.683-.222-.422.581v-.718l-.684-.222Zm1.222 2.952.326-.64-.508-.508.71.113.326-.64.112.71.71.111-.64.327.112.71-.508-.509-.64.326Zm2.952 1.223-.223-.683h-.718l.581-.422-.222-.684.582.423.58-.423-.221.684.581.422h-.718l-.223.683Zm2.951-1.223-.64-.326-.508.508.112-.71-.64-.325.71-.113.112-.71.326.64.71-.112-.509.508.327.64Zm1.223-2.952-.684.222v.718l-.422-.58-.683.221.422-.58-.422-.582.683.222.422-.581v.718l.683.222Zm-1.223-2.95-.326.64.508.508-.71-.112-.326.64-.113-.71-.71-.112.64-.326-.111-.71.508.508.64-.326Z"/>
  </g>
  <defs>
    <clipPath id="a">
      <path fill="#fff" d="M0 0h24v24H0z"/>
    </clipPath>
  </defs>
</svg>
