<svg xmlns="http://www.w3.org/2000/svg" width="24" height="24" fill="none" viewBox="0 0 24 24">
  <g clip-path="url(#a)">
    <path fill="#D80027" d="M17.218 1.191A11.952 11.952 0 0 0 12 .001c-1.87 0-3.64.427-5.217 1.19l-1.044 10.81L6.783 22.81A11.952 11.952 0 0 0 12 24c1.87 0 3.64-.427 5.218-1.19L18.26 12 17.218 1.191Z"/>
    <path fill="#FFDA44" d="m12 7.825 1.036 3.189h3.353l-2.712 1.97 1.036 3.19L12 14.202l-2.712 1.97 1.036-3.188-2.712-1.971h3.352L12 7.825Z"/>
    <path fill="#496E2D" d="M6.783 1.191A12 12 0 0 0 0 12.001 12 12 0 0 0 6.783 22.81V1.19Z"/>
    <path fill="#FFDA44" d="M17.218 1.191V22.81A12 12 0 0 0 24 12c0-4.757-2.769-8.868-6.782-10.809Z"/>
  </g>
  <defs>
    <clipPath id="a">
      <path fill="#fff" d="M0 0h24v24H0z"/>
    </clipPath>
  </defs>
</svg>
