<svg xmlns="http://www.w3.org/2000/svg" width="24" height="24" fill="none" viewBox="0 0 24 24"><g clip-path="url(#a)"><path fill="#D80027" d="M12 24c6.627 0 12-5.373 12-12S18.627 0 12 0 0 5.373 0 12s5.373 12 12 12Z"/><path fill="#FFDA44" d="m6.567 7.301 1.036 3.188h3.352l-2.71 1.973 1.036 3.188-2.714-1.969-2.714 1.969 1.04-3.188L2.18 10.49h3.35l1.036-3.188Zm7.659 11.284-.792-.975-1.172.454.68-1.054-.792-.98 1.214.323.684-1.054.066 1.256 1.218.323-1.176.45.07 1.257Zm1.576-2.86.375-1.2-1.027-.726 1.257-.019.37-1.2.408 1.19 1.256-.013-1.008.75.403 1.19-1.026-.726-1.008.754Zm2.123-6.918-.553 1.13.9.876-1.242-.178-.553 1.125-.216-1.238-1.247-.178 1.116-.586-.216-1.242.9.877 1.111-.586ZM14.26 5.385l-.095 1.252 1.168.473-1.224.3-.089 1.256-.66-1.068-1.224.3.81-.961-.665-1.064 1.167.473.811-.96Z"/></g><defs><clipPath id="a"><path fill="#fff" d="M0 0h24v24H0z"/></clipPath></defs></svg>