<svg xmlns="http://www.w3.org/2000/svg" width="24" height="24" fill="none" viewBox="0 0 24 24">
  <g clip-path="url(#a)">
    <path fill="#0052B4" d="M20.486 20.486c-4.687 4.686-12.284 4.686-16.97 0-4.687-4.687-4.687-12.285 0-16.97.368.368 9.591 7.378 9.591 7.378l7.379 9.592Z"/>
    <path fill="#6DA544" d="M3.515 3.515c4.686-4.686 12.285-4.687 16.97 0 4.687 4.686 4.687 12.284 0 16.97"/>
    <path fill="#FFDA44" d="M12 15.131a3.13 3.13 0 1 0 0-6.26 3.13 3.13 0 0 0 0 6.26Z"/>
    <path fill="#F0F0F0" d="m4.468 17.218.33.688.743-.172-.333.687.598.474-.744.168.002.763-.596-.477-.595.477.002-.763-.744-.168.598-.474-.333-.687.743.172.33-.688Zm-2.153-5.741.329.688.743-.171-.333.686.598.475-.744.167.002.764-.595-.478-.596.478.002-.764-.744-.167.598-.475-.333-.687.743.172.33-.688Zm2.153-4.695.33.688.743-.171-.333.686.598.475-.744.167.002.764-.596-.478-.595.478.002-.764-.744-.167.598-.475-.333-.686.743.171.33-.688Zm2.676 3.653.33.688.743-.172-.333.687.598.474-.744.168.002.763-.596-.477-.595.477.002-.763-.745-.168.598-.474-.333-.687.744.172.33-.688Zm-1.913 3.13.26.797h.838l-.679.492.26.798-.679-.493-.678.492.26-.797-.679-.492h.838l.26-.797Z"/>
    <path fill="#6DA544" d="M12 14.087h1.044s.452-.8 0-1.565l1.043-1.043-.522-1.044h-.521s-.261.783-1.305.783c-1.043 0-1.304-.783-1.304-.783h-.522l.522 1.043-.522 1.044.522.522S10.957 12 12 12.522c0 0 .444.652 0 1.565Z"/>
    <path fill="#FFDA44" d="M19.789 6.573a2.088 2.088 0 0 0-1.406-2.381 3.897 3.897 0 0 1 .352 2.337 2.142 2.142 0 0 0-3.003-.655 4 4 0 0 1 1.64.78c.39.31.704.73.945 1.134l-3.186.997c3.13.522 5.74-1.565 5.74-1.565-.29-.578-.739-.675-1.082-.647Z"/>
  </g>
  <defs>
    <clipPath id="a">
      <path fill="#fff" d="M0 0h24v24H0z"/>
    </clipPath>
  </defs>
</svg>
