<svg xmlns="http://www.w3.org/2000/svg" width="24" height="24" fill="none" viewBox="0 0 24 24"><g clip-path="url(#a)"><path fill="#F0F0F0" d="M12 24c6.627 0 12-5.373 12-12S18.627 0 12 0 0 5.373 0 12s5.373 12 12 12Z"/><path fill="#496E2D" d="M14.348 23.77a12.013 12.013 0 0 0 9.422-9.422h-9.422v9.421ZM.23 14.348a12.013 12.013 0 0 0 9.422 9.421v-9.421H.23Zm23.54-4.696A12.013 12.013 0 0 0 14.348.23v9.422h9.422ZM9.652.23A12.013 12.013 0 0 0 .231 9.652h9.421V.23Z"/><path fill="#FFDA44" d="M11.217 14.348H9.652v9.421c.51.102 1.033.17 1.565.205v-9.626Zm.001-4.695V.027c-.532.034-1.055.102-1.566.203v9.422h1.566Z"/><path fill="#000" d="M12.782.027C12.524.01 12.263 0 12 0s-.524.01-.782.027v9.626h1.564V.027Zm-1.565 23.947a12.156 12.156 0 0 0 1.565 0v-9.626h-1.565v9.626Z"/><path fill="#FFDA44" d="M9.652 11.218V9.652H.231c-.102.511-.17 1.034-.205 1.566h9.626Zm4.696 0h9.626a12.016 12.016 0 0 0-.204-1.566h-9.422v1.566Z"/><path fill="#000" d="M14.348 12.783h9.626a12.162 12.162 0 0 0 0-1.565h-9.626v1.565ZM.026 11.218a12.143 12.143 0 0 0 0 1.565h9.626v-1.565H.026Z"/><path fill="#D80027" d="M12 17.739A5.74 5.74 0 1 0 12 6.26a5.74 5.74 0 0 0 0 11.478Z"/><path fill="#496E2D" d="M13.307 12.64c-.427-.853-.982-1.718-.982-1.718s.014-.394.014-.629a.64.64 0 0 0-1.278-.055.505.505 0 0 0-.2.951.728.728 0 0 1 .432-.401.65.65 0 0 0 .102.069l.082.039s-.304.857-.304 1.318c0 1.295.853 1.694.853 1.694v.014l-.426.426h.853v-.853l.427.427c.004-.008.809-.518.427-1.281ZM12 7.304l.194.598h.628l-.508.37.194.598L12 8.5l-.509.37.194-.598-.508-.37h.628L12 7.304Zm-2.76.898.508.37.509-.37-.194.598.508.37h-.628l-.195.597-.194-.598h-.628l.508-.37-.194-.597ZM7.534 10.55h.629l.194-.599.194.598h.629l-.509.37.195.598-.51-.37-.508.37.195-.598-.509-.37Zm0 2.901.509-.37-.195-.597.509.37.508-.37-.194.598.509.37h-.63l-.194.597-.194-.598h-.629Zm1.706 2.348.194-.598-.508-.37h.628l.194-.597.195.598h.628l-.508.37.194.597-.509-.37-.508.37Zm2.76.897-.195-.597h-.628l.508-.37-.194-.598.509.37.508-.37-.194.598.508.37h-.628l-.194.597Zm2.76-.897-.508-.37-.509.37.194-.598-.508-.37h.628l.195-.597.194.598h.629l-.509.37.194.597Zm1.706-2.348h-.629l-.194.598-.194-.597h-.629l.509-.37-.195-.598.51.37.508-.37-.195.598.509.37Zm0-2.901-.509.369.195.598-.509-.37-.508.37.194-.598-.509-.37h.629l.194-.598.194.598h.629ZM14.76 8.202l-.194.598.509.37h-.629l-.194.597-.195-.598h-.628l.508-.37-.194-.597.509.37.508-.37Z"/></g><defs><clipPath id="a"><path fill="#fff" d="M0 0h24v24H0z"/></clipPath></defs></svg>