<svg xmlns="http://www.w3.org/2000/svg" width="24" height="24" fill="none" viewBox="0 0 24 24">
  <g clip-path="url(#a)">
    <path fill="#000" d="M0 12c0 1.467.264 2.873.746 4.173L12 16.695l11.253-.522c.482-1.3.747-2.706.747-4.173 0-1.468-.265-2.874-.747-4.174L12 7.304.746 7.826A11.975 11.975 0 0 0 0 11.999Z"/>
    <path fill="#0052B4" d="M12 0C6.84 0 2.44 3.256.745 7.826h22.507C21.558 3.256 17.16 0 12 0Z"/>
    <path fill="#F0F0F0" d="M23.253 16.173H.746C2.44 20.743 6.84 24 11.999 24c5.16 0 9.559-3.257 11.254-7.827Z"/>
  </g>
  <defs>
    <clipPath id="a">
      <path fill="#fff" d="M0 0h24v24H0z"/>
    </clipPath>
  </defs>
</svg>
