<svg xmlns="http://www.w3.org/2000/svg" width="24" height="24" fill="none" viewBox="0 0 24 24">
  <g clip-path="url(#a)">
    <path fill="#338AF3" d="M10.957 10.957s-7.435 9.53-7.442 9.528A11.963 11.963 0 0 0 12 24c6.628 0 12-5.372 12-12l-13.043-1.043Z"/>
    <path fill="#6DA544" d="M10.957 12S3.522 3.513 3.515 3.514A11.962 11.962 0 0 1 12 0c6.628 0 12 5.373 12 12H10.957Z"/>
    <path fill="#D80027" d="M3.514 3.516c-4.686 4.686-4.686 12.284 0 16.97A88696 88696 0 0 0 24 12.001L3.514 3.516Z"/>
    <path fill="#FFDA44" d="M6.26 7.043a4.179 4.179 0 0 0-4.173 4.174v1.565a4.179 4.179 0 0 0 4.174 4.174 4.179 4.179 0 0 0 4.173-4.174v-1.565a4.179 4.179 0 0 0-4.173-4.174Zm2.61 5.74a2.613 2.613 0 0 1-1.827 2.488v-1.706l1.107-1.107-1.106-1.107v-.916H5.477V12L4.37 13.106l1.107 1.107v1.058a2.613 2.613 0 0 1-1.826-2.489v-1.565A2.612 2.612 0 0 1 6.26 8.61a2.612 2.612 0 0 1 2.608 2.608v1.565Z"/>
  </g>
  <defs>
    <clipPath id="a">
      <path fill="#fff" d="M0 0h24v24H0z"/>
    </clipPath>
  </defs>
</svg>
