<svg xmlns="http://www.w3.org/2000/svg" width="24" height="24" fill="none" viewBox="0 0 24 24"><g clip-path="url(#a)"><path fill="#FFDA44" d="M0 12c0 1.468.264 2.874.746 4.174L12 17.217l11.254-1.043c.482-1.3.746-2.706.746-4.174 0-1.448-.256-2.836-.726-4.12L12 6.782.726 7.879A11.975 11.975 0 0 0 0 12Z"/><path fill="#D80027" d="M12 24c5.16 0 9.558-3.256 11.254-7.826H.746C2.442 20.744 6.84 24 12 24Z"/><path fill="#6DA544" d="M12 0C6.84 0 2.442 3.256.747 7.826h22.507C21.558 3.256 17.16 0 12 0Z"/><path fill="#0052B4" d="M12 17.74a5.74 5.74 0 1 0 0-11.478 5.74 5.74 0 0 0 0 11.478Z"/><path fill="#FFDA44" d="m11.999 7.556 1.036 3.189h3.358l-2.718 1.97 1.044 3.199-2.72-1.98-2.717 1.976 1.04-3.194-2.715-1.971h3.356l1.036-3.189Z"/><path fill="#FFDA44" d="m16.131 12.794-3.287-1.068 2.032-2.796-.845-.613L12 11.113 9.969 8.317l-.844.613 2.03 2.796-3.286 1.068.323.992 3.286-1.067v3.455h1.044v-3.456l3.286 1.068.323-.992Z"/></g><defs><clipPath id="a"><path fill="#fff" d="M0 0h24v24H0z"/></clipPath></defs></svg>