<svg xmlns="http://www.w3.org/2000/svg" width="24" height="24" fill="none" viewBox="0 0 24 24"><g clip-path="url(#a)"><path fill="#338AF3" d="M24 12c0 6.627-5.373 12-12 12S0 18.627 0 12C0 12.003 12 .001 12 0c6.627 0 12 5.373 12 12Z"/><path fill="#0052B4" d="M12 5.74v4.048L7.824 5.74H12Zm-5.74 6.262h3.526L6.261 7.306l-.522 3.652.522 1.044Z"/><path fill="#F0F0F0" d="M11.967 12H12v-.032l-.032.032Z"/><path fill="#F0F0F0" d="M12 6.262V.002h-.003C5.371.001 0 5.372 0 12h6.26V8.476l3.526 3.526h2.181l.032-.033v-2.18L8.474 6.262H12Z"/><path fill="#D80027" d="M6.07 1.566a12.057 12.057 0 0 0-4.505 4.506V12h3.13V4.696H12v-3.13H6.07Z"/><path fill="#D80027" d="M12 10.525 7.736 6.262H6.261L11.999 12v-1.475Z"/><path fill="#F3F3F3" d="M13.566 7.827v4.174c0 2.796 3.652 3.652 3.652 3.652s3.652-.856 3.652-3.652V7.827l-3.652-1.043-3.652 1.043Z"/><path fill="#D80027" d="M20.87 7.827V6.261h-7.305v1.566h3.13v3.13h-3.13V12h3.13v3.491c.316.112.523.161.523.161s.206-.05.521-.16V12l3.13.001v-1.044h-3.13v-3.13h3.13Z"/></g><defs><clipPath id="a"><path fill="#fff" d="M0 0h24v24H0z"/></clipPath></defs></svg>