<svg xmlns="http://www.w3.org/2000/svg" width="24" height="24" fill="none" viewBox="0 0 24 24">
  <g clip-path="url(#a)">
    <path fill="#0052B4" d="M24 12c0 6.627-5.373 12-12 12S0 18.627 0 12C0 12.003 12 .001 12 0c6.627 0 12 5.373 12 12Z"/>
    <path fill="#F0F0F0" d="M11.967 12H12v-.032l-.032.032Z"/>
    <path fill="#F0F0F0" d="M12 6.26V0h-.003C5.371 0 0 5.373 0 12h6.26V8.474L9.787 12h2.181l.032-.032V9.786L8.475 6.261H12Z"/>
    <path fill="#D80027" d="M6.07 1.565a12.057 12.057 0 0 0-4.505 4.506V12h3.13V4.696H12V1.564H6.07Z"/>
    <path fill="#D80027" d="M12 10.524 7.736 6.261H6.261l5.738 5.74v-1.477Z"/>
    <path fill="#FFDA44" d="M19.305 14.086v.522H15.13v-.522h-1.566v2.087h1.044v.522h5.217v-.522h1.044v-2.087h-1.565Z"/>
    <path fill="#338AF3" d="M13.566 6.262V12c0 2.795 3.652 3.652 3.652 3.652S20.87 14.796 20.87 12V6.26h-7.305Z"/>
    <path fill="#F3F3F3" d="M17.218 10.543c-.913 0-.913.835-1.826.835s-.913-.835-1.826-.835v1.46c.913 0 .913.835 1.826.835s.913-.834 1.826-.834.913.835 1.826.835.913-.835 1.826-.835v-1.461c-.913 0-.913.835-1.826.835s-.913-.835-1.826-.835Zm0-2.925c-.913 0-.913.835-1.826.835s-.913-.835-1.826-.835V9.08c.913 0 .913.835 1.826.835s.913-.835 1.826-.835.913.835 1.826.835.913-.835 1.826-.835V7.62c-.913 0-.913.834-1.826.834s-.913-.835-1.826-.835Z"/>
  </g>
  <defs>
    <clipPath id="a">
      <path fill="#fff" d="M0 0h24v24H0z"/>
    </clipPath>
  </defs>
</svg>
