 <svg
    width="24"
    height="24"
    viewBox="0 0 24 24"
    fill="#cacaca"
    xmlns="http://www.w3.org/2000/svg"
  >
    <g clip-path="url(#clip0_5448_6935)">
      <path
        d="M12 24C18.6274 24 24 18.6274 24 12C24 5.37258 18.6274 0 12 0C5.37258 0 0 5.37258 0 12C0 18.6274 5.37258 24 12 24Z"
        fill="#F0F0F0"
      />
      <path
        d="M2.48068 4.69299C1.53807 5.91938 0.827309 7.3329 0.41345 8.86848H6.65617L2.48068 4.69299Z"
        fill="#0052B4"
      />
      <path
        d="M23.587 8.86863C23.1732 7.33309 22.4623 5.91958 21.5198 4.69319L17.3444 8.86863H23.587Z"
        fill="#0052B4"
      />
      <path
        d="M0.41345 15.1302C0.827356 16.6657 1.53812 18.0793 2.48069 19.3056L6.65603 15.1302H0.41345Z"
        fill="#0052B4"
      />
      <path
        d="M19.3055 2.47977C18.0792 1.53716 16.6657 0.826398 15.1301 0.412492V6.65517L19.3055 2.47977Z"
        fill="#0052B4"
      />
      <path
        d="M4.69395 21.5177C5.92034 22.4603 7.33386 23.1711 8.86939 23.585V17.3424L4.69395 21.5177Z"
        fill="#0052B4"
      />
      <path
        d="M8.86934 0.412492C7.33381 0.826398 5.92029 1.53716 4.69395 2.47972L8.86934 6.65511V0.412492Z"
        fill="#0052B4"
      />
      <path
        d="M15.1301 23.585C16.6656 23.1711 18.0791 22.4603 19.3055 21.5177L15.1301 17.3424V23.585Z"
        fill="#0052B4"
      />
      <path
        d="M17.3444 15.1302L21.5198 19.3056C22.4623 18.0793 23.1732 16.6657 23.587 15.1302H17.3444Z"
        fill="#0052B4"
      />
      <path
        d="M23.8984 10.4348H13.5653L13.5653 0.101578C13.0529 0.034875 12.5305 0 12 0C11.4694 0 10.9471 0.034875 10.4348 0.101578V10.4347L0.101578 10.4347C0.034875 10.9471 0 11.4695 0 12C0 12.5306 0.034875 13.0529 0.101578 13.5652H10.4347L10.4347 23.8984C10.9471 23.9651 11.4694 24 12 24C12.5305 24 13.0529 23.9652 13.5652 23.8984V13.5653L23.8984 13.5653C23.9651 13.0529 24 12.5306 24 12C24 11.4695 23.9651 10.9471 23.8984 10.4348Z"
        fill="#D80027"
      />
      <path
        d="M15.1304 15.1313L20.4852 20.4861C20.7315 20.2399 20.9665 19.9825 21.1906 19.7157L16.6062 15.1312L15.1304 15.1313Z"
        fill="#D80027"
      />
      <path
        d="M8.86953 15.1312L3.51467 20.486C3.76086 20.7323 4.01825 20.9672 4.28506 21.1913L8.86953 16.6068V15.1312Z"
        fill="#D80027"
      />
      <path
        d="M8.86937 8.86912L3.51456 3.51417C3.26828 3.76036 3.03334 4.01775 2.80919 4.28456L7.3937 8.86907L8.86937 8.86912Z"
        fill="#D80027"
      />
      <path
        d="M15.1304 8.87019L20.4853 3.51528C20.2391 3.269 19.9817 3.03406 19.7149 2.80995L15.1304 7.39447V8.87019Z"
        fill="#D80027"
      />
    </g>
    <defs>
      <clipPath id="clip0_5448_6935">
        <rect width="24" height="24" fill="white" />
      </clipPath>
    </defs>
  </svg>