<svg xmlns="http://www.w3.org/2000/svg" width="24" height="24" fill="none" viewBox="0 0 24 24">
  <g clip-path="url(#a)">
    <path fill="#FFDA44" d="M12 24c6.627 0 12-5.373 12-12S18.627 0 12 0 0 5.373 0 12s5.373 12 12 12Z"/>
    <path fill="#A2001D" d="M5.236 2.087A11.944 11.944 0 0 1 12 0c2.509 0 4.837.77 6.763 2.087L12 2.609l-6.764-.522Z"/>
    <path fill="#0052B4" d="m12 12-.765-.766-.204.364.97.401Z"/>
    <path fill="#496E2D" d="M3.515 3.515c-4.686 4.686-4.686 12.284 0 16.97L12 12 3.515 3.515Zm16.971.001c4.686 4.686 4.686 12.284 0 16.97L12 12.002l8.486-8.485Z"/>
    <path fill="#A2001D" d="M12 16.174a4.174 4.174 0 1 0 0-8.348 4.174 4.174 0 0 0 0 8.348Z"/>
    <path fill="#FFDA44" d="m12 7.826.935 2.88h3.028l-2.45 1.78.936 2.88-2.45-1.78-2.45 1.78.937-2.88-2.45-1.78h3.028L12 7.826ZM12 0h-.004.008H12Z"/>
    <path fill="#A2001D" d="M12.004 0h-.008a11.96 11.96 0 0 0-8.48 3.514h16.969A11.963 11.963 0 0 0 12.004 0ZM3.515 20.486A11.963 11.963 0 0 0 12 24c3.313 0 6.314-1.343 8.485-3.514H3.515Z"/>
    <path fill="#FFDA44" d="m12 1.304.195.598h.628l-.508.37.194.597L12 2.5l-.508.37.194-.597-.508-.37h.628L12 1.304Zm-2.91 0 .195.598h.629l-.509.37.194.597-.508-.37-.509.37.194-.597-.508-.37h.628l.195-.598Zm5.82 0 .194.598h.629l-.509.37.195.597-.509-.37-.508.37.194-.597-.509-.37h.629l.194-.598ZM12 21.13l.195.598h.628l-.508.37.194.597-.509-.37-.508.37.194-.598-.508-.37h.628L12 21.13Zm-2.91 0 .195.598h.629l-.509.37.194.597-.508-.37-.509.37.194-.598-.508-.37h.628l.195-.597Zm5.82 0 .194.598h.629l-.509.37.195.597-.509-.37-.508.37.194-.598-.509-.37h.629l.194-.597ZM3.657 11.802a1.044 1.044 0 0 1-1.764 1.116c-.558-.881-.234-2.321-.234-2.321s1.44.323 1.998 1.205Z"/>
    <path fill="#A2001D" d="M3.054 13.322a.522.522 0 1 0 0-1.043.522.522 0 0 0 0 1.043Z"/>
  </g>
  <defs>
    <clipPath id="a">
      <path fill="#fff" d="M0 0h24v24H0z"/>
    </clipPath>
  </defs>
</svg>
