<svg xmlns="http://www.w3.org/2000/svg" width="24" height="24" fill="none" viewBox="0 0 24 24"><g clip-path="url(#a)"><path fill="#F0F0F0" d="M12 24c6.627 0 12-5.373 12-12S18.627 0 12 0 0 5.373 0 12s5.373 12 12 12Z"/><path fill="#D80027" d="M23.898 10.435H13.565V.102a12.12 12.12 0 0 0-3.13 0v10.333H.102a12.118 12.118 0 0 0 0 3.13h10.333v10.333a12.121 12.121 0 0 0 3.13 0V13.565h10.333a12.121 12.121 0 0 0 0-3.13Z"/><path fill="#FFDA44" d="m15.392 12.522.782.522v-2.087l-.782.521h-2.87v-2.87l.522-.782h-2.087l.522.783v2.87h-2.87l-.783-.522v2.087l.783-.522h2.87v2.87l-.522.782h2.087l-.522-.782v-2.87h2.87Z"/></g><defs><clipPath id="a"><path fill="#fff" d="M0 0h24v24H0z"/></clipPath></defs></svg>