<svg xmlns="http://www.w3.org/2000/svg" width="24" height="24" fill="none" viewBox="0 0 24 24"><g clip-path="url(#a)"><path fill="#FFDA44" d="M0 12c0 1.467.264 2.873.746 4.173L12 16.695l11.254-.522c.482-1.3.746-2.706.746-4.174 0-1.468-.264-2.874-.746-4.174L12 7.303.746 7.825A11.975 11.975 0 0 0 0 12Z"/><path fill="#D80027" d="M12-.001C6.84-.001 2.442 3.256.746 7.825h22.508C21.558 3.255 17.159 0 12 0Z"/><path fill="#496E2D" d="m23.254 16.173-22.508.001C2.442 20.744 6.84 24 12 24c5.16 0 9.558-3.257 11.254-7.827Z"/><path fill="#000" d="m12 7.826 1.036 3.189h3.353l-2.713 1.97 1.036 3.189L12 14.204l-2.713 1.97 1.036-3.189-2.712-1.97h3.353L12 7.826Z"/></g><defs><clipPath id="a"><path fill="#fff" d="M0 0h24v24H0z"/></clipPath></defs></svg>