<svg xmlns="http://www.w3.org/2000/svg" width="24" height="24" fill="none" viewBox="0 0 24 24">
  <g clip-path="url(#a)">
    <path fill="#D80027" d="M5.236 21.912A11.944 11.944 0 0 0 12 24c2.509 0 4.837-.77 6.763-2.087L12 20.87l-6.764 1.043ZM18.764 2.087A11.944 11.944 0 0 0 12.001 0C9.49 0 7.163.77 5.237 2.087l6.764 1.043 6.763-1.043Z"/>
    <path fill="#0052B4" d="M24 12c0-3.97-2.378-7.958-5.237-9.913H5.236A11.987 11.987 0 0 0 0 12.001c0 4.118 2.075 7.751 5.236 9.912h13.527a11.987 11.987 0 0 0 5.236-9.912Z"/>
    <path fill="#D80027" d="M11.32 19.575c-.163-.14-4.016-3.49-4.016-7.575s3.853-7.434 4.017-7.575L12 3.843l.679.582c.164.14 4.016 3.49 4.016 7.575s-3.852 7.434-4.016 7.575l-.68.582-.678-.582Z"/>
    <path fill="#338AF3" d="M15.652 12C15.652 8.348 12 5.217 12 5.217S8.348 8.347 8.348 12c0 1.117.342 2.185.816 3.13h5.672c.474-.945.816-2.013.816-3.13Z"/>
    <path fill="#0052B4" d="M15.652 12c0 1.117-.342 2.185-.816 3.13L12 15.653l-2.835-.523c-.475-.945-.817-2.013-.817-3.13h7.304Z"/>
    <path fill="#FFDA44" d="M12 18.782s1.76-1.508 2.836-3.652H9.165C10.24 17.274 12 18.782 12 18.782Z"/>
    <path fill="#6DA544" d="M9.652 9.913h4.695L12 12.26 9.652 9.913Z"/>
    <path fill="#A2001D" d="M12.783 11.477h-1.566v4.696h1.566v-4.696Z"/>
  </g>
  <defs>
    <clipPath id="a">
      <path fill="#fff" d="M0 0h24v24H0z"/>
    </clipPath>
  </defs>
</svg>
