<svg xmlns="http://www.w3.org/2000/svg" width="24" height="24" fill="none" viewBox="0 0 24 24"><g clip-path="url(#a)"><path fill="#FFDA44" d="M12 0c-1.084 0-2.133.144-3.131.413L7.826 12l1.043 11.587a12.01 12.01 0 0 0 3.13.413c6.628 0 12-5.373 12-12S18.628 0 12 0Z"/><path fill="#6DA544" d="m7.826 12 1.043 11.587a12.01 12.01 0 0 0 3.13.413c6.628 0 12-5.373 12-12H7.827Z"/><path fill="#D80027" d="M0 12c0 4.548 2.53 8.505 6.26 10.54V1.46A11.997 11.997 0 0 0 0 11.999Z"/><path fill="#D80027" d="M0 12c0 5.544 3.76 10.21 8.87 11.587L8.868.413C3.759 1.79 0 6.455 0 12Z"/><path fill="#000" d="m4.534 8.868.777 2.392h2.515l-2.034 1.478.777 2.391-2.035-1.478L2.5 15.13l.777-2.391-2.034-1.478h2.514l.777-2.392Z"/></g><defs><clipPath id="a"><path fill="#fff" d="M0 0h24v24H0z"/></clipPath></defs></svg>