<svg xmlns="http://www.w3.org/2000/svg" width="24" height="24" fill="none" viewBox="0 0 24 24"><g clip-path="url(#a)"><path fill="#F0F0F0" d="M12 24c6.628 0 12-5.373 12-12S18.628 0 12 0C5.373 0 0 5.373 0 12s5.373 12 12 12Z"/><path fill="#6DA544" d="M12 0C9.88 0 7.886.55 6.157 1.516v20.966A11.945 11.945 0 0 0 12 24c6.628 0 12-5.373 12-12S18.628 0 12 0Z"/><path fill="#F0F0F0" d="M6.192 1.498A12.026 12.026 0 0 0 4.285 2.81L13.476 12l-9.19 9.191a12.117 12.117 0 0 1 1.906 1.312L24 12 6.192 1.498Z"/><path fill="#FFDA44" d="M5.178 2.127c-.366.253-.717.526-1.052.817L12 12l-7.874 9.055c.335.291.686.564 1.052.817L21.946 12 5.178 2.127Z"/><path fill="#000" d="M4.285 2.81c-.266.224-.524.459-.77.705l7.441 8.486-7.441 8.485c.246.246.504.481.77.705l9.191-9.19-9.19-9.191Z"/><path fill="#D80027" d="M3.515 3.515c-4.687 4.686-4.687 12.284 0 16.97L12 12 3.515 3.515Z"/></g><defs><clipPath id="a"><path fill="#fff" d="M0 0h24v24H0z"/></clipPath></defs></svg>