<svg xmlns="http://www.w3.org/2000/svg" width="24" height="24" fill="none" viewBox="0 0 24 24">
  <g clip-path="url(#a)">
    <path fill="#F0F0F0" d="M12 24c6.627 0 12-5.373 12-12S18.627 0 12 0 0 5.373 0 12s5.373 12 12 12Z"/>
    <path fill="#338AF3" d="M12 23.999a12 12 0 0 0 10.81-6.783H1.19A12 12 0 0 0 12 24Zm0-24A12 12 0 0 0 1.193 6.782H22.81A12 12 0 0 0 12-.001ZM7.386 7.824l.388 1.196h1.257l-1.017.74.389 1.195-1.018-.74-1.017.74.389-1.196L5.74 9.02h1.257l.389-1.196Zm0 5.219.388 1.195h1.257l-1.017.74.389 1.195-1.018-.74-1.017.74.389-1.196-1.017-.739h1.257l.389-1.195Zm9.229-5.219.389 1.196h1.257l-1.017.74.388 1.195-1.017-.74-1.017.74.388-1.196-1.017-.739h1.258l.388-1.196Zm0 5.219.389 1.195h1.257l-1.017.74.388 1.195-1.017-.74-1.017.74.388-1.196-1.017-.739h1.258l.388-1.195ZM12 10.433l.389 1.196h1.257l-1.017.74.388 1.195-1.017-.74-1.017.74.388-1.196-1.017-.739h1.257L12 10.433Z"/>
  </g>
  <defs>
    <clipPath id="a">
      <path fill="#fff" d="M0 0h24v24H0z"/>
    </clipPath>
  </defs>
</svg>
