<svg xmlns="http://www.w3.org/2000/svg" width="24" height="24" fill="none" viewBox="0 0 24 24"><g clip-path="url(#a)"><path fill="#F0F0F0" d="M24 12c0-1.468-.264-2.874-.746-4.174L12 7.304.746 7.826A11.974 11.974 0 0 0 0 12c0 1.468.264 2.874.746 4.174L12 16.696l11.254-.522c.482-1.3.746-2.706.746-4.174Z"/><path fill="#0052B4" d="M12 24c5.16 0 9.558-3.256 11.254-7.826H.746C2.442 20.744 6.84 23.999 12 23.999Z"/><path fill="#D80027" d="M.746 7.826h22.508C21.558 3.256 17.159.001 12 .001 6.84 0 2.442 3.256.746 7.826Z"/><path fill="#338AF3" d="M15.13 8.348h-2.087l.348-2.61 1.391-1.043 1.392 1.044v2.087l-1.044.522Zm-6.26 0h2.086l-.348-2.609-1.391-1.043-1.391 1.043v2.087l1.043.522Z"/><path fill="#0052B4" d="M13.39 8.348h-2.782V5.739L12 4.696l1.392 1.043v2.609Z"/><path fill="#F0F0F0" d="M7.826 7.826v5.739a4.17 4.17 0 0 0 1.678 3.344l.73-.183.922.927a4.173 4.173 0 0 0 1.683 0l1.052-.875.604.129a4.169 4.169 0 0 0 1.679-3.342v-5.74l-8.348.001Z"/><path fill="#D80027" d="M9.496 7.826h-1.67v1.67h1.67v-1.67Zm3.339 0h-1.67v1.67h1.67v-1.67Zm3.339 0h-1.67v1.67h1.67v-1.67Z"/><path fill="#D80027" d="M11.165 9.495h-1.67v1.67h1.67v-1.67Zm3.34 0h-1.67v1.67h1.669v-1.67Z"/><path fill="#D80027" d="m9.495 11.165-1.669-.001v1.67h1.67v-1.67Zm1.67 1.67h-1.67v1.67h1.67v-1.67Zm1.669-1.67h-1.67l.001 1.668h1.67v-1.668Zm3.34-.001h-1.67v1.67h1.67v-1.67Zm-1.67 1.671h-1.67v1.67h1.67v-1.67Z"/><path fill="#D80027" d="M12.834 14.504h-1.67l.001 1.67h1.67v-1.67Zm-3.339 0H7.934a4.17 4.17 0 0 0 .81 1.67h.751v-1.67Zm5.01 1.67h.75a4.16 4.16 0 0 0 .811-1.67h-1.562v1.67Z"/><path fill="#D80027" d="M9.495 16.173v.729a4.158 4.158 0 0 0 1.67.753v-1.482h-1.67Zm3.34 0v1.482a4.156 4.156 0 0 0 1.669-.753v-.728h-1.67Z"/></g><defs><clipPath id="a"><path fill="#fff" d="M0 0h24v24H0z"/></clipPath></defs></svg>