<svg xmlns="http://www.w3.org/2000/svg" width="24" height="24" fill="none" viewBox="0 0 24 24">
  <g clip-path="url(#a)">
    <path fill="#F0F0F0" d="M12 24c6.627 0 12-5.373 12-12S18.627 0 12 0 0 5.373 0 12s5.373 12 12 12Z"/>
    <path fill="#A2001D" d="M12 0C6.84 0 2.442 3.256.746 7.825h22.507C21.558 3.255 17.16 0 12 0Z"/>
    <path fill="#000" d="M12 24c5.16 0 9.558-3.256 11.254-7.826H.746C2.442 20.744 6.84 24 12 24Z"/>
    <path fill="#496E2D" d="M9.13 11.219H6.817c.116-.45.524-.783 1.01-.783V8.87a2.612 2.612 0 0 0-2.61 2.608v1.305h3.914a.26.26 0 0 1 .26.26v.522H4.174v1.566h6.782v-2.087a1.828 1.828 0 0 0-1.826-1.826Zm3.914 2.347V8.87h-1.565v6.26h2.608v-1.564h-1.043Zm5.216 0V8.87h-1.565v4.696h-.521V12h-1.566v3.13h4.696v-1.564h-1.043Z"/>
  </g>
  <defs>
    <clipPath id="a">
      <path fill="#fff" d="M0 0h24v24H0z"/>
    </clipPath>
  </defs>
</svg>
