<svg xmlns="http://www.w3.org/2000/svg" width="24" height="24" fill="none" viewBox="0 0 24 24"><g clip-path="url(#a)"><path fill="#F0F0F0" d="M12 24c6.627 0 12-5.373 12-12S18.627 0 12 0 0 5.373 0 12s5.373 12 12 12Z"/><path fill="#000" d="M12 0A12 12 0 0 0 1.191 6.782H22.81A12 12 0 0 0 12 0Z"/><path fill="#496E2D" d="M12 24a12 12 0 0 1-10.809-6.782H22.81A12.001 12.001 0 0 1 12 24Z"/><path fill="#A2001D" d="M23.433 8.347H.567A11.996 11.996 0 0 0 0 12c0 1.274.2 2.5.567 3.651h22.866C23.801 14.5 24 13.274 24 12s-.199-2.501-.567-3.653Z"/><path fill="#F0F0F0" d="m15.737 5.545-1.421-.656L12 10.132 9.685 4.89l-1.421.656L11.138 12l-2.874 6.454 1.42.656L12 13.867l2.316 5.243 1.42-.656L12.863 12l2.875-6.455Z"/><path fill="#F0F0F0" d="M12.965 6.163c-.55-.6-.965-.946-.965-.946s-.415.345-.965.946v11.673c.55.6.965.946.965.946s.415-.345.965-.946V6.163Z"/><path fill="#A2001D" d="M9.392 8.402v7.196a12.581 12.581 0 0 0 1.826 2.434V5.968a12.578 12.578 0 0 0-1.826 2.434Zm5.217.001a12.586 12.586 0 0 0-1.826-2.434v12.064a12.588 12.588 0 0 0 1.826-2.434V8.403Z"/><path fill="#000" d="M14.609 8.4v7.197c.588-1.043 1.043-2.276 1.043-3.598S15.197 9.444 14.61 8.4Zm-5.218 0v7.197c-.588-1.043-1.043-2.276-1.043-3.598S8.803 9.444 9.39 8.4Z"/></g><defs><clipPath id="a"><path fill="#fff" d="M0 0h24v24H0z"/></clipPath></defs></svg>