<svg xmlns="http://www.w3.org/2000/svg" width="24" height="24" fill="none" viewBox="0 0 24 24"><g clip-path="url(#a)"><path fill="#D80027" d="M0 12C0 5.373 5.373 0 12 0s12 5.373 12 12"/><path fill="#FFDA44" d="m16.173 11.16-1.705.802.908 1.652-1.852-.354-.234 1.87L12 13.756l-1.29 1.376-.235-1.871-1.852.354.908-1.652-1.705-.802 1.705-.802-.908-1.652 1.852.354.235-1.87L12 8.565l1.29-1.375.234 1.87 1.852-.354-.908 1.652 1.705.802ZM15.13 3.913h-2.347a.783.783 0 0 0-1.566 0H8.87c0 .432.376.783.808.783h-.026c0 .432.35.782.783.782 0 .432.35.783.782.783h1.566c.432 0 .782-.35.782-.783.432 0 .783-.35.783-.782h-.026c.432 0 .809-.35.809-.783Z"/><path fill="#F0F0F0" d="M24 12c0 6.627-5.372 12-12 12-6.627 0-12-5.373-12-12h24Z"/><path fill="#0052B4" d="M12 24c3.751 0 7.1-1.721 9.3-4.416-.395-.27-.609-.706-1.3-.706-1 0-1 .914-2 .914s-1-.915-2-.915-1 .915-2 .915-1-.915-2-.915-1 .915-2 .915-1-.915-2-.915-1 .915-2 .915-1-.915-2-.915c-.69 0-.904.437-1.3.706A11.975 11.975 0 0 0 12 24Zm10-10.469c-1 0-1-.914-2-.914s-1 .914-2 .914-1-.914-2-.914-1 .914-2 .914-1-.914-2-.914-1 .914-2 .914-1-.914-2-.914-1 .914-2 .914-1-.914-2-.914-1 .914-2 .914c-.995 0-1-.904-1.984-.914.027.55.093 1.088.192 1.615.797.117.867.9 1.792.9 1 0 1-.915 2-.915s1 .914 2 .914 1-.914 2-.914 1 .914 2 .914 1-.914 2-.914 1 .914 2 .914 1-.914 2-.914 1 .914 2 .914 1-.914 2-.914 1 .914 2 .914c.925 0 .995-.782 1.792-.899.1-.527.165-1.066.193-1.615-.985.01-.99.914-1.985.914Zm-2 2.217c-1 0-1 .914-2 .914s-1-.914-2-.914-1 .914-2 .914-1-.914-2-.914-1 .914-2 .914-1-.914-2-.914-1 .914-2 .914-1-.914-2-.914-1 .914-2 .914c-.714 0-.918-.467-1.341-.733.281.813.648 1.588 1.089 2.311a1.4 1.4 0 0 0 .252.022c1 0 1-.914 2-.914s1 .914 2 .914 1-.914 2-.914 1 .914 2 .914 1-.914 2-.914 1 .914 2 .914 1-.914 2-.914 1 .914 2 .914 1-.914 2-.914 1 .914 2 .914c.092 0 .176-.008.253-.022.44-.723.807-1.498 1.089-2.311-.423.266-.627.733-1.342.733-1 0-1-.914-2-.914Z"/><path fill="#F0F0F0" d="M23.963 11.051c-.962.023-.976.913-1.963.913-1 0-1-.914-2-.914s-1 .914-2 .914-1-.914-2-.914-1 .914-2 .914-1-.914-2-.914-1 .914-2 .914-1-.914-2-.914-1 .914-2 .914-1-.914-2-.914-1 .914-2 .914c-.987 0-1-.89-1.963-.913a12.203 12.203 0 0 0-.019 1.6c.982.01.988.913 1.982.913 1 0 1-.914 2-.914s1 .914 2 .914 1-.914 2-.914 1 .914 2 .914 1-.914 2-.914 1 .914 2 .914 1-.914 2-.914 1 .914 2 .914 1-.914 2-.914 1 .914 2 .914c.994 0 1-.902 1.983-.914a12.198 12.198 0 0 0-.02-1.599Z"/></g><defs><clipPath id="a"><path fill="#fff" d="M0 0h24v24H0z"/></clipPath></defs></svg>