<svg xmlns="http://www.w3.org/2000/svg" width="24" height="24" fill="none" viewBox="0 0 24 24"><g clip-path="url(#a)"><path fill="#F0F0F0" d="M12 24c6.627 0 12-5.373 12-12S18.627 0 12 0 0 5.373 0 12s5.373 12 12 12Z"/><path fill="#0052B4" d="M12 0a11.972 11.972 0 0 0-9.097 4.174h18.194A11.972 11.972 0 0 0 12 0Zm9.096 19.827H2.903A11.973 11.973 0 0 0 12 24a11.97 11.97 0 0 0 9.096-4.173Z"/><path fill="#D80027" d="M22.239 5.739H1.76A11.945 11.945 0 0 0 0 12c0 2.294.644 4.438 1.761 6.26H22.24A11.942 11.942 0 0 0 24 12c0-2.294-.644-4.439-1.761-6.261Z"/><path fill="#F0F0F0" d="M7.383 16.618a4.617 4.617 0 1 0 0-9.235 4.617 4.617 0 0 0 0 9.235Z"/><path fill="#D80027" d="m7.383 7.383 1.035 3.189h3.358l-2.717 1.97 1.044 3.199-2.72-1.98-2.717 1.976 1.04-3.194-2.715-1.971h3.355l1.037-3.189Z"/></g><defs><clipPath id="a"><path fill="#fff" d="M0 0h24v24H0z"/></clipPath></defs></svg>