<svg xmlns="http://www.w3.org/2000/svg" width="24" height="24" fill="none" viewBox="0 0 24 24"><g clip-path="url(#a)"><path fill="#F0F0F0" d="M12 24c6.627 0 12-5.373 12-12S18.627 0 12 0 0 5.373 0 12s5.373 12 12 12Z"/><path fill="#D80027" d="M16.174 12c0 1.043-1.869 3.652-4.174 3.652-2.305 0-4.174-2.609-4.174-3.652a4.174 4.174 0 0 1 8.348 0Z"/><path fill="#0052B4" d="M16.174 12a4.174 4.174 0 1 1-8.348 0"/><path fill="#000" d="m17.534 14.583-1.107 1.106.738.738 1.106-1.107-.737-.737Zm-1.846 1.844-1.106 1.107.738.737 1.106-1.106-.737-.738Zm4.059.368L18.64 17.9l.738.738 1.107-1.106-.738-.738Zm-1.844 1.845-1.107 1.108.738.737 1.107-1.106-.738-.738Zm.737-2.95-1.106 1.106.738.738 1.107-1.107-.738-.737Zm-1.844 1.844-1.107 1.107.738.738 1.107-1.107-.738-.738ZM15.69 5.358l2.95 2.952.738-.738-2.95-2.952-.739.738Zm-1.107 1.108 1.107 1.107.737-.738-1.106-1.107-.738.738Zm1.844 1.844 1.107 1.107.738-.738-1.107-1.107-.738.738Zm.368-4.058 1.107 1.107.738-.738-1.107-1.107-.738.738Zm1.845 1.846 1.108 1.106.737-.737L19.38 5.36l-.738.738ZM7.203 19.748l-2.95-2.951-.739.737 2.952 2.952.737-.738ZM8.31 18.64l-1.106-1.107-.738.738 1.107 1.107.738-.738Zm-1.844-1.844-1.107-1.107-.738.738 1.107 1.107.738-.738Zm2.952.738-2.952-2.952-.738.738 2.952 2.951.738-.737ZM4.253 7.205l2.951-2.952-.738-.738-2.951 2.952.738.738ZM5.359 8.31 8.31 5.358l-.738-.737-2.951 2.951.738.738Zm1.107 1.107 2.952-2.951-.738-.738-2.951 2.951.737.738Z"/></g><defs><clipPath id="a"><path fill="#fff" d="M0 0h24v24H0z"/></clipPath></defs></svg>