<svg xmlns="http://www.w3.org/2000/svg" width="24" height="24" fill="none" viewBox="0 0 24 24">
  <g clip-path="url(#a)">
    <path fill="#0052B4" d="M24 12c0 6.627-5.373 12-12 12S0 18.627 0 12C0 12.003 12 .001 12 0c6.627 0 12 5.373 12 12Z"/>
    <path fill="#F0F0F0" d="M11.969 12H12v-.032l-.032.033Z"/>
    <path fill="#F0F0F0" d="M12 6.26V0h-.001C5.372 0 0 5.373 0 12h6.261V8.474L9.787 12h2.181l.033-.032V9.786L8.474 6.26H12Z"/>
    <path fill="#6DA544" d="M17.217 8.87a2.087 2.087 0 1 0 0-4.175 2.087 2.087 0 0 0 0 4.174Z"/>
    <path fill="#D80027" d="M6.07 1.565a12.057 12.057 0 0 0-4.505 4.506v5.93h3.13V4.695H12v-3.13H6.07Z"/>
    <path fill="#D80027" d="M12 10.524 7.735 6.26H6.26L12 12v-1.476Zm8.87-4.264h-7.305v3.13h7.304V6.26Z"/>
    <path fill="#FFDA44" d="M13.565 14.087v2.087h1.098a3.638 3.638 0 0 0 2.554 1.043 3.64 3.64 0 0 0 2.555-1.043h1.098v-2.087h-7.305Z"/>
    <path fill="#338AF3" d="M13.565 8.87V12c0 2.795 3.652 3.652 3.652 3.652S20.87 14.795 20.87 12V8.868h-7.305Z"/>
    <path fill="#F3F3F3" d="M17.217 10.54c-.913 0-.913.835-1.826.835s-.913-.835-1.826-.835V12c.913 0 .913.836 1.826.836s.913-.835 1.826-.835.913.835 1.827.835c.913 0 .913-.835 1.826-.835v-1.46c-.913 0-.913.834-1.826.834-.914 0-.914-.835-1.827-.835Zm0-2.923c-.913 0-.913.834-1.826.834s-.913-.834-1.826-.834v1.46c.913 0 .913.835 1.826.835s.913-.834 1.826-.834.913.834 1.826.834.913-.834 1.827-.834V7.617c-.914 0-.914.834-1.827.834-.913 0-.913-.834-1.826-.834Z"/>
  </g>
  <defs>
    <clipPath id="a">
      <path fill="#fff" d="M0 0h24v24H0z"/>
    </clipPath>
  </defs>
</svg>
