<svg xmlns="http://www.w3.org/2000/svg" width="24" height="24" fill="none" viewBox="0 0 24 24">
  <g clip-path="url(#a)">
    <path fill="#F0F0F0" d="M12 24c6.627 0 12-5.373 12-12S18.627 0 12 0 0 5.373 0 12s5.373 12 12 12Z"/>
    <path fill="#D80027" d="M12 0A12 12 0 0 0 1.19 6.782h21.62A12 12 0 0 0 12 0Zm0 24c4.758 0 8.869-2.77 10.81-6.783H1.19A12 12 0 0 0 12 24Z"/>
    <path fill="#6DA544" d="M15.13 14.086 12 8.347l-3.13 5.74h2.348v1.564h1.565v-1.565h2.348Z"/>
  </g>
  <defs>
    <clipPath id="a">
      <path fill="#fff" d="M0 0h24v24H0z"/>
    </clipPath>
  </defs>
</svg>
