<svg xmlns="http://www.w3.org/2000/svg" width="24" height="24" fill="none" viewBox="0 0 24 24"><g clip-path="url(#a)"><path fill="#D80027" d="M24 12c0 6.627-5.373 12-12 12S0 18.627 0 12c.522 0 12-1.566 12-1.566L24 12Z"/><path fill="#0052B4" d="M0 12C0 5.371 5.372 0 12 0c6.627 0 12 5.372 12 12"/><path fill="#FFDA44" d="M8.87 8.347a1.565 1.565 0 0 0-2.61-1.166v-.92h.522V5.216H6.26v-.522H5.218v.522h-.522V6.26h.522v.921A1.565 1.565 0 0 0 3.13 9.514v.92h5.217v-.92a1.56 1.56 0 0 0 .522-1.167Z"/></g><defs><clipPath id="a"><path fill="#fff" d="M0 0h24v24H0z"/></clipPath></defs></svg>