<svg xmlns="http://www.w3.org/2000/svg" width="24" height="24" fill="none" viewBox="0 0 24 24">
  <g clip-path="url(#a)">
    <path fill="#F0F0F0" d="M12 24c6.627 0 12-5.373 12-12S18.627 0 12 0 0 5.373 0 12s5.373 12 12 12Z"/>
    <path fill="#F0F0F0" d="M2.743 4.363h18.514A12.069 12.069 0 0 0 18.9 2.181H5.1c-.88.62-1.673 1.354-2.357 2.182ZM0 12c0 .368.017.732.05 1.091h23.9a12.159 12.159 0 0 0 0-2.181H.05C.017 11.27 0 11.632 0 12Zm1.309 5.455h21.383c.353-.692.641-1.421.856-2.182H.452c.215.76.504 1.49.857 2.182ZM5.1 21.818h13.8c.88-.62 1.673-1.354 2.357-2.182H2.743A12.074 12.074 0 0 0 5.1 21.818ZM.452 8.728h23.096c-.215-.76-.503-1.49-.856-2.182H1.309a11.921 11.921 0 0 0-.857 2.182Z"/>
    <path fill="#D80027" d="M5.738 2.182H18.9A11.944 11.944 0 0 0 12 0c-1.565 0-4.31.808-6.262 2.182Zm5.74 4.363 11.214.001a12.03 12.03 0 0 0-1.435-2.183h-9.779v2.182Zm0 4.364H23.95a11.959 11.959 0 0 0-.402-2.182h-12.07v2.181ZM.451 15.274h23.097c.199-.703.335-1.433.402-2.182H.05c.067.749.203 1.479.401 2.182Zm2.292 4.362h18.514a12.015 12.015 0 0 0 1.435-2.181H1.309c.399.78.88 1.511 1.434 2.181ZM12 24c2.569 0 4.948-.808 6.9-2.182H5.1A11.945 11.945 0 0 0 12 24Z"/>
    <path fill="#0052B4" d="M.452 8.727a11.956 11.956 0 0 0-.402 2.182H12V0C6.507 0 1.876 3.69.452 8.727Z"/>
    <path fill="#F0F0F0" d="m7.144 3.13.777 2.392h2.514L8.401 7l.777 2.391-2.034-1.478-2.035 1.478L5.886 7 3.852 5.522h2.515l.777-2.391Z"/>
  </g>
  <defs>
    <clipPath id="a">
      <path fill="#fff" d="M0 0h24v24H0z"/>
    </clipPath>
  </defs>
</svg>
