<svg xmlns="http://www.w3.org/2000/svg" width="24" height="24" fill="none" viewBox="0 0 24 24"><g clip-path="url(#a)"><path fill="#F0F0F0" d="M0 12c0 1.87.428 3.64 1.19 5.217L12 17.74l10.81-.522A11.952 11.952 0 0 0 24 12c0-1.87-.428-3.64-1.19-5.218L12 6.261l-10.81.521A11.952 11.952 0 0 0 0 12Z"/><path fill="#6DA544" d="M12 24a12 12 0 0 0 10.81-6.783H1.19A12.001 12.001 0 0 0 12 24Z"/><path fill="#0052B4" d="M12 0A12.004 12.004 0 0 0 1.19 6.781h21.62A12 12 0 0 0 12 0Z"/><path fill="#000" d="M12.783 11.74V8.87h-1.565v2.87l-1.89 1.89a3.128 3.128 0 0 0 5.346 0l-1.891-1.89Z"/></g><defs><clipPath id="a"><path fill="#fff" d="M0 0h24v24H0z"/></clipPath></defs></svg>