<svg xmlns="http://www.w3.org/2000/svg" width="24" height="24" fill="none" viewBox="0 0 24 24"><g clip-path="url(#a)"><path fill="#F0F0F0" d="M12 24c6.627 0 12-5.373 12-12S18.627 0 12 0 0 5.373 0 12s5.373 12 12 12Z"/><path fill="#6DA544" d="M7.826 12v11.253c1.3.482 2.706.747 4.174.747 6.627 0 12-5.373 12-12S7.826 12 7.826 12Z"/><path fill="#D80027" d="M12 0a11.96 11.96 0 0 0-4.174.747v11.252L24 12c0-6.627-5.373-12-12-12Z"/></g><defs><clipPath id="a"><path fill="#fff" d="M0 0h24v24H0z"/></clipPath></defs></svg>