<svg xmlns="http://www.w3.org/2000/svg" width="24" height="24" fill="none" viewBox="0 0 24 24"><g clip-path="url(#a)"><path fill="#0052B4" d="M12 24c1.468 0 2.874-.263 4.174-.746l.521-11.253L16.174.747A11.975 11.975 0 0 0 12 .001c-1.468 0-2.874.264-4.174.746l-.522 11.254.522 11.253c1.3.483 2.706.747 4.174.747Z"/><path fill="#A2001D" d="M0 12c0 5.16 3.256 9.559 7.826 11.254V.747C3.256 2.443 0 6.84 0 12ZM16.174.747v22.507C20.744 21.56 24 17.16 24 12c0-5.16-3.257-9.557-7.826-11.253Z"/><path fill="#FFDA44" d="M6.783 11.999H5.739v4.174h1.044v-4.174Zm-4.174 0H1.565v4.174H2.61v-4.174Zm1.565 2.609a1.043 1.043 0 1 0 0-2.086 1.043 1.043 0 0 0 0 2.086Zm0-4.174a.522.522 0 1 0 0-1.044.522.522 0 0 0 0 1.044Zm1.043 4.695H3.13v1.043h2.087V15.13Zm0-4.174H3.13V12h2.087v-1.044ZM4.175 6.26l.37 1.137H5.74l-.968.703.37 1.137-.967-.703-.968.703.37-1.137-.968-.703h1.196l.37-1.137Z"/></g><defs><clipPath id="a"><path fill="#fff" d="M0 0h24v24H0z"/></clipPath></defs></svg>