<svg xmlns="http://www.w3.org/2000/svg" width="24" height="24" fill="none" viewBox="0 0 24 24"><g clip-path="url(#a)"><path fill="#0052B4" d="M24 12c0 6.627-5.373 12-12 12S0 18.627 0 12C0 12.003 12 .001 12 0c6.627 0 12 5.373 12 12Z"/><path fill="#F0F0F0" d="M11.968 12h.033v-.032l-.033.032Z"/><path fill="#F0F0F0" d="M12 6.261V0l-.002.001C5.372.002 0 5.373 0 12h6.261V8.475L9.787 12h2.181l.033-.032V9.787L8.475 6.26H12Z"/><path fill="#D80027" d="M6.071 1.565a12.057 12.057 0 0 0-4.506 4.506v5.93h3.13V4.695H12v-3.13H6.071Z"/><path fill="#D80027" d="M12 10.524 7.738 6.261H6.261L12.001 12v-1.476Z"/><path fill="#338AF3" d="M13.565 6.26V12c0 2.795 3.652 3.652 3.652 3.652S20.87 14.795 20.87 12V6.26h-7.304Z"/><path fill="#A2001D" d="M13.565 12c0 2.795 3.652 3.652 3.652 3.652S20.87 14.795 20.87 12h-7.304Z"/><path fill="#000" d="M18.782 8.87H17.74V7.825h-1.044v1.043h-1.043v1.044h1.043v3.13h1.044v-3.13h1.043V8.869Z"/></g><defs><clipPath id="a"><path fill="#fff" d="M0 0h24v24H0z"/></clipPath></defs></svg>