<svg xmlns="http://www.w3.org/2000/svg" width="24" height="24" fill="none" viewBox="0 0 24 24">
  <g clip-path="url(#a)">
    <path fill="#F0F0F0" d="M12 24c6.628 0 12-5.373 12-12S18.628 0 12 0C5.373 0 0 5.373 0 12s5.373 12 12 12Z"/>
    <path fill="#FFDA44" d="m6.486 16.696-2.971 3.79A11.962 11.962 0 0 0 12 24c4.961 0 9.218-3.01 11.045-7.304H6.485Z"/>
    <path fill="#496E2D" d="M23.064 7.348C21.246 3.032 16.978 0 12 0a11.962 11.962 0 0 0-8.485 3.516L6.52 7.348h16.544Z"/>
    <path fill="#000" d="M2.609 8.826v6.304h20.978A12.01 12.01 0 0 0 24 12c0-1.099-.148-2.163-.425-3.174H2.61Z"/>
    <path fill="#A2001D" d="M3.515 3.514c-4.687 4.687-4.686 12.285 0 16.971L12 12 3.515 3.514Z"/>
    <path fill="#FFDA44" d="m4.857 8.87.777 2.39H8.15l-2.035 1.48.776 2.391-2.034-1.478-2.034 1.478.777-2.391-2.034-1.478H4.08l.777-2.392Z"/>
    <path fill="#F0F0F0" d="M7.131 12H2.583v2.086h4.548V12Z"/>
    <path fill="#000" d="m7.992 9.607-.737-.738-2.398 2.398-2.398-2.398-.737.738 2.4 2.396-2.4 2.4.737.727 2.398-2.393 2.398 2.393.737-.728-2.4-2.4 2.4-2.395Z"/>
  </g>
  <defs>
    <clipPath id="a">
      <path fill="#fff" d="M0 0h24v24H0z"/>
    </clipPath>
  </defs>
</svg>
