<svg xmlns="http://www.w3.org/2000/svg" width="24" height="24" fill="none" viewBox="0 0 24 24">
  <g clip-path="url(#a)">
    <path fill="#F0F0F0" d="M1.19 6.782A11.952 11.952 0 0 0 0 12c0 1.87.427 3.64 1.19 5.218L12 18.26l10.809-1.043A11.953 11.953 0 0 0 23.999 12c0-1.87-.427-3.64-1.19-5.218L11.999 5.74 1.19 6.782Z"/>
    <path fill="#6DA544" d="M1.19 17.218A12 12 0 0 0 12 24.001a12 12 0 0 0 10.808-6.783H1.191Z"/>
    <path fill="#FF9811" d="M1.19 6.782h21.62A12 12 0 0 0 11.999 0 12 12 0 0 0 1.19 6.782ZM12 16.174a4.174 4.174 0 1 0 0-8.348 4.174 4.174 0 0 0 0 8.348Z"/>
  </g>
  <defs>
    <clipPath id="a">
      <path fill="#fff" d="M0 0h24v24H0z"/>
    </clipPath>
  </defs>
</svg>
