<svg xmlns="http://www.w3.org/2000/svg" width="24" height="24" fill="none" viewBox="0 0 24 24">
  <g clip-path="url(#a)">
    <path fill="#FFDA44" d="M24 12c0 6.627-5.373 12-12 12S0 18.627 0 12C0 12.003 12 .001 12 0c6.628 0 12 5.373 12 12Z"/>
    <path fill="#0052B4" d="M12 5.74v4.047L7.826 5.74H12ZM6.261 12h3.526L6.26 7.305l-.521 3.652L6.26 12Z"/>
    <path fill="#F0F0F0" d="M11.968 12h.033v-.031l-.033.032Z"/>
    <path fill="#F0F0F0" d="M12 6.26V0h-.002C5.372 0 0 5.373 0 12h6.261V8.475L9.787 12h2.181l.033-.031V9.787L8.473 6.26H12Z"/>
    <path fill="#D80027" d="M12 10.525 7.735 6.26H6.26L12 12v-1.476Z"/>
    <path fill="#D80027" d="M6.07 1.565c-.462.263-.905.557-1.327.878h.493l-1.302.945.497 1.53-1.301-.945-.139.1a12.063 12.063 0 0 0-1.426 1.998V12h3.13V4.696H12V1.564H6.07Z"/>
    <path fill="#0052B4" d="M5.126 2.164c-.13.09-.257.184-.383.28l-.809.945-.944.686a12.06 12.06 0 0 0-.827 1.052 2.217 2.217 0 0 0 2.963-2.963Z"/>
    <path fill="#FFDA44" d="m2.99 4.074.14-.101 1.301.945-.497-1.53 1.302-.945h-.493a12.078 12.078 0 0 0-1.753 1.63Zm5.304-1.987.26.798h.837l-.678.492.26.797-.679-.492-.678.492.259-.797-.678-.492h.838l.26-.798ZM3.13 7.305l.26.797h.837l-.678.493.26.797L3.13 8.9l-.678.492.259-.797-.678-.493h.838l.26-.797Z"/>
  </g>
  <defs>
    <clipPath id="a">
      <path fill="#fff" d="M0 0h24v24H0z"/>
    </clipPath>
  </defs>
</svg>
