<svg xmlns="http://www.w3.org/2000/svg" width="24" height="24" fill="none" viewBox="0 0 24 24">
  <g clip-path="url(#a)">
    <path fill="#0052B4" d="M24 12c0 6.627-5.373 12-12 12S0 18.627 0 12C0 12.003 12 .001 12 0c6.627 0 12 5.373 12 12Z"/>
    <path fill="#F0F0F0" d="M11.968 12h.033v-.032l-.033.033Z"/>
    <path fill="#F0F0F0" d="M12 6.261V0h-.002C5.372 0 0 5.373 0 12h6.261V8.475L9.787 12h2.181l.033-.032V9.787L8.474 6.26H12Z"/>
    <path fill="#D80027" d="M6.071 1.565a12.057 12.057 0 0 0-4.506 4.506V12h3.13V4.696H12V1.564H6.071Z"/>
    <path fill="#D80027" d="M12 10.525 7.737 6.26H6.261l5.74 5.74v-1.476Zm8.781-1.62.26.797h.837l-.678.492.26.798-.679-.493-.678.493.259-.798-.678-.492h.838l.26-.797Zm-2.996 5.739.389 1.195h1.257l-1.018.74.39 1.195-1.018-.739-1.017.739.388-1.196-1.017-.739h1.257l.389-1.195Zm.113-9.392.324.996h1.048l-.848.616.324.997-.848-.616-.847.616.324-.997-.848-.616h1.048l.323-.996ZM15.015 8.87l.389 1.196h1.257l-1.017.739.388 1.196-1.017-.74-1.017.74.389-1.196-1.018-.74h1.258l.388-1.195Z"/>
  </g>
  <defs>
    <clipPath id="a">
      <path fill="#fff" d="M0 0h24v24H0z"/>
    </clipPath>
  </defs>
</svg>
