<svg xmlns="http://www.w3.org/2000/svg" width="24" height="24" fill="none" viewBox="0 0 24 24"><g clip-path="url(#a)"><path fill="#F0F0F0" d="M12 24c6.627 0 12-5.373 12-12S18.627 0 12 0 0 5.373 0 12s5.373 12 12 12Z"/><path fill="#D80027" d="M12 0v12l-8.485 8.485A11.962 11.962 0 0 0 12 24c6.627 0 12-5.373 12-12S12 0 12 0Z"/><path fill="#0052B4" d="M12 0a11.962 11.962 0 0 0-8.485 3.515L12 12h12c0-6.627-5.373-12-12-12Z"/><path fill="#FFDA44" d="m8.217 12-1.465-.69.78-1.419-1.591.305-.202-1.608L4.631 9.77 3.522 8.588l-.202 1.608-1.59-.305.78 1.42L1.044 12l1.466.69-.78 1.418 1.59-.304.202 1.608 1.109-1.183 1.108 1.183.202-1.608 1.591.305-.78-1.42L8.217 12ZM3.2 4.695l.489.682.798-.253-.497.674.487.682-.795-.265-.497.675.006-.839-.795-.265.799-.253.006-.838Zm0 12.415.489.681.798-.253-.497.675.487.681-.795-.265-.497.675.006-.838-.795-.265.799-.253.006-.838Zm6.956-6.207-.487.682-.8-.253.498.674-.487.682.795-.265.498.675-.007-.839.796-.264-.8-.254-.006-.838Z"/></g><defs><clipPath id="a"><path fill="#fff" d="M0 0h24v24H0z"/></clipPath></defs></svg>