<svg xmlns="http://www.w3.org/2000/svg" width="24" height="24" fill="none" viewBox="0 0 24 24">
  <g clip-path="url(#a)">
    <path fill="#0052B4" d="M24 12c0 6.627-5.373 12-12 12S0 18.627 0 12C0 12.003 12 .001 12 0c6.627 0 12 5.373 12 12Z"/>
    <path fill="#F0F0F0" d="M11.968 12h.033v-.031l-.033.032Z"/>
    <path fill="#F0F0F0" d="M12 6.261V0h-.002C5.372.001 0 5.373 0 12h6.261V8.475L9.787 12h2.181l.033-.031V9.787L8.475 6.26H12Z"/>
    <path fill="#D80027" d="M6.071 1.565a12.057 12.057 0 0 0-4.506 4.506V12h3.13V4.696H12V1.564H6.071Z"/>
    <path fill="#D80027" d="M12 10.525 7.738 6.26H6.261l5.74 5.74v-1.476Z"/>
    <path fill="#ACABB1" d="m18.783 7.304-1.565.522-1.565-.522L15.13 6l.522-1.305h3.13L18.261 6l.522 1.304Z"/>
    <path fill="#338AF3" d="M13.565 7.304v5.739c0 2.796 3.652 3.652 3.652 3.652s3.652-.856 3.652-3.652v-5.74h-7.304Z"/>
    <path fill="#6DA544" d="M13.895 14.402c.898 1.724 3.322 2.293 3.322 2.293s2.426-.57 3.324-2.293L17.218 8.87l-3.323 5.533Z"/>
    <path fill="#FFDA44" d="m20.87 12.985-3.653-5.681-3.652 5.681v.058c0 .517.126.968.33 1.36l3.322-5.17 3.324 5.17a2.9 2.9 0 0 0 .328-1.36v-.058Z"/>
  </g>
  <defs>
    <clipPath id="a">
      <path fill="#fff" d="M0 0h24v24H0z"/>
    </clipPath>
  </defs>
</svg>
