<svg xmlns="http://www.w3.org/2000/svg" width="24" height="24" fill="none" viewBox="0 0 24 24">
  <g clip-path="url(#a)">
    <path fill="#F0F0F0" d="M12 24c6.627 0 12-5.373 12-12S18.627 0 12 0 0 5.373 0 12s5.373 12 12 12Z"/>
    <path fill="#000" d="M7.304 7.827h15.95C21.557 3.257 17.159 0 12 0a11.962 11.962 0 0 0-8.485 3.516l3.79 4.31Z"/>
    <path fill="#6DA544" d="M7.304 16.174h15.95C21.557 20.744 17.159 24 12 24a11.961 11.961 0 0 1-8.485-3.515l3.79-4.311Z"/>
    <path fill="#D80027" d="M3.515 3.515c-4.687 4.686-4.686 12.283 0 16.97L12 12 3.515 3.515Z"/>
  </g>
  <defs>
    <clipPath id="a">
      <path fill="#fff" d="M0 0h24v24H0z"/>
    </clipPath>
  </defs>
</svg>
