<svg xmlns="http://www.w3.org/2000/svg" width="24" height="24" fill="none" viewBox="0 0 24 24">
  <g clip-path="url(#a)">
    <path fill="#496E2D" d="M20.486 20.485c4.5-4.5 4.678-11.686.535-16.4L12.001 12l-7.914 9.02c4.713 4.143 11.898 3.966 16.4-.535Z"/>
    <path fill="#0052B4" d="M3.515 3.514c4.5-4.5 11.686-4.678 16.4-.535L12 12l-9.02 7.914c-4.143-4.714-3.966-11.9.535-16.4Z"/>
    <path fill="#FFDA44" d="M19.914 2.98 2.98 19.913a12.13 12.13 0 0 0 1.106 1.107L21.021 4.087a12.173 12.173 0 0 0-1.107-1.108Z"/>
    <path fill="#F0F0F0" d="m5.057 4.174.259.798h.838l-.678.492.259.797-.678-.492-.679.492.26-.797-.679-.492h.839l.259-.798Zm4.28 0 .26.797h.838l-.679.492.26.798-.679-.493-.678.493.26-.798-.679-.492h.838l.26-.797ZM5.056 8.348l.26.797h.837l-.678.493.26.797-.679-.493-.678.493.26-.797-.679-.493h.838l.26-.797Zm4.281 0 .26.797h.838l-.679.493.26.797-.679-.493-.678.493.26-.797-.679-.493h.838l.26-.797Zm-2.14-2.086.259.797h.838l-.678.493.259.797-.678-.493-.678.493.259-.797-.678-.493h.838l.259-.797Z"/>
  </g>
  <defs>
    <clipPath id="a">
      <path fill="#fff" d="M0 0h24v24H0z"/>
    </clipPath>
  </defs>
</svg>
