<svg xmlns="http://www.w3.org/2000/svg" width="24" height="24" fill="none" viewBox="0 0 24 24">
  <g clip-path="url(#a)">
    <path fill="#FFDA44" d="M12 24c6.627 0 12-5.373 12-12S18.627 0 12 0 0 5.373 0 12s5.373 12 12 12Z"/>
    <path fill="#0052B4" d="M9.39 10.435h14.508C23.13 4.547 18.097 0 12 0c-.896 0-1.77.1-2.61.285v10.15Zm-3.13 0V1.459a12.007 12.007 0 0 0-6.159 8.976h6.16Zm0 3.131H.102a12.007 12.007 0 0 0 6.16 8.975v-8.975Zm3.13 0v10.15c.84.185 1.714.284 2.61.284 6.097 0 11.13-4.547 11.898-10.434H9.39Z"/>
  </g>
  <defs>
    <clipPath id="a">
      <path fill="#fff" d="M0 0h24v24H0z"/>
    </clipPath>
  </defs>
</svg>
