<svg xmlns="http://www.w3.org/2000/svg" width="24" height="24" fill="none" viewBox="0 0 24 24"><g clip-path="url(#a)"><path fill="#F0F0F0" d="M12 24c6.627 0 12-5.373 12-12S18.627 0 12 0 0 5.373 0 12s5.373 12 12 12Z"/><path fill="#D80027" d="M0 12C0 5.373 5.373 0 12 0s12 5.373 12 12"/><path fill="#F0F0F0" d="M7.304 6.261a3.653 3.653 0 0 1 2.87-3.567 3.652 3.652 0 1 0 0 7.135 3.653 3.653 0 0 1-2.87-3.568ZM12 2.87l.259.797h.838l-.678.493.259.797L12 4.464l-.678.493.259-.797-.678-.493h.838L12 2.87Z"/><path fill="#F0F0F0" d="m9.966 4.435.26.797h.838l-.678.492.259.798-.679-.493-.678.493.26-.798-.679-.492h.838l.26-.797Zm4.067 0 .26.797h.837l-.678.492.26.798-.679-.493-.678.493.259-.798-.678-.492h.838l.259-.797Zm-.783 2.348.26.797h.838l-.678.493.259.797-.678-.492-.678.492.258-.797-.678-.493h.838l.26-.797Zm-2.501 0 .259.797h.838l-.678.493.259.797-.678-.492-.678.492.259-.797-.678-.493h.838l.259-.797Z"/></g><defs><clipPath id="a"><path fill="#fff" d="M0 0h24v24H0z"/></clipPath></defs></svg>