<svg xmlns="http://www.w3.org/2000/svg" width="24" height="24" fill="none" viewBox="0 0 24 24"><g clip-path="url(#a)"><path fill="#338AF3" d="M24 12c0 6.627-5.373 12-12 12S0 18.627 0 12c.522 0 12-1.566 12-1.566L24 12Z"/><path fill="#F0F0F0" d="M0 12C0 5.372 5.373 0 12 0s12 5.372 12 12"/><path fill="#6DA544" d="M16.763 8.28 12 13.045 7.237 8.281a5.706 5.706 0 0 0-.976 3.198v1.565a5.75 5.75 0 0 0 3.878 5.43 1.736 1.736 0 0 0 .19 1.875l1.706-1.367 1.705 1.367a1.736 1.736 0 0 0 .18-1.897 5.749 5.749 0 0 0 3.82-5.408V11.48c0-1.183-.36-2.284-.977-3.198Z"/><path fill="#FFDA44" d="M12 17.218a4.179 4.179 0 0 1-4.174-4.174v-1.566A4.179 4.179 0 0 1 12 7.305a4.179 4.179 0 0 1 4.174 4.173v1.566A4.179 4.179 0 0 1 12 17.218Z"/><path fill="#338AF3" d="M14.609 13.043v-1.565A2.612 2.612 0 0 0 12 8.87a2.612 2.612 0 0 0-2.608 2.61v1.564l2.608.522 2.609-.522Z"/><path fill="#6DA544" d="M9.392 13.043A2.612 2.612 0 0 0 12 15.652a2.612 2.612 0 0 0 2.609-2.609H9.392Z"/><path fill="#FFDA44" d="M15.13 7.304a1.565 1.565 0 0 0-2.608-1.166v-.921h.521V4.173h-.521v-.521h-1.044v.521h-.521v1.044h.521v.92A1.565 1.565 0 0 0 9.391 8.47v.92h5.218v-.92a1.56 1.56 0 0 0 .521-1.166Z"/></g><defs><clipPath id="a"><path fill="#fff" d="M0 0h24v24H0z"/></clipPath></defs></svg>