<svg xmlns="http://www.w3.org/2000/svg" width="24" height="24" fill="none" viewBox="0 0 24 24"><g clip-path="url(#a)"><path fill="#F0F0F0" d="M12 24c6.627 0 12-5.373 12-12S18.627 0 12 0 0 5.373 0 12s5.373 12 12 12Z"/><path fill="#000" d="M23.064 7.347C21.247 3.03 16.978 0 12 0a11.96 11.96 0 0 0-8.485 3.514L6.52 7.347h16.544Z"/><path fill="#496E2D" d="m6.554 16.608-3.039 3.876A11.961 11.961 0 0 0 12 23.999c4.994 0 9.275-3.051 11.082-7.391H6.554Z"/><path fill="#A2001D" d="M2.609 8.826v6.304h20.978A12.01 12.01 0 0 0 24 12c0-1.099-.148-2.163-.425-3.174H2.61Z"/><path fill="#0052B4" d="M3.515 3.514c-4.686 4.687-4.687 12.285 0 16.971L12 12 3.515 3.514Z"/><path fill="#FFDA44" d="m3.908 9.016 1.465 2.044 2.397-.76-1.491 2.024 1.464 2.044-2.386-.792L3.866 15.6l.016-2.515-2.386-.793 2.396-.761.016-2.515Z"/></g><defs><clipPath id="a"><path fill="#fff" d="M0 0h24v24H0z"/></clipPath></defs></svg>