<svg xmlns="http://www.w3.org/2000/svg" width="24" height="24" fill="none" viewBox="0 0 24 24"><g clip-path="url(#a)"><path fill="#D80027" d="M10.957 13.043s-7.435-9.53-7.442-9.53A11.962 11.962 0 0 1 12 0c6.627 0 12 5.373 12 12l-13.043 1.044Z"/><path fill="#0052B4" d="M10.957 12s-7.435 8.486-7.442 8.485A11.963 11.963 0 0 0 12 24c6.627 0 12-5.373 12-12H10.957Z"/><path fill="#F0F0F0" d="M3.515 3.514c-4.687 4.686-4.687 12.284 0 16.97L12 12 3.515 3.514Z"/><path fill="#FFDA44" d="M1.316 12a3.391 3.391 0 1 0 6.76 0h-6.76Zm3.38-1.566a1.044 1.044 0 1 0 0-2.087 1.044 1.044 0 0 0 0 2.087Z"/><path fill="#D80027" d="M2.348 9.13v3.391c0 1.798 2.348 2.348 2.348 2.348s2.347-.55 2.347-2.348v-3.39H2.348Z"/><path fill="#338AF3" d="M4.697 13.778c-.436-.157-1.305-.558-1.305-1.256v-2.348H6v2.348c0 .7-.87 1.1-1.303 1.256Z"/><path fill="#F3F3F3" d="M5.218 11.478v-.522l-.522-.261-.522.26v.523l-.26.26v1.044h1.565v-1.043l-.261-.261Z"/></g><defs><clipPath id="a"><path fill="#fff" d="M0 0h24v24H0z"/></clipPath></defs></svg>