<svg xmlns="http://www.w3.org/2000/svg" width="24" height="24" fill="none" viewBox="0 0 24 24"><g clip-path="url(#a)"><path fill="#F0F0F0" d="M12 24c6.627 0 12-5.373 12-12S18.627 0 12 0 0 5.373 0 12s5.373 12 12 12Z"/><path fill="#D80027" d="M12 0C6.84 0 2.442 3.256.746 7.825h22.507C21.558 3.255 17.16 0 12 0Z"/><path fill="#000" d="M12 24c5.16 0 9.558-3.256 11.253-7.826H.746C2.442 20.744 6.84 24 12 24Z"/><path fill="#6DA544" d="m7.17 9.13.648 1.993h2.095l-1.695 1.232.647 1.992-1.695-1.231-1.695 1.232.647-1.993-1.695-1.232h2.096L7.17 9.13Zm9.66 0 .648 1.993h2.095l-1.695 1.232.647 1.992-1.695-1.231-1.695 1.232.647-1.993-1.695-1.232h2.096l.647-1.993Z"/></g><defs><clipPath id="a"><path fill="#fff" d="M0 0h24v24H0z"/></clipPath></defs></svg>