<svg xmlns="http://www.w3.org/2000/svg" width="24" height="24" fill="none" viewBox="0 0 24 24"><g clip-path="url(#a)"><path fill="#FFDA44" d="M22.809 17.216A11.953 11.953 0 0 0 23.999 12c0-1.87-.427-3.64-1.19-5.217l-10.81-.522-10.809.522A11.953 11.953 0 0 0 0 11.999c0 1.87.427 3.64 1.19 5.217l10.81.522 10.809-.521Z"/><path fill="#000" d="M12 0A12 12 0 0 0 1.19 6.783h21.62A12 12 0 0 0 11.999 0Z"/><path fill="#0052B4" d="M12 24a12.001 12.001 0 0 1-10.81-6.784h21.62A12 12 0 0 1 11.999 24Z"/><path fill="#A2001D" d="M23.433 8.348H.566A11.985 11.985 0 0 0 0 11.999c0 1.274.199 2.502.566 3.653h22.867C23.8 14.501 24 13.272 24 12c0-1.273-.2-2.5-.567-3.651Z"/><path fill="#FFDA44" d="M19.826 11.479H4.174v1.044h15.652v-1.044Zm-2.087-2.088H6.26v1.044h11.478V9.39Z"/><path fill="#F0F0F0" d="M17.813 12S15.13 15.13 12 15.13 8.87 12 8.87 12s0-3.13 3.13-3.13S17.813 12 17.813 12Z"/><path fill="#000" d="M12 15.13C8.87 15.13 6.186 12 6.186 12S8.869 8.87 12 8.87"/><path fill="#F0F0F0" d="M10.957 10.957H9.912v2.087h1.043v-2.087Z"/><path fill="#000" d="M14.086 10.957h-1.043v2.087h1.043v-2.087Z"/><path fill="#0052B4" d="M4.174 13.044a1.044 1.044 0 1 0 0-2.087 1.044 1.044 0 0 0 0 2.087Zm15.652 0a1.044 1.044 0 1 0 0-2.087 1.044 1.044 0 0 0 0 2.087Z"/></g><defs><clipPath id="a"><path fill="#fff" d="M0 0h24v24H0z"/></clipPath></defs></svg>