<svg xmlns="http://www.w3.org/2000/svg" width="24" height="24" fill="none" viewBox="0 0 24 24">
  <g clip-path="url(#a)">
    <path fill="#0052B4" d="M24 12c0 6.627-5.373 12-12 12S0 18.627 0 12C0 12.003 12 .001 12 0c6.627 0 12 5.373 12 12Z"/>
    <path fill="#F0F0F0" d="M11.968 12h.033v-.033l-.033.033Z"/>
    <path fill="#F0F0F0" d="M12 6.261V0h-.002C5.372.003 0 5.374 0 12h6.261V8.475L9.787 12h2.181l.033-.033v-2.18L8.475 6.26h3.526Z"/>
    <path fill="#D80027" d="M6.071 1.565a12.057 12.057 0 0 0-4.506 4.506v5.93h3.13V4.695H12v-3.13H6.071Z"/>
    <path fill="#D80027" d="M12 10.524 7.737 6.261H6.26L12.001 12v-1.476Z"/>
    <path fill="#FFDA44" d="M13.565 6.26V12c0 2.795 3.652 3.652 3.652 3.652S20.87 14.795 20.87 12V6.26h-7.304Z"/>
    <path fill="#FF9811" d="M16.696 8.348c0 .576-.467 2.087-1.044 2.087-.576 0-1.043-1.51-1.043-2.087 0-.577 1.043-1.044 1.043-1.044s1.044.467 1.044 1.044Z"/>
    <path fill="#A2001D" d="M19.464 9.484c.169-.41.3-1.011.3-1.31 0-.48-.627-.87-.627-.87s-.626.39-.626.87c0 .299.131.9.3 1.31l-.362.816a1.823 1.823 0 0 0 1.377 0l-.362-.816Z"/>
    <path fill="#6DA544" d="M16.435 12s-.522 1.043-.522 2.087h2.61C18.521 13.044 18 12 18 12l-.782-.522-.783.522Z"/>
    <path fill="#D80027" d="M18 12v-.26a.783.783 0 0 0-1.565 0V12H18Z"/>
  </g>
  <defs>
    <clipPath id="a">
      <path fill="#fff" d="M0 0h24v24H0z"/>
    </clipPath>
  </defs>
</svg>
