<svg xmlns="http://www.w3.org/2000/svg" width="24" height="24" fill="none" viewBox="0 0 24 24">
  <g clip-path="url(#a)">
    <path fill="#F0F0F0" d="M1.19 6.782A11.953 11.953 0 0 0 0 11.999c0 1.87.428 3.64 1.19 5.217L12 18.26l10.81-1.044A11.953 11.953 0 0 0 24 12c0-1.87-.428-3.64-1.19-5.217L12 5.738 1.19 6.782Z"/>
    <path fill="#6DA544" d="M1.191 17.218A12 12 0 0 0 12.001 24a12 12 0 0 0 10.808-6.782H1.191Z"/>
    <path fill="#D80027" d="M1.19 6.782h21.62A12 12 0 0 0 12-.001 12 12 0 0 0 1.19 6.782Z"/>
    <path fill="#FFDA44" d="M9.913 15.132h4.174v-1.774l-.835.417L12 12.523l-1.252 1.252-.835-.418v1.775Zm-2.388-2.088.194.598h.629l-.509.37.194.597-.508-.37-.509.37.194-.598-.508-.37h.628l.195-.597Zm.602-2.086.194.598h.63l-.51.369.195.598-.509-.37-.508.37.194-.598-.509-.37h.629l.194-.597Zm1.722-1.565.194.598h.628l-.508.37.194.597-.508-.37-.509.37.194-.598-.508-.37h.628l.195-.597Zm6.626 3.651-.194.598h-.629l.509.37-.195.597.509-.37.508.37-.194-.598.509-.37h-.629l-.194-.597Zm-.602-2.086-.195.598h-.628l.508.369-.194.598.509-.37.508.37-.194-.598.508-.37h-.628l-.194-.597Zm-1.722-1.565-.194.598h-.629l.509.37-.194.597.508-.37.509.37-.195-.598.509-.37h-.629l-.194-.597ZM12 8.61l.195.597h.628l-.508.37.194.598-.509-.37-.508.37.194-.598-.509-.37h.629L12 8.61Z"/>
  </g>
  <defs>
    <clipPath id="a">
      <path fill="#fff" d="M0 0h24v24H0z"/>
    </clipPath>
  </defs>
</svg>
