<svg xmlns="http://www.w3.org/2000/svg" width="24" height="24" fill="none" viewBox="0 0 24 24">
  <g clip-path="url(#a)">
    <path fill="#FFDA44" d="M12 24c6.627 0 12-5.373 12-12S18.627 0 12 0 0 5.373 0 12s5.373 12 12 12Z"/>
    <path fill="#D80027" d="M12 0C9.062 0 6.37 1.056 4.285 2.81L17.217 12 4.285 21.19A11.952 11.952 0 0 0 12 24c6.627 0 12-5.373 12-12S18.627 0 12 0Z"/>
    <path fill="#000" d="M3.515 3.515c-4.687 4.687-4.687 12.285 0 16.971L12 12.001 3.515 3.515Z"/>
    <path fill="#F0F0F0" d="m3.327 9.251 1.826 1.729 2.208-1.203-1.079 2.27 1.826 1.73-2.493-.325-1.08 2.27-.461-2.471-2.494-.325 2.208-1.203-.461-2.472Z"/>
  </g>
  <defs>
    <clipPath id="a">
      <path fill="#fff" d="M0 0h24v24H0z"/>
    </clipPath>
  </defs>
</svg>
