<svg xmlns="http://www.w3.org/2000/svg" width="24" height="24" fill="none" viewBox="0 0 24 24"><g clip-path="url(#a)"><path fill="#496E2D" d="M12 0c-.896 0-1.77.098-2.61.285l-.52 11.714.52 11.715c.84.186 1.714.285 2.61.285 6.627 0 12-5.372 12-12 0-6.627-5.373-12-12-12ZM3.13 3.917A11.956 11.956 0 0 0 0 12c0 3.113 1.185 5.95 3.13 8.082L3.652 12 3.13 3.917Z"/><path fill="#F0F0F0" d="M17.551 9.052a3.653 3.653 0 0 0-1.496-4.327 3.652 3.652 0 1 1-2.41 6.715 3.653 3.653 0 0 0 3.906-2.388Zm-3.274-4.778-.513.663-.79-.283.473.693-.513.663.804-.235.472.693.026-.838.804-.235-.789-.283.026-.838Z"/><path fill="#F0F0F0" d="m15.662 6.435-.513.663-.789-.283.472.693-.513.663.805-.235.472.693.025-.838.805-.235-.79-.283.026-.838ZM11.834 5.06l-.513.663-.789-.283.472.693-.513.663.805-.235.471.693.026-.838.804-.235-.788-.283.025-.838Zm-.056 2.475-.513.662-.79-.283.473.693-.513.663.804-.235.472.693.026-.838.804-.235-.789-.283.026-.837Zm2.354.845-.513.663-.789-.283.472.693-.513.662.805-.234.471.692.026-.837.804-.235-.788-.283.025-.838Z"/><path fill="#D80027" d="M3.13 3.917v16.165a11.987 11.987 0 0 0 6.26 3.632V.284a11.988 11.988 0 0 0-6.26 3.633Z"/><path fill="#F0F0F0" d="m5.52 6.318-1.05-.781V4.433l1.048-.781h1.483l1.048.78v1.105l-1.048.78H5.519Z"/><path fill="#FF9811" d="M6.26 3.652h-.74l-1.049.78v.54h1.79v-1.32Zm0 2.665h.742l1.048-.78v-.564H6.26v1.344Z"/><path fill="#F0F0F0" d="m5.52 20.349-1.049-.781v-1.105l1.048-.78h1.483l1.048.78v1.105l-1.048.78H5.519Z"/><path fill="#FF9811" d="M6.26 17.683h-.74l-1.049.78v.54h1.79v-1.32Zm0 2.667.742-.002 1.048-.78v-.563H6.26v1.344Z"/><path fill="#496E2D" d="m5.52 13.332-1.049-.78v-1.105l1.048-.78h1.483l1.048.78v1.105l-1.048.78H5.519Zm2.566 1.719H7.63v-.456h-.802l-.568-.567-.567.567h-.802v.456h-.457v.913h.457v.457h.802l.567.567.568-.567h.802v-.457h.456v-.913Zm.001-7.015H7.63V7.58h-.802l-.567-.568-.568.568h-.802v.456h-.456v.913h.456v.457h.802l.568.567.567-.567h.802v-.457h.457v-.913Z"/><path fill="#D80027" d="M6.782 11.48H5.74v1.043h1.043v-1.044ZM6.26 9.015a.522.522 0 1 0 0-1.044.522.522 0 0 0 0 1.044Zm0 7.015a.522.522 0 1 0 0-1.043.522.522 0 0 0 0 1.044Z"/></g><defs><clipPath id="a"><path fill="#fff" d="M0 0h24v24H0z"/></clipPath></defs></svg>