<svg xmlns="http://www.w3.org/2000/svg" width="24" height="24" fill="none" viewBox="0 0 24 24">
  <g clip-path="url(#a)">
    <path fill="#F0F0F0" d="M6.498 1.332a11.993 11.993 0 0 0-2.983 2.182c-.901.9-1.628 1.909-2.182 2.983l7.716 8.454 8.454 7.716a11.993 11.993 0 0 0 2.983-2.182c.9-.9 1.627-1.909 2.182-2.983l-7.716-8.454-8.454-7.716Z"/>
    <path fill="#000" d="M20.486 20.485a12.07 12.07 0 0 0 1.347-1.603L5.118 2.167A12.06 12.06 0 0 0 2.167 5.12l16.715 16.715a12.16 12.16 0 0 0 1.604-1.349Z"/>
    <path fill="#D80027" d="M3.514 20.487c3.786 3.786 9.472 4.512 13.988 2.181L1.332 6.498C-.997 11.016-.27 16.702 3.515 20.488ZM20.485 3.515C16.7-.271 11.015-1 6.498 1.332l16.17 16.17c2.33-4.516 1.603-10.201-2.183-13.987Z"/>
  </g>
  <defs>
    <clipPath id="a">
      <path fill="#fff" d="M0 0h24v24H0z"/>
    </clipPath>
  </defs>
</svg>
