<svg xmlns="http://www.w3.org/2000/svg" width="24" height="24" fill="none" viewBox="0 0 24 24">
  <g clip-path="url(#a)">
    <path fill="#338AF3" d="M24 12c0 6.627-5.373 12-12 12S0 18.627 0 12C0 12.003 12 .001 12 0c6.627 0 12 5.373 12 12Z"/>
    <path fill="#0052B4" d="M5.74 12.001h4.047L6.26 7.827l-.52 1.565v2.61ZM12 9.787 7.826 5.739H12v4.048Z"/>
    <path fill="#F0F0F0" d="M11.968 12h.033v-.033l-.033.033Z"/>
    <path fill="#F0F0F0" d="M12 6.261V0h-.002C5.372.003 0 5.374 0 12h6.261V8.475L9.787 12h2.181l.033-.033v-2.18L8.474 6.26H12Z"/>
    <path fill="#D80027" d="M6.071 1.565a12.057 12.057 0 0 0-4.506 4.506v5.93h3.13V4.695H12v-3.13H6.071Z"/>
    <path fill="#D80027" d="M12 10.524 7.738 6.261H6.261L12.001 12v-1.476Z"/>
    <path fill="#FFDA44" d="m13.097 19.825.26.797h.837l-.678.493.26.797-.679-.492-.678.492.26-.797-.679-.493h.838l.26-.797Zm6.676-5.215.259.796h.838l-.678.493.259.797-.678-.492-.678.492.259-.797-.678-.493h.838l.259-.797Zm1.672-7.827.26.797h.837l-.678.492.26.797-.679-.492-.678.492.259-.797-.678-.492h.838l.259-.797Zm.415 5.738.259.798h.838l-.678.492.259.797-.678-.492-.678.492.259-.797-.679-.492h.839l.259-.798Zm-7.561 5.43.747.38.593-.592-.131.828.746.38-.828.132-.13.828-.381-.747-.828.13.593-.592-.381-.747Zm0-3.13.747.38.593-.592-.131.828.746.38-.828.132-.13.828-.381-.747-.828.13.593-.592-.381-.747Zm2.609 2.006.747.38.592-.592-.13.828.746.38-.828.131-.13.828-.381-.747-.828.132.592-.593-.38-.747Zm0-6.702.747.38.592-.592-.13.828.746.38-.828.131-.13.828-.381-.747-.828.131.592-.592-.38-.747Zm2.528-.081.747.381.593-.593-.131.828.747.38-.828.132-.131.828-.38-.747-.829.131.593-.593-.38-.747Z"/>
  </g>
  <defs>
    <clipPath id="a">
      <path fill="#fff" d="M0 0h24v24H0z"/>
    </clipPath>
  </defs>
</svg>
