<svg xmlns="http://www.w3.org/2000/svg" width="24" height="24" fill="none" viewBox="0 0 24 24"><g clip-path="url(#a)"><path fill="#FFDA44" d="M20.943 20a11.954 11.954 0 0 0 3.056-8c0-3.073-1.156-5.877-3.056-8l-8.944-.87L3.056 4A11.954 11.954 0 0 0 0 12c0 3.074 1.156 5.877 3.056 8l8.944.87 8.943-.87Z"/><path fill="#000" d="M3.056 4h17.887C18.746 1.545 15.553 0 12 0a11.97 11.97 0 0 0-8.944 4Z"/><path fill="#D80027" d="m0 12 12 1.044L24 12c0-1.402-.242-2.748-.684-4H.683A11.974 11.974 0 0 0 0 12Z"/><path fill="#000" d="M.683 16h22.633c.442-1.252.684-2.597.684-4H0c0 1.403.241 2.748.683 4Z"/><path fill="#D80027" d="M20.943 20H3.056A11.97 11.97 0 0 0 12 24c3.554 0 6.746-1.545 8.943-4Z"/><path fill="#F0F0F0" d="M16.004 12a4.004 4.004 0 1 1-8.008.001 4.004 4.004 0 0 1 8.008 0Z"/><path fill="#000" d="M13.466 12.204 12 11.568s.343-1.14.361-1.217a.78.78 0 0 0-.209-.73l.37-.37a1.3 1.3 0 0 0-1.845 0l.368.37a.78.78 0 0 0-.195.78l-.556.555h1.01s-.417.627-.645 1.142a1.053 1.053 0 0 0 .53 1.377l.304.135.506.476v.522l-.521.522h1.043v-1.044l.476-.476h.985l.014-.03a1.044 1.044 0 0 0-.53-1.376Z"/></g><defs><clipPath id="a"><path fill="#fff" d="M0 0h24v24H0z"/></clipPath></defs></svg>