<svg xmlns="http://www.w3.org/2000/svg" width="24" height="24" fill="none" viewBox="0 0 24 24"><g clip-path="url(#a)"><path fill="#F0F0F0" d="M12 24c6.627 0 12-5.373 12-12S18.627 0 12 0 0 5.373 0 12s5.373 12 12 12Z"/><path fill="#338AF3" d="M12 8.869h11.586a11.932 11.932 0 0 0-1.348-3.13H12v3.13ZM4.53 21.39h14.94a12.06 12.06 0 0 0 2.769-3.13H1.76a12.064 12.064 0 0 0 2.77 3.13ZM12 0v2.608h7.47A11.948 11.948 0 0 0 12 0Z"/><path fill="#338AF3" d="M12 8.869h11.586a11.932 11.932 0 0 0-1.348-3.13H12v3.13ZM0 12c0 1.083.144 2.132.414 3.13h23.173A12.02 12.02 0 0 0 24 12H0Z"/><path fill="#FFDA44" d="m10.435 7.023-1.465.69.78 1.419-1.591-.304-.202 1.607-1.108-1.182-1.109 1.182-.202-1.607-1.59.304.78-1.42-1.466-.689 1.465-.69-.78-1.418 1.591.304.202-1.608 1.11 1.183L7.957 3.61l.202 1.608 1.591-.304-.78 1.419 1.465.69Z"/></g><defs><clipPath id="a"><path fill="#fff" d="M0 0h24v24H0z"/></clipPath></defs></svg>