<svg xmlns="http://www.w3.org/2000/svg" width="24" height="24" fill="none" viewBox="0 0 24 24">
  <g clip-path="url(#a)">
    <path fill="#F0F0F0" d="M.567 8.348A11.988 11.988 0 0 0 0 12c0 1.274.2 2.5.567 3.652L12 16.174l11.433-.522C23.801 14.501 24 13.274 24 12s-.2-2.5-.567-3.652L12 7.826.567 8.348Z"/>
    <path fill="#D80027" d="M23.433 8.348 12 7.826.567 8.348c-.11.341-.203.69-.282 1.043h23.43a11.934 11.934 0 0 0-.282-1.043ZM.285 14.609c.078.354.173.702.282 1.043L12 16.174l11.433-.522c.11-.341.202-.69.281-1.043H.284Z"/>
    <path fill="#6DA544" d="M12 24c5.354 0 9.888-3.506 11.433-8.348H.567c1.545 4.842 6.08 8.349 11.433 8.349Z"/>
    <path fill="#338AF3" d="M12 0C6.646 0 2.112 3.505.567 8.347h22.866C21.888 3.506 17.353-.001 12-.001Z"/>
    <path fill="#F0F0F0" d="M5.483 4.956c0-1.124.79-2.063 1.845-2.293a2.348 2.348 0 1 0 0 4.586 2.348 2.348 0 0 1-1.845-2.293Zm3.232 1.066.159.49h.514l-.416.302.159.489-.416-.302-.416.302.159-.49-.416-.301h.514l.159-.49Zm1.642 0 .16.49h.513l-.416.302.16.489-.417-.302-.416.302.159-.49-.416-.301h.514l.16-.49Zm1.641 0 .16.49h.514l-.417.302.16.489-.417-.302-.416.302.16-.49-.417-.301h.514l.16-.49Zm1.642 0 .16.49h.514l-.416.302.159.489-.417-.302-.416.302.16-.49-.417-.301h.514l.16-.49Zm1.642 0 .159.49h.514l-.416.302.159.489-.416-.302-.416.302.159-.49-.416-.301h.514l.159-.49Zm-4.925-1.707.16.49h.513l-.416.302.16.489-.417-.303-.416.303.159-.49-.416-.302h.514l.16-.489Zm1.641 0 .16.49h.514l-.417.302.16.489-.417-.303-.416.303.16-.49-.417-.302h.514l.16-.489Zm1.642 0 .16.49h.514l-.416.302.159.489-.417-.303-.416.303.16-.49-.417-.302h.514l.16-.489Zm1.642 0 .159.49h.514l-.416.302.159.489-.416-.303-.416.303.159-.49-.416-.302h.514l.159-.489Zm-3.284-1.707.16.49h.514l-.417.301.16.49-.417-.303-.416.303.16-.49-.417-.302h.514l.16-.489Zm1.642 0 .16.49h.514l-.416.301.159.49-.417-.303-.416.303.16-.49-.417-.302h.514l.16-.489Zm1.642 0 .159.49h.514l-.416.301.159.49-.416-.303-.416.303.159-.49-.416-.302h.514l.159-.489Z"/>
  </g>
  <defs>
    <clipPath id="a">
      <path fill="#fff" d="M0 0h24v24H0z"/>
    </clipPath>
  </defs>
</svg>
