<svg xmlns="http://www.w3.org/2000/svg" width="24" height="24" fill="none" viewBox="0 0 24 24"><g clip-path="url(#a)"><path fill="#0052B4" d="M22.809 17.217a11.952 11.952 0 0 0 1.19-5.218c0-1.87-.427-3.64-1.19-5.217l-10.81-1.044L1.19 6.782A11.952 11.952 0 0 0 0 11.999c0 1.87.427 3.64 1.19 5.218L12 18.26l10.809-1.043Z"/><path fill="#D80027" d="M12 24a12 12 0 0 0 10.809-6.782H1.19A12 12 0 0 0 12 24Z"/><path fill="#F0F0F0" d="m20.782 14.356-.634.495.275.756-.667-.45-.634.495.222-.773-.667-.45.804-.027.222-.774.275.756.804-.028Zm-1.623-2.812-.426.683.517.616-.78-.195-.427.682-.056-.802-.78-.195.745-.301-.056-.803.517.617.746-.302Zm-2.487-2.086-.167.787.697.402-.8.085-.167.786-.327-.735-.8.085.597-.539-.327-.734.697.402.597-.539Zm-3.05-1.11.112.797.792.14-.723.352.112.796-.558-.578-.723.352.377-.71-.559-.578.793.14.377-.711Zm-3.245 0 .377.71.792-.14-.558.58.377.71-.723-.353-.559.578.112-.796-.723-.353.793-.14.111-.796Zm-3.051 1.11.598.539.696-.402-.327.734.598.539-.8-.085-.327.735-.167-.787-.8-.083.696-.403-.167-.787ZM4.84 11.544l.746.302.516-.616-.056.802.746.302-.78.194-.056.802-.427-.682-.78.195.517-.616-.426-.683Zm-1.623 2.812.804.028.275-.755.222.773.803.028-.666.45.221.773-.634-.495-.666.45.275-.757-.634-.495Z"/><path fill="#FFDA44" d="M22.809 6.782A12 12 0 0 0 11.999 0 12 12 0 0 0 1.19 6.782h21.62Z"/></g><defs><clipPath id="a"><path fill="#fff" d="M0 0h24v24H0z"/></clipPath></defs></svg>