<svg xmlns="http://www.w3.org/2000/svg" width="24" height="24" fill="none" viewBox="0 0 24 24"><g clip-path="url(#a)"><path fill="#000" d="M24 12c0-.53-.034-1.053-.101-1.565H10.435l-6.92-6.92c-4.686 4.686-4.686 12.284 0 16.97l6.92-6.92H23.9c.067-.512.101-1.034.101-1.565Z"/><path fill="#D80027" d="m23.899 10.435.015.123C23.202 4.61 18.14 0 12 0a11.962 11.962 0 0 0-8.485 3.515l6.92 6.92H23.9Z"/><path fill="#6DA544" d="M23.899 13.566H10.435l-6.92 6.92A11.961 11.961 0 0 0 12 24c6.14 0 11.202-4.61 11.914-10.558l-.015.124Z"/><path fill="#FFDA44" d="M23.99 11.473H9.993L2.806 4.286a6.13 6.13 0 0 0-.64.83l6.874 6.879-6.88 6.88c.136.243.433.602.641.835l7.194-7.193H23.99a12.053 12.053 0 0 0-.002-1.044Z"/><path fill="#FFDA44" d="M2.915 14.557v-1.005a1.821 1.821 0 0 0 1.82-1.819c0-.71-.578-1.287-1.288-1.287a.878.878 0 0 0-.876.877c0 .31.251.56.56.56a.317.317 0 0 0 .317-.316h1.005c0 .729-.593 1.322-1.322 1.322a1.567 1.567 0 0 1-1.565-1.566c0-1.037.844-1.882 1.882-1.882a2.295 2.295 0 0 1 2.292 2.292 2.827 2.827 0 0 1-2.825 2.824Z"/></g><defs><clipPath id="a"><path fill="#fff" d="M0 0h24v24H0z"/></clipPath></defs></svg>