<svg xmlns="http://www.w3.org/2000/svg" width="24" height="24" fill="none" viewBox="0 0 24 24"><g clip-path="url(#a)"><path fill="#F0F0F0" d="M12 24c6.627 0 12-5.373 12-12S18.627 0 12 0 0 5.373 0 12s5.373 12 12 12Z"/><path fill="#000" d="M3.514 20.485c-4.686-4.686-4.686-12.284 0-16.97L10.434 12l-6.92 8.485Z"/><path fill="#FFDA44" d="M10.434 12 1.592 6.024a11.96 11.96 0 0 0-.724 1.49L5.345 12 .868 16.488c.208.514.45 1.011.723 1.487L10.434 12Z"/><path fill="#6DA544" d="M23.899 10.435H10.435l-6.92-6.92a12.047 12.047 0 0 0-1.923 2.51L7.556 12l-5.965 5.975c.53.92 1.177 1.764 1.923 2.51l6.92-6.92H23.9a12.117 12.117 0 0 0 0-3.13Z"/><path fill="#0052B4" d="M4.694 21.518A11.947 11.947 0 0 0 12 23.998c5.544 0 10.21-3.76 11.586-8.869H11.083l-6.39 6.39Z"/><path fill="#D80027" d="M23.586 8.869C22.21 3.759 17.544 0 12 0 9.25 0 6.717.925 4.694 2.48l6.388 6.389h12.504Z"/></g><defs><clipPath id="a"><path fill="#fff" d="M0 0h24v24H0z"/></clipPath></defs></svg>