<svg xmlns="http://www.w3.org/2000/svg" width="24" height="24" fill="none" viewBox="0 0 24 24">
  <g clip-path="url(#a)">
    <path fill="#F0F0F0" d="M12 24c6.627 0 12-5.373 12-12S18.627 0 12 0 0 5.373 0 12s5.373 12 12 12Z"/>
    <path fill="#FFDA44" d="M22.852 6.873a12.031 12.031 0 0 0-2.447-3.437l-8.404-.827-8.405.828-.08.08 3.357 3.356L12 7.029l10.851-.156ZM3.516 20.485c.044.044.088.089.133.132l8.351.775 8.352-.775a12.03 12.03 0 0 0 2.475-3.436l-15.522-.484-3.789 3.788Z"/>
    <path fill="#000" d="M23.88 10.308 9.914 9.913 12 12l-2.087 2.087 13.96-.343a12.087 12.087 0 0 0 .008-3.436Z"/>
    <path fill="#6DA544" d="M12 0a11.959 11.959 0 0 0-8.404 3.437h16.81A11.962 11.962 0 0 0 12 0Z"/>
    <path fill="#D80027" d="M10.308 10.309H23.88a11.912 11.912 0 0 0-1.03-3.436H6.871l3.437 3.436ZM6.82 17.181h16.007a11.914 11.914 0 0 0 1.046-3.436H10.255L6.82 17.183Z"/>
    <path fill="#6DA544" d="M12 24a11.96 11.96 0 0 0 8.352-3.383H3.649A11.958 11.958 0 0 0 12 24Z"/>
    <path fill="#000" d="M4.285 2.81a12.1 12.1 0 0 0-.77.705L12 12l-8.485 8.486c.246.246.503.481.77.705l9.19-9.19-9.19-9.191Z"/>
    <path fill="#D80027" d="m4.825 8.87.777 2.39h2.514l-2.034 1.48.777 2.391-2.034-1.478L2.79 15.13l.777-2.392-2.034-1.477h2.515l.777-2.392Z"/>
    <path fill="#FFDA44" d="m6.962 12.195-2.025-.718s-.15-1.403-.158-1.45a.783.783 0 1 0-1.523.353l-.568.571h1.01c0 1.048-.783 1.048-.783 2.091l.434 1.044h2.609l.435-1.043c.043-.1.07-.204.08-.307.375-.152.49-.541.49-.541Z"/>
  </g>
  <defs>
    <clipPath id="a">
      <path fill="#fff" d="M0 0h24v24H0z"/>
    </clipPath>
  </defs>
</svg>
